<svg xmlns="http://www.w3.org/2000/svg" xmlns:xlink="http://www.w3.org/1999/xlink" width="566.93" height="566.93" viewBox="0 0 566.93 566.93"><g><defs><path id="a" d="M-612-624h566.93v566.93H-612z"/></defs><clipPath id="b"><use xlink:href="#a" overflow="visible"/></clipPath><circle fill="#fff" stroke="#000" stroke-width="8" stroke-miterlimit="10" cx="67.853" cy="-73.652" r="70.149" clip-path="url(#b)"/><defs><path id="c" d="M-2.873-624.3h566.93v566.93H-2.874z"/></defs><clipPath id="d"><use xlink:href="#c" overflow="visible"/></clipPath><g clip-path="url(#d)" fill="#fff" stroke="#000" stroke-miterlimit="10"><circle stroke-width="8" cx="614.564" cy="-40.531" r="70.149"/><circle stroke-width="7" cx="614.564" cy="-40.531" r="52.612"/></g><g clip-path="url(#d)" fill="#fff" stroke="#000" stroke-miterlimit="10"><circle stroke-width="8" cx="450.318" cy="-40.531" r="70.149"/><circle stroke-width="7" cx="450.318" cy="-40.531" r="52.612"/></g><g clip-path="url(#d)" fill="#fff" stroke="#000" stroke-miterlimit="10"><circle stroke-width="8" cx="286.073" cy="-40.531" r="70.149"/><circle stroke-width="7" cx="286.073" cy="-40.531" r="52.612"/></g><g clip-path="url(#d)" fill="#fff" stroke="#000" stroke-miterlimit="10"><circle stroke-width="8" cx="121.827" cy="-40.531" r="70.149"/><circle stroke-width="7" cx="121.827" cy="-40.531" r="52.612"/></g><g clip-path="url(#d)" fill="#fff" stroke="#000" stroke-miterlimit="10"><circle stroke-width="8" cx="-42.419" cy="-40.531" r="70.149"/><circle stroke-width="7" cx="-42.419" cy="-40.531" r="52.612"/></g><path fill="none" d="M515.998 129.52c-.71.028-1.712.124-2.77.225-1.976.188-4.214.4-6.555.4-5.614 0-12.867-1.484-15.538-8.555-1.792-4.742-3.448-5.975-6.064-6.692-.966-.266-1.918-.4-2.827-.4-6.47 0-10.933 7.04-11.04 13.615-.06 3.623 1.32 7.388 2.78 11.374.736 2.013 1.5 4.095 2.133 6.29.97 3.357-.248 6.355-5.876 17.72-1.054 2.13-2.472 4.992-2.89 6.04-.025.57.324 1.632 1.095 2.685 1.455 1.984 4.01 3.463 6.967 5.174 2.804 1.623 5.982 3.462 8.693 6.13.543.534 1.096 1.1 1.66 1.68 2.162 2.22 4.855 4.98 6.694 4.98.222 0 .457-.035.718-.11 3.686-1.05 5.032-6.588 5.508-9.797.133-.9.236-1.9.347-2.963.513-4.958 1.152-11.13 5.68-15.9 4.622-4.87 11.77-5.475 17.513-5.96 2.21-.187 4.295-.363 5.683-.726 8.61-2.25 20.054-8.055 21.064-13.457-.99-1.182-1.782-2.527-2.327-3.792-6.81-5.458-15.59-8.025-27.254-8.025-1.094 0-2.235.023-3.395.066zM288.2 117.77l1.458-25.788c-2.64-.544-5.326-.88-8.032-1.005-.95-.044-1.76-.06-2.46-.074-6.865-.14-9.543-1.524-12.92-9.91-3.646-9.06-7.757-13.795-12.934-14.895-.965-.206-1.85-.31-2.625-.31-2.316 0-4.49.577-7.62 7.67-4.087 9.25-12.844 9.515-18.64 9.69-2.395.072-4.87.147-6.25.776-4.042 1.845-4.355 9.567-3.395 15.62 1.327 8.364 5.15 13.145 12.395 15.498l1.304.42c9.114 2.938 18.538 5.975 22.088 19.182 1.496 5.567 5.805 11.744 13.41 12.383.57.048 1.22.07 2.044.07.723 0 1.455-.017 2.19-.032.84-.02 1.686-.037 2.526-.037 3.323 0 11.105 0 16.282 6.603 2.146 2.738 3.39 5.617 4.487 8.157 1.538 3.562 2.44 5.473 4.597 6.563 2.554 1.294 6.136 1.95 10.647 1.95 1.308 0 2.69-.052 4.225-.16 3.824-.266 5.407-.376 5.753-9.04.36-9.05-.853-24.487-13.042-26.198-3.658-.513-7.83-1.427-11.034-4.31-3.27-2.94-4.768-7.255-4.452-12.82zM124.04 328.326c-.146 1.295-.286 2.512-.392 3.62-1.174 12.3-3.657 24.448-7.392 36.174.52.212 1.047.277 1.602.277 4.083 0 10.146-3.698 15.494-6.96 5.184-3.163 10.08-6.15 14.794-6.993l.595-.106c8.038-1.434 10.006-1.965 11.852-7.04.993-2.73 1.447-5.865 1.93-9.184.716-4.95 1.53-10.56 4.404-15.805 3.063-5.592 9.933-8.6 16.574-11.51 3.335-1.46 10.274-4.5 10.908-6.296-.01 0-.09-1.296-2.72-4.167-2.896-3.162-7.527-4.325-12.888-5.672-2.816-.707-5.728-1.438-8.58-2.533-9.39-3.604-17.764-10.67-25.602-21.6-1.207-1.683-2.267-3.48-3.29-5.218-3.284-5.566-5.156-8.19-8.135-8.21l-.85-.002c-7.278 0-14.858.577-22.188 1.136-2.562.195-5.185.395-7.808.57-2.287 4.82-2.777 10.755-1.27 16.433 1.652 6.237 5.074 8.962 10.253 13.086 2.112 1.683 4.507 3.59 6.888 5.89 8.752 8.46 7.06 23.285 5.823 34.11zM430.904 314.957c3.836-4.266 8.184-9.1 14.62-10.117 1.38-.217 2.827-.323 4.43-.323 2.38 0 4.703.235 6.95.462 2.034.205 3.957.4 5.725.4 2.35 0 3.976-.342 5.273-1.105 2.237-1.314 2.62-4.77 2.55-7.438-.026-1.007-.13-1.77-.23-2.512-.72-5.28.663-8.204 5.687-12.03l7.08-5.393c1.408-1.072 2.93-2.127 4.4-3.147 8.23-5.707 11.953-8.944 10.57-13.96-3.532-12.813-15.466-22.113-28.373-22.113-3.976 0-7.84.896-11.484 2.662-7.117 3.448-11.378 11.872-13.964 17.908-.45 1.047-.796 1.977-1.132 2.875-2 5.363-4.1 9.29-12.492 10.458-3.012 1.225-6.247 1.993-9.52 2.267-.27 6.14-2.774 11.864-4.925 16.78-1.528 3.494-2.973 6.796-3.495 9.72-1.186 6.64 5.213 18.13 11.223 20.156.204.068.38.104.525.104 1.496 0 4.556-3.403 6.58-5.655zM183 147.405c-2.157.737-4.3 2.05-6.566 3.442-3.773 2.316-8.05 4.94-13.63 5.688-1.382.186-2.823.275-4.405.275-3.5 0-7.056-.452-10.493-.89-3.274-.416-6.367-.81-9.227-.81-4.427 0-7.224.943-9.35 3.152-.526.547-.848 3.144-1.02 4.538-.442 3.58-1.048 8.483-5.57 10.967-3.858 2.12-7.87 2.392-10.937 2.392-1.225 0-2.397-.05-3.532-.097-.955-.04-1.9-.082-2.813-.082l-.153.002c-4.36.023-5.784 1.627-6.25 2.153-1.98 2.23-2.734 6.833-2.073 12.633.497 4.35 4.318 7.483 10.553 12.128 3.226 2.403 6.562 4.888 9.395 7.953l1.502 1.634c5.69 6.208 11.573 12.627 18.92 13.737 1.2.183 2.597.278 4.036.278 3.99 0 8.116-.73 10.767-1.906.555-.246 1.003-1.205 1.826-3.182.707-1.703 1.51-3.633 2.884-5.534 4.872-6.748 12.31-7.528 17.48-7.528 2.15 0 4.276.146 6.334.287 1.876.13 3.648.25 5.266.25 1.697 0 2.978-.136 3.915-.417 6.418-1.926 12.592-9.857 18.04-16.854 1.893-2.433 3.68-4.73 5.476-6.784.838-.96 1.768-1.973 2.74-3.032 4.52-4.923 10.023-10.92 9.9-16.006-2.134-.88-6.235-1.88-9.135-2.584-9.952-2.42-20.243-4.925-23.577-12.815-.483-1.144-.884-2.587-.942-4.29-3.16-.16-6.36.278-9.36 1.302zM227.895 257.188c10.6-1.29 20.527-5.827 27.954-12.778.566-.53 1.1-1.05 1.614-1.55 3.713-3.603 7.92-7.69 16.058-7.69l.283.002 21.685.25c3.763-8.928 5.713-21.61 1.31-24.48-5.763-3.757-15.63-6.38-24-6.38-2.575 0-4.863.242-6.8.72-6.204 1.527-10.174 6.457-14.77 12.165-2.374 2.946-4.827 5.992-7.76 8.764-7.902 7.466-15.64 8.473-22.167 8.473-1.78 0-3.55-.08-5.264-.158-1.67-.076-3.396-.155-5.086-.155-2.16 0-3.976.126-5.715.396-1.52.236-3.814 2.746-5.08 6.933-1.405 4.652-.84 9.16.57 10.45 3.8 3.476 11.088 5.47 19.994 5.47 2.413-.002 4.825-.146 7.17-.432zM241.746 309.62c4.327 1.886 9.713 4.232 13.177 10.257 2.852 4.962 3.67 10.483 4.035 14.206l.054.545.038.39c.488.06 1.02.126 1.602.203 6.82.91 16.89 2.94 25.54 10.058 3.59 2.954 8.385 4.718 12.827 4.718 4.095 0 9.457-1.454 11.743-8.375.972-2.943 3.88-4.794 6.965-4.412 1.388.17 2.81.257 4.228.257 12.264 0 24.834-6.44 32.806-16.805 4.854-6.312 7.705-13.302 7.626-18.696-.008-.497-.09-.745-.118-.792-.007-.008-.963-1.128-6.557-1.128-1.358 0-2.688.06-3.975.12l-1.26.054c-2.29.09-4.63.255-7.107.43-3.877.27-7.886.553-11.93.553-4.215 0-7.894-.312-11.245-.958-10.958-2.11-14.987-9.537-18.542-16.09l-.714-1.312c-2.163-3.947-4.92-5.865-8.426-5.865-7.555 0-16.646 8.423-17.383 16.098v.013c-.34 3.573-3.496 6.203-7.085 5.857-3.574-.34-6.196-3.51-5.857-7.084.045-.48-.02-.664-.02-.666-.005 0-1.515-1.676-8.676-1.676-.815 0-1.522.02-2.065.036l-.583.015c-3.926.086-11.036.942-14.53 5.708-2.403 3.274-3.367 8.362-.735 10.874 1.507 1.44 3.667 2.38 6.166 3.468zM298.666 18.66c-.778.072-1.582.107-2.454.107-1.806 0-3.558-.153-5.25-.302-2.35-.204-4.6-.364-6.144-.14-.132 2.595.392 5.278 1.515 7.647 1.01.163 2.8.185 4.064.2 3.02.034 6.44.074 9.575 1.26 9.59 3.627 13.354 10.89 16.38 16.726 1.727 3.33 3.24 6.248 5.6 8.43.57.132 1.165.2 1.78.2 3.918 0 8.05-2.736 9.407-6.228 1.15-2.96.353-6.618-.57-10.854-1.235-5.672-2.636-12.1.277-18.893.59-1.38 1.295-2.636 1.975-3.85.424-.756.992-1.77 1.345-2.55-4.658-3.676-10.83-7.136-15.95-7.136-2.66 0-4.754.948-6.592 2.983-.755.837-1.35 1.882-2.04 3.092-1.938 3.41-4.87 8.56-12.92 9.307zM402.128 225.775c1.48-1.06 1.69-1.704 1.867-5.747.087-1.993.186-4.25.757-6.75 1.437-6.28 5.91-10.342 9.507-13.605 1.503-1.364 2.923-2.652 3.913-3.893 3.108-3.894 4.508-9.23 3.48-13.277-.662-2.618-2.272-4.437-4.92-5.56-9.27-3.925-15.115-10.038-20.77-15.95-3.617-3.78-7.034-7.353-11.293-10.306-2.585-1.793-5.01-2.664-7.418-2.664-4.62 0-9.908 3.31-16.17 10.12-11.006 11.97-14.15 20.37-12.943 34.57 1.4 16.477-2.724 28.046-11.455 32.884 1.348 3.12 4.092 5.8 7.34 6.85 8.31 2.683 11.13 14.347 13.618 24.638.02.074.036.15.055.224.612.62 1.144 1.322 1.594 2.056 2.568-2.464 6.016-9.91 7.27-12.616 1.546-3.34 2.768-5.98 4.188-7.854 5.632-7.423 13.903-8.774 20.55-9.86 4.183-.686 8.134-1.333 10.828-3.26zM262.707 497.582c.695.237 1.367.426 2.02.61 2.91.816 7.71 2.166 9.404 8.417.145.033.326.063.544.076.697.04 1.42.06 2.15.06 5.546 0 11.138-1.14 17.058-2.348 6.305-1.287 12.824-2.617 19.708-2.617 1.095 0 2.163.034 3.214.1 1.81-5.728 3.004-11.656 3.564-17.686.322-3.476.43-6.988.322-10.46-.85-.305-1.79-.734-2.79-1.347-9.367-5.724-10.683-15.56-11.74-23.463-.97-7.26-1.826-11.872-5.513-14.708-1.768-1.358-3.456-2.02-5.165-2.02-3.506 0-7.887 2.822-12.336 7.946-.743.855-1.475 1.728-2.206 2.6-2.556 3.045-5.198 6.194-8.5 8.978-5.442 4.587-10.55 4.964-14.652 5.267-2.032.15-3.787.28-5.66.87-2.156.683-4.72 5.06-5.447 15.296-.494 6.963.007 14.396.578 19.795 5.202 1.353 10.382 2.906 15.45 4.634zM446.676 399.64c5.06 2.864 11.793 3.893 17.707 4.63 3.864.485 7.8.722 11.677.665l.402-.002c7.84 0 10.314 3.495 11.62 8.743.19.773.39 1.573.712 2.49 5.724 16.273 13.603 25.038 23.417 26.048 2.823.284 4.286-.725 7.862-3.48.637-.492 1.292-.996 1.978-1.504 6.3-4.67 13.337-8.1 20.914-10.192 2.918-.808 5.736-1.39 8.224-1.902 10.312-2.128 13.425-2.77 13.878-12.538.437-9.39.51-17.787-2.658-24.25l-23.064.185c-.864.007-2.002.077-3.207.153-1.704.105-3.635.227-5.632.227-4.883 0-11.864-.642-16.097-6.194-1.917-2.515-2.796-5.033-3.503-7.057-.95-2.723-.973-2.73-2.146-3.043-1.17-.312-2.5-.465-4.067-.465-2.65 0-5.606.446-8.466.878-1.277.193-2.537.383-3.768.538-2.22.28-4.473.533-6.742.788-10.902 1.223-22.177 2.487-31.372 7.18-5.888 3.007-11.132 9.303-11.223 13.474-.017.77-.056 2.583 3.553 4.627zM195.94 455.118c4.276-2.534 8.9-3.255 12.982-3.89 2.85-.445 5.558-.867 7.334-1.82.624-1.497.904-5.51 1.06-7.735.202-2.912.395-5.662 1.08-7.926 2.848-9.396 8.11-17.946 15.218-24.724 2.57-2.45 5.342-4.626 8.275-6.496-.21-1.623-.577-3.234-1.1-4.82-1.29-3.912-4.044-7.287-6.962-10.86-2.948-3.61-6.29-7.704-8.434-12.84-2.77-6.64-3.72-13.6-4.202-20.16l-6.4.013c-.148 4.636-1.008 9.25-2.553 13.622-.592 1.67-1.84 3.027-3.453 3.757-1.614.73-3.457.768-5.1.107-1.274-.512-2.616-.77-3.99-.77-6.326 0-12.28 5.454-12.74 11.673-.15 2.06.15 4.962.47 8.035.995 9.595 2.5 24.094-10.583 30.162-.844.39-1.693.697-2.53.938 2.74 8.135 3.264 17.094 1.374 25.67-1.053 4.782-3.466 9.057-5.8 13.19-1.98 3.51-3.88 6.875-4.528 9.89 4.842 2.12 10.152 3.172 15.514 3.08 2.302-7.25 7.587-13.666 15.066-18.097zM337.507 403.656c.96.85 2.152 1.91 3.406 3.36 2.978 3.44 4.737 7.45 6.29 10.987 2.382 5.428 3.907 8.555 7.57 9.718 1.783.567 3.786.82 6.495.82 1.625 0 3.298-.09 5.068-.185 1.862-.1 3.79-.203 5.76-.203 3.953 0 7.195.433 10.203 1.362 7.56 2.335 10.758 8.396 13.095 12.82 2.175 4.122 3.288 5.865 5.575 6.522.998.286 1.898.432 2.68.432 1.392 0 2.27-.44 3.03-1.522 1.965-2.792 2.27-8.667.68-13.096-4.38-12.2-3.348-22.263-2.256-32.916.2-1.954.406-3.964.587-6.054.06-.688.127-1.408.197-2.154.842-8.964 1.215-17.205-3.394-19.562-5.712-2.92-9.33-7.525-12.524-11.59-2.677-3.404-4.987-6.345-7.946-7.675-1.273-.574-2.56-.89-3.618-.89-1.507 0-1.976.58-2.296 1.125-.55.936-1.148 2.155-1.78 3.446-2.698 5.506-6.776 13.826-15.486 13.826-.192 0-.386-.005-.58-.014-7.93-.362-15.965 2.125-22.255 6.785l-.217 21.646c-.014 1.48-.014 1.48 1.714 3.013zM445.87 65.323c-4.065 0-8.37.113-13.156.348-5.703.28-11.392.695-16.688 1.102-.576.045-1.11.064-1.608.064-6.155 0-8.896-3.266-10.534-5.218-.703-.838-1.26-1.5-2.188-2.165-1.834-1.313-3.715-1.98-5.592-1.98-3.18 0-5.89 1.863-7.603 3.426l-.33.3c-6.922 6.314-12.9 11.767-22.59 15.78-6.77 2.803-14.05 6.27-14.738 11.938-.194 1.598-.234 3.17-.273 4.69-.154 6.02-.365 14.265-12.34 18.247-1.69.562-2.88 1.436-3.265 2.397-.49 1.226.21 2.86.67 3.727 1.07 2.008 3.185 4.313 10.106 4.313 1.577 0 3.207-.12 4.845-.312 1.154-1.028 2.562-1.762 3.91-2.198 3.603-5.76 7.583-11.54 16.655-14.36 5.906-1.835 10.752-2.69 15.252-2.69 3.582 0 6.958.566 10.036 1.68 2.953 1.07 5.344 2.716 7.452 4.168 2.69 1.854 4.343 2.946 6.083 2.84 3.854-.23 7.488-4.135 9.088-7.872.45-1.052.67-2.635.904-4.31.625-4.492 1.57-11.28 8.85-14.792 2.885-1.393 6.014-2.04 9.848-2.04 1.758 0 3.436.13 5.057.257 1.444.113 2.81.22 4.076.22 1.598 0 2.812-.175 3.823-.553 3.694-1.38 7.014-4.82 8.664-8.978 1.006-2.536 1.326-5.07.96-7.394-4.803-.426-9.87-.635-15.375-.635zM71.573 419.527c9.81-.254 17.14 4.83 23.588 9.266 3.984 2.74 7.563 5.204 11.298 6.28.025-.03.052-.063.077-.096 1.88-2.315 4.604-3.742 7.473-3.914.13-.008.262-.012.392-.012 2.63 0 5.016 1.59 6.018 4.048 2.24 5.5 8.14 10.147 12.878 10.147 1.86 0 3.528-.687 5.1-2.1 2.594-2.33 4.013-5.73 4.22-10.113.33-6.996-2.63-15.343-7.194-20.298-10.214-11.085-20.545-17.702-27.635-17.702-.853 0-1.67.097-2.432.288-3.656.92-7.08 3.566-10.704 6.368-5.075 3.925-10.83 8.372-18.714 9.232-4.22.46-7.45 2.86-9.07 4.955-1.02 1.32-1.258 2.286-1.285 2.653.456.334 2.055 1.003 5.403 1.003.192.003.39 0 .59-.003z"/><path d="M178.8 135.103c-3.525 1.204-6.522 3.043-9.166 4.665-3.062 1.88-5.705 3.502-8.556 3.884-.805.107-1.68.16-2.68.16-2.677 0-5.677-.382-8.853-.785-3.53-.45-7.184-.913-10.866-.913-7.972 0-14.094 2.334-18.717 7.136-3.53 3.668-4.123 8.46-4.556 11.96-.06.488-.137 1.11-.22 1.647-.866.21-1.965.306-3.385.306-.954 0-1.943-.04-2.99-.085-1.09-.045-2.22-.093-3.356-.093h-.227c-8.398.047-13.283 3.574-15.902 6.525-4.555 5.133-6.376 12.994-5.265 22.734 1.17 10.254 8.89 16.006 15.702 21.08 2.878 2.145 5.596 4.17 7.613 6.353l1.466 1.595c6.538 7.133 14.675 16.01 26.56 17.807 1.86.28 3.87.423 5.98.423 5.86 0 11.707-1.103 16.038-3.023 5.353-2.376 7.28-7.006 8.556-10.07.48-1.15.932-2.238 1.423-2.918.803-1.11 2.198-2.14 6.94-2.14 1.704 0 3.52.126 5.442.258 2.013.138 4.094.28 6.157.28 3.02 0 5.452-.307 7.65-.966 10.393-3.118 17.92-12.788 24.562-21.32 1.776-2.283 3.455-4.44 5.007-6.216.772-.885 1.63-1.818 2.527-2.795 6.578-7.167 16.52-17.996 12.37-30.65-.26-.793-.668-1.527-1.205-2.165-3.27-3.88-9.287-5.344-16.904-7.197-4.193-1.02-12.766-3.104-14.55-5.106.065-.217.214-.598.545-1.16 1.003-1.7 1.178-3.766.476-5.61-.702-1.847-2.205-3.272-4.085-3.878-7.508-2.422-15.94-2.317-23.535.277zm14.5 15.292c3.335 7.89 13.626 10.395 23.58 12.815 2.898.705 7 1.703 9.133 2.584.124 5.086-5.38 11.083-9.9 16.006-.972 1.06-1.9 2.073-2.74 3.032-1.794 2.054-3.582 4.352-5.476 6.784-5.447 6.997-11.62 14.93-18.04 16.854-.938.28-2.218.418-3.915.418-1.617 0-3.39-.122-5.266-.25-2.058-.143-4.184-.288-6.335-.288-5.17 0-12.605.78-17.478 7.528-1.373 1.9-2.177 3.83-2.885 5.534-.823 1.977-1.27 2.936-1.826 3.182-2.65 1.176-6.775 1.906-10.766 1.906-1.44 0-2.836-.096-4.037-.277-7.346-1.11-13.23-7.53-18.92-13.737l-1.5-1.635c-2.834-3.064-6.17-5.55-9.396-7.952-6.233-4.645-10.055-7.778-10.55-12.128-.662-5.8.093-10.403 2.07-12.633.468-.526 1.89-2.13 6.252-2.153h.153c.914 0 1.858.04 2.814.08 1.134.048 2.307.097 3.53.097 3.066 0 7.08-.27 10.94-2.39 4.52-2.484 5.126-7.388 5.568-10.968.172-1.395.493-3.99 1.02-4.538 2.126-2.21 4.923-3.15 9.35-3.15 2.86 0 5.952.392 9.227.81 3.438.436 6.992.888 10.492.888 1.582 0 3.023-.09 4.406-.275 5.578-.747 9.855-3.372 13.63-5.688 2.267-1.393 4.408-2.706 6.566-3.443 3-1.024 6.196-1.462 9.356-1.3.06 1.7.462 3.144.945 4.288zM236.552 321.538c3.69 1.607 5.838 2.623 7.1 4.817 1.603 2.79 2.12 6.473 2.368 9.002l.053.535c.354 3.628.61 6.248 2.63 8.582 2.31 2.672 5.266 3.027 8.395 3.403.544.065 1.153.14 1.836.23 8.446 1.123 14.305 3.347 18.995 7.207 5.93 4.88 13.617 7.68 21.09 7.68 9.704 0 17.63-4.6 22.02-12.54.305.006.61.01.915.01 16.212 0 32.73-8.385 43.11-21.88 3.16-4.11 10.494-14.952 10.32-26.813-.082-5.5-2.745-14.728-19.674-14.728-1.652 0-3.198.07-4.562.133l-1.18.05c-2.492.1-5.043.278-7.51.45-3.653.258-7.432.523-11.02.523-3.38 0-6.256-.237-8.787-.725-4.682-.9-6.115-3.15-9.572-9.523l-.74-1.357c-4.457-8.14-11.498-12.62-19.825-12.62-9.756 0-19.75 6.37-25.508 14.992-3.446-1.643-7.92-2.45-13.514-2.45-.958 0-1.79.024-2.43.042l-.503.014c-10.912.24-19.694 4.153-24.73 11.017-5.695 7.765-7.36 20.206.774 27.97 3.182 3.03 6.78 4.598 9.952 5.98zm-.24-26.262c3.495-4.766 10.605-5.622 14.53-5.71l.584-.014c.543-.016 1.25-.036 2.065-.036 7.162 0 8.672 1.676 8.677 1.676 0 .002.064.188.02.665-.34 3.574 2.283 6.745 5.857 7.084 3.59.347 6.745-2.283 7.084-5.856 0-.004 0-.008.002-.013.736-7.674 9.828-16.097 17.383-16.097 3.507 0 6.263 1.918 8.425 5.865l.714 1.312c3.555 6.553 7.584 13.98 18.542 16.09 3.352.646 7.03.96 11.246.96 4.043 0 8.052-.282 11.93-.555 2.478-.174 4.817-.34 7.108-.43l1.26-.054c1.285-.058 2.615-.118 3.974-.118 5.594 0 6.55 1.12 6.557 1.128.027.047.11.295.117.792.08 5.395-2.77 12.384-7.626 18.696-7.97 10.365-20.54 16.805-32.805 16.805-1.417 0-2.84-.087-4.228-.257-3.086-.382-5.993 1.47-6.965 4.413-2.286 6.92-7.648 8.373-11.744 8.374-4.442 0-9.238-1.764-12.828-4.718-8.648-7.117-18.718-9.148-25.54-10.057-.58-.078-1.112-.144-1.6-.203l-.04-.39-.053-.546c-.366-3.722-1.184-9.243-4.035-14.205-3.464-6.024-8.85-8.37-13.177-10.257-2.5-1.09-4.658-2.03-6.168-3.47-2.63-2.51-1.667-7.597.735-10.872zM381.107 246.752c2.375-3.13 6.217-3.896 12.29-4.89 5.218-.853 11.132-1.82 16.297-5.515 6.813-4.877 7.088-11.162 7.29-15.75.068-1.58.134-3.073.442-4.423.524-2.297 2.862-4.418 5.57-6.875 1.815-1.65 3.694-3.355 5.335-5.41 5.692-7.126 7.962-16.545 5.926-24.58-1.658-6.547-6.08-11.638-12.453-14.337-6.798-2.88-11.27-7.554-16.445-12.966-3.903-4.08-7.94-8.302-13.278-12.004-4.767-3.305-9.755-4.98-14.826-4.98-11.27 0-20.087 8.173-25.74 14.32-11.363 12.36-18.06 24.11-16.326 44.47.503 5.907.827 19.79-7.003 21.147-3.098.536-5.368 3.214-5.39 6.358-.074 10.243 7.003 20.014 16.877 23.38 2.1 2.048 4.443 11.743 5.337 15.44.476 1.97.925 3.83 1.372 5.364.07.25.152.52.244.808.188.627.473 1.228.85 1.78.382.56.845 1.05 1.368 1.46 2.963 2.374 6.097 3.578 9.317 3.578 10.516 0 16.112-12.092 20.198-20.92.97-2.094 2.178-4.703 2.75-5.456zm-10.357-7.857c-1.42 1.874-2.643 4.514-4.19 7.854-1.252 2.705-4.7 10.15-7.268 12.615-.45-.733-.98-1.436-1.594-2.057-.02-.074-.036-.15-.055-.224-2.488-10.29-5.31-21.955-13.618-24.638-3.248-1.05-5.992-3.73-7.34-6.85 8.73-4.838 12.856-16.407 11.454-32.885-1.21-14.198 1.937-22.598 12.943-34.57 6.26-6.81 11.55-10.118 16.17-10.118 2.406 0 4.832.87 7.417 2.664 4.26 2.953 7.676 6.524 11.293 10.307 5.654 5.91 11.5 12.024 20.77 15.95 2.647 1.122 4.258 2.94 4.92 5.56 1.027 4.048-.372 9.383-3.48 13.276-.99 1.24-2.41 2.527-3.914 3.892-3.597 3.264-8.07 7.324-9.508 13.604-.57 2.5-.67 4.758-.757 6.75-.177 4.044-.387 4.69-1.867 5.748-2.694 1.928-6.646 2.574-10.83 3.258-6.644 1.088-14.916 2.44-20.548 9.863zM440.57 323.65c2.273-2.527 5.1-5.672 6.98-5.97.702-.11 1.487-.164 2.402-.164 1.727 0 3.63.192 5.643.396 2.267.23 4.61.466 7.034.466 4.665 0 8.545-.948 11.86-2.896 6.01-3.532 9.19-10.276 8.958-18.993-.038-1.402-.16-2.51-.273-3.376.17-.136.372-.294.61-.477l7.08-5.393c1.18-.896 2.517-1.824 3.933-2.807 7.836-5.435 19.678-13.647 15.695-28.1-5.06-18.343-22.262-31.656-40.906-31.656-5.956 0-11.728 1.334-17.154 3.964-11.032 5.347-16.837 16.537-20.243 24.487-.57 1.333-1.01 2.508-1.36 3.45-.242.647-.528 1.414-.736 1.876-.328.088-.934.215-1.97.326-.675.072-1.333.25-1.952.525-3.53 1.57-7.686 2.047-11.48 1.313-2.325-.446-4.71.4-6.226 2.218-1.517 1.818-1.925 4.316-1.066 6.52 1.783 4.582-.543 9.9-3.237 16.06-1.766 4.035-3.59 8.208-4.383 12.647-2.084 11.667 6.853 30.372 19.865 34.76 1.546.52 3.12.785 4.68.785 7.288.002 12.255-5.522 16.246-9.96zm-27.994-23.297c.522-2.924 1.967-6.226 3.496-9.72 2.15-4.916 4.654-10.64 4.926-16.78 3.27-.273 6.507-1.042 9.52-2.267 8.39-1.17 10.49-5.095 12.49-10.458.337-.898.684-1.828 1.132-2.875 2.586-6.036 6.847-14.46 13.964-17.908 3.645-1.767 7.51-2.662 11.484-2.662 12.907 0 24.84 9.3 28.373 22.112 1.384 5.017-2.34 8.254-10.57 13.96-1.47 1.022-2.99 2.076-4.4 3.148l-7.08 5.393c-5.023 3.826-6.405 6.75-5.687 12.03.1.74.205 1.505.23 2.512.072 2.667-.31 6.123-2.55 7.438-1.297.763-2.924 1.104-5.273 1.104-1.768 0-3.69-.194-5.726-.4-2.246-.227-4.568-.462-6.95-.462-1.602 0-3.05.106-4.428.323-6.438 1.018-10.785 5.853-14.62 10.118-2.025 2.252-5.086 5.655-6.58 5.655-.146 0-.322-.035-.526-.104-6.01-2.028-12.41-13.52-11.224-20.157zM515.5 116.53c-1.08.042-2.256.154-3.503.272-1.687.16-3.6.343-5.323.343-2.154 0-3.125-.283-3.483-.43-2.09-5.44-5.68-11.887-14.68-14.355-2.088-.572-4.196-.862-6.267-.862-13.016 0-23.8 11.843-24.04 26.4-.1 6.04 1.852 11.363 3.573 16.06.5 1.37.982 2.684 1.402 3.973-.87 2.288-3.232 7.06-4.59 9.8-2.68 5.412-3.575 7.297-3.923 8.896-.934 4.306.267 9.146 3.293 13.277 3.068 4.188 7.25 6.607 10.94 8.743 2.343 1.355 4.554 2.635 6.09 4.146.48.473.968.974 1.466 1.485 3.664 3.76 8.684 8.908 16.004 8.908 1.426 0 2.867-.204 4.282-.608 7.935-2.26 13.192-9.503 14.805-20.396.175-1.18.3-2.372.418-3.526.343-3.31.696-6.73 2.18-8.29 1.216-1.283 6.007-1.688 9.177-1.956 2.66-.225 5.408-.457 7.876-1.102 5.305-1.387 13.185-4.385 19.39-8.638 11.802-8.092 12.12-16.85 11.09-21.665-.166-1.19-.617-2.38-1.28-3.846l-.002-.002c-.34-.752-.807-1.408-1.362-1.954-.364-.374-.75-.77-1.164-1.154-9.537-9.145-22.144-13.594-38.475-13.594-1.26.002-2.568.028-3.894.08zm33.474 24.742c-1.01 5.402-12.453 11.206-21.065 13.458-1.39.362-3.475.54-5.684.726-5.743.485-12.89 1.09-17.513 5.96-4.527 4.77-5.167 10.942-5.68 15.9-.11 1.062-.214 2.063-.347 2.962-.476 3.21-1.822 8.748-5.508 9.798-.26.074-.496.11-.72.11-1.838 0-4.53-2.763-6.694-4.982-.563-.578-1.116-1.145-1.66-1.678-2.71-2.67-5.89-4.508-8.692-6.13-2.958-1.712-5.512-3.19-6.967-5.175-.77-1.052-1.12-2.114-1.094-2.683.418-1.05 1.836-3.912 2.89-6.04 5.628-11.365 6.845-14.363 5.876-17.722-.634-2.194-1.396-4.276-2.134-6.29-1.46-3.985-2.84-7.75-2.78-11.373.108-6.575 4.57-13.614 11.04-13.614.91 0 1.862.134 2.83.4 2.615.717 4.27 1.95 6.063 6.69 2.67 7.07 9.924 8.556 15.538 8.556 2.34 0 4.58-.213 6.554-.4 1.06-.1 2.06-.196 2.77-.224 1.16-.044 2.302-.067 3.396-.067 11.663 0 20.443 2.567 27.254 8.026.545 1.265 1.338 2.61 2.327 3.792zM466.847 53.473c-6.517-.773-13.378-1.15-20.98-1.15-4.277 0-8.788.12-13.79.364-5.86.287-11.658.71-17.05 1.124-.253.02-.507.027-.698.026-.154-.175-.338-.394-.49-.573-.92-1.1-2.314-2.76-4.58-4.38-4.027-2.884-8.577-4.408-13.158-4.408-5.812 0-11.47 2.358-16.362 6.82l-.33.3c-6.514 5.94-11.22 10.232-18.807 13.374-7.342 3.04-21.008 8.7-22.67 22.384-.267 2.212-.317 4.184-.36 5.923-.133 5.142-.133 5.142-3.447 6.244-5.408 1.8-9.397 5.317-11.232 9.907-1.81 4.523-1.36 9.73 1.265 14.66 3.957 7.438 11.218 11.208 21.58 11.208 4.365 0 8.653-.647 12.64-1.35l.04-.007c.922-.163 1.765-.513 2.494-1.003.676-.453 1.275-1.04 1.76-1.753.02-.034.045-.068.067-.104.783-1.195 1.504-2.353 2.195-3.467 3.55-5.71 5.32-8.296 10.073-9.773 4.62-1.435 8.24-2.104 11.394-2.104 2.098 0 3.933.296 5.61.902 1.383.5 2.9 1.546 4.506 2.65 3.52 2.424 7.97 5.476 14.23 5.11 10.25-.612 17.322-8.86 20.264-15.735 1.135-2.65 1.503-5.296 1.828-7.63.534-3.842.827-4.492 1.626-4.878 1.072-.518 2.365-.748 4.195-.748 1.25 0 2.607.105 4.043.22 1.63.126 3.315.26 5.092.26 3.2 0 5.86-.438 8.37-1.375 7.138-2.666 13.194-8.783 16.2-16.364 2.82-7.103 2.653-14.792-.454-21.094-.973-1.972-2.878-3.32-5.063-3.58zm-6.564 19.88c-1.65 4.16-4.97 7.6-8.665 8.98-1.01.377-2.226.553-3.823.553-1.268 0-2.632-.107-4.077-.22-1.62-.128-3.3-.26-5.057-.26-3.833 0-6.962.65-9.846 2.042-7.28 3.513-8.226 10.3-8.85 14.79-.234 1.677-.455 3.26-.904 4.312-1.6 3.737-5.234 7.64-9.088 7.87-1.74.108-3.392-.984-6.083-2.838-2.11-1.452-4.5-3.1-7.453-4.168-3.078-1.113-6.454-1.68-10.036-1.68-4.5 0-9.345.855-15.25 2.69-9.073 2.82-13.054 8.6-16.655 14.36-1.35.437-2.757 1.17-3.91 2.2-1.64.19-3.27.31-4.845.31-6.922 0-9.037-2.305-10.105-4.313-.46-.865-1.16-2.5-.67-3.726.384-.962 1.573-1.836 3.263-2.397 11.976-3.982 12.187-12.228 12.34-18.248.04-1.522.08-3.093.273-4.69.69-5.67 7.97-9.136 14.738-11.938 9.69-4.014 15.67-9.466 22.592-15.78l.33-.3c1.713-1.563 4.424-3.426 7.603-3.426 1.877 0 3.758.665 5.592 1.98.93.664 1.485 1.326 2.188 2.164 1.638 1.952 4.38 5.22 10.534 5.218.497 0 1.032-.02 1.608-.064 5.297-.406 10.985-.82 16.688-1.1 4.787-.235 9.09-.35 13.155-.35 5.504 0 10.572.21 15.375.638.366 2.32.046 4.855-.96 7.392zM155.538 479.73c7.456 4.247 15.978 6.492 24.644 6.49 2.327 0 4.663-.164 6.943-.49 2.94-.424 5.223-2.787 5.54-5.742.562-5.23 4.263-10.345 9.902-13.687 2.123-1.257 5.15-1.728 8.357-2.228 4.134-.645 8.82-1.375 12.916-4.062 5.48-3.59 5.99-10.944 6.443-17.433.13-1.87.293-4.2.554-5.06 2.198-7.254 6.26-13.853 11.747-19.086 2.754-2.625 5.798-4.827 9.047-6.544 2.106-1.113 3.435-3.287 3.464-5.668.05-4.25-.607-8.48-1.956-12.577-2.043-6.2-5.866-10.884-9.24-15.016-2.618-3.208-5.092-6.237-6.506-9.627-2.79-6.688-3.193-14.473-3.582-22-.18-3.457-3.032-6.166-6.49-6.166h-.015l-19.33.044c-1.87.004-3.646.813-4.878 2.22-1.23 1.407-1.796 3.276-1.552 5.13.41 3.12.355 6.303-.152 9.41-.562-.04-1.127-.06-1.694-.06-13.21 0-24.74 10.64-25.706 23.716-.237 3.21.122 6.67.502 10.335 1.32 12.718.104 15.53-3.12 17.026-.863.4-2.118.588-3.95.588-.87 0-1.744-.038-2.606-.076-2.394-.104-4.66 1.12-5.88 3.187-1.223 2.065-1.205 4.637.043 6.687 4.465 7.332 5.927 16.524 4.01 25.22-.634 2.883-2.476 6.145-4.425 9.6-3.454 6.12-7.37 13.058-6.25 21.12.275 2 1.466 3.755 3.22 4.754zm14.35-19.484c2.334-4.135 4.747-8.41 5.8-13.19 1.89-8.577 1.367-17.536-1.373-25.67.836-.242 1.686-.55 2.53-.94 13.08-6.067 11.577-20.566 10.58-30.16-.318-3.074-.62-5.977-.467-8.036.46-6.22 6.413-11.674 12.74-11.674 1.373 0 2.715.26 3.988.77 1.644.66 3.486.623 5.1-.107 1.615-.73 2.862-2.088 3.453-3.758 1.544-4.373 2.403-8.986 2.553-13.622l6.4-.014c.48 6.562 1.43 13.522 4.2 20.16 2.145 5.137 5.486 9.23 8.435 12.84 2.918 3.574 5.673 6.95 6.962 10.862.522 1.585.89 3.196 1.1 4.82-2.935 1.87-5.707 4.044-8.276 6.495-7.107 6.777-12.37 15.327-15.218 24.724-.686 2.264-.878 5.014-1.08 7.926-.155 2.226-.436 6.238-1.06 7.735-1.776.953-4.483 1.375-7.334 1.82-4.08.635-8.706 1.355-12.982 3.89-7.48 4.43-12.764 10.846-15.066 18.098-5.36.09-10.672-.96-15.514-3.08.65-3.016 2.548-6.38 4.528-9.89zM70.98 432.533c.29 0 .58-.003.878-.01l.312-.003c5.474 0 10.177 3.235 15.622 6.982 6.23 4.287 13.293 9.146 22.573 9.146l.4-.003c.896-.014 1.768-.21 2.565-.57 4.854 5.743 11.99 10.17 19.964 10.17 5.068 0 9.837-1.876 13.79-5.43 5.2-4.67 8.144-11.3 8.515-19.17.486-10.354-3.78-22.297-10.62-29.72-7.534-8.176-22.385-21.893-37.195-21.893-1.92 0-3.806.23-5.602.68-6.29 1.582-11.176 5.36-15.485 8.69-4.256 3.29-7.93 6.132-12.174 6.595-12.227 1.334-22.473 11.31-21.928 21.346.347 6.377 5.36 13.19 18.385 13.19zm-4.116-16.656c1.62-2.094 4.852-4.495 9.07-4.955 7.885-.86 13.64-5.308 18.715-9.232 3.623-2.802 7.047-5.448 10.703-6.368.762-.19 1.58-.288 2.432-.288 7.09 0 17.42 6.617 27.635 17.702 4.565 4.955 7.523 13.302 7.193 20.298-.206 4.382-1.625 7.784-4.218 10.113-1.572 1.413-3.24 2.1-5.1 2.1-4.74 0-10.638-4.646-12.88-10.147-1-2.458-3.388-4.047-6.017-4.047-.13 0-.26.004-.392.012-2.868.172-5.592 1.6-7.473 3.914-.025.03-.052.063-.077.096-3.734-1.077-7.313-3.54-11.297-6.28-6.45-4.438-13.778-9.52-23.59-9.267-.2.003-.396.005-.59.005-3.35 0-4.948-.67-5.403-1.003.03-.37.266-1.336 1.287-2.655zM239.838 504.498c6.28 1.492 12.563 3.305 18.674 5.39 1.03.35 1.954.61 2.695.818.185.052.393.11.596.17 1.458 5.025 6.13 8.445 12.126 8.79.943.054 1.917.08 2.894.08h.002c6.857 0 13.363-1.327 19.655-2.61 5.935-1.21 11.54-2.354 17.11-2.354 2.27 0 4.365.188 6.408.576 3.09.588 6.156-1.122 7.28-4.06 3.178-8.287 5.207-17.002 6.033-25.9.413-4.428.522-8.91.327-13.324-.133-3.002-.442-10.033-8.147-10.54-.473-.03-.473-.03-.812-.237-3.884-2.374-4.67-6.902-5.633-14.095-1.012-7.565-2.27-16.98-10.475-23.29-4.067-3.127-8.47-4.713-13.09-4.713-7.54 0-14.993 4.178-22.15 12.42-.792.912-1.57 1.84-2.35 2.768-2.302 2.743-4.476 5.334-6.92 7.395-2.22 1.87-3.895 1.995-7.23 2.24-2.36.175-5.3.392-8.62 1.44-8.99 2.842-18.6 14.445-13.312 53.582.362 2.664 2.325 4.83 4.94 5.453zm6.843-31.345c.73-10.237 3.292-14.613 5.45-15.296 1.87-.59 3.626-.72 5.658-.87 4.104-.303 9.21-.68 14.652-5.267 3.302-2.783 5.944-5.933 8.5-8.978.73-.872 1.463-1.744 2.206-2.6 4.45-5.124 8.83-7.945 12.336-7.945 1.71 0 3.397.66 5.165 2.02 3.687 2.835 4.542 7.447 5.514 14.707 1.058 7.903 2.373 17.74 11.74 23.463 1 .612 1.94 1.042 2.79 1.347.108 3.472 0 6.984-.322 10.46-.56 6.03-1.756 11.958-3.564 17.687-1.05-.065-2.12-.1-3.214-.1-6.884 0-13.403 1.33-19.708 2.618-5.92 1.208-11.512 2.35-17.057 2.35h-.002c-.73 0-1.452-.022-2.15-.062-.217-.013-.398-.043-.542-.077-1.694-6.252-6.494-7.602-9.404-8.42-.65-.183-1.323-.37-2.02-.608-5.066-1.728-10.246-3.28-15.448-4.634-.57-5.398-1.072-12.832-.577-19.795zM421.197 553.657l-1.43.652c-7.264 3.337-14.076 7.43-20.383 12.216h24.98c.28-.13.55-.276.832-.405l1.387-.632c9.71-4.42 27.78-12.645 22.878-30.447-2.047-7.43-8.437-10.27-12.665-12.146-.444-.197-.887-.395-1.323-.595l-6.132-2.82c.008-.095.017-.188.023-.276.082-.932.185-2.09.193-3.45.012-1.84.068-3.692.128-5.653.136-4.437.275-9.027-.126-13.638-.498-5.72-3.598-12.54-15.537-12.54-.958 0-1.933.033-2.896.067l-.785.025c-5.356.197-10.856-2.935-13.965-7.815-.312-.49-.58-1.357-.866-2.275-.84-2.707-2.81-9.045-10.592-9.558-.442-.03-.883-.044-1.32-.044-6.755 0-13.658 3.544-18.94 9.724-3.79 4.435-6.77 9.317-9.648 14.04-2.3 3.768-4.47 7.327-6.965 10.557-4.184 5.415-9 10.1-14.1 15.06-2.806 2.728-5.707 5.55-8.516 8.523-11.56 12.23-10.465 24.85-4.252 31.93 6.156 7.016 14.73 7.826 20.64 7.826 2.607 0 5.11-.17 7.53-.337 1.216-.083 2.403-.165 3.544-.218l.882-.044c.926-.048 1.884-.097 2.843-.097 2.09 0 3.007.258 3.316.377.42.716.865 2.737 1.14 3.98.065.29.13.586.198.882h13.488c-.384-.955-.703-2.385-.99-3.686-.693-3.137-1.557-7.04-4.318-10.07-4.09-4.483-10.67-4.483-12.833-4.483-1.295 0-2.525.063-3.514.114l-.803.04c-1.237.058-2.524.146-3.842.235-2.2.15-4.478.307-6.64.307-5.526 0-8.777-1.017-10.87-3.4-3.695-4.212.954-11.28 3.93-14.428 2.62-2.773 5.422-5.498 8.13-8.133 5.2-5.056 10.577-10.285 15.323-16.43 2.934-3.796 5.396-7.832 7.776-11.735 2.734-4.482 5.317-8.717 8.434-12.36 1.26-1.477 4.515-4.808 8.42-5.145l.134.428c.45 1.455 1.07 3.447 2.315 5.404 5.592 8.784 15.35 14.13 25.347 13.827l.826-.03c.812-.028 1.632-.06 2.438-.06 1.414 0 2.156.11 2.523.198.023.117.046.272.063.47.335 3.85.213 7.865.083 12.116-.06 1.95-.122 3.968-.135 5.965-.006.83-.072 1.59-.143 2.395-.29 3.286-.827 9.402 7.127 13.058l6.5 2.988c.487.225.98.443 1.477.664 3.396 1.508 5.036 2.366 5.41 3.72 1.656 6.012-3.998 9.823-15.73 15.163zM440.27 410.95c7.127 4.036 15.352 5.327 22.5 6.22 4.295.538 8.67.785 12.982.77.195.73.443 1.585.778 2.538 7.538 21.434 19.095 33.098 34.35 34.668.758.078 1.51.117 2.24.117 6.802 0 11.1-3.312 14.89-6.234.573-.443 1.163-.898 1.78-1.355 5.01-3.713 10.607-6.44 16.638-8.107 2.504-.692 4.986-1.204 7.387-1.7 4.28-.883 8.99-1.858 13.115-4.085v-58.4c-.287-.04-.577-.063-.87-.063h-.052l-26.768.213c-1.218.01-2.528.092-3.915.178-1.588.1-3.23.203-4.82.203-4.884 0-5.726-1.03-5.76-1.076-.663-.87-1.082-2.07-1.567-3.46-1.203-3.445-3.217-9.214-11.056-11.313-2.282-.61-4.713-.908-7.43-.908-3.626 0-7.23.544-10.408 1.023-1.17.176-2.325.352-3.453.493-2.16.272-4.353.52-6.562.767-12.06 1.353-24.528 2.75-35.833 8.52-8.93 4.56-18.087 14.53-18.31 24.77-.084 3.864 1.124 11.11 10.145 16.22zm2.853-15.94c.09-4.17 5.335-10.467 11.223-13.473 9.195-4.693 20.47-5.958 31.372-7.18 2.27-.256 4.52-.51 6.74-.788 1.23-.156 2.49-.346 3.77-.54 2.858-.43 5.815-.877 8.465-.877 1.567 0 2.897.152 4.066.465 1.173.314 1.195.32 2.145 3.043.707 2.024 1.586 4.543 3.503 7.057 4.232 5.553 11.214 6.194 16.097 6.194 1.997 0 3.928-.12 5.632-.226 1.205-.076 2.343-.146 3.207-.153l23.064-.183c3.168 6.462 3.095 14.86 2.658 24.25-.453 9.768-3.565 10.41-13.878 12.537-2.487.514-5.306 1.095-8.224 1.902-7.577 2.094-14.613 5.523-20.914 10.192-.686.508-1.34 1.012-1.978 1.504-3.576 2.756-5.04 3.765-7.86 3.48-9.815-1.01-17.694-9.774-23.418-26.05-.322-.915-.52-1.715-.713-2.488-1.304-5.248-3.78-8.743-11.618-8.743l-.402.003c-3.878.057-7.812-.18-11.677-.664-5.914-.74-12.648-1.768-17.707-4.633-3.61-2.042-3.57-3.854-3.553-4.627zM350.84 440.112c3.068.975 6.383 1.43 10.43 1.43 1.972 0 3.898-.105 5.763-.204 1.77-.095 3.44-.185 5.064-.185 2.614 0 4.638.25 6.366.783 2.195.678 3.288 2.402 5.436 6.47 2.383 4.515 5.646 10.697 13.485 12.947 2.163.62 4.27.936 6.264.936 5.617-.002 10.47-2.503 13.664-7.044 5.144-7.312 4.852-17.81 2.282-24.967-3.38-9.422-2.577-17.268-1.56-27.2.208-2.02.42-4.1.606-6.264.057-.656.12-1.343.188-2.055.905-9.644 2.42-25.786-10.42-32.35-3.17-1.62-5.623-4.743-8.22-8.047-3.263-4.152-6.96-8.86-12.834-11.5-2.956-1.33-6.05-2.032-8.95-2.032-5.763 0-10.684 2.746-13.5 7.532-.803 1.362-1.54 2.866-2.252 4.32-.994 2.028-2.816 5.748-3.983 6.537-12.122-.507-24.44 3.847-33.434 11.787-1.38 1.22-2.18 2.966-2.197 4.808l-.248 24.7c-.073 7.4 3.487 10.56 6.087 12.865.775.688 1.51 1.34 2.2 2.14 1.695 1.957 2.92 4.75 4.218 7.706 2.716 6.188 6.094 13.886 15.54 16.886zm-15.047-39.466L336.01 379c6.29-4.66 14.324-7.147 22.254-6.785.194.01.388.014.58.014 8.71 0 12.788-8.32 15.485-13.826.632-1.29 1.23-2.51 1.78-3.446.32-.545.79-1.125 2.296-1.125 1.06 0 2.345.315 3.618.89 2.96 1.33 5.27 4.27 7.945 7.674 3.192 4.064 6.81 8.67 12.523 11.59 4.608 2.356 4.235 10.598 3.394 19.562-.07.745-.138 1.466-.196 2.153-.18 2.09-.386 4.1-.586 6.054-1.092 10.653-2.123 20.716 2.255 32.916 1.59 4.43 1.285 10.304-.68 13.096-.76 1.08-1.64 1.52-3.03 1.52-.78 0-1.682-.145-2.68-.43-2.287-.657-3.4-2.4-5.575-6.522-2.337-4.426-5.536-10.486-13.096-12.82-3.01-.93-6.25-1.363-10.204-1.363-1.97 0-3.897.104-5.76.203-1.77.095-3.443.185-5.068.185-2.71 0-4.712-.253-6.495-.82-3.663-1.162-5.188-4.29-7.57-9.717-1.553-3.538-3.312-7.548-6.29-10.988-1.254-1.45-2.447-2.51-3.406-3.36-1.728-1.535-1.728-1.535-1.714-3.012zM229.465 270.093c13.316-1.62 25.84-7.37 35.268-16.19.628-.59 1.22-1.162 1.787-1.714 3.28-3.186 4.252-4.02 7.002-4.02l25.957.298h.073c2.375 0 4.563-1.296 5.704-3.383 2.4-4.395 5.588-12.568 6.666-21.143 1.792-14.257-3.375-20.862-8.025-23.893-7.91-5.157-20.118-8.49-31.098-8.49-3.623 0-6.958.37-9.912 1.098-10.464 2.578-16.48 10.046-21.784 16.634-2.196 2.728-4.27 5.304-6.562 7.47-4.356 4.115-8.153 4.92-13.238 4.92-1.482 0-3.032-.07-4.672-.145-1.814-.083-3.69-.17-5.677-.17-2.806 0-5.327.182-7.71.552-7.022 1.09-12.827 7.08-15.528 16.018-2.864 9.48-1.2 18.824 4.24 23.802 8.02 7.34 20.072 8.88 28.77 8.88 2.933-.002 5.873-.18 8.738-.527zm-29.304-28.396c1.267-4.187 3.563-6.696 5.08-6.933 1.74-.27 3.556-.396 5.715-.396 1.69 0 3.416.08 5.085.155 1.713.078 3.484.16 5.264.158 6.527 0 14.265-1.006 22.166-8.47 2.934-2.772 5.387-5.818 7.76-8.765 4.597-5.708 8.566-10.638 14.77-12.165 1.938-.478 4.226-.72 6.802-.72 8.368 0 18.236 2.623 24 6.38 4.402 2.87 2.452 15.553-1.31 24.48l-21.686-.25h-.283c-8.137 0-12.345 4.085-16.058 7.69-.514.498-1.048 1.017-1.615 1.548-7.427 6.95-17.354 11.49-27.954 12.778-2.346.285-4.758.43-7.17.43-8.906 0-16.193-1.994-19.993-5.47-1.41-1.29-1.978-5.795-.572-10.45zM302.938 87.395c.17-2.978-1.71-5.688-4.56-6.574-5.224-1.624-10.66-2.576-16.154-2.83-1.078-.05-2-.068-2.795-.084l-.4-.01c-.27-.635-.558-1.346-.724-1.758-1.962-4.873-7.933-19.704-22.29-22.756-1.853-.395-3.646-.594-5.33-.594-12.703 0-17.65 11.2-19.513 15.417-.62 1.403-1.524 1.78-7.14 1.95-3.51.105-7.49.227-11.252 1.942-9.194 4.196-13.145 14.943-10.838 29.484 2.072 13.06 9.41 21.99 21.218 25.825l1.334.432c8.77 2.826 11.888 4.112 13.52 10.182 3.318 12.35 13.084 20.97 24.877 21.962.94.08 1.937.115 3.132.115.815 0 1.644-.018 2.477-.035.744-.017 1.493-.034 2.24-.034 3.996 0 5.245.596 6.052 1.625 1.108 1.414 1.922 3.296 2.782 5.288 1.874 4.34 4.206 9.74 10.656 13.007 4.453 2.257 9.858 3.354 16.522 3.354 1.61 0 3.288-.06 5.128-.19 17.028-1.187 17.596-15.413 17.84-21.49.91-22.87-7.92-37.302-24.227-39.59-3.387-.476-4.08-1.04-4.11-1.055-.003-.006-.31-.598-.205-2.47l1.76-31.11zm.75 47.507c12.188 1.71 13.402 17.15 13.04 26.2-.345 8.662-1.928 8.772-5.752 9.04-1.536.106-2.917.158-4.224.158-4.512 0-8.094-.656-10.647-1.95-2.155-1.09-3.06-3-4.597-6.563-1.097-2.54-2.34-5.42-4.487-8.156-5.176-6.602-12.958-6.602-16.28-6.602-.842 0-1.687.02-2.526.037-.736.016-1.47.032-2.19.032-.825 0-1.475-.022-2.044-.07-7.606-.64-11.915-6.815-13.41-12.383-3.55-13.207-12.975-16.244-22.088-19.18l-1.304-.422c-7.245-2.354-11.067-7.134-12.395-15.498-.96-6.053-.647-13.775 3.396-15.62 1.377-.63 3.853-.704 6.248-.776 5.796-.176 14.553-.44 18.64-9.69 3.13-7.093 5.304-7.67 7.62-7.67.776 0 1.66.104 2.625.31 5.177 1.1 9.287 5.833 12.935 14.896 3.376 8.385 6.054 9.77 12.92 9.91.698.014 1.51.03 2.46.073 2.705.125 5.393.46 8.03 1.005l-1.457 25.79c-.314 5.565 1.184 9.88 4.454 12.82 3.204 2.884 7.375 3.798 11.033 4.31zM110.707 330.71c-1.21 12.686-3.925 25.194-8.07 37.178-.696 2.013-.362 4.24.894 5.96 3.608 4.938 8.563 7.55 14.327 7.55h.003c7.734 0 15.453-4.71 22.264-8.863 3.75-2.287 7.998-4.88 10.312-5.293l.588-.105c8.51-1.518 17.31-3.087 21.785-15.394 1.45-3.987 2.022-7.94 2.576-11.764.614-4.235 1.193-8.235 2.94-11.422.936-1.707 6.854-4.3 10.39-5.848 7.816-3.424 16.675-7.304 18.406-15.5 1.056-4.998-.91-10.265-5.848-15.653-5.532-6.04-12.85-7.877-19.308-9.5-2.554-.64-4.967-1.247-7.087-2.06-6.944-2.666-13.387-8.24-19.697-17.04-.868-1.21-1.737-2.685-2.658-4.245-3.618-6.136-8.574-14.54-19.25-14.605l-.93-.003c-7.774 0-15.604.597-23.177 1.173-3.646.278-7.417.565-11.072.775-2.015.116-3.862 1.16-5 2.83-5.615 8.243-7.33 19.344-4.585 29.693 2.758 10.394 8.84 15.237 14.724 19.922 1.976 1.573 4.02 3.2 5.95 5.066 4.142 4.005 2.764 16.076 1.94 23.288-.156 1.382-.303 2.68-.417 3.86zm.625-42.383c-5.18-4.124-8.6-6.85-10.254-13.085-1.507-5.678-1.017-11.613 1.27-16.432 2.624-.177 5.246-.376 7.81-.57 7.33-.56 14.91-1.137 22.188-1.137l.85.003c2.978.02 4.85 2.643 8.133 8.21 1.023 1.737 2.083 3.534 3.29 5.217 7.838 10.93 16.212 17.995 25.603 21.6 2.852 1.095 5.763 1.826 8.58 2.533 5.36 1.347 9.99 2.51 12.887 5.672 2.63 2.87 2.71 4.167 2.72 4.167-.634 1.797-7.573 4.836-10.908 6.297-6.642 2.91-13.51 5.917-16.574 11.508-2.875 5.246-3.688 10.855-4.405 15.805-.48 3.318-.936 6.453-1.93 9.185-1.845 5.074-3.812 5.605-11.85 7.04l-.595.105c-4.715.844-9.61 3.83-14.794 6.992-5.35 3.263-11.41 6.96-15.493 6.96-.555 0-1.08-.064-1.602-.276 3.734-11.725 6.218-23.873 7.392-36.173.105-1.108.245-2.325.393-3.62 1.236-10.825 2.93-25.65-5.82-34.11-2.384-2.3-4.778-4.207-6.89-5.89zM142.376 555.158c-1.884-.354-3.835.14-5.322 1.358-1.486 1.216-2.358 3.028-2.382 4.95l-.062 5.06h18.507c2.507-1.127 4.825-2.752 6.878-4.875 7.625-7.884 10.004-20.46 9.724-28.835-.713-21.283-14.77-24.68-27.172-27.678-9.812-2.372-17.738-9.734-20.683-19.215-.345-1.11-.438-3.13-.528-5.086-.215-4.655-.483-10.45-4.414-14.626-3.047-3.237-7.37-4.878-12.85-4.878-2.463 0-5.085.316-8.25.996-2.11.454-3.857 1.924-4.664 3.926l-2.445 6.067c-2.3-.524-4.95-1.482-7.54-2.42-5.138-1.857-10.45-3.778-15.945-3.778-5.572 0-10.288 2.014-14.018 5.986-6.055 6.45-5.217 16.665-4.604 24.123.14 1.712.273 3.328.296 4.59l.432 23.734c-7.73 8.756-8.817 14.414-4.504 21.607 2.55 4.256 7.562 6.22 12.866 8.296 2.253.882 6.264 2.452 7.627 3.63-.225.482-.753 1.38-1.972 2.73-.35.313-1.833.747-2.815 1.035-2.164.635-4.858 1.424-7.298 3.337-.548.43-1.076.88-1.593 1.336h23.736c2.708-3.945 3.647-7.78 2.785-11.432-1.714-7.252-9.485-10.295-15.73-12.74-2.113-.828-5.614-2.198-6.563-3.054-.162-.273-.4-.68-.53-.95.212-.59 1.152-2.5 5.266-6.86 1.167-1.235 1.803-2.88 1.772-4.578l-.48-26.323c-.03-1.677-.18-3.494-.336-5.418-.366-4.458-.98-11.92 1.126-14.162 1.257-1.338 2.57-1.884 4.54-1.884 3.216 0 7.438 1.528 11.522 3.005 4.895 1.77 9.956 3.602 15.006 3.602.608 0 1.212-.027 1.795-.08 2.428-.223 4.527-1.784 5.438-4.046l2.872-7.128c2.78-.33 4.942-.043 5.586.64.647.802.813 4.395.902 6.324.128 2.773.26 5.642 1.1 8.342 4.295 13.826 15.807 24.553 30.043 27.995 13.658 3.3 16.887 5.124 17.233 15.476.21 6.282-1.81 14.95-6.076 19.363-2.325 2.404-4.904 3.182-8.276 2.545zM297.69 555.578c-9.67-15.99-17.087-19.605-21.606-19.824-1.055-.05-2.136-.076-3.303-.076-2.902 0-5.79.158-8.585.312-2.752.15-5.352.293-7.924.293-4.222 0-7.535-.41-10.426-1.29-3.954-1.205-8.183-5.255-12.27-9.17-6.035-5.778-12.875-12.328-21.745-12.328-5.45 0-10.793 2.524-15.883 7.502-5.256 5.14-5.388 9.257-5.05 13.368.102 1.23.182 2.202-.02 3.49-.23 1.463-2.605 3.464-4.516 5.072l-.35.294c-3.338 2.82-7.052 6.29-9.287 10.66-2.142 4.187-2.502 8.537-1.134 12.647h15.88c-.923-.638-1.937-1.536-2.785-2.693-1.12-1.527-2.652-3.618 5.71-10.68l.338-.283c3.38-2.844 8.007-6.74 8.986-13.01.44-2.816.262-4.98.132-6.562-.046-.55-.107-1.307-.08-1.485 0-.005.187-.47 1.263-1.523 2.575-2.52 4.86-3.796 6.792-3.796 3.65 0 8.277 4.432 12.753 8.717 4.948 4.74 10.556 10.11 17.474 12.217 4.155 1.266 8.672 1.855 14.216 1.855 2.928 0 5.83-.16 8.635-.312 2.74-.15 5.327-.292 7.875-.292.845 0 1.625.016 2.378.047 1.31.58 5.255 3.98 10.168 11.597 1.45 2.247 2.648 4.34 3.618 6.206h14.332c-1.15-2.937-2.915-6.532-5.587-10.95zM540.69 517.682c1.273-15.68-1.745-31.668-8.74-45.78-.897-1.806-2.58-3.095-4.56-3.487-2.357-.468-4.786-.704-7.22-.704-6.023 0-12 1.446-17.285 4.182-2.844 1.472-4.246 1.78-4.922 1.78h-.004c-.346 0-1.39-.01-4.532-3.652-4.764-5.52-11.508-8.686-18.502-8.686-3.86 0-7.7 1-11.106 2.893-8.618 4.787-13.05 15.18-10.776 25.273 1.32 5.866 5.057 9.772 8.058 12.91 2.094 2.188 3.902 4.08 4.563 6.125.013.04.022.072.028.1-.25.54-1.312 1.67-2.026 2.433-2.463 2.625-6.584 7.02-5.338 13.675 1.553 8.298 8.41 11.652 13.417 14.103 2.364 1.156 4.81 2.353 5.83 3.64 3.65 4.6 2.3 11.427-.66 16.154-1.094 1.747-3.174 3.688-5.377 5.745-.734.685-1.497 1.4-2.262 2.144h17.993c.23-.326.454-.654.666-.992 6.574-10.5 6.505-22.72-.177-31.136-2.85-3.59-6.808-5.525-10.3-7.234-4.02-1.966-5.978-3.088-6.342-4.766.248-.54 1.312-1.675 2.03-2.44 2.565-2.734 7.343-7.826 4.886-15.425-1.577-4.88-4.744-8.19-7.538-11.11-2.63-2.75-4.268-4.55-4.77-6.78-.982-4.36.912-9.113 4.406-11.054 1.502-.835 3.115-1.258 4.794-1.258 3.212 0 6.368 1.523 8.66 4.18 3.48 4.034 7.913 8.16 14.378 8.158 3.213 0 6.573-.998 10.896-3.235 3.903-2.02 8.433-2.957 12.88-2.676 5.848 13.334 7.664 28.37 5.11 42.715-.403 2.26.415 4.562 2.152 6.06 1.736 1.5 4.135 1.973 6.31 1.243.817-.273 1.545-.41 2.164-.41.548 0 1.568 0 2.687 1.71 2.393 3.665 2.478 10.54.955 14.008-4.022 9.16-8.37 11.135-19.394 12.415-5.68.66-11.367 3.982-17.258 8.027h36.02c5.11-2.978 9.213-7.65 12.534-15.215 3.49-7.95 2.643-19.273-1.973-26.34-2.566-3.934-6.17-6.45-10.356-7.293zM494.68 327.86c-1.236 5.308-.506 13.62 4.023 19.325 3.367 4.243 8.347 6.226 13.67 5.423 8.443-1.28 10.512-7.7 11.493-10.908 1.74.678 3.447 2.336 5.828 4.745 2.793 2.825 5.96 6.027 10.454 7.815 3.265 1.3 6.753 1.958 10.368 1.958 5.228 0 10.29-1.385 14.64-4.004.634-.38 1.217-.777 1.773-1.178v-17.368c-1.717 1.228-3.083 2.603-4.27 3.806-1.396 1.414-2.6 2.635-4.21 3.604-2.292 1.38-5.11 2.14-7.934 2.14-1.934 0-3.857-.357-5.562-1.035-1.97-.784-3.935-2.772-6.017-4.878-3.522-3.562-7.906-7.997-14.728-8.82-.614-.073-1.217-.11-1.792-.11-8.078 0-10.163 6.83-10.948 9.4-.188.616-.462 1.514-.67 1.9-.078.024-.2.054-.374.08-.148.022-.285.034-.408.034-.288-.03-.59 0-1.134-.687-1.54-1.938-2.085-5.976-1.545-8.29 1.004-4.308 5.007-10.29 8.88-16.076 6.22-9.296 13.103-19.58 12.847-29.83 2.99-.45 5.987-.76 8.867-.76 5.595 0 9.914 1.192 13.204 3.646 1.02.76 2.068 1.604 3.08 2.42 3.675 2.956 7.764 6.234 12.71 7.217v-13.918c-1.438-.917-3.054-2.217-4.56-3.428-1.103-.89-2.246-1.81-3.46-2.713-5.616-4.187-12.478-6.225-20.975-6.225-6.108 0-12.128 1.045-17.77 2.115-1.943.368-3.61 1.6-4.536 3.347-.924 1.747-1.003 3.82-.214 5.632 2.722 6.257-4.036 16.356-10 25.267-4.723 7.065-9.19 13.738-10.732 20.354zM566.93 508.366c-3.425-1.59-6.338-3.617-8.514-5.997-1.056-1.156-2.28-3.03-3.122-4.65.324.014.644.02.957.02h.003c5.3 0 8.66-1.97 10.677-3.898v-48.374c-1.99.617-3.695 1.494-5 2.798-4.137 4.13-3.29 10.96-2.22 19.607.74 6.004 1.864 15.077-.467 17.715-.192.218-.777.88-2.99.88-.504 0-1.058-.036-1.647-.107-.725-.086-1.424-.13-2.08-.13-5.892 0-8.1 3.562-8.773 5.095-3.443 7.812 6.244 18.543 6.343 18.65 4.233 4.63 10.02 8.212 16.834 10.532v-12.14zM7.624 412.927c11.747-.04 15.79-9.244 18.467-15.334 1.617-3.68 3.014-6.858 5.295-8.06 1.897-.996 4.88-1.48 9.117-1.48 3.063 0 6.377.24 9.885.496 3.672.266 7.47.542 11.17.542 5.343 0 21.602 0 26.805-15.563 4.53-13.555-5.334-23.822-12.537-31.318-1.528-1.592-2.973-3.095-4.146-4.477-3.837-4.522-4.547-9.503-5.447-15.81-.624-4.378-1.333-9.34-3.325-14.363-2.727-6.87-7.31-8.313-10.673-8.313-1.8 0-3.433.408-4.873.77-1.376.345-2.62.67-3.862.58-3.35-.24-6.535-1.518-8.967-3.596-1.647-1.41-3.09-3.077-4.613-4.844-3.665-4.243-8.225-9.523-15.985-9.523-3.278 0-6.717.96-10.512 2.938-1.22.636-2.354 1.35-3.422 2.117v19.028c2.842-4.016 5.67-7.658 9.43-9.615 2.327-1.213 3.734-1.467 4.505-1.467 1.64 0 3.132 1.53 6.146 5.02 1.693 1.96 3.61 4.18 6.007 6.23 4.528 3.87 10.383 6.243 16.485 6.68 3.228.23 6.02-.452 7.95-.936l.373-.094c1.372 3.537 1.905 7.274 2.47 11.228 1.003 7.03 2.14 14.998 8.4 22.38 1.435 1.69 3.014 3.334 4.687 5.075 7.02 7.306 11.478 12.52 9.58 18.19-1.378 4.127-4.28 6.685-14.474 6.685-3.23 0-6.786-.26-10.227-.51-3.584-.26-7.292-.53-10.827-.53-6.486 0-11.306.946-15.166 2.977-6.306 3.314-8.99 9.425-11.147 14.335-2.822 6.423-3.81 7.554-6.61 7.563l-.056 6.5v-6.5c-2.43 0-4.94-.54-7.522-1.4v13.5c2.44.562 4.94.9 7.522.9.007-.003.093-.003.1-.003zM31.38 251.233c1.527-1.64 2.708-3.514 3.527-5.578 1.54-.397 2.89-1.148 3.938-2.152l19.214.27c.353.006.703.01 1.046.01 5.16 0 18.87 0 19.244-17.445.018-.78.105-1.793.198-2.865.47-5.443 1.452-16.77-8.935-20.146-8.925-2.9-18.916-3.458-27.73-3.95l-.404-.023c-1.41-.078-2.874-.117-4.475-.117-2.923 0-5.83.13-8.644.257-2.784.125-5.415.243-8.034.243-1.98 0-3.724-.07-5.334-.212-3.052-.27-4-1.577-6.347-8.74l-.423-1.286c-1.883-5.66-4.86-9.464-8.224-12.032v26.238c2.576 4.347 6.64 8.13 13.847 8.768 1.995.177 4.115.263 6.48.263 2.91 0 5.812-.13 8.618-.256 2.792-.124 5.43-.243 8.06-.243 1.357 0 2.583.032 3.75.098l.403.022c8.013.447 17.092.954 24.404 3.323.51 1.197.19 4.867.034 6.67-.106 1.232-.217 2.506-.242 3.708-.062 2.848-.585 3.87-.764 4.002-.227.17-1.292.723-5.484.723-.283 0-.57-.002-.864-.006l-28.403-.4h-.014c-.31-.012-.61.012-.908.05-1.16.146-2.263.605-3.186 1.326-.003 0-.005.003-.007.005-.003 0-.003.002-.006.004-.25.197-.488.414-.71.65-.384.404-.71.853-.974 1.334l-.01.02s-.002 0-.002.002 0 .004-.002.006c-.414.763-.673 1.604-.758 2.47v.019c-.002.002-.002.004-.002.006-.033.353-.037.71-.012 1.066v.015c.207 2.95-.69 4.28-1.384 5.024-2.084 2.237-6.772 3.52-12.862 3.52-3.243 0-6.357-.363-9.004-.863v13.178c2.976.44 6.046.687 9.004.687 9.974-.002 17.71-2.65 22.38-7.662zM0 75.467c1.998-.184 3.877-.488 5.643-.95 4.672-1.23 7.918-3.784 10.782-6.038 1.86-1.465 3.466-2.73 5.177-3.402 1.344-.527 4.376-1.145 8.498-1.145 7.798 0 12.923 2.184 13.624 3.76.52 1.172.306 2.807-.09 5.378-.62 4.043-1.47 9.58 2.254 15.18 3.394 5.105 8.352 8.346 12.726 11.204.674.44 1.34.876 1.993 1.313 1.4.94 2.96 1.83 4.465 2.688 2.703 1.543 7.736 4.414 7.8 6.17.148 4.19-.26 8.456-1.19 12.566-2.063-.244-4.238-.42-6.428-.42-5.578 0-10.295 1.135-14.42 3.47-9.228 5.22-10.137 13.58-10.867 20.298-.063.583-.128 1.175-.198 1.772-.64 5.453-4.188 6.598-7.052 6.598-3.425 0-6.962-1.71-9.23-4.46-3.725-4.52-5.25-10.887-6.253-16.52-.56-3.144-3.295-5.36-6.392-5.36-.34 0-.684.025-1.03.08-3.192.507-6.532.48-9.81-.02v13.125c1.878.206 3.765.308 5.644.275 1.4 5.696 3.63 11.615 7.812 16.69 4.743 5.754 11.943 9.19 19.26 9.19 10.673 0 18.695-7.268 19.963-18.085.074-.634.143-1.26.21-1.88.683-6.28 1.085-8.544 4.345-10.39 2.15-1.216 4.698-1.783 8.02-1.783 3.322 0 6.905.58 10.066 1.092 3.118.498 6.144-1.303 7.178-4.284 2.506-7.21 3.638-14.753 3.364-22.416-.322-8.995-8.43-13.62-14.35-16.998-1.363-.778-2.65-1.514-3.662-2.192-.696-.467-1.407-.932-2.125-1.4-3.65-2.386-7.098-4.64-9.014-7.52-.855-1.286-.742-2.67-.23-6.007.543-3.528 1.218-7.92-.882-12.64C50.99 52.052 36.232 50.934 30.1 50.934c-5.115 0-9.946.746-13.254 2.046-3.492 1.372-6.133 3.45-8.462 5.283-2.14 1.685-3.986 3.14-6.044 3.68-.73.19-1.516.332-2.34.447v13.077zM80.495 11.56c1.19 3.55 2.87 6.48 4.498 9.312.85 1.482 1.655 2.884 2.345 4.303 1.356 2.793.99 5.89.28 10.71-.093.63-.186 1.263-.273 1.897-1.548 11.23 2.38 17.844 5.842 23.68 1.6 2.69 3.108 5.235 4.332 8.426 3.72 9.703 1.55 21.735-.196 31.404-.338 1.87.16 3.797 1.365 5.27s2.992 2.343 4.894 2.384c7.427.156 14.732 3.63 19.54 9.29 6.256 7.363 12.653 12.267 23.55 12.267 2.326 0 4.894-.22 7.847-.672 1.913-.292 3.596-1.42 4.59-3.08.996-1.66 1.2-3.676.56-5.5-1.797-5.105-1.277-11.16 1.424-16.613 2.702-5.45 7.204-9.532 12.354-11.194 12.723-4.11 18.562-8.805 17.33-24.37-.797-10.105-2.035-20.265-3.687-30.293 4.44-1.302 8.125-4.018 10.846-8.038C203.594 22.38 203.858 9.91 202.4-.4h-13.09c1.45 8.634 1.342 18.71-2.14 23.856-1.63 2.405-3.9 3.362-7.312 3.19-1.976-.116-3.916.702-5.232 2.198-1.314 1.496-1.87 3.513-1.51 5.472 2.177 11.784 3.76 23.822 4.705 35.778.312 3.938.073 6.432-.71 7.414-1.03 1.293-4.448 2.526-7.656 3.562-8.465 2.733-15.757 9.22-20.006 17.794-2.938 5.93-4.2 12.41-3.724 18.62-4.318-.16-7.512-1.57-12.688-7.664-5.563-6.55-13.363-11.138-21.753-12.98 1.506-9.634 2.404-21.107-1.622-31.606-1.618-4.223-3.57-7.51-5.29-10.408-3.162-5.325-5.07-8.54-4.143-15.268.082-.595.17-1.188.256-1.78.81-5.503 1.73-11.74-1.448-18.282-.886-1.823-1.84-3.487-2.765-5.097-1.37-2.388-2.666-4.643-3.445-6.97-.85-2.537-1.38-5.173-1.61-7.83H78.186c.25 4.06 1.013 8.097 2.308 11.96zM300.29 2.924c-1.52 2.67-1.57 2.675-2.827 2.792-1.37.126-3.33-.02-5.37-.2-1.728-.15-3.516-.308-5.39-.308-2.908 0-7.252.325-11.375 3.13-1.298.884-2.232 2.206-2.63 3.725-1.835 6.984-.85 14.663 2.703 21.064 3.28 5.91 9.965 5.988 14.847 6.045 1.846.02 4.144.05 5.127.42 4.707 1.78 6.563 5.006 9.438 10.552 2.28 4.398 4.866 9.384 9.92 13.357.518.408 1.095.734 1.71.97 2.308.874 4.76 1.318 7.292 1.318 9.348 0 18.198-5.97 21.52-14.516 2.572-6.61 1.216-12.838.02-18.332-.94-4.312-1.75-8.035-.478-11.004.32-.748.83-1.656 1.368-2.618 2.025-3.615 5.416-9.667 1.582-15.763-.336-.534-.748-1.018-1.223-1.433-.793-.694-1.845-1.57-3.1-2.525h-41.06c-.84 1.188-1.51 2.337-2.074 3.327zm13.335 3.34c1.838-2.036 3.932-2.984 6.592-2.984 5.12 0 11.292 3.46 15.95 7.136-.353.78-.92 1.794-1.345 2.55-.68 1.214-1.384 2.47-1.975 3.85-2.913 6.792-1.513 13.22-.277 18.893.923 4.235 1.72 7.893.57 10.853-1.36 3.49-5.49 6.227-9.407 6.227-.616 0-1.212-.067-1.78-.2-2.36-2.18-3.874-5.1-5.6-8.43-3.026-5.835-6.792-13.098-16.38-16.726-3.135-1.185-6.557-1.225-9.576-1.26-1.264-.015-3.055-.036-4.064-.2-1.123-2.368-1.646-5.052-1.515-7.647 1.544-.224 3.794-.063 6.143.14 1.694.15 3.446.303 5.252.303.872 0 1.676-.035 2.454-.108 8.05-.747 10.98-5.896 12.92-9.305.69-1.212 1.285-2.257 2.04-3.094zM497.176 13.664c1.773-1.548 4.87-1.877 8.454-2.257 3.952-.42 8.43-.895 12.672-3.198 4.105-2.23 7.534-5.17 10.445-8.612h-31.6c-2.924.735-5.885 1.972-8.523 4.275-5.395 4.712-19.868 27.314-19.928 37.89-.01 1.715.66 3.364 1.86 4.59 5.238 5.34 11.932 6.823 17.837 8.133 2.95.653 5.734 1.27 7.977 2.29 2.767 1.26 3.205 2.396 3.353 8.684.12 5.064.267 11.367 5.115 16.72 4.017 4.437 9.576 6.88 15.653 6.88 6.965 0 13.913-3.21 18.587-8.582 9.43-10.842 9.016-24.94 7.412-36.255l18.383-1.578c1.026 4.822 1.805 9.43 2.056 13.793v-27.02l-28.537 2.45c-1.815.156-3.48 1.066-4.594 2.51-1.112 1.443-1.567 3.287-1.255 5.082 2.28 13.092 3.605 24.572-3.277 32.484-2.207 2.537-5.57 4.113-8.777 4.113-2.427 0-4.452-.876-6.017-2.604-1.524-1.683-1.66-4.25-1.755-8.298-.143-6.128-.36-15.39-10.966-20.213-3.482-1.584-7.073-2.38-10.546-3.15-3.408-.754-6.482-1.436-8.884-2.72.837-2.567 2.57-6.606 5.553-11.896 4.084-7.24 7.964-12.344 9.3-13.512zM556.98 80.17c-6.37 4.922-13.588 10.5-13.584 18.4 0 2.967 1.115 7.362 6.415 11.45 4.924 3.798 10.99 5.91 17.12 5.995v-13c-3.274-.085-6.52-1.238-9.178-3.288-.805-.62-1.162-1.057-1.31-1.27.682-1.97 5.924-6.02 8.487-8 .677-.525 1.343-1.043 2-1.56v-26.83c-.313 4.603-1.452 8.878-3.832 12.766-.703 1.152-3.833 3.57-6.118 5.337zM554.022 198.23c-1.446.467-4.133.863-6.977 1.283-9.018 1.33-20.24 2.988-25.486 10.703-1.726 2.536-3.48 6.83-2.096 12.93.114.55.3 1.074.542 1.563.433.87 1.05 1.617 1.788 2.2.743.59 1.618 1.02 2.572 1.238.52.12 1.067.173 1.61.165l13.665-.04.122 25.567c.01 1.89.842 3.685 2.28 4.912 1.438 1.228 3.335 1.768 5.21 1.48 1.798-.276 3.75-.41 5.968-.41 3.255 0 6.58.283 10.1.585 1.188.102 2.395.2 3.61.293v-13.036c-.825-.067-1.657-.138-2.5-.21-3.638-.31-7.398-.633-11.21-.633-.164 0-.327 0-.49.003l-.12-25.103c-.016-3.578-2.922-6.47-6.5-6.47h-.02l-10.425.032c3.73-1.5 9.422-2.342 13.278-2.91 3.54-.523 6.595-.975 9.064-1.77 3.148-1.015 6.136-2.44 8.92-4.183v-17.065c-3.417 4.08-7.915 7.268-12.905 8.876zM11.493 538.934c3.165-6.59 7.29-11.353 12.064-16.866 2.323-2.682 4.726-5.455 7.118-8.58 7.735-10.093 6.525-21.153 5.458-30.91-.437-3.99-.85-7.76-.68-11.335.425-9.048 5.358-17.807 12.876-22.858 1.395-.938 2.373-2.38 2.728-4.025 1.187-5.51-.208-11.083-3.93-15.69-4.645-5.753-12.492-9.47-19.992-9.47-.517 0-1.028.018-1.534.054C15.8 419.946 7.085 425.27 0 430.9v17.212c7.043-6.436 16.663-15.194 26.52-15.893 3.7-.238 8.2 1.772 10.495 4.616.828 1.024 1.21 1.96 1.367 2.74-9.337 7.48-15.353 19.094-15.916 31.055-.216 4.59.272 9.05.744 13.36.918 8.39 1.71 15.636-2.854 21.592-2.156 2.813-4.43 5.438-6.626 7.975C8.887 519.15 3.888 524.94 0 532.867v23.202c4.13-4.09 7.97-9.8 11.493-17.136z"/></g></svg>