<?xml version="1.0" encoding="utf-8"?>
<!-- Generator: Adobe Illustrator 17.1.0, SVG Export Plug-In . SVG Version: 6.00 Build 0)  -->
<!DOCTYPE svg PUBLIC "-//W3C//DTD SVG 1.1//EN" "http://www.w3.org/Graphics/SVG/1.1/DTD/svg11.dtd">
<svg version="1.1" xmlns="http://www.w3.org/2000/svg" xmlns:xlink="http://www.w3.org/1999/xlink" x="0px" y="0px"
	 width="566.93px" height="566.93px" viewBox="0 0 566.93 566.93" enable-background="new 0 0 566.93 566.93" xml:space="preserve">
<g id="Ebene_1">
	<g>
		<path fill="none" d="M21.471,30.589l-0.517,0.51L0,10.156v54.21l20.954-20.942l0.517,0.51l0.517-0.51l31.883,31.865l-0.538,0.53
			l0.538,0.53l-31.883,31.865l-0.517-0.51l-0.517,0.51L0,87.272v54.21l20.954-20.942l0.517,0.51l0.517-0.51l31.883,31.865
			l-0.538,0.53l0.538,0.53l-31.883,31.865l-0.517-0.51l-0.517,0.51L0,164.387v54.21l20.954-20.942l0.517,0.51l0.517-0.51
			l31.883,31.865l-0.538,0.53l0.538,0.53l-31.883,31.865l-0.517-0.51l-0.517,0.51L0,241.502v54.21l20.954-20.942l0.517,0.51
			l0.517-0.51l31.883,31.865l-0.538,0.53l0.538,0.53L21.988,339.56l-0.517-0.51l-0.517,0.51L0,318.618v54.21l20.954-20.942
			l0.517,0.51l0.517-0.51l31.883,31.865l-0.538,0.53l0.538,0.53l-31.883,31.865l-0.517-0.51l-0.517,0.51L0,395.733v54.21L20.954,429
			l0.517,0.51l0.517-0.51l31.883,31.865l-0.538,0.53l0.538,0.53L21.988,493.79l-0.517-0.51l-0.517,0.51L0,472.848v54.21
			l20.954-20.942l0.517,0.51l0.517-0.51l31.883,31.865l-0.538,0.53l0.538,0.53l-28.26,28.244h61.715l-28.26-28.244l0.538-0.53
			l-0.538-0.53l31.883-31.865l0.517,0.51l0.517-0.51l31.883,31.865l-0.538,0.53l0.538,0.53l-28.26,28.244h61.715l-28.26-28.244
			l0.538-0.53l-0.538-0.53l31.883-31.865l0.517,0.51l0.517-0.51l31.883,31.865l-0.538,0.53l0.538,0.53l-28.26,28.244h61.715
			l-28.26-28.244l0.538-0.53l-0.538-0.53l31.883-31.865l0.517,0.51l0.517-0.51l31.883,31.865l-0.538,0.53l0.538,0.53l-28.26,28.244
			h61.715l-28.26-28.244l0.538-0.53l-0.538-0.53l31.883-31.865l0.517,0.51l0.517-0.51l31.883,31.865l-0.538,0.53l0.538,0.53
			l-28.26,28.244h61.715l-28.26-28.244l0.538-0.53l-0.538-0.53l31.883-31.865l0.517,0.51l0.517-0.51l31.883,31.865l-0.538,0.53
			l0.538,0.53l-28.26,28.244h61.715l-28.26-28.244l0.538-0.53l-0.538-0.53l31.883-31.865l0.517,0.51l0.517-0.51l31.883,31.865
			l-0.538,0.53l0.538,0.53l-28.26,28.244h61.715l-28.26-28.244l0.538-0.53l-0.538-0.53l31.883-31.865l0.517,0.51l0.517-0.51
			l31.883,31.865l-0.538,0.53l0.538,0.53l-28.26,28.244h51.346v-10.363l-17.891-17.881l0.538-0.53l-0.538-0.53L566.93,520.1v-40.294
			l-17.891-17.881l0.538-0.53l-0.538-0.53l17.891-17.881v-40.294l-17.891-17.881l0.538-0.53l-0.538-0.53l17.891-17.881v-40.294
			l-17.891-17.881l0.538-0.53l-0.538-0.53l17.891-17.881V248.46l-17.891-17.881l0.538-0.53l-0.538-0.53l17.891-17.881v-40.294
			l-17.891-17.881l0.538-0.53l-0.538-0.53l17.891-17.881V94.229l-17.891-17.881l0.538-0.53l-0.538-0.53l17.891-17.881V17.114
			L549.039-0.766h-5.196L511.96,31.099l-0.517-0.51l-0.517,0.51L479.043-0.766h-5.196l-31.883,31.865l-0.517-0.51l-0.517,0.51
			L409.047-0.766h-5.196l-31.883,31.865l-0.517-0.51l-0.517,0.51L339.051-0.766h-5.196l-31.883,31.865l-0.517-0.51l-0.517,0.51
			L269.055-0.766h-5.196l-31.883,31.865l-0.517-0.51l-0.517,0.51L199.059-0.766h-5.196L161.98,31.099l-0.517-0.51l-0.517,0.51
			L129.063-0.766h-5.196L91.984,31.099l-0.517-0.51l-0.517,0.51L59.067-0.766h-5.196L21.988,31.099L21.471,30.589z M479.043,75.289
			l31.883-31.865l0.517,0.51l0.517-0.51l31.883,31.865l-0.538,0.53l0.538,0.53l-31.883,31.865l-0.517-0.51l-0.517,0.51
			l-31.883-31.865l0.538-0.53L479.043,75.289z M479.043,152.405l31.883-31.865l0.517,0.51l0.517-0.51l31.883,31.865l-0.538,0.53
			l0.538,0.53l-31.883,31.865l-0.517-0.51l-0.517,0.51l-31.883-31.865l0.538-0.53L479.043,152.405z M479.043,229.52l31.883-31.865
			l0.517,0.51l0.517-0.51l31.883,31.865l-0.538,0.53l0.538,0.53l-31.883,31.865l-0.517-0.51l-0.517,0.51l-31.883-31.865l0.538-0.53
			L479.043,229.52z M479.043,306.635l31.883-31.865l0.517,0.51l0.517-0.51l31.883,31.865l-0.538,0.53l0.538,0.53L511.96,339.56
			l-0.517-0.51l-0.517,0.51l-31.883-31.865l0.538-0.53L479.043,306.635z M479.043,383.75l31.883-31.865l0.517,0.51l0.517-0.51
			l31.883,31.865l-0.538,0.53l0.538,0.53l-31.883,31.865l-0.517-0.51l-0.517,0.51l-31.883-31.865l0.538-0.53L479.043,383.75z
			 M479.043,460.865L510.926,429l0.517,0.51l0.517-0.51l31.883,31.865l-0.538,0.53l0.538,0.53L511.96,493.79l-0.517-0.51
			l-0.517,0.51l-31.883-31.865l0.538-0.53L479.043,460.865z M409.047,75.289l31.883-31.865l0.517,0.51l0.517-0.51l31.883,31.865
			l-0.538,0.53l0.538,0.53l-31.883,31.865l-0.517-0.51l-0.517,0.51l-31.883-31.865l0.538-0.53L409.047,75.289z M409.047,152.405
			l31.883-31.865l0.517,0.51l0.517-0.51l31.883,31.865l-0.538,0.53l0.538,0.53l-31.883,31.865l-0.517-0.51l-0.517,0.51
			l-31.883-31.865l0.538-0.53L409.047,152.405z M409.047,229.52l31.883-31.865l0.517,0.51l0.517-0.51l31.883,31.865l-0.538,0.53
			l0.538,0.53l-31.883,31.865l-0.517-0.51l-0.517,0.51l-31.883-31.865l0.538-0.53L409.047,229.52z M409.047,306.635l31.883-31.865
			l0.517,0.51l0.517-0.51l31.883,31.865l-0.538,0.53l0.538,0.53l-31.883,31.865l-0.517-0.51l-0.517,0.51l-31.883-31.865l0.538-0.53
			L409.047,306.635z M409.047,383.75l31.883-31.865l0.517,0.51l0.517-0.51l31.883,31.865l-0.538,0.53l0.538,0.53l-31.883,31.865
			l-0.517-0.51l-0.517,0.51l-31.883-31.865l0.538-0.53L409.047,383.75z M409.047,460.865L440.93,429l0.517,0.51l0.517-0.51
			l31.883,31.865l-0.538,0.53l0.538,0.53l-31.883,31.865l-0.517-0.51l-0.517,0.51l-31.883-31.865l0.538-0.53L409.047,460.865z
			 M339.051,75.289l31.883-31.865l0.517,0.51l0.517-0.51l31.883,31.865l-0.538,0.53l0.538,0.53l-31.883,31.865l-0.517-0.51
			l-0.517,0.51l-31.883-31.865l0.538-0.53L339.051,75.289z M339.051,152.405l31.883-31.865l0.517,0.51l0.517-0.51l31.883,31.865
			l-0.538,0.53l0.538,0.53l-31.883,31.865l-0.517-0.51l-0.517,0.51l-31.883-31.865l0.538-0.53L339.051,152.405z M339.051,229.52
			l31.883-31.865l0.517,0.51l0.517-0.51l31.883,31.865l-0.538,0.53l0.538,0.53l-31.883,31.865l-0.517-0.51l-0.517,0.51
			l-31.883-31.865l0.538-0.53L339.051,229.52z M339.051,306.635l31.883-31.865l0.517,0.51l0.517-0.51l31.883,31.865l-0.538,0.53
			l0.538,0.53l-31.883,31.865l-0.517-0.51l-0.517,0.51l-31.883-31.865l0.538-0.53L339.051,306.635z M339.051,383.75l31.883-31.865
			l0.517,0.51l0.517-0.51l31.883,31.865l-0.538,0.53l0.538,0.53l-31.883,31.865l-0.517-0.51l-0.517,0.51l-31.883-31.865l0.538-0.53
			L339.051,383.75z M339.051,460.865L370.934,429l0.517,0.51l0.517-0.51l31.883,31.865l-0.538,0.53l0.538,0.53l-31.883,31.865
			l-0.517-0.51l-0.517,0.51l-31.883-31.865l0.538-0.53L339.051,460.865z M269.055,75.289l31.883-31.865l0.517,0.51l0.517-0.51
			l31.883,31.865l-0.538,0.53l0.538,0.53l-31.883,31.865l-0.517-0.51l-0.517,0.51l-31.883-31.865l0.538-0.53L269.055,75.289z
			 M269.055,152.405l31.883-31.865l0.517,0.51l0.517-0.51l31.883,31.865l-0.538,0.53l0.538,0.53l-31.883,31.865l-0.517-0.51
			l-0.517,0.51l-31.883-31.865l0.538-0.53L269.055,152.405z M269.055,229.52l31.883-31.865l0.517,0.51l0.517-0.51l31.883,31.865
			l-0.538,0.53l0.538,0.53l-31.883,31.865l-0.517-0.51l-0.517,0.51l-31.883-31.865l0.538-0.53L269.055,229.52z M269.055,306.635
			l31.883-31.865l0.517,0.51l0.517-0.51l31.883,31.865l-0.538,0.53l0.538,0.53l-31.883,31.865l-0.517-0.51l-0.517,0.51
			l-31.883-31.865l0.538-0.53L269.055,306.635z M269.055,383.75l31.883-31.865l0.517,0.51l0.517-0.51l31.883,31.865l-0.538,0.53
			l0.538,0.53l-31.883,31.865l-0.517-0.51l-0.517,0.51l-31.883-31.865l0.538-0.53L269.055,383.75z M269.055,460.865L300.938,429
			l0.517,0.51l0.517-0.51l31.883,31.865l-0.538,0.53l0.538,0.53l-31.883,31.865l-0.517-0.51l-0.517,0.51l-31.883-31.865l0.538-0.53
			L269.055,460.865z M199.059,75.289l31.883-31.865l0.517,0.51l0.517-0.51l31.883,31.865l-0.538,0.53l0.538,0.53l-31.883,31.865
			l-0.517-0.51l-0.517,0.51l-31.883-31.865l0.538-0.53L199.059,75.289z M199.059,152.405l31.883-31.865l0.517,0.51l0.517-0.51
			l31.883,31.865l-0.538,0.53l0.538,0.53l-31.883,31.865l-0.517-0.51l-0.517,0.51l-31.883-31.865l0.538-0.53L199.059,152.405z
			 M199.059,229.52l31.883-31.865l0.517,0.51l0.517-0.51l31.883,31.865l-0.538,0.53l0.538,0.53l-31.883,31.865l-0.517-0.51
			l-0.517,0.51l-31.883-31.865l0.538-0.53L199.059,229.52z M199.059,306.635l31.883-31.865l0.517,0.51l0.517-0.51l31.883,31.865
			l-0.538,0.53l0.538,0.53l-31.883,31.865l-0.517-0.51l-0.517,0.51l-31.883-31.865l0.538-0.53L199.059,306.635z M199.059,383.75
			l31.883-31.865l0.517,0.51l0.517-0.51l31.883,31.865l-0.538,0.53l0.538,0.53l-31.883,31.865l-0.517-0.51l-0.517,0.51
			l-31.883-31.865l0.538-0.53L199.059,383.75z M199.059,460.865L230.942,429l0.517,0.51l0.517-0.51l31.883,31.865l-0.538,0.53
			l0.538,0.53l-31.883,31.865l-0.517-0.51l-0.517,0.51l-31.883-31.865l0.538-0.53L199.059,460.865z M129.063,75.289l31.883-31.865
			l0.517,0.51l0.517-0.51l31.883,31.865l-0.538,0.53l0.538,0.53l-31.883,31.865l-0.517-0.51l-0.517,0.51l-31.883-31.865l0.538-0.53
			L129.063,75.289z M129.063,152.405l31.883-31.865l0.517,0.51l0.517-0.51l31.883,31.865l-0.538,0.53l0.538,0.53l-31.883,31.865
			l-0.517-0.51l-0.517,0.51l-31.883-31.865l0.538-0.53L129.063,152.405z M129.063,229.52l31.883-31.865l0.517,0.51l0.517-0.51
			l31.883,31.865l-0.538,0.53l0.538,0.53l-31.883,31.865l-0.517-0.51l-0.517,0.51l-31.883-31.865l0.538-0.53L129.063,229.52z
			 M129.063,306.635l31.883-31.865l0.517,0.51l0.517-0.51l31.883,31.865l-0.538,0.53l0.538,0.53L161.98,339.56l-0.517-0.51
			l-0.517,0.51l-31.883-31.865l0.538-0.53L129.063,306.635z M129.063,383.75l31.883-31.865l0.517,0.51l0.517-0.51l31.883,31.865
			l-0.538,0.53l0.538,0.53l-31.883,31.865l-0.517-0.51l-0.517,0.51l-31.883-31.865l0.538-0.53L129.063,383.75z M129.063,460.865
			L160.946,429l0.517,0.51l0.517-0.51l31.883,31.865l-0.538,0.53l0.538,0.53L161.98,493.79l-0.517-0.51l-0.517,0.51l-31.883-31.865
			l0.538-0.53L129.063,460.865z M59.067,75.289L90.95,43.424l0.517,0.51l0.517-0.51l31.883,31.865l-0.538,0.53l0.538,0.53
			l-31.883,31.865l-0.517-0.51l-0.517,0.51L59.067,76.349l0.538-0.53L59.067,75.289z M59.067,152.405l31.883-31.865l0.517,0.51
			l0.517-0.51l31.883,31.865l-0.538,0.53l0.538,0.53l-31.883,31.865l-0.517-0.51l-0.517,0.51l-31.883-31.865l0.538-0.53
			L59.067,152.405z M59.067,229.52l31.883-31.865l0.517,0.51l0.517-0.51l31.883,31.865l-0.538,0.53l0.538,0.53l-31.883,31.865
			l-0.517-0.51l-0.517,0.51l-31.883-31.865l0.538-0.53L59.067,229.52z M59.067,306.635L90.95,274.77l0.517,0.51l0.517-0.51
			l31.883,31.865l-0.538,0.53l0.538,0.53L91.984,339.56l-0.517-0.51l-0.517,0.51l-31.883-31.865l0.538-0.53L59.067,306.635z
			 M59.067,383.75l31.883-31.865l0.517,0.51l0.517-0.51l31.883,31.865l-0.538,0.53l0.538,0.53l-31.883,31.865l-0.517-0.51
			l-0.517,0.51L59.067,384.81l0.538-0.53L59.067,383.75z M59.067,460.865L90.95,429l0.517,0.51l0.517-0.51l31.883,31.865
			l-0.538,0.53l0.538,0.53L91.984,493.79l-0.517-0.51l-0.517,0.51l-31.883-31.865l0.538-0.53L59.067,460.865z"/>
		<polygon fill="none" points="0,567.284 17.331,567.284 0,549.963 		"/>
		<polygon fill="#010202" points="21.471,30.589 21.471,-0.766 0,-0.766 0,10.156 20.954,31.099 		"/>
		<polygon fill="#010202" points="21.471,43.934 20.954,43.424 0,64.366 0,75.819 21.471,75.819 		"/>
		<polygon fill="#010202" points="21.471,30.589 21.988,31.099 53.871,-0.766 21.471,-0.766 		"/>
		<polygon fill="#010202" points="53.333,75.819 53.871,75.289 21.988,43.424 21.471,43.934 21.471,75.819 		"/>
		<polygon fill="#010202" points="91.467,30.589 91.467,-0.766 59.067,-0.766 90.95,31.099 		"/>
		<polygon fill="#010202" points="91.467,43.934 90.95,43.424 59.067,75.289 59.605,75.819 91.467,75.819 		"/>
		<polygon fill="#010202" points="91.984,31.099 123.867,-0.766 91.467,-0.766 91.467,30.589 		"/>
		<polygon fill="#010202" points="123.329,75.819 123.867,75.289 91.984,43.424 91.467,43.934 91.467,75.819 		"/>
		<polygon fill="#010202" points="161.463,30.589 161.463,-0.766 129.063,-0.766 160.946,31.099 		"/>
		<polygon fill="#010202" points="161.463,43.934 160.946,43.424 129.063,75.289 129.601,75.819 161.463,75.819 		"/>
		<polygon fill="#010202" points="161.98,31.099 193.863,-0.766 161.463,-0.766 161.463,30.589 		"/>
		<polygon fill="#010202" points="193.325,75.819 193.863,75.289 161.98,43.424 161.463,43.934 161.463,75.819 		"/>
		<polygon fill="#010202" points="231.459,30.589 231.459,-0.766 199.059,-0.766 230.942,31.099 		"/>
		<polygon fill="#010202" points="231.459,43.934 230.942,43.424 199.059,75.289 199.597,75.819 231.459,75.819 		"/>
		<polygon fill="#010202" points="231.976,31.099 263.859,-0.766 231.459,-0.766 231.459,30.589 		"/>
		<polygon fill="#010202" points="263.321,75.819 263.859,75.289 231.976,43.424 231.459,43.934 231.459,75.819 		"/>
		<polygon fill="#010202" points="301.455,30.589 301.455,-0.766 269.055,-0.766 300.938,31.099 		"/>
		<polygon fill="#010202" points="301.455,43.934 300.938,43.424 269.055,75.289 269.593,75.819 301.455,75.819 		"/>
		<polygon fill="#010202" points="301.972,31.099 333.855,-0.766 301.455,-0.766 301.455,30.589 		"/>
		<polygon fill="#010202" points="333.317,75.819 333.855,75.289 301.972,43.424 301.455,43.934 301.455,75.819 		"/>
		<polygon fill="#010202" points="371.451,30.589 371.451,-0.766 339.051,-0.766 370.934,31.099 		"/>
		<polygon fill="#010202" points="371.451,43.934 370.934,43.424 339.051,75.289 339.589,75.819 371.451,75.819 		"/>
		<polygon fill="#010202" points="371.968,31.099 403.851,-0.766 371.451,-0.766 371.451,30.589 		"/>
		<polygon fill="#010202" points="403.313,75.819 403.851,75.289 371.968,43.424 371.451,43.934 371.451,75.819 		"/>
		<polygon fill="#010202" points="441.447,30.589 441.447,-0.766 409.047,-0.766 440.93,31.099 		"/>
		<polygon fill="#010202" points="441.447,43.934 440.93,43.424 409.047,75.289 409.585,75.819 441.447,75.819 		"/>
		<polygon fill="#010202" points="441.964,31.099 473.847,-0.766 441.447,-0.766 441.447,30.589 		"/>
		<polygon fill="#010202" points="473.309,75.819 473.847,75.289 441.964,43.424 441.447,43.934 441.447,75.819 		"/>
		<polygon fill="#010202" points="511.443,30.589 511.443,-0.766 479.043,-0.766 510.926,31.099 		"/>
		<polygon fill="#010202" points="511.443,43.934 510.926,43.424 479.043,75.289 479.582,75.819 511.443,75.819 		"/>
		<polygon fill="#010202" points="511.96,31.099 543.844,-0.766 511.443,-0.766 511.443,30.589 		"/>
		<polygon fill="#010202" points="543.305,75.819 543.844,75.289 511.96,43.424 511.443,43.934 511.443,75.819 		"/>
		<polygon fill="#010202" points="566.93,-0.766 549.039,-0.766 566.93,17.114 		"/>
		<polygon fill="#010202" points="549.578,75.819 566.93,75.819 566.93,57.408 549.039,75.289 		"/>
		<polygon fill="#010202" points="21.471,107.704 21.471,75.819 0,75.819 0,87.272 20.954,108.214 		"/>
		<polygon fill="#010202" points="21.471,121.049 20.954,120.539 0,141.482 0,152.934 21.471,152.934 		"/>
		<polygon fill="#010202" points="21.471,107.704 21.988,108.214 53.871,76.349 53.333,75.819 21.471,75.819 		"/>
		<polygon fill="#010202" points="53.333,152.934 53.871,152.405 21.988,120.539 21.471,121.049 21.471,152.934 		"/>
		<polygon fill="#010202" points="90.95,108.214 91.467,107.704 91.467,75.819 59.605,75.819 59.067,76.349 		"/>
		<polygon fill="#010202" points="91.467,121.049 90.95,120.539 59.067,152.405 59.605,152.934 91.467,152.934 		"/>
		<polygon fill="#010202" points="91.467,107.704 91.984,108.214 123.867,76.349 123.329,75.819 91.467,75.819 		"/>
		<polygon fill="#010202" points="123.329,152.934 123.867,152.405 91.984,120.539 91.467,121.049 91.467,152.934 		"/>
		<polygon fill="#010202" points="160.946,108.214 161.463,107.704 161.463,75.819 129.601,75.819 129.063,76.349 		"/>
		<polygon fill="#010202" points="161.463,121.049 160.946,120.539 129.063,152.405 129.601,152.934 161.463,152.934 		"/>
		<polygon fill="#010202" points="161.463,107.704 161.98,108.214 193.863,76.349 193.325,75.819 161.463,75.819 		"/>
		<polygon fill="#010202" points="193.325,152.934 193.863,152.405 161.98,120.539 161.463,121.049 161.463,152.934 		"/>
		<polygon fill="#010202" points="230.942,108.214 231.459,107.704 231.459,75.819 199.597,75.819 199.059,76.349 		"/>
		<polygon fill="#010202" points="231.459,121.049 230.942,120.539 199.059,152.405 199.597,152.934 231.459,152.934 		"/>
		<polygon fill="#010202" points="231.459,107.704 231.976,108.214 263.859,76.349 263.321,75.819 231.459,75.819 		"/>
		<polygon fill="#010202" points="263.321,152.934 263.859,152.405 231.976,120.539 231.459,121.049 231.459,152.934 		"/>
		<polygon fill="#010202" points="300.938,108.214 301.455,107.704 301.455,75.819 269.593,75.819 269.055,76.349 		"/>
		<polygon fill="#010202" points="301.455,121.049 300.938,120.539 269.055,152.405 269.593,152.934 301.455,152.934 		"/>
		<polygon fill="#010202" points="301.455,107.704 301.972,108.214 333.855,76.349 333.317,75.819 301.455,75.819 		"/>
		<polygon fill="#010202" points="333.317,152.934 333.855,152.405 301.972,120.539 301.455,121.049 301.455,152.934 		"/>
		<polygon fill="#010202" points="370.934,108.214 371.451,107.704 371.451,75.819 339.589,75.819 339.051,76.349 		"/>
		<polygon fill="#010202" points="371.451,121.049 370.934,120.539 339.051,152.405 339.589,152.934 371.451,152.934 		"/>
		<polygon fill="#010202" points="371.451,107.704 371.968,108.214 403.851,76.349 403.313,75.819 371.451,75.819 		"/>
		<polygon fill="#010202" points="403.313,152.934 403.851,152.405 371.968,120.539 371.451,121.049 371.451,152.934 		"/>
		<polygon fill="#010202" points="440.93,108.214 441.447,107.704 441.447,75.819 409.585,75.819 409.047,76.349 		"/>
		<polygon fill="#010202" points="441.447,121.049 440.93,120.539 409.047,152.405 409.585,152.934 441.447,152.934 		"/>
		<polygon fill="#010202" points="441.447,107.704 441.964,108.214 473.847,76.349 473.309,75.819 441.447,75.819 		"/>
		<polygon fill="#010202" points="473.309,152.934 473.847,152.405 441.964,120.539 441.447,121.049 441.447,152.934 		"/>
		<polygon fill="#010202" points="510.926,108.214 511.443,107.704 511.443,75.819 479.582,75.819 479.043,76.349 		"/>
		<polygon fill="#010202" points="511.443,121.049 510.926,120.539 479.043,152.405 479.582,152.934 511.443,152.934 		"/>
		<polygon fill="#010202" points="511.443,107.704 511.96,108.214 543.844,76.349 543.305,75.819 511.443,75.819 		"/>
		<polygon fill="#010202" points="543.305,152.934 543.844,152.405 511.96,120.539 511.443,121.049 511.443,152.934 		"/>
		<polygon fill="#010202" points="549.039,76.349 566.93,94.229 566.93,75.819 549.578,75.819 		"/>
		<polygon fill="#010202" points="549.578,152.934 566.93,152.934 566.93,134.524 549.039,152.405 		"/>
		<polygon fill="#010202" points="21.471,184.819 21.471,152.934 0,152.934 0,164.387 20.954,185.329 		"/>
		<polygon fill="#010202" points="21.471,198.165 20.954,197.655 0,218.597 0,230.05 21.471,230.05 		"/>
		<polygon fill="#010202" points="21.471,184.819 21.988,185.329 53.871,153.464 53.333,152.934 21.471,152.934 		"/>
		<polygon fill="#010202" points="53.333,230.05 53.871,229.52 21.988,197.655 21.471,198.165 21.471,230.05 		"/>
		<polygon fill="#010202" points="90.95,185.329 91.467,184.819 91.467,152.934 59.605,152.934 59.067,153.464 		"/>
		<polygon fill="#010202" points="91.467,198.165 90.95,197.655 59.067,229.52 59.605,230.05 91.467,230.05 		"/>
		<polygon fill="#010202" points="91.467,184.819 91.984,185.329 123.867,153.464 123.329,152.934 91.467,152.934 		"/>
		<polygon fill="#010202" points="123.329,230.05 123.867,229.52 91.984,197.655 91.467,198.165 91.467,230.05 		"/>
		<polygon fill="#010202" points="160.946,185.329 161.463,184.819 161.463,152.934 129.601,152.934 129.063,153.464 		"/>
		<polygon fill="#010202" points="161.463,198.165 160.946,197.655 129.063,229.52 129.601,230.05 161.463,230.05 		"/>
		<polygon fill="#010202" points="161.463,184.819 161.98,185.329 193.863,153.464 193.325,152.934 161.463,152.934 		"/>
		<polygon fill="#010202" points="193.325,230.05 193.863,229.52 161.98,197.655 161.463,198.165 161.463,230.05 		"/>
		<polygon fill="#010202" points="230.942,185.329 231.459,184.819 231.459,152.934 199.597,152.934 199.059,153.464 		"/>
		<polygon fill="#010202" points="231.459,198.165 230.942,197.655 199.059,229.52 199.597,230.05 231.459,230.05 		"/>
		<polygon fill="#010202" points="231.459,184.819 231.976,185.329 263.859,153.464 263.321,152.934 231.459,152.934 		"/>
		<polygon fill="#010202" points="263.321,230.05 263.859,229.52 231.976,197.655 231.459,198.165 231.459,230.05 		"/>
		<polygon fill="#010202" points="300.938,185.329 301.455,184.819 301.455,152.934 269.593,152.934 269.055,153.464 		"/>
		<polygon fill="#010202" points="301.455,198.165 300.938,197.655 269.055,229.52 269.593,230.05 301.455,230.05 		"/>
		<polygon fill="#010202" points="301.455,184.819 301.972,185.329 333.855,153.464 333.317,152.934 301.455,152.934 		"/>
		<polygon fill="#010202" points="333.317,230.05 333.855,229.52 301.972,197.655 301.455,198.165 301.455,230.05 		"/>
		<polygon fill="#010202" points="370.934,185.329 371.451,184.819 371.451,152.934 339.589,152.934 339.051,153.464 		"/>
		<polygon fill="#010202" points="371.451,198.165 370.934,197.655 339.051,229.52 339.589,230.05 371.451,230.05 		"/>
		<polygon fill="#010202" points="371.451,184.819 371.968,185.329 403.851,153.464 403.313,152.934 371.451,152.934 		"/>
		<polygon fill="#010202" points="403.313,230.05 403.851,229.52 371.968,197.655 371.451,198.165 371.451,230.05 		"/>
		<polygon fill="#010202" points="440.93,185.329 441.447,184.819 441.447,152.934 409.585,152.934 409.047,153.464 		"/>
		<polygon fill="#010202" points="441.447,198.165 440.93,197.655 409.047,229.52 409.585,230.05 441.447,230.05 		"/>
		<polygon fill="#010202" points="441.447,184.819 441.964,185.329 473.847,153.464 473.309,152.934 441.447,152.934 		"/>
		<polygon fill="#010202" points="473.309,230.05 473.847,229.52 441.964,197.655 441.447,198.165 441.447,230.05 		"/>
		<polygon fill="#010202" points="510.926,185.329 511.443,184.819 511.443,152.934 479.582,152.934 479.043,153.464 		"/>
		<polygon fill="#010202" points="511.443,198.165 510.926,197.655 479.043,229.52 479.582,230.05 511.443,230.05 		"/>
		<polygon fill="#010202" points="511.443,184.819 511.96,185.329 543.844,153.464 543.305,152.934 511.443,152.934 		"/>
		<polygon fill="#010202" points="543.305,230.05 543.844,229.52 511.96,197.655 511.443,198.165 511.443,230.05 		"/>
		<polygon fill="#010202" points="549.039,153.464 566.93,171.345 566.93,152.934 549.578,152.934 		"/>
		<polygon fill="#010202" points="549.578,230.05 566.93,230.05 566.93,211.639 549.039,229.52 		"/>
		<polygon fill="#010202" points="21.471,261.935 21.471,230.05 0,230.05 0,241.502 20.954,262.444 		"/>
		<polygon fill="#010202" points="21.471,275.28 20.954,274.77 0,295.712 0,307.165 21.471,307.165 		"/>
		<polygon fill="#010202" points="21.471,261.935 21.988,262.444 53.871,230.579 53.333,230.05 21.471,230.05 		"/>
		<polygon fill="#010202" points="53.333,307.165 53.871,306.635 21.988,274.77 21.471,275.28 21.471,307.165 		"/>
		<polygon fill="#010202" points="90.95,262.444 91.467,261.935 91.467,230.05 59.605,230.05 59.067,230.579 		"/>
		<polygon fill="#010202" points="91.467,275.28 90.95,274.77 59.067,306.635 59.605,307.165 91.467,307.165 		"/>
		<polygon fill="#010202" points="91.467,261.935 91.984,262.444 123.867,230.579 123.329,230.05 91.467,230.05 		"/>
		<polygon fill="#010202" points="123.329,307.165 123.867,306.635 91.984,274.77 91.467,275.28 91.467,307.165 		"/>
		<polygon fill="#010202" points="160.946,262.444 161.463,261.935 161.463,230.05 129.601,230.05 129.063,230.579 		"/>
		<polygon fill="#010202" points="161.463,275.28 160.946,274.77 129.063,306.635 129.601,307.165 161.463,307.165 		"/>
		<polygon fill="#010202" points="161.463,261.935 161.98,262.444 193.863,230.579 193.325,230.05 161.463,230.05 		"/>
		<polygon fill="#010202" points="193.325,307.165 193.863,306.635 161.98,274.77 161.463,275.28 161.463,307.165 		"/>
		<polygon fill="#010202" points="230.942,262.444 231.459,261.935 231.459,230.05 199.597,230.05 199.059,230.579 		"/>
		<polygon fill="#010202" points="231.459,275.28 230.942,274.77 199.059,306.635 199.597,307.165 231.459,307.165 		"/>
		<polygon fill="#010202" points="231.459,261.935 231.976,262.444 263.859,230.579 263.321,230.05 231.459,230.05 		"/>
		<polygon fill="#010202" points="263.321,307.165 263.859,306.635 231.976,274.77 231.459,275.28 231.459,307.165 		"/>
		<polygon fill="#010202" points="300.938,262.444 301.455,261.935 301.455,230.05 269.593,230.05 269.055,230.579 		"/>
		<polygon fill="#010202" points="301.455,275.28 300.938,274.77 269.055,306.635 269.593,307.165 301.455,307.165 		"/>
		<polygon fill="#010202" points="301.455,261.935 301.972,262.444 333.855,230.579 333.317,230.05 301.455,230.05 		"/>
		<polygon fill="#010202" points="333.317,307.165 333.855,306.635 301.972,274.77 301.455,275.28 301.455,307.165 		"/>
		<polygon fill="#010202" points="370.934,262.444 371.451,261.935 371.451,230.05 339.589,230.05 339.051,230.579 		"/>
		<polygon fill="#010202" points="371.451,275.28 370.934,274.77 339.051,306.635 339.589,307.165 371.451,307.165 		"/>
		<polygon fill="#010202" points="371.451,261.935 371.968,262.444 403.851,230.579 403.313,230.05 371.451,230.05 		"/>
		<polygon fill="#010202" points="403.313,307.165 403.851,306.635 371.968,274.77 371.451,275.28 371.451,307.165 		"/>
		<polygon fill="#010202" points="440.93,262.444 441.447,261.935 441.447,230.05 409.585,230.05 409.047,230.579 		"/>
		<polygon fill="#010202" points="441.447,275.28 440.93,274.77 409.047,306.635 409.585,307.165 441.447,307.165 		"/>
		<polygon fill="#010202" points="441.447,261.935 441.964,262.444 473.847,230.579 473.309,230.05 441.447,230.05 		"/>
		<polygon fill="#010202" points="473.309,307.165 473.847,306.635 441.964,274.77 441.447,275.28 441.447,307.165 		"/>
		<polygon fill="#010202" points="510.926,262.444 511.443,261.935 511.443,230.05 479.582,230.05 479.043,230.579 		"/>
		<polygon fill="#010202" points="511.443,275.28 510.926,274.77 479.043,306.635 479.582,307.165 511.443,307.165 		"/>
		<polygon fill="#010202" points="511.443,261.935 511.96,262.444 543.844,230.579 543.305,230.05 511.443,230.05 		"/>
		<polygon fill="#010202" points="543.305,307.165 543.844,306.635 511.96,274.77 511.443,275.28 511.443,307.165 		"/>
		<polygon fill="#010202" points="549.039,230.579 566.93,248.46 566.93,230.05 549.578,230.05 		"/>
		<polygon fill="#010202" points="549.578,307.165 566.93,307.165 566.93,288.754 549.039,306.635 		"/>
		<polygon fill="#010202" points="21.471,339.05 21.471,307.165 0,307.165 0,318.618 20.954,339.56 		"/>
		<polygon fill="#010202" points="21.471,352.395 20.954,351.885 0,372.827 0,384.28 21.471,384.28 		"/>
		<polygon fill="#010202" points="21.471,339.05 21.988,339.56 53.871,307.695 53.333,307.165 21.471,307.165 		"/>
		<polygon fill="#010202" points="53.333,384.28 53.871,383.75 21.988,351.885 21.471,352.395 21.471,384.28 		"/>
		<polygon fill="#010202" points="90.95,339.56 91.467,339.05 91.467,307.165 59.605,307.165 59.067,307.695 		"/>
		<polygon fill="#010202" points="91.467,352.395 90.95,351.885 59.067,383.75 59.605,384.28 91.467,384.28 		"/>
		<polygon fill="#010202" points="91.467,339.05 91.984,339.56 123.867,307.695 123.329,307.165 91.467,307.165 		"/>
		<polygon fill="#010202" points="123.329,384.28 123.867,383.75 91.984,351.885 91.467,352.395 91.467,384.28 		"/>
		<polygon fill="#010202" points="160.946,339.56 161.463,339.05 161.463,307.165 129.601,307.165 129.063,307.695 		"/>
		<polygon fill="#010202" points="161.463,352.395 160.946,351.885 129.063,383.75 129.601,384.28 161.463,384.28 		"/>
		<polygon fill="#010202" points="161.463,339.05 161.98,339.56 193.863,307.695 193.325,307.165 161.463,307.165 		"/>
		<polygon fill="#010202" points="193.325,384.28 193.863,383.75 161.98,351.885 161.463,352.395 161.463,384.28 		"/>
		<polygon fill="#010202" points="230.942,339.56 231.459,339.05 231.459,307.165 199.597,307.165 199.059,307.695 		"/>
		<polygon fill="#010202" points="231.459,352.395 230.942,351.885 199.059,383.75 199.597,384.28 231.459,384.28 		"/>
		<polygon fill="#010202" points="231.459,339.05 231.976,339.56 263.859,307.695 263.321,307.165 231.459,307.165 		"/>
		<polygon fill="#010202" points="263.321,384.28 263.859,383.75 231.976,351.885 231.459,352.395 231.459,384.28 		"/>
		<polygon fill="#010202" points="300.938,339.56 301.455,339.05 301.455,307.165 269.593,307.165 269.055,307.695 		"/>
		<polygon fill="#010202" points="301.455,352.395 300.938,351.885 269.055,383.75 269.593,384.28 301.455,384.28 		"/>
		<polygon fill="#010202" points="301.455,339.05 301.972,339.56 333.855,307.695 333.317,307.165 301.455,307.165 		"/>
		<polygon fill="#010202" points="333.317,384.28 333.855,383.75 301.972,351.885 301.455,352.395 301.455,384.28 		"/>
		<polygon fill="#010202" points="370.934,339.56 371.451,339.05 371.451,307.165 339.589,307.165 339.051,307.695 		"/>
		<polygon fill="#010202" points="371.451,352.395 370.934,351.885 339.051,383.75 339.589,384.28 371.451,384.28 		"/>
		<polygon fill="#010202" points="371.451,339.05 371.968,339.56 403.851,307.695 403.313,307.165 371.451,307.165 		"/>
		<polygon fill="#010202" points="403.313,384.28 403.851,383.75 371.968,351.885 371.451,352.395 371.451,384.28 		"/>
		<polygon fill="#010202" points="440.93,339.56 441.447,339.05 441.447,307.165 409.585,307.165 409.047,307.695 		"/>
		<polygon fill="#010202" points="441.447,352.395 440.93,351.885 409.047,383.75 409.585,384.28 441.447,384.28 		"/>
		<polygon fill="#010202" points="441.447,339.05 441.964,339.56 473.847,307.695 473.309,307.165 441.447,307.165 		"/>
		<polygon fill="#010202" points="473.309,384.28 473.847,383.75 441.964,351.885 441.447,352.395 441.447,384.28 		"/>
		<polygon fill="#010202" points="510.926,339.56 511.443,339.05 511.443,307.165 479.582,307.165 479.043,307.695 		"/>
		<polygon fill="#010202" points="511.443,352.395 510.926,351.885 479.043,383.75 479.582,384.28 511.443,384.28 		"/>
		<polygon fill="#010202" points="511.443,339.05 511.96,339.56 543.844,307.695 543.305,307.165 511.443,307.165 		"/>
		<polygon fill="#010202" points="543.305,384.28 543.844,383.75 511.96,351.885 511.443,352.395 511.443,384.28 		"/>
		<polygon fill="#010202" points="549.039,307.695 566.93,325.575 566.93,307.165 549.578,307.165 		"/>
		<polygon fill="#010202" points="549.578,384.28 566.93,384.28 566.93,365.87 549.039,383.75 		"/>
		<polygon fill="#010202" points="21.471,416.165 21.471,384.28 0,384.28 0,395.733 20.954,416.675 		"/>
		<polygon fill="#010202" points="21.471,429.51 20.954,429 0,449.943 0,461.395 21.471,461.395 		"/>
		<polygon fill="#010202" points="21.471,416.165 21.988,416.675 53.871,384.81 53.333,384.28 21.471,384.28 		"/>
		<polygon fill="#010202" points="53.333,461.395 53.871,460.865 21.988,429 21.471,429.51 21.471,461.395 		"/>
		<polygon fill="#010202" points="90.95,416.675 91.467,416.165 91.467,384.28 59.605,384.28 59.067,384.81 		"/>
		<polygon fill="#010202" points="91.467,429.51 90.95,429 59.067,460.865 59.605,461.395 91.467,461.395 		"/>
		<polygon fill="#010202" points="91.467,416.165 91.984,416.675 123.867,384.81 123.329,384.28 91.467,384.28 		"/>
		<polygon fill="#010202" points="123.329,461.395 123.867,460.865 91.984,429 91.467,429.51 91.467,461.395 		"/>
		<polygon fill="#010202" points="160.946,416.675 161.463,416.165 161.463,384.28 129.601,384.28 129.063,384.81 		"/>
		<polygon fill="#010202" points="161.463,429.51 160.946,429 129.063,460.865 129.601,461.395 161.463,461.395 		"/>
		<polygon fill="#010202" points="161.463,416.165 161.98,416.675 193.863,384.81 193.325,384.28 161.463,384.28 		"/>
		<polygon fill="#010202" points="193.325,461.395 193.863,460.865 161.98,429 161.463,429.51 161.463,461.395 		"/>
		<polygon fill="#010202" points="230.942,416.675 231.459,416.165 231.459,384.28 199.597,384.28 199.059,384.81 		"/>
		<polygon fill="#010202" points="231.459,429.51 230.942,429 199.059,460.865 199.597,461.395 231.459,461.395 		"/>
		<polygon fill="#010202" points="231.459,416.165 231.976,416.675 263.859,384.81 263.321,384.28 231.459,384.28 		"/>
		<polygon fill="#010202" points="263.321,461.395 263.859,460.865 231.976,429 231.459,429.51 231.459,461.395 		"/>
		<polygon fill="#010202" points="300.938,416.675 301.455,416.165 301.455,384.28 269.593,384.28 269.055,384.81 		"/>
		<polygon fill="#010202" points="301.455,429.51 300.938,429 269.055,460.865 269.593,461.395 301.455,461.395 		"/>
		<polygon fill="#010202" points="301.455,416.165 301.972,416.675 333.855,384.81 333.317,384.28 301.455,384.28 		"/>
		<polygon fill="#010202" points="333.317,461.395 333.855,460.865 301.972,429 301.455,429.51 301.455,461.395 		"/>
		<polygon fill="#010202" points="370.934,416.675 371.451,416.165 371.451,384.28 339.589,384.28 339.051,384.81 		"/>
		<polygon fill="#010202" points="371.451,429.51 370.934,429 339.051,460.865 339.589,461.395 371.451,461.395 		"/>
		<polygon fill="#010202" points="371.451,416.165 371.968,416.675 403.851,384.81 403.313,384.28 371.451,384.28 		"/>
		<polygon fill="#010202" points="403.313,461.395 403.851,460.865 371.968,429 371.451,429.51 371.451,461.395 		"/>
		<polygon fill="#010202" points="440.93,416.675 441.447,416.165 441.447,384.28 409.585,384.28 409.047,384.81 		"/>
		<polygon fill="#010202" points="441.447,429.51 440.93,429 409.047,460.865 409.585,461.395 441.447,461.395 		"/>
		<polygon fill="#010202" points="441.447,416.165 441.964,416.675 473.847,384.81 473.309,384.28 441.447,384.28 		"/>
		<polygon fill="#010202" points="473.309,461.395 473.847,460.865 441.964,429 441.447,429.51 441.447,461.395 		"/>
		<polygon fill="#010202" points="510.926,416.675 511.443,416.165 511.443,384.28 479.582,384.28 479.043,384.81 		"/>
		<polygon fill="#010202" points="511.443,429.51 510.926,429 479.043,460.865 479.582,461.395 511.443,461.395 		"/>
		<polygon fill="#010202" points="511.443,416.165 511.96,416.675 543.844,384.81 543.305,384.28 511.443,384.28 		"/>
		<polygon fill="#010202" points="543.305,461.395 543.844,460.865 511.96,429 511.443,429.51 511.443,461.395 		"/>
		<polygon fill="#010202" points="549.039,384.81 566.93,402.691 566.93,384.28 549.578,384.28 		"/>
		<polygon fill="#010202" points="549.578,461.395 566.93,461.395 566.93,442.985 549.039,460.865 		"/>
		<polygon fill="#010202" points="21.471,493.28 21.471,461.395 0,461.395 0,472.848 20.954,493.79 		"/>
		<polygon fill="#010202" points="21.471,506.625 20.954,506.116 0,527.058 0,538.511 21.471,538.511 		"/>
		<polygon fill="#010202" points="21.471,493.28 21.988,493.79 53.871,461.925 53.333,461.395 21.471,461.395 		"/>
		<polygon fill="#010202" points="53.333,538.511 53.871,537.981 21.988,506.116 21.471,506.625 21.471,538.511 		"/>
		<polygon fill="#010202" points="90.95,493.79 91.467,493.28 91.467,461.395 59.605,461.395 59.067,461.925 		"/>
		<polygon fill="#010202" points="91.467,506.625 90.95,506.116 59.067,537.981 59.605,538.511 91.467,538.511 		"/>
		<polygon fill="#010202" points="91.467,493.28 91.984,493.79 123.867,461.925 123.329,461.395 91.467,461.395 		"/>
		<polygon fill="#010202" points="123.329,538.511 123.867,537.981 91.984,506.116 91.467,506.625 91.467,538.511 		"/>
		<polygon fill="#010202" points="160.946,493.79 161.463,493.28 161.463,461.395 129.601,461.395 129.063,461.925 		"/>
		<polygon fill="#010202" points="161.463,506.625 160.946,506.116 129.063,537.981 129.601,538.511 161.463,538.511 		"/>
		<polygon fill="#010202" points="161.463,493.28 161.98,493.79 193.863,461.925 193.325,461.395 161.463,461.395 		"/>
		<polygon fill="#010202" points="193.325,538.511 193.863,537.981 161.98,506.116 161.463,506.625 161.463,538.511 		"/>
		<polygon fill="#010202" points="230.942,493.79 231.459,493.28 231.459,461.395 199.597,461.395 199.059,461.925 		"/>
		<polygon fill="#010202" points="231.459,506.625 230.942,506.116 199.059,537.981 199.597,538.511 231.459,538.511 		"/>
		<polygon fill="#010202" points="231.459,493.28 231.976,493.79 263.859,461.925 263.321,461.395 231.459,461.395 		"/>
		<polygon fill="#010202" points="263.321,538.511 263.859,537.981 231.976,506.116 231.459,506.625 231.459,538.511 		"/>
		<polygon fill="#010202" points="300.938,493.79 301.455,493.28 301.455,461.395 269.593,461.395 269.055,461.925 		"/>
		<polygon fill="#010202" points="301.455,506.625 300.938,506.116 269.055,537.981 269.593,538.511 301.455,538.511 		"/>
		<polygon fill="#010202" points="301.455,493.28 301.972,493.79 333.855,461.925 333.317,461.395 301.455,461.395 		"/>
		<polygon fill="#010202" points="333.317,538.511 333.855,537.981 301.972,506.116 301.455,506.625 301.455,538.511 		"/>
		<polygon fill="#010202" points="370.934,493.79 371.451,493.28 371.451,461.395 339.589,461.395 339.051,461.925 		"/>
		<polygon fill="#010202" points="371.451,506.625 370.934,506.116 339.051,537.981 339.589,538.511 371.451,538.511 		"/>
		<polygon fill="#010202" points="371.451,493.28 371.968,493.79 403.851,461.925 403.313,461.395 371.451,461.395 		"/>
		<polygon fill="#010202" points="403.313,538.511 403.851,537.981 371.968,506.116 371.451,506.625 371.451,538.511 		"/>
		<polygon fill="#010202" points="440.93,493.79 441.447,493.28 441.447,461.395 409.585,461.395 409.047,461.925 		"/>
		<polygon fill="#010202" points="441.447,506.625 440.93,506.116 409.047,537.981 409.585,538.511 441.447,538.511 		"/>
		<polygon fill="#010202" points="441.447,493.28 441.964,493.79 473.847,461.925 473.309,461.395 441.447,461.395 		"/>
		<polygon fill="#010202" points="473.309,538.511 473.847,537.981 441.964,506.116 441.447,506.625 441.447,538.511 		"/>
		<polygon fill="#010202" points="510.926,493.79 511.443,493.28 511.443,461.395 479.582,461.395 479.043,461.925 		"/>
		<polygon fill="#010202" points="511.443,506.625 510.926,506.116 479.043,537.981 479.582,538.511 511.443,538.511 		"/>
		<polygon fill="#010202" points="511.443,493.28 511.96,493.79 543.844,461.925 543.305,461.395 511.443,461.395 		"/>
		<polygon fill="#010202" points="543.305,538.511 543.844,537.981 511.96,506.116 511.443,506.625 511.443,538.511 		"/>
		<polygon fill="#010202" points="549.039,461.925 566.93,479.806 566.93,461.395 549.578,461.395 		"/>
		<polygon fill="#010202" points="549.578,538.511 566.93,538.511 566.93,520.1 549.039,537.981 		"/>
		<polygon fill="#010202" points="0,538.511 0,549.963 17.331,567.284 21.471,567.284 21.471,538.511 		"/>
		<polygon fill="#010202" points="53.333,538.511 21.471,538.511 21.471,567.284 25.612,567.284 53.871,539.041 		"/>
		<polygon fill="#010202" points="59.605,538.511 59.067,539.041 87.327,567.284 91.467,567.284 91.467,538.511 		"/>
		<polygon fill="#010202" points="123.329,538.511 91.467,538.511 91.467,567.284 95.608,567.284 123.867,539.041 		"/>
		<polygon fill="#010202" points="129.601,538.511 129.063,539.041 157.323,567.284 161.463,567.284 161.463,538.511 		"/>
		<polygon fill="#010202" points="193.325,538.511 161.463,538.511 161.463,567.284 165.604,567.284 193.863,539.041 		"/>
		<polygon fill="#010202" points="199.597,538.511 199.059,539.041 227.319,567.284 231.459,567.284 231.459,538.511 		"/>
		<polygon fill="#010202" points="263.321,538.511 231.459,538.511 231.459,567.284 235.6,567.284 263.859,539.041 		"/>
		<polygon fill="#010202" points="269.593,538.511 269.055,539.041 297.315,567.284 301.455,567.284 301.455,538.511 		"/>
		<polygon fill="#010202" points="333.317,538.511 301.455,538.511 301.455,567.284 305.596,567.284 333.855,539.041 		"/>
		<polygon fill="#010202" points="339.589,538.511 339.051,539.041 367.311,567.284 371.451,567.284 371.451,538.511 		"/>
		<polygon fill="#010202" points="403.313,538.511 371.451,538.511 371.451,567.284 375.592,567.284 403.851,539.041 		"/>
		<polygon fill="#010202" points="409.585,538.511 409.047,539.041 437.307,567.284 441.447,567.284 441.447,538.511 		"/>
		<polygon fill="#010202" points="473.309,538.511 441.447,538.511 441.447,567.284 445.588,567.284 473.847,539.041 		"/>
		<polygon fill="#010202" points="479.582,538.511 479.043,539.041 507.303,567.284 511.443,567.284 511.443,538.511 		"/>
		<polygon fill="#010202" points="543.305,538.511 511.443,538.511 511.443,567.284 515.584,567.284 543.844,539.041 		"/>
		<polygon fill="#010202" points="549.039,539.041 566.93,556.921 566.93,538.511 549.578,538.511 		"/>
	</g>
</g>
<g id="Ebene_2">
</g>
</svg>
