<?xml version="1.0" encoding="utf-8"?>
<!-- Generator: Adobe Illustrator 17.1.0, SVG Export Plug-In . SVG Version: 6.00 Build 0)  -->
<!DOCTYPE svg PUBLIC "-//W3C//DTD SVG 1.1//EN" "http://www.w3.org/Graphics/SVG/1.1/DTD/svg11.dtd">
<svg version="1.1" xmlns="http://www.w3.org/2000/svg" xmlns:xlink="http://www.w3.org/1999/xlink" x="0px" y="0px"
	 width="566.93px" height="566.93px" viewBox="0 0 566.93 566.93" enable-background="new 0 0 566.93 566.93" xml:space="preserve">
<g id="Ebene_1">
	<g>
		<defs>
			<rect id="SVGID_1_" x="-612" y="-624" width="566.93" height="566.93"/>
		</defs>
		<clipPath id="SVGID_2_">
			<use xlink:href="#SVGID_1_"  overflow="visible"/>
		</clipPath>
		<g clip-path="url(#SVGID_2_)">
			<circle fill="#FFFFFF" stroke="#000000" stroke-width="8" stroke-miterlimit="10" cx="67.853" cy="-73.652" r="70.149"/>
		</g>
	</g>
	<g>
		<defs>
			<rect id="SVGID_3_" x="-2.873" y="-624.299" width="566.929" height="566.93"/>
		</defs>
		<clipPath id="SVGID_4_">
			<use xlink:href="#SVGID_3_"  overflow="visible"/>
		</clipPath>
		<g clip-path="url(#SVGID_4_)">
			<circle fill="#FFFFFF" stroke="#000000" stroke-width="8" stroke-miterlimit="10" cx="614.564" cy="-40.531" r="70.149"/>
			<circle fill="#FFFFFF" stroke="#000000" stroke-width="7" stroke-miterlimit="10" cx="614.564" cy="-40.531" r="52.612"/>
		</g>
		<g clip-path="url(#SVGID_4_)">
			<circle fill="#FFFFFF" stroke="#000000" stroke-width="8" stroke-miterlimit="10" cx="450.318" cy="-40.531" r="70.149"/>
			<circle fill="#FFFFFF" stroke="#000000" stroke-width="7" stroke-miterlimit="10" cx="450.318" cy="-40.531" r="52.612"/>
		</g>
		<g clip-path="url(#SVGID_4_)">
			<circle fill="#FFFFFF" stroke="#000000" stroke-width="8" stroke-miterlimit="10" cx="286.073" cy="-40.531" r="70.149"/>
			<circle fill="#FFFFFF" stroke="#000000" stroke-width="7" stroke-miterlimit="10" cx="286.073" cy="-40.531" r="52.612"/>
		</g>
		<g clip-path="url(#SVGID_4_)">
			<circle fill="#FFFFFF" stroke="#000000" stroke-width="8" stroke-miterlimit="10" cx="121.827" cy="-40.531" r="70.149"/>
			<circle fill="#FFFFFF" stroke="#000000" stroke-width="7" stroke-miterlimit="10" cx="121.827" cy="-40.531" r="52.612"/>
		</g>
		<g clip-path="url(#SVGID_4_)">
			<circle fill="#FFFFFF" stroke="#000000" stroke-width="8" stroke-miterlimit="10" cx="-42.419" cy="-40.531" r="70.149"/>
			<circle fill="#FFFFFF" stroke="#000000" stroke-width="7" stroke-miterlimit="10" cx="-42.419" cy="-40.531" r="52.612"/>
		</g>
	</g>
	<g>
		<path fill="none" d="M516.813,129.765c-0.711,0.027-1.712,0.123-2.771,0.224c-1.975,0.188-4.213,0.4-6.554,0.4
			c-5.614,0-12.867-1.484-15.538-8.555c-1.792-4.742-3.448-5.975-6.064-6.692c-0.967-0.266-1.919-0.399-2.828-0.399
			c-6.471,0-10.933,7.039-11.041,13.614c-0.06,3.623,1.32,7.388,2.78,11.374c0.737,2.013,1.5,4.095,2.134,6.289
			c0.969,3.358-0.248,6.356-5.876,17.722c-1.054,2.128-2.472,4.991-2.889,6.04c-0.026,0.568,0.323,1.631,1.094,2.684
			c1.455,1.984,4.009,3.463,6.967,5.174c2.804,1.623,5.982,3.462,8.693,6.131c0.543,0.533,1.096,1.1,1.659,1.678
			c2.163,2.22,4.856,4.982,6.695,4.982c0.223,0,0.458-0.036,0.719-0.11c3.686-1.05,5.032-6.589,5.508-9.798
			c0.133-0.898,0.236-1.9,0.347-2.962c0.513-4.958,1.152-11.129,5.68-15.9c4.622-4.871,11.77-5.475,17.513-5.96
			c2.209-0.187,4.295-0.363,5.683-0.726c8.612-2.252,20.055-8.056,21.065-13.458c-0.989-1.182-1.782-2.527-2.327-3.792
			c-6.811-5.459-15.591-8.026-27.254-8.026C519.114,129.698,517.972,129.721,516.813,129.765z"/>
		<path fill="none" d="M289.014,118.014l1.458-25.789c-2.639-0.544-5.326-0.88-8.032-1.005c-0.95-0.044-1.761-0.06-2.46-0.074
			c-6.865-0.14-9.543-1.524-12.919-9.909c-3.647-9.062-7.758-13.796-12.935-14.896c-0.965-0.206-1.849-0.31-2.625-0.31
			c-2.316,0-4.489,0.577-7.621,7.669c-4.086,9.25-12.843,9.516-18.639,9.691c-2.395,0.072-4.871,0.147-6.249,0.776
			c-4.043,1.845-4.356,9.567-3.396,15.62c1.327,8.364,5.149,13.145,12.395,15.498l1.304,0.421
			c9.113,2.937,18.537,5.974,22.087,19.181c1.496,5.567,5.805,11.744,13.411,12.383c0.569,0.048,1.219,0.07,2.043,0.07
			c0.723,0,1.455-0.017,2.191-0.032c0.84-0.019,1.685-0.037,2.525-0.037c3.323,0,11.105,0,16.282,6.603
			c2.146,2.737,3.391,5.616,4.487,8.156c1.538,3.562,2.441,5.473,4.597,6.563c2.554,1.294,6.136,1.95,10.647,1.95
			c1.307,0,2.688-0.052,4.224-0.159c3.824-0.267,5.407-0.377,5.753-9.04c0.361-9.05-0.853-24.488-13.042-26.199
			c-3.658-0.513-7.829-1.427-11.034-4.31C290.197,127.895,288.699,123.58,289.014,118.014z"/>
		<path fill="none" d="M124.856,328.57c-0.147,1.295-0.287,2.512-0.393,3.62c-1.174,12.3-3.657,24.448-7.392,36.174
			c0.521,0.212,1.047,0.277,1.602,0.277c0,0,0,0,0.001,0c4.082,0,10.145-3.698,15.493-6.961c5.184-3.162,10.079-6.148,14.794-6.992
			l0.595-0.106c8.037-1.434,10.005-1.965,11.851-7.039c0.993-2.731,1.447-5.866,1.929-9.185c0.717-4.949,1.53-10.559,4.405-15.805
			c3.063-5.591,9.933-8.599,16.574-11.508c3.335-1.461,10.274-4.5,10.908-6.297h-0.001c-0.01,0-0.089-1.296-2.719-4.167
			c-2.896-3.162-7.527-4.325-12.888-5.672c-2.816-0.707-5.728-1.438-8.579-2.533c-9.391-3.604-17.765-10.67-25.603-21.6
			c-1.207-1.683-2.267-3.479-3.291-5.218c-3.283-5.566-5.155-8.19-8.134-8.209l-0.849-0.003c-7.279,0-14.859,0.577-22.189,1.136
			c-2.562,0.195-5.185,0.395-7.808,0.571c-2.287,4.818-2.777,10.754-1.271,16.432c1.653,6.236,5.075,8.961,10.254,13.085
			c2.112,1.683,4.507,3.589,6.888,5.89C127.785,302.919,126.093,317.745,124.856,328.57z"/>
		<path fill="none" d="M431.719,315.201c3.836-4.266,8.184-9.101,14.621-10.117c1.379-0.217,2.826-0.323,4.428-0.323
			c2.382,0,4.704,0.235,6.95,0.462c2.035,0.206,3.958,0.4,5.726,0.4c2.35,0,3.977-0.341,5.274-1.104
			c2.237-1.314,2.621-4.771,2.55-7.438c-0.026-1.007-0.131-1.771-0.231-2.512c-0.718-5.281,0.664-8.204,5.688-12.03l7.08-5.393
			c1.408-1.072,2.929-2.127,4.4-3.147c8.229-5.707,11.953-8.944,10.57-13.961c-3.532-12.812-15.466-22.112-28.373-22.112
			c-3.976,0-7.84,0.896-11.484,2.662c-7.117,3.448-11.378,11.872-13.964,17.908c-0.448,1.047-0.795,1.977-1.131,2.875
			c-2.001,5.363-4.101,9.289-12.492,10.458c-3.012,1.225-6.247,1.993-9.519,2.267c-0.271,6.14-2.775,11.864-4.926,16.779
			c-1.529,3.495-2.974,6.797-3.496,9.721c-1.186,6.639,5.213,18.13,11.223,20.156c0.204,0.068,0.381,0.104,0.525,0.104
			C426.634,320.856,429.694,317.453,431.719,315.201z"/>
		<path fill="none" d="M183.816,147.649c-2.158,0.737-4.3,2.051-6.567,3.442c-3.773,2.316-8.051,4.941-13.629,5.688
			c-1.383,0.186-2.824,0.275-4.406,0.275c-3.5,0-7.055-0.452-10.492-0.889c-3.274-0.417-6.367-0.81-9.227-0.81
			c-4.427,0-7.224,0.942-9.351,3.151c-0.525,0.547-0.847,3.144-1.019,4.538c-0.442,3.58-1.048,8.483-5.569,10.967
			c-3.859,2.12-7.872,2.392-10.938,2.392c-1.225,0-2.397-0.049-3.532-0.096c-0.956-0.04-1.9-0.082-2.814-0.082l-0.153,0.001
			c-4.361,0.023-5.784,1.627-6.251,2.153c-1.979,2.229-2.733,6.833-2.072,12.633c0.496,4.35,4.317,7.483,10.552,12.128
			c3.226,2.403,6.562,4.888,9.395,7.953l1.502,1.635c5.69,6.208,11.573,12.627,18.919,13.737c1.201,0.182,2.598,0.277,4.037,0.277
			c3.99,0,8.116-0.73,10.767-1.906c0.555-0.246,1.003-1.205,1.826-3.182c0.708-1.703,1.512-3.633,2.885-5.534
			c4.872-6.748,12.309-7.528,17.479-7.528c2.151,0,4.277,0.146,6.335,0.287c1.876,0.129,3.648,0.251,5.266,0.251
			c1.697,0,2.978-0.137,3.915-0.418c6.419-1.926,12.593-9.857,18.04-16.854c1.894-2.433,3.682-4.73,5.477-6.784
			c0.838-0.959,1.768-1.973,2.74-3.032c4.52-4.923,10.023-10.92,9.899-16.006c-2.133-0.881-6.234-1.879-9.134-2.584
			c-9.953-2.421-20.244-4.925-23.578-12.815c-0.483-1.144-0.884-2.587-0.942-4.289C190.013,146.187,186.816,146.624,183.816,147.649
			z"/>
		<path fill="none" d="M228.71,257.432c10.6-1.289,20.527-5.827,27.954-12.778c0.567-0.531,1.102-1.05,1.615-1.549
			c3.713-3.604,7.921-7.69,16.058-7.69l0.283,0.001l21.685,0.249c3.763-8.927,5.713-21.61,1.311-24.48
			c-5.764-3.756-15.632-6.379-24-6.379c-2.576,0-4.864,0.242-6.802,0.72c-6.203,1.527-10.173,6.457-14.77,12.165
			c-2.373,2.946-4.826,5.992-7.76,8.764c-7.901,7.465-15.639,8.472-22.166,8.472c-1.779,0.001-3.551-0.08-5.264-0.158
			c-1.669-0.076-3.395-0.155-5.085-0.155c-2.159,0-3.976,0.126-5.715,0.396c-1.518,0.236-3.813,2.746-5.079,6.933
			c-1.405,4.653-0.839,9.16,0.571,10.45c3.8,3.477,11.087,5.471,19.993,5.471C223.952,257.862,226.364,257.717,228.71,257.432z"/>
		<path fill="none" d="M242.56,309.864c4.327,1.886,9.713,4.232,13.177,10.257c2.852,4.962,3.669,10.483,4.035,14.206l0.054,0.545
			c0.013,0.129,0.025,0.26,0.038,0.391c0.488,0.06,1.021,0.125,1.602,0.202c6.821,0.908,16.891,2.939,25.539,10.057
			c3.59,2.954,8.386,4.718,12.828,4.718c4.096-0.001,9.458-1.454,11.744-8.375c0.972-2.944,3.879-4.795,6.965-4.413
			c1.388,0.17,2.811,0.257,4.228,0.257c12.264,0,24.834-6.439,32.806-16.805c4.854-6.312,7.705-13.302,7.626-18.696
			c-0.008-0.497-0.09-0.745-0.118-0.792c-0.007-0.008-0.963-1.128-6.557-1.128c-1.358,0-2.688,0.061-3.975,0.119l-1.259,0.055
			c-2.291,0.09-4.631,0.255-7.108,0.429c-3.878,0.272-7.887,0.554-11.93,0.554c-4.216,0-7.895-0.313-11.246-0.959
			c-10.958-2.11-14.987-9.537-18.542-16.09l-0.714-1.312c-2.162-3.947-4.918-5.865-8.425-5.865c-7.555,0-16.646,8.423-17.383,16.098
			c-0.001,0.005-0.001,0.009-0.002,0.013c-0.339,3.573-3.495,6.203-7.084,5.857c-3.574-0.339-6.196-3.51-5.857-7.084
			c0.045-0.478-0.019-0.663-0.02-0.665c0,0-1.515-1.676-8.676-1.676c-0.815,0-1.522,0.021-2.065,0.036l-0.583,0.015
			c-3.926,0.087-11.036,0.943-14.531,5.709c-2.402,3.274-3.366,8.362-0.734,10.874C237.902,307.834,240.061,308.775,242.56,309.864z
			"/>
		<path fill="none" d="M299.481,18.903c-0.778,0.073-1.582,0.108-2.454,0.108c-1.806,0-3.558-0.153-5.251-0.302
			c-2.349-0.204-4.599-0.364-6.143-0.141c-0.132,2.596,0.392,5.279,1.515,7.648c1.01,0.163,2.801,0.185,4.064,0.199
			c3.02,0.035,6.441,0.075,9.575,1.26c9.589,3.628,13.354,10.891,16.38,16.727c1.727,3.329,3.24,6.248,5.601,8.429
			c0.568,0.133,1.164,0.2,1.78,0.2c3.917,0,8.048-2.735,9.406-6.227c1.15-2.961,0.354-6.618-0.569-10.854
			c-1.235-5.672-2.636-12.101,0.277-18.893c0.591-1.38,1.295-2.636,1.975-3.851c0.424-0.755,0.992-1.77,1.345-2.549
			c-4.658-3.676-10.83-7.136-15.95-7.136c-2.66,0-4.754,0.948-6.592,2.983c-0.755,0.837-1.35,1.882-2.039,3.092
			C310.462,13.006,307.531,18.156,299.481,18.903z"/>
		<path fill="none" d="M402.943,226.019c1.48-1.06,1.69-1.704,1.867-5.747c0.087-1.993,0.186-4.251,0.757-6.751
			c1.437-6.28,5.911-10.341,9.507-13.604c1.504-1.364,2.924-2.652,3.914-3.893c3.108-3.894,4.508-9.229,3.481-13.277
			c-0.663-2.618-2.273-4.437-4.922-5.559c-9.268-3.926-15.114-10.039-20.769-15.95c-3.617-3.782-7.034-7.354-11.293-10.307
			c-2.585-1.793-5.011-2.664-7.418-2.664c-4.62,0-9.908,3.31-16.169,10.119c-11.007,11.972-14.152,20.371-12.944,34.57
			c1.402,16.478-2.723,28.047-11.454,32.885c1.348,3.119,4.092,5.801,7.34,6.85c8.31,2.683,11.13,14.347,13.618,24.638
			c0.019,0.074,0.036,0.149,0.055,0.224c0.612,0.621,1.144,1.323,1.594,2.057c2.568-2.464,6.016-9.91,7.269-12.616
			c1.547-3.341,2.769-5.98,4.189-7.854c5.632-7.423,13.903-8.774,20.549-9.861C396.298,228.593,400.249,227.947,402.943,226.019z"/>
		<path fill="none" d="M263.522,497.826c0.695,0.237,1.367,0.426,2.019,0.609c2.91,0.817,7.71,2.167,9.405,8.418
			c0.144,0.034,0.325,0.064,0.543,0.077c0.697,0.04,1.42,0.061,2.149,0.061h0.002c5.545,0,11.137-1.141,17.057-2.349
			c6.305-1.287,12.824-2.617,19.708-2.617c1.095,0,2.163,0.033,3.214,0.1c1.809-5.729,3.004-11.657,3.564-17.687
			c0.322-3.476,0.431-6.988,0.322-10.46c-0.851-0.305-1.789-0.734-2.791-1.347c-9.366-5.724-10.682-15.56-11.738-23.463
			c-0.972-7.26-1.827-11.872-5.514-14.708c-1.768-1.358-3.456-2.019-5.165-2.019c-3.506,0-7.887,2.821-12.336,7.945
			c-0.743,0.855-1.475,1.728-2.206,2.6c-2.556,3.045-5.198,6.194-8.5,8.978c-5.442,4.587-10.549,4.964-14.652,5.267
			c-2.032,0.149-3.787,0.279-5.659,0.87c-2.157,0.683-4.721,5.059-5.448,15.296c-0.495,6.963,0.006,14.396,0.577,19.795
			C253.275,494.544,258.455,496.098,263.522,497.826z"/>
		<path fill="none" d="M447.491,399.882c5.059,2.865,11.793,3.894,17.707,4.632c3.864,0.484,7.799,0.721,11.677,0.664l0.402-0.002
			c7.839,0,10.314,3.495,11.619,8.743c0.192,0.773,0.391,1.573,0.713,2.489c5.724,16.274,13.603,25.039,23.417,26.049
			c2.822,0.284,4.285-0.725,7.861-3.48c0.637-0.492,1.292-0.996,1.978-1.504c6.301-4.669,13.337-8.099,20.914-10.192
			c2.918-0.808,5.736-1.389,8.224-1.902c10.312-2.128,13.425-2.77,13.878-12.538c0.437-9.39,0.51-17.787-2.658-24.249l-23.064,0.184
			c-0.864,0.007-2.002,0.077-3.207,0.153c-1.704,0.105-3.635,0.227-5.632,0.227c-4.883,0-11.864-0.642-16.097-6.194
			c-1.917-2.514-2.796-5.032-3.503-7.056c-0.95-2.723-0.973-2.729-2.146-3.043c-1.169-0.312-2.499-0.465-4.066-0.465
			c-2.649,0-5.606,0.446-8.466,0.878c-1.277,0.193-2.537,0.383-3.768,0.538c-2.22,0.279-4.472,0.532-6.741,0.787
			c-10.902,1.223-22.177,2.487-31.372,7.181c-5.888,3.006-11.132,9.302-11.223,13.473
			C443.921,396.027,443.882,397.838,447.491,399.882z"/>
		<path fill="none" d="M196.755,455.362c4.276-2.534,8.901-3.255,12.982-3.891c2.851-0.444,5.558-0.866,7.334-1.819
			c0.624-1.497,0.904-5.51,1.059-7.735c0.203-2.912,0.396-5.662,1.081-7.926c2.848-9.396,8.11-17.946,15.218-24.724
			c2.569-2.451,5.342-4.626,8.275-6.496c-0.21-1.623-0.576-3.234-1.099-4.819c-1.289-3.913-4.044-7.288-6.962-10.861
			c-2.948-3.611-6.29-7.704-8.434-12.841c-2.771-6.638-3.721-13.598-4.202-20.16l-6.399,0.014
			c-0.149,4.636-1.009,9.249-2.554,13.622c-0.591,1.67-1.838,3.027-3.452,3.757c-1.614,0.73-3.457,0.769-5.101,0.108
			c-1.273-0.512-2.615-0.771-3.988-0.771c-6.327,0-12.281,5.455-12.74,11.674c-0.152,2.06,0.148,4.962,0.468,8.035
			c0.996,9.595,2.5,24.094-10.582,30.162c-0.844,0.391-1.693,0.697-2.529,0.938c2.74,8.135,3.263,17.094,1.373,25.671
			c-1.053,4.781-3.466,9.056-5.8,13.19c-1.98,3.509-3.879,6.874-4.528,9.889c4.842,2.12,10.152,3.172,15.514,3.081
			C183.991,466.207,189.276,459.792,196.755,455.362z"/>
		<path fill="none" d="M338.322,403.9c0.959,0.851,2.152,1.909,3.406,3.359c2.978,3.44,4.737,7.45,6.29,10.988
			c2.382,5.428,3.907,8.555,7.57,9.718c1.783,0.566,3.786,0.819,6.495,0.819c1.625,0,3.298-0.09,5.068-0.185
			c1.862-0.1,3.789-0.203,5.76-0.203c3.953,0,7.195,0.433,10.203,1.362c7.56,2.335,10.759,8.396,13.096,12.821
			c2.175,4.121,3.288,5.864,5.575,6.521c0.998,0.286,1.898,0.432,2.679,0.432c1.393,0,2.271-0.441,3.031-1.522
			c1.965-2.792,2.269-8.667,0.679-13.096c-4.378-12.2-3.347-22.263-2.255-32.916c0.2-1.954,0.406-3.964,0.587-6.054
			c0.059-0.688,0.126-1.408,0.196-2.154c0.842-8.964,1.215-17.205-3.394-19.562c-5.712-2.919-9.331-7.525-12.524-11.59
			c-2.676-3.404-4.986-6.345-7.945-7.675c-1.273-0.573-2.559-0.889-3.618-0.889c-1.507,0-1.976,0.58-2.296,1.125
			c-0.551,0.936-1.148,2.155-1.781,3.446c-2.697,5.505-6.775,13.825-15.485,13.825h-0.001c-0.191,0-0.385-0.005-0.579-0.014
			c-7.93-0.362-15.965,2.125-22.255,6.785l-0.216,21.646C336.594,402.367,336.594,402.367,338.322,403.9z"/>
		<path fill="none" d="M446.683,65.567c-4.064,0-8.368,0.113-13.155,0.348c-5.703,0.279-11.392,0.694-16.688,1.101
			c-0.576,0.045-1.111,0.064-1.608,0.064c-6.155,0.001-8.896-3.266-10.534-5.218c-0.703-0.838-1.259-1.5-2.188-2.165
			c-1.834-1.313-3.715-1.979-5.592-1.979c-3.179,0-5.89,1.862-7.603,3.425l-0.33,0.301c-6.923,6.314-12.901,11.767-22.592,15.78
			c-6.77,2.803-14.05,6.269-14.737,11.938c-0.194,1.598-0.234,3.169-0.273,4.689c-0.153,6.021-0.364,14.266-12.34,18.248
			c-1.689,0.562-2.879,1.436-3.264,2.397c-0.49,1.226,0.21,2.86,0.671,3.727c1.068,2.009,3.184,4.314,10.105,4.314
			c1.576,0,3.206-0.121,4.844-0.312c1.154-1.029,2.562-1.763,3.911-2.199c3.602-5.761,7.582-11.54,16.654-14.36
			c5.906-1.835,10.752-2.689,15.252-2.689c3.582,0,6.958,0.565,10.036,1.679c2.953,1.069,5.344,2.716,7.452,4.168
			c2.691,1.854,4.343,2.946,6.083,2.839c3.854-0.23,7.488-4.134,9.088-7.871c0.449-1.052,0.67-2.635,0.903-4.311
			c0.625-4.491,1.57-11.278,8.851-14.791c2.884-1.393,6.013-2.041,9.847-2.041c1.758,0,3.436,0.131,5.057,0.258
			c1.445,0.113,2.81,0.221,4.077,0.221c1.598,0,2.812-0.176,3.823-0.554c3.695-1.379,7.015-4.819,8.665-8.978
			c1.006-2.536,1.326-5.071,0.961-7.394C457.256,65.776,452.187,65.567,446.683,65.567z"/>
		<path fill="none" d="M72.387,419.771c9.811-0.254,17.139,4.829,23.588,9.266c3.983,2.741,7.562,5.204,11.297,6.281
			c0.025-0.032,0.052-0.064,0.077-0.097c1.881-2.315,4.604-3.742,7.473-3.914c0.131-0.008,0.262-0.012,0.392-0.012
			c2.629,0,5.016,1.589,6.018,4.047c2.241,5.501,8.139,10.147,12.878,10.147c1.86,0,3.528-0.687,5.101-2.1
			c2.593-2.329,4.012-5.731,4.218-10.113c0.33-6.996-2.628-15.343-7.193-20.298c-10.214-11.085-20.545-17.702-27.635-17.702
			c-0.853,0-1.67,0.097-2.432,0.288c-3.656,0.92-7.08,3.566-10.704,6.368c-5.076,3.925-10.83,8.372-18.715,9.232
			c-4.219,0.46-7.451,2.861-9.07,4.955c-1.021,1.319-1.258,2.286-1.285,2.653c0.455,0.334,2.054,1.003,5.402,1.003
			C71.99,419.777,72.186,419.775,72.387,419.771z"/>
		<path d="M179.615,135.346c-3.525,1.204-6.522,3.043-9.166,4.665c-3.062,1.879-5.705,3.502-8.556,3.884
			c-0.805,0.107-1.681,0.16-2.68,0.16c-2.677,0-5.677-0.382-8.853-0.785c-3.531-0.449-7.184-0.913-10.866-0.913
			c-7.971,0-14.093,2.334-18.716,7.136c-3.531,3.668-4.123,8.461-4.556,11.961c-0.06,0.487-0.137,1.108-0.219,1.646
			c-0.867,0.209-1.966,0.306-3.386,0.306c-0.954,0-1.943-0.041-2.99-0.085c-1.091-0.045-2.219-0.093-3.356-0.093l-0.227,0.001
			c-8.397,0.046-13.282,3.573-15.901,6.524c-4.555,5.133-6.376,12.994-5.265,22.734c1.169,10.254,8.89,16.006,15.702,21.081
			c2.878,2.144,5.596,4.168,7.613,6.352l1.466,1.595c6.538,7.133,14.675,16.011,26.56,17.807c1.859,0.281,3.871,0.424,5.979,0.424
			c5.862,0,11.708-1.103,16.039-3.023c5.353-2.376,7.28-7.006,8.556-10.069c0.479-1.151,0.932-2.239,1.423-2.919
			c0.802-1.11,2.197-2.139,6.938-2.139c1.705,0,3.521,0.125,5.443,0.257c2.013,0.138,4.094,0.281,6.157,0.281
			c3.022,0,5.453-0.308,7.651-0.967c10.393-3.118,17.921-12.788,24.562-21.32c1.776-2.283,3.455-4.439,5.007-6.216
			c0.773-0.885,1.631-1.818,2.528-2.795c6.578-7.167,16.52-17.996,12.371-30.651c-0.26-0.792-0.669-1.526-1.206-2.164
			c-3.271-3.88-9.287-5.344-16.904-7.197c-4.193-1.02-12.766-3.105-14.551-5.107c0.066-0.217,0.215-0.598,0.546-1.16
			c1.003-1.701,1.178-3.766,0.476-5.611c-0.701-1.846-2.204-3.271-4.084-3.877C195.641,132.648,187.211,132.752,179.615,135.346z
			 M194.116,150.638c3.334,7.891,13.625,10.395,23.578,12.815c2.899,0.705,7.001,1.703,9.134,2.584
			c0.124,5.086-5.38,11.083-9.899,16.006c-0.973,1.06-1.902,2.073-2.74,3.032c-1.795,2.054-3.583,4.352-5.477,6.784
			c-5.447,6.997-11.621,14.929-18.04,16.854c-0.938,0.281-2.218,0.418-3.915,0.418c-1.617,0-3.39-0.122-5.266-0.251
			c-2.058-0.142-4.184-0.287-6.335-0.287c-5.17,0-12.606,0.78-17.479,7.528c-1.373,1.901-2.177,3.831-2.885,5.534
			c-0.823,1.977-1.271,2.936-1.826,3.182c-2.65,1.176-6.776,1.906-10.767,1.906c-1.439,0-2.836-0.096-4.037-0.277
			c-7.346-1.11-13.229-7.529-18.919-13.737l-1.502-1.635c-2.833-3.065-6.169-5.55-9.395-7.953
			c-6.234-4.645-10.056-7.778-10.552-12.128c-0.661-5.8,0.094-10.403,2.072-12.633c0.467-0.526,1.89-2.13,6.251-2.153l0.153-0.001
			c0.914,0,1.858,0.042,2.814,0.082c1.135,0.047,2.308,0.096,3.532,0.096c3.065,0,7.078-0.271,10.938-2.392
			c4.521-2.483,5.127-7.387,5.569-10.967c0.172-1.395,0.493-3.991,1.019-4.538c2.127-2.209,4.924-3.151,9.351-3.151
			c2.859,0,5.952,0.393,9.227,0.81c3.438,0.437,6.992,0.889,10.492,0.889c1.582,0,3.023-0.09,4.406-0.275
			c5.578-0.747,9.855-3.372,13.629-5.688c2.268-1.392,4.409-2.705,6.567-3.442c3-1.024,6.197-1.462,9.357-1.3
			C193.232,148.051,193.633,149.495,194.116,150.638z"/>
		<path d="M237.367,321.782c3.689,1.607,5.838,2.623,7.099,4.817c1.604,2.79,2.12,6.473,2.369,9.002l0.053,0.535
			c0.354,3.628,0.61,6.248,2.629,8.582c2.312,2.672,5.267,3.027,8.396,3.403c0.544,0.065,1.153,0.139,1.836,0.229
			c8.446,1.124,14.305,3.348,18.995,7.208c5.932,4.881,13.618,7.68,21.09,7.68c9.705-0.001,17.63-4.601,22.02-12.54
			c0.306,0.006,0.611,0.009,0.916,0.009c16.212,0,32.731-8.384,43.11-21.88c3.161-4.11,10.494-14.951,10.319-26.812
			c-0.081-5.5-2.744-14.729-19.673-14.729c-1.653,0-3.199,0.07-4.563,0.133l-1.181,0.051c-2.491,0.099-5.042,0.277-7.509,0.45
			c-3.653,0.257-7.432,0.522-11.019,0.522c-3.382,0-6.257-0.237-8.788-0.725c-4.683-0.901-6.116-3.151-9.573-9.523l-0.739-1.357
			c-4.458-8.139-11.499-12.62-19.826-12.62c-9.756,0-19.75,6.369-25.508,14.992c-3.446-1.643-7.92-2.449-13.514-2.449
			c-0.959,0-1.792,0.023-2.431,0.041l-0.503,0.014c-10.912,0.24-19.694,4.152-24.729,11.016c-5.696,7.765-7.361,20.206,0.773,27.969
			C230.596,318.831,234.194,320.399,237.367,321.782z M237.127,295.52c3.495-4.766,10.605-5.622,14.531-5.709l0.583-0.015
			c0.543-0.016,1.25-0.036,2.065-0.036c7.161,0,8.671,1.676,8.671,1.676c0.006,0.002,0.069,0.188,0.024,0.665
			c-0.339,3.574,2.283,6.745,5.857,7.084c3.589,0.346,6.745-2.284,7.084-5.857c0.001-0.004,0.001-0.008,0.002-0.013
			c0.736-7.675,9.828-16.098,17.383-16.098c3.507,0,6.263,1.918,8.425,5.865l0.714,1.312c3.555,6.553,7.584,13.979,18.542,16.09
			c3.352,0.646,7.03,0.959,11.246,0.959c4.043,0,8.052-0.281,11.93-0.554c2.478-0.174,4.817-0.339,7.108-0.429l1.259-0.055
			c1.286-0.059,2.616-0.119,3.975-0.119c5.594,0,6.55,1.12,6.557,1.128c0.028,0.047,0.11,0.295,0.118,0.792
			c0.079,5.395-2.771,12.384-7.626,18.696c-7.972,10.365-20.542,16.805-32.806,16.805c-1.417,0-2.84-0.087-4.228-0.257
			c-3.086-0.382-5.993,1.469-6.965,4.413c-2.286,6.921-7.648,8.374-11.744,8.375c-4.442,0-9.238-1.764-12.828-4.718
			c-8.648-7.117-18.718-9.148-25.539-10.057c-0.581-0.077-1.113-0.143-1.602-0.202c-0.013-0.131-0.025-0.262-0.038-0.391
			l-0.054-0.545c-0.366-3.723-1.184-9.244-4.035-14.206c-3.464-6.024-8.85-8.371-13.177-10.257c-2.499-1.089-4.658-2.029-6.168-3.47
			C233.76,303.882,234.724,298.794,237.127,295.52z"/>
		<path d="M381.922,246.996c2.375-3.129,6.217-3.896,12.29-4.889c5.218-0.854,11.132-1.82,16.297-5.516
			c6.813-4.877,7.088-11.162,7.289-15.751c0.069-1.58,0.135-3.072,0.443-4.422c0.524-2.297,2.862-4.418,5.569-6.875
			c1.816-1.648,3.695-3.354,5.336-5.408c5.691-7.127,7.961-16.546,5.925-24.582c-1.658-6.546-6.081-11.637-12.453-14.336
			c-6.798-2.88-11.269-7.554-16.445-12.966c-3.903-4.081-7.94-8.302-13.278-12.004c-4.767-3.305-9.755-4.98-14.826-4.98
			c-11.269,0-20.087,8.173-25.739,14.32c-11.364,12.36-18.06,24.11-16.327,44.471c0.503,5.906,0.827,19.79-7.003,21.146
			c-3.098,0.536-5.368,3.214-5.391,6.358c-0.073,10.243,7.004,20.014,16.878,23.379c2.099,2.049,4.443,11.744,5.337,15.441
			c0.477,1.969,0.926,3.829,1.373,5.364c0.071,0.25,0.152,0.519,0.244,0.808c0.188,0.627,0.473,1.228,0.85,1.78
			c0.382,0.561,0.845,1.051,1.368,1.459c2.963,2.375,6.097,3.579,9.317,3.579c10.515,0,16.111-12.092,20.197-20.92
			C380.143,250.358,381.35,247.748,381.922,246.996z M371.565,239.138c-1.421,1.874-2.643,4.514-4.189,7.854
			c-1.253,2.706-4.7,10.152-7.269,12.616c-0.45-0.733-0.981-1.436-1.594-2.057c-0.019-0.074-0.036-0.149-0.055-0.224
			c-2.488-10.291-5.309-21.955-13.618-24.638c-3.248-1.049-5.992-3.73-7.34-6.85c8.731-4.838,12.856-16.407,11.454-32.885
			c-1.208-14.199,1.938-22.599,12.944-34.57c6.261-6.81,11.549-10.119,16.169-10.119c2.407,0,4.833,0.871,7.418,2.664
			c4.259,2.953,7.676,6.524,11.293,10.307c5.654,5.911,11.501,12.024,20.769,15.95c2.648,1.122,4.259,2.94,4.922,5.559
			c1.026,4.049-0.373,9.384-3.481,13.277c-0.99,1.24-2.41,2.528-3.914,3.893c-3.596,3.264-8.07,7.324-9.507,13.604
			c-0.571,2.5-0.67,4.758-0.757,6.751c-0.177,4.043-0.387,4.688-1.867,5.747c-2.694,1.928-6.646,2.574-10.829,3.258
			C385.469,230.364,377.197,231.715,371.565,239.138z"/>
		<path d="M441.385,323.893c2.272-2.526,5.1-5.671,6.98-5.968c0.701-0.11,1.486-0.165,2.401-0.165c1.727,0,3.629,0.192,5.643,0.396
			c2.267,0.229,4.61,0.466,7.034,0.466c4.666-0.001,8.546-0.948,11.861-2.896c6.009-3.532,9.19-10.276,8.958-18.993
			c-0.038-1.401-0.161-2.509-0.273-3.375c0.17-0.136,0.372-0.294,0.611-0.477l7.08-5.393c1.178-0.896,2.516-1.824,3.932-2.807
			c7.836-5.435,19.678-13.647,15.695-28.099c-5.059-18.344-22.262-31.657-40.906-31.657c-5.956,0-11.728,1.333-17.154,3.963
			c-11.032,5.347-16.837,16.537-20.243,24.487c-0.57,1.332-1.009,2.507-1.361,3.45c-0.241,0.646-0.527,1.413-0.735,1.875
			c-0.328,0.088-0.934,0.215-1.971,0.326c-0.674,0.072-1.332,0.249-1.951,0.525c-3.529,1.571-7.686,2.047-11.481,1.313
			c-2.324-0.446-4.708,0.4-6.225,2.218c-1.517,1.818-1.925,4.316-1.066,6.521c1.783,4.581-0.543,9.9-3.237,16.06
			c-1.766,4.034-3.591,8.207-4.383,12.646c-2.084,11.667,6.853,30.372,19.865,34.76c1.546,0.521,3.12,0.785,4.68,0.785
			C432.427,333.856,437.394,328.331,441.385,323.893z M413.39,300.596c0.522-2.924,1.967-6.226,3.496-9.721
			c2.15-4.915,4.654-10.64,4.926-16.779c3.271-0.273,6.507-1.042,9.519-2.267c8.392-1.169,10.491-5.095,12.492-10.458
			c0.336-0.898,0.683-1.828,1.131-2.875c2.586-6.036,6.847-14.46,13.964-17.908c3.645-1.767,7.509-2.662,11.484-2.662
			c12.907,0,24.841,9.3,28.373,22.112c1.383,5.017-2.342,8.254-10.57,13.961c-1.472,1.021-2.992,2.075-4.4,3.147l-7.08,5.393
			c-5.024,3.826-6.406,6.749-5.688,12.03c0.101,0.74,0.205,1.505,0.231,2.512c0.071,2.667-0.312,6.123-2.55,7.438
			c-1.298,0.763-2.925,1.104-5.274,1.104c-1.768,0-3.69-0.194-5.726-0.4c-2.246-0.227-4.568-0.462-6.95-0.462
			c-1.602,0-3.049,0.106-4.428,0.323c-6.438,1.017-10.785,5.852-14.621,10.117c-2.024,2.252-5.085,5.655-6.58,5.655
			c-0.145,0-0.321-0.035-0.525-0.104C418.603,318.726,412.205,307.235,413.39,300.596z"/>
		<path d="M516.314,116.775c-1.078,0.041-2.255,0.153-3.502,0.271c-1.687,0.16-3.599,0.343-5.323,0.343
			c-2.154,0-3.125-0.283-3.483-0.431c-2.092-5.438-5.682-11.886-14.681-14.354c-2.088-0.572-4.196-0.862-6.267-0.862
			c-13.016,0-23.8,11.843-24.039,26.399c-0.1,6.04,1.851,11.364,3.572,16.062c0.501,1.368,0.982,2.683,1.402,3.972
			c-0.87,2.287-3.232,7.06-4.589,9.798c-2.681,5.413-3.576,7.298-3.924,8.897c-0.934,4.306,0.267,9.146,3.293,13.277
			c3.068,4.188,7.251,6.607,10.941,8.743c2.342,1.355,4.553,2.635,6.088,4.146c0.48,0.473,0.969,0.974,1.467,1.485
			c3.664,3.759,8.684,8.908,16.004,8.908h0.001c1.425,0,2.866-0.204,4.281-0.608c7.935-2.26,13.192-9.503,14.805-20.396
			c0.175-1.181,0.299-2.373,0.418-3.527c0.343-3.309,0.696-6.729,2.179-8.291c1.217-1.282,6.008-1.687,9.178-1.955
			c2.659-0.225,5.408-0.457,7.876-1.102c5.305-1.387,13.185-4.385,19.389-8.638c11.803-8.092,12.121-16.849,11.091-21.665
			c-0.166-1.189-0.617-2.38-1.281-3.846c0,0,0-0.001-0.001-0.002c-0.341-0.752-0.807-1.408-1.362-1.954
			c-0.364-0.375-0.749-0.77-1.164-1.155c-9.537-9.145-22.144-13.594-38.475-13.594C518.949,116.698,517.639,116.724,516.314,116.775
			z M549.789,141.516c-1.011,5.402-12.453,11.206-21.065,13.458c-1.388,0.362-3.474,0.539-5.683,0.726
			c-5.743,0.485-12.891,1.089-17.513,5.96c-4.527,4.771-5.167,10.942-5.68,15.9c-0.11,1.062-0.214,2.063-0.347,2.962
			c-0.476,3.209-1.822,8.748-5.508,9.798c-0.261,0.074-0.496,0.11-0.719,0.11c-1.839,0-4.532-2.763-6.695-4.982
			c-0.563-0.578-1.116-1.145-1.659-1.678c-2.711-2.669-5.89-4.508-8.693-6.131c-2.958-1.711-5.512-3.189-6.967-5.174
			c-0.771-1.053-1.12-2.115-1.094-2.684c0.417-1.049,1.835-3.912,2.889-6.04c5.628-11.365,6.845-14.363,5.876-17.722
			c-0.634-2.194-1.396-4.276-2.134-6.289c-1.46-3.986-2.84-7.751-2.78-11.374c0.108-6.575,4.57-13.614,11.041-13.614
			c0.909,0,1.861,0.134,2.828,0.399c2.616,0.718,4.272,1.95,6.064,6.692c2.671,7.07,9.924,8.555,15.538,8.555
			c2.341,0,4.579-0.213,6.554-0.4c1.059-0.101,2.06-0.196,2.771-0.224c1.159-0.044,2.301-0.067,3.395-0.067
			c11.663,0,20.443,2.567,27.254,8.026C548.007,138.989,548.8,140.334,549.789,141.516z"/>
		<path d="M467.662,53.716c-6.517-0.773-13.378-1.149-20.979-1.149c-4.278,0-8.789,0.119-13.79,0.363
			c-5.862,0.287-11.659,0.71-17.051,1.124c-0.253,0.02-0.507,0.026-0.698,0.025c-0.153-0.175-0.337-0.394-0.488-0.573
			c-0.922-1.099-2.315-2.76-4.581-4.381c-4.027-2.883-8.577-4.407-13.158-4.407c-5.812,0-11.47,2.358-16.362,6.819l-0.331,0.302
			c-6.513,5.939-11.219,10.231-18.806,13.373c-7.342,3.041-21.008,8.7-22.669,22.385c-0.268,2.212-0.318,4.184-0.362,5.923
			c-0.132,5.142-0.132,5.142-3.446,6.244c-5.408,1.798-9.397,5.316-11.232,9.906c-1.809,4.523-1.359,9.729,1.265,14.661
			c3.958,7.437,11.219,11.207,21.582,11.207c4.364,0,8.652-0.647,12.638-1.35c0.014-0.002,0.027-0.005,0.041-0.007
			c0.922-0.163,1.765-0.513,2.494-1.003c0.676-0.453,1.275-1.04,1.759-1.753c0.022-0.034,0.046-0.068,0.068-0.104
			c0.782-1.195,1.503-2.353,2.194-3.467c3.55-5.71,5.319-8.297,10.073-9.774c4.619-1.435,8.239-2.104,11.394-2.104
			c2.098,0,3.933,0.296,5.61,0.902c1.383,0.501,2.899,1.546,4.506,2.651c3.519,2.423,7.969,5.475,14.229,5.108
			c10.25-0.611,17.323-8.858,20.265-15.734c1.135-2.649,1.503-5.296,1.828-7.631c0.534-3.841,0.827-4.491,1.626-4.877
			c1.072-0.518,2.365-0.748,4.195-0.748c1.25,0,2.606,0.105,4.042,0.219c1.63,0.127,3.315,0.26,5.092,0.26
			c3.199,0,5.859-0.437,8.37-1.374c7.138-2.665,13.194-8.782,16.201-16.363c2.818-7.103,2.652-14.792-0.455-21.094
			C471.752,55.324,469.846,53.976,467.662,53.716z M461.097,73.597c-1.65,4.158-4.97,7.599-8.665,8.978
			c-1.011,0.378-2.226,0.554-3.823,0.554c-1.268,0-2.632-0.107-4.077-0.221c-1.621-0.127-3.299-0.258-5.057-0.258
			c-3.834,0-6.963,0.648-9.847,2.041c-7.28,3.513-8.226,10.3-8.851,14.791c-0.233,1.676-0.454,3.259-0.903,4.311
			c-1.6,3.737-5.234,7.641-9.088,7.871c-1.74,0.107-3.392-0.985-6.083-2.839c-2.108-1.452-4.499-3.099-7.452-4.168
			c-3.078-1.113-6.454-1.679-10.036-1.679c-4.5,0-9.346,0.854-15.252,2.689c-9.072,2.82-13.053,8.6-16.654,14.36
			c-1.35,0.437-2.757,1.17-3.911,2.199c-1.638,0.19-3.268,0.312-4.844,0.312c-6.922,0-9.037-2.306-10.105-4.314
			c-0.461-0.866-1.161-2.501-0.671-3.727c0.385-0.962,1.574-1.836,3.264-2.397c11.976-3.982,12.187-12.228,12.34-18.248
			c0.039-1.521,0.079-3.092,0.273-4.689c0.688-5.67,7.968-9.136,14.737-11.938c9.69-4.014,15.669-9.466,22.592-15.78l0.33-0.301
			c1.713-1.562,4.424-3.425,7.603-3.425c1.877,0,3.758,0.665,5.592,1.979c0.93,0.665,1.485,1.327,2.188,2.165
			c1.638,1.952,4.379,5.219,10.534,5.218c0.497,0,1.032-0.02,1.608-0.064c5.297-0.406,10.985-0.821,16.688-1.101
			c4.787-0.234,9.091-0.348,13.155-0.348c5.504,0,10.572,0.209,15.375,0.637C462.424,68.526,462.103,71.061,461.097,73.597z"/>
		<path d="M156.352,479.975c7.456,4.246,15.978,6.491,24.644,6.49c2.327,0,4.663-0.165,6.943-0.492
			c2.941-0.423,5.223-2.786,5.54-5.741c0.562-5.229,4.263-10.345,9.902-13.687c2.123-1.258,5.151-1.729,8.357-2.229
			c4.134-0.645,8.819-1.375,12.916-4.062c5.479-3.591,5.991-10.944,6.443-17.433c0.131-1.871,0.293-4.199,0.554-5.059
			c2.198-7.255,6.261-13.854,11.747-19.087c2.754-2.626,5.798-4.828,9.047-6.545c2.105-1.113,3.434-3.287,3.463-5.668
			c0.051-4.25-0.607-8.481-1.956-12.577c-2.043-6.202-5.866-10.885-9.239-15.017c-2.619-3.208-5.093-6.237-6.507-9.627
			c-2.791-6.688-3.193-14.473-3.582-22.001c-0.179-3.456-3.032-6.165-6.491-6.165c0,0-0.009,0-0.014,0l-19.33,0.043
			c-1.869,0.004-3.646,0.813-4.878,2.22c-1.23,1.407-1.796,3.276-1.552,5.13c0.411,3.121,0.355,6.303-0.152,9.41
			c-0.562-0.039-1.127-0.06-1.694-0.06c-13.208,0-24.739,10.64-25.705,23.716c-0.237,3.211,0.122,6.671,0.502,10.335
			c1.32,12.718,0.104,15.531-3.12,17.026c-0.863,0.4-2.118,0.587-3.949,0.587c-0.871,0-1.745-0.038-2.607-0.076
			c-2.394-0.104-4.659,1.119-5.881,3.187c-1.222,2.066-1.204,4.638,0.044,6.688c4.465,7.332,5.927,16.524,4.011,25.221
			c-0.635,2.882-2.477,6.144-4.426,9.598c-3.454,6.12-7.37,13.059-6.251,21.12C153.408,477.219,154.598,478.976,156.352,479.975z
			 M170.703,460.49c2.334-4.135,4.747-8.409,5.8-13.19c1.89-8.577,1.367-17.536-1.373-25.671c0.836-0.241,1.686-0.548,2.529-0.938
			c13.082-6.068,11.578-20.567,10.582-30.162c-0.319-3.073-0.62-5.976-0.468-8.035c0.459-6.219,6.413-11.674,12.74-11.674
			c1.373,0,2.715,0.26,3.988,0.771c1.644,0.66,3.486,0.622,5.101-0.108c1.614-0.729,2.861-2.087,3.452-3.757
			c1.545-4.373,2.404-8.986,2.554-13.622l6.399-0.014c0.481,6.562,1.432,13.522,4.202,20.16c2.144,5.137,5.485,9.229,8.434,12.841
			c2.918,3.573,5.673,6.948,6.962,10.861c0.522,1.585,0.889,3.196,1.099,4.819c-2.934,1.87-5.706,4.045-8.275,6.496
			c-7.107,6.777-12.37,15.327-15.218,24.724c-0.686,2.264-0.878,5.014-1.081,7.926c-0.154,2.226-0.435,6.238-1.059,7.735
			c-1.776,0.953-4.483,1.375-7.334,1.819c-4.081,0.636-8.706,1.356-12.982,3.891c-7.479,4.431-12.764,10.846-15.066,18.098
			c-5.361,0.091-10.672-0.961-15.514-3.081C166.824,467.364,168.722,463.998,170.703,460.49z"/>
		<path d="M71.796,432.777c0.288,0,0.579-0.003,0.877-0.01l0.312-0.003c5.474,0,10.177,3.235,15.622,6.982
			c6.23,4.287,13.293,9.146,22.573,9.146l0.4-0.003c0.896-0.014,1.768-0.211,2.565-0.57c4.854,5.743,11.991,10.171,19.964,10.171
			c5.068,0,9.837-1.877,13.79-5.43c5.199-4.672,8.144-11.301,8.515-19.171c0.487-10.354-3.779-22.297-10.619-29.719
			c-7.534-8.177-22.385-21.894-37.195-21.894c-1.921,0-3.806,0.229-5.602,0.681c-6.29,1.581-11.176,5.358-15.485,8.69
			c-4.256,3.29-7.931,6.131-12.174,6.594c-12.227,1.334-22.473,11.309-21.928,21.346C53.758,425.963,58.769,432.777,71.796,432.777z
			 M67.678,416.121c1.619-2.094,4.852-4.495,9.07-4.955c7.885-0.86,13.639-5.308,18.715-9.232c3.624-2.802,7.048-5.448,10.704-6.368
			c0.762-0.191,1.579-0.288,2.432-0.288c7.09,0,17.421,6.617,27.635,17.702c4.565,4.955,7.523,13.302,7.193,20.298
			c-0.206,4.382-1.625,7.784-4.218,10.113c-1.572,1.413-3.24,2.1-5.101,2.1c-4.739,0-10.637-4.646-12.878-10.147
			c-1.002-2.458-3.389-4.047-6.018-4.047c-0.13,0-0.261,0.004-0.392,0.012c-2.868,0.172-5.592,1.599-7.473,3.914
			c-0.025,0.032-0.052,0.064-0.077,0.097c-3.734-1.077-7.313-3.54-11.297-6.281c-6.449-4.437-13.777-9.52-23.588-9.266
			c-0.201,0.004-0.397,0.006-0.592,0.006c-3.349,0-4.947-0.669-5.402-1.003C66.421,418.407,66.658,417.44,67.678,416.121z"/>
		<path d="M240.653,504.742c6.28,1.492,12.563,3.305,18.674,5.389c1.031,0.352,1.954,0.61,2.695,0.819
			c0.185,0.052,0.393,0.11,0.596,0.169c1.458,5.026,6.131,8.446,12.126,8.79c0.944,0.055,1.918,0.082,2.895,0.082h0.002
			c6.857,0,13.363-1.328,19.655-2.611c5.934-1.211,11.538-2.354,17.109-2.354c2.27,0,4.365,0.188,6.408,0.576
			c3.09,0.588,6.156-1.122,7.281-4.06c3.177-8.287,5.206-17.002,6.032-25.9c0.412-4.428,0.521-8.911,0.326-13.324
			c-0.133-3.002-0.442-10.033-8.147-10.539c-0.473-0.031-0.473-0.031-0.812-0.238c-3.884-2.374-4.671-6.902-5.633-14.095
			c-1.012-7.565-2.271-16.981-10.475-23.29c-4.067-3.127-8.471-4.713-13.089-4.713c-7.541,0-14.994,4.179-22.152,12.422
			c-0.791,0.911-1.569,1.838-2.349,2.767c-2.302,2.743-4.476,5.334-6.92,7.395c-2.221,1.871-3.895,1.995-7.229,2.241
			c-2.362,0.174-5.302,0.391-8.621,1.439c-8.991,2.842-18.601,14.445-13.312,53.582C236.075,501.953,238.038,504.12,240.653,504.742
			z M247.496,473.397c0.728-10.237,3.291-14.613,5.448-15.296c1.872-0.591,3.627-0.721,5.659-0.87
			c4.104-0.303,9.21-0.68,14.652-5.267c3.302-2.783,5.944-5.933,8.5-8.978c0.731-0.872,1.463-1.744,2.206-2.6
			c4.449-5.124,8.83-7.945,12.336-7.945c1.709,0,3.397,0.66,5.165,2.019c3.687,2.836,4.542,7.448,5.514,14.708
			c1.057,7.903,2.372,17.739,11.738,23.463c1.002,0.612,1.94,1.042,2.791,1.347c0.108,3.472,0,6.984-0.322,10.46
			c-0.561,6.029-1.756,11.958-3.564,17.687c-1.051-0.066-2.119-0.1-3.214-0.1c-6.884,0-13.403,1.33-19.708,2.617
			c-5.92,1.208-11.512,2.349-17.057,2.349h-0.002c-0.729,0-1.452-0.021-2.149-0.061c-0.218-0.013-0.399-0.043-0.543-0.077
			c-1.695-6.251-6.495-7.601-9.405-8.418c-0.651-0.184-1.323-0.372-2.019-0.609c-5.067-1.728-10.247-3.281-15.449-4.634
			C247.502,487.793,247.001,480.36,247.496,473.397z"/>
		<path d="M422.011,553.901l-1.43,0.652c-7.264,3.338-14.076,7.43-20.383,12.217h24.981c0.279-0.131,0.55-0.276,0.831-0.405
			l1.387-0.633c9.709-4.419,27.781-12.645,22.878-30.447c-2.048-7.432-8.438-10.27-12.666-12.147
			c-0.444-0.197-0.887-0.395-1.323-0.595l-6.132-2.818c0.008-0.096,0.017-0.189,0.023-0.277c0.082-0.932,0.185-2.09,0.193-3.449
			c0.012-1.842,0.068-3.693,0.128-5.654c0.136-4.438,0.275-9.028-0.126-13.639c-0.498-5.721-3.598-12.54-15.537-12.54
			c-0.959,0-1.934,0.033-2.897,0.067l-0.785,0.026c-5.355,0.197-10.855-2.935-13.964-7.815c-0.312-0.49-0.581-1.357-0.866-2.275
			c-0.84-2.707-2.808-9.045-10.591-9.558c-0.442-0.029-0.883-0.044-1.32-0.044c-6.755,0-13.658,3.544-18.939,9.724
			c-3.791,4.435-6.77,9.317-9.649,14.039c-2.299,3.769-4.471,7.328-6.965,10.558c-4.184,5.415-9,10.1-14.099,15.059
			c-2.807,2.729-5.708,5.552-8.517,8.524c-11.559,12.231-10.464,24.851-4.251,31.93c6.156,7.016,14.729,7.826,20.641,7.826
			c2.606,0,5.109-0.171,7.529-0.337c1.216-0.083,2.403-0.165,3.544-0.218l0.882-0.044c0.926-0.048,1.884-0.097,2.843-0.097
			c2.091,0,3.007,0.258,3.316,0.377c0.419,0.716,0.865,2.737,1.141,3.981c0.064,0.289,0.13,0.585,0.197,0.881h13.487
			c-0.384-0.955-0.703-2.385-0.991-3.686c-0.692-3.137-1.556-7.041-4.317-10.07c-4.089-4.483-10.671-4.483-12.833-4.483
			c-1.295,0-2.525,0.063-3.514,0.114l-0.803,0.04c-1.237,0.057-2.524,0.145-3.842,0.234c-2.201,0.151-4.478,0.307-6.64,0.307
			c-5.526,0-8.777-1.017-10.869-3.4c-3.696-4.212,0.953-11.279,3.929-14.428c2.62-2.773,5.422-5.498,8.131-8.133
			c5.199-5.057,10.576-10.286,15.322-16.431c2.933-3.796,5.395-7.832,7.775-11.735c2.734-4.482,5.317-8.717,8.434-12.361
			c1.261-1.476,4.515-4.807,8.42-5.144c0.047,0.147,0.092,0.294,0.134,0.428c0.451,1.455,1.07,3.447,2.315,5.404
			c5.593,8.784,15.351,14.129,25.348,13.827l0.826-0.028c0.812-0.029,1.632-0.06,2.438-0.06c1.413,0,2.155,0.109,2.522,0.197
			c0.023,0.117,0.046,0.272,0.063,0.471c0.335,3.85,0.213,7.864,0.083,12.115c-0.06,1.95-0.121,3.968-0.134,5.965
			c-0.006,0.83-0.072,1.591-0.143,2.396c-0.289,3.286-0.827,9.402,7.127,13.058l6.502,2.988c0.486,0.224,0.98,0.442,1.476,0.663
			c3.396,1.508,5.036,2.366,5.409,3.72C439.398,544.749,433.744,548.561,422.011,553.901z"/>
		<path d="M441.085,411.195c7.127,4.035,15.352,5.326,22.501,6.22c4.294,0.537,8.67,0.784,12.981,0.768
			c0.195,0.731,0.443,1.586,0.778,2.539c7.538,21.434,19.095,33.098,34.351,34.668c0.757,0.078,1.51,0.117,2.239,0.117h0.001
			c6.801,0,11.098-3.312,14.888-6.234c0.574-0.442,1.164-0.897,1.781-1.354c5.01-3.713,10.607-6.44,16.638-8.107
			c2.504-0.692,4.986-1.204,7.387-1.7c4.28-0.883,8.99-1.858,13.115-4.085v-58.4c-0.287-0.039-0.577-0.063-0.871-0.063
			c-0.017,0-0.034,0-0.051,0l-26.768,0.213c-1.218,0.01-2.528,0.092-3.915,0.178c-1.588,0.1-3.229,0.202-4.821,0.202
			c-4.883,0-5.725-1.031-5.759-1.076c-0.663-0.869-1.082-2.069-1.567-3.459c-1.203-3.446-3.217-9.215-11.056-11.314
			c-2.282-0.611-4.713-0.908-7.431-0.908c-3.625,0-7.229,0.544-10.407,1.023c-1.171,0.177-2.325,0.353-3.453,0.494
			c-2.161,0.272-4.354,0.519-6.563,0.767c-12.06,1.353-24.528,2.751-35.833,8.521c-8.931,4.559-18.087,14.53-18.31,24.77
			C430.856,398.837,432.063,406.084,441.085,411.195z M443.937,395.253c0.091-4.171,5.335-10.467,11.223-13.473
			c9.195-4.693,20.47-5.958,31.372-7.181c2.27-0.255,4.521-0.508,6.741-0.787c1.23-0.155,2.49-0.345,3.768-0.538
			c2.859-0.432,5.816-0.878,8.466-0.878c1.567,0,2.897,0.152,4.066,0.465c1.174,0.314,1.196,0.32,2.146,3.043
			c0.707,2.023,1.586,4.542,3.503,7.056c4.232,5.553,11.214,6.194,16.097,6.194c1.997,0,3.928-0.121,5.632-0.227
			c1.205-0.076,2.343-0.146,3.207-0.153l23.064-0.184c3.168,6.462,3.095,14.859,2.658,24.249
			c-0.453,9.769-3.565,10.41-13.878,12.538c-2.487,0.514-5.306,1.095-8.224,1.902c-7.577,2.094-14.613,5.523-20.914,10.192
			c-0.686,0.508-1.341,1.012-1.978,1.504c-3.576,2.756-5.039,3.765-7.861,3.48c-9.814-1.01-17.693-9.774-23.417-26.049
			c-0.322-0.916-0.521-1.716-0.713-2.489c-1.305-5.248-3.78-8.743-11.619-8.743l-0.402,0.002c-3.878,0.057-7.812-0.18-11.677-0.664
			c-5.914-0.738-12.648-1.767-17.707-4.632C443.882,397.838,443.921,396.027,443.937,395.253z"/>
		<path d="M351.654,440.356c3.069,0.975,6.384,1.429,10.43,1.429c1.973,0,3.899-0.104,5.764-0.203
			c1.77-0.095,3.441-0.185,5.064-0.185c2.614,0,4.638,0.249,6.366,0.783c2.195,0.678,3.288,2.402,5.436,6.47
			c2.384,4.515,5.647,10.697,13.486,12.947c2.163,0.621,4.271,0.936,6.264,0.936h0.002c5.616-0.001,10.469-2.502,13.663-7.043
			c5.144-7.312,4.852-17.809,2.282-24.967c-3.381-9.421-2.577-17.267-1.559-27.199c0.207-2.021,0.42-4.101,0.605-6.264
			c0.057-0.656,0.121-1.343,0.188-2.055c0.905-9.645,2.421-25.787-10.42-32.352c-3.171-1.62-5.623-4.742-8.22-8.046
			c-3.263-4.152-6.961-8.859-12.834-11.5c-2.956-1.33-6.051-2.032-8.951-2.032c-5.762,0-10.683,2.745-13.499,7.531
			c-0.803,1.362-1.539,2.866-2.252,4.319c-0.994,2.029-2.816,5.749-3.983,6.538c-12.123-0.506-24.441,3.848-33.435,11.788
			c-1.38,1.219-2.179,2.966-2.197,4.808l-0.247,24.701c-0.073,7.399,3.487,10.558,6.087,12.864c0.776,0.688,1.51,1.339,2.202,2.14
			c1.694,1.957,2.919,4.75,4.217,7.706C338.829,429.658,342.207,437.356,351.654,440.356z M336.608,400.89l0.216-21.646
			c6.29-4.66,14.325-7.147,22.255-6.785c0.194,0.009,0.388,0.014,0.579,0.014h0.001c8.71,0,12.788-8.32,15.485-13.825
			c0.633-1.291,1.23-2.511,1.781-3.446c0.32-0.545,0.789-1.125,2.296-1.125c1.06,0,2.345,0.315,3.618,0.889
			c2.959,1.33,5.27,4.271,7.945,7.675c3.193,4.064,6.812,8.671,12.524,11.59c4.608,2.356,4.235,10.598,3.394,19.562
			c-0.07,0.746-0.138,1.467-0.196,2.154c-0.181,2.09-0.387,4.1-0.587,6.054c-1.092,10.653-2.123,20.716,2.255,32.916
			c1.59,4.429,1.286,10.304-0.679,13.096c-0.761,1.081-1.639,1.522-3.031,1.522c-0.78,0-1.681-0.146-2.679-0.432
			c-2.287-0.656-3.4-2.399-5.575-6.521c-2.337-4.426-5.536-10.486-13.096-12.821c-3.008-0.93-6.25-1.362-10.203-1.362
			c-1.971,0-3.897,0.104-5.76,0.203c-1.771,0.095-3.443,0.185-5.068,0.185c-2.709,0-4.712-0.253-6.495-0.819
			c-3.663-1.163-5.188-4.29-7.57-9.718c-1.553-3.538-3.312-7.548-6.29-10.988c-1.254-1.45-2.447-2.509-3.406-3.359
			C336.594,402.367,336.594,402.367,336.608,400.89z"/>
		<path d="M230.28,270.336c13.316-1.619,25.841-7.369,35.268-16.191c0.628-0.588,1.219-1.161,1.787-1.713
			c3.28-3.185,4.252-4.018,7.002-4.018l25.957,0.297c0.024,0,0.05,0,0.074,0c2.375,0,4.563-1.296,5.704-3.383
			c2.401-4.395,5.588-12.568,6.666-21.143c1.792-14.257-3.375-20.862-8.025-23.893c-7.911-5.156-20.118-8.488-31.098-8.488
			c-3.623,0-6.958,0.369-9.912,1.097c-10.464,2.578-16.479,10.046-21.784,16.634c-2.196,2.728-4.271,5.304-6.562,7.469
			c-4.356,4.116-8.153,4.921-13.238,4.921c-1.482,0.001-3.032-0.07-4.672-0.145c-1.814-0.083-3.69-0.169-5.677-0.169
			c-2.806,0-5.327,0.181-7.711,0.551c-7.021,1.091-12.826,7.08-15.527,16.019c-2.864,9.481-1.2,18.824,4.24,23.802
			c8.021,7.339,20.072,8.879,28.769,8.879C224.474,270.862,227.415,270.685,230.28,270.336z M200.975,241.941
			c1.266-4.187,3.562-6.696,5.079-6.933c1.739-0.271,3.556-0.396,5.715-0.396c1.69,0,3.416,0.079,5.085,0.155
			c1.713,0.078,3.484,0.159,5.264,0.158c6.527,0,14.265-1.007,22.166-8.472c2.934-2.771,5.387-5.817,7.76-8.764
			c4.597-5.708,8.566-10.638,14.77-12.165c1.938-0.478,4.226-0.72,6.802-0.72c8.368,0,18.236,2.623,24,6.379
			c4.402,2.87,2.452,15.554-1.311,24.48l-21.685-0.249l-0.283-0.001c-8.137,0-12.345,4.086-16.058,7.69
			c-0.514,0.499-1.048,1.018-1.615,1.549c-7.427,6.951-17.354,11.489-27.954,12.778c-2.346,0.285-4.758,0.43-7.17,0.43
			c-8.906,0-16.193-1.994-19.993-5.471C200.136,251.101,199.57,246.594,200.975,241.941z"/>
		<path d="M303.753,87.638c0.169-2.978-1.711-5.688-4.559-6.574c-5.225-1.625-10.66-2.577-16.155-2.83
			c-1.078-0.05-2-0.069-2.795-0.085c-0.129-0.003-0.263-0.006-0.398-0.009c-0.272-0.636-0.559-1.347-0.725-1.759
			c-1.962-4.873-7.933-19.704-22.291-22.756c-1.852-0.395-3.645-0.594-5.328-0.594c-12.704,0-17.651,11.2-19.514,15.417
			c-0.619,1.403-1.524,1.779-7.14,1.949c-3.511,0.106-7.489,0.228-11.252,1.943c-9.195,4.196-13.146,14.943-10.839,29.484
			c2.072,13.059,9.409,21.988,21.218,25.824l1.334,0.432c8.771,2.826,11.888,4.112,13.519,10.182
			c3.319,12.351,13.085,20.972,24.878,21.963c0.94,0.079,1.936,0.115,3.131,0.115c0.815,0,1.644-0.018,2.477-0.035
			c0.745-0.017,1.494-0.034,2.24-0.034c3.997,0,5.246,0.596,6.053,1.625c1.108,1.414,1.922,3.296,2.782,5.288
			c1.874,4.339,4.206,9.739,10.656,13.006c4.453,2.257,9.858,3.354,16.522,3.354c1.611,0,3.288-0.062,5.128-0.19
			c17.028-1.188,17.596-15.414,17.839-21.49c0.912-22.872-7.918-37.303-24.226-39.591c-3.387-0.476-4.079-1.039-4.11-1.055
			c-0.003-0.006-0.311-0.598-0.205-2.47L303.753,87.638z M304.502,135.146c12.189,1.711,13.403,17.149,13.042,26.199
			c-0.346,8.663-1.929,8.773-5.753,9.04c-1.536,0.107-2.917,0.159-4.224,0.159c-4.512,0-8.094-0.656-10.647-1.95
			c-2.155-1.091-3.059-3.001-4.597-6.563c-1.097-2.54-2.341-5.419-4.487-8.156c-5.177-6.603-12.959-6.603-16.282-6.603
			c-0.841,0-1.686,0.019-2.525,0.037c-0.736,0.016-1.469,0.032-2.191,0.032c-0.824,0-1.474-0.022-2.043-0.07
			c-7.606-0.639-11.915-6.815-13.411-12.383c-3.55-13.207-12.974-16.244-22.087-19.181l-1.304-0.421
			c-7.245-2.354-11.067-7.134-12.395-15.498c-0.961-6.053-0.647-13.775,3.396-15.62c1.378-0.629,3.854-0.704,6.249-0.776
			c5.796-0.176,14.553-0.441,18.639-9.691c3.132-7.092,5.305-7.669,7.621-7.669c0.776,0,1.66,0.104,2.625,0.31
			c5.177,1.1,9.287,5.833,12.935,14.896c3.376,8.385,6.054,9.77,12.919,9.909c0.699,0.015,1.51,0.03,2.46,0.074
			c2.706,0.125,5.394,0.461,8.032,1.005l-1.458,25.789c-0.315,5.566,1.183,9.881,4.453,12.822
			C296.673,133.719,300.844,134.633,304.502,135.146z"/>
		<path d="M111.522,330.954c-1.21,12.685-3.925,25.193-8.07,37.177c-0.696,2.013-0.362,4.239,0.894,5.959
			c3.607,4.939,8.562,7.55,14.326,7.551c0,0,0.002,0,0.003,0c7.734,0,15.453-4.709,22.264-8.863
			c3.749-2.287,7.998-4.879,10.312-5.293l0.588-0.105c8.51-1.518,17.309-3.087,21.785-15.394c1.45-3.987,2.023-7.94,2.577-11.764
			c0.614-4.234,1.193-8.234,2.94-11.421c0.936-1.707,6.854-4.3,10.39-5.848c7.816-3.424,16.675-7.304,18.406-15.499
			c1.056-4.999-0.911-10.266-5.848-15.654c-5.532-6.039-12.851-7.877-19.308-9.499c-2.554-0.642-4.967-1.248-7.087-2.062
			c-6.943-2.665-13.386-8.239-19.696-17.039c-0.868-1.211-1.737-2.685-2.658-4.245c-3.618-6.136-8.574-14.539-19.25-14.605
			l-0.93-0.003c-7.774,0-15.604,0.597-23.177,1.173c-3.646,0.278-7.417,0.565-11.072,0.775c-2.015,0.116-3.862,1.161-4.999,2.829
			c-5.616,8.244-7.331,19.345-4.586,29.694c2.757,10.394,8.84,15.237,14.723,19.922c1.976,1.573,4.019,3.2,5.95,5.066
			c4.142,4.005,2.764,16.076,1.94,23.288C111.783,328.476,111.635,329.773,111.522,330.954z M112.147,288.571
			c-5.179-4.124-8.601-6.849-10.254-13.085c-1.507-5.678-1.017-11.613,1.271-16.432c2.623-0.177,5.245-0.376,7.808-0.571
			c7.33-0.559,14.91-1.136,22.189-1.136l0.849,0.003c2.979,0.019,4.851,2.643,8.134,8.209c1.024,1.738,2.084,3.535,3.291,5.218
			c7.838,10.93,16.212,17.995,25.603,21.6c2.852,1.095,5.763,1.826,8.579,2.533c5.36,1.347,9.991,2.51,12.888,5.672
			c2.63,2.871,2.709,4.167,2.719,4.167h0.001c-0.634,1.797-7.573,4.836-10.908,6.297c-6.642,2.909-13.511,5.917-16.574,11.508
			c-2.875,5.246-3.688,10.855-4.405,15.805c-0.481,3.318-0.936,6.453-1.929,9.185c-1.846,5.074-3.813,5.605-11.851,7.039
			l-0.595,0.106c-4.715,0.844-9.61,3.83-14.794,6.992c-5.349,3.263-11.411,6.961-15.493,6.961c-0.001,0-0.001,0-0.001,0
			c-0.555,0-1.08-0.065-1.602-0.277c3.734-11.726,6.218-23.874,7.392-36.174c0.105-1.108,0.245-2.325,0.393-3.62
			c1.236-10.825,2.929-25.65-5.821-34.109C116.654,292.16,114.26,290.253,112.147,288.571z"/>
		<path d="M143.191,555.402c-1.884-0.354-3.835,0.141-5.322,1.358c-1.486,1.216-2.358,3.028-2.382,4.949l-0.062,5.061h18.507
			c2.507-1.127,4.825-2.752,6.878-4.875c7.625-7.885,10.004-20.462,9.724-28.836c-0.712-21.283-14.769-24.68-27.171-27.678
			c-9.812-2.372-17.738-9.734-20.683-19.215c-0.345-1.11-0.438-3.131-0.528-5.086c-0.215-4.655-0.483-10.45-4.414-14.626
			c-3.047-3.237-7.37-4.878-12.849-4.878c-2.464,0-5.086,0.316-8.252,0.996c-2.109,0.454-3.856,1.924-4.663,3.926l-2.444,6.067
			c-2.301-0.525-4.95-1.483-7.54-2.42c-5.138-1.858-10.449-3.779-15.945-3.779c-5.572,0-10.288,2.014-14.018,5.986
			c-6.055,6.45-5.217,16.665-4.604,24.123c0.141,1.711,0.273,3.327,0.296,4.59l0.432,23.733c-7.73,8.756-8.817,14.414-4.504,21.607
			c2.551,4.255,7.562,6.218,12.866,8.295c2.253,0.882,6.264,2.452,7.627,3.631c-0.225,0.481-0.753,1.378-1.972,2.73
			c-0.349,0.312-1.833,0.746-2.815,1.034c-2.164,0.634-4.858,1.423-7.298,3.336c-0.548,0.43-1.076,0.879-1.593,1.336h23.736
			c2.708-3.945,3.647-7.779,2.785-11.432c-1.714-7.253-9.485-10.296-15.729-12.741c-2.114-0.828-5.615-2.198-6.564-3.054
			c-0.162-0.273-0.399-0.679-0.529-0.951c0.211-0.589,1.151-2.499,5.265-6.858c1.166-1.236,1.802-2.88,1.771-4.579l-0.479-26.323
			c-0.03-1.677-0.18-3.494-0.337-5.418c-0.366-4.458-0.979-11.92,1.126-14.162c1.257-1.338,2.571-1.884,4.539-1.884
			c3.217,0,7.439,1.527,11.523,3.004c4.895,1.771,9.956,3.602,15.006,3.602c0.608,0,1.212-0.027,1.795-0.081
			c2.428-0.222,4.527-1.783,5.438-4.045l2.872-7.129c2.781-0.329,4.942-0.043,5.586,0.64c0.646,0.802,0.812,4.395,0.901,6.324
			c0.128,2.773,0.261,5.642,1.101,8.342c4.294,13.826,15.806,24.553,30.042,27.995c13.658,3.301,16.887,5.124,17.233,15.476
			c0.21,6.283-1.81,14.952-6.076,19.364C149.141,555.26,146.563,556.038,143.191,555.402z"/>
		<path d="M298.504,555.822c-9.669-15.989-17.086-19.605-21.605-19.824c-1.055-0.051-2.136-0.076-3.303-0.076
			c-2.903,0-5.792,0.158-8.586,0.312c-2.752,0.15-5.352,0.293-7.924,0.293c-4.223,0-7.536-0.41-10.427-1.291
			c-3.954-1.204-8.183-5.254-12.271-9.169c-6.034-5.778-12.874-12.328-21.744-12.328c-5.448,0-10.792,2.524-15.882,7.502
			c-5.256,5.141-5.388,9.257-5.05,13.368c0.102,1.23,0.182,2.202-0.02,3.489c-0.229,1.464-2.605,3.465-4.516,5.073l-0.35,0.294
			c-3.339,2.819-7.053,6.29-9.288,10.66c-2.142,4.186-2.502,8.536-1.134,12.646h15.882c-0.924-0.638-1.938-1.536-2.786-2.693
			c-1.119-1.527-2.652-3.618,5.711-10.679l0.337-0.284c3.379-2.845,8.007-6.741,8.986-13.011c0.44-2.816,0.263-4.98,0.133-6.562
			c-0.046-0.551-0.107-1.307-0.081-1.485c0.002-0.005,0.188-0.471,1.264-1.523c2.575-2.519,4.86-3.796,6.792-3.796
			c3.649,0,8.277,4.432,12.753,8.717c4.948,4.738,10.556,10.108,17.474,12.216c4.155,1.266,8.672,1.855,14.216,1.855
			c2.928,0,5.829-0.159,8.635-0.312c2.74-0.15,5.327-0.292,7.875-0.292c0.845,0,1.625,0.016,2.378,0.047
			c1.311,0.579,5.255,3.979,10.168,11.597c1.449,2.247,2.648,4.34,3.618,6.206h14.332
			C302.942,563.834,301.176,560.239,298.504,555.822z"/>
		<path d="M541.506,517.925c1.272-15.679-1.746-31.668-8.742-45.779c-0.896-1.807-2.58-3.096-4.559-3.488
			c-2.357-0.468-4.786-0.704-7.219-0.704c-6.024,0-12.002,1.445-17.286,4.181c-2.844,1.472-4.246,1.78-4.922,1.78h-0.004
			c-0.345,0-1.389-0.011-4.531-3.652c-4.764-5.52-11.508-8.686-18.502-8.686c-3.859,0-7.7,1.001-11.106,2.893
			c-8.618,4.787-13.05,15.181-10.776,25.273c1.32,5.866,5.057,9.772,8.058,12.91c2.094,2.188,3.902,4.079,4.563,6.125
			c0.013,0.04,0.022,0.072,0.028,0.099c-0.25,0.54-1.312,1.672-2.026,2.434c-2.463,2.625-6.584,7.019-5.338,13.675
			c1.554,8.298,8.411,11.652,13.418,14.103c2.364,1.156,4.809,2.353,5.83,3.64c3.651,4.599,2.3,11.427-0.659,16.154
			c-1.095,1.747-3.175,3.688-5.378,5.745c-0.734,0.685-1.497,1.4-2.262,2.144h17.993c0.229-0.325,0.453-0.653,0.665-0.991
			c6.574-10.499,6.505-22.721-0.177-31.136c-2.85-3.59-6.807-5.525-10.299-7.234c-4.019-1.966-5.978-3.088-6.342-4.766
			c0.248-0.54,1.312-1.675,2.029-2.439c2.566-2.735,7.344-7.827,4.887-15.426c-1.577-4.88-4.744-8.19-7.538-11.111
			c-2.63-2.75-4.268-4.549-4.771-6.78c-0.981-4.36,0.913-9.112,4.407-11.053c1.502-0.835,3.115-1.258,4.794-1.258
			c3.212,0,6.368,1.523,8.66,4.18c3.481,4.034,7.913,8.159,14.378,8.158c3.213,0,6.573-0.998,10.896-3.235
			c3.903-2.02,8.433-2.957,12.881-2.676c5.847,13.334,7.663,28.37,5.108,42.715c-0.402,2.259,0.416,4.562,2.153,6.061
			c1.736,1.499,4.135,1.972,6.311,1.242c0.816-0.273,1.544-0.411,2.163-0.411c0.548,0,1.568,0,2.687,1.712
			c2.393,3.664,2.478,10.538,0.955,14.007c-4.022,9.16-8.37,11.135-19.394,12.415c-5.681,0.66-11.367,3.982-17.258,8.027H541.3
			c5.112-2.978,9.214-7.65,12.535-15.215c3.491-7.949,2.643-19.273-1.973-26.341C549.296,521.285,545.691,518.77,541.506,517.925z"
			/>
		<path d="M495.496,328.105c-1.237,5.307-0.507,13.618,4.022,19.324c3.367,4.243,8.347,6.226,13.671,5.423
			c8.442-1.279,10.511-7.7,11.492-10.908c1.741,0.678,3.447,2.336,5.828,4.745c2.793,2.825,5.959,6.027,10.454,7.815
			c3.265,1.3,6.753,1.958,10.368,1.958c5.228,0,10.29-1.385,14.641-4.004c0.633-0.381,1.216-0.777,1.772-1.178v-17.368
			c-1.716,1.228-3.082,2.603-4.269,3.806c-1.396,1.414-2.601,2.635-4.21,3.604c-2.292,1.381-5.11,2.141-7.934,2.141
			c-1.934,0-3.857-0.358-5.562-1.036c-1.969-0.784-3.935-2.772-6.017-4.878c-3.522-3.562-7.906-7.997-14.728-8.819
			c-0.613-0.074-1.216-0.111-1.791-0.111c-8.078,0-10.163,6.83-10.948,9.4c-0.188,0.616-0.462,1.514-0.669,1.901
			c-0.079,0.023-0.201,0.053-0.375,0.079c-0.148,0.022-0.285,0.034-0.408,0.034c-0.288-0.029-0.59,0-1.134-0.686
			c-1.539-1.938-2.085-5.976-1.545-8.29c1.005-4.308,5.008-10.29,8.88-16.076c6.222-9.296,13.104-19.58,12.848-29.831
			c2.989-0.448,5.987-0.76,8.867-0.76c5.595,0,9.914,1.193,13.204,3.647c1.021,0.761,2.068,1.604,3.081,2.419
			c3.674,2.957,7.763,6.235,12.708,7.218v-13.918c-1.437-0.917-3.053-2.217-4.558-3.428c-1.104-0.889-2.247-1.809-3.46-2.713
			c-5.617-4.188-12.479-6.226-20.976-6.226c-6.108,0-12.128,1.045-17.771,2.115c-1.942,0.368-3.61,1.6-4.535,3.347
			c-0.924,1.747-1.003,3.819-0.214,5.632c2.722,6.258-4.036,16.357-9.999,25.268C501.505,314.816,497.039,321.489,495.496,328.105z"
			/>
		<path d="M567.744,508.61c-3.425-1.591-6.338-3.617-8.514-5.997c-1.056-1.155-2.28-3.03-3.122-4.649
			c0.324,0.014,0.644,0.021,0.957,0.021h0.002c5.3-0.001,8.659-1.971,10.677-3.899v-48.374c-1.99,0.617-3.695,1.494-5,2.798
			c-4.137,4.13-3.291,10.96-2.221,19.607c0.742,6.004,1.865,15.077-0.466,17.715c-0.192,0.218-0.777,0.879-2.991,0.879
			c-0.503,0-1.057-0.035-1.646-0.106c-0.725-0.087-1.424-0.131-2.079-0.131c-5.893,0-8.1,3.562-8.774,5.095
			c-3.443,7.812,6.244,18.543,6.343,18.651c4.233,4.629,10.019,8.211,16.834,10.531V508.61z"/>
		<path d="M8.439,413.17c11.747-0.041,15.791-9.244,18.467-15.334c1.616-3.681,3.013-6.858,5.294-8.059
			c1.897-0.997,4.879-1.481,9.117-1.481c3.063,0,6.377,0.241,9.885,0.496c3.672,0.267,7.469,0.543,11.17,0.543
			c5.343,0,21.602,0,26.805-15.563c4.53-13.554-5.334-23.821-12.537-31.317c-1.528-1.592-2.973-3.095-4.146-4.477
			c-3.836-4.522-4.546-9.503-5.446-15.809c-0.624-4.379-1.333-9.342-3.325-14.364c-2.727-6.871-7.31-8.313-10.673-8.313
			c-1.799,0-3.433,0.409-4.873,0.771c-1.376,0.345-2.62,0.67-3.862,0.58c-3.351-0.24-6.535-1.518-8.967-3.596
			c-1.647-1.409-3.089-3.077-4.613-4.844c-3.665-4.243-8.225-9.523-15.985-9.523c-3.278,0-6.717,0.961-10.512,2.938
			c-1.221,0.636-2.354,1.35-3.422,2.117v19.028c2.841-4.016,5.669-7.658,9.428-9.615c2.328-1.213,3.735-1.467,4.506-1.467
			c1.639,0,3.132,1.529,6.146,5.021c1.692,1.959,3.609,4.179,6.006,6.228c4.528,3.871,10.383,6.244,16.485,6.682
			c3.228,0.229,6.019-0.453,7.949-0.937c0.118-0.029,0.245-0.062,0.374-0.094c1.372,3.537,1.905,7.274,2.47,11.228
			c1.003,7.03,2.14,14.998,8.401,22.381c1.434,1.689,3.013,3.333,4.686,5.074c7.019,7.305,11.478,12.518,9.581,18.189
			c-1.379,4.127-4.282,6.685-14.475,6.685c-3.229,0-6.786-0.259-10.227-0.509c-3.585-0.261-7.293-0.53-10.828-0.53
			c-6.486,0-11.306,0.945-15.166,2.976c-6.306,3.314-8.99,9.425-11.147,14.335c-2.822,6.423-3.811,7.554-6.609,7.563l-0.057,6.5
			v-6.5c-2.43,0-4.94-0.541-7.522-1.401v13.5c2.44,0.563,4.94,0.901,7.522,0.901C8.345,413.17,8.431,413.17,8.439,413.17z"/>
		<path d="M32.194,251.477c1.528-1.641,2.709-3.514,3.528-5.578c1.539-0.397,2.891-1.148,3.938-2.152l19.214,0.271
			c0.354,0.005,0.704,0.008,1.047,0.008c5.161,0,18.869,0,19.244-17.444c0.018-0.781,0.105-1.793,0.198-2.865
			c0.471-5.443,1.452-16.771-8.935-20.146c-8.925-2.9-18.916-3.458-27.731-3.951l-0.403-0.022c-1.41-0.078-2.873-0.117-4.474-0.117
			c-2.923,0-5.831,0.131-8.644,0.257c-2.785,0.125-5.416,0.243-8.035,0.243c-1.979,0-3.724-0.069-5.334-0.212
			c-3.052-0.271-4.001-1.577-6.347-8.741l-0.423-1.285c-1.883-5.659-4.86-9.463-8.224-12.031v26.238
			c2.576,4.347,6.641,8.131,13.847,8.768c1.995,0.177,4.115,0.263,6.48,0.263c2.91,0,5.812-0.13,8.618-0.256
			c2.792-0.125,5.429-0.244,8.061-0.244c1.356,0,2.582,0.032,3.748,0.098l0.404,0.022c8.013,0.447,17.092,0.954,24.404,3.323
			c0.509,1.197,0.19,4.867,0.034,6.671c-0.106,1.231-0.217,2.505-0.242,3.707c-0.062,2.848-0.585,3.869-0.764,4.002
			c-0.227,0.17-1.292,0.723-5.484,0.723c-0.283,0-0.571-0.002-0.864-0.006l-28.403-0.401c-0.005,0-0.009,0-0.014,0
			c-0.309-0.011-0.609,0.013-0.908,0.051c-1.161,0.146-2.263,0.605-3.186,1.326c-0.002,0.001-0.004,0.003-0.006,0.005
			c0,0-0.003,0.002-0.006,0.004c-0.251,0.197-0.488,0.414-0.711,0.649c-0.383,0.405-0.709,0.854-0.973,1.335l-0.001,0.001
			c-0.003,0.006-0.006,0.012-0.009,0.018c-0.001,0.001-0.002,0.002-0.002,0.003c-0.001,0.002-0.002,0.004-0.003,0.006
			c-0.414,0.763-0.673,1.604-0.758,2.471c0,0.001,0,0.002,0,0.002c0,0.003,0,0.005,0,0.007c-0.001,0.001-0.001,0.003-0.001,0.004
			c0,0.002,0,0.003,0,0.005c-0.001,0.002-0.001,0.004-0.001,0.006c0,0.001,0,0.001,0,0.002c-0.033,0.352-0.037,0.708-0.012,1.065
			c0,0.005,0,0.01,0.001,0.015c0.206,2.949-0.691,4.279-1.385,5.023c-2.084,2.237-6.772,3.521-12.862,3.521
			c-3.243,0-6.357-0.364-9.004-0.864v13.177c2.976,0.439,6.046,0.687,9.004,0.687C19.789,259.136,27.526,256.488,32.194,251.477z"/>
		<path d="M0.815,75.711c1.998-0.184,3.877-0.488,5.643-0.951c4.672-1.228,7.918-3.783,10.782-6.037
			c1.859-1.464,3.466-2.729,5.177-3.401c1.344-0.527,4.376-1.145,8.498-1.145c7.798,0,12.923,2.184,13.624,3.76
			c0.521,1.172,0.306,2.807-0.089,5.378c-0.621,4.042-1.472,9.578,2.253,15.18c3.394,5.104,8.352,8.345,12.726,11.203
			c0.674,0.439,1.341,0.876,1.993,1.313c1.401,0.94,2.959,1.829,4.465,2.688c2.703,1.543,7.736,4.414,7.799,6.171
			c0.149,4.19-0.259,8.455-1.19,12.565c-2.062-0.245-4.237-0.421-6.427-0.421c-5.578,0-10.295,1.135-14.421,3.47
			c-9.227,5.221-10.136,13.58-10.866,20.298c-0.063,0.583-0.128,1.175-0.198,1.772c-0.639,5.453-4.187,6.598-7.051,6.598
			c-3.425,0-6.962-1.709-9.229-4.461c-3.726-4.519-5.252-10.886-6.254-16.518c-0.56-3.145-3.295-5.362-6.392-5.362
			c-0.34,0-0.684,0.026-1.029,0.082c-3.193,0.506-6.533,0.479-9.812-0.02v13.124c1.879,0.206,3.766,0.308,5.645,0.275
			c1.401,5.696,3.63,11.615,7.812,16.689c4.744,5.755,11.944,9.191,19.261,9.191c10.673,0,18.695-7.268,19.963-18.085
			c0.074-0.634,0.143-1.261,0.21-1.88c0.683-6.279,1.085-8.544,4.345-10.389c2.15-1.217,4.698-1.784,8.019-1.784
			c3.323,0,6.906,0.58,10.067,1.092c3.118,0.498,6.144-1.303,7.178-4.284c2.506-7.211,3.638-14.753,3.364-22.416
			c-0.322-8.995-8.429-13.621-14.349-16.998c-1.364-0.778-2.652-1.514-3.663-2.192c-0.696-0.467-1.407-0.932-2.125-1.401
			c-3.649-2.385-7.097-4.638-9.013-7.519c-0.855-1.286-0.742-2.669-0.229-6.007c0.542-3.528,1.217-7.92-0.883-12.639
			c-4.61-10.355-19.369-11.474-25.501-11.474c-5.115,0-9.946,0.746-13.254,2.046c-3.492,1.373-6.133,3.451-8.462,5.284
			c-2.139,1.685-3.986,3.139-6.044,3.679c-0.729,0.192-1.517,0.333-2.34,0.449V75.711z"/>
		<path d="M81.309,11.803c1.189,3.55,2.871,6.479,4.498,9.312c0.851,1.482,1.655,2.884,2.345,4.303
			c1.356,2.793,0.99,5.889,0.28,10.709c-0.093,0.631-0.186,1.264-0.273,1.898c-1.548,11.23,2.379,17.844,5.842,23.679
			c1.599,2.692,3.108,5.236,4.332,8.427c3.721,9.703,1.55,21.735-0.195,31.404c-0.338,1.871,0.161,3.797,1.365,5.27
			s2.993,2.343,4.895,2.384c7.427,0.156,14.732,3.63,19.541,9.291c6.255,7.362,12.652,12.266,23.548,12.266
			c2.327,0,4.895-0.22,7.848-0.672c1.912-0.293,3.595-1.422,4.59-3.082c0.995-1.659,1.199-3.675,0.558-5.5
			c-1.796-5.104-1.276-11.159,1.425-16.612c2.702-5.451,7.204-9.532,12.354-11.194c12.723-4.109,18.562-8.805,17.331-24.371
			c-0.798-10.104-2.036-20.264-3.688-30.292c4.438-1.302,8.124-4.018,10.845-8.038c5.658-8.363,5.922-20.832,4.463-31.142h-13.089
			c1.45,8.634,1.342,18.709-2.14,23.856c-1.629,2.405-3.901,3.362-7.312,3.189c-1.976-0.115-3.916,0.703-5.232,2.199
			c-1.314,1.496-1.871,3.513-1.509,5.472c2.176,11.784,3.759,23.822,4.704,35.778c0.311,3.938,0.072,6.432-0.71,7.414
			c-1.03,1.293-4.449,2.526-7.657,3.562c-8.465,2.733-15.757,9.219-20.006,17.794c-2.938,5.93-4.201,12.411-3.724,18.621
			c-4.318-0.161-7.512-1.571-12.688-7.665c-5.563-6.55-13.363-11.138-21.753-12.98c1.506-9.634,2.404-21.107-1.622-31.606
			c-1.619-4.223-3.57-7.509-5.292-10.408c-3.161-5.325-5.069-8.54-4.142-15.268c0.082-0.595,0.169-1.188,0.256-1.78
			c0.811-5.503,1.729-11.74-1.448-18.282c-0.886-1.823-1.841-3.487-2.765-5.097c-1.371-2.387-2.666-4.642-3.445-6.97
			c-0.851-2.536-1.38-5.172-1.611-7.83H79.002C79.253,3.904,80.014,7.941,81.309,11.803z"/>
		<path d="M301.103,3.167c-1.52,2.67-1.568,2.675-2.826,2.792c-1.37,0.126-3.331-0.021-5.369-0.2
			c-1.729-0.151-3.517-0.308-5.39-0.308c-2.909,0-7.253,0.325-11.376,3.131c-1.298,0.883-2.232,2.205-2.631,3.724
			c-1.834,6.984-0.848,14.663,2.704,21.064c3.278,5.91,9.964,5.988,14.846,6.045c1.846,0.021,4.144,0.049,5.127,0.42
			c4.707,1.781,6.563,5.006,9.438,10.552c2.281,4.398,4.866,9.384,9.92,13.357c0.518,0.407,1.095,0.733,1.711,0.968
			c2.307,0.875,4.76,1.319,7.291,1.319c9.348,0,18.198-5.97,21.521-14.516c2.571-6.61,1.215-12.838,0.018-18.332
			c-0.938-4.312-1.75-8.035-0.477-11.004c0.32-0.748,0.829-1.656,1.368-2.618c2.025-3.615,5.416-9.667,1.582-15.763
			c-0.336-0.534-0.748-1.018-1.223-1.433c-0.793-0.694-1.845-1.569-3.099-2.525h-41.062C302.339,1.029,301.667,2.178,301.103,3.167z
			 M314.44,6.506c1.838-2.035,3.932-2.983,6.592-2.983c5.12,0,11.292,3.46,15.95,7.136c-0.353,0.779-0.921,1.794-1.345,2.549
			c-0.68,1.215-1.384,2.471-1.975,3.851c-2.913,6.792-1.513,13.221-0.277,18.893c0.923,4.236,1.72,7.894,0.569,10.854
			c-1.358,3.491-5.489,6.227-9.406,6.227c-0.616,0-1.212-0.067-1.78-0.2c-2.36-2.181-3.874-5.1-5.601-8.429
			c-3.025-5.836-6.791-13.099-16.38-16.727c-3.134-1.185-6.556-1.225-9.575-1.26c-1.264-0.015-3.055-0.036-4.064-0.199
			c-1.123-2.369-1.646-5.053-1.515-7.648c1.544-0.224,3.794-0.063,6.143,0.141c1.693,0.148,3.445,0.302,5.251,0.302
			c0.872,0,1.676-0.035,2.454-0.108c8.05-0.747,10.98-5.896,12.92-9.305C313.091,8.388,313.685,7.343,314.44,6.506z"/>
		<path d="M497.991,13.908c1.773-1.548,4.869-1.877,8.454-2.257c3.952-0.42,8.431-0.895,12.672-3.198
			c4.105-2.23,7.534-5.168,10.445-8.611h-31.601c-2.923,0.735-5.884,1.972-8.522,4.275c-5.395,4.712-19.868,27.314-19.928,37.89
			c-0.01,1.715,0.659,3.364,1.859,4.589c5.239,5.341,11.933,6.824,17.838,8.134c2.949,0.653,5.734,1.271,7.977,2.291
			c2.767,1.258,3.205,2.395,3.353,8.683c0.119,5.064,0.267,11.367,5.115,16.721c4.017,4.436,9.576,6.878,15.653,6.878
			c6.964,0,13.912-3.208,18.586-8.581c9.431-10.842,9.016-24.939,7.412-36.255l18.384-1.578c1.026,4.822,1.805,9.431,2.056,13.793
			V29.662l-28.536,2.45c-1.815,0.156-3.481,1.066-4.594,2.51c-1.111,1.443-1.566,3.287-1.254,5.082
			c2.279,13.092,3.605,24.572-3.277,32.484c-2.207,2.537-5.57,4.113-8.777,4.113c-2.428,0-4.453-0.876-6.018-2.604
			c-1.524-1.683-1.659-4.249-1.755-8.298c-0.143-6.128-0.36-15.389-10.966-20.213c-3.482-1.584-7.073-2.38-10.546-3.149
			c-3.408-0.755-6.482-1.437-8.884-2.722c0.837-2.566,2.57-6.605,5.553-11.895C492.774,20.178,496.654,15.076,497.991,13.908z"/>
		<path d="M557.795,80.413c-6.369,4.922-13.588,10.501-13.584,18.399c0.001,2.968,1.115,7.363,6.415,11.451
			c4.923,3.798,10.988,5.91,17.119,5.995v-13c-3.274-0.085-6.52-1.238-9.178-3.288c-0.805-0.621-1.162-1.057-1.309-1.27
			c0.681-1.969,5.923-6.021,8.486-8.001c0.678-0.524,1.344-1.042,2-1.56v-26.83c-0.312,4.604-1.451,8.879-3.831,12.767
			C563.21,76.229,560.08,78.648,557.795,80.413z"/>
		<path d="M554.837,198.475c-1.446,0.466-4.133,0.862-6.977,1.282c-9.018,1.331-20.241,2.988-25.486,10.703
			c-1.725,2.536-3.479,6.83-2.095,12.93c0.114,0.55,0.299,1.074,0.542,1.563c0.433,0.872,1.049,1.618,1.788,2.202
			c0.743,0.589,1.618,1.019,2.572,1.237c0.521,0.121,1.067,0.173,1.61,0.165l13.665-0.041l0.121,25.568
			c0.009,1.891,0.842,3.685,2.279,4.912c1.439,1.228,3.336,1.768,5.21,1.48c1.799-0.276,3.752-0.411,5.969-0.411
			c3.255,0,6.579,0.284,10.099,0.586c1.189,0.102,2.396,0.2,3.61,0.293V247.91c-0.824-0.067-1.656-0.138-2.5-0.21
			c-3.637-0.311-7.397-0.633-11.208-0.633c-0.165,0-0.328,0-0.491,0.002l-0.119-25.103c-0.017-3.578-2.923-6.469-6.5-6.469
			c-0.006,0-0.013,0-0.013,0l-10.433,0.031c3.729-1.501,9.422-2.342,13.278-2.911c3.539-0.522,6.595-0.974,9.064-1.77
			c3.148-1.014,6.136-2.44,8.921-4.182v-17.064C564.325,193.68,559.827,196.867,554.837,198.475z"/>
		<path d="M12.307,539.177c3.165-6.591,7.289-11.353,12.064-16.866c2.323-2.682,4.726-5.455,7.118-8.579
			c7.735-10.094,6.525-21.154,5.458-30.912c-0.437-3.99-0.85-7.76-0.681-11.334c0.426-9.048,5.359-17.807,12.877-22.858
			c1.396-0.938,2.374-2.381,2.729-4.025c1.187-5.511-0.208-11.083-3.929-15.69c-4.646-5.753-12.493-9.47-19.993-9.47
			c-0.517,0-1.028,0.018-1.534,0.054c-9.802,0.694-18.517,6.019-25.602,11.648v17.212c7.043-6.436,16.663-15.194,26.521-15.893
			c3.7-0.237,8.198,1.773,10.494,4.617c0.828,1.024,1.21,1.961,1.367,2.739c-9.337,7.482-15.353,19.095-15.916,31.056
			c-0.216,4.589,0.272,9.048,0.744,13.359c0.918,8.39,1.71,15.636-2.854,21.592c-2.156,2.813-4.429,5.438-6.626,7.975
			c-4.844,5.592-9.843,11.384-13.73,19.31v23.203C4.945,552.224,8.785,546.513,12.307,539.177z"/>
	</g>
</g>
<g id="Ebene_2">
</g>
</svg>
