<svg xmlns="http://www.w3.org/2000/svg" viewBox="0 0 566.93 566.93" enable-background="new 0 0 566.93 566.93"><g><path fill="none" d="M138.128 57.68l80.27-28.596 28.597 80.266-80.27 28.598zM51.262 88.628l80.27-28.598 28.597 80.267-80.27 28.598zM373.763 169.51l80.294-28.606 28.602 80.285-80.295 28.605zM342.813 82.646l80.293-28.605 28.6 80.278-80.293 28.606zM255.938 113.596l80.28-28.6 28.6 80.275-80.28 28.602zM82.21 175.49l80.27-28.598 28.597 80.273-80.27 28.597zM286.888 200.46l80.28-28.6 28.604 80.286-80.28 28.6zM230.974 318.293l80.27-28.597 28.604 80.29-80.27 28.596zM317.838 287.347l80.28-28.6 28.604 80.288-80.28 28.6zM261.927 405.177l80.27-28.597 28.6 80.282-80.268 28.597zM404.713 256.397l80.294-28.606 28.604 80.29-80.293 28.607zM116.78 547.39l-28.596-80.27 80.282-28.6 28.597 80.27zM200.024 231.406l80.27-28.597 28.603 80.287-80.27 28.597zM57.24 380.19l.012.028-.034.012 28.604 80.28 80.282-28.6-.012-.034.014.007.022-.008-28.606-80.29zM408.358 541.38l80.285-28.604-28.607-80.28-.005.01v-.008L379.747 461.1l28.603 80.283zM54.894 373.602l-28.605-80.29 80.28-28.602L135.175 345zM429.702 51.69l80.282-28.6 28.6 80.278-80.282 28.6zM203.648 516.42l80.28-28.602-.006-.017.012.006.01-.003-28.604-80.282-80.27 28.6.01.022-.033.01zM464.28 423.556v-.002l80.286-28.604-28.606-80.282-80.29 28.605 28.603 80.282.006-.002zM224.382 320.633l28.604 80.29-80.27 28.597-28.603-80.29zM169.073 144.543l80.27-28.597 28.6 80.273-80.27 28.596zM429.072 345.618l28.602 80.282-80.28 28.6-28.602-80.28zM113.16 262.352l80.27-28.597 28.605 80.29-80.27 28.596z"/><path fill="#010202" d="M488.643 512.776l-80.285 28.605v.003l2.35 6.59 80.285-28.603zM497.587 517.02l71.075-25.323v-7.43l-73.425 26.16zM466.617 430.126l-2.35-6.594 80.285-28.61 2.35 6.593zM568.662 393.796v-7.43L551.16 392.6l2.35 6.594zM522.554 312.32l46.108-16.427v-7.43l-48.458 17.263zM515.964 314.66l-.003.007 28.606 80.283 2.35 6.594 21.746 61.033v-20.855l-15.153-42.528-2.35-6.593-28.606-80.28-2.35-6.594zM464.28 423.554v.002l-.004.007-4.24 8.934 28.607 80.28 2.35 6.593 17.565 49.292h7.43l-18.4-51.642-2.35-6.593-28.608-80.28-2.35-6.593zM408.357 541.383l-.004.007-2.118 4.463 4.47 2.122h.003zM25.226 0h-5.54l.625 1.75zM13.716 4.1L12.256 0H4.37L0 1.557v7.43zM300.018 0H279.16l-56.516 20.136 2.35 6.594zM129.188 53.435l2.35 6.594-80.27 28.605-2.35-6.594zM0 99.46v7.43l44.67-15.914-2.35-6.594zM216.052 22.485l2.35 6.594-80.27 28.596-2.35-6.594zM166.724 137.948l80.27-28.597 2.35 6.595-80.27 28.597zM0 197.347v7.43l75.617-26.94-2.35-6.594zM420.775 47.443l2.35 6.594-80.293 28.614-2.35-6.593zM568.662 2.174V0h-14.755l-39.68 14.137 2.35 6.594zM333.875 78.394l2.35 6.594-80.282 28.6-2.35-6.593zM507.64 16.484l2.35 6.594-80.283 28.6-2.35-6.593zM79.86 168.895l80.27-28.598 2.35 6.594-80.272 28.6zM17.34 289.06L0 295.236v7.43l19.69-7.014zM106.567 264.704l-80.28 28.6-2.35-6.593 80.28-28.6zM284.538 193.865l80.28-28.6 2.35 6.594-80.28 28.6zM568.662 100.076v-7.43l-23.483 8.365 2.35 6.595zM110.81 255.758l80.27-28.597 2.35 6.595-80.27 28.597zM371.413 162.916l80.295-28.606 2.35 6.594-80.295 28.606zM197.675 224.812l80.27-28.597 2.35 6.594-80.27 28.596zM460.645 138.56l-2.35-6.595 80.283-28.602 2.35 6.594zM57.24 380.188l-2.35-6.594 80.28-28.6 2.35 6.593zM568.662 197.98v-7.432l-79.406 28.29 2.35 6.595zM228.625 311.7l80.27-28.597 2.348 6.594-80.27 28.596zM48.308 375.974l-.01-.03-.03.01zM315.49 280.753l80.28-28.6 2.348 6.593-80.28 28.6zM402.364 249.803l80.294-28.606 2.35 6.594-80.295 28.607zM222.04 314.046l2.348 6.594-80.27 28.597-2.348-6.594zM346.44 367.637l80.28-28.6 2.35 6.593-80.28 28.6zM515.96 314.667l.004-.008-1.174-3.295-1.174-3.294-80.295 28.61 2.35 6.593zM252.994 400.928l2.35 6.594-80.27 28.597-2.348-6.595zM166.136 431.897l-.008-.022-.022.008zM339.86 369.998l2.35 6.594-80.27 28.605-2.35-6.594zM460.03 432.498l-1.173-3.288-1.178-3.306-80.28 28.603 2.348 6.593zM464.28 423.553l-.007.002.003.008.003-.007zM283.945 487.812l-.002-.01-.01.004zM290.528 485.46l80.268-28.596 2.35 6.594-80.27 28.597zM408.358 541.38l-.007.003.003.007.004-.007zM246.996 109.347l2.35 6.594 28.6 80.276 2.35 6.594 28.603 80.287 2.348 6.594 28.605 80.29 2.35 6.594 28.6 80.282 2.35 6.594 28.6 80.276.01.005 4.472 2.123 2.118-4.463-.002-.007L379.75 461.1l-2.35-6.593-28.602-80.283-2.35-6.593-28.604-80.29-2.35-6.593-28.603-80.286-2.35-6.593-28.6-80.276-2.35-6.593-28.597-80.267-2.35-6.594L215.47 0h-7.43l8.01 22.485 2.35 6.594zM160.132 140.295l2.35 6.594 28.6 80.272 2.348 6.594 28.606 80.288 2.35 6.594 28.604 80.29 2.35 6.593 28.603 80.283.002.01 8.92 4.233.024.01-.004-.008-2.35-6.594-28.602-80.282-2.35-6.594-28.605-80.29-2.35-6.593-28.605-80.288-2.35-6.594-28.6-80.274-2.35-6.595-28.597-80.267-2.35-6.594L117.58 0h-7.43l19.037 53.433 2.35 6.595zM42.32 84.382l2.35 6.594 28.598 80.267 2.35 6.594 28.6 80.272 2.35 6.593 28.605 80.29 2.35 6.593 28.605 80.29.008.02 8.9 4.225.043.022-.01-.023-2.348-6.594-28.606-80.29-2.35-6.593-28.606-80.29-2.35-6.594-28.6-80.272-2.35-6.595-28.597-80.266-2.35-6.594L20.312 1.75 19.688 0h-7.43l1.46 4.1zM48.308 375.974l8.898 4.223.046.02-.01-.028-2.35-6.595-28.607-80.29-2.35-6.595L0 219.53v20.857l17.34 48.672 2.35 6.593 28.608 80.29zM364.82 165.266l2.35 6.594 28.603 80.285 2.35 6.594 28.604 80.288 2.35 6.594 28.602 80.282 1.177 3.306 1.172 3.288v.01l.006-.01 4.24-8.935-.003-.008-28.602-80.282-2.35-6.594-28.604-80.29-2.35-6.594-28.602-80.285-2.35-6.593-28.6-80.277-2.35-6.595L313.373 0h-7.43l27.93 78.395 2.348 6.594zM451.71 134.31l2.348 6.595 28.604 80.283 2.35 6.594 28.604 80.29 1.174 3.293 1.174 3.294 4.24-8.934.005-.01-28.605-80.283-2.35-6.594-28.602-80.284-2.35-6.594-28.602-80.28-2.348-6.593L411.288 0h-7.43l16.9 47.438 2.35 6.594zM538.586 103.36l2.35 6.594 27.726 77.825V166.92l-21.133-59.317-2.35-6.594-28.603-80.28-2.35-6.593L509.192 0h-7.43l5.874 16.486 2.35 6.594zM406.235 545.853l-2.123 4.472 6.533 18.337h7.43l-7.37-20.687zM401.763 543.73l-.01-.004-69.99 24.936h20.857l51.49-18.345zM292.866 492.046l.006.017.017-.006zM57.017 568.662h20.857l34.654-12.346-2.35-6.594zM203.64 516.424l80.28-28.6 2.35 6.593-80.28 28.6zM116.764 547.375l80.282-28.6 2.35 6.593-80.283 28.6zM175.047 436.153l.032-.01-.045-.022zM88.173 467.085l-2.35-6.594 80.28-28.608 2.35 6.594zM79.23 462.86L0 491.087v3.303l1.305 3.663 80.273-28.6zM57.206 380.197l.012.033.034-.012zM48.275 375.985L0 393.185v7.43l50.624-18.036zM0 515.246l19.03 53.416h7.432l-25.157-70.61L0 494.39zM88.172 467.105l-2.35-6.594-28.604-80.28-.012-.033-8.898-4.223-.04-.02-.005-.002.012.033 2.35 6.594 28.604 80.28 2.348 6.594 28.6 80.268 2.35 6.594 4.4 12.346h7.43l-5.236-14.695-2.35-6.594zM203.648 516.42l-28.6-80.267-.013-.032-8.9-4.223-.03-.014-.013-.007.012.033 2.35 6.593 28.6 80.267 2.35 6.594 15.427 43.298h7.432l-16.265-45.648zM292.866 492.046l-8.92-4.234-.012-.006-.012-.005.006.018 2.35 6.594 26.46 74.25h7.43l-27.296-76.6zM406.235 545.853l-4.472-2.122 2.346 6.587.002.008z"/></g></svg>