<svg xmlns="http://www.w3.org/2000/svg" viewBox="0 0 566.93 566.93" enable-background="new 0 0 566.93 566.93"><g fill="none" stroke="#010202" stroke-width="5" stroke-miterlimit="10"><path d="M5.867 0v566.825M17.858 0v566.825M29.848 0v566.825M41.838 0v566.825M53.83 0v566.825M65.82 0v566.825M77.81 0v566.825M89.8 0v566.825M101.79 0v566.825M113.78 0v566.825M125.77 0v566.825M137.762 0v566.825M149.752 0v566.825M161.743 0v566.825M173.733 0v566.825M185.723 0v566.825M197.714 0v566.825M209.704 0v566.825M221.695 0v566.825M233.685 0v566.825M245.675 0v566.825M257.666 0v566.825M269.656 0v566.825M281.647 0v566.825M293.637 0v566.825M305.627 0v566.825M317.618 0v566.825M329.608 0v566.825M341.6 0v566.825M353.59 0v566.825M365.58 0v566.825M377.57 0v566.825M389.56 0v566.825M401.55 0v566.825M413.54 0v566.825M425.532 0v566.825M437.522 0v566.825M449.512 0v566.825M461.503 0v566.825M473.493 0v566.825M485.484 0v566.825M497.474 0v566.825M509.464 0v566.825M521.455 0v566.825M533.445 0v566.825M545.436 0v566.825M557.426 0v566.825"/></g></svg>