<svg xmlns="http://www.w3.org/2000/svg" xmlns:xlink="http://www.w3.org/1999/xlink" width="566.93" height="566.93" viewBox="0 0 566.93 566.93"><g><defs><path id="a" d="M-617.935-.3h566.93v566.93h-566.93z"/></defs><clipPath id="b"><use xlink:href="#a" overflow="visible"/></clipPath><g clip-path="url(#b)" fill="#fff" stroke="#000" stroke-miterlimit="10"><circle stroke-width="8" cx="78.909" cy="-.386" r="70.149"/><circle stroke-width="7" cx="78.909" cy="-.386" r="52.612"/><circle stroke-width="6" cx="78.909" cy="-.386" r="34.329"/><circle stroke-width="5" cx="78.909" cy="-.386" r="20.941"/><circle stroke-width="4" cx="78.909" cy="-.386" r="7.748"/></g><g clip-path="url(#b)" fill="#fff" stroke="#000" stroke-miterlimit="10"><circle stroke-width="8" cx="157.585" cy="37.496" r="70.149"/><circle stroke-width="7" cx="157.585" cy="37.496" r="52.612"/><circle stroke-width="6" cx="157.585" cy="37.496" r="34.329"/><circle stroke-width="5" cx="157.585" cy="37.496" r="20.941"/><circle stroke-width="4" cx="157.585" cy="37.496" r="7.748"/></g><g clip-path="url(#b)" fill="#fff" stroke="#000" stroke-miterlimit="10"><circle stroke-width="8" cx="-.497" cy="37.496" r="70.149"/><circle stroke-width="7" cx="-.497" cy="37.496" r="52.612"/><circle stroke-width="6" cx="-.497" cy="37.496" r="34.329"/><circle stroke-width="5" cx="-.497" cy="37.496" r="20.941"/><circle stroke-width="4" cx="-.497" cy="37.496" r="7.748"/></g><g clip-path="url(#b)" fill="#fff" stroke="#000" stroke-miterlimit="10"><circle stroke-width="8" cx="78.909" cy="77.611" r="70.149"/><circle stroke-width="7" cx="78.909" cy="77.611" r="52.612"/><circle stroke-width="6" cx="78.909" cy="77.611" r="34.329"/><circle stroke-width="5" cx="78.909" cy="77.611" r="20.941"/><circle stroke-width="4" cx="78.909" cy="77.611" r="7.748"/></g><g clip-path="url(#b)" fill="#fff" stroke="#000" stroke-miterlimit="10"><circle stroke-width="8" cx="157.585" cy="115.492" r="70.149"/><circle stroke-width="7" cx="157.585" cy="115.492" r="52.612"/><circle stroke-width="6" cx="157.585" cy="115.492" r="34.329"/><circle stroke-width="5" cx="157.585" cy="115.492" r="20.941"/><circle stroke-width="4" cx="157.585" cy="115.492" r="7.748"/></g><g clip-path="url(#b)" fill="#fff" stroke="#000" stroke-miterlimit="10"><circle stroke-width="8" cx="-.497" cy="115.492" r="70.149"/><circle stroke-width="7" cx="-.497" cy="115.492" r="52.612"/><circle stroke-width="6" cx="-.497" cy="115.492" r="34.329"/><circle stroke-width="5" cx="-.497" cy="115.492" r="20.941"/><circle stroke-width="4" cx="-.497" cy="115.492" r="7.748"/></g><g clip-path="url(#b)" fill="#fff" stroke="#000" stroke-miterlimit="10"><circle stroke-width="8" cx="78.909" cy="155.607" r="70.149"/><circle stroke-width="7" cx="78.909" cy="155.607" r="52.612"/><circle stroke-width="6" cx="78.909" cy="155.607" r="34.329"/><circle stroke-width="5" cx="78.909" cy="155.607" r="20.941"/><circle stroke-width="4" cx="78.909" cy="155.607" r="7.748"/></g><g clip-path="url(#b)" fill="#fff" stroke="#000" stroke-miterlimit="10"><circle stroke-width="8" cx="157.585" cy="193.488" r="70.149"/><circle stroke-width="7" cx="157.585" cy="193.488" r="52.612"/><circle stroke-width="6" cx="157.585" cy="193.488" r="34.329"/><circle stroke-width="5" cx="157.585" cy="193.488" r="20.941"/><circle stroke-width="4" cx="157.585" cy="193.488" r="7.748"/></g><g clip-path="url(#b)" fill="#fff" stroke="#000" stroke-miterlimit="10"><circle stroke-width="8" cx="-.497" cy="193.488" r="70.149"/><circle stroke-width="7" cx="-.497" cy="193.488" r="52.612"/><circle stroke-width="6" cx="-.497" cy="193.488" r="34.329"/><circle stroke-width="5" cx="-.497" cy="193.488" r="20.941"/><circle stroke-width="4" cx="-.497" cy="193.488" r="7.748"/></g><g clip-path="url(#b)" fill="#fff" stroke="#000" stroke-miterlimit="10"><circle stroke-width="8" cx="78.909" cy="233.603" r="70.149"/><circle stroke-width="7" cx="78.909" cy="233.603" r="52.612"/><circle stroke-width="6" cx="78.909" cy="233.603" r="34.329"/><circle stroke-width="5" cx="78.909" cy="233.603" r="20.941"/><circle stroke-width="4" cx="78.909" cy="233.603" r="7.748"/></g><g clip-path="url(#b)" fill="#fff" stroke="#000" stroke-miterlimit="10"><circle stroke-width="8" cx="157.585" cy="271.484" r="70.149"/><circle stroke-width="7" cx="157.585" cy="271.484" r="52.612"/><circle stroke-width="6" cx="157.585" cy="271.484" r="34.329"/><circle stroke-width="5" cx="157.585" cy="271.484" r="20.941"/><circle stroke-width="4" cx="157.585" cy="271.484" r="7.748"/></g><g clip-path="url(#b)" fill="#fff" stroke="#000" stroke-miterlimit="10"><circle stroke-width="8" cx="-.497" cy="271.484" r="70.149"/><circle stroke-width="7" cx="-.497" cy="271.484" r="52.612"/><circle stroke-width="6" cx="-.497" cy="271.484" r="34.329"/><circle stroke-width="5" cx="-.497" cy="271.484" r="20.941"/><circle stroke-width="4" cx="-.497" cy="271.484" r="7.748"/></g><g clip-path="url(#b)" fill="#fff" stroke="#000" stroke-miterlimit="10"><circle stroke-width="8" cx="78.909" cy="311.599" r="70.149"/><circle stroke-width="7" cx="78.909" cy="311.599" r="52.612"/><circle stroke-width="6" cx="78.909" cy="311.599" r="34.329"/><circle stroke-width="5" cx="78.909" cy="311.599" r="20.941"/><circle stroke-width="4" cx="78.909" cy="311.599" r="7.748"/></g><g clip-path="url(#b)" fill="#fff" stroke="#000" stroke-miterlimit="10"><circle stroke-width="8" cx="157.585" cy="349.48" r="70.149"/><circle stroke-width="7" cx="157.585" cy="349.48" r="52.612"/><circle stroke-width="6" cx="157.585" cy="349.48" r="34.329"/><circle stroke-width="5" cx="157.585" cy="349.48" r="20.941"/><circle stroke-width="4" cx="157.585" cy="349.48" r="7.748"/></g><g clip-path="url(#b)" fill="#fff" stroke="#000" stroke-miterlimit="10"><circle stroke-width="8" cx="-.497" cy="349.48" r="70.149"/><circle stroke-width="7" cx="-.497" cy="349.48" r="52.612"/><circle stroke-width="6" cx="-.497" cy="349.48" r="34.329"/><circle stroke-width="5" cx="-.497" cy="349.48" r="20.941"/><circle stroke-width="4" cx="-.497" cy="349.48" r="7.748"/></g><g clip-path="url(#b)" fill="#fff" stroke="#000" stroke-miterlimit="10"><circle stroke-width="8" cx="78.909" cy="389.595" r="70.149"/><circle stroke-width="7" cx="78.909" cy="389.595" r="52.612"/><circle stroke-width="6" cx="78.909" cy="389.595" r="34.329"/><circle stroke-width="5" cx="78.909" cy="389.595" r="20.941"/><circle stroke-width="4" cx="78.909" cy="389.595" r="7.748"/></g><g clip-path="url(#b)" fill="#fff" stroke="#000" stroke-miterlimit="10"><circle stroke-width="8" cx="157.585" cy="427.476" r="70.149"/><circle stroke-width="7" cx="157.585" cy="427.476" r="52.612"/><circle stroke-width="6" cx="157.585" cy="427.476" r="34.329"/><circle stroke-width="5" cx="157.585" cy="427.476" r="20.941"/><circle stroke-width="4" cx="157.585" cy="427.476" r="7.748"/></g><g clip-path="url(#b)" fill="#fff" stroke="#000" stroke-miterlimit="10"><circle stroke-width="8" cx="-.497" cy="427.476" r="70.149"/><circle stroke-width="7" cx="-.497" cy="427.476" r="52.612"/><circle stroke-width="6" cx="-.497" cy="427.476" r="34.329"/><circle stroke-width="5" cx="-.497" cy="427.476" r="20.941"/><circle stroke-width="4" cx="-.497" cy="427.476" r="7.748"/></g><g clip-path="url(#b)" fill="#fff" stroke="#000" stroke-miterlimit="10"><circle stroke-width="8" cx="78.909" cy="467.591" r="70.149"/><circle stroke-width="7" cx="78.909" cy="467.591" r="52.612"/><circle stroke-width="6" cx="78.909" cy="467.591" r="34.329"/><circle stroke-width="5" cx="78.909" cy="467.591" r="20.941"/><circle stroke-width="4" cx="78.909" cy="467.591" r="7.748"/></g><g clip-path="url(#b)" fill="#fff" stroke="#000" stroke-miterlimit="10"><circle stroke-width="8" cx="157.585" cy="505.473" r="70.149"/><circle stroke-width="7" cx="157.585" cy="505.473" r="52.612"/><circle stroke-width="6" cx="157.585" cy="505.473" r="34.329"/><circle stroke-width="5" cx="157.585" cy="505.473" r="20.941"/><circle stroke-width="4" cx="157.585" cy="505.473" r="7.748"/></g><g clip-path="url(#b)" fill="#fff" stroke="#000" stroke-miterlimit="10"><circle stroke-width="8" cx="-.497" cy="505.473" r="70.149"/><circle stroke-width="7" cx="-.497" cy="505.473" r="52.612"/><circle stroke-width="6" cx="-.497" cy="505.473" r="34.329"/><circle stroke-width="5" cx="-.497" cy="505.473" r="20.941"/><circle stroke-width="4" cx="-.497" cy="505.473" r="7.748"/></g><g clip-path="url(#b)" fill="#fff" stroke="#000" stroke-miterlimit="10"><circle stroke-width="8" cx="78.909" cy="545.587" r="70.149"/><circle stroke-width="7" cx="78.909" cy="545.587" r="52.612"/><circle stroke-width="6" cx="78.909" cy="545.587" r="34.329"/><circle stroke-width="5" cx="78.909" cy="545.587" r="20.941"/><circle stroke-width="4" cx="78.909" cy="545.587" r="7.748"/></g><g clip-path="url(#b)" fill="#fff" stroke="#000" stroke-miterlimit="10"><circle stroke-width="8" cx="157.585" cy="583.469" r="70.149"/><circle stroke-width="7" cx="157.585" cy="583.469" r="52.612"/><circle stroke-width="6" cx="157.585" cy="583.469" r="34.329"/><circle stroke-width="5" cx="157.585" cy="583.469" r="20.941"/></g><g clip-path="url(#b)" fill="#fff" stroke="#000" stroke-miterlimit="10"><circle stroke-width="8" cx="-.497" cy="583.469" r="70.149"/><circle stroke-width="7" cx="-.497" cy="583.469" r="52.612"/><circle stroke-width="6" cx="-.497" cy="583.469" r="34.329"/><circle stroke-width="5" cx="-.497" cy="583.469" r="20.941"/></g><path fill="none" d="M127.296 493.107c0-.174.013-.345.037-.513-.18-35.003-16.165-52.285-33.083-70.576-17.18-18.576-34.946-37.783-34.946-75.93s17.766-57.355 34.946-75.93c17.015-18.397 33.085-35.772 33.085-71.178 0-35.405-16.07-52.78-33.085-71.174-17.18-18.574-34.946-37.78-34.946-75.926 0-22.155 5.998-37.915 14.388-50.88h-6.846l-1.752 1.896C48.08 21.292 32.01 38.666 32.01 74.07s16.07 52.78 33.084 71.175c17.18 18.574 34.946 37.78 34.946 75.927 0 38.147-17.766 57.354-34.946 75.93-17.015 18.395-33.085 35.77-33.085 71.177s16.07 52.78 33.084 71.176c17.18 18.576 34.946 37.783 34.946 75.93 0 .182-.014.36-.04.535-.117 22.832-6.634 38.835-15.545 52.01h6.392c1.12-1.22 2.244-2.436 3.364-3.648 17.016-18.395 33.086-35.77 33.086-71.175zM280.95 274.91c-17.014 18.397-33.085 35.772-33.085 71.178 0 34.085 14.895 51.46 31.186 69.12-7.094-12.21-11.96-26.976-11.96-46.93 0-38.147 17.767-57.355 34.947-75.93 17.015-18.396 33.086-35.77 33.086-71.177 0-34.08-14.894-51.455-31.184-69.114 7.093 12.21 11.957 26.974 11.957 46.924 0 38.148-17.766 57.355-34.946 75.93zM341.47 274.91c-17.014 18.397-33.085 35.772-33.085 71.178 0 34.085 14.895 51.46 31.186 69.12-7.094-12.21-11.96-26.976-11.96-46.93 0-38.147 17.767-57.355 34.947-75.93 17.015-18.396 33.086-35.77 33.086-71.177 0-34.08-14.894-51.455-31.184-69.114 7.093 12.21 11.957 26.974 11.957 46.924 0 38.148-17.765 57.355-34.946 75.93zM187.817 493.107c0-.174.013-.345.037-.513-.18-35.003-16.165-52.285-33.083-70.576-17.18-18.576-34.945-37.783-34.945-75.93s17.766-57.355 34.946-75.93c17.016-18.397 33.086-35.772 33.086-71.178 0-35.405-16.07-52.78-33.085-71.174-17.18-18.574-34.945-37.78-34.945-75.927 0-22.156 5.998-37.916 14.388-50.88h-6.847l-1.752 1.895C108.6 21.292 92.53 38.665 92.53 74.07s16.07 52.78 33.085 71.175c17.18 18.574 34.946 37.78 34.946 75.927 0 38.147-17.765 57.354-34.945 75.93-17.015 18.395-33.086 35.77-33.086 71.177s16.07 52.78 33.085 71.176c17.18 18.576 34.946 37.783 34.946 75.93 0 .182-.013.36-.04.535-.116 22.832-6.633 38.835-15.544 52.01h6.392c1.12-1.22 2.244-2.436 3.364-3.648 17.015-18.395 33.085-35.77 33.085-71.175zM339.57 120.995c-7.095-12.21-11.96-26.974-11.96-46.924 0-36.195 15.997-55.338 32.31-73.07h-35.7c-9.224 12.897-15.835 28.18-15.835 50.88 0 34.082 14.894 51.456 31.184 69.115zM153.56 514.785c-.175-33.69-14.99-50.963-31.185-68.52 7.095 12.21 11.96 26.976 11.96 46.93 0 .18-.014.36-.04.534-.19 36.982-17.16 56.062-33.924 74.2h36.037c9.888-13.268 17.114-28.897 17.114-52.632.002-.174.015-.345.04-.513zM214.08 514.785c-.174-33.69-14.99-50.963-31.184-68.52 7.095 12.21 11.96 26.976 11.96 46.93 0 .18-.014.36-.04.534-.19 36.982-17.16 56.062-33.924 74.2h36.036c9.888-13.268 17.114-28.897 17.114-52.632 0-.174.013-.345.038-.513zM6.292 492.595C6.224 479.235 3.847 468.46 0 459.222v67.76c3.88-9.354 6.255-20.282 6.255-33.874 0-.174.013-.345.037-.513zM401.992 274.91c-17.015 18.397-33.086 35.772-33.086 71.178 0 34.085 14.895 51.46 31.186 69.12-7.095-12.21-11.96-26.976-11.96-46.93 0-38.147 17.766-57.355 34.946-75.93 17.015-18.396 33.086-35.77 33.086-71.177 0-34.08-14.894-51.455-31.184-69.114 7.094 12.21 11.958 26.974 11.958 46.924 0 38.148-17.766 57.355-34.946 75.93zM369.378 493.107c0-.174.013-.345.037-.513-.18-35.003-16.166-52.285-33.084-70.576-17.18-18.576-34.945-37.783-34.945-75.93s17.766-57.355 34.946-75.93c17.016-18.397 33.087-35.772 33.087-71.178 0-35.405-16.07-52.78-33.086-71.174-17.18-18.574-34.945-37.78-34.945-75.927 0-22.156 5.998-37.916 14.388-50.88h-6.846l-1.752 1.895C290.16 21.29 274.09 38.665 274.09 74.07s16.07 52.778 33.086 71.173c17.18 18.574 34.946 37.78 34.946 75.927 0 38.147-17.766 57.354-34.946 75.93-17.015 18.395-33.086 35.77-33.086 71.177s16.07 52.78 33.086 71.177c17.18 18.576 34.946 37.783 34.946 75.93 0 .182-.014.36-.04.535-.117 22.83-6.634 38.833-15.545 52.01h6.392c1.12-1.223 2.243-2.438 3.363-3.65 17.015-18.393 33.085-35.767 33.085-71.173zM0 165.013v67.936c3.904-9.377 6.294-20.332 6.294-33.97 0-13.636-2.39-24.59-6.294-33.967zM248.337 493.107c0-.174.013-.345.037-.513-.18-35.003-16.166-52.285-33.084-70.576-17.18-18.576-34.946-37.783-34.946-75.93s17.766-57.355 34.946-75.93c17.015-18.397 33.086-35.772 33.086-71.178 0-35.405-16.07-52.78-33.086-71.174-17.18-18.574-34.946-37.78-34.946-75.927 0-22.156 5.998-37.916 14.388-50.88h-6.846l-1.752 1.895C169.12 21.29 153.05 38.665 153.05 74.07s16.07 52.778 33.085 71.173c17.18 18.574 34.946 37.78 34.946 75.927 0 38.147-17.765 57.354-34.945 75.93-17.015 18.395-33.086 35.77-33.086 71.177s16.07 52.78 33.085 71.177c17.18 18.576 34.946 37.783 34.946 75.93 0 .182-.013.36-.04.535-.116 22.83-6.633 38.833-15.544 52.01h6.392c1.12-1.223 2.244-2.438 3.364-3.65 17.015-18.393 33.085-35.767 33.085-71.173zM400.09 120.995c-7.094-12.21-11.958-26.974-11.958-46.924 0-36.195 15.996-55.338 32.31-73.07h-35.7c-9.225 12.897-15.836 28.18-15.836 50.88 0 34.082 14.893 51.456 31.184 69.115zM274.6 514.785c-.174-33.69-14.99-50.963-31.184-68.52 7.095 12.21 11.96 26.976 11.96 46.93 0 .18-.014.36-.04.534-.19 36.982-17.16 56.062-33.924 74.2h36.036c9.888-13.268 17.114-28.897 17.114-52.632 0-.174.014-.345.038-.513zM308.858 493.107c0-.174.013-.345.037-.513-.18-35.003-16.166-52.285-33.084-70.576-17.18-18.576-34.945-37.783-34.945-75.93s17.766-57.355 34.946-75.93c17.016-18.397 33.087-35.772 33.087-71.178 0-35.405-16.07-52.78-33.086-71.174-17.18-18.574-34.945-37.78-34.945-75.927 0-22.156 5.998-37.916 14.388-50.88h-6.846l-1.752 1.895C229.64 21.29 213.57 38.665 213.57 74.07s16.07 52.778 33.086 71.173c17.18 18.574 34.946 37.78 34.946 75.927 0 38.147-17.766 57.354-34.946 75.93-17.015 18.395-33.086 35.77-33.086 71.177s16.07 52.78 33.086 71.177c17.18 18.576 34.946 37.783 34.946 75.93 0 .182-.014.36-.04.535-.117 22.83-6.634 38.833-15.545 52.01h6.392c1.12-1.223 2.243-2.438 3.363-3.65 17.015-18.393 33.085-35.767 33.085-71.173zM460.61 120.995c-7.094-12.21-11.958-26.974-11.958-46.924 0-36.195 15.996-55.338 32.31-73.07h-35.7c-9.225 12.897-15.836 28.18-15.836 50.88 0 34.082 14.894 51.456 31.184 69.115zM159.91 274.91c-17.015 18.397-33.085 35.772-33.085 71.178 0 34.085 14.894 51.46 31.185 69.12-7.095-12.21-11.96-26.976-11.96-46.93 0-38.147 17.766-57.355 34.946-75.93 17.015-18.396 33.086-35.77 33.086-71.177 0-34.08-14.894-51.455-31.184-69.114 7.094 12.21 11.958 26.974 11.958 46.924 0 38.148-17.766 57.355-34.946 75.93zM32.518 514.785c-.174-33.69-14.99-50.965-31.186-68.522 7.096 12.21 11.962 26.977 11.962 46.933 0 .18-.014.36-.04.534-.106 20.824-5.54 35.967-13.254 48.467v25.733h15.367c9.888-13.268 17.114-28.897 17.114-52.632 0-.174.014-.345.038-.513zM220.43 274.91c-17.015 18.397-33.086 35.772-33.086 71.178 0 34.085 14.895 51.46 31.186 69.12-7.095-12.21-11.96-26.976-11.96-46.93 0-38.147 17.766-57.355 34.946-75.93 17.015-18.396 33.086-35.77 33.086-71.177 0-34.08-14.894-51.455-31.184-69.114 7.094 12.21 11.958 26.974 11.958 46.924 0 38.148-17.765 57.355-34.946 75.93zM218.528 120.995c-7.094-12.21-11.958-26.974-11.958-46.924 0-36.195 15.996-55.338 32.31-73.07h-35.7c-9.225 12.897-15.836 28.18-15.836 50.88 0 34.082 14.894 51.456 31.184 69.115zM99.39 274.91c-17.016 18.397-33.086 35.772-33.086 71.178 0 34.085 14.894 51.46 31.185 69.12-7.096-12.21-11.96-26.976-11.96-46.93 0-38.147 17.765-57.355 34.945-75.93 17.015-18.396 33.086-35.77 33.086-71.177 0-34.08-14.893-51.455-31.183-69.114 7.094 12.21 11.958 26.974 11.958 46.924 0 38.148-17.765 57.355-34.946 75.93zM158.008 120.995c-7.094-12.21-11.958-26.974-11.958-46.924 0-36.195 15.996-55.338 32.31-73.07h-35.7c-9.225 12.897-15.835 28.18-15.835 50.88 0 34.082 14.892 51.456 31.183 69.115zM66.815 198.98c0-35.405-16.07-52.78-33.085-71.174C19.215 112.116 4.285 95.97 0 68.336v71.937c1.51 1.658 3.038 3.31 4.574 4.972 17.18 18.574 34.946 37.78 34.946 75.927 0 38.147-17.766 57.354-34.946 75.93-1.536 1.66-3.064 3.313-4.574 4.97v27.56c4.285-27.635 19.215-43.78 33.73-59.474 17.015-18.396 33.085-35.77 33.085-71.178zM279.05 120.995c-7.095-12.21-11.96-26.974-11.96-46.924 0-36.195 15.997-55.338 32.31-73.07h-35.7c-9.224 12.897-15.835 28.18-15.835 50.88 0 34.082 14.893 51.456 31.184 69.115zM1.334 152.053c7.095 12.21 11.96 26.975 11.96 46.927 0 21.182-5.48 36.52-13.294 49.156v43.6c16.803-18.17 32.52-35.552 32.52-70.565 0-34.082-14.894-51.456-31.186-69.117zM93.04 514.785c-.175-33.69-14.99-50.965-31.187-68.522 7.096 12.21 11.962 26.977 11.962 46.933 0 .18-.014.36-.04.534-.19 36.983-17.16 56.063-33.924 74.2h36.037C85.775 554.664 93 539.035 93 515.3c0-.176.014-.347.04-.515zM36.97 120.998c-7.096-12.21-11.96-26.975-11.96-46.927 0-36.195 15.995-55.338 32.31-73.07h-35.7C12.393 13.897 5.783 29.18 5.783 51.88c0 34.084 14.894 51.457 31.185 69.118zM66.776 493.107c0-.174.013-.345.037-.513-.18-35.003-16.165-52.285-33.083-70.576C19.215 406.325 4.285 390.18 0 362.545v71.938c1.51 1.658 3.038 3.31 4.574 4.972 17.18 18.576 34.946 37.783 34.946 75.93 0 .182-.014.36-.04.535-.117 22.83-6.634 38.834-15.545 52.01h6.392c1.12-1.222 2.244-2.437 3.364-3.65 17.016-18.393 33.086-35.767 33.086-71.173zM38.87 274.91C21.853 293.308 5.783 310.683 5.783 346.09c0 34.087 14.896 51.46 31.188 69.123C29.876 403 25.01 388.235 25.01 368.28c0-38.147 17.766-57.355 34.946-75.93C76.97 273.95 93.04 256.577 93.04 221.17c0-34.083-14.893-51.457-31.185-69.117 7.095 12.21 11.96 26.975 11.96 46.927 0 38.148-17.766 57.355-34.946 75.93zM395.64 514.785c-.173-33.69-14.988-50.963-31.183-68.52 7.095 12.21 11.96 26.976 11.96 46.93 0 .18-.014.36-.04.534-.19 36.982-17.16 56.062-33.924 74.2h36.036c9.887-13.268 17.113-28.897 17.113-52.632 0-.174.014-.345.038-.513zM97.487 120.995C90.393 108.785 85.53 94.02 85.53 74.07c0-36.195 15.995-55.338 32.31-73.07h-35.7c-9.225 12.897-15.835 28.18-15.835 50.88 0 34.082 14.892 51.456 31.182 69.115zM335.12 514.785c-.173-33.69-14.988-50.963-31.183-68.52 7.095 12.21 11.96 26.976 11.96 46.93 0 .18-.014.36-.04.534-.19 36.982-17.16 56.062-33.924 74.2h36.036c9.887-13.268 17.113-28.897 17.113-52.632 0-.174.013-.345.038-.513zM516.172 368.278c0 35.406 16.07 52.78 33.086 71.177 6.09 6.586 12.25 13.255 17.672 20.815v-51.108c-12.795-15.333-23.463-33.517-23.463-63.075s10.667-47.742 23.463-63.075v-6.727c-5.42 7.56-11.58 14.23-17.672 20.815-17.014 18.396-33.086 35.772-33.086 71.178zM516.172 74.07c0 35.406 16.07 52.78 33.086 71.175 6.09 6.585 12.25 13.254 17.672 20.814V114.95c-12.795-15.332-23.463-33.516-23.463-63.072 0-22.155 5.998-37.915 14.388-50.88h-6.846l-1.753 1.896c-17.013 18.396-33.085 35.77-33.085 71.175zM566.93 103.636V1h-.627c-9.225 12.897-15.836 28.18-15.836 50.88 0 23.213 6.91 38.675 16.463 51.756zM6.326 1L4.574 2.896C3.038 4.556 1.51 6.21 0 7.868v27.555C2.16 21.5 7.023 10.5 13.172 1H6.326zM429.9 493.107c0-.174.012-.345.036-.513-.18-35.003-16.166-52.285-33.084-70.576-17.18-18.576-34.946-37.783-34.946-75.93s17.766-57.355 34.946-75.93c17.015-18.397 33.086-35.772 33.086-71.178 0-35.405-16.07-52.78-33.086-71.174-17.18-18.574-34.946-37.78-34.946-75.927 0-22.156 5.998-37.916 14.388-50.88h-6.846l-1.752 1.895C350.682 21.29 334.61 38.665 334.61 74.07s16.072 52.778 33.087 71.173c17.18 18.574 34.946 37.78 34.946 75.927 0 38.147-17.766 57.354-34.946 75.93-17.015 18.395-33.086 35.77-33.086 71.177s16.072 52.78 33.087 71.177c17.18 18.576 34.946 37.783 34.946 75.93 0 .182-.014.36-.04.535-.117 22.83-6.634 38.833-15.545 52.01h6.392c1.12-1.223 2.244-2.438 3.364-3.65 17.015-18.393 33.085-35.767 33.085-71.173zM557.98 493.195c0 .18-.015.36-.042.534-.188 36.982-17.16 56.062-33.923 74.2h36.036c2.485-3.334 4.804-6.814 6.88-10.538v-84.175c-5.672-10.152-13.133-18.52-20.912-26.952 7.096 12.21 11.96 26.977 11.96 46.93zM566.93 397.846V294.33c-9.554 13.08-16.463 28.543-16.463 51.757s6.91 38.678 16.463 51.76zM557.98 198.98c0 38.147-17.767 57.355-34.947 75.93-17.015 18.396-33.086 35.77-33.086 71.177 0 34.085 14.895 51.46 31.186 69.12-7.095-12.21-11.96-26.976-11.96-46.93 0-38.147 17.766-57.355 34.946-75.93 8.456-9.144 16.677-18.037 22.81-29.015V179.01c-5.67-10.152-13.13-18.522-20.91-26.954 7.095 12.21 11.96 26.974 11.96 46.924zM550.94 493.107c0-.174.013-.345.037-.513-.18-35.003-16.166-52.285-33.084-70.576-17.18-18.576-34.946-37.783-34.946-75.93s17.766-57.355 34.946-75.93c17.015-18.397 33.086-35.772 33.086-71.178 0-35.405-16.072-52.78-33.087-71.174-17.18-18.574-34.946-37.78-34.946-75.927 0-22.156 5.998-37.916 14.388-50.88h-6.846l-1.753 1.895c-17.014 18.395-33.085 35.77-33.085 71.174s16.07 52.778 33.086 71.173c17.18 18.574 34.946 37.78 34.946 75.927 0 38.147-17.766 57.354-34.946 75.93-17.015 18.395-33.086 35.77-33.086 71.177s16.07 52.78 33.086 71.177c17.18 18.576 34.946 37.783 34.946 75.93 0 .182-.014.36-.04.535-.117 22.83-6.634 38.833-15.545 52.01h6.39c1.122-1.223 2.245-2.438 3.365-3.65 17.015-18.393 33.085-35.767 33.085-71.173zM490.42 493.107c0-.174.012-.345.036-.513-.18-35.003-16.166-52.285-33.084-70.576-17.18-18.576-34.946-37.783-34.946-75.93s17.766-57.355 34.946-75.93c17.015-18.397 33.086-35.772 33.086-71.178 0-35.405-16.07-52.78-33.086-71.174-17.18-18.574-34.946-37.78-34.946-75.927 0-22.156 5.998-37.916 14.388-50.88h-6.846l-1.752 1.895C411.202 21.29 395.13 38.665 395.13 74.07s16.072 52.778 33.087 71.173c17.18 18.574 34.946 37.78 34.946 75.927 0 38.147-17.766 57.354-34.946 75.93-17.015 18.395-33.086 35.77-33.086 71.177s16.072 52.78 33.087 71.177c17.18 18.576 34.946 37.783 34.946 75.93 0 .182-.014.36-.04.535-.117 22.83-6.634 38.833-15.545 52.01h6.392c1.12-1.223 2.244-2.438 3.364-3.65 17.015-18.393 33.085-35.767 33.085-71.173zM456.162 514.785c-.174-33.69-14.99-50.963-31.184-68.52 7.095 12.21 11.96 26.976 11.96 46.93 0 .18-.014.36-.04.534-.19 36.982-17.16 56.062-33.924 74.2h36.036c9.888-13.268 17.114-28.897 17.114-52.632 0-.174.013-.345.038-.513zM521.13 120.995c-7.093-12.21-11.958-26.974-11.958-46.924 0-36.195 15.996-55.338 32.31-73.07h-35.7c-9.225 12.897-15.836 28.18-15.836 50.88 0 34.082 14.894 51.456 31.185 69.115zM462.512 274.91c-17.015 18.397-33.086 35.772-33.086 71.178 0 34.085 14.895 51.46 31.186 69.12-7.095-12.21-11.96-26.976-11.96-46.93 0-38.147 17.766-57.355 34.946-75.93 17.015-18.396 33.086-35.77 33.086-71.177 0-34.08-14.894-51.455-31.184-69.114 7.094 12.21 11.958 26.974 11.958 46.924 0 38.148-17.765 57.355-34.946 75.93zM516.682 514.785c-.174-33.69-14.99-50.963-31.184-68.52 7.095 12.21 11.96 26.976 11.96 46.93 0 .18-.014.36-.04.534-.19 36.982-17.16 56.062-33.924 74.2h36.036c9.888-13.268 17.114-28.897 17.114-52.632 0-.174.014-.345.038-.513z"/><path d="M566.93 409.163v-11.316c-9.554-13.08-16.463-28.544-16.463-51.758s6.91-38.678 16.463-51.76v-11.315c-12.795 15.333-23.463 33.517-23.463 63.075s10.668 47.74 23.463 63.073zM566.93 114.952v-11.316c-9.554-13.08-16.463-28.543-16.463-51.756 0-22.7 6.61-37.983 15.836-50.88h-8.448c-8.39 12.964-14.388 28.725-14.388 50.88 0 29.556 10.668 47.74 23.463 63.072zM509.172 368.278c0 19.954 4.865 34.72 11.96 46.93l1.9 2.056c8.194 8.86 16.517 17.868 22.986 29 7.78 8.434 15.24 16.8 20.912 26.953V460.27c-5.42-7.56-11.58-14.23-17.672-20.815-17.015-18.396-33.086-35.77-33.086-71.177s16.07-52.782 33.086-71.177c6.09-6.585 12.25-13.254 17.672-20.814v-12.952c-6.133 10.978-14.355 19.87-22.812 29.014-17.18 18.575-34.946 37.783-34.946 75.93zM521.13 120.995c.633.685 1.267 1.37 1.903 2.06 8.195 8.86 16.518 17.867 22.988 29 7.78 8.433 15.238 16.803 20.91 26.955v-12.952c-5.42-7.56-11.58-14.23-17.67-20.814-17.016-18.395-33.087-35.77-33.087-71.174s16.07-52.78 33.085-71.174c.584-.63 1.168-1.263 1.752-1.896h-9.527c-16.314 17.732-32.31 36.874-32.31 73.07 0 19.952 4.864 34.716 11.958 46.925zM566.93 567.93v-10.538c-2.076 3.723-4.395 7.204-6.88 10.538h6.88zM557.938 493.73c.027-.176.04-.355.04-.535 0-19.954-4.864-34.72-11.96-46.93-6.468-11.133-14.79-20.14-22.985-29l-1.9-2.057c-16.292-17.66-31.186-35.036-31.186-69.12 0-35.406 16.07-52.78 33.086-71.177 17.18-18.574 34.946-37.782 34.946-75.93 0-19.95-4.865-34.715-11.96-46.923-6.47-11.134-14.792-20.143-22.987-29.002-.636-.687-1.27-1.373-1.902-2.06-16.29-17.658-31.183-35.032-31.183-69.114 0-22.698 6.61-37.982 15.836-50.88h-8.448c-8.39 12.965-14.388 28.726-14.388 50.88 0 38.147 17.766 57.354 34.946 75.928 17.015 18.395 33.086 35.77 33.086 71.174 0 35.406-16.072 52.782-33.087 71.177-17.18 18.575-34.946 37.782-34.946 75.93s17.766 57.353 34.946 75.93c16.918 18.29 32.903 35.573 33.084 70.576-.024.168-.037.34-.037.513 0 35.404-16.07 52.778-33.085 71.173-1.12 1.212-2.244 2.427-3.364 3.65h9.525c16.763-18.14 33.735-37.22 33.923-74.204zM523.684 515.386c0-38.147-17.766-57.354-34.946-75.93-17.015-18.397-33.086-35.772-33.086-71.178s16.07-52.782 33.086-71.177c17.18-18.575 34.946-37.782 34.946-75.93 0-38.145-17.766-57.352-34.946-75.926-17.015-18.395-33.086-35.77-33.086-71.174s16.07-52.78 33.085-71.174c.584-.63 1.168-1.263 1.752-1.896h-9.528c-16.314 17.732-32.31 36.874-32.31 73.07 0 19.952 4.864 34.717 11.958 46.925l1.902 2.06c8.195 8.86 16.518 17.867 22.988 29 16.29 17.66 31.184 35.034 31.184 69.116 0 35.407-16.07 52.782-33.086 71.177-17.18 18.575-34.946 37.783-34.946 75.93 0 19.955 4.865 34.72 11.96 46.93.632.686 1.265 1.37 1.9 2.057 8.194 8.86 16.517 17.868 22.986 29 16.195 17.558 31.01 34.832 31.184 68.52-.024.17-.037.34-.037.514 0 23.735-7.227 39.364-17.114 52.632h8.57c8.91-13.176 15.428-29.18 15.543-52.01.027-.175.04-.354.04-.534zM497.458 493.195c0-19.954-4.865-34.72-11.96-46.93-6.47-11.133-14.792-20.14-22.986-29l-1.9-2.057c-16.292-17.66-31.186-35.036-31.186-69.12 0-35.406 16.07-52.78 33.086-71.177 17.18-18.574 34.946-37.782 34.946-75.93 0-19.95-4.864-34.715-11.958-46.923-6.47-11.134-14.793-20.143-22.988-29.002-.636-.687-1.27-1.373-1.902-2.06-16.29-17.658-31.184-35.032-31.184-69.114 0-22.698 6.61-37.982 15.836-50.88h-8.448c-8.39 12.965-14.388 28.726-14.388 50.88 0 38.147 17.766 57.354 34.946 75.928 17.015 18.395 33.086 35.77 33.086 71.174 0 35.406-16.07 52.782-33.086 71.177-17.18 18.575-34.946 37.782-34.946 75.93s17.766 57.353 34.946 75.93c16.918 18.29 32.903 35.573 33.084 70.576-.024.168-.037.34-.037.513 0 35.404-16.07 52.778-33.086 71.173-1.12 1.212-2.244 2.427-3.364 3.65h9.524c16.763-18.138 33.735-37.22 33.923-74.202.028-.175.04-.354.04-.535zM463.164 515.386c0-38.147-17.766-57.354-34.946-75.93-17.015-18.397-33.086-35.772-33.086-71.178s16.07-52.782 33.086-71.177c17.18-18.575 34.946-37.782 34.946-75.93 0-38.145-17.766-57.352-34.946-75.926-17.015-18.395-33.086-35.77-33.086-71.174s16.07-52.78 33.085-71.174c.584-.63 1.168-1.263 1.752-1.896h-9.528c-16.314 17.732-32.31 36.874-32.31 73.07 0 19.952 4.864 34.717 11.958 46.925l1.902 2.06c8.195 8.86 16.518 17.867 22.988 29 16.29 17.66 31.184 35.034 31.184 69.116 0 35.407-16.07 52.782-33.086 71.177-17.18 18.575-34.946 37.783-34.946 75.93 0 19.955 4.865 34.72 11.96 46.93.632.686 1.265 1.37 1.9 2.057 8.194 8.86 16.517 17.868 22.986 29 16.195 17.558 31.01 34.832 31.184 68.52-.024.17-.037.34-.037.514 0 23.735-7.227 39.364-17.114 52.632h8.57c8.91-13.176 15.428-29.18 15.543-52.01.027-.175.04-.354.04-.534zM436.938 493.195c0-19.954-4.865-34.72-11.96-46.93-6.47-11.133-14.792-20.14-22.986-29l-1.9-2.057c-16.292-17.66-31.186-35.036-31.186-69.12 0-35.406 16.07-52.78 33.086-71.177 17.18-18.574 34.946-37.782 34.946-75.93 0-19.95-4.864-34.715-11.958-46.923-6.47-11.134-14.793-20.143-22.988-29.002-.636-.687-1.27-1.373-1.902-2.06-16.29-17.658-31.184-35.032-31.184-69.114 0-22.698 6.61-37.982 15.836-50.88h-8.448c-8.39 12.965-14.388 28.726-14.388 50.88 0 38.147 17.766 57.354 34.946 75.928 17.015 18.395 33.086 35.77 33.086 71.174 0 35.406-16.07 52.782-33.086 71.177-17.18 18.575-34.946 37.782-34.946 75.93s17.766 57.353 34.946 75.93c16.918 18.29 32.903 35.573 33.084 70.576-.024.168-.037.34-.037.513 0 35.404-16.07 52.778-33.086 71.173-1.12 1.212-2.244 2.427-3.364 3.65h9.524c16.763-18.138 33.735-37.22 33.923-74.202.027-.175.04-.354.04-.535zM402.643 515.386c0-38.147-17.766-57.354-34.946-75.93-17.015-18.397-33.086-35.772-33.086-71.178s16.072-52.782 33.087-71.177c17.18-18.575 34.946-37.782 34.946-75.93 0-38.145-17.766-57.352-34.946-75.926-17.015-18.395-33.086-35.77-33.086-71.174s16.072-52.78 33.086-71.174c.584-.63 1.168-1.263 1.752-1.896h-9.527c-16.313 17.732-32.31 36.874-32.31 73.07 0 19.952 4.865 34.717 11.96 46.925.63.685 1.265 1.37 1.9 2.06 8.196 8.86 16.52 17.867 22.99 29 16.29 17.66 31.183 35.034 31.183 69.116 0 35.407-16.07 52.782-33.086 71.177-17.18 18.575-34.946 37.783-34.946 75.93 0 19.955 4.866 34.72 11.96 46.93l1.9 2.057c8.195 8.86 16.518 17.868 22.987 29 16.195 17.558 31.01 34.832 31.184 68.52-.023.17-.036.34-.036.514 0 23.735-7.227 39.364-17.114 52.632h8.568c8.91-13.176 15.43-29.18 15.544-52.01.027-.175.04-.354.04-.534zM376.417 493.195c0-19.954-4.865-34.72-11.96-46.93-6.47-11.133-14.792-20.14-22.986-29-.634-.688-1.267-1.373-1.9-2.057-16.29-17.66-31.185-35.036-31.185-69.12 0-35.406 16.07-52.78 33.086-71.177 17.182-18.574 34.947-37.782 34.947-75.93 0-19.95-4.864-34.715-11.958-46.923-6.47-11.134-14.794-20.143-22.99-29.002-.635-.687-1.27-1.373-1.9-2.06-16.292-17.658-31.185-35.032-31.185-69.114 0-22.698 6.61-37.982 15.836-50.88h-8.447c-8.39 12.965-14.388 28.726-14.388 50.88 0 38.147 17.766 57.354 34.946 75.928 17.016 18.395 33.087 35.77 33.087 71.174 0 35.406-16.07 52.782-33.086 71.177-17.18 18.575-34.945 37.782-34.945 75.93s17.766 57.353 34.946 75.93c16.92 18.29 32.904 35.573 33.085 70.576-.024.168-.037.34-.037.513 0 35.404-16.07 52.778-33.085 71.173-1.12 1.212-2.244 2.427-3.364 3.65h9.523c16.763-18.138 33.735-37.22 33.923-74.202.028-.175.04-.354.04-.535zM342.123 515.386c0-38.147-17.766-57.354-34.946-75.93-17.015-18.397-33.086-35.772-33.086-71.178s16.072-52.782 33.087-71.177c17.18-18.575 34.946-37.782 34.946-75.93 0-38.145-17.766-57.352-34.946-75.926-17.015-18.395-33.086-35.77-33.086-71.174s16.072-52.78 33.086-71.174c.584-.63 1.168-1.263 1.752-1.896H299.4c-16.314 17.732-32.31 36.874-32.31 73.07 0 19.952 4.864 34.717 11.958 46.925l1.902 2.06c8.195 8.86 16.518 17.867 22.988 29 16.29 17.66 31.184 35.034 31.184 69.116 0 35.407-16.07 52.782-33.086 71.177-17.18 18.575-34.946 37.783-34.946 75.93 0 19.955 4.865 34.72 11.96 46.93.632.686 1.265 1.37 1.9 2.057 8.194 8.86 16.517 17.868 22.986 29 16.195 17.558 31.01 34.832 31.184 68.52-.024.17-.037.34-.037.514 0 23.735-7.227 39.364-17.114 52.632h8.567c8.91-13.176 15.43-29.18 15.544-52.01.03-.175.043-.354.043-.534zM315.897 493.195c0-19.954-4.865-34.72-11.96-46.93-6.47-11.133-14.792-20.14-22.986-29-.634-.688-1.267-1.373-1.9-2.057-16.29-17.66-31.185-35.036-31.185-69.12 0-35.406 16.07-52.78 33.086-71.177 17.182-18.574 34.947-37.782 34.947-75.93 0-19.95-4.864-34.715-11.958-46.923-6.47-11.134-14.794-20.143-22.99-29.002-.635-.687-1.27-1.373-1.9-2.06-16.292-17.658-31.185-35.032-31.185-69.114 0-22.698 6.61-37.982 15.836-50.88h-8.447c-8.39 12.965-14.388 28.726-14.388 50.88 0 38.147 17.766 57.354 34.946 75.928 17.016 18.395 33.087 35.77 33.087 71.174 0 35.406-16.07 52.782-33.086 71.177-17.18 18.575-34.945 37.782-34.945 75.93s17.766 57.353 34.946 75.93c16.92 18.29 32.904 35.573 33.085 70.576-.024.168-.037.34-.037.513 0 35.404-16.07 52.778-33.085 71.173-1.12 1.212-2.244 2.427-3.364 3.65h9.523c16.763-18.138 33.735-37.22 33.923-74.202.027-.175.04-.354.04-.535zM281.602 515.386c0-38.147-17.766-57.354-34.946-75.93-17.015-18.397-33.086-35.772-33.086-71.178s16.07-52.782 33.086-71.177c17.18-18.575 34.946-37.782 34.946-75.93 0-38.145-17.766-57.352-34.946-75.926-17.015-18.395-33.086-35.77-33.086-71.174s16.07-52.78 33.085-71.174c.584-.63 1.168-1.263 1.752-1.896h-9.527c-16.314 17.732-32.31 36.874-32.31 73.07 0 19.952 4.864 34.717 11.958 46.925l1.902 2.06c8.195 8.86 16.518 17.867 22.988 29 16.29 17.66 31.184 35.034 31.184 69.116 0 35.407-16.07 52.782-33.086 71.177-17.18 18.575-34.946 37.783-34.946 75.93 0 19.955 4.865 34.72 11.96 46.93.632.686 1.265 1.37 1.9 2.057 8.194 8.86 16.517 17.868 22.986 29 16.195 17.558 31.01 34.832 31.184 68.52-.024.17-.037.34-.037.514 0 23.735-7.227 39.364-17.114 52.632h8.567c8.91-13.176 15.43-29.18 15.544-52.01.028-.175.042-.354.042-.534zM255.376 493.195c0-19.954-4.865-34.72-11.96-46.93-6.47-11.133-14.792-20.14-22.986-29l-1.9-2.057c-16.292-17.66-31.186-35.036-31.186-69.12 0-35.406 16.07-52.78 33.086-71.177 17.18-18.574 34.946-37.782 34.946-75.93 0-19.95-4.864-34.715-11.958-46.923-6.47-11.134-14.793-20.143-22.988-29.002-.636-.687-1.27-1.373-1.902-2.06-16.29-17.658-31.184-35.032-31.184-69.114 0-22.698 6.61-37.982 15.836-50.88h-8.448c-8.39 12.965-14.388 28.726-14.388 50.88 0 38.147 17.766 57.354 34.946 75.928 17.015 18.395 33.086 35.77 33.086 71.174 0 35.406-16.07 52.782-33.086 71.177-17.18 18.575-34.946 37.782-34.946 75.93s17.766 57.353 34.946 75.93c16.918 18.29 32.903 35.573 33.084 70.576-.024.168-.037.34-.037.513 0 35.404-16.07 52.778-33.085 71.173-1.12 1.212-2.244 2.427-3.364 3.65h9.524c16.763-18.138 33.735-37.22 33.923-74.202.028-.175.04-.354.04-.535zM221.082 515.386c0-38.147-17.766-57.354-34.946-75.93-17.015-18.397-33.086-35.772-33.086-71.178s16.07-52.782 33.086-71.177c17.18-18.575 34.946-37.782 34.946-75.93 0-38.145-17.766-57.352-34.946-75.926-17.015-18.395-33.086-35.77-33.086-71.174s16.07-52.78 33.085-71.174c.584-.63 1.168-1.263 1.752-1.896h-9.527c-16.314 17.732-32.31 36.874-32.31 73.07 0 19.952 4.864 34.717 11.958 46.925l1.902 2.06c8.195 8.86 16.518 17.867 22.988 29 16.29 17.66 31.184 35.034 31.184 69.116 0 35.407-16.07 52.782-33.086 71.177-17.18 18.575-34.946 37.783-34.946 75.93 0 19.955 4.865 34.72 11.96 46.93.632.686 1.265 1.37 1.9 2.057 8.194 8.86 16.517 17.868 22.986 29 16.195 17.558 31.01 34.832 31.184 68.52-.024.17-.037.34-.037.514 0 23.735-7.227 39.364-17.114 52.632h8.567c8.91-13.176 15.43-29.18 15.544-52.01.028-.175.042-.354.042-.534zM194.856 493.195c0-19.954-4.865-34.72-11.96-46.93-6.47-11.133-14.792-20.14-22.986-29l-1.9-2.057c-16.292-17.66-31.185-35.036-31.185-69.12 0-35.406 16.07-52.78 33.085-71.177 17.18-18.574 34.946-37.782 34.946-75.93 0-19.95-4.864-34.715-11.958-46.923-6.47-11.134-14.793-20.143-22.988-29.002-.636-.687-1.27-1.373-1.902-2.06-16.29-17.658-31.183-35.032-31.183-69.114 0-22.698 6.61-37.982 15.835-50.88h-8.447c-8.39 12.965-14.388 28.726-14.388 50.88 0 38.147 17.766 57.354 34.946 75.928 17.016 18.395 33.086 35.77 33.086 71.174 0 35.406-16.07 52.782-33.085 71.177-17.18 18.575-34.945 37.782-34.945 75.93s17.766 57.353 34.946 75.93c16.92 18.29 32.903 35.573 33.084 70.576-.024.168-.037.34-.037.513 0 35.404-16.07 52.778-33.085 71.173-1.12 1.212-2.244 2.427-3.364 3.65h9.524c16.763-18.138 33.735-37.22 33.923-74.202.027-.175.04-.354.04-.535zM160.56 515.386c0-38.147-17.765-57.354-34.945-75.93-17.015-18.397-33.086-35.772-33.086-71.178s16.07-52.782 33.085-71.177c17.18-18.575 34.946-37.782 34.946-75.93 0-38.145-17.765-57.352-34.945-75.926C108.6 126.85 92.53 109.476 92.53 74.07s16.07-52.778 33.084-71.174c.584-.63 1.168-1.263 1.752-1.896h-9.527c-16.315 17.732-32.31 36.874-32.31 73.07 0 19.952 4.863 34.717 11.957 46.925l1.902 2.06c8.194 8.86 16.517 17.867 22.987 29 16.29 17.66 31.184 35.034 31.184 69.116 0 35.407-16.07 52.782-33.085 71.177-17.18 18.575-34.946 37.783-34.946 75.93 0 19.955 4.864 34.72 11.96 46.93.63.686 1.264 1.37 1.9 2.057 8.193 8.86 16.516 17.868 22.985 29 16.195 17.558 31.01 34.832 31.184 68.52-.025.17-.038.34-.038.514 0 23.735-7.227 39.364-17.114 52.632h8.568c8.91-13.176 15.43-29.18 15.544-52.01.027-.175.04-.354.04-.534zM134.335 493.195c0-19.954-4.865-34.72-11.96-46.93-6.47-11.133-14.792-20.14-22.986-29-.636-.688-1.27-1.373-1.9-2.057-16.293-17.66-31.186-35.036-31.186-69.12 0-35.406 16.07-52.78 33.085-71.177 17.18-18.574 34.945-37.782 34.945-75.93 0-19.95-4.864-34.715-11.958-46.923-6.47-11.134-14.793-20.143-22.988-29.002-.637-.687-1.27-1.373-1.903-2.06-16.29-17.66-31.183-35.033-31.183-69.115 0-22.7 6.61-37.983 15.835-50.88H73.69c-8.39 12.964-14.388 28.725-14.388 50.88 0 38.146 17.766 57.353 34.946 75.927 17.015 18.395 33.085 35.77 33.085 71.174 0 35.407-16.07 52.783-33.085 71.178-17.18 18.576-34.946 37.783-34.946 75.93s17.766 57.354 34.946 75.93c16.918 18.292 32.902 35.574 33.083 70.577-.024.168-.037.34-.037.513 0 35.405-16.07 52.78-33.085 71.174-1.12 1.212-2.243 2.427-3.363 3.65h9.524c16.764-18.138 33.736-37.22 33.924-74.202.028-.175.04-.354.04-.535zM100.04 515.386c0-38.147-17.766-57.354-34.946-75.93-17.015-18.397-33.085-35.772-33.085-71.178s16.07-52.782 33.084-71.178c17.18-18.575 34.946-37.782 34.946-75.93 0-38.145-17.766-57.352-34.946-75.926C48.08 126.85 32.01 109.476 32.01 74.07S48.08 21.293 65.093 2.897c.584-.63 1.168-1.263 1.753-1.896H57.32C41.006 18.732 25.01 37.874 25.01 74.07c0 19.953 4.865 34.72 11.96 46.928l1.9 2.056c8.193 8.86 16.516 17.867 22.985 29 16.292 17.66 31.186 35.034 31.186 69.118 0 35.406-16.07 52.78-33.084 71.176-17.18 18.575-34.946 37.783-34.946 75.93 0 19.956 4.866 34.723 11.962 46.934.63.684 1.263 1.368 1.897 2.054 8.192 8.86 16.514 17.866 22.983 28.998 16.196 17.558 31.012 34.832 31.186 68.522-.025.168-.038.34-.038.513 0 23.734-7.227 39.363-17.114 52.63h8.568c8.91-13.175 15.43-29.178 15.544-52.01.027-.175.04-.354.04-.534zM73.815 493.195c0-19.955-4.866-34.722-11.962-46.933-6.47-11.132-14.79-20.14-22.984-28.998-.635-.686-1.268-1.37-1.898-2.054-16.292-17.662-31.188-35.037-31.188-69.123 0-35.406 16.07-52.78 33.085-71.177 17.18-18.575 34.945-37.783 34.945-75.93 0-19.952-4.865-34.718-11.96-46.927-6.47-11.133-14.792-20.14-22.986-29-.636-.686-1.27-1.37-1.9-2.056C20.678 103.337 5.784 85.964 5.784 51.88c0-22.7 6.61-37.983 15.835-50.88H13.17C7.022 10.5 2.16 21.5 0 35.423v32.914c4.285 27.633 19.215 43.778 33.73 59.47 17.015 18.395 33.085 35.77 33.085 71.174 0 35.407-16.07 52.783-33.085 71.178C19.215 285.85 4.285 301.996 0 329.63v32.915c4.285 27.634 19.215 43.78 33.73 59.473 16.918 18.29 32.902 35.573 33.083 70.576-.024.168-.037.34-.037.513 0 35.405-16.07 52.78-33.085 71.174-1.12 1.213-2.243 2.428-3.363 3.65h9.524c16.764-18.137 33.736-37.218 33.924-74.2.027-.175.04-.354.04-.535zM39.52 221.17c0-38.145-17.766-57.352-34.946-75.926-1.536-1.66-3.064-3.313-4.574-4.972v9.554c.453.733.897 1.475 1.334 2.227 16.292 17.66 31.186 35.034 31.186 69.118 0 35.015-15.717 52.395-32.52 70.566v10.336c1.51-1.658 3.038-3.31 4.574-4.972 17.18-18.574 34.946-37.782 34.946-75.93zM39.52 515.386c0-38.147-17.766-57.354-34.946-75.93-1.536-1.662-3.064-3.315-4.574-4.973v9.556c.452.73.896 1.472 1.333 2.222 16.196 17.558 31.012 34.832 31.186 68.522-.025.168-.038.34-.038.513 0 23.735-7.227 39.364-17.114 52.632h8.568c8.91-13.177 15.43-29.18 15.544-52.01.026-.175.04-.354.04-.534zM6.326 1H0v6.868c1.51-1.658 3.038-3.31 4.574-4.972L6.326 1zM13.294 493.195c0-19.955-4.866-34.722-11.962-46.933-.437-.75-.88-1.492-1.333-2.223v15.18c3.846 9.24 6.223 20.013 6.29 33.374-.023.168-.036.34-.036.513 0 13.592-2.375 24.52-6.255 33.875v15.214c7.714-12.5 13.147-27.643 13.252-48.467.03-.175.042-.354.042-.535zM1.334 152.053c-.437-.75-.88-1.494-1.334-2.227v15.187c3.904 9.376 6.294 20.33 6.294 33.967S3.904 223.573 0 232.95v15.186C7.813 235.5 13.294 220.16 13.294 198.98c0-19.952-4.865-34.717-11.96-46.927z"/></g></svg>