<svg xmlns="http://www.w3.org/2000/svg" viewBox="0 0 566.93 566.93" enable-background="new 0 0 566.93 566.93"><path d="M520.637 47.11v.017h-.017v47.485l-47.485-47.485h.017V-.358h47.468v-.018l47.485 47.485h-47.468zm-47.204.157L425.948-.218V-.2H378.48v47.485h-.017l47.485 47.485V47.285h.017v-.018h47.468zm94.673 94.673L520.62 94.455v.018h-47.467v47.485h-.017l47.485 47.485v-47.485h.018v-.018h47.468zM378.76 47.425L331.275-.06v.018h-47.468v47.485h-.017l47.485 47.485V47.443h.017v-.018h47.468zm94.673 94.673l-47.485-47.485v.018H378.48v47.486h-.017l47.485 47.485v-47.484h.017v-.018h47.468zm94.673 94.672l-47.485-47.485v.018h-47.467v47.485h-.017l47.485 47.485v-47.485h.018v-.018h47.468zM284.086 47.583L236.603.098v.018h-47.468V47.6h-.017l47.485 47.486V47.6h.017v-.017h47.467zm94.674 94.672L331.275 94.77v.018h-47.468v47.485h-.017l47.485 47.485v-47.485h.017v-.018h47.468zm94.673 94.673l-47.485-47.485v.018H378.48v47.486h-.017l47.485 47.485v-47.484h.017v-.018h47.468zm94.673 94.673l-47.485-47.484v.018h-47.467v47.485h-.017l47.485 47.484V331.62h.018v-.02h47.468zM189.416 47.74L141.93.255v.018H94.46v47.485h-.016l47.485 47.485V47.76h.016v-.02h47.47zm94.67 94.673l-47.484-47.485v.018h-47.468v47.485h-.017l47.485 47.486V142.43h.017v-.017h47.467zm94.674 94.673L331.275 189.6v.02h-47.468v47.484h-.017l47.485 47.485v-47.486h.017v-.018h47.468zm94.673 94.673l-47.485-47.486v.018H378.48v47.485h-.017l47.485 47.485v-47.485h.017v-.018h47.468zm94.673 94.67l-47.485-47.484v.018h-47.467v47.485h-.017l47.485 47.484V426.45h.018v-.018h47.468zM94.742 47.9L47.257.413V.43H-.21v47.486H-.23L47.257 95.4V47.917h.017v-.018h47.468zm94.673 94.673L141.93 95.087v.018H94.46v47.485h-.016l47.485 47.484V142.59h.016v-.02h47.47zm94.672 94.674l-47.485-47.485v.017h-47.468v47.485h-.017l47.485 47.485v-47.485h.017v-.018h47.467zm94.673 94.672l-47.485-47.485v.02h-47.468v47.484h-.017l47.485 47.485v-47.486h.017v-.018h47.468zm94.673 94.673l-47.485-47.486v.018H378.48v47.485h-.017l47.485 47.485v-47.485h.017v-.018h47.468zm94.673 94.672l-47.485-47.485v.018h-47.467v47.485h-.017l47.485 47.485V521.28h.018v-.018h47.468zM94.742 142.73L47.257 95.243v.018H-.21v47.485H-.23l47.485 47.485v-47.485h.017v-.018h47.468zm94.673 94.67l-47.485-47.484v.018H94.46v47.485h-.016l47.485 47.484V237.42h.016v-.018h47.47zm94.672 94.674l-47.485-47.485v.017h-47.468v47.485h-.017l47.485 47.485v-47.485h.017v-.018h47.467zm94.673 94.673l-47.485-47.485v.018h-47.468v47.485h-.017l47.485 47.485v-47.485h.017v-.018h47.468zm94.673 94.673l-47.485-47.485v.018H378.48v47.485h-.017l47.485 47.485v-47.485h.017v-.018h47.468zM94.743 237.56l-47.486-47.486v.018H-.21v47.485H-.23l47.485 47.485v-47.485h.017v-.018h47.468zm94.672 94.672l-47.485-47.485v.018H94.46v47.485h-.016l47.485 47.485V332.25h.016v-.018h47.47zm94.672 94.673l-47.485-47.485v.018h-47.468v47.485h-.017l47.485 47.485v-47.485h.017v-.018h47.467zm94.673 94.672l-47.485-47.485v.018h-47.468v47.485h-.017l47.485 47.485v-47.485h.017v-.018h47.468zM94.742 332.39l-47.485-47.485v.018H-.21v47.485H-.23l47.485 47.485v-47.485h.017v-.018h47.468zm94.673 94.672l-47.485-47.485v.018H94.46v47.485h-.016l47.485 47.485V427.08h.016v-.018h47.47zm94.672 94.673l-47.485-47.485v.018h-47.468v47.485h-.017l47.485 47.485v-47.485h.017v-.018h47.467zM94.742 427.22l-47.485-47.485v.018H-.21v47.485H-.23l47.485 47.485v-47.485h.017v-.018h47.468zm94.673 94.673l-47.485-47.485v.018H94.46v47.485h-.016l47.485 47.486V521.91h.016v-.017h47.47zm-94.673.158l-47.485-47.484v.018H-.21v47.485H-.23l47.485 47.484V522.07h.017v-.02h47.468z"/></svg>