<svg xmlns="http://www.w3.org/2000/svg" viewBox="0 0 566.93 566.93" enable-background="new 0 0 566.93 566.93"><g fill="#010202"><path d="M552.437 115.614c4.53-3.16 9.26-6.492 13.48-10.38.342-.317.678-.64 1.013-.964V49.13c-.335-.322-.67-.646-1.013-.962-4.22-3.888-8.95-7.22-13.48-10.38-11.323-7.9-21.108-14.723-21.108-27.962 0-3.904.855-7.247 2.345-10.228h-14.32c-.877 3.096-1.368 6.485-1.368 10.228 0 20.197 14.248 30.14 26.822 38.908 11.322 7.9 21.108 14.724 21.108 27.963 0 13.242-9.786 20.07-21.11 27.972-12.573 8.772-26.82 18.713-26.82 38.917 0 20.197 14.247 30.14 26.82 38.908 11.324 7.9 21.11 14.724 21.11 27.963 0 13.242-9.786 20.07-21.11 27.972-12.573 8.772-26.82 18.714-26.82 38.918 0 20.197 14.247 30.14 26.82 38.908 11.324 7.9 21.11 14.724 21.11 27.963 0 13.24-9.786 20.07-21.11 27.97-12.573 8.774-26.82 18.715-26.82 38.92 0 20.196 14.247 30.137 26.82 38.907 11.324 7.9 21.11 14.724 21.11 27.963 0 13.242-9.505 20.488-21.11 27.972-16.617 10.72-28.382 19.466-26.82 38.917 0 9.195 2.957 16.26 7.362 22.06h18.937c-7.49-5.854-12.958-12.166-12.958-22.06 0-13.243 9.785-20.07 21.107-27.973 4.53-3.16 9.26-6.492 13.48-10.38.342-.317.678-.64 1.013-.964v-55.14c-.335-.322-.67-.646-1.013-.962-4.22-3.887-8.95-7.22-13.48-10.378-11.323-7.9-21.108-14.724-21.108-27.962 0-13.242 9.785-20.07 21.107-27.972 4.53-3.16 9.26-6.492 13.48-10.38.342-.317.678-.64 1.013-.964v-55.14c-.335-.322-.67-.646-1.013-.962-4.22-3.888-8.95-7.22-13.48-10.38-11.323-7.898-21.108-14.723-21.108-27.962 0-13.242 9.785-20.07 21.107-27.972 4.53-3.16 9.26-6.492 13.48-10.38.342-.317.678-.64 1.013-.964v-55.14c-.335-.322-.67-.646-1.013-.962-4.22-3.888-8.95-7.22-13.48-10.38-11.323-7.898-21.108-14.723-21.108-27.962 0-13.245 9.784-20.073 21.107-27.976zM466.126 449.45c-4.22-3.89-8.95-7.22-13.48-10.38-11.322-7.9-21.108-14.724-21.108-27.962 0-13.242 9.786-20.07 21.11-27.972 4.53-3.16 9.258-6.492 13.478-10.38 7.494-6.907 13.343-15.612 13.343-28.537 0-12.922-5.85-21.625-13.344-28.53-4.22-3.888-8.95-7.22-13.48-10.38-11.322-7.898-21.108-14.723-21.108-27.962 0-13.242 9.786-20.07 21.11-27.972 4.53-3.16 9.258-6.492 13.478-10.38 7.494-6.907 13.343-15.612 13.343-28.537 0-12.922-5.85-21.625-13.344-28.53-4.22-3.888-8.95-7.22-13.48-10.38-11.322-7.898-21.108-14.723-21.108-27.962 0-13.242 9.786-20.07 21.11-27.972 4.53-3.16 9.258-6.492 13.478-10.38 7.494-6.907 13.343-15.612 13.343-28.537 0-12.922-5.85-21.625-13.344-28.53-4.22-3.888-8.95-7.22-13.48-10.38-11.322-7.9-21.108-14.723-21.108-27.962 0-3.904.856-7.247 2.346-10.228h-14.32c-.877 3.096-1.368 6.485-1.368 10.228 0 20.197 14.248 30.14 26.822 38.908 11.323 7.9 21.11 14.724 21.11 27.963 0 13.24-9.787 20.07-21.11 27.97-12.574 8.774-26.822 18.715-26.822 38.92 0 20.196 14.248 30.138 26.822 38.907 11.323 7.9 21.11 14.724 21.11 27.963 0 13.242-9.787 20.07-21.11 27.972-12.574 8.772-26.822 18.714-26.822 38.918 0 20.197 14.248 30.14 26.822 38.908 11.323 7.9 21.11 14.724 21.11 27.963 0 13.243-9.787 20.07-21.11 27.973-12.574 8.773-26.822 18.714-26.822 38.918 0 20.198 14.248 30.14 26.822 38.91 11.323 7.9 21.11 14.723 21.11 27.962 0 13.242-9.787 20.07-21.11 27.972-12.574 8.772-26.822 18.714-26.822 38.917 0 9.197 2.958 16.262 7.363 22.063h18.936c-7.49-5.855-12.958-12.167-12.958-22.062 0-13.24 9.786-20.07 21.11-27.97 4.53-3.16 9.258-6.493 13.478-10.382 7.494-6.906 13.343-15.61 13.343-28.536 0-12.925-5.85-21.628-13.344-28.533zM502.545 439.07c-11.33-7.903-21.115-14.724-21.115-27.962 0-13.242 9.786-20.07 21.115-27.972 12.574-8.773 26.823-18.714 26.823-38.918 0-20.197-14.25-30.14-26.823-38.908-11.33-7.903-21.115-14.724-21.115-27.963 0-13.242 9.786-20.07 21.115-27.972 12.574-8.773 26.823-18.714 26.823-38.918 0-20.197-14.25-30.14-26.823-38.908-11.33-7.904-21.115-14.725-21.115-27.964 0-13.242 9.786-20.07 21.115-27.972 12.574-8.772 26.823-18.714 26.823-38.918 0-20.197-14.25-30.14-26.823-38.908-11.33-7.903-21.115-14.724-21.115-27.963 0-3.904.856-7.247 2.346-10.228h-14.32c-.877 3.096-1.368 6.485-1.368 10.228 0 20.2 14.25 30.14 26.822 38.908 11.33 7.903 21.116 14.727 21.116 27.963 0 13.242-9.786 20.07-21.116 27.972-12.574 8.773-26.822 18.714-26.822 38.918 0 20.2 14.25 30.14 26.822 38.908 11.33 7.903 21.116 14.727 21.116 27.963 0 13.242-9.786 20.07-21.116 27.972-12.574 8.77-26.822 18.713-26.822 38.917 0 20.2 14.25 30.14 26.822 38.908 11.33 7.903 21.116 14.727 21.116 27.963 0 13.242-9.786 20.07-21.116 27.972-12.574 8.773-26.822 18.714-26.822 38.918 0 20.2 14.25 30.138 26.822 38.908 11.33 7.903 21.116 14.727 21.116 27.963 0 13.24-9.786 20.07-21.116 27.97-12.574 8.773-26.822 18.715-26.822 38.918 0 9.197 2.958 16.262 7.362 22.062h18.942c-7.493-5.856-12.962-12.166-12.962-22.062 0-13.242 9.786-20.07 21.115-27.972 12.574-8.773 26.823-18.714 26.823-38.918 0-20.197-14.25-30.14-26.823-38.908zM366.335 449.45c-4.22-3.89-8.95-7.22-13.48-10.38-11.322-7.9-21.108-14.724-21.108-27.962 0-13.242 9.786-20.07 21.11-27.972 4.53-3.16 9.258-6.492 13.478-10.38 7.494-6.907 13.343-15.612 13.343-28.537 0-12.922-5.85-21.625-13.343-28.53-4.22-3.888-8.95-7.22-13.48-10.38-11.322-7.898-21.108-14.723-21.108-27.962 0-13.242 9.786-20.07 21.11-27.972 4.53-3.16 9.258-6.492 13.478-10.38 7.494-6.907 13.343-15.612 13.343-28.537 0-12.922-5.85-21.625-13.343-28.53-4.22-3.888-8.95-7.22-13.48-10.38-11.322-7.898-21.108-14.723-21.108-27.962 0-13.242 9.786-20.07 21.11-27.972 4.53-3.16 9.258-6.492 13.478-10.38 7.494-6.907 13.343-15.612 13.343-28.537 0-12.922-5.85-21.625-13.343-28.53-4.22-3.888-8.95-7.22-13.48-10.38-11.322-7.9-21.108-14.723-21.108-27.962 0-3.904.856-7.247 2.346-10.228h-14.32c-.877 3.096-1.368 6.485-1.368 10.228 0 20.197 14.25 30.14 26.822 38.908 11.323 7.9 21.11 14.724 21.11 27.963 0 13.24-9.787 20.07-21.11 27.97-12.574 8.774-26.822 18.715-26.822 38.92 0 20.196 14.25 30.138 26.822 38.907 11.323 7.9 21.11 14.724 21.11 27.963 0 13.242-9.787 20.07-21.11 27.972-12.574 8.772-26.822 18.714-26.822 38.918 0 20.197 14.25 30.14 26.822 38.908 11.323 7.9 21.11 14.724 21.11 27.963 0 13.243-9.787 20.07-21.11 27.973-12.574 8.773-26.822 18.714-26.822 38.918 0 20.198 14.25 30.14 26.822 38.91 11.323 7.9 21.11 14.723 21.11 27.962 0 13.242-9.787 20.07-21.11 27.972-12.574 8.772-26.822 18.714-26.822 38.917 0 9.197 2.958 16.262 7.363 22.063h18.937c-7.49-5.855-12.958-12.167-12.958-22.062 0-13.24 9.786-20.07 21.11-27.97 4.53-3.16 9.258-6.493 13.478-10.382 7.494-6.906 13.343-15.61 13.343-28.536 0-12.925-5.85-21.628-13.343-28.533zM402.754 439.07c-11.33-7.903-21.115-14.724-21.115-27.962 0-13.242 9.785-20.07 21.114-27.972 12.574-8.773 26.823-18.714 26.823-38.918 0-20.197-14.25-30.14-26.823-38.908-11.33-7.903-21.115-14.724-21.115-27.963 0-13.242 9.785-20.07 21.114-27.972 12.574-8.773 26.823-18.714 26.823-38.918 0-20.197-14.25-30.14-26.823-38.908-11.33-7.904-21.115-14.725-21.115-27.964 0-13.242 9.785-20.07 21.114-27.972 12.574-8.772 26.823-18.714 26.823-38.918 0-20.197-14.25-30.14-26.823-38.908-11.33-7.903-21.115-14.724-21.115-27.963 0-3.904.855-7.247 2.345-10.228h-14.32c-.878 3.096-1.37 6.485-1.37 10.228 0 20.2 14.25 30.14 26.824 38.908 11.33 7.903 21.114 14.727 21.114 27.963 0 13.242-9.786 20.07-21.115 27.972-12.575 8.773-26.824 18.714-26.824 38.918 0 20.2 14.25 30.14 26.823 38.908 11.33 7.903 21.114 14.727 21.114 27.963 0 13.242-9.786 20.07-21.115 27.972-12.575 8.77-26.824 18.713-26.824 38.917 0 20.2 14.25 30.14 26.823 38.908 11.33 7.903 21.114 14.727 21.114 27.963 0 13.242-9.786 20.07-21.115 27.972-12.575 8.773-26.824 18.714-26.824 38.918 0 20.2 14.25 30.138 26.823 38.908 11.33 7.903 21.114 14.727 21.114 27.963 0 13.24-9.786 20.07-21.115 27.97-12.575 8.773-26.824 18.715-26.824 38.918 0 9.197 2.958 16.262 7.362 22.062H394.6c-7.493-5.856-12.962-12.166-12.962-22.062 0-13.242 9.786-20.07 21.115-27.972 12.574-8.773 26.823-18.714 26.823-38.918 0-20.197-14.248-30.14-26.822-38.908zM266.544 449.45c-4.22-3.89-8.95-7.22-13.48-10.38-11.323-7.9-21.11-14.724-21.11-27.962h-13.342c-1.094 19.865 11.66 29.355 26.822 38.908 11.682 7.36 21.11 14.724 21.11 27.963 0 13.24-9.787 20.07-21.11 27.97-12.574 8.773-26.822 18.715-26.822 38.918 0 9.196 2.96 16.26 7.363 22.062h18.937c-7.49-5.855-12.958-12.167-12.958-22.062 0-13.242 9.786-20.07 21.11-27.972 4.53-3.16 9.258-6.492 13.48-10.38 7.493-6.907 13.342-15.612 13.342-28.537 0-12.923-5.848-21.626-13.342-28.53zM302.963 439.07c-11.33-7.903-21.115-14.724-21.115-27.962 0-13.242 9.786-20.07 21.115-27.972 12.574-8.773 26.823-18.714 26.823-38.918 0-20.197-14.25-30.14-26.823-38.908-11.33-7.903-21.115-14.724-21.115-27.963 0-13.242 9.786-20.07 21.115-27.972 12.574-8.773 26.823-18.714 26.823-38.918 0-20.197-14.25-30.14-26.823-38.908-11.33-7.904-21.115-14.725-21.115-27.964 0-13.242 9.786-20.07 21.115-27.972 12.574-8.772 26.823-18.714 26.823-38.918 0-20.197-14.25-30.14-26.823-38.908-11.33-7.903-21.115-14.724-21.115-27.963 0-3.904.856-7.247 2.346-10.228h-14.32c-.877 3.096-1.37 6.485-1.37 10.228 0 20.2 14.25 30.14 26.824 38.908 11.33 7.903 21.115 14.727 21.115 27.963 0 13.242-9.786 20.07-21.115 27.972-12.574 8.773-26.823 18.714-26.823 38.918 0 20.2 14.25 30.14 26.823 38.908 11.33 7.903 21.115 14.727 21.115 27.963 0 13.242-9.786 20.07-21.115 27.972-12.574 8.77-26.823 18.713-26.823 38.917 0 20.2 14.25 30.14 26.823 38.908 11.33 7.903 21.115 14.727 21.115 27.963 0 13.242-9.786 20.07-21.115 27.972-12.574 8.773-26.823 18.714-26.823 38.918 0 20.2 14.25 30.138 26.823 38.908 11.33 7.903 21.115 14.727 21.115 27.963 0 13.24-9.786 20.07-21.115 27.97-12.574 8.773-26.823 18.715-26.823 38.918 0 9.197 2.958 16.262 7.362 22.062h18.942c-7.494-5.856-12.963-12.166-12.963-22.062 0-13.242 9.786-20.07 21.115-27.972 12.574-8.773 26.823-18.714 26.823-38.918 0-20.197-14.248-30.14-26.822-38.908zM253.064 383.135c4.727-2.858 9.26-6.492 13.48-10.38 7.494-6.907 13.343-15.612 13.343-28.537 0-12.92-5.85-21.624-13.343-28.53-4.22-3.887-8.95-7.22-13.48-10.378-11.323-7.9-21.11-14.724-21.11-27.963 0-13.242 9.787-20.07 21.11-27.972 4.53-3.16 9.26-6.492 13.48-10.38 7.494-6.907 13.343-15.612 13.343-28.537 0-12.92-5.85-21.624-13.343-28.53-4.22-3.887-8.95-7.22-13.48-10.378-11.323-7.9-21.11-14.724-21.11-27.963 0-13.242 9.787-20.07 21.11-27.972 4.53-3.16 9.26-6.492 13.48-10.38 7.494-6.907 13.343-15.612 13.343-28.537 0-12.92-5.85-21.624-13.343-28.53-4.22-3.887-8.95-7.22-13.48-10.378-11.323-7.9-21.11-14.724-21.11-27.963 0-3.904.857-7.247 2.347-10.228h-14.32c-.876 3.095-1.367 6.484-1.367 10.227 0 20.197 14.25 30.14 26.822 38.908 11.323 7.9 21.11 14.724 21.11 27.963 0 13.242-9.787 20.07-21.11 27.972-12.574 8.773-26.822 18.714-26.822 38.918 0 20.197 14.25 30.14 26.822 38.908 11.323 7.9 21.11 14.724 21.11 27.963 0 13.24-9.787 20.07-21.11 27.97-12.574 8.773-26.822 18.715-26.822 38.92 0 20.196 14.25 30.138 26.822 38.907 11.323 7.9 21.11 14.724 21.11 27.963 0 13.242-9.787 20.07-21.11 27.972-12.574 8.773-26.822 18.714-26.822 38.918h13.343c-.052-13.81 9.693-21.073 21.108-27.975zM166.753 449.45c-4.22-3.89-8.95-7.22-13.48-10.38-11.322-7.9-21.108-14.724-21.108-27.962 0-13.242 9.786-20.07 21.11-27.972 4.53-3.16 9.258-6.492 13.478-10.38 7.494-6.907 13.343-15.612 13.343-28.537 0-12.922-5.85-21.625-13.343-28.53-4.22-3.888-8.95-7.22-13.48-10.38-11.322-7.898-21.108-14.723-21.108-27.962 0-13.242 9.786-20.07 21.11-27.972 4.53-3.16 9.258-6.492 13.478-10.38 7.494-6.907 13.343-15.612 13.343-28.537 0-12.922-5.85-21.625-13.343-28.53-4.22-3.888-8.95-7.22-13.48-10.38-11.322-7.898-21.108-14.723-21.108-27.962 0-13.242 9.786-20.07 21.11-27.972 4.53-3.16 9.258-6.492 13.478-10.38 7.494-6.907 13.343-15.612 13.343-28.537 0-12.922-5.85-21.625-13.343-28.53-4.22-3.888-8.95-7.22-13.48-10.38-11.322-7.9-21.108-14.723-21.108-27.962 0-3.904.856-7.247 2.346-10.228h-14.32c-.876 3.096-1.367 6.485-1.367 10.228 0 20.197 14.25 30.14 26.822 38.908 11.323 7.9 21.11 14.724 21.11 27.963 0 13.24-9.787 20.07-21.11 27.97-12.574 8.774-26.822 18.715-26.822 38.92 0 20.196 14.25 30.138 26.822 38.907 11.323 7.9 21.11 14.724 21.11 27.963 0 13.242-9.787 20.07-21.11 27.972-12.574 8.772-26.822 18.714-26.822 38.918 0 20.197 14.25 30.14 26.822 38.908 11.323 7.9 21.11 14.724 21.11 27.963 0 13.243-9.787 20.07-21.11 27.973-12.574 8.773-26.822 18.714-26.822 38.918 0 20.198 14.25 30.14 26.822 38.91 11.323 7.9 21.11 14.723 21.11 27.962 0 13.242-9.787 20.07-21.11 27.972-12.574 8.772-26.822 18.714-26.822 38.917 0 9.197 2.96 16.262 7.363 22.063h18.937c-7.49-5.855-12.958-12.167-12.958-22.062 0-13.24 9.786-20.07 21.11-27.97 4.53-3.16 9.258-6.493 13.478-10.382 7.494-6.906 13.343-15.61 13.343-28.536 0-12.925-5.85-21.628-13.343-28.533zM203.172 439.07c-11.33-7.903-21.115-14.724-21.115-27.962 0-13.242 9.785-20.07 21.115-27.972 12.574-8.773 26.822-18.714 26.822-38.918 0-20.197-14.25-30.14-26.822-38.908-11.33-7.903-21.115-14.724-21.115-27.963 0-13.242 9.785-20.07 21.115-27.972 12.574-8.773 26.822-18.714 26.822-38.918 0-20.197-14.25-30.14-26.822-38.908-11.33-7.904-21.115-14.725-21.115-27.964 0-13.242 9.785-20.07 21.115-27.972 12.574-8.772 26.822-18.714 26.822-38.918 0-20.197-14.25-30.14-26.822-38.908-11.33-7.903-21.115-14.724-21.115-27.963 0-3.904.855-7.247 2.346-10.228h-14.32c-.877 3.096-1.37 6.485-1.37 10.228 0 20.2 14.25 30.14 26.824 38.908 11.33 7.903 21.115 14.727 21.115 27.963 0 13.242-9.786 20.07-21.115 27.972-12.574 8.773-26.823 18.714-26.823 38.918 0 20.2 14.25 30.14 26.823 38.908 11.33 7.903 21.115 14.727 21.115 27.963 0 13.242-9.786 20.07-21.115 27.972-12.574 8.77-26.823 18.713-26.823 38.917 0 20.2 14.25 30.14 26.823 38.908 11.33 7.903 21.115 14.727 21.115 27.963 0 13.242-9.786 20.07-21.115 27.972-12.574 8.773-26.823 18.714-26.823 38.918 0 20.2 14.25 30.138 26.823 38.908 11.33 7.903 21.115 14.727 21.115 27.963 0 13.24-9.786 20.07-21.115 27.97-12.574 8.773-26.823 18.715-26.823 38.918 0 9.197 2.958 16.262 7.363 22.062h18.942c-7.494-5.856-12.962-12.166-12.962-22.062 0-13.242 9.785-20.07 21.115-27.972 12.574-8.773 26.822-18.714 26.822-38.918 0-20.197-14.25-30.14-26.823-38.908zM66.962 449.45c-4.22-3.89-8.95-7.22-13.48-10.38-11.322-7.9-21.108-14.724-21.108-27.962 0-13.242 9.786-20.07 21.11-27.972 4.53-3.16 9.258-6.492 13.478-10.38 7.494-6.907 13.343-15.612 13.343-28.537 0-12.922-5.85-21.625-13.343-28.53-4.22-3.888-8.95-7.22-13.48-10.38-11.322-7.898-21.108-14.723-21.108-27.962 0-13.242 9.786-20.07 21.11-27.972 4.53-3.16 9.258-6.492 13.478-10.38 7.494-6.907 13.343-15.612 13.343-28.537 0-12.922-5.85-21.625-13.343-28.53-4.22-3.888-8.95-7.22-13.48-10.38-11.322-7.898-21.108-14.723-21.108-27.962 0-13.242 9.786-20.07 21.11-27.972 4.53-3.16 9.258-6.492 13.478-10.38 7.494-6.907 13.343-15.612 13.343-28.537 0-12.922-5.85-21.625-13.343-28.53-4.22-3.888-8.95-7.22-13.48-10.38C42.16 29.89 32.375 23.068 32.375 9.83c0-3.904.856-7.247 2.346-10.228H20.4c-.877 3.096-1.368 6.485-1.368 10.228 0 20.197 14.25 30.14 26.823 38.908 11.323 7.9 21.108 14.724 21.108 27.963 0 13.24-9.786 20.07-21.108 27.97-12.574 8.774-26.823 18.715-26.823 38.92 0 20.196 14.25 30.138 26.823 38.907 11.323 7.9 21.108 14.724 21.108 27.963 0 13.242-9.786 20.07-21.108 27.972-12.574 8.772-26.823 18.714-26.823 38.918 0 20.197 14.25 30.14 26.823 38.908 11.323 7.9 21.108 14.724 21.108 27.963 0 13.243-9.786 20.07-21.108 27.973-12.574 8.773-26.823 18.714-26.823 38.918 0 20.198 14.25 30.14 26.823 38.91 11.323 7.9 21.108 14.723 21.108 27.962 0 13.242-9.786 20.07-21.108 27.972-12.574 8.772-26.823 18.714-26.823 38.917 0 9.197 2.96 16.262 7.363 22.063h18.937c-7.49-5.855-12.958-12.167-12.958-22.062 0-13.24 9.786-20.07 21.11-27.97 4.53-3.16 9.258-6.493 13.478-10.382 7.494-6.906 13.343-15.61 13.343-28.536 0-12.925-5.85-21.628-13.343-28.533zM103.38 439.07c-11.33-7.903-21.114-14.724-21.114-27.962 0-13.242 9.785-20.07 21.115-27.972 12.575-8.773 26.823-18.714 26.823-38.918 0-20.197-14.25-30.14-26.822-38.908-11.33-7.903-21.114-14.724-21.114-27.963 0-13.242 9.785-20.07 21.115-27.972 12.575-8.773 26.823-18.714 26.823-38.918 0-20.197-14.25-30.14-26.822-38.908-11.33-7.904-21.114-14.725-21.114-27.964 0-13.242 9.785-20.07 21.115-27.972 12.575-8.772 26.823-18.714 26.823-38.918 0-20.197-14.25-30.14-26.822-38.908-11.33-7.903-21.114-14.724-21.114-27.963 0-3.904.855-7.247 2.346-10.228h-14.32c-.877 3.096-1.368 6.485-1.368 10.228 0 20.2 14.248 30.14 26.822 38.908 11.33 7.903 21.115 14.727 21.115 27.963 0 13.242-9.785 20.07-21.114 27.972-12.574 8.773-26.822 18.714-26.822 38.918 0 20.2 14.248 30.14 26.822 38.908 11.33 7.903 21.115 14.727 21.115 27.963 0 13.242-9.785 20.07-21.114 27.972-12.574 8.77-26.822 18.713-26.822 38.917 0 20.2 14.248 30.14 26.822 38.908 11.33 7.903 21.115 14.727 21.115 27.963 0 13.242-9.785 20.07-21.114 27.972-12.574 8.773-26.822 18.714-26.822 38.918 0 20.2 14.248 30.138 26.822 38.908 11.33 7.903 21.115 14.727 21.115 27.963 0 13.24-9.785 20.07-21.114 27.97-12.574 8.773-26.822 18.715-26.822 38.918 0 9.197 2.958 16.262 7.362 22.062h18.942c-7.494-5.856-12.962-12.166-12.962-22.062 0-13.242 9.785-20.07 21.115-27.972 12.575-8.773 26.823-18.714 26.823-38.918 0-20.197-14.248-30.14-26.822-38.908zM30.413 76.697c0-20.197-14.25-30.14-26.822-38.908-.735-.515-1.465-1.023-2.186-1.53v16.336c8.845 6.47 15.666 13.052 15.666 24.1 0 11.056-6.82 17.64-15.666 24.11v16.337c.72-.507 1.45-1.015 2.187-1.53 12.574-8.77 26.823-18.713 26.823-38.916zM30.413 210.457c0-20.197-14.25-30.14-26.822-38.908-.735-.515-1.465-1.023-2.186-1.53v16.336c8.845 6.47 15.666 13.052 15.666 24.1 0 11.056-6.82 17.64-15.666 24.11v16.337c.72-.507 1.45-1.015 2.187-1.53 12.574-8.77 26.823-18.713 26.823-38.916zM30.413 344.217c0-20.197-14.25-30.14-26.822-38.908-.735-.515-1.465-1.023-2.186-1.53v16.336c8.845 6.47 15.666 13.052 15.666 24.1 0 11.056-6.82 17.64-15.666 24.11v16.337c.72-.507 1.45-1.015 2.187-1.53 12.574-8.77 26.823-18.712 26.823-38.916zM3.59 439.07c-.736-.513-1.466-1.022-2.187-1.53v16.337c8.845 6.47 15.666 13.052 15.666 24.1 0 11.055-6.822 17.64-15.667 24.11v16.337c.72-.506 1.45-1.015 2.187-1.53 12.574-8.772 26.822-18.713 26.822-38.917 0-20.196-14.248-30.138-26.822-38.907z"/></g></svg>