<?xml version="1.0" encoding="utf-8"?>
<!-- Generator: Adobe Illustrator 17.1.0, SVG Export Plug-In . SVG Version: 6.00 Build 0)  -->
<!DOCTYPE svg PUBLIC "-//W3C//DTD SVG 1.1//EN" "http://www.w3.org/Graphics/SVG/1.1/DTD/svg11.dtd">
<svg version="1.1" xmlns="http://www.w3.org/2000/svg" xmlns:xlink="http://www.w3.org/1999/xlink" x="0px" y="0px"
	 width="566.93px" height="566.93px" viewBox="0 0 566.93 566.93" enable-background="new 0 0 566.93 566.93" xml:space="preserve">
<g id="Ebene_1">
	<g>
		<polygon fill="none" points="340.374,434.562 223.073,366.531 105.768,434.562 -0.538,372.91 -0.538,415.011 105.768,476.663 
			223.073,408.631 340.374,476.663 457.676,408.631 566.392,471.684 566.392,429.583 457.676,366.531 		"/>
		<polygon fill="none" points="340.374,490.535 223.073,422.503 105.768,490.535 -0.538,428.883 -0.538,470.984 105.768,532.636 
			223.073,464.604 340.374,532.636 457.676,464.604 566.392,527.657 566.392,485.556 457.676,422.503 		"/>
		<polygon fill="none" points="401.892,566.802 513.459,566.802 457.676,534.449 		"/>
		<polygon fill="none" points="-0.538,566.802 44.248,566.802 -0.538,540.829 		"/>
		<polygon fill="none" points="167.288,566.802 278.856,566.802 223.073,534.449 		"/>
		<polygon fill="none" points="390.391,-0.128 290.357,-0.128 340.374,28.88 		"/>
		<polygon fill="none" points="155.787,-0.128 55.749,-0.128 105.768,28.88 		"/>
		<polygon fill="none" points="340.374,322.616 223.073,254.585 105.768,322.616 -0.538,260.965 -0.538,303.065 105.768,364.717 
			223.073,296.686 340.374,364.717 457.676,296.686 566.392,359.738 566.392,317.638 457.676,254.585 		"/>
		<polygon fill="none" points="414.31,-0.128 340.374,42.752 266.439,-0.128 179.706,-0.128 105.768,42.752 31.829,-0.128 
			-0.538,-0.128 -0.538,23.201 105.768,84.853 223.073,16.822 340.374,84.853 457.676,16.822 566.392,79.874 566.392,37.774 
			501.041,-0.128 		"/>
		<polygon fill="none" points="340.374,98.725 223.073,30.694 105.768,98.725 -0.538,37.073 -0.538,79.174 105.768,140.826 
			223.073,72.795 340.374,140.826 457.676,72.795 566.392,135.847 566.392,93.746 457.676,30.694 		"/>
		<polygon fill="none" points="340.374,378.589 223.073,310.558 105.768,378.589 -0.538,316.937 -0.538,359.038 105.768,420.69 
			223.073,352.659 340.374,420.69 457.676,352.659 566.392,415.711 566.392,373.61 457.676,310.558 		"/>
		<polygon fill="none" points="524.959,-0.128 566.392,23.902 566.392,-0.128 		"/>
		<polygon fill="none" points="340.374,266.644 223.073,198.612 105.768,266.644 -0.538,204.992 -0.538,247.093 105.768,308.744 
			223.073,240.713 340.374,308.744 457.676,240.713 566.392,303.766 566.392,261.665 457.676,198.612 		"/>
		<polygon fill="none" points="340.374,210.671 223.073,142.64 105.768,210.671 -0.538,149.019 -0.538,191.12 105.768,252.772 
			223.073,184.74 340.374,252.772 457.676,184.74 566.392,247.793 566.392,205.692 457.676,142.64 		"/>
		<polygon fill="none" points="340.374,154.698 223.073,86.667 105.768,154.698 -0.538,93.046 -0.538,135.147 105.768,196.799 
			223.073,128.767 340.374,196.799 457.676,128.767 566.392,191.82 566.392,149.719 457.676,86.667 		"/>
		<polygon fill="none" points="340.374,546.508 223.073,478.476 105.768,546.508 -0.538,484.856 -0.538,526.957 68.167,566.802 
			143.368,566.802 223.073,520.577 302.775,566.802 377.973,566.802 457.676,520.577 537.377,566.802 566.392,566.802 
			566.392,541.529 457.676,478.476 		"/>
		<polygon fill="#010202" points="414.31,-0.128 390.391,-0.128 340.374,28.88 290.357,-0.128 266.439,-0.128 340.374,42.752 		"/>
		<polygon fill="#010202" points="179.706,-0.128 155.787,-0.128 105.768,28.88 55.749,-0.128 31.829,-0.128 105.768,42.752 		"/>
		<polygon fill="#010202" points="501.041,-0.128 566.392,37.774 566.392,23.902 524.959,-0.128 		"/>
		<polygon fill="#010202" points="340.374,84.853 223.073,16.822 105.768,84.853 -0.538,23.201 -0.538,37.073 105.768,98.725 
			223.073,30.694 340.374,98.725 457.676,30.694 566.392,93.746 566.392,79.874 457.676,16.822 		"/>
		<polygon fill="#010202" points="340.374,140.826 223.073,72.795 105.768,140.826 -0.538,79.174 -0.538,93.046 105.768,154.698 
			223.073,86.667 340.374,154.698 457.676,86.667 566.392,149.719 566.392,135.847 457.676,72.795 		"/>
		<polygon fill="#010202" points="340.374,196.799 223.073,128.767 105.768,196.799 -0.538,135.147 -0.538,149.019 105.768,210.671 
			223.073,142.64 340.374,210.671 457.676,142.64 566.392,205.692 566.392,191.82 457.676,128.767 		"/>
		<polygon fill="#010202" points="340.374,252.772 223.073,184.74 105.768,252.772 -0.538,191.12 -0.538,204.992 105.768,266.644 
			223.073,198.612 340.374,266.644 457.676,198.612 566.392,261.665 566.392,247.793 457.676,184.74 		"/>
		<polygon fill="#010202" points="340.374,308.744 223.073,240.713 105.768,308.744 -0.538,247.093 -0.538,260.965 105.768,322.616 
			223.073,254.585 340.374,322.616 457.676,254.585 566.392,317.638 566.392,303.766 457.676,240.713 		"/>
		<polygon fill="#010202" points="340.374,364.717 223.073,296.686 105.768,364.717 -0.538,303.065 -0.538,316.937 105.768,378.589 
			223.073,310.558 340.374,378.589 457.676,310.558 566.392,373.61 566.392,359.738 457.676,296.686 		"/>
		<polygon fill="#010202" points="340.374,420.69 223.073,352.659 105.768,420.69 -0.538,359.038 -0.538,372.91 105.768,434.562 
			223.073,366.531 340.374,434.562 457.676,366.531 566.392,429.583 566.392,415.711 457.676,352.659 		"/>
		<polygon fill="#010202" points="340.374,476.663 223.073,408.631 105.768,476.663 -0.538,415.011 -0.538,428.883 105.768,490.535 
			223.073,422.503 340.374,490.535 457.676,422.503 566.392,485.556 566.392,471.684 457.676,408.631 		"/>
		<polygon fill="#010202" points="340.374,532.636 223.073,464.604 105.768,532.636 -0.538,470.984 -0.538,484.856 105.768,546.508 
			223.073,478.476 340.374,546.508 457.676,478.476 566.392,541.529 566.392,527.657 457.676,464.604 		"/>
		<polygon fill="#010202" points="-0.538,540.829 44.248,566.802 68.167,566.802 -0.538,526.957 		"/>
		<polygon fill="#010202" points="143.368,566.802 167.288,566.802 223.073,534.449 278.856,566.802 302.775,566.802 
			223.073,520.577 		"/>
		<polygon fill="#010202" points="377.973,566.802 401.892,566.802 457.676,534.449 513.459,566.802 537.377,566.802 
			457.676,520.577 		"/>
	</g>
</g>
<g id="Ebene_2">
</g>
</svg>
