<?xml version="1.0" encoding="utf-8"?>
<!-- Generator: Adobe Illustrator 17.1.0, SVG Export Plug-In . SVG Version: 6.00 Build 0)  -->
<!DOCTYPE svg PUBLIC "-//W3C//DTD SVG 1.1//EN" "http://www.w3.org/Graphics/SVG/1.1/DTD/svg11.dtd">
<svg version="1.1" xmlns="http://www.w3.org/2000/svg" xmlns:xlink="http://www.w3.org/1999/xlink" x="0px" y="0px"
	 width="566.93px" height="566.93px" viewBox="0 0 566.93 566.93" enable-background="new 0 0 566.93 566.93" xml:space="preserve">
<g id="Ebene_1">
	<g>
		<rect x="15.044" y="-0.154" fill="#010202" width="7" height="566.825"/>
	</g>
	<g>
		<rect x="44.729" y="-0.154" fill="#010202" width="7" height="566.825"/>
	</g>
	<g>
		<rect x="74.414" y="-0.154" fill="#010202" width="7" height="566.825"/>
	</g>
	<g>
		<rect x="104.098" y="-0.154" fill="#010202" width="7" height="566.825"/>
	</g>
	<g>
		<rect x="133.783" y="-0.154" fill="#010202" width="7" height="566.825"/>
	</g>
	<g>
		<rect x="163.468" y="-0.154" fill="#010202" width="7" height="566.825"/>
	</g>
	<g>
		<rect x="193.153" y="-0.154" fill="#010202" width="7" height="566.825"/>
	</g>
	<g>
		<rect x="222.838" y="-0.154" fill="#010202" width="7" height="566.825"/>
	</g>
	<g>
		<rect x="252.522" y="-0.154" fill="#010202" width="7" height="566.825"/>
	</g>
	<g>
		<rect x="282.207" y="-0.154" fill="#010202" width="7" height="566.825"/>
	</g>
	<g>
		<rect x="311.892" y="-0.154" fill="#010202" width="7" height="566.825"/>
	</g>
	<g>
		<rect x="341.577" y="-0.154" fill="#010202" width="7" height="566.825"/>
	</g>
	<g>
		<rect x="371.261" y="-0.154" fill="#010202" width="7" height="566.825"/>
	</g>
	<g>
		<rect x="400.946" y="-0.154" fill="#010202" width="7" height="566.825"/>
	</g>
	<g>
		<rect x="430.631" y="-0.154" fill="#010202" width="7" height="566.825"/>
	</g>
	<g>
		<rect x="460.316" y="-0.154" fill="#010202" width="7" height="566.825"/>
	</g>
	<g>
		<rect x="490.001" y="-0.154" fill="#010202" width="7" height="566.825"/>
	</g>
	<g>
		<rect x="519.685" y="-0.154" fill="#010202" width="7" height="566.825"/>
	</g>
	<g>
		<rect x="549.37" y="-0.154" fill="#010202" width="7" height="566.825"/>
	</g>
</g>
<g id="Ebene_2">
</g>
</svg>
