<?xml version="1.0" encoding="utf-8"?>
<!-- Generator: Adobe Illustrator 17.1.0, SVG Export Plug-In . SVG Version: 6.00 Build 0)  -->
<!DOCTYPE svg PUBLIC "-//W3C//DTD SVG 1.1//EN" "http://www.w3.org/Graphics/SVG/1.1/DTD/svg11.dtd">
<svg version="1.1" xmlns="http://www.w3.org/2000/svg" xmlns:xlink="http://www.w3.org/1999/xlink" x="0px" y="0px"
	 width="566.93px" height="566.93px" viewBox="0 0 566.93 566.93" enable-background="new 0 0 566.93 566.93" xml:space="preserve">
<g id="Ebene_1">
	<g>
		
			<rect x="149.956" y="40.908" transform="matrix(0.942 -0.3356 0.3356 0.942 -16.8592 69.4709)" fill="none" width="85.213" height="85.209"/>
		
			<rect x="63.091" y="71.856" transform="matrix(0.942 -0.3356 0.3356 0.942 -32.2842 42.1127)" fill="none" width="85.213" height="85.209"/>
		
			<rect x="385.594" y="152.736" transform="matrix(0.942 -0.3356 0.3356 0.942 -40.7252 155.0378)" fill="none" width="85.238" height="85.228"/>
		
			<rect x="354.642" y="65.865" transform="matrix(0.942 -0.3356 0.3356 0.942 -13.3642 139.6193)" fill="none" width="85.237" height="85.22"/>
		
			<rect x="267.768" y="96.819" transform="matrix(0.942 -0.3356 0.3356 0.942 -28.7919 112.2559)" fill="none" width="85.223" height="85.218"/>
		
			<rect x="94.04" y="158.717" transform="matrix(0.942 -0.3356 0.3356 0.942 -59.6422 57.538)" fill="none" width="85.212" height="85.215"/>
		
			<rect x="298.72" y="183.689" transform="matrix(0.942 -0.3356 0.3356 0.942 -56.1518 127.6751)" fill="none" width="85.223" height="85.23"/>
		
			<rect x="242.81" y="301.518" transform="matrix(0.942 -0.3356 0.3356 0.942 -98.9422 115.7498)" fill="none" width="85.212" height="85.233"/>
		
			<rect x="329.673" y="270.568" transform="matrix(0.942 -0.3356 0.3356 0.942 -83.517 143.1099)" fill="none" width="85.223" height="85.233"/>
		
			<rect x="273.764" y="388.401" transform="matrix(0.942 -0.3356 0.3356 0.942 -126.3058 131.1785)" fill="none" width="85.211" height="85.225"/>
		
			<rect x="416.547" y="239.614" transform="matrix(0.942 -0.3356 0.3356 0.942 -68.0891 170.474)" fill="none" width="85.238" height="85.233"/>
		
			<rect x="100.007" y="450.325" transform="matrix(-0.3356 -0.942 0.942 -0.3356 -273.8631 792.7258)" fill="none" width="85.211" height="85.225"/>
		
			<rect x="211.856" y="214.637" transform="matrix(0.942 -0.3356 0.3356 0.942 -71.5763 100.3169)" fill="none" width="85.212" height="85.231"/>
		<polygon fill="none" points="57.241,380.189 57.252,380.218 57.252,380.218 57.218,380.23 85.822,460.511 166.104,431.909 
			166.092,431.876 166.106,431.883 166.128,431.875 137.522,351.586 		"/>
		<polygon fill="none" points="408.358,541.381 408.358,541.381 488.643,512.776 460.036,432.497 460.036,432.497 460.036,432.497 
			460.031,432.507 460.029,432.498 379.748,461.1 408.351,541.383 		"/>
		
			<rect x="38.111" y="276.536" transform="matrix(-0.3356 -0.942 0.942 -0.3356 -192.8127 502.3082)" fill="none" width="85.235" height="85.224"/>
		
			<rect x="441.531" y="34.91" transform="matrix(0.942 -0.3356 0.3356 0.942 2.0637 166.9829)" fill="none" width="85.225" height="85.222"/>
		<polygon fill="none" points="203.648,516.42 283.928,487.818 283.922,487.801 283.934,487.806 283.943,487.803 255.34,407.521 
			175.071,436.119 175.08,436.142 175.079,436.142 175.047,436.153 		"/>
		<polygon fill="none" points="464.279,423.556 464.28,423.554 464.28,423.554 544.566,394.95 515.96,314.668 515.961,314.667 
			435.671,343.273 464.273,423.555 464.279,423.553 		"/>
		
			<rect x="155.937" y="332.477" transform="matrix(0.3356 0.942 -0.942 0.3356 485.2426 62.1614)" fill="none" width="85.233" height="85.211"/>
		
			<rect x="180.904" y="127.769" transform="matrix(0.942 -0.3356 0.3356 0.942 -44.2175 84.896)" fill="none" width="85.212" height="85.216"/>
		
			<rect x="360.625" y="357.453" transform="matrix(0.3356 0.942 -0.942 0.3356 644.7672 -114.0518)" fill="none" width="85.225" height="85.223"/>
		
			<rect x="124.993" y="245.583" transform="matrix(0.942 -0.3356 0.3356 0.942 -86.9996 72.9602)" fill="none" width="85.212" height="85.233"/>
		<polygon fill="#010202" points="488.643,512.776 408.358,541.381 408.358,541.381 408.357,541.383 410.708,547.974 
			490.993,519.37 		"/>
		<polygon fill="#010202" points="497.587,517.02 568.662,491.697 568.662,484.266 495.237,510.427 		"/>
		
			<rect x="502.098" y="369.935" transform="matrix(-0.3357 -0.942 0.942 -0.3357 286.6922 1027.2894)" fill="#010202" width="7" height="85.228"/>
		<rect x="460.036" y="432.497" fill="#010202" width="0.001" height="0"/>
		<polygon fill="#010202" points="568.662,393.796 568.662,386.365 551.159,392.601 553.509,399.194 		"/>
		<polygon fill="#010202" points="522.554,312.32 568.662,295.893 568.662,288.462 520.204,305.726 		"/>
		<polygon fill="#010202" points="515.964,314.659 515.961,314.667 515.96,314.668 544.566,394.95 546.915,401.544 568.662,462.577 
			568.662,441.722 553.509,399.194 551.159,392.601 522.554,312.32 520.204,305.726 520.204,305.726 520.204,305.726 		"/>
		<polygon fill="#010202" points="464.28,423.554 464.279,423.556 464.276,423.563 460.036,432.497 460.036,432.497 
			488.643,512.776 490.993,519.37 508.558,568.662 515.989,568.662 497.587,517.02 495.237,510.427 466.63,430.148 464.28,423.554 
					"/>
		<polygon fill="#010202" points="408.357,541.383 408.353,541.39 406.235,545.853 410.706,547.975 410.708,547.976 
			410.708,547.974 		"/>
		<polygon fill="#010202" points="25.226,0 19.687,0 20.311,1.751 		"/>
		<polygon fill="#010202" points="13.716,4.101 12.256,0 4.369,0 0,1.557 0,8.988 		"/>
		<polygon fill="#010202" points="300.018,0 279.16,0 222.644,20.136 224.993,26.73 		"/>
		
			<rect x="86.724" y="28.424" transform="matrix(0.3357 0.942 -0.942 0.3357 126.8498 -37.8013)" fill="#010202" width="7" height="85.213"/>
		<polygon fill="#010202" points="0,99.46 0,106.891 44.67,90.976 42.32,84.382 		"/>
		
			<rect x="173.589" y="-2.525" transform="matrix(0.3356 0.942 -0.942 0.3356 155.4172 -140.1887)" fill="#010202" width="7" height="85.213"/>
		
			<rect x="165.429" y="123.443" transform="matrix(0.942 -0.3356 0.3356 0.942 -30.5378 77.1829)" fill="#010202" width="85.213" height="7"/>
		<polygon fill="#010202" points="0,197.347 0,204.778 75.617,177.837 73.268,171.243 		"/>
		
			<rect x="378.286" y="22.42" transform="matrix(0.3357 0.942 -0.942 0.3357 314.9041 -316.4288)" fill="#010202" width="7" height="85.237"/>
		<polygon fill="#010202" points="568.662,2.174 568.662,0 553.907,0 514.228,14.137 516.577,20.731 		"/>
		
			<rect x="291.405" y="53.381" transform="matrix(0.3356 0.942 -0.942 0.3356 286.3644 -214.0241)" fill="#010202" width="7" height="85.224"/>
		
			<rect x="465.168" y="-8.528" transform="matrix(0.3356 0.942 -0.942 0.3356 343.496 -418.8427)" fill="#010202" width="7" height="85.225"/>
		
			<rect x="78.565" y="154.391" transform="matrix(0.942 -0.3356 0.3356 0.942 -45.9626 49.8248)" fill="#010202" width="85.213" height="7"/>
		<polygon fill="#010202" points="17.341,289.059 0,295.237 0,302.668 19.691,295.653 		"/>
		
			<rect x="22.639" y="272.206" transform="matrix(-0.942 0.3356 -0.3356 -0.942 219.2451 513.5245)" fill="#010202" width="85.224" height="7"/>
		
			<rect x="283.243" y="179.363" transform="matrix(0.942 -0.3356 0.3356 0.942 -42.4708 119.9618)" fill="#010202" width="85.223" height="7"/>
		<polygon fill="#010202" points="568.662,100.076 568.662,92.645 545.179,101.011 547.529,107.605 		"/>
		
			<rect x="109.515" y="241.258" transform="matrix(0.942 -0.3356 0.3356 0.942 -73.3183 65.2464)" fill="#010202" width="85.212" height="7"/>
		
			<rect x="370.118" y="148.411" transform="matrix(0.942 -0.3356 0.3356 0.942 -27.0444 147.3246)" fill="#010202" width="85.238" height="7"/>
		
			<rect x="196.379" y="210.312" transform="matrix(0.942 -0.3356 0.3356 0.942 -57.8949 92.6029)" fill="#010202" width="85.212" height="7"/>
		
			<rect x="496.119" y="78.346" transform="matrix(-0.3356 -0.942 0.942 -0.3356 553.3411 632.1959)" fill="#010202" width="7" height="85.225"/>
		
			<rect x="92.707" y="319.978" transform="matrix(-0.3356 -0.942 0.942 -0.3356 -213.068 574.9023)" fill="#010202" width="7" height="85.224"/>
		<polygon fill="#010202" points="568.662,197.979 568.662,190.548 489.256,218.839 491.605,225.433 		"/>
		
			<rect x="227.333" y="297.193" transform="matrix(0.942 -0.3356 0.3356 0.942 -85.2608 108.0366)" fill="#010202" width="85.211" height="7"/>
		<polygon fill="#010202" points="48.308,375.974 48.298,375.944 48.268,375.955 		"/>
		
			<rect x="314.196" y="266.243" transform="matrix(0.942 -0.3356 0.3356 0.942 -69.8349 135.396)" fill="#010202" width="85.223" height="7"/>
		
			<rect x="401.07" y="235.289" transform="matrix(0.942 -0.3356 0.3356 0.942 -54.407 162.7599)" fill="#010202" width="85.238" height="7"/>
		
			<rect x="179.576" y="289.035" transform="matrix(0.3356 0.942 -0.942 0.3356 434.0442 47.8851)" fill="#010202" width="7" height="85.211"/>
		
			<rect x="345.15" y="353.126" transform="matrix(0.942 -0.3356 0.3356 0.942 -97.1992 150.8247)" fill="#010202" width="85.223" height="7"/>
		<polygon fill="#010202" points="515.961,314.667 515.964,314.659 514.79,311.365 513.616,308.071 433.321,336.679 
			435.671,343.273 		"/>
		
			<rect x="210.531" y="375.918" transform="matrix(0.3356 0.942 -0.942 0.3356 536.4542 76.4498)" fill="#010202" width="7" height="85.21"/>
		<polygon fill="#010202" points="166.136,431.897 166.128,431.875 166.106,431.883 		"/>
		
			<rect x="297.393" y="344.971" transform="matrix(0.3357 0.942 -0.942 0.3357 564.9871 -25.9531)" fill="#010202" width="7" height="85.211"/>
		<polygon fill="#010202" points="460.029,432.498 458.857,429.21 457.679,425.904 377.399,454.507 379.748,461.1 		"/>
		<polygon fill="#010202" points="464.279,423.553 464.273,423.555 464.276,423.563 464.279,423.556 		"/>
		<polygon fill="#010202" points="283.945,487.812 283.943,487.803 283.934,487.806 		"/>
		
			<rect x="289.24" y="470.952" transform="matrix(0.942 -0.3356 0.3356 0.942 -139.9874 138.8927)" fill="#010202" width="85.21" height="7"/>
		<polygon fill="#010202" points="408.358,541.381 408.351,541.383 408.353,541.39 408.357,541.383 		"/>
		<polygon fill="#010202" points="246.996,109.347 249.345,115.941 277.945,196.216 280.295,202.81 308.899,283.097 
			311.248,289.691 339.853,369.98 342.202,376.574 370.804,456.856 373.154,463.45 401.754,543.726 401.763,543.731 
			406.235,545.853 408.353,541.39 408.351,541.383 379.748,461.1 377.399,454.507 348.796,374.224 346.447,367.631 317.842,287.341 
			315.493,280.747 286.889,200.461 284.54,193.867 255.94,113.591 253.59,106.997 224.993,26.73 222.644,20.136 215.47,0 208.039,0 
			216.05,22.485 218.399,29.079 		"/>
		<polygon fill="#010202" points="160.132,140.295 162.481,146.889 191.081,227.162 193.43,233.756 222.036,314.044 
			224.385,320.638 252.99,400.927 255.34,407.521 283.943,487.803 283.945,487.812 292.866,492.046 292.889,492.057 
			292.889,492.057 292.886,492.048 290.537,485.454 261.934,405.172 259.584,398.578 230.979,318.289 228.63,311.695 
			200.025,231.407 197.675,224.813 169.075,144.539 166.726,137.945 138.128,57.678 135.779,51.084 117.578,0 110.148,0 
			129.185,53.433 131.534,60.028 		"/>
		<polygon fill="#010202" points="42.32,84.382 44.67,90.976 73.268,171.243 75.617,177.837 104.217,258.109 106.567,264.703 
			135.173,344.992 137.522,351.586 166.128,431.875 166.136,431.897 175.035,436.121 175.079,436.142 175.08,436.142 
			175.071,436.119 172.722,429.526 144.116,349.237 141.767,342.643 113.16,262.353 110.811,255.759 82.211,175.488 79.861,168.893 
			51.263,88.627 48.914,82.033 20.311,1.751 19.687,0 12.256,0 13.716,4.101 		"/>
		<polygon fill="#010202" points="48.308,375.974 57.206,380.197 57.252,380.218 57.252,380.218 57.241,380.189 54.892,373.595 
			26.285,293.304 23.935,286.71 0,219.531 0,240.387 17.341,289.059 19.691,295.653 48.298,375.944 		"/>
		<polygon fill="#010202" points="364.82,165.266 367.17,171.86 395.773,252.145 398.122,258.739 426.727,339.028 429.076,345.622 
			457.679,425.904 458.857,429.21 460.029,432.498 460.031,432.507 460.036,432.497 460.036,432.497 464.276,423.563 
			464.273,423.555 435.671,343.273 433.321,336.679 404.716,256.39 402.367,249.796 373.764,169.511 371.415,162.917 342.814,82.64 
			340.465,76.045 313.372,0 305.941,0 333.871,78.395 336.22,84.989 		"/>
		<polygon fill="#010202" points="451.709,134.311 454.058,140.905 482.662,221.188 485.011,227.782 513.616,308.071 
			514.79,311.365 515.964,314.659 520.204,305.726 520.209,305.716 491.605,225.433 489.256,218.839 460.653,138.556 
			458.303,131.962 429.701,51.683 427.352,45.089 411.288,0 403.857,0 420.758,47.438 423.108,54.032 		"/>
		<polygon fill="#010202" points="538.586,103.36 540.935,109.954 568.662,187.779 568.662,166.922 547.529,107.605 
			545.179,101.011 516.577,20.731 514.228,14.137 509.191,0 501.76,0 507.634,16.486 509.983,23.08 		"/>
		<polygon fill="#010202" points="406.235,545.853 404.112,550.325 404.112,550.325 410.645,568.662 418.076,568.662 
			410.706,547.975 		"/>
		<polygon fill="#010202" points="401.763,543.731 401.754,543.726 401.753,543.726 331.763,568.662 352.62,568.662 
			404.109,550.317 		"/>
		<polygon fill="#010202" points="292.866,492.046 292.872,492.063 292.889,492.057 		"/>
		<polygon fill="#010202" points="57.017,568.662 77.874,568.662 112.528,556.316 110.178,549.722 		"/>
		
			<rect x="202.351" y="501.916" transform="matrix(0.942 -0.3356 0.3356 0.942 -155.4176 111.5282)" fill="#010202" width="85.224" height="7"/>
		
			<rect x="115.476" y="532.868" transform="matrix(0.942 -0.3356 0.3356 0.942 -170.8448 84.1671)" fill="#010202" width="85.225" height="7"/>
		<polygon fill="#010202" points="175.047,436.153 175.079,436.142 175.035,436.121 		"/>
		
			<rect x="123.638" y="406.895" transform="matrix(-0.3357 -0.942 0.942 -0.3357 -253.6165 720.1471)" fill="#010202" width="7" height="85.224"/>
		<polygon fill="#010202" points="79.229,462.86 0,491.087 0,494.39 1.305,498.053 81.578,469.454 		"/>
		<polygon fill="#010202" points="57.206,380.197 57.218,380.23 57.252,380.218 		"/>
		<polygon fill="#010202" points="48.275,375.985 0,393.184 0,400.615 50.624,382.579 		"/>
		<polygon fill="#010202" points="0,515.246 19.031,568.662 26.462,568.662 1.305,498.053 0,494.39 		"/>
		<polygon fill="#010202" points="88.172,467.105 85.822,460.511 57.218,380.23 57.206,380.197 48.308,375.974 48.268,375.955 
			48.263,375.952 48.275,375.985 50.624,382.579 79.229,462.86 81.578,469.454 110.178,549.722 112.528,556.316 116.927,568.662 
			124.358,568.662 119.122,553.967 116.772,547.373 		"/>
		<polygon fill="#010202" points="203.648,516.42 175.047,436.153 175.035,436.121 166.136,431.897 166.106,431.883 
			166.092,431.876 166.104,431.909 168.453,438.503 197.054,518.77 199.403,525.364 214.831,568.662 222.262,568.662 
			205.997,523.014 		"/>
		<polygon fill="#010202" points="292.866,492.046 283.945,487.812 283.934,487.806 283.922,487.801 283.928,487.818 
			286.278,494.412 312.737,568.662 320.168,568.662 292.872,492.063 		"/>
		<polygon fill="#010202" points="406.235,545.853 401.763,543.731 404.109,550.317 404.112,550.325 404.112,550.325 		"/>
	</g>
</g>
<g id="Ebene_2">
</g>
</svg>
