<svg xmlns="http://www.w3.org/2000/svg" xmlns:xlink="http://www.w3.org/1999/xlink" width="566.93" height="566.93" viewBox="0 0 566.93 566.93"><pattern x="-6137.084" width="72" height="72" patternUnits="userSpaceOnUse" viewBox="2.55 -74.55 72 72" overflow="visible"><path fill="none" d="M2.55-74.55h72v72h-72z"/><defs><path id="a" d="M2.55-74.55h72v72h-72z"/></defs><clipPath id="b"><use xlink:href="#a" overflow="visible"/></clipPath><path clip-path="url(#b)" fill="none" stroke="#020305" stroke-width="2.6" stroke-linecap="round" d="M25.8-8.3M14.05-3.3M17.05-10.3M17.3-6.05M20.3-10.05M22.55-6.55M23.8-3.05M31.55-7.55M27.55-5.8M19.55-3.8M30.3-3.8M34.3-4.8M31.55-7.55M30.8-10.3M28.8-13.3M24.8-11.55M24.55-15.05M19.55-14.05M22.8-17.3M25.3-21.05M28.05-21.8M31.05-20.05M30.55-16.8M32.55-14.55M36.8-14.55M35.05-19.3M37.3-22.8M33.8-23.05M30.3-23.8M39.8-18.3M34.55-11.05M36.55-8.05M39.3-4.55M40.05-7.8M39.8-10.8M40.05-14.55M43.55-6.3M44.3-10.05M43.8-14.05M44.05-18.55M45.55-22.05M40.8-21.8M42.05-26.3M37.8-26.05M49.55-23.55M48.55-20.05M47.55-16.55M47.8-12.55M47.55-8.3M47.3-5.05M52.3-4.05M51.55-8.3M55.05-8.3M54.8-11.8M51.05-11.55M51.3-16.05M54.8-16.05M52.05-19.55M53.55-23.8M55.3-27.05M57.8-24.3M56.3-20.8M58.55-17.8M58.8-13.55M59.05-8.55M62.3-9.55M60.55-5.05M64.3-6.05M67.55-4.3M69.55-6.3M66.05-9.3M65.3-13.05M62.55-15.3M65.05-18.05M68.8-19.05M66.8-21.3M63.3-21.8M60.55-21.3M62.3-25.55M66.8-24.3M71.05-25.3M71.05-21.8M68.05-15.05M68.8-11.3M72.3-9.3M73.3-4.55M72.3-15.8M74.05-19.3M59.05-8.55M60.55-5.05M57.55-2.8M56.55-5.8M26.55-25.3M22.55-22.55M18.55-23.55M19.55-19.55M17.3-16.55M15.05-13.8M15.05-20.05M18.55-23.55M21.05-25.8M16.55-27.3M14.05-24.3M26.55-17.8M4.55-8.3M3.05-11.55M3.3-14.8M5.8-17.8M2.05-19.3M3.55-22.05M2.8-25.3M7.8-21.05M6.3-14.3M10.3-3.3M11.55-7.05M8.3-7.55M8.55-10.8M13.3-10.05M6.3-4.8M9.55-15.55M12.3-13.3M12.3-17.3M15.05-20.05M10.8-21.8M8.3-27.3M7.55-24.3M17.55-73.05M17.55-73.05M21.05-72.05M26.55-73.05M31.8-72.55M35.3-73.05M40.3-72.55M47.55-69.8M52.3-71.55M62.3-73.05M70.3-73.8M57.55-74.8M56.3-71.05M3.3-73.3M12.8-72.05M8.3-72.3M24.55-28.05M29.05-29.05M32.8-27.05M31.55-31.05M28.8-33.05M25.3-32.3M22.05-33.05M20.55-29.3M18.55-31.8M15.3-30.55M12.05-32.05M11.05-35.3M12.55-39.55M15.05-37.05M17.8-34.55M21.55-36.8M18.55-39.3M15.55-42.05M12.3-43.8M12.55-39.55M9.3-41.05M8.3-36.55M8.05-31.3M5.05-33.3M4.3-37.3M1.8-30.3M4.3-28.8M2.05-40.3M5.55-40.8M6.05-44.55M1.3-44.3M3.8-47.8M5.3-50.55M6.3-53.55M9.8-51.55M8.05-47.55M12.05-48.05M14.55-51.05M17.55-52.05M20.3-53.55M15.05-46.8M18.55-48.05M21.8-49.05M18.8-43.55M22.8-44.55M23.55-40.3M26.05-43.3M28.8-40.8M25.05-47.3M28.55-49.3M28.55-53.3M24.55-51.55M32.05-50.3M34.05-47.05M32.8-43.05M32.8-39.05M29.55-37.3M26.05-37.3M32.55-33.8M35.55-36.55M38.55-37.05M36.05-41.05M37.05-44.8M34.05-47.05M37.3-48.55M40.3-52.8M35.3-51.8M41.05-48.8M40.8-44.3M40.05-40.8M35.55-36.55M38.55-37.05M36.3-33.3M35.8-29.3M39.55-29.55M40.3-34.05M42.55-37.3M45.55-39.8M45.05-43.55M44.3-47.3M46.3-50.8M49.3-47.8M49.3-52.3M49.05-43.05M50.3-40.05M47.05-36.05M45.3-33.55M43.3-31.3M46.55-29.3M45.55-25.3M50.3-28.05M49.05-32.3M51.05-35.55M54.3-38.05M54.05-42.05M53.05-46.05M56.8-45.3M56.55-49.8M59.3-52.8M60.05-48.05M60.05-44.3M59.05-40.3M29.8-45.3M72.8-34.55M73.8-30.3M70.55-28.55M70.8-37.8M70.55-41.55M74.05-40.3M73.3-44.3M72.55-51.8M71.55-48.3M69.05-32.3M65.55-32.55M66.55-27.8M63.05-29.3M59.3-28.3M55.8-30.05M52.8-31.05M55.05-34.8M59.3-32.3M62.3-35.3M58.55-36.8M62.55-39.55M67.05-36.05M66.8-39.3M64.05-43.55M65.3-47.55M60.05-48.05M62.8-50.3M68.3-50.55M68.05-44.8M52.55-50.3M64.3-54.05M9.3-60.05M10.3-55.55M13.55-54.3M12.55-58.3M16.05-60.3M16.05-64.3M12.05-62.55M19.55-61.3M19.8-64.3M21.55-58.05M24.55-55.8M21.55-58.05M24.8-59.55M27.8-63.8M22.8-62.8M28.55-60.8M28.3-56.3M32.55-54.55M31.8-57.55M33.05-61.3M36.8-58.8M36.55-64.3M37.05-55.3M40.55-57.05M17.3-56.3M39.55-61.05M3.3-67.8M6.05-66.55M5.05-70.55M14.05-70.3M12.8-66.3M17.05-68.05M14.05-70.3M20.8-67.55M25.05-66.8M24.3-69.8M29.3-71.05M29.55-67.55M33.55-70.05M36.8-68.55M9.8-68.55M44.05-53.55M46.55-59.8M47.05-55.8M51.8-54.8M52.55-59.55M49.55-62.3M46.3-64.05M46.55-59.8M44.3-67.3M49.05-67.05M52.55-68.3M52.8-63.8M2.8-58.55M5.8-62.3M6.3-57.55M72.55-70.3M69.3-68.8M75.3-67.8M72.05-55.05M71.8-60.3M72.05-55.05M73.55-64.05M41.8-64.55M40.3-67.55M55.55-61.8M58.55-62.3M56.05-66.3M60.05-66.05M55.55-61.8M58.55-62.3M56.3-57.8M60.3-59.3M62.55-62.55M64.55-64.8M65.05-68.8M67.05-61.3M65.3-58.8M61.05-55.8M69.05-57.55M69.3-64.8M56.05-54.3M60.8-69.55M66.8-71.55M67.8-54.05M12.05-27.55M8.3-64.05M32.8-65.05M43.05-59.55M49.8-58.05M43.55-74.05M43.55-2.05M70.3-1.8M57.55-2.8M14.05-75.3M23.8-75.05M19.55-75.8M30.3-75.8M57.55-74.8M10.3-75.3M57.55-74.8M75.05-11.55M75.3-14.8M75.55-22.05M74.8-25.3M75.3-73.3M1.3-4.55M3.8-54.55M3.3-1.3M75.8-47.8M74.8-58.55M75.8-54.55M48.8-73.05M43.05-70.55M1.55-64.05"/></pattern><g><defs><path id="c" d="M0-3.73h570.66v570.66H0z"/></defs><clipPath id="d"><use xlink:href="#c" overflow="visible"/></clipPath><path clip-path="url(#d)" fill="url(#SVGID_8_)" d="M0-3.73h570.66v570.66H0z"/></g></svg>