<?xml version="1.0" encoding="utf-8"?>
<!-- Generator: Adobe Illustrator 17.1.0, SVG Export Plug-In . SVG Version: 6.00 Build 0)  -->
<!DOCTYPE svg PUBLIC "-//W3C//DTD SVG 1.1//EN" "http://www.w3.org/Graphics/SVG/1.1/DTD/svg11.dtd">
<svg version="1.1" xmlns="http://www.w3.org/2000/svg" xmlns:xlink="http://www.w3.org/1999/xlink" x="0px" y="0px"
	 width="566.93px" height="566.93px" viewBox="0 0 566.93 566.93" enable-background="new 0 0 566.93 566.93" xml:space="preserve">
<g id="Ebene_1">
	<line fill="none" stroke="#010202" stroke-width="5" stroke-miterlimit="10" x1="19.676" y1="0" x2="19.676" y2="566.825"/>
	<line fill="none" stroke="#010202" stroke-width="5" stroke-miterlimit="10" x1="43.657" y1="0" x2="43.657" y2="566.825"/>
	<line fill="none" stroke="#010202" stroke-width="5" stroke-miterlimit="10" x1="67.638" y1="0" x2="67.638" y2="566.825"/>
	<line fill="none" stroke="#010202" stroke-width="5" stroke-miterlimit="10" x1="91.618" y1="0" x2="91.618" y2="566.825"/>
	<line fill="none" stroke="#010202" stroke-width="5" stroke-miterlimit="10" x1="115.599" y1="0" x2="115.599" y2="566.825"/>
	<line fill="none" stroke="#010202" stroke-width="5" stroke-miterlimit="10" x1="139.58" y1="0" x2="139.58" y2="566.825"/>
	<line fill="none" stroke="#010202" stroke-width="5" stroke-miterlimit="10" x1="163.561" y1="0" x2="163.561" y2="566.825"/>
	<line fill="none" stroke="#010202" stroke-width="5" stroke-miterlimit="10" x1="187.542" y1="0" x2="187.542" y2="566.825"/>
	<line fill="none" stroke="#010202" stroke-width="5" stroke-miterlimit="10" x1="211.523" y1="0" x2="211.523" y2="566.825"/>
	<line fill="none" stroke="#010202" stroke-width="5" stroke-miterlimit="10" x1="235.503" y1="0" x2="235.503" y2="566.825"/>
	<line fill="none" stroke="#010202" stroke-width="5" stroke-miterlimit="10" x1="259.484" y1="0" x2="259.484" y2="566.825"/>
	<line fill="none" stroke="#010202" stroke-width="5" stroke-miterlimit="10" x1="283.465" y1="0" x2="283.465" y2="566.825"/>
	<line fill="none" stroke="#010202" stroke-width="5" stroke-miterlimit="10" x1="307.446" y1="0" x2="307.446" y2="566.825"/>
	<line fill="none" stroke="#010202" stroke-width="5" stroke-miterlimit="10" x1="331.427" y1="0" x2="331.427" y2="566.825"/>
	<line fill="none" stroke="#010202" stroke-width="5" stroke-miterlimit="10" x1="355.407" y1="0" x2="355.407" y2="566.825"/>
	<line fill="none" stroke="#010202" stroke-width="5" stroke-miterlimit="10" x1="379.388" y1="0" x2="379.388" y2="566.825"/>
	<line fill="none" stroke="#010202" stroke-width="5" stroke-miterlimit="10" x1="403.369" y1="0" x2="403.369" y2="566.825"/>
	<line fill="none" stroke="#010202" stroke-width="5" stroke-miterlimit="10" x1="427.35" y1="0" x2="427.35" y2="566.825"/>
	<line fill="none" stroke="#010202" stroke-width="5" stroke-miterlimit="10" x1="451.331" y1="0" x2="451.331" y2="566.825"/>
	<line fill="none" stroke="#010202" stroke-width="5" stroke-miterlimit="10" x1="475.312" y1="0" x2="475.312" y2="566.825"/>
	<line fill="none" stroke="#010202" stroke-width="5" stroke-miterlimit="10" x1="499.292" y1="0" x2="499.292" y2="566.825"/>
	<line fill="none" stroke="#010202" stroke-width="5" stroke-miterlimit="10" x1="523.273" y1="0" x2="523.273" y2="566.825"/>
	<line fill="none" stroke="#010202" stroke-width="5" stroke-miterlimit="10" x1="547.254" y1="0" x2="547.254" y2="566.825"/>
</g>
<g id="Ebene_2">
</g>
</svg>
