<svg xmlns="http://www.w3.org/2000/svg" viewBox="0 0 566.93 566.93" enable-background="new 0 0 566.93 566.93"><g fill="#010202"><path d="M532.72 0l34.21 19.84V5.968L556.64 0zM340.912 24.82L383.705 0h-23.918l-18.875 10.947L322.037 0H298.12zM106.305 24.82L149.1 0h-23.92l-18.875 10.947L87.43 0H63.51zM217.888 0h-23.92l-87.663 50.84L18.642 0H0v3.06l106.305 61.652zM452.49 0h-23.917l-87.66 50.84L253.252 0h-23.92l111.58 64.712zM566.93 45.862L487.854 0h-23.918L566.93 59.734zM223.61 36.575l117.302 68.03 117.302-68.03L566.93 99.627V85.755L458.214 22.703l-117.302 68.03-117.3-68.03-117.307 68.03L0 29.084v13.87l106.305 61.653zM223.61 76.468L340.913 144.5l117.302-68.032L566.93 139.52v-13.87L458.214 62.595l-117.302 68.032-117.3-68.032-117.307 68.032L0 68.976v13.872L106.305 144.5zM340.912 170.52l-117.3-68.03-117.307 68.03L0 108.87v13.87l106.305 61.654 117.306-68.032 117.302 68.032 117.302-68.032 108.716 63.053v-13.873L458.214 102.49zM340.912 210.415l-117.3-68.032-117.307 68.032L0 148.763v13.872l106.305 61.652 117.306-68.032 117.302 68.032 117.302-68.032 108.716 63.053v-13.872l-108.716-63.053zM340.912 250.31l-117.3-68.033-117.307 68.032L0 188.656v13.872l106.305 61.65 117.306-68.03 117.302 68.03 117.302-68.03L566.93 259.2V245.33l-108.716-63.053zM340.912 290.202l-117.3-68.03-117.307 68.03L0 228.553v13.87l106.305 61.652 117.306-68.03 117.302 68.03 117.302-68.03 108.716 63.052v-13.873L458.214 222.17zM340.912 330.096l-117.3-68.032-117.307 68.033L0 268.444v13.872l106.305 61.652 117.306-68.03 117.302 68.03 117.302-68.03L566.93 338.99v-13.873l-108.716-63.053zM340.912 369.99l-117.3-68.032-117.307 68.032L0 308.337v13.872l106.305 61.65 117.306-68.03 117.302 68.032 117.302-68.032 108.716 63.053V365.01l-108.716-63.053zM340.912 409.883l-117.3-68.032-117.307 68.033L0 348.23v13.873l106.305 61.652 117.306-68.03 117.302 68.03 117.302-68.03 108.716 63.052v-13.873L458.214 341.85zM340.912 449.776l-117.3-68.03-117.307 68.03L0 388.127v13.87l106.305 61.652 117.306-68.03 117.302 68.03 117.302-68.03L566.93 458.67v-13.872l-108.716-63.053zM340.912 489.67l-117.3-68.03-117.307 68.03L0 428.02v13.87l106.305 61.652 117.306-68.03 117.302 68.03 117.302-68.03 108.716 63.052v-13.872L458.214 421.64zM340.912 529.563l-117.3-68.03-117.307 68.03L0 467.914v13.87l106.305 61.653 117.306-68.03 117.302 68.03 117.302-68.03 108.716 63.05v-13.87L458.214 461.53zM110.664 566.93h23.92l89.027-51.63 89.025 51.63h23.92L223.61 501.427zM101.947 566.93L0 507.806v13.872l78.03 45.252zM345.27 566.93h23.92l89.024-51.63 89.024 51.63h19.692v-2.45l-108.716-63.054zM223.61 541.32l-44.157 25.61h23.92l20.238-11.738 20.24 11.738h23.918zM458.214 541.32l-44.16 25.61h23.92l20.24-11.738 20.238 11.738h23.92zM33.16 566.93L0 547.7v13.87l9.24 5.36z"/></g></svg>