<?xml version="1.0" encoding="utf-8"?>
<!-- Generator: Adobe Illustrator 17.1.0, SVG Export Plug-In . SVG Version: 6.00 Build 0)  -->
<!DOCTYPE svg PUBLIC "-//W3C//DTD SVG 1.1//EN" "http://www.w3.org/Graphics/SVG/1.1/DTD/svg11.dtd">
<svg version="1.1" xmlns="http://www.w3.org/2000/svg" xmlns:xlink="http://www.w3.org/1999/xlink" x="0px" y="0px"
	 width="566.93px" height="566.93px" viewBox="0 0 566.93 566.93" enable-background="new 0 0 566.93 566.93" xml:space="preserve">
<g id="Ebene_1">
	<g>
		<defs>
			<rect id="SVGID_3_" x="-617.935" y="-624.299" width="566.929" height="566.93"/>
		</defs>
		<clipPath id="SVGID_2_">
			<use xlink:href="#SVGID_3_"  overflow="visible"/>
		</clipPath>
		<g clip-path="url(#SVGID_2_)">
			<circle fill="#FFFFFF" stroke="#000000" stroke-width="8" stroke-miterlimit="10" cx="157.585" cy="-40.531" r="70.149"/>
			<circle fill="#FFFFFF" stroke="#000000" stroke-width="7" stroke-miterlimit="10" cx="157.585" cy="-40.531" r="52.612"/>
		</g>
		<g clip-path="url(#SVGID_2_)">
			<circle fill="#FFFFFF" stroke="#000000" stroke-width="8" stroke-miterlimit="10" cx="-0.497" cy="-40.531" r="70.149"/>
			<circle fill="#FFFFFF" stroke="#000000" stroke-width="7" stroke-miterlimit="10" cx="-0.497" cy="-40.531" r="52.612"/>
		</g>
	</g>
	<g>
		<path fill="none" d="M251.742,53.945l32.326,18.664l32.326-18.664V16.618l-28.78-16.617h-7.092l-28.78,16.617V53.945z
			 M266.584,25.186l17.483-10.094l17.484,10.094v20.189l-17.484,10.094l-17.483-10.094V25.186z"/>
		<polygon fill="none" points="295.552,41.91 295.552,28.651 284.068,22.02 272.584,28.651 272.584,41.911 284.068,48.541 		"/>
		<polygon fill="none" points="458.002,66.445 511.981,97.61 565.959,66.445 565.959,4.117 558.831,0.001 527.527,0.001 
			550.308,13.153 550.308,57.409 511.981,79.536 473.655,57.409 473.655,13.153 496.435,0.001 465.131,0.001 458.002,4.117 		"/>
		<polygon fill="none" points="409.508,41.911 409.508,28.651 398.025,22.02 386.54,28.651 386.54,41.91 398.025,48.541 		"/>
		<path fill="none" d="M365.698,53.945l32.327,18.664l32.326-18.664V16.618l-28.78-16.617h-7.092l-28.781,16.617V53.945z
			 M380.54,25.186l17.484-10.094l17.483,10.094v20.189l-17.483,10.094L380.54,45.375V25.186z"/>
		<polygon fill="none" points="344.046,66.445 398.025,97.61 452.002,66.445 452.002,4.117 444.874,0.001 413.571,0.001 
			436.351,13.153 436.351,57.409 398.025,79.536 359.698,57.409 359.698,13.153 382.479,0.001 351.175,0.001 344.046,4.117 		"/>
		<polygon fill="none" points="536.633,547.866 567.929,565.935 567.929,548.795 551.476,539.296 551.476,519.108 567.929,509.609 
			567.929,492.469 536.633,510.538 		"/>
		<polygon fill="none" points="514.981,560.366 526.35,566.93 557.653,566.93 530.633,551.33 530.633,507.074 567.929,485.541 
			567.929,467.468 514.981,498.038 		"/>
		<polygon fill="none" points="557.476,535.832 567.929,541.867 567.929,516.536 557.476,522.573 		"/>
		<polygon fill="none" points="557.476,338.263 567.929,344.299 567.929,318.968 557.476,325.003 		"/>
		<polygon fill="none" points="443.519,522.573 443.519,535.832 455.002,542.462 466.487,535.831 466.487,522.573 455.002,515.942 
					"/>
		<polygon fill="none" points="509.777,566.93 514.184,566.93 511.981,565.658 		"/>
		<path fill="none" d="M422.676,510.538v37.327l32.326,18.664l32.327-18.664v-37.327l-32.327-18.664L422.676,510.538z
			 M472.487,539.296l-17.484,10.094l-17.483-10.094v-20.188l17.483-10.094l17.484,10.094V539.296z"/>
		<polygon fill="none" points="523.465,41.91 523.465,28.651 511.981,22.02 500.497,28.651 500.497,41.911 511.981,48.541 		"/>
		<polygon fill="none" points="514.981,165.229 567.929,195.799 567.929,177.726 530.633,156.194 530.633,111.937 567.929,90.405 
			567.929,72.331 514.981,102.901 		"/>
		<polygon fill="none" points="536.633,152.729 567.929,170.798 567.929,153.659 551.476,144.159 551.476,123.97 567.929,114.471 
			567.929,97.332 536.633,115.402 		"/>
		<path fill="none" d="M479.655,53.945l32.326,18.664l32.327-18.664V16.618L515.527,0.001h-7.092l-28.78,16.617V53.945z
			 M494.497,25.186l17.483-10.094l17.484,10.094v20.189l-17.484,10.094l-17.483-10.094V25.186z"/>
		<polygon fill="none" points="514.981,362.797 567.929,393.367 567.929,375.294 530.633,353.762 530.633,309.505 567.929,287.973 
			567.929,269.9 514.981,300.47 		"/>
		<polygon fill="none" points="557.476,140.695 567.929,146.731 567.929,121.399 557.476,127.434 		"/>
		<polygon fill="none" points="536.633,350.297 567.929,368.367 567.929,351.227 551.476,341.728 551.476,321.539 567.929,312.04 
			567.929,294.901 536.633,312.97 		"/>
		<path fill="none" d="M422.676,312.97v37.327l32.326,18.664l32.327-18.664V312.97l-32.327-18.664L422.676,312.97z M472.487,341.728
			l-17.484,10.094l-17.483-10.094v-20.188l17.483-10.094l17.484,10.094V341.728z"/>
		<path fill="none" d="M202.438,251.513v-37.327l-32.327-18.664l-32.326,18.664v37.327l32.326,18.664L202.438,251.513z
			 M152.627,222.754l17.483-10.093l17.484,10.093v20.189l-17.484,10.094l-17.483-10.094V222.754z"/>
		<polygon fill="none" points="181.595,239.479 181.595,226.219 170.111,219.589 158.627,226.219 158.627,239.479 170.111,246.11 		
			"/>
		<path fill="none" d="M281.068,165.229v-62.328l-53.979-31.164l-53.979,31.164v62.328l53.979,31.165L281.068,165.229z
			 M188.763,111.937l38.326-22.127l38.327,22.127v44.257l-38.327,22.127l-38.326-22.127V111.937z"/>
		<path fill="none" d="M116.133,264.013l53.978,31.165l53.979-31.165v-62.328l-53.979-31.164l-53.978,31.164V264.013z
			 M131.784,210.721l38.326-22.127l38.327,22.127v44.257l-38.327,22.127l-38.326-22.127V210.721z"/>
		<path fill="none" d="M259.416,152.729v-37.327l-32.327-18.664l-32.326,18.664v37.327l32.326,18.664L259.416,152.729z
			 M209.606,123.97l17.483-10.094l17.484,10.094v20.189l-17.484,10.094l-17.483-10.094V123.97z"/>
		<path fill="none" d="M145.459,152.729v-37.327l-32.326-18.664l-32.327,18.664v37.327l32.327,18.664L145.459,152.729z
			 M95.649,123.97l17.484-10.094l17.483,10.094v20.189l-17.483,10.094l-17.484-10.094V123.97z"/>
		<path fill="none" d="M88.481,251.513v-37.327l-32.326-18.664l-32.327,18.664v37.327l32.327,18.664L88.481,251.513z M38.67,222.754
			l17.484-10.093l17.483,10.093v20.189l-17.483,10.094L38.67,242.944V222.754z"/>
		<polygon fill="none" points="67.638,239.479 67.638,226.219 56.155,219.589 44.67,226.219 44.67,239.479 56.155,246.11 		"/>
		<path fill="none" d="M167.111,165.229v-62.328l-53.978-31.164l-53.979,31.164v62.328l53.979,31.165L167.111,165.229z
			 M74.806,111.937l38.327-22.127l38.326,22.127v44.257l-38.326,22.127l-38.327-22.127V111.937z"/>
		<polygon fill="none" points="124.617,140.695 124.617,127.434 113.133,120.804 101.649,127.435 101.649,140.695 113.133,147.326 
					"/>
		<polygon fill="none" points="238.574,140.695 238.574,127.435 227.089,120.804 215.606,127.434 215.606,140.695 227.089,147.326 
					"/>
		<polygon fill="none" points="352.53,140.695 352.53,127.434 341.046,120.804 329.562,127.435 329.562,140.695 341.046,147.326 		
			"/>
		<path fill="none" d="M344.046,264.013l53.979,31.165l53.978-31.165v-62.328l-53.978-31.164l-53.979,31.164V264.013z
			 M359.698,210.721l38.327-22.127l38.326,22.127v44.257l-38.326,22.127l-38.327-22.127V210.721z"/>
		<path fill="none" d="M430.351,251.513v-37.327l-32.326-18.664l-32.327,18.664v37.327l32.327,18.664L430.351,251.513z
			 M380.54,222.754l17.484-10.093l17.483,10.093v20.189l-17.483,10.094l-17.484-10.094V222.754z"/>
		<polygon fill="none" points="409.508,239.479 409.508,226.219 398.025,219.589 386.54,226.219 386.54,239.479 398.025,246.11 		
			"/>
		<path fill="none" d="M487.329,152.729v-37.327l-32.327-18.664l-32.326,18.664v37.327l32.326,18.664L487.329,152.729z
			 M437.519,123.97l17.483-10.094l17.484,10.094v20.189l-17.484,10.094l-17.483-10.094V123.97z"/>
		<path fill="none" d="M110.133,264.013v-62.328l-53.979-31.164L2.176,201.685v62.328l53.979,31.165L110.133,264.013z
			 M17.827,210.721l38.327-22.127l38.326,22.127v44.257l-38.326,22.127l-38.327-22.127V210.721z"/>
		<path fill="none" d="M508.981,165.229v-62.328l-53.979-31.164l-53.978,31.164v62.328l53.978,31.165L508.981,165.229z
			 M416.676,111.937l38.326-22.127l38.327,22.127v44.257l-38.327,22.127l-38.326-22.127V111.937z"/>
		<path fill="none" d="M316.394,251.513v-37.327l-32.326-18.664l-32.326,18.664v37.327l32.326,18.664L316.394,251.513z
			 M266.584,222.754l17.483-10.093l17.484,10.093v20.189l-17.484,10.094l-17.483-10.094V222.754z"/>
		<path fill="none" d="M373.372,152.729v-37.327l-32.326-18.664l-32.327,18.664v37.327l32.327,18.664L373.372,152.729z
			 M323.562,123.97l17.484-10.094l17.483,10.094v20.189l-17.483,10.094l-17.484-10.094V123.97z"/>
		<polygon fill="none" points="295.552,239.479 295.552,226.219 284.068,219.589 272.584,226.219 272.584,239.479 284.068,246.11 		
			"/>
		<path fill="none" d="M395.025,165.229v-62.328l-53.979-31.164l-53.979,31.164v62.328l53.979,31.165L395.025,165.229z
			 M302.719,111.937l38.327-22.127l38.326,22.127v44.257l-38.326,22.127l-38.327-22.127V111.937z"/>
		<path fill="none" d="M230.089,264.013l53.979,31.165l53.979-31.165v-62.328l-53.979-31.164l-53.979,31.164V264.013z
			 M245.742,210.721l38.326-22.127l38.326,22.127v44.257l-38.326,22.127l-38.326-22.127V210.721z"/>
		<path fill="none" d="M308.719,312.97v37.327l32.327,18.664l32.326-18.664V312.97l-32.326-18.664L308.719,312.97z M358.53,341.728
			l-17.483,10.094l-17.484-10.094v-20.188l17.484-10.094l17.483,10.094V341.728z"/>
		<path fill="none" d="M230.089,399.254v62.327l53.979,31.165l53.979-31.165v-62.327l-53.979-31.165L230.089,399.254z
			 M322.394,452.546l-38.326,22.127l-38.326-22.127v-44.257l38.326-22.127l38.326,22.127V452.546z"/>
		<polygon fill="none" points="329.562,325.004 329.562,338.263 341.046,344.894 352.53,338.263 352.53,325.003 341.046,318.373 		
			"/>
		<polygon fill="none" points="272.584,423.788 272.584,437.047 284.068,443.678 295.552,437.047 295.552,423.788 284.068,417.158 
					"/>
		<path fill="none" d="M251.742,411.754v37.327l32.326,18.664l32.326-18.664v-37.327l-32.326-18.664L251.742,411.754z
			 M301.552,440.512l-17.484,10.094l-17.483-10.094v-20.188l17.483-10.094l17.484,10.094V440.512z"/>
		<polygon fill="none" points="416.676,551.33 416.676,507.074 455.002,484.947 493.329,507.074 493.329,551.33 466.309,566.93 
			497.611,566.93 508.981,560.366 508.981,498.038 455.002,466.873 401.025,498.038 401.025,560.366 412.394,566.93 443.696,566.93 
					"/>
		<path fill="none" d="M452.002,399.254l-53.978-31.165l-53.979,31.165v62.327l53.979,31.165l53.978-31.165V399.254z
			 M436.351,452.546l-38.326,22.127l-38.327-22.127v-44.257l38.327-22.127l38.326,22.127V452.546z"/>
		<path fill="none" d="M281.068,300.47l-53.979-31.165l-53.979,31.165v62.327l53.979,31.165l53.979-31.165V300.47z M265.416,353.762
			l-38.327,22.127l-38.326-22.127v-44.257l38.326-22.127l38.327,22.127V353.762z"/>
		<polygon fill="none" points="386.54,423.788 386.54,437.047 398.025,443.678 409.508,437.047 409.508,423.788 398.025,417.158 		
			"/>
		<path fill="none" d="M365.698,411.754v37.327l32.327,18.664l32.326-18.664v-37.327l-32.326-18.664L365.698,411.754z
			 M415.508,440.512l-17.483,10.094l-17.484-10.094v-20.188l17.484-10.094l17.483,10.094V440.512z"/>
		<path fill="none" d="M395.025,300.47l-53.979-31.165l-53.979,31.165v62.327l53.979,31.165l53.979-31.165V300.47z M379.372,353.762
			l-38.326,22.127l-38.327-22.127v-44.257l38.327-22.127l38.326,22.127V353.762z"/>
		<path fill="none" d="M23.827,411.754v37.327l32.327,18.664l32.326-18.664v-37.327L56.155,393.09L23.827,411.754z M73.638,440.512
			l-17.483,10.094L38.67,440.512v-20.188l17.484-10.094l17.483,10.094V440.512z"/>
		<path fill="none" d="M167.111,300.47l-53.978-31.165L59.155,300.47v62.327l53.979,31.165l53.978-31.165V300.47z M151.459,353.762
			l-38.326,22.127l-38.327-22.127v-44.257l38.327-22.127l38.326,22.127V353.762z"/>
		<path fill="none" d="M80.806,312.97v37.327l32.327,18.664l32.326-18.664V312.97l-32.326-18.664L80.806,312.97z M130.617,341.728
			l-17.483,10.094l-17.484-10.094v-20.188l17.484-10.094l17.483,10.094V341.728z"/>
		<polygon fill="none" points="101.649,325.004 101.649,338.263 113.133,344.894 124.617,338.263 124.617,325.003 113.133,318.373 
					"/>
		<path fill="none" d="M2.176,399.254v62.327l53.979,31.165l53.979-31.165v-62.327l-53.979-31.165L2.176,399.254z M94.481,452.546
			l-38.326,22.127l-38.327-22.127v-44.257l38.327-22.127l38.326,22.127V452.546z"/>
		<polygon fill="none" points="44.67,423.788 44.67,437.047 56.155,443.678 67.638,437.047 67.638,423.788 56.155,417.158 		"/>
		<path fill="none" d="M194.763,312.97v37.327l32.326,18.664l32.327-18.664V312.97l-32.327-18.664L194.763,312.97z M244.574,341.728
			l-17.484,10.094l-17.483-10.094v-20.188l17.483-10.094l17.484,10.094V341.728z"/>
		<path fill="none" d="M116.133,399.254v62.327l53.978,31.165l53.979-31.165v-62.327l-53.979-31.165L116.133,399.254z
			 M208.438,452.546l-38.327,22.127l-38.326-22.127v-44.257l38.326-22.127l38.327,22.127V452.546z"/>
		<polygon fill="none" points="215.606,325.003 215.606,338.263 227.089,344.894 238.574,338.263 238.574,325.004 227.089,318.373 
					"/>
		<path fill="none" d="M137.784,411.754v37.327l32.326,18.664l32.327-18.664v-37.327l-32.327-18.664L137.784,411.754z
			 M187.595,440.512l-17.484,10.094l-17.483-10.094v-20.188l17.483-10.094l17.484,10.094V440.512z"/>
		<polygon fill="none" points="158.627,423.788 158.627,437.047 170.111,443.678 181.595,437.047 181.595,423.788 170.111,417.158 
					"/>
		<path fill="none" d="M308.719,510.538v37.327l32.327,18.664l32.326-18.664v-37.327l-32.326-18.664L308.719,510.538z
			 M358.53,539.296l-17.483,10.094l-17.484-10.094v-20.188l17.484-10.094l17.483,10.094V539.296z"/>
		<polygon fill="none" points="53.951,566.93 58.358,566.93 56.155,565.658 		"/>
		<polygon fill="none" points="53.155,498.038 1,467.926 1,486 37.502,507.074 37.502,551.33 10.482,566.93 41.785,566.93 
			53.155,560.366 		"/>
		<polygon fill="none" points="10.659,522.573 1,516.995 1,541.409 10.659,535.832 		"/>
		<polygon fill="none" points="31.502,510.538 1,492.927 1,510.067 16.659,519.108 16.659,539.296 1,548.337 1,565.477 
			31.502,547.866 		"/>
		<polygon fill="none" points="101.649,522.573 101.649,535.831 113.133,542.462 124.617,535.832 124.617,522.573 113.133,515.942 
					"/>
		<polygon fill="none" points="281.068,498.038 227.089,466.873 173.111,498.038 173.111,560.366 184.48,566.93 215.783,566.93 
			188.763,551.33 188.763,507.074 227.089,484.947 265.416,507.074 265.416,551.33 238.396,566.93 269.698,566.93 281.068,560.366 
					"/>
		<polygon fill="none" points="215.606,522.573 215.606,535.832 227.089,542.462 238.574,535.831 238.574,522.573 227.089,515.942 
					"/>
		<path fill="none" d="M194.763,510.538v37.327l32.326,18.664l32.327-18.664v-37.327l-32.327-18.664L194.763,510.538z
			 M244.574,539.296l-17.484,10.094l-17.483-10.094v-20.188l17.483-10.094l17.484,10.094V539.296z"/>
		<polygon fill="none" points="167.907,566.93 172.315,566.93 170.111,565.658 		"/>
		<path fill="none" d="M80.806,510.538v37.327l32.327,18.664l32.326-18.664v-37.327l-32.326-18.664L80.806,510.538z
			 M130.617,539.296l-17.483,10.094l-17.484-10.094v-20.188l17.484-10.094l17.483,10.094V539.296z"/>
		<polygon fill="none" points="53.155,300.47 1,270.358 1,288.431 37.502,309.505 37.502,353.762 1,374.836 1,392.909 
			53.155,362.797 		"/>
		<polygon fill="none" points="167.111,498.038 113.133,466.873 59.155,498.038 59.155,560.366 70.524,566.93 101.827,566.93 
			74.806,551.33 74.806,507.074 113.133,484.947 151.459,507.074 151.459,551.33 124.439,566.93 155.741,566.93 167.111,560.366 		
			"/>
		<polygon fill="none" points="116.133,66.445 170.111,97.61 224.089,66.445 224.089,4.117 216.961,0.001 185.657,0.001 
			208.438,13.153 208.438,57.409 170.111,79.536 131.784,57.409 131.784,13.153 154.565,0.001 123.262,0.001 116.133,4.117 		"/>
		<polygon fill="none" points="67.638,41.911 67.638,28.651 56.155,22.02 44.67,28.651 44.67,41.91 56.155,48.541 		"/>
		<path fill="none" d="M137.784,53.945l32.326,18.664l32.327-18.664V16.618L173.657,0.001h-7.092l-28.78,16.617V53.945z
			 M152.627,25.186l17.483-10.094l17.484,10.094v20.189l-17.484,10.094l-17.483-10.094V25.186z"/>
		<path fill="none" d="M23.827,53.945l32.327,18.664l32.326-18.664V16.618L59.701,0.001h-7.092L23.827,16.618V53.945z M38.67,25.186
			l17.484-10.094l17.483,10.094v20.189L56.155,55.469L38.67,45.375V25.186z"/>
		<polygon fill="none" points="31.502,312.97 1,295.359 1,312.499 16.659,321.539 16.659,341.728 1,350.769 1,367.908 
			31.502,350.297 		"/>
		<polygon fill="none" points="181.595,41.91 181.595,28.651 170.111,22.02 158.627,28.651 158.627,41.911 170.111,48.541 		"/>
		<polygon fill="none" points="53.155,102.901 1,72.79 1,90.863 37.502,111.937 37.502,156.194 1,177.268 1,195.341 53.155,165.229 
					"/>
		<polygon fill="none" points="10.659,325.003 1,319.426 1,343.841 10.659,338.263 		"/>
		<polygon fill="none" points="31.502,115.402 1,97.791 1,114.929 16.659,123.97 16.659,144.159 1,153.2 1,170.34 31.502,152.729 		
			"/>
		<polygon fill="none" points="10.659,127.434 1,121.857 1,146.272 10.659,140.695 		"/>
		<polygon fill="none" points="2.176,66.445 56.155,97.61 110.133,66.445 110.133,4.117 103.005,0.001 71.701,0.001 94.481,13.153 
			94.481,57.409 56.155,79.536 17.827,57.409 17.827,13.153 40.608,0.001 9.305,0.001 2.176,4.117 		"/>
		<polygon fill="none" points="281.864,566.93 286.272,566.93 284.068,565.658 		"/>
		<path fill="none" d="M508.981,300.47l-53.979-31.165l-53.978,31.165v62.327l53.978,31.165l53.979-31.165V300.47z M493.329,353.762
			l-38.327,22.127l-38.326-22.127v-44.257l38.326-22.127l38.327,22.127V353.762z"/>
		<polygon fill="none" points="443.519,325.003 443.519,338.263 455.002,344.894 466.487,338.263 466.487,325.004 455.002,318.373 
					"/>
		<polygon fill="none" points="395.821,566.93 400.229,566.93 398.025,565.658 		"/>
		<polygon fill="none" points="395.025,498.038 341.046,466.873 287.068,498.038 287.068,560.366 298.437,566.93 329.74,566.93 
			302.719,551.33 302.719,507.074 341.046,484.947 379.372,507.074 379.372,551.33 352.352,566.93 383.655,566.93 395.025,560.366 
					"/>
		<path fill="none" d="M458.002,399.254v62.327l53.979,31.165l53.979-31.165v-62.327l-53.979-31.165L458.002,399.254z
			 M550.308,452.546l-38.327,22.127l-38.326-22.127v-44.257l38.326-22.127l38.327,22.127V452.546z"/>
		<polygon fill="none" points="523.465,239.479 523.465,226.219 511.981,219.589 500.497,226.219 500.497,239.479 511.981,246.11 		
			"/>
		<polygon fill="none" points="500.497,423.788 500.497,437.047 511.981,443.678 523.465,437.047 523.465,423.788 511.981,417.158 
					"/>
		<path fill="none" d="M479.655,411.754v37.327l32.326,18.664l32.327-18.664v-37.327l-32.327-18.664L479.655,411.754z
			 M529.465,440.512l-17.484,10.094l-17.483-10.094v-20.188l17.483-10.094l17.484,10.094V440.512z"/>
		<polygon fill="none" points="230.089,66.445 284.068,97.61 338.046,66.445 338.046,4.117 330.918,0.001 299.614,0.001 
			322.394,13.153 322.394,57.409 284.068,79.536 245.742,57.409 245.742,13.153 268.522,0.001 237.218,0.001 230.089,4.117 		"/>
		<polygon fill="none" points="466.487,140.695 466.487,127.435 455.002,120.804 443.519,127.434 443.519,140.695 455.002,147.326 
					"/>
		<polygon fill="none" points="329.562,522.573 329.562,535.831 341.046,542.462 352.53,535.832 352.53,522.573 341.046,515.942 		
			"/>
		<path fill="none" d="M458.002,264.013l53.979,31.165l53.979-31.165v-62.328l-53.979-31.164l-53.979,31.164V264.013z
			 M473.655,210.721l38.326-22.127l38.327,22.127v44.257l-38.327,22.127l-38.326-22.127V210.721z"/>
		<path fill="none" d="M544.308,251.513v-37.327l-32.327-18.664l-32.326,18.664v37.327l32.326,18.664L544.308,251.513z
			 M494.497,222.754l17.483-10.093l17.484,10.093v20.189l-17.484,10.094l-17.483-10.094V222.754z"/>
		<path d="M301.552,45.375V25.186l-17.484-10.094l-17.483,10.094v20.189l17.483,10.094L301.552,45.375z M272.584,28.651
			l11.483-6.631l11.484,6.631v13.26l-11.484,6.631l-11.483-6.63V28.651z"/>
		<path d="M265.416,156.194v-44.257L227.089,89.81l-38.326,22.127v44.257l38.326,22.127L265.416,156.194z M194.763,115.402
			l32.326-18.664l32.327,18.664v37.327l-32.327,18.664l-32.326-18.664V115.402z"/>
		<path d="M244.574,144.159V123.97l-17.484-10.094l-17.483,10.094v20.189l17.483,10.094L244.574,144.159z M215.606,127.434
			l11.483-6.63l11.484,6.631v13.26l-11.484,6.631l-11.483-6.631V127.434z"/>
		<path d="M73.638,242.944v-20.189l-17.483-10.093L38.67,222.754v20.189l17.484,10.094L73.638,242.944z M44.67,226.219l11.484-6.63
			l11.483,6.63v13.26l-11.483,6.631l-11.484-6.631V226.219z"/>
		<path d="M322.394,254.978v-44.257l-38.326-22.127l-38.326,22.127v44.257l38.326,22.127L322.394,254.978z M251.742,214.186
			l32.326-18.664l32.326,18.664v37.327l-32.326,18.664l-32.326-18.664V214.186z"/>
		<path d="M301.552,242.944v-20.189l-17.484-10.093l-17.483,10.093v20.189l17.483,10.094L301.552,242.944z M272.584,226.219
			l11.483-6.63l11.484,6.63v13.26l-11.484,6.631l-11.483-6.631V226.219z"/>
		<path d="M151.459,156.194v-44.257L113.133,89.81l-38.327,22.127v44.257l38.327,22.127L151.459,156.194z M80.806,115.402
			l32.327-18.664l32.326,18.664v37.327l-32.326,18.664l-32.327-18.664V115.402z"/>
		<path d="M130.617,144.159V123.97l-17.483-10.094L95.649,123.97v20.189l17.484,10.094L130.617,144.159z M101.649,127.435
			l11.484-6.631l11.483,6.63v13.261l-11.483,6.631l-11.484-6.631V127.435z"/>
		<path d="M208.438,254.978v-44.257l-38.327-22.127l-38.326,22.127v44.257l38.326,22.127L208.438,254.978z M137.784,214.186
			l32.326-18.664l32.327,18.664v37.327l-32.327,18.664l-32.326-18.664V214.186z"/>
		<path d="M187.595,242.944v-20.189l-17.484-10.093l-17.483,10.093v20.189l17.483,10.094L187.595,242.944z M158.627,226.219
			l11.483-6.63l11.484,6.63v13.26l-11.484,6.631l-11.483-6.631V226.219z"/>
		<path d="M472.487,144.159V123.97l-17.484-10.094l-17.483,10.094v20.189l17.483,10.094L472.487,144.159z M443.519,127.434
			l11.483-6.63l11.484,6.631v13.26l-11.484,6.631l-11.483-6.631V127.434z"/>
		<path d="M379.372,156.194v-44.257L341.046,89.81l-38.327,22.127v44.257l38.327,22.127L379.372,156.194z M308.719,115.402
			l32.327-18.664l32.326,18.664v37.327l-32.326,18.664l-32.327-18.664V115.402z"/>
		<path d="M550.308,254.978v-44.257l-38.327-22.127l-38.326,22.127v44.257l38.326,22.127L550.308,254.978z M479.655,214.186
			l32.326-18.664l32.327,18.664v37.327l-32.327,18.664l-32.326-18.664V214.186z"/>
		<path d="M493.329,156.194v-44.257L455.002,89.81l-38.326,22.127v44.257l38.326,22.127L493.329,156.194z M422.676,115.402
			l32.326-18.664l32.327,18.664v37.327l-32.327,18.664l-32.326-18.664V115.402z"/>
		<path d="M358.53,144.159V123.97l-17.483-10.094l-17.484,10.094v20.189l17.484,10.094L358.53,144.159z M329.562,127.435
			l11.484-6.631l11.483,6.63v13.261l-11.483,6.631l-11.484-6.631V127.435z"/>
		<path d="M415.508,242.944v-20.189l-17.483-10.093l-17.484,10.093v20.189l17.484,10.094L415.508,242.944z M386.54,226.219
			l11.484-6.63l11.483,6.63v13.26l-11.483,6.631l-11.484-6.631V226.219z"/>
		<path d="M436.351,254.978v-44.257l-38.326-22.127l-38.327,22.127v44.257l38.327,22.127L436.351,254.978z M365.698,214.186
			l32.327-18.664l32.326,18.664v37.327l-32.326,18.664l-32.327-18.664V214.186z"/>
		<path d="M209.606,321.539v20.188l17.483,10.094l17.484-10.094v-20.188l-17.484-10.094L209.606,321.539z M238.574,338.263
			l-11.484,6.631l-11.483-6.631v-13.26l11.483-6.63l11.484,6.631V338.263z"/>
		<path d="M323.562,321.539v20.188l17.484,10.094l17.483-10.094v-20.188l-17.483-10.094L323.562,321.539z M352.53,338.263
			l-11.483,6.631l-11.484-6.631v-13.259l11.484-6.631l11.483,6.63V338.263z"/>
		<path d="M188.763,309.505v44.257l38.326,22.127l38.327-22.127v-44.257l-38.327-22.127L188.763,309.505z M259.416,350.297
			l-32.327,18.664l-32.326-18.664V312.97l32.326-18.664l32.327,18.664V350.297z"/>
		<path d="M302.719,309.505v44.257l38.327,22.127l38.326-22.127v-44.257l-38.326-22.127L302.719,309.505z M373.372,350.297
			l-32.326,18.664l-32.327-18.664V312.97l32.327-18.664l32.326,18.664V350.297z"/>
		<path d="M266.584,420.324v20.188l17.483,10.094l17.484-10.094v-20.188l-17.484-10.094L266.584,420.324z M295.552,437.047
			l-11.484,6.631l-11.483-6.631v-13.259l11.483-6.631l11.484,6.631V437.047z"/>
		<path d="M245.742,408.289v44.257l38.326,22.127l38.326-22.127v-44.257l-38.326-22.127L245.742,408.289z M316.394,449.081
			l-32.326,18.664l-32.326-18.664v-37.327l32.326-18.664l32.326,18.664V449.081z"/>
		<path d="M401.025,498.038l53.978-31.165l53.979,31.165v62.327l-11.37,6.564h12.166l2.204-1.272l2.204,1.272h12.166l-11.37-6.564
			v-62.327l52.948-30.57v-74.101l-52.948-30.57V300.47l52.948-30.57v-74.101l-52.948-30.57v-62.328l52.948-30.569V0.001h-9.098
			l7.128,4.116v62.328L511.981,97.61l-53.979-31.165V4.117l7.128-4.116h-20.257l7.128,4.116v62.328L398.025,97.61l-53.979-31.165
			V4.117l7.128-4.116h-20.257l7.128,4.116v62.328L284.068,97.61l-53.979-31.165V4.117l7.128-4.116h-20.257l7.128,4.116v62.328
			L170.111,97.61l-53.978-31.165V4.117l7.128-4.116h-20.257l7.128,4.116v62.328L56.155,97.61L2.176,66.445V4.117l7.128-4.116H1
			V72.79l52.155,30.111v62.328L1,195.341v75.017l52.155,30.112v62.327L1,392.909v75.017l52.155,30.112v62.327l-11.37,6.564h12.166
			l2.204-1.272l2.204,1.272h12.166l-11.37-6.564v-62.327l53.979-31.165l53.978,31.165v62.327l-11.369,6.564h12.166l2.204-1.272
			l2.204,1.272h12.166l-11.37-6.564v-62.327l53.979-31.165l53.979,31.165v62.327l-11.37,6.564h12.166l2.204-1.272l2.204,1.272
			h12.166l-11.37-6.564v-62.327l53.979-31.165l53.979,31.165v62.327l-11.37,6.564h12.166l2.204-1.272l2.204,1.272h12.166
			l-11.369-6.564V498.038z M401.025,362.797V300.47l53.978-31.165l53.979,31.165v62.327l-53.979,31.165L401.025,362.797z
			 M565.959,399.254v62.327l-53.979,31.165l-53.979-31.165v-62.327l53.979-31.165L565.959,399.254z M565.959,201.685v62.328
			l-53.979,31.165l-53.979-31.165v-62.328l53.979-31.164L565.959,201.685z M401.025,102.901l53.978-31.164l53.979,31.164v62.328
			l-53.979,31.165l-53.978-31.165V102.901z M452.002,201.685v62.328l-53.978,31.165l-53.979-31.165v-62.328l53.979-31.164
			L452.002,201.685z M287.068,102.901l53.979-31.164l53.979,31.164v62.328l-53.979,31.165l-53.979-31.165V102.901z M338.046,201.685
			v62.328l-53.979,31.165l-53.979-31.165v-62.328l53.979-31.164L338.046,201.685z M173.111,102.901l53.979-31.164l53.979,31.164
			v62.328l-53.979,31.165l-53.979-31.165V102.901z M224.089,201.685v62.328l-53.979,31.165l-53.978-31.165v-62.328l53.978-31.164
			L224.089,201.685z M59.155,102.901l53.979-31.164l53.978,31.164v62.328l-53.978,31.165l-53.979-31.165V102.901z M2.176,264.013
			v-62.328l53.979-31.164l53.979,31.164v62.328l-53.979,31.165L2.176,264.013z M110.133,461.581l-53.979,31.165L2.176,461.581
			v-62.327l53.979-31.165l53.979,31.165V461.581z M59.155,362.797V300.47l53.979-31.165l53.978,31.165v62.327l-53.978,31.165
			L59.155,362.797z M224.089,461.581l-53.979,31.165l-53.978-31.165v-62.327l53.978-31.165l53.979,31.165V461.581z M173.111,362.797
			V300.47l53.979-31.165l53.979,31.165v62.327l-53.979,31.165L173.111,362.797z M338.046,461.581l-53.979,31.165l-53.979-31.165
			v-62.327l53.979-31.165l53.979,31.165V461.581z M287.068,362.797V300.47l53.979-31.165l53.979,31.165v62.327l-53.979,31.165
			L287.068,362.797z M344.046,461.581v-62.327l53.979-31.165l53.978,31.165v62.327l-53.978,31.165L344.046,461.581z"/>
		<path d="M359.698,408.289v44.257l38.327,22.127l38.326-22.127v-44.257l-38.326-22.127L359.698,408.289z M430.351,449.081
			l-32.326,18.664l-32.327-18.664v-37.327l32.327-18.664l32.326,18.664V449.081z"/>
		<path d="M380.54,420.324v20.188l17.484,10.094l17.483-10.094v-20.188l-17.483-10.094L380.54,420.324z M409.508,437.047
			l-11.483,6.631l-11.484-6.631v-13.259l11.484-6.631l11.483,6.631V437.047z"/>
		<path d="M38.67,420.324v20.188l17.484,10.094l17.483-10.094v-20.188L56.155,410.23L38.67,420.324z M67.638,437.047l-11.483,6.631
			l-11.484-6.631v-13.259l11.484-6.631l11.483,6.631V437.047z"/>
		<path d="M529.465,242.944v-20.189l-17.484-10.093l-17.483,10.093v20.189l17.483,10.094L529.465,242.944z M500.497,226.219
			l11.483-6.63l11.484,6.63v13.26l-11.484,6.631l-11.483-6.631V226.219z"/>
		<path d="M17.827,408.289v44.257l38.327,22.127l38.326-22.127v-44.257l-38.326-22.127L17.827,408.289z M88.481,449.081
			l-32.326,18.664l-32.327-18.664v-37.327l32.327-18.664l32.326,18.664V449.081z"/>
		<path d="M94.481,254.978v-44.257l-38.326-22.127l-38.327,22.127v44.257l38.327,22.127L94.481,254.978z M23.827,214.186
			l32.327-18.664l32.326,18.664v37.327l-32.326,18.664l-32.327-18.664V214.186z"/>
		<path d="M95.649,321.539v20.188l17.484,10.094l17.483-10.094v-20.188l-17.483-10.094L95.649,321.539z M124.617,338.263
			l-11.483,6.631l-11.484-6.631v-13.259l11.484-6.631l11.483,6.63V338.263z"/>
		<path d="M74.806,309.505v44.257l38.327,22.127l38.326-22.127v-44.257l-38.326-22.127L74.806,309.505z M145.459,350.297
			l-32.326,18.664l-32.327-18.664V312.97l32.327-18.664l32.326,18.664V350.297z"/>
		<path d="M131.784,408.289v44.257l38.326,22.127l38.327-22.127v-44.257l-38.327-22.127L131.784,408.289z M202.438,449.081
			l-32.327,18.664l-32.326-18.664v-37.327l32.326-18.664l32.327,18.664V449.081z"/>
		<path d="M152.627,420.324v20.188l17.483,10.094l17.484-10.094v-20.188l-17.484-10.094L152.627,420.324z M181.595,437.047
			l-11.484,6.631l-11.483-6.631v-13.259l11.483-6.631l11.484,6.631V437.047z"/>
		<polygon points="530.633,156.194 567.929,177.726 567.929,170.798 536.633,152.729 536.633,115.402 567.929,97.332 
			567.929,90.405 530.633,111.937 		"/>
		<polygon points="359.698,57.409 398.025,79.536 436.351,57.409 436.351,13.153 413.571,0.001 401.571,0.001 430.351,16.618 
			430.351,53.945 398.025,72.609 365.698,53.945 365.698,16.618 394.479,0.001 382.479,0.001 359.698,13.153 		"/>
		<path d="M529.465,45.375V25.186l-17.484-10.094l-17.483,10.094v20.189l17.483,10.094L529.465,45.375z M500.497,28.651
			l11.483-6.631l11.484,6.631v13.26l-11.484,6.631l-11.483-6.63V28.651z"/>
		<path d="M415.508,45.375V25.186l-17.483-10.094L380.54,25.186v20.189l17.484,10.094L415.508,45.375z M386.54,28.651l11.484-6.631
			l11.483,6.631v13.261l-11.483,6.63L386.54,41.91V28.651z"/>
		<polygon points="17.827,57.409 56.155,79.536 94.481,57.409 94.481,13.153 71.701,0.001 59.701,0.001 88.481,16.618 
			88.481,53.945 56.155,72.609 23.827,53.945 23.827,16.618 52.608,0.001 40.608,0.001 17.827,13.153 		"/>
		<polygon points="245.742,57.409 284.068,79.536 322.394,57.409 322.394,13.153 299.614,0.001 287.614,0.001 316.394,16.618 
			316.394,53.945 284.068,72.609 251.742,53.945 251.742,16.618 280.522,0.001 268.522,0.001 245.742,13.153 		"/>
		<path d="M187.595,45.375V25.186l-17.484-10.094l-17.483,10.094v20.189l17.483,10.094L187.595,45.375z M158.627,28.651
			l11.483-6.631l11.484,6.631v13.26l-11.484,6.631l-11.483-6.63V28.651z"/>
		<path d="M73.638,45.375V25.186L56.155,15.092L38.67,25.186v20.189l17.484,10.094L73.638,45.375z M44.67,28.651l11.484-6.631
			l11.483,6.631v13.261l-11.483,6.63L44.67,41.91V28.651z"/>
		<polygon points="131.784,57.409 170.111,79.536 208.438,57.409 208.438,13.153 185.657,0.001 173.657,0.001 202.438,16.618 
			202.438,53.945 170.111,72.609 137.784,53.945 137.784,16.618 166.565,0.001 154.565,0.001 131.784,13.153 		"/>
		<polygon points="473.655,57.409 511.981,79.536 550.308,57.409 550.308,13.153 527.527,0.001 515.527,0.001 544.308,16.618 
			544.308,53.945 511.981,72.609 479.655,53.945 479.655,16.618 508.435,0.001 496.435,0.001 473.655,13.153 		"/>
		<polygon points="551.476,539.296 567.929,548.795 567.929,541.867 557.476,535.832 557.476,522.573 567.929,516.536 
			567.929,509.609 551.476,519.108 		"/>
		<path d="M493.329,507.074l-38.327-22.127l-38.326,22.127v44.257l27.02,15.6h22.613l27.021-15.6V507.074z M487.329,547.866
			l-32.327,18.664l-32.326-18.664v-37.327l32.326-18.664l32.327,18.664V547.866z"/>
		<polygon points="530.633,551.33 557.653,566.93 567.929,566.93 567.929,565.935 536.633,547.866 536.633,510.538 567.929,492.469 
			567.929,485.541 530.633,507.074 		"/>
		<polygon points="530.633,353.762 567.929,375.294 567.929,368.367 536.633,350.297 536.633,312.97 567.929,294.901 
			567.929,287.973 530.633,309.505 		"/>
		<polygon points="551.476,144.159 567.929,153.659 567.929,146.731 557.476,140.695 557.476,127.434 567.929,121.399 
			567.929,114.471 551.476,123.97 		"/>
		<polygon points="551.476,341.728 567.929,351.227 567.929,344.299 557.476,338.263 557.476,325.003 567.929,318.968 
			567.929,312.04 551.476,321.539 		"/>
		<path d="M437.519,519.108v20.188l17.483,10.094l17.484-10.094v-20.188l-17.484-10.094L437.519,519.108z M466.487,535.831
			l-11.484,6.631l-11.483-6.63v-13.26l11.483-6.631l11.484,6.631V535.831z"/>
		<polygon points="16.659,321.539 1,312.499 1,319.426 10.659,325.003 10.659,338.263 1,343.841 1,350.769 16.659,341.728 		"/>
		<path d="M209.606,519.108v20.188l17.483,10.094l17.484-10.094v-20.188l-17.484-10.094L209.606,519.108z M238.574,535.831
			l-11.484,6.631l-11.483-6.63v-13.26l11.483-6.631l11.484,6.631V535.831z"/>
		<path d="M265.416,507.074l-38.327-22.127l-38.326,22.127v44.257l27.02,15.6h22.613l27.021-15.6V507.074z M259.416,547.866
			l-32.327,18.664l-32.326-18.664v-37.327l32.326-18.664l32.327,18.664V547.866z"/>
		<path d="M379.372,507.074l-38.326-22.127l-38.327,22.127v44.257l27.021,15.6h22.613l27.02-15.6V507.074z M373.372,547.866
			l-32.326,18.664l-32.327-18.664v-37.327l32.327-18.664l32.326,18.664V547.866z"/>
		<path d="M323.562,519.108v20.188l17.484,10.094l17.483-10.094v-20.188l-17.483-10.094L323.562,519.108z M352.53,535.832
			l-11.483,6.63l-11.484-6.631v-13.259l11.484-6.631l11.483,6.631V535.832z"/>
		<path d="M437.519,321.539v20.188l17.483,10.094l17.484-10.094v-20.188l-17.484-10.094L437.519,321.539z M466.487,338.263
			l-11.484,6.631l-11.483-6.631v-13.26l11.483-6.63l11.484,6.631V338.263z"/>
		<path d="M494.497,420.324v20.188l17.483,10.094l17.484-10.094v-20.188l-17.484-10.094L494.497,420.324z M523.465,437.047
			l-11.484,6.631l-11.483-6.631v-13.259l11.483-6.631l11.484,6.631V437.047z"/>
		<path d="M416.676,309.505v44.257l38.326,22.127l38.327-22.127v-44.257l-38.327-22.127L416.676,309.505z M487.329,350.297
			l-32.327,18.664l-32.326-18.664V312.97l32.326-18.664l32.327,18.664V350.297z"/>
		<polygon points="37.502,111.937 1,90.863 1,97.791 31.502,115.402 31.502,152.729 1,170.34 1,177.268 37.502,156.194 		"/>
		<path d="M473.655,408.289v44.257l38.326,22.127l38.327-22.127v-44.257l-38.327-22.127L473.655,408.289z M544.308,449.081
			l-32.327,18.664l-32.326-18.664v-37.327l32.326-18.664l32.327,18.664V449.081z"/>
		<polygon points="16.659,123.97 1,114.929 1,121.857 10.659,127.434 10.659,140.695 1,146.272 1,153.2 16.659,144.159 		"/>
		<path d="M151.459,507.074l-38.326-22.127l-38.327,22.127v44.257l27.021,15.6h22.613l27.02-15.6V507.074z M145.459,547.866
			l-32.326,18.664l-32.327-18.664v-37.327l32.327-18.664l32.326,18.664V547.866z"/>
		<polygon points="37.502,309.505 1,288.431 1,295.359 31.502,312.97 31.502,350.297 1,367.908 1,374.836 37.502,353.762 		"/>
		<path d="M95.649,519.108v20.188l17.484,10.094l17.483-10.094v-20.188l-17.483-10.094L95.649,519.108z M124.617,535.832
			l-11.483,6.63l-11.484-6.631v-13.259l11.484-6.631l11.483,6.631V535.832z"/>
		<polygon points="16.659,519.108 1,510.067 1,516.995 10.659,522.573 10.659,535.832 1,541.409 1,548.337 16.659,539.296 		"/>
		<polygon points="37.502,507.074 1,486 1,492.927 31.502,510.538 31.502,547.866 1,565.477 1,566.93 10.482,566.93 37.502,551.33 
					"/>
	</g>
</g>
<g id="Ebene_2">
</g>
</svg>
