<svg xmlns="http://www.w3.org/2000/svg" viewBox="0 0 566.93 566.93" enable-background="new 0 0 566.93 566.93"><g fill="#010202"><circle cx="205.255" cy="35.393" r="8.09"/><path d="M205.255 62.696c-4.47 0-8.094 3.62-8.094 8.09 0 4.468 3.623 8.09 8.095 8.09 4.468 0 8.087-3.622 8.087-8.09 0-4.47-3.62-8.09-8.087-8.09zM205.255 239.657c-4.47 0-8.094 3.622-8.094 8.094 0 4.47 3.623 8.09 8.095 8.09 4.468 0 8.087-3.62 8.087-8.09s-3.62-8.093-8.087-8.093zM205.255 98.086c-4.47 0-8.094 3.622-8.094 8.09 0 4.472 3.623 8.09 8.095 8.09 4.468 0 8.087-3.62 8.087-8.09 0-4.467-3.62-8.09-8.087-8.09z"/><circle cx="205.255" cy="212.356" r="8.092"/><circle cx="205.255" cy="141.572" r="8.092"/><path d="M205.255 168.873c-4.47 0-8.094 3.62-8.094 8.087 0 4.475 3.623 8.097 8.095 8.097 4.468 0 8.087-3.622 8.087-8.097 0-4.468-3.62-8.087-8.087-8.087zM246.304 487.405c-4.468 0-8.09 3.626-8.09 8.09 0 4.472 3.622 8.09 8.09 8.09s8.087-3.62 8.087-8.09c0-4.464-3.617-8.09-8.086-8.09zM246.304 558.338c-4.468 0-8.09 3.62-8.09 8.09 0 .167.014.327.024.49h16.132c.01-.163.02-.322.02-.49 0-4.47-3.617-8.09-8.086-8.09zM246.304 310.44c-4.468 0-8.09 3.627-8.09 8.095 0 4.468 3.622 8.09 8.09 8.09s8.087-3.623 8.087-8.09c0-4.47-3.617-8.094-8.086-8.094zM246.304 275.05c-4.468 0-8.09 3.622-8.09 8.094 0 4.468 3.622 8.09 8.09 8.09s8.087-3.622 8.087-8.09c0-4.47-3.617-8.094-8.086-8.094zM246.304 345.838c-4.468 0-8.09 3.62-8.09 8.09 0 4.468 3.622 8.09 8.09 8.09s8.087-3.622 8.087-8.09c0-4.472-3.617-8.09-8.086-8.09zM246.304 239.657c-4.468 0-8.09 3.622-8.09 8.094 0 4.47 3.622 8.09 8.09 8.09s8.087-3.62 8.087-8.09-3.617-8.093-8.086-8.093z"/><circle cx="246.304" cy="424.711" r="8.09"/><path d="M246.304 381.23c-4.468 0-8.09 3.62-8.09 8.088 0 4.472 3.622 8.09 8.09 8.09s8.087-3.62 8.087-8.09c0-4.468-3.617-8.087-8.086-8.087z"/><circle cx="246.304" cy="460.105" r="8.09"/><path d="M246.304 522.798c-4.468 0-8.09 3.62-8.09 8.09s3.622 8.09 8.09 8.09 8.087-3.62 8.087-8.09-3.617-8.09-8.086-8.09z"/><circle cx="205.255" cy="424.711" r="8.09"/><path d="M164.202 168.873c-4.468 0-8.09 3.62-8.09 8.087 0 4.475 3.622 8.097 8.09 8.097s8.09-3.622 8.09-8.097c0-4.468-3.622-8.087-8.09-8.087z"/><circle cx="164.202" cy="141.572" r="8.092"/><circle cx="164.202" cy="35.393" r="8.09"/><path d="M164.202 62.696c-4.468 0-8.09 3.62-8.09 8.09 0 4.468 3.622 8.09 8.09 8.09s8.09-3.622 8.09-8.09c0-4.47-3.622-8.09-8.09-8.09zM205.255 275.05c-4.47 0-8.094 3.622-8.094 8.094 0 4.468 3.623 8.09 8.095 8.09 4.468 0 8.087-3.622 8.087-8.09 0-4.47-3.62-8.094-8.087-8.094z"/><circle cx="164.202" cy="283.143" r="8.092"/><circle cx="164.202" cy="212.356" r="8.092"/><circle cx="164.202" cy="247.749" r="8.092"/><path d="M164.202 98.086c-4.468 0-8.09 3.622-8.09 8.09 0 4.472 3.622 8.09 8.09 8.09s8.09-3.62 8.09-8.09c0-4.467-3.622-8.09-8.09-8.09z"/><circle cx="246.304" cy="212.356" r="8.092"/><path d="M205.255 381.23c-4.47 0-8.094 3.62-8.094 8.088 0 4.472 3.623 8.09 8.095 8.09 4.468 0 8.087-3.62 8.087-8.09 0-4.468-3.62-8.087-8.087-8.087zM328.407 27.303c-4.47 0-8.094 3.622-8.094 8.09s3.622 8.09 8.094 8.09c4.465 0 8.09-3.622 8.09-8.09s-3.625-8.09-8.09-8.09zM205.255 310.44c-4.47 0-8.094 3.627-8.094 8.095 0 4.468 3.623 8.09 8.095 8.09 4.468 0 8.087-3.623 8.087-8.09 0-4.47-3.62-8.094-8.087-8.094zM205.255 558.338c-4.47 0-8.094 3.62-8.094 8.09 0 .167.015.327.025.49h16.136c.008-.163.022-.322.022-.49 0-4.47-3.62-8.09-8.087-8.09z"/><circle cx="205.255" cy="460.105" r="8.09"/><path d="M205.255 487.405c-4.47 0-8.094 3.626-8.094 8.09 0 4.472 3.623 8.09 8.095 8.09 4.468 0 8.087-3.62 8.087-8.09 0-4.464-3.62-8.09-8.087-8.09zM205.255 522.798c-4.47 0-8.094 3.62-8.094 8.09s3.623 8.09 8.095 8.09c4.468 0 8.087-3.62 8.087-8.09s-3.62-8.09-8.087-8.09zM328.407 133.48c-4.47 0-8.094 3.623-8.094 8.09 0 4.468 3.622 8.094 8.094 8.094 4.465 0 8.09-3.626 8.09-8.094s-3.625-8.09-8.09-8.09zM328.407 522.798c-4.47 0-8.094 3.62-8.094 8.09s3.622 8.09 8.094 8.09c4.465 0 8.09-3.62 8.09-8.09s-3.625-8.09-8.09-8.09zM328.407 416.62c-4.47 0-8.094 3.623-8.094 8.09s3.622 8.09 8.094 8.09c4.465 0 8.09-3.62 8.09-8.09s-3.625-8.09-8.09-8.09zM328.407 452.015c-4.47 0-8.094 3.622-8.094 8.09s3.622 8.09 8.094 8.09c4.465 0 8.09-3.622 8.09-8.09s-3.625-8.09-8.09-8.09zM287.354 98.086c-4.468 0-8.09 3.622-8.09 8.09 0 4.472 3.622 8.09 8.09 8.09s8.094-3.62 8.094-8.09c0-4.467-3.626-8.09-8.094-8.09zM287.354 62.696c-4.468 0-8.09 3.62-8.09 8.09 0 4.468 3.622 8.09 8.09 8.09s8.094-3.622 8.094-8.09c0-4.47-3.626-8.09-8.094-8.09z"/><circle cx="287.354" cy="35.393" r="8.09"/><path d="M328.407 345.838c-4.47 0-8.094 3.62-8.094 8.09 0 4.468 3.622 8.09 8.094 8.09 4.465 0 8.09-3.622 8.09-8.09 0-4.472-3.625-8.09-8.09-8.09zM328.407 558.338c-4.47 0-8.094 3.62-8.094 8.09 0 .167.014.327.024.49h16.136c.01-.163.024-.322.024-.49 0-4.47-3.625-8.09-8.09-8.09zM328.407 487.405c-4.47 0-8.094 3.626-8.094 8.09 0 4.472 3.622 8.09 8.094 8.09 4.465 0 8.09-3.62 8.09-8.09 0-4.464-3.625-8.09-8.09-8.09zM328.407 381.23c-4.47 0-8.094 3.62-8.094 8.088 0 4.472 3.622 8.09 8.094 8.09 4.465 0 8.09-3.62 8.09-8.09 0-4.468-3.625-8.087-8.09-8.087zM328.407 98.086c-4.47 0-8.094 3.622-8.094 8.09 0 4.472 3.622 8.09 8.094 8.09 4.465 0 8.09-3.62 8.09-8.09 0-4.467-3.625-8.09-8.09-8.09zM328.407 310.44c-4.47 0-8.094 3.627-8.094 8.095 0 4.468 3.622 8.09 8.094 8.09 4.465 0 8.09-3.623 8.09-8.09 0-4.47-3.625-8.094-8.09-8.094z"/><circle cx="164.202" cy="318.533" r="8.092"/><path d="M328.407 62.696c-4.47 0-8.094 3.62-8.094 8.09 0 4.468 3.622 8.09 8.094 8.09 4.465 0 8.09-3.622 8.09-8.09 0-4.47-3.625-8.09-8.09-8.09zM328.407 168.873c-4.47 0-8.094 3.62-8.094 8.087 0 4.475 3.622 8.097 8.094 8.097 4.465 0 8.09-3.622 8.09-8.097 0-4.468-3.625-8.087-8.09-8.087zM328.407 204.263c-4.47 0-8.094 3.622-8.094 8.09 0 4.472 3.622 8.094 8.094 8.094 4.465 0 8.09-3.622 8.09-8.094 0-4.467-3.625-8.09-8.09-8.09zM328.407 275.05c-4.47 0-8.094 3.622-8.094 8.094 0 4.468 3.622 8.09 8.094 8.09 4.465 0 8.09-3.622 8.09-8.09 0-4.47-3.625-8.094-8.09-8.094zM328.407 239.657c-4.47 0-8.094 3.622-8.094 8.094 0 4.47 3.622 8.09 8.094 8.09 4.465 0 8.09-3.62 8.09-8.09s-3.625-8.093-8.09-8.093zM287.354 558.338c-4.468 0-8.09 3.62-8.09 8.09 0 .167.014.327.025.49h16.13c.008-.163.03-.322.03-.49-.002-4.47-3.628-8.09-8.096-8.09zM287.354 487.405c-4.468 0-8.09 3.626-8.09 8.09 0 4.472 3.622 8.09 8.09 8.09s8.094-3.62 8.094-8.09c0-4.464-3.626-8.09-8.094-8.09z"/><circle cx="246.304" cy="35.393" r="8.09"/><path d="M246.304 168.873c-4.468 0-8.09 3.62-8.09 8.087 0 4.475 3.622 8.097 8.09 8.097s8.087-3.622 8.087-8.097c0-4.468-3.617-8.087-8.086-8.087z"/><circle cx="287.354" cy="460.105" r="8.09"/><path d="M287.354 522.798c-4.468 0-8.09 3.62-8.09 8.09s3.622 8.09 8.09 8.09 8.094-3.62 8.094-8.09-3.626-8.09-8.094-8.09z"/><circle cx="246.304" cy="141.572" r="8.092"/><path d="M246.304 62.696c-4.468 0-8.09 3.62-8.09 8.09 0 4.468 3.622 8.09 8.09 8.09s8.087-3.622 8.087-8.09c0-4.47-3.617-8.09-8.086-8.09zM246.304 98.086c-4.468 0-8.09 3.622-8.09 8.09 0 4.472 3.622 8.09 8.09 8.09s8.087-3.62 8.087-8.09c0-4.467-3.617-8.09-8.086-8.09zM287.354 133.48c-4.468 0-8.09 3.623-8.09 8.09 0 4.468 3.622 8.094 8.09 8.094s8.094-3.626 8.094-8.094-3.626-8.09-8.094-8.09z"/><circle cx="287.354" cy="247.749" r="8.092"/><path d="M287.354 204.263c-4.468 0-8.09 3.622-8.09 8.09 0 4.472 3.622 8.094 8.09 8.094s8.094-3.622 8.094-8.094c0-4.467-3.626-8.09-8.094-8.09z"/><circle cx="287.354" cy="283.143" r="8.092"/><path d="M287.354 168.873c-4.468 0-8.09 3.62-8.09 8.087 0 4.475 3.622 8.097 8.09 8.097s8.094-3.622 8.094-8.097c0-4.468-3.626-8.087-8.094-8.087z"/><circle cx="287.354" cy="318.533" r="8.092"/><path d="M287.354 381.23c-4.468 0-8.09 3.62-8.09 8.088 0 4.472 3.622 8.09 8.09 8.09s8.094-3.62 8.094-8.09c0-4.468-3.626-8.087-8.094-8.087z"/><circle cx="287.354" cy="424.711" r="8.09"/><path d="M287.354 345.838c-4.468 0-8.09 3.62-8.09 8.09 0 4.468 3.622 8.09 8.09 8.09s8.094-3.622 8.094-8.09c0-4.472-3.626-8.09-8.094-8.09zM205.255 345.838c-4.47 0-8.094 3.62-8.094 8.09 0 4.468 3.623 8.09 8.095 8.09 4.468 0 8.087-3.622 8.087-8.09 0-4.472-3.62-8.09-8.087-8.09zM41.05 345.838c-4.47 0-8.09 3.62-8.09 8.09 0 4.468 3.62 8.09 8.09 8.09s8.09-3.622 8.09-8.09c0-4.472-3.622-8.09-8.09-8.09zM41.05 381.23c-4.47 0-8.09 3.62-8.09 8.088 0 4.472 3.62 8.09 8.09 8.09s8.09-3.62 8.09-8.09c0-4.468-3.622-8.087-8.09-8.087z"/><circle cx="41.049" cy="318.533" r="8.092"/><circle cx="41.049" cy="283.143" r="8.092"/><circle cx="41.049" cy="424.711" r="8.09"/><circle cx="41.049" cy="247.749" r="8.092"/><path d="M41.05 487.405c-4.47 0-8.09 3.626-8.09 8.09 0 4.472 3.62 8.09 8.09 8.09s8.09-3.62 8.09-8.09c0-4.464-3.622-8.09-8.09-8.09z"/><circle cx="41.049" cy="460.105" r="8.09"/><path d="M41.05 522.798c-4.47 0-8.09 3.62-8.09 8.09s3.62 8.09 8.09 8.09 8.09-3.62 8.09-8.09-3.622-8.09-8.09-8.09zM82.1 558.338c-4.47 0-8.09 3.62-8.09 8.09 0 .167.013.327.023.49H90.17c.006-.163.023-.322.023-.49 0-4.47-3.622-8.09-8.094-8.09zM41.05 62.696c-4.47 0-8.09 3.62-8.09 8.09 0 4.468 3.62 8.09 8.09 8.09s8.09-3.622 8.09-8.09c0-4.47-3.622-8.09-8.09-8.09z"/><circle cx="41.049" cy="35.393" r="8.09"/><path d="M82.1 487.405c-4.47 0-8.09 3.626-8.09 8.09 0 4.472 3.62 8.09 8.09 8.09s8.093-3.62 8.093-8.09c0-4.464-3.622-8.09-8.094-8.09zM41.05 98.086c-4.47 0-8.09 3.622-8.09 8.09 0 4.472 3.62 8.09 8.09 8.09s8.09-3.62 8.09-8.09c0-4.467-3.622-8.09-8.09-8.09z"/><circle cx="41.049" cy="212.356" r="8.092"/><path d="M41.05 168.873c-4.47 0-8.09 3.62-8.09 8.087 0 4.475 3.62 8.097 8.09 8.097s8.09-3.622 8.09-8.097c0-4.468-3.622-8.087-8.09-8.087z"/><circle cx="41.049" cy="141.572" r="8.092"/><path d="M-.156 239.657v16.185c4.465 0 8.09-3.622 8.09-8.09 0-4.473-3.625-8.095-8.09-8.095zM-.156 275.05v16.185c4.465 0 8.09-3.622 8.09-8.09 0-4.472-3.625-8.095-8.09-8.095zM-.156 381.23v16.178c4.465 0 8.09-3.62 8.09-8.09 0-4.468-3.625-8.087-8.09-8.087zM-.156 416.62v16.182c4.465 0 8.09-3.622 8.09-8.09s-3.625-8.09-8.09-8.09zM164.202 345.838c-4.468 0-8.09 3.62-8.09 8.09 0 4.468 3.622 8.09 8.09 8.09s8.09-3.622 8.09-8.09c0-4.472-3.622-8.09-8.09-8.09zM-.156 345.838v16.18c4.465 0 8.09-3.62 8.09-8.09 0-4.472-3.625-8.09-8.09-8.09zM41.05 558.338c-4.47 0-8.09 3.62-8.09 8.09 0 .167.013.327.023.49h16.133c.007-.163.024-.322.024-.49 0-4.47-3.622-8.09-8.09-8.09zM-.156 487.405v16.18c4.465 0 8.09-3.618 8.09-8.09 0-4.464-3.625-8.09-8.09-8.09zM-.156 452.015v16.18c4.465 0 8.09-3.62 8.09-8.09 0-4.468-3.625-8.09-8.09-8.09zM-.156 522.798v16.18c4.465 0 8.09-3.62 8.09-8.09s-3.625-8.09-8.09-8.09zM82.1 522.798c-4.47 0-8.09 3.62-8.09 8.09s3.62 8.09 8.09 8.09 8.093-3.62 8.093-8.09-3.622-8.09-8.094-8.09zM-.156 98.086v16.18c4.465 0 8.09-3.618 8.09-8.09 0-4.467-3.625-8.09-8.09-8.09zM-.156 27.303v16.18c4.465 0 8.09-3.62 8.09-8.09 0-4.468-3.625-8.09-8.09-8.09zM-.156 558.338v8.58H7.91c.007-.164.024-.323.024-.49 0-4.47-3.625-8.09-8.09-8.09zM-.156 62.696v16.18c4.465 0 8.09-3.62 8.09-8.09s-3.625-8.09-8.09-8.09zM-.156 204.263v16.185c4.465 0 8.09-3.622 8.09-8.094 0-4.468-3.625-8.09-8.09-8.09zM-.156 133.48v16.185c4.465 0 8.09-3.626 8.09-8.094s-3.625-8.09-8.09-8.09zM-.156 168.873v16.184c4.465 0 8.09-3.622 8.09-8.097 0-4.468-3.625-8.087-8.09-8.087zM-.156 310.44v16.186c4.465 0 8.09-3.623 8.09-8.09 0-4.47-3.625-8.095-8.09-8.095zM123.152 381.23c-4.468 0-8.09 3.62-8.09 8.088 0 4.472 3.622 8.09 8.09 8.09s8.09-3.62 8.09-8.09c0-4.468-3.622-8.087-8.09-8.087zM123.152 168.873c-4.468 0-8.09 3.62-8.09 8.087 0 4.475 3.622 8.097 8.09 8.097s8.09-3.622 8.09-8.097c0-4.468-3.622-8.087-8.09-8.087z"/><circle cx="123.152" cy="247.749" r="8.092"/><circle cx="123.152" cy="141.572" r="8.092"/><circle cx="123.152" cy="283.143" r="8.092"/><path d="M123.152 345.838c-4.468 0-8.09 3.62-8.09 8.09 0 4.468 3.622 8.09 8.09 8.09s8.09-3.622 8.09-8.09c0-4.472-3.622-8.09-8.09-8.09zM123.152 98.086c-4.468 0-8.09 3.622-8.09 8.09 0 4.472 3.622 8.09 8.09 8.09s8.09-3.62 8.09-8.09c0-4.467-3.622-8.09-8.09-8.09z"/><circle cx="123.152" cy="318.533" r="8.092"/><circle cx="123.152" cy="212.356" r="8.092"/><circle cx="164.202" cy="424.711" r="8.09"/><path d="M123.152 62.696c-4.468 0-8.09 3.62-8.09 8.09 0 4.468 3.622 8.09 8.09 8.09s8.09-3.622 8.09-8.09c0-4.47-3.622-8.09-8.09-8.09zM164.202 522.798c-4.468 0-8.09 3.62-8.09 8.09s3.622 8.09 8.09 8.09 8.09-3.62 8.09-8.09-3.622-8.09-8.09-8.09zM164.202 381.23c-4.468 0-8.09 3.62-8.09 8.088 0 4.472 3.622 8.09 8.09 8.09s8.09-3.62 8.09-8.09c0-4.468-3.622-8.087-8.09-8.087z"/><circle cx="164.202" cy="460.105" r="8.09"/><circle cx="123.152" cy="35.393" r="8.09"/><path d="M164.202 558.338c-4.468 0-8.09 3.62-8.09 8.09 0 .167.014.327.024.49h16.132c.007-.163.024-.322.024-.49 0-4.47-3.622-8.09-8.09-8.09zM164.202 487.405c-4.468 0-8.09 3.626-8.09 8.09 0 4.472 3.622 8.09 8.09 8.09s8.09-3.62 8.09-8.09c0-4.464-3.622-8.09-8.09-8.09zM82.1 27.303c-4.47 0-8.09 3.622-8.09 8.09s3.62 8.09 8.09 8.09 8.093-3.622 8.093-8.09-3.622-8.09-8.094-8.09zM82.1 275.05c-4.47 0-8.09 3.622-8.09 8.094 0 4.468 3.62 8.09 8.09 8.09s8.093-3.622 8.093-8.09c0-4.47-3.622-8.094-8.094-8.094z"/><circle cx="123.152" cy="424.711" r="8.09"/><path d="M82.1 310.44c-4.47 0-8.09 3.627-8.09 8.095 0 4.468 3.62 8.09 8.09 8.09s8.093-3.623 8.093-8.09c0-4.47-3.622-8.094-8.094-8.094zM82.1 168.873c-4.47 0-8.09 3.62-8.09 8.087 0 4.475 3.62 8.097 8.09 8.097s8.093-3.622 8.093-8.097c0-4.468-3.622-8.087-8.094-8.087zM82.1 204.263c-4.47 0-8.09 3.622-8.09 8.09 0 4.472 3.62 8.094 8.09 8.094s8.093-3.622 8.093-8.094c0-4.467-3.622-8.09-8.094-8.09zM82.1 416.62c-4.47 0-8.09 3.623-8.09 8.09s3.62 8.09 8.09 8.09 8.093-3.62 8.093-8.09-3.622-8.09-8.094-8.09zM82.1 345.838c-4.47 0-8.09 3.62-8.09 8.09 0 4.468 3.62 8.09 8.09 8.09s8.093-3.622 8.093-8.09c0-4.472-3.622-8.09-8.094-8.09zM82.1 381.23c-4.47 0-8.09 3.62-8.09 8.088 0 4.472 3.62 8.09 8.09 8.09s8.093-3.62 8.093-8.09c0-4.468-3.622-8.087-8.094-8.087zM82.1 239.657c-4.47 0-8.09 3.622-8.09 8.094 0 4.47 3.62 8.09 8.09 8.09s8.093-3.62 8.093-8.09-3.622-8.093-8.094-8.093zM123.152 487.405c-4.468 0-8.09 3.626-8.09 8.09 0 4.472 3.622 8.09 8.09 8.09s8.09-3.62 8.09-8.09c0-4.464-3.622-8.09-8.09-8.09zM82.1 133.48c-4.47 0-8.09 3.623-8.09 8.09 0 4.468 3.62 8.094 8.09 8.094s8.093-3.626 8.093-8.094-3.622-8.09-8.094-8.09zM123.152 522.798c-4.468 0-8.09 3.62-8.09 8.09s3.622 8.09 8.09 8.09 8.09-3.62 8.09-8.09-3.622-8.09-8.09-8.09z"/><circle cx="123.152" cy="460.105" r="8.09"/><path d="M123.152 558.338c-4.468 0-8.09 3.62-8.09 8.09 0 .167.014.327.024.49h16.132c.007-.163.025-.322.025-.49 0-4.47-3.623-8.09-8.09-8.09zM82.1 98.086c-4.47 0-8.09 3.622-8.09 8.09 0 4.472 3.62 8.09 8.09 8.09s8.093-3.62 8.093-8.09c0-4.467-3.622-8.09-8.094-8.09zM82.1 62.696c-4.47 0-8.09 3.62-8.09 8.09 0 4.468 3.62 8.09 8.09 8.09s8.093-3.622 8.093-8.09c0-4.47-3.622-8.09-8.094-8.09zM82.1 452.015c-4.47 0-8.09 3.622-8.09 8.09s3.62 8.09 8.09 8.09 8.093-3.622 8.093-8.09-3.622-8.09-8.094-8.09z"/><circle cx="533.658" cy="283.143" r="8.092"/><path d="M533.658 133.48c-4.468 0-8.09 3.623-8.09 8.09 0 4.468 3.62 8.094 8.09 8.094 4.468 0 8.094-3.626 8.094-8.094s-3.626-8.09-8.094-8.09zM533.658 62.696c-4.468 0-8.09 3.62-8.09 8.09 0 4.468 3.62 8.09 8.09 8.09 4.468 0 8.094-3.622 8.094-8.09 0-4.47-3.626-8.09-8.094-8.09z"/><circle cx="533.658" cy="35.393" r="8.09"/><path d="M533.658 98.086c-4.468 0-8.09 3.622-8.09 8.09 0 4.472 3.62 8.09 8.09 8.09 4.468 0 8.094-3.62 8.094-8.09 0-4.467-3.626-8.09-8.094-8.09zM533.658 168.873c-4.468 0-8.09 3.62-8.09 8.087 0 4.475 3.62 8.097 8.09 8.097 4.468 0 8.094-3.622 8.094-8.097 0-4.468-3.626-8.087-8.094-8.087z"/><circle cx="533.658" cy="247.749" r="8.092"/><path d="M533.658 204.263c-4.468 0-8.09 3.622-8.09 8.09 0 4.472 3.62 8.094 8.09 8.094 4.468 0 8.094-3.622 8.094-8.094 0-4.467-3.626-8.09-8.094-8.09zM410.506 7.935c4.465 0 8.094-3.623 8.094-8.09h-16.185c0 4.467 3.623 8.09 8.09 8.09zM492.605 7.935c4.472 0 8.094-3.623 8.094-8.09h-16.186c0 4.467 3.627 8.09 8.09 8.09zM451.56 7.935c4.464 0 8.09-3.623 8.09-8.09h-16.185c0 4.467 3.626 8.09 8.094 8.09zM328.407 7.935c4.465 0 8.09-3.623 8.09-8.09h-16.184c0 4.467 3.622 8.09 8.094 8.09zM369.453 558.338c-4.468 0-8.087 3.62-8.087 8.09 0 .167.014.327.02.49h16.137c.01-.163.02-.322.02-.49 0-4.47-3.622-8.09-8.09-8.09zM533.658 7.935c4.468 0 8.094-3.623 8.094-8.09h-16.185c0 4.467 3.623 8.09 8.09 8.09zM369.453 7.935c4.468 0 8.09-3.623 8.09-8.09h-16.177c0 4.467 3.62 8.09 8.087 8.09zM41.05 7.935c4.467 0 8.09-3.623 8.09-8.09H32.96c0 4.467 3.62 8.09 8.09 8.09zM82.1 7.935c4.47 0 8.093-3.623 8.093-8.09H74.01c0 4.467 3.62 8.09 8.09 8.09zM-.156 7.935c4.465 0 8.09-3.623 8.09-8.09h-8.09v8.09zM287.354 7.935c4.468 0 8.094-3.623 8.094-8.09h-16.185c0 4.467 3.623 8.09 8.09 8.09zM246.304 7.935c4.468 0 8.087-3.623 8.087-8.09h-16.176c0 4.467 3.622 8.09 8.09 8.09zM164.202 7.935c4.468 0 8.09-3.623 8.09-8.09h-16.18c0 4.467 3.622 8.09 8.09 8.09zM205.255 7.935c4.468 0 8.087-3.623 8.087-8.09h-16.18c0 4.467 3.62 8.09 8.093 8.09zM123.152 7.935c4.468 0 8.09-3.623 8.09-8.09h-16.18c0 4.467 3.622 8.09 8.09 8.09zM558.055 424.113c-.244 3.333 1.815 6.364 4.8 7.863 1.58.793 2.895.92 4.15.772.057-.007.1-.056.1-.113v-15.948c-.322-.042-.648-.066-.98-.066-4.268 0-7.764 3.304-8.07 7.493zM558.055 459.507c-.243 3.332 1.815 6.364 4.802 7.863 1.58.793 2.894.92 4.148.772.057-.007.1-.056.1-.113v-15.953c-.322-.038-.648-.062-.98-.062-4.268 0-7.765 3.303-8.07 7.492zM558.033 353.928c0 4.468 3.623 8.09 8.09 8.09.333 0 .66-.028.98-.066V345.9c-.32-.035-.647-.062-.98-.062-4.467 0-8.09 3.618-8.09 8.09zM558.033 389.273c-.01 2 .902 3.912 2.343 5.3 2.787 2.687 4.772 2.987 6.628 2.784.057-.006.1-.055.1-.113v-15.95c-.322-.04-.648-.063-.98-.063-4.454 0-8.067 3.596-8.09 8.043zM558.033 530.89c0 4.467 3.623 8.09 8.09 8.09.333 0 .66-.03.98-.067v-16.05c-.32-.037-.647-.065-.98-.065-4.467 0-8.09 3.62-8.09 8.09zM558.04 495.13c-.082 1.876.682 3.702 1.958 5.078 2.988 3.22 5.068 3.537 7.006 3.327.057-.006.1-.055.1-.113V487.47c-.322-.038-.648-.066-.98-.066-4.346 0-7.893 3.43-8.083 7.727zM558.04 566.797l.127.12h8.826c.06 0 .11-.05.11-.11V558.4c-.32-.035-.647-.062-.98-.062-4.59 0-8.287 3.82-8.082 8.46zM558.033 177.045c.045 4.436 3.65 8.013 8.09 8.013.333 0 .66-.028.98-.07v-15.95c0-.057-.042-.106-.1-.113-1.888-.205-3.91.1-6.778 2.973-1.363 1.366-2.21 3.216-2.192 5.147zM558.033 106.132c-.01 2 .903 3.913 2.344 5.302 2.787 2.685 4.772 2.985 6.627 2.782.057-.006.1-.055.1-.113v-15.95c-.322-.04-.648-.067-.98-.067-4.454 0-8.067 3.6-8.09 8.046zM558.033 318.535c0 4.468 3.623 8.09 8.09 8.09.333 0 .66-.028.98-.066v-16.05c-.32-.038-.647-.07-.98-.07-4.467 0-8.09 3.626-8.09 8.095zM558.033 141.57c0 4.468 3.623 8.094 8.09 8.094.333 0 .66-.028.98-.07v-16.048c-.32-.038-.647-.066-.98-.066-4.467 0-8.09 3.622-8.09 8.09zM558.033 70.832c.024 4.448 3.638 8.046 8.09 8.046.333 0 .66-.028.98-.066V62.86c0-.057-.042-.106-.1-.113-1.858-.203-3.846.098-6.64 2.8-1.433 1.386-2.34 3.29-2.33 5.285zM558.075 34.558c-.304 2.96 1.27 5.79 3.74 7.448 2.062 1.387 3.67 1.602 5.19 1.424.056-.007.1-.056.1-.113V27.37c-.323-.043-.65-.067-.982-.067-4.185 0-7.63 3.18-8.048 7.255zM558.18 284.685c.718 3.73 4.002 6.55 7.943 6.55.333 0 .66-.028.98-.066v-15.953c0-.057-.042-.107-.1-.113-1.416-.166-2.91.01-4.777 1.158-2.9 1.784-4.692 5.08-4.047 8.423zM558.036 247.964c.078 3.03 2.037 5.656 4.743 7.023 1.614.816 2.95.952 4.225.8.057-.006.1-.055.1-.112v-15.952c-.322-.042-.648-.066-.98-.066-4.54 0-8.207 3.738-8.09 8.307zM558.18 210.813c-.646 3.344 1.145 6.64 4.046 8.422 1.868 1.15 3.36 1.325 4.778 1.158.057-.007.1-.056.1-.113v-15.95c-.322-.043-.648-.067-.98-.067-3.942 0-7.225 2.82-7.945 6.55zM558.15-.156c-.064 0-.117.054-.116.117.063 4.415 3.66 7.974 8.09 7.974.333 0 .66-.024.98-.062V-.045c0-.06-.05-.11-.11-.11h-8.845zM410.506 310.44c-4.468 0-8.09 3.627-8.09 8.095 0 4.468 3.622 8.09 8.09 8.09 4.465 0 8.094-3.623 8.094-8.09 0-4.47-3.63-8.094-8.094-8.094zM410.506 345.838c-4.468 0-8.09 3.62-8.09 8.09 0 4.468 3.622 8.09 8.09 8.09 4.465 0 8.094-3.622 8.094-8.09 0-4.472-3.63-8.09-8.094-8.09zM410.506 522.798c-4.468 0-8.09 3.62-8.09 8.09s3.622 8.09 8.09 8.09c4.465 0 8.094-3.62 8.094-8.09s-3.63-8.09-8.094-8.09zM410.506 239.657c-4.468 0-8.09 3.622-8.09 8.094 0 4.47 3.622 8.09 8.09 8.09 4.465 0 8.094-3.62 8.094-8.09s-3.63-8.093-8.094-8.093zM410.506 275.05c-4.468 0-8.09 3.622-8.09 8.094 0 4.468 3.622 8.09 8.09 8.09 4.465 0 8.094-3.622 8.094-8.09 0-4.47-3.63-8.094-8.094-8.094zM410.506 452.015c-4.468 0-8.09 3.622-8.09 8.09s3.622 8.09 8.09 8.09c4.465 0 8.094-3.622 8.094-8.09s-3.63-8.09-8.094-8.09zM410.506 416.62c-4.468 0-8.09 3.623-8.09 8.09s3.622 8.09 8.09 8.09c4.465 0 8.094-3.62 8.094-8.09s-3.63-8.09-8.094-8.09zM410.506 381.23c-4.468 0-8.09 3.62-8.09 8.088 0 4.472 3.622 8.09 8.09 8.09 4.465 0 8.094-3.62 8.094-8.09 0-4.468-3.63-8.087-8.094-8.087zM410.506 204.263c-4.468 0-8.09 3.622-8.09 8.09 0 4.472 3.622 8.094 8.09 8.094 4.465 0 8.094-3.622 8.094-8.094 0-4.467-3.63-8.09-8.094-8.09zM451.56 452.015c-4.47 0-8.095 3.622-8.095 8.09s3.626 8.09 8.094 8.09c4.464 0 8.09-3.622 8.09-8.09s-3.626-8.09-8.09-8.09zM451.56 558.338c-4.47 0-8.095 3.62-8.095 8.09 0 .167.014.327.028.49h16.13c.01-.163.027-.322.027-.49 0-4.47-3.626-8.09-8.09-8.09zM410.506 27.303c-4.468 0-8.09 3.622-8.09 8.09s3.622 8.09 8.09 8.09c4.465 0 8.094-3.622 8.094-8.09s-3.63-8.09-8.094-8.09zM451.56 522.798c-4.47 0-8.095 3.62-8.095 8.09s3.626 8.09 8.094 8.09c4.464 0 8.09-3.62 8.09-8.09s-3.626-8.09-8.09-8.09zM451.56 487.405c-4.47 0-8.095 3.626-8.095 8.09 0 4.472 3.626 8.09 8.094 8.09 4.464 0 8.09-3.62 8.09-8.09 0-4.464-3.626-8.09-8.09-8.09zM410.506 62.696c-4.468 0-8.09 3.62-8.09 8.09 0 4.468 3.622 8.09 8.09 8.09 4.465 0 8.094-3.622 8.094-8.09 0-4.47-3.63-8.09-8.094-8.09zM410.506 133.48c-4.468 0-8.09 3.623-8.09 8.09 0 4.468 3.622 8.094 8.09 8.094 4.465 0 8.094-3.626 8.094-8.094s-3.63-8.09-8.094-8.09zM410.506 98.086c-4.468 0-8.09 3.622-8.09 8.09 0 4.472 3.622 8.09 8.09 8.09 4.465 0 8.094-3.62 8.094-8.09 0-4.467-3.63-8.09-8.094-8.09zM410.506 168.873c-4.468 0-8.09 3.62-8.09 8.087 0 4.475 3.622 8.097 8.09 8.097 4.465 0 8.094-3.622 8.094-8.097 0-4.468-3.63-8.087-8.094-8.087zM369.453 381.23c-4.468 0-8.087 3.62-8.087 8.088 0 4.472 3.62 8.09 8.087 8.09s8.09-3.62 8.09-8.09c0-4.468-3.622-8.087-8.09-8.087zM369.453 345.838c-4.468 0-8.087 3.62-8.087 8.09 0 4.468 3.62 8.09 8.087 8.09s8.09-3.622 8.09-8.09c0-4.472-3.622-8.09-8.09-8.09z"/><circle cx="369.453" cy="424.711" r="8.09"/><ellipse cx="369.453" cy="318.533" rx="8.087" ry="8.092"/><path d="M369.453 522.798c-4.468 0-8.087 3.62-8.087 8.09s3.62 8.09 8.087 8.09 8.09-3.62 8.09-8.09-3.622-8.09-8.09-8.09zM369.453 487.405c-4.468 0-8.087 3.626-8.087 8.09 0 4.472 3.62 8.09 8.087 8.09s8.09-3.62 8.09-8.09c0-4.464-3.622-8.09-8.09-8.09z"/><ellipse cx="369.453" cy="283.143" rx="8.087" ry="8.092"/><circle cx="369.453" cy="460.105" r="8.09"/><path d="M369.453 204.263c-4.468 0-8.087 3.622-8.087 8.09 0 4.472 3.62 8.094 8.087 8.094s8.09-3.622 8.09-8.094c0-4.467-3.622-8.09-8.09-8.09zM369.453 98.086c-4.468 0-8.087 3.622-8.087 8.09 0 4.472 3.62 8.09 8.087 8.09s8.09-3.62 8.09-8.09c0-4.467-3.622-8.09-8.09-8.09zM369.453 62.696c-4.468 0-8.087 3.62-8.087 8.09 0 4.468 3.62 8.09 8.087 8.09s8.09-3.622 8.09-8.09c0-4.47-3.622-8.09-8.09-8.09z"/><circle cx="369.453" cy="35.393" r="8.09"/><ellipse cx="369.453" cy="247.749" rx="8.087" ry="8.092"/><path d="M410.506 558.338c-4.468 0-8.09 3.62-8.09 8.09 0 .167.014.327.024.49h16.132c.01-.163.028-.322.028-.49 0-4.47-3.63-8.09-8.094-8.09zM410.506 487.405c-4.468 0-8.09 3.626-8.09 8.09 0 4.472 3.622 8.09 8.09 8.09 4.465 0 8.094-3.62 8.094-8.09 0-4.464-3.63-8.09-8.094-8.09zM369.453 168.873c-4.468 0-8.087 3.62-8.087 8.087 0 4.475 3.62 8.097 8.087 8.097s8.09-3.622 8.09-8.097c0-4.468-3.622-8.087-8.09-8.087zM369.453 133.48c-4.468 0-8.087 3.623-8.087 8.09 0 4.468 3.62 8.094 8.087 8.094s8.09-3.626 8.09-8.094-3.622-8.09-8.09-8.09zM451.56 310.44c-4.47 0-8.095 3.627-8.095 8.095 0 4.468 3.626 8.09 8.094 8.09 4.464 0 8.09-3.623 8.09-8.09 0-4.47-3.626-8.094-8.09-8.094zM492.605 168.873c-4.465 0-8.09 3.62-8.09 8.087 0 4.475 3.626 8.097 8.09 8.097 4.472 0 8.094-3.622 8.094-8.097 0-4.468-3.623-8.087-8.095-8.087zM492.605 133.48c-4.465 0-8.09 3.623-8.09 8.09 0 4.468 3.626 8.094 8.09 8.094 4.472 0 8.094-3.626 8.094-8.094s-3.623-8.09-8.095-8.09zM492.605 204.263c-4.465 0-8.09 3.622-8.09 8.09 0 4.472 3.626 8.094 8.09 8.094 4.472 0 8.094-3.622 8.094-8.094 0-4.467-3.623-8.09-8.095-8.09zM492.605 98.086c-4.465 0-8.09 3.622-8.09 8.09 0 4.472 3.626 8.09 8.09 8.09 4.472 0 8.094-3.62 8.094-8.09 0-4.467-3.623-8.09-8.095-8.09zM492.605 275.05c-4.465 0-8.09 3.622-8.09 8.094 0 4.468 3.626 8.09 8.09 8.09 4.472 0 8.094-3.622 8.094-8.09 0-4.47-3.623-8.094-8.095-8.094zM492.605 310.44c-4.465 0-8.09 3.627-8.09 8.095 0 4.468 3.626 8.09 8.09 8.09 4.472 0 8.094-3.623 8.094-8.09 0-4.47-3.623-8.094-8.095-8.094zM492.605 62.696c-4.465 0-8.09 3.62-8.09 8.09 0 4.468 3.626 8.09 8.09 8.09 4.472 0 8.094-3.622 8.094-8.09 0-4.47-3.623-8.09-8.095-8.09zM492.605 239.657c-4.465 0-8.09 3.622-8.09 8.094 0 4.47 3.626 8.09 8.09 8.09 4.472 0 8.094-3.62 8.094-8.09s-3.623-8.093-8.095-8.093z"/><circle cx="533.658" cy="424.711" r="8.09"/><path d="M492.605 345.838c-4.465 0-8.09 3.62-8.09 8.09 0 4.468 3.626 8.09 8.09 8.09 4.472 0 8.094-3.622 8.094-8.09 0-4.472-3.623-8.09-8.095-8.09zM533.658 381.23c-4.468 0-8.09 3.62-8.09 8.088 0 4.472 3.62 8.09 8.09 8.09 4.468 0 8.094-3.62 8.094-8.09 0-4.468-3.626-8.087-8.094-8.087zM451.56 416.62c-4.47 0-8.095 3.623-8.095 8.09s3.626 8.09 8.094 8.09c4.464 0 8.09-3.62 8.09-8.09s-3.626-8.09-8.09-8.09zM492.605 27.303c-4.465 0-8.09 3.622-8.09 8.09s3.626 8.09 8.09 8.09c4.472 0 8.094-3.622 8.094-8.09s-3.623-8.09-8.095-8.09z"/><circle cx="533.658" cy="460.105" r="8.09"/><path d="M533.658 558.338c-4.468 0-8.09 3.62-8.09 8.09 0 .167.013.327.024.49h16.136c.007-.163.024-.322.024-.49 0-4.47-3.626-8.09-8.094-8.09zM533.658 522.798c-4.468 0-8.09 3.62-8.09 8.09s3.62 8.09 8.09 8.09c4.468 0 8.094-3.62 8.094-8.09s-3.626-8.09-8.094-8.09zM533.658 487.405c-4.468 0-8.09 3.626-8.09 8.09 0 4.472 3.62 8.09 8.09 8.09 4.468 0 8.094-3.62 8.094-8.09 0-4.464-3.626-8.09-8.094-8.09zM533.658 345.838c-4.468 0-8.09 3.62-8.09 8.09 0 4.468 3.62 8.09 8.09 8.09 4.468 0 8.094-3.622 8.094-8.09 0-4.472-3.626-8.09-8.094-8.09zM451.56 204.263c-4.47 0-8.095 3.622-8.095 8.09 0 4.472 3.626 8.094 8.094 8.094 4.464 0 8.09-3.622 8.09-8.094 0-4.467-3.626-8.09-8.09-8.09zM451.56 133.48c-4.47 0-8.095 3.623-8.095 8.09 0 4.468 3.626 8.094 8.094 8.094 4.464 0 8.09-3.626 8.09-8.094s-3.626-8.09-8.09-8.09zM451.56 239.657c-4.47 0-8.095 3.622-8.095 8.094 0 4.47 3.626 8.09 8.094 8.09 4.464 0 8.09-3.62 8.09-8.09s-3.626-8.093-8.09-8.093zM451.56 168.873c-4.47 0-8.095 3.62-8.095 8.087 0 4.475 3.626 8.097 8.094 8.097 4.464 0 8.09-3.622 8.09-8.097 0-4.468-3.626-8.087-8.09-8.087zM451.56 275.05c-4.47 0-8.095 3.622-8.095 8.094 0 4.468 3.626 8.09 8.094 8.09 4.464 0 8.09-3.622 8.09-8.09 0-4.47-3.626-8.094-8.09-8.094zM451.56 381.23c-4.47 0-8.095 3.62-8.095 8.088 0 4.472 3.626 8.09 8.094 8.09 4.464 0 8.09-3.62 8.09-8.09 0-4.468-3.626-8.087-8.09-8.087zM451.56 345.838c-4.47 0-8.095 3.62-8.095 8.09 0 4.468 3.626 8.09 8.094 8.09 4.464 0 8.09-3.622 8.09-8.09 0-4.472-3.626-8.09-8.09-8.09z"/><circle cx="533.658" cy="318.533" r="8.092"/><path d="M451.56 98.086c-4.47 0-8.095 3.622-8.095 8.09 0 4.472 3.626 8.09 8.094 8.09 4.464 0 8.09-3.62 8.09-8.09 0-4.467-3.626-8.09-8.09-8.09zM492.605 452.015c-4.465 0-8.09 3.622-8.09 8.09s3.626 8.09 8.09 8.09c4.472 0 8.094-3.622 8.094-8.09s-3.623-8.09-8.095-8.09zM492.605 381.23c-4.465 0-8.09 3.62-8.09 8.088 0 4.472 3.626 8.09 8.09 8.09 4.472 0 8.094-3.62 8.094-8.09 0-4.468-3.623-8.087-8.095-8.087zM492.605 522.798c-4.465 0-8.09 3.62-8.09 8.09s3.626 8.09 8.09 8.09c4.472 0 8.094-3.62 8.094-8.09s-3.623-8.09-8.095-8.09zM492.605 416.62c-4.465 0-8.09 3.623-8.09 8.09s3.626 8.09 8.09 8.09c4.472 0 8.094-3.62 8.094-8.09s-3.623-8.09-8.095-8.09zM492.605 487.405c-4.465 0-8.09 3.626-8.09 8.09 0 4.472 3.626 8.09 8.09 8.09 4.472 0 8.094-3.62 8.094-8.09 0-4.464-3.623-8.09-8.095-8.09zM492.605 558.338c-4.465 0-8.09 3.62-8.09 8.09 0 .167.017.327.025.49h16.132c.01-.163.028-.322.028-.49 0-4.47-3.623-8.09-8.095-8.09zM451.56 62.696c-4.47 0-8.095 3.62-8.095 8.09 0 4.468 3.626 8.09 8.094 8.09 4.464 0 8.09-3.622 8.09-8.09 0-4.47-3.626-8.09-8.09-8.09zM451.56 27.303c-4.47 0-8.095 3.622-8.095 8.09s3.626 8.09 8.094 8.09c4.464 0 8.09-3.622 8.09-8.09s-3.626-8.09-8.09-8.09z"/></g></svg>