<svg xmlns="http://www.w3.org/2000/svg" viewBox="0 0 566.93 566.93" enable-background="new 0 0 566.93 566.93"><g><path fill="#010202" d="M6.368 0h7v566.825h-7zM29.7 0h7v566.825h-7zM53.034 0h7v566.825h-7zM76.368 0h7v566.825h-7zM99.7 0h7v566.825h-7zM123.034 0h7v566.825h-7zM146.368 0h7v566.825h-7zM169.7 0h7v566.825h-7zM193.034 0h7v566.825h-7zM216.368 0h7v566.825h-7zM239.7 0h7v566.825h-7zM263.034 0h7v566.825h-7zM286.368 0h7v566.825h-7zM309.7 0h7v566.825h-7zM333.034 0h7v566.825h-7zM356.368 0h7v566.825h-7zM379.7 0h7v566.825h-7zM403.034 0h7v566.825h-7zM426.368 0h7v566.825h-7zM449.7 0h7v566.825h-7zM473.034 0h7v566.825h-7zM496.368 0h7v566.825h-7zM519.7 0h7v566.825h-7zM543.034 0h7v566.825h-7z"/></g></svg>