<?xml version="1.0" encoding="utf-8"?>
<!-- Generator: Adobe Illustrator 17.1.0, SVG Export Plug-In . SVG Version: 6.00 Build 0)  -->
<!DOCTYPE svg PUBLIC "-//W3C//DTD SVG 1.1//EN" "http://www.w3.org/Graphics/SVG/1.1/DTD/svg11.dtd">
<svg version="1.1" xmlns="http://www.w3.org/2000/svg" xmlns:xlink="http://www.w3.org/1999/xlink" x="0px" y="0px"
	 width="566.93px" height="566.93px" viewBox="0 0 566.93 566.93" enable-background="new 0 0 566.93 566.93" xml:space="preserve">
<g id="Ebene_1">
	<g>
		<defs>
			<rect id="SVGID_1_" x="618.062" width="566.93" height="566.93"/>
		</defs>
		<clipPath id="SVGID_2_">
			<use xlink:href="#SVGID_1_"  overflow="visible"/>
		</clipPath>
		<g clip-path="url(#SVGID_2_)">
			<g>
				<circle fill="#FFFFFF" cx="586.907" cy="35.49" r="70.149"/>
				<path d="M586.907,109.64c-40.886,0-74.149-33.263-74.149-74.149s33.264-74.149,74.149-74.149s74.149,33.263,74.149,74.149
					S627.793,109.64,586.907,109.64z M586.907-30.659c-36.475,0-66.149,29.674-66.149,66.149s29.675,66.149,66.149,66.149
					s66.149-29.674,66.149-66.149S623.382-30.659,586.907-30.659z"/>
			</g>
			<circle fill="#FFFFFF" stroke="#000000" stroke-width="7" stroke-miterlimit="10" cx="586.907" cy="35.49" r="52.612"/>
			<circle fill="#FFFFFF" stroke="#000000" stroke-width="6" stroke-miterlimit="10" cx="586.907" cy="35.49" r="34.329"/>
			<circle fill="#FFFFFF" stroke="#000000" stroke-width="5" stroke-miterlimit="10" cx="586.907" cy="35.49" r="20.941"/>
		</g>
		<g clip-path="url(#SVGID_2_)">
			<g>
				<circle fill="#FFFFFF" cx="586.907" cy="114.986" r="70.149"/>
				<path d="M586.907,189.136c-40.886,0-74.149-33.263-74.149-74.149s33.264-74.149,74.149-74.149s74.149,33.263,74.149,74.149
					S627.793,189.136,586.907,189.136z M586.907,48.837c-36.475,0-66.149,29.674-66.149,66.149s29.675,66.149,66.149,66.149
					s66.149-29.674,66.149-66.149S623.382,48.837,586.907,48.837z"/>
			</g>
			<circle fill="#FFFFFF" stroke="#000000" stroke-width="7" stroke-miterlimit="10" cx="586.907" cy="114.986" r="52.612"/>
			<circle fill="#FFFFFF" stroke="#000000" stroke-width="6" stroke-miterlimit="10" cx="586.907" cy="114.986" r="34.329"/>
			<circle fill="#FFFFFF" stroke="#000000" stroke-width="5" stroke-miterlimit="10" cx="586.907" cy="114.986" r="20.941"/>
		</g>
		<g clip-path="url(#SVGID_2_)">
			<g>
				<circle fill="#FFFFFF" cx="586.907" cy="194.482" r="70.149"/>
				<path d="M586.907,268.632c-40.886,0-74.149-33.263-74.149-74.149s33.264-74.149,74.149-74.149s74.149,33.263,74.149,74.149
					S627.793,268.632,586.907,268.632z M586.907,128.333c-36.475,0-66.149,29.674-66.149,66.149s29.675,66.149,66.149,66.149
					s66.149-29.674,66.149-66.149S623.382,128.333,586.907,128.333z"/>
			</g>
			<circle fill="#FFFFFF" stroke="#000000" stroke-width="7" stroke-miterlimit="10" cx="586.907" cy="194.482" r="52.612"/>
			<circle fill="#FFFFFF" stroke="#000000" stroke-width="6" stroke-miterlimit="10" cx="586.907" cy="194.482" r="34.329"/>
			<circle fill="#FFFFFF" stroke="#000000" stroke-width="5" stroke-miterlimit="10" cx="586.907" cy="194.482" r="20.941"/>
		</g>
		<g clip-path="url(#SVGID_2_)">
			<g>
				<circle fill="#FFFFFF" cx="586.907" cy="273.978" r="70.149"/>
				<path d="M586.907,348.128c-40.886,0-74.149-33.264-74.149-74.15c0-40.886,33.264-74.149,74.149-74.149
					s74.149,33.263,74.149,74.149C661.056,314.864,627.793,348.128,586.907,348.128z M586.907,207.829
					c-36.475,0-66.149,29.674-66.149,66.149c0,36.475,29.675,66.15,66.149,66.15s66.149-29.675,66.149-66.15
					C653.056,237.503,623.382,207.829,586.907,207.829z"/>
			</g>
			<circle fill="#FFFFFF" stroke="#000000" stroke-width="7" stroke-miterlimit="10" cx="586.907" cy="273.978" r="52.612"/>
			<circle fill="#FFFFFF" stroke="#000000" stroke-width="6" stroke-miterlimit="10" cx="586.907" cy="273.978" r="34.329"/>
			<circle fill="#FFFFFF" stroke="#000000" stroke-width="5" stroke-miterlimit="10" cx="586.907" cy="273.978" r="20.941"/>
		</g>
		<g clip-path="url(#SVGID_2_)">
			<g>
				<circle fill="#FFFFFF" cx="586.907" cy="353.474" r="70.149"/>
				<path d="M586.907,427.624c-40.886,0-74.149-33.264-74.149-74.149c0-40.887,33.264-74.15,74.149-74.15
					s74.149,33.263,74.149,74.15C661.056,394.36,627.793,427.624,586.907,427.624z M586.907,287.325
					c-36.475,0-66.149,29.674-66.149,66.149c0,36.475,29.675,66.149,66.149,66.149s66.149-29.675,66.149-66.149
					C653.056,316.999,623.382,287.325,586.907,287.325z"/>
			</g>
			<circle fill="#FFFFFF" stroke="#000000" stroke-width="7" stroke-miterlimit="10" cx="586.907" cy="353.474" r="52.612"/>
			<circle fill="#FFFFFF" stroke="#000000" stroke-width="6" stroke-miterlimit="10" cx="586.907" cy="353.474" r="34.329"/>
			<circle fill="#FFFFFF" stroke="#000000" stroke-width="5" stroke-miterlimit="10" cx="586.907" cy="353.474" r="20.941"/>
		</g>
		<g clip-path="url(#SVGID_2_)">
			<g>
				<circle fill="#FFFFFF" cx="586.907" cy="432.97" r="70.149"/>
				<path d="M586.907,507.12c-40.886,0-74.149-33.264-74.149-74.149s33.264-74.149,74.149-74.149s74.149,33.264,74.149,74.149
					S627.793,507.12,586.907,507.12z M586.907,366.821c-36.475,0-66.149,29.675-66.149,66.149s29.675,66.149,66.149,66.149
					s66.149-29.675,66.149-66.149S623.382,366.821,586.907,366.821z"/>
			</g>
			<circle fill="#FFFFFF" stroke="#000000" stroke-width="7" stroke-miterlimit="10" cx="586.907" cy="432.97" r="52.612"/>
			<circle fill="#FFFFFF" stroke="#000000" stroke-width="6" stroke-miterlimit="10" cx="586.907" cy="432.97" r="34.329"/>
			<circle fill="#FFFFFF" stroke="#000000" stroke-width="5" stroke-miterlimit="10" cx="586.907" cy="432.97" r="20.941"/>
		</g>
		<g clip-path="url(#SVGID_2_)">
			<g>
				<circle fill="#FFFFFF" cx="586.907" cy="512.466" r="70.149"/>
				<path d="M586.907,586.615c-40.886,0-74.149-33.263-74.149-74.148s33.264-74.149,74.149-74.149s74.149,33.264,74.149,74.149
					S627.793,586.615,586.907,586.615z M586.907,446.317c-36.475,0-66.149,29.675-66.149,66.149s29.675,66.148,66.149,66.148
					s66.149-29.674,66.149-66.148S623.382,446.317,586.907,446.317z"/>
			</g>
			<circle fill="#FFFFFF" stroke="#000000" stroke-width="7" stroke-miterlimit="10" cx="586.907" cy="512.466" r="52.612"/>
			<circle fill="#FFFFFF" stroke="#000000" stroke-width="6" stroke-miterlimit="10" cx="586.907" cy="512.466" r="34.329"/>
			<circle fill="#FFFFFF" stroke="#000000" stroke-width="5" stroke-miterlimit="10" cx="586.907" cy="512.466" r="20.941"/>
		</g>
	</g>
	<g>
		<polygon fill="none" points="0,437.818 0,442.769 2.888,442.769 		"/>
		<polygon fill="none" points="0,207.596 0,212.548 2.888,212.548 		"/>
		<polygon fill="none" points="0,284.337 0,289.288 2.888,289.288 		"/>
		<polygon fill="none" points="550.735,519.509 566.93,519.509 566.93,470.531 550.735,442.769 566.93,442.769 566.93,393.79 
			550.735,366.028 566.93,366.028 566.93,317.05 550.735,289.288 566.93,289.288 566.93,240.31 550.735,212.548 566.93,212.548 
			566.93,163.569 550.735,135.807 566.93,135.807 566.93,86.829 550.735,59.067 566.93,59.067 566.93,10.088 561.045,0 520.387,0 
			508.314,20.697 553.079,20.697 530.697,59.067 508.314,97.437 553.079,97.437 530.697,135.807 508.314,174.177 553.079,174.177 
			530.697,212.548 508.314,250.918 553.079,250.918 530.697,289.288 508.314,327.658 553.079,327.658 530.697,366.028 
			508.314,404.399 553.079,404.399 530.697,442.769 508.314,481.139 553.079,481.139 530.697,519.509 508.314,481.139 
			485.931,442.769 530.697,442.769 508.314,404.399 485.931,366.028 530.697,366.028 508.314,327.658 485.931,289.288 
			530.697,289.288 508.314,250.918 485.931,212.548 530.697,212.548 508.314,174.177 485.931,135.807 530.697,135.807 
			508.314,97.437 485.931,59.067 530.697,59.067 508.314,20.697 496.241,0 453.239,0 441.166,20.697 485.931,20.697 463.549,59.067 
			441.166,97.437 485.931,97.437 463.549,135.807 441.166,174.177 485.931,174.177 463.549,212.548 441.166,250.918 
			485.931,250.918 463.549,289.288 441.166,327.658 485.931,327.658 463.549,366.028 441.166,404.399 485.931,404.399 
			463.549,442.769 441.166,481.139 485.931,481.139 463.549,519.509 441.166,481.139 418.784,442.769 463.549,442.769 
			441.166,404.399 418.784,366.028 463.549,366.028 441.166,327.658 418.784,289.288 463.549,289.288 441.166,250.918 
			418.784,212.548 463.549,212.548 441.166,174.177 418.784,135.807 463.549,135.807 441.166,97.437 418.784,59.067 463.549,59.067 
			441.166,20.697 429.093,0 388.435,0 376.362,20.697 421.127,20.697 398.745,59.067 376.362,97.437 421.127,97.437 
			398.745,135.807 376.362,174.177 421.127,174.177 398.745,212.548 376.362,250.918 421.127,250.918 398.745,289.288 
			376.362,327.658 421.127,327.658 398.745,366.028 376.362,404.399 421.127,404.399 398.745,442.769 376.362,481.139 
			421.127,481.139 398.745,519.509 376.362,481.139 353.979,442.769 398.745,442.769 376.362,404.399 353.979,366.028 
			398.745,366.028 376.362,327.658 353.979,289.288 398.745,289.288 376.362,250.918 353.979,212.548 398.745,212.548 
			376.362,174.177 353.979,135.807 398.745,135.807 376.362,97.437 353.979,59.067 398.745,59.067 376.362,20.697 364.289,0 
			321.287,0 309.214,20.697 353.979,20.697 331.597,59.067 309.214,97.437 353.979,97.437 331.597,135.807 309.214,174.177 
			353.979,174.177 331.597,212.548 309.214,250.918 353.979,250.918 331.597,289.288 309.214,327.658 353.979,327.658 
			331.597,366.028 309.214,404.399 353.979,404.399 331.597,442.769 309.214,481.139 353.979,481.139 331.597,519.509 
			309.214,481.139 286.831,442.769 331.597,442.769 309.214,404.399 286.831,366.028 331.597,366.028 309.214,327.658 
			286.831,289.288 331.597,289.288 309.214,250.918 286.831,212.548 331.597,212.548 309.214,174.177 286.831,135.807 
			331.597,135.807 309.214,97.437 286.831,59.067 331.597,59.067 309.214,20.697 297.141,0 256.483,0 244.41,20.697 289.175,20.697 
			266.792,59.067 244.41,97.437 289.175,97.437 266.792,135.807 244.41,174.177 289.175,174.177 266.792,212.548 244.41,250.918 
			289.175,250.918 266.792,289.288 244.41,327.658 289.175,327.658 266.792,366.028 244.41,404.399 289.175,404.399 
			266.792,442.769 244.41,481.139 289.175,481.139 266.792,519.509 244.41,481.139 222.027,442.769 266.792,442.769 244.41,404.399 
			222.027,366.028 266.792,366.028 244.41,327.658 222.027,289.288 266.792,289.288 244.41,250.918 222.027,212.548 
			266.792,212.548 244.41,174.177 222.027,135.807 266.792,135.807 244.41,97.437 222.027,59.067 266.792,59.067 244.41,20.697 
			232.337,0 189.335,0 177.262,20.697 222.027,20.697 199.644,59.067 177.262,97.437 222.027,97.437 199.644,135.807 
			177.262,174.177 222.027,174.177 199.644,212.548 177.262,250.918 222.027,250.918 199.644,289.288 177.262,327.658 
			222.027,327.658 199.644,366.028 177.262,404.399 222.027,404.399 199.644,442.769 177.262,481.139 222.027,481.139 
			199.644,519.509 177.262,481.139 154.879,442.769 199.644,442.769 177.262,404.399 154.879,366.028 199.644,366.028 
			177.262,327.658 154.879,289.288 199.644,289.288 177.262,250.918 154.879,212.548 199.644,212.548 177.262,174.177 
			154.879,135.807 199.644,135.807 177.262,97.437 154.879,59.067 199.644,59.067 177.262,20.697 165.189,0 124.531,0 
			112.458,20.697 157.223,20.697 134.84,59.067 112.458,97.437 157.223,97.437 134.84,135.807 112.458,174.177 157.223,174.177 
			134.84,212.548 112.458,250.918 157.223,250.918 134.84,289.288 112.458,327.658 157.223,327.658 134.84,366.028 112.458,404.399 
			157.223,404.399 134.84,442.769 112.458,481.139 157.223,481.139 134.84,519.509 112.458,481.139 90.075,442.769 134.84,442.769 
			112.458,404.399 90.075,366.028 134.84,366.028 112.458,327.658 90.075,289.288 134.84,289.288 112.458,250.918 90.075,212.548 
			134.84,212.548 112.458,174.177 90.075,135.807 134.84,135.807 112.458,97.437 90.075,59.067 134.84,59.067 112.458,20.697 
			100.385,0 57.383,0 45.31,20.697 90.075,20.697 67.692,59.067 45.31,97.437 90.075,97.437 67.692,135.807 45.31,174.177 
			90.075,174.177 67.692,212.548 45.31,250.918 90.075,250.918 67.692,289.288 45.31,327.658 90.075,327.658 67.692,366.028 
			45.31,404.399 90.075,404.399 67.692,442.769 45.31,481.139 90.075,481.139 67.692,519.509 45.31,481.139 22.927,442.769 
			67.692,442.769 45.31,404.399 22.927,366.028 67.692,366.028 45.31,327.658 22.927,289.288 67.692,289.288 45.31,250.918 
			22.927,212.548 67.692,212.548 45.31,174.177 22.927,135.807 67.692,135.807 45.31,97.437 22.927,59.067 67.692,59.067 
			45.31,20.697 33.237,0 0,0 0,20.697 25.271,20.697 2.888,59.067 0,64.018 0,97.437 25.271,97.437 2.888,135.807 0,140.758 
			0,174.177 25.271,174.177 2.888,212.548 0,217.499 0,250.918 25.271,250.918 2.888,289.288 0,294.239 0,327.658 25.271,327.658 
			2.888,366.028 0,370.979 0,404.399 25.271,404.399 2.888,442.769 0,447.72 0,481.139 25.271,481.139 2.888,519.509 0,514.558 
			0,519.509 2.888,519.509 0,524.46 0,557.879 25.271,557.879 19.991,566.93 50.589,566.93 45.31,557.879 22.927,519.509 
			67.692,519.509 45.31,557.879 90.075,557.879 84.795,566.93 117.737,566.93 112.458,557.879 90.075,519.509 134.84,519.509 
			112.458,557.879 157.223,557.879 151.943,566.93 182.541,566.93 177.262,557.879 154.879,519.509 199.644,519.509 
			177.262,557.879 222.027,557.879 216.747,566.93 249.689,566.93 244.41,557.879 222.027,519.509 266.792,519.509 244.41,557.879 
			289.175,557.879 283.895,566.93 314.493,566.93 309.214,557.879 286.831,519.509 331.597,519.509 309.214,557.879 
			353.979,557.879 348.7,566.93 381.641,566.93 376.362,557.879 353.979,519.509 398.745,519.509 376.362,557.879 421.127,557.879 
			415.848,566.93 446.446,566.93 441.166,557.879 418.784,519.509 463.549,519.509 441.166,557.879 485.931,557.879 480.652,566.93 
			513.594,566.93 508.314,557.879 485.931,519.509 530.697,519.509 508.314,557.879 553.079,557.879 547.799,566.93 566.93,566.93 
			566.93,547.271 		"/>
		<polygon fill="none" points="0,54.116 0,59.067 2.888,59.067 		"/>
		<polygon fill="none" points="0,130.856 0,135.807 2.888,135.807 		"/>
		<polygon fill="none" points="0,361.077 0,366.028 2.888,366.028 		"/>
		<polygon points="45.31,557.879 50.589,566.93 84.795,566.93 90.075,557.879 		"/>
		<polygon points="22.927,519.509 45.31,557.879 67.692,519.509 		"/>
		<polygon points="90.075,481.139 45.31,481.139 67.692,519.509 		"/>
		<polygon points="45.31,481.139 67.692,442.769 22.927,442.769 		"/>
		<polygon points="90.075,404.399 45.31,404.399 67.692,442.769 		"/>
		<polygon points="45.31,404.399 67.692,366.028 22.927,366.028 		"/>
		<polygon points="90.075,327.658 45.31,327.658 67.692,366.028 		"/>
		<polygon points="45.31,327.658 67.692,289.288 22.927,289.288 		"/>
		<polygon points="90.075,250.918 45.31,250.918 67.692,289.288 		"/>
		<polygon points="45.31,250.918 67.692,212.548 22.927,212.548 		"/>
		<polygon points="90.075,174.177 45.31,174.177 67.692,212.548 		"/>
		<polygon points="45.31,174.177 67.692,135.807 22.927,135.807 		"/>
		<polygon points="90.075,97.437 45.31,97.437 67.692,135.807 		"/>
		<polygon points="45.31,97.437 67.692,59.067 22.927,59.067 		"/>
		<polygon points="90.075,20.697 45.31,20.697 67.692,59.067 		"/>
		<polygon points="57.383,0 33.237,0 45.31,20.697 		"/>
		<polygon points="0,557.879 0,566.93 19.991,566.93 25.271,557.879 		"/>
		<polygon points="0,519.509 0,524.46 2.888,519.509 		"/>
		<polygon points="25.271,481.139 0,481.139 0,514.558 2.888,519.509 		"/>
		<polygon points="0,442.769 0,447.72 2.888,442.769 		"/>
		<polygon points="25.271,404.399 0,404.399 0,437.818 2.888,442.769 		"/>
		<polygon points="0,366.028 0,370.979 2.888,366.028 		"/>
		<polygon points="25.271,327.658 0,327.658 0,361.077 2.888,366.028 		"/>
		<polygon points="0,289.288 0,294.239 2.888,289.288 		"/>
		<polygon points="25.271,250.918 0,250.918 0,284.337 2.888,289.288 		"/>
		<polygon points="0,212.548 0,217.499 2.888,212.548 		"/>
		<polygon points="25.271,174.177 0,174.177 0,207.596 2.888,212.548 		"/>
		<polygon points="0,135.807 0,140.758 2.888,135.807 		"/>
		<polygon points="25.271,97.437 0,97.437 0,130.856 2.888,135.807 		"/>
		<polygon points="0,59.067 0,64.018 2.888,59.067 		"/>
		<polygon points="25.271,20.697 0,20.697 0,54.116 2.888,59.067 		"/>
		<polygon points="177.262,557.879 182.541,566.93 216.747,566.93 222.027,557.879 		"/>
		<polygon points="154.879,519.509 177.262,557.879 199.644,519.509 		"/>
		<polygon points="222.027,481.139 177.262,481.139 199.644,519.509 		"/>
		<polygon points="177.262,481.139 199.644,442.769 154.879,442.769 		"/>
		<polygon points="222.027,404.399 177.262,404.399 199.644,442.769 		"/>
		<polygon points="177.262,404.399 199.644,366.028 154.879,366.028 		"/>
		<polygon points="222.027,327.658 177.262,327.658 199.644,366.028 		"/>
		<polygon points="177.262,327.658 199.644,289.288 154.879,289.288 		"/>
		<polygon points="222.027,250.918 177.262,250.918 199.644,289.288 		"/>
		<polygon points="177.262,250.918 199.644,212.548 154.879,212.548 		"/>
		<polygon points="222.027,174.177 177.262,174.177 199.644,212.548 		"/>
		<polygon points="177.262,174.177 199.644,135.807 154.879,135.807 		"/>
		<polygon points="222.027,97.437 177.262,97.437 199.644,135.807 		"/>
		<polygon points="177.262,97.437 199.644,59.067 154.879,59.067 		"/>
		<polygon points="222.027,20.697 177.262,20.697 199.644,59.067 		"/>
		<polygon points="189.335,0 165.189,0 177.262,20.697 		"/>
		<polygon points="112.458,557.879 117.737,566.93 151.943,566.93 157.223,557.879 		"/>
		<polygon points="90.075,519.509 112.458,557.879 134.84,519.509 		"/>
		<polygon points="157.223,481.139 112.458,481.139 134.84,519.509 		"/>
		<polygon points="112.458,481.139 134.84,442.769 90.075,442.769 		"/>
		<polygon points="157.223,404.399 112.458,404.399 134.84,442.769 		"/>
		<polygon points="112.458,404.399 134.84,366.028 90.075,366.028 		"/>
		<polygon points="157.223,327.658 112.458,327.658 134.84,366.028 		"/>
		<polygon points="112.458,327.658 134.84,289.288 90.075,289.288 		"/>
		<polygon points="157.223,250.918 112.458,250.918 134.84,289.288 		"/>
		<polygon points="112.458,250.918 134.84,212.548 90.075,212.548 		"/>
		<polygon points="157.223,174.177 112.458,174.177 134.84,212.548 		"/>
		<polygon points="112.458,174.177 134.84,135.807 90.075,135.807 		"/>
		<polygon points="157.223,97.437 112.458,97.437 134.84,135.807 		"/>
		<polygon points="112.458,97.437 134.84,59.067 90.075,59.067 		"/>
		<polygon points="157.223,20.697 112.458,20.697 134.84,59.067 		"/>
		<polygon points="124.531,0 100.385,0 112.458,20.697 		"/>
		<polygon points="309.214,557.879 314.493,566.93 348.7,566.93 353.979,557.879 		"/>
		<polygon points="286.831,519.509 309.214,557.879 331.597,519.509 		"/>
		<polygon points="353.979,481.139 309.214,481.139 331.597,519.509 		"/>
		<polygon points="309.214,481.139 331.597,442.769 286.831,442.769 		"/>
		<polygon points="353.979,404.399 309.214,404.399 331.597,442.769 		"/>
		<polygon points="309.214,404.399 331.597,366.028 286.831,366.028 		"/>
		<polygon points="353.979,327.658 309.214,327.658 331.597,366.028 		"/>
		<polygon points="309.214,327.658 331.597,289.288 286.831,289.288 		"/>
		<polygon points="353.979,250.918 309.214,250.918 331.597,289.288 		"/>
		<polygon points="309.214,250.918 331.597,212.548 286.831,212.548 		"/>
		<polygon points="353.979,174.177 309.214,174.177 331.597,212.548 		"/>
		<polygon points="309.214,174.177 331.597,135.807 286.831,135.807 		"/>
		<polygon points="353.979,97.437 309.214,97.437 331.597,135.807 		"/>
		<polygon points="309.214,97.437 331.597,59.067 286.831,59.067 		"/>
		<polygon points="353.979,20.697 309.214,20.697 331.597,59.067 		"/>
		<polygon points="321.287,0 297.141,0 309.214,20.697 		"/>
		<polygon points="244.41,557.879 249.689,566.93 283.895,566.93 289.175,557.879 		"/>
		<polygon points="222.027,519.509 244.41,557.879 266.792,519.509 		"/>
		<polygon points="289.175,481.139 244.41,481.139 266.792,519.509 		"/>
		<polygon points="244.41,481.139 266.792,442.769 222.027,442.769 		"/>
		<polygon points="289.175,404.399 244.41,404.399 266.792,442.769 		"/>
		<polygon points="244.41,404.399 266.792,366.028 222.027,366.028 		"/>
		<polygon points="289.175,327.658 244.41,327.658 266.792,366.028 		"/>
		<polygon points="244.41,327.658 266.792,289.288 222.027,289.288 		"/>
		<polygon points="289.175,250.918 244.41,250.918 266.792,289.288 		"/>
		<polygon points="244.41,250.918 266.792,212.548 222.027,212.548 		"/>
		<polygon points="289.175,174.177 244.41,174.177 266.792,212.548 		"/>
		<polygon points="244.41,174.177 266.792,135.807 222.027,135.807 		"/>
		<polygon points="289.175,97.437 244.41,97.437 266.792,135.807 		"/>
		<polygon points="244.41,97.437 266.792,59.067 222.027,59.067 		"/>
		<polygon points="289.175,20.697 244.41,20.697 266.792,59.067 		"/>
		<polygon points="256.483,0 232.337,0 244.41,20.697 		"/>
		<polygon points="441.166,557.879 446.446,566.93 480.652,566.93 485.931,557.879 		"/>
		<polygon points="418.784,519.509 441.166,557.879 463.549,519.509 		"/>
		<polygon points="485.931,481.139 441.166,481.139 463.549,519.509 		"/>
		<polygon points="441.166,481.139 463.549,442.769 418.784,442.769 		"/>
		<polygon points="485.931,404.399 441.166,404.399 463.549,442.769 		"/>
		<polygon points="441.166,404.399 463.549,366.028 418.784,366.028 		"/>
		<polygon points="485.931,327.658 441.166,327.658 463.549,366.028 		"/>
		<polygon points="441.166,327.658 463.549,289.288 418.784,289.288 		"/>
		<polygon points="485.931,250.918 441.166,250.918 463.549,289.288 		"/>
		<polygon points="441.166,250.918 463.549,212.548 418.784,212.548 		"/>
		<polygon points="485.931,174.177 441.166,174.177 463.549,212.548 		"/>
		<polygon points="441.166,174.177 463.549,135.807 418.784,135.807 		"/>
		<polygon points="485.931,97.437 441.166,97.437 463.549,135.807 		"/>
		<polygon points="441.166,97.437 463.549,59.067 418.784,59.067 		"/>
		<polygon points="485.931,20.697 441.166,20.697 463.549,59.067 		"/>
		<polygon points="453.239,0 429.093,0 441.166,20.697 		"/>
		<polygon points="376.362,557.879 381.641,566.93 415.848,566.93 421.127,557.879 		"/>
		<polygon points="353.979,519.509 376.362,557.879 398.745,519.509 		"/>
		<polygon points="421.127,481.139 376.362,481.139 398.745,519.509 		"/>
		<polygon points="376.362,481.139 398.745,442.769 353.979,442.769 		"/>
		<polygon points="421.127,404.399 376.362,404.399 398.745,442.769 		"/>
		<polygon points="376.362,404.399 398.745,366.028 353.979,366.028 		"/>
		<polygon points="421.127,327.658 376.362,327.658 398.745,366.028 		"/>
		<polygon points="376.362,327.658 398.745,289.288 353.979,289.288 		"/>
		<polygon points="421.127,250.918 376.362,250.918 398.745,289.288 		"/>
		<polygon points="376.362,250.918 398.745,212.548 353.979,212.548 		"/>
		<polygon points="421.127,174.177 376.362,174.177 398.745,212.548 		"/>
		<polygon points="376.362,174.177 398.745,135.807 353.979,135.807 		"/>
		<polygon points="421.127,97.437 376.362,97.437 398.745,135.807 		"/>
		<polygon points="376.362,97.437 398.745,59.067 353.979,59.067 		"/>
		<polygon points="421.127,20.697 376.362,20.697 398.745,59.067 		"/>
		<polygon points="388.435,0 364.289,0 376.362,20.697 		"/>
		<polygon points="566.93,547.271 566.93,519.509 550.735,519.509 		"/>
		<polygon points="566.93,470.531 566.93,442.769 550.735,442.769 		"/>
		<polygon points="566.93,393.79 566.93,366.028 550.735,366.028 		"/>
		<polygon points="566.93,317.05 566.93,289.288 550.735,289.288 		"/>
		<polygon points="566.93,240.31 566.93,212.548 550.735,212.548 		"/>
		<polygon points="566.93,163.569 566.93,135.807 550.735,135.807 		"/>
		<polygon points="566.93,86.829 566.93,59.067 550.735,59.067 		"/>
		<polygon points="566.93,0 561.045,0 566.93,10.088 		"/>
		<polygon points="508.314,557.879 513.594,566.93 547.799,566.93 553.079,557.879 		"/>
		<polygon points="485.931,519.509 508.314,557.879 530.697,519.509 		"/>
		<polygon points="553.079,481.139 508.314,481.139 530.697,519.509 		"/>
		<polygon points="508.314,481.139 530.697,442.769 485.931,442.769 		"/>
		<polygon points="553.079,404.399 508.314,404.399 530.697,442.769 		"/>
		<polygon points="508.314,404.399 530.697,366.028 485.931,366.028 		"/>
		<polygon points="553.079,327.658 508.314,327.658 530.697,366.028 		"/>
		<polygon points="508.314,327.658 530.697,289.288 485.931,289.288 		"/>
		<polygon points="553.079,250.918 508.314,250.918 530.697,289.288 		"/>
		<polygon points="508.314,250.918 530.697,212.548 485.931,212.548 		"/>
		<polygon points="553.079,174.177 508.314,174.177 530.697,212.548 		"/>
		<polygon points="508.314,174.177 530.697,135.807 485.931,135.807 		"/>
		<polygon points="553.079,97.437 508.314,97.437 530.697,135.807 		"/>
		<polygon points="508.314,97.437 530.697,59.067 485.931,59.067 		"/>
		<polygon points="553.079,20.697 508.314,20.697 530.697,59.067 		"/>
		<polygon points="520.387,0 496.241,0 508.314,20.697 		"/>
	</g>
</g>
<g id="Ebene_2">
</g>
</svg>
