<svg xmlns="http://www.w3.org/2000/svg" viewBox="0 0 566.93 566.93" enable-background="new 0 0 566.93 566.93"><g fill="#010202"><path d="M3.008.248L-.96 7.022v33.264h27.417zM26.626 40.286H73.52L50.072.248zM-.96 73.98v6.7h3.926zM3.137 80.68h46.896L26.585 40.644zM50.202 80.68h46.893L73.65 40.644zM3.008 81.04L-.96 87.812v33.263h27.417zM26.626 121.076H73.52L50.072 81.04zM-.96 154.77v6.702h3.926zM3.137 161.472h46.896l-23.448-40.036zM50.202 161.472h46.893L73.65 121.436zM3.008 161.83l-3.967 6.774v33.263h27.417zM26.626 201.867H73.52L50.072 161.83zM-.96 235.56v6.703h3.926zM50.033 242.263l-23.448-40.037-23.448 40.037zM50.202 242.263h46.893L73.65 202.226zM3.008 242.622l-3.967 6.774v33.262h27.417zM73.52 282.658l-23.448-40.036-23.446 40.036zM-.96 316.352v6.702h3.926zM50.033 323.054L26.585 283.02 3.137 323.053zM50.202 323.054h46.893L73.65 283.02zM3.008 323.414l-3.967 6.774v33.264h27.417zM73.52 363.452l-23.448-40.038-23.446 40.038zM-.96 397.144v6.702h3.926zM50.033 403.846L26.585 363.81 3.137 403.846zM97.095 403.846L73.65 363.81l-23.448 40.036zM3.008 404.203l-3.967 6.774v33.265h27.417zM73.52 444.242l-23.448-40.04-23.446 40.04zM-.96 477.936v6.702h3.926zM50.033 484.638L26.585 444.6 3.137 484.64zM97.095 484.638L73.65 444.6 50.202 484.64zM3.008 484.996L-.96 491.77v33.264h27.417zM73.52 525.034l-23.448-40.038-23.446 40.038zM-.96 558.728v6.702h3.926zM50.033 565.43l-23.448-40.038L3.137 565.43zM73.65 525.392L50.202 565.43h46.893zM4.24 567.89l-1.232-2.102-1.23 2.1zM51.303 567.89l-1.23-2.102-1.23 2.1zM73.78 40.286h46.892L97.226.248zM120.842 40.286h46.894L144.288.248zM167.907 40.286H214.8L191.354.248zM97.355 80.68h46.892L120.8 40.644zM144.42 80.68h46.893l-23.447-40.036zM191.484 80.68h46.89L214.93 40.644zM73.78 121.076h46.892L97.226 81.04zM120.842 121.076h46.894L144.288 81.04zM167.907 121.076H214.8L191.354 81.04zM97.355 161.472h46.892L120.8 121.436zM144.42 161.472h46.893l-23.447-40.036zM191.484 161.472h46.89l-23.444-40.036zM73.78 201.867h46.892L97.226 161.83zM120.842 201.867h46.894l-23.448-40.036zM167.907 201.867H214.8l-23.446-40.036zM97.355 242.263h46.892L120.8 202.226zM144.42 242.263h46.893l-23.447-40.037zM191.484 242.263h46.89l-23.444-40.037zM73.78 282.658h46.892l-23.446-40.036zM120.842 282.658h46.894l-23.448-40.036zM167.907 282.658H214.8l-23.446-40.036zM97.355 323.054h46.892L120.8 283.02zM144.42 323.054h46.893l-23.447-40.035zM191.484 323.054h46.89L214.93 283.02zM73.78 363.452h46.892l-23.446-40.038zM120.842 363.452h46.894l-23.448-40.038zM167.907 363.452H214.8l-23.446-40.038zM97.355 403.846h46.892L120.8 363.81zM144.42 403.846h46.893l-23.447-40.036zM191.484 403.846h46.89L214.93 363.81zM120.672 444.242l-23.446-40.04-23.447 40.04zM120.842 444.242h46.894l-23.448-40.04zM167.907 444.242H214.8l-23.446-40.04zM120.8 444.6L97.356 484.64h46.892zM167.866 444.6L144.42 484.64h46.893zM191.484 484.638h46.89L214.93 444.6zM97.226 484.996L73.78 525.034h46.892zM144.288 484.996l-23.446 40.038h46.894zM191.354 484.996l-23.447 40.038H214.8zM120.8 525.392L97.356 565.43h46.892zM167.866 525.392L144.42 565.43h46.893zM214.93 525.392l-23.446 40.038h46.89zM98.456 567.89l-1.23-2.102-1.23 2.1zM145.52 567.89l-1.232-2.102-1.23 2.1zM192.584 567.89l-1.23-2.102-1.23 2.1zM215.06 40.286h46.893L238.506.248zM262.123 40.286h46.895L285.57.248zM309.19 40.286h46.892L332.636.248zM238.636 80.68h46.89L262.08 40.644zM285.7 80.68h46.893l-23.448-40.036zM332.763 80.68h46.894l-23.445-40.036zM215.06 121.076h46.893L238.506 81.04zM262.123 121.076h46.895L285.57 81.04zM309.19 121.076h46.892L332.636 81.04zM238.636 161.472h46.89l-23.445-40.036zM285.7 161.472h46.893l-23.448-40.036zM332.763 161.472h46.894l-23.445-40.036zM215.06 201.867h46.893l-23.447-40.036zM262.123 201.867h46.895L285.57 161.83zM309.19 201.867h46.892l-23.446-40.036zM238.636 242.263h46.89l-23.445-40.037zM285.7 242.263h46.893l-23.448-40.037zM332.763 242.263h46.894l-23.445-40.037zM215.06 282.658h46.893l-23.447-40.036zM262.123 282.658h46.895l-23.448-40.036zM309.19 282.658h46.892l-23.446-40.036zM238.636 323.054h46.89L262.08 283.02zM285.7 323.054h46.893l-23.448-40.035zM332.763 323.054h46.894l-23.445-40.035zM215.06 363.452h46.893l-23.447-40.038zM262.123 363.452h46.895l-23.448-40.038zM309.19 363.452h46.892l-23.446-40.038zM238.636 403.846h46.89L262.08 363.81zM285.7 403.846h46.893l-23.448-40.036zM332.763 403.846h46.894l-23.445-40.036zM215.06 444.242h46.893l-23.447-40.04zM262.123 444.242h46.895l-23.448-40.04zM309.19 444.242h46.892l-23.446-40.04zM238.636 484.638h46.89L262.08 444.6zM285.7 484.638h46.893L309.145 444.6zM332.763 484.638h46.894L356.212 444.6zM215.06 525.034h46.893l-23.447-40.038zM262.123 525.034h46.895l-23.448-40.038zM309.19 525.034h46.892l-23.446-40.038zM262.08 525.392l-23.444 40.038h46.89zM285.7 565.43h46.893l-23.448-40.038zM332.763 565.43h46.894l-23.445-40.038zM239.736 567.89l-1.23-2.102-1.23 2.1zM286.8 567.89l-1.23-2.102-1.23 2.1zM331.406 567.89h2.46l-1.23-2.102zM356.34 40.286h46.892L379.785.248zM403.406 40.286h46.89L426.85.248zM450.47 40.286h46.893L473.916.248zM379.915 80.68h46.895l-23.45-40.036zM426.98 80.68h46.895L450.43 40.644zM474.046 80.68h46.89L497.49 40.644zM356.34 121.076h46.892L379.785 81.04zM403.406 121.076h46.89L426.85 81.04zM450.47 121.076h46.893L473.916 81.04zM379.915 161.472h46.895l-23.45-40.036zM426.98 161.472h46.895l-23.446-40.036zM474.046 161.472h46.89l-23.445-40.036zM356.34 201.867h46.892l-23.447-40.036zM403.406 201.867h46.89L426.85 161.83zM450.47 201.867h46.893l-23.447-40.036zM379.915 242.263h46.895l-23.45-40.037zM426.98 242.263h46.895l-23.446-40.037zM474.046 242.263h46.89l-23.445-40.037zM356.34 282.658h46.892l-23.447-40.036zM403.406 282.658h46.89l-23.445-40.036zM450.47 282.658h46.893l-23.447-40.036zM379.915 323.054h46.895l-23.45-40.035zM426.98 323.054h46.895L450.43 283.02zM474.046 323.054h46.89L497.49 283.02zM356.34 363.452h46.892l-23.447-40.038zM403.406 363.452h46.89l-23.445-40.038zM450.47 363.452h46.893l-23.447-40.038zM379.915 403.846h46.895l-23.45-40.036zM426.98 403.846h46.895L450.43 363.81zM474.046 403.846h46.89L497.49 363.81zM356.34 444.242h46.892l-23.447-40.04zM403.406 444.242h46.89l-23.445-40.04zM450.47 444.242h46.893l-23.447-40.04zM379.915 484.638h46.895L403.36 444.6zM426.98 484.638h46.895L450.43 444.6zM474.046 484.638h46.89L497.49 444.6zM356.34 525.034h46.892l-23.447-40.038zM403.406 525.034h46.89l-23.445-40.038zM450.47 525.034h46.893l-23.447-40.038zM379.915 565.43h46.895l-23.45-40.038zM426.98 565.43h46.895l-23.446-40.038zM474.046 565.43h46.89l-23.445-40.038zM378.554 567.89h2.46l-1.23-2.102zM425.62 567.89h2.462l-1.23-2.102zM472.685 567.89h2.46l-1.23-2.102zM497.622 40.286h46.895L521.064.248zM566.93 40.286V2.302l-22.242 37.984zM521.197 80.68h45.733V78.7l-22.288-38.056zM497.622 121.076h46.895L521.064 81.04zM566.93 121.076V83.094l-22.242 37.982zM521.197 161.472h45.733v-1.98l-22.288-38.056zM497.622 201.867h46.895l-23.453-40.036zM566.93 201.867v-37.982l-22.242 37.982zM521.197 242.263h45.733v-1.98l-22.288-38.057zM497.622 282.658h46.895l-23.453-40.036zM566.93 282.658v-37.98l-22.242 37.98zM521.197 323.054h45.733v-1.98l-22.288-38.055zM497.622 363.452h46.895l-23.453-40.038zM566.93 363.452v-37.984l-22.242 37.984zM521.197 403.846h45.733v-1.98l-22.288-38.056zM497.622 444.242h46.895l-23.453-40.04zM566.93 444.242v-37.984l-22.242 37.984zM521.197 484.638h45.733v-1.98L544.642 444.6zM497.622 525.034h46.895l-23.453-40.038zM566.93 525.034V487.05l-22.242 37.984zM521.197 565.43h45.733v-1.98l-22.288-38.058zM519.834 567.89h2.46l-1.23-2.102z"/></g></svg>