<?xml version="1.0" encoding="utf-8"?>
<!-- Generator: Adobe Illustrator 17.1.0, SVG Export Plug-In . SVG Version: 6.00 Build 0)  -->
<!DOCTYPE svg PUBLIC "-//W3C//DTD SVG 1.1//EN" "http://www.w3.org/Graphics/SVG/1.1/DTD/svg11.dtd">
<svg version="1.1" xmlns="http://www.w3.org/2000/svg" xmlns:xlink="http://www.w3.org/1999/xlink" x="0px" y="0px"
	 width="566.93px" height="566.93px" viewBox="0 0 566.93 566.93" enable-background="new 0 0 566.93 566.93" xml:space="preserve">
<g id="Ebene_1">
	<g>
		<polygon fill="none" points="466.65,390.601 489.029,390.601 489.029,413.774 489.168,413.774 489.167,416.881 506.99,416.881 
			506.99,390.601 536.179,390.601 536.179,554.729 509.31,554.729 509.31,531.093 494.269,531.093 494.269,554.368 466.65,554.368 
			466.65,566.93 566.93,566.93 566.93,554.281 549.502,554.281 549.502,391.374 566.93,391.374 566.93,371.866 466.65,371.866 		"/>
		<rect x="555.502" y="397.374" fill="none" width="11.428" height="150.907"/>
		<polygon fill="none" points="488.269,548.368 488.269,535.744 455.962,535.744 455.962,510.237 442.639,510.237 442.639,566.93 
			460.65,566.93 460.65,548.368 		"/>
		<polygon fill="none" points="15.141,307.496 36.193,307.496 36.193,279.67 63.956,279.67 63.956,262.481 0,262.481 0,281.988 
			15.141,281.988 		"/>
		<polygon fill="none" points="69.956,285.67 42.193,285.67 42.193,302.844 68.487,302.844 68.487,326.479 83.357,326.479 
			83.357,174.352 66.169,174.352 66.169,200.632 42.343,200.632 42.339,213.255 69.956,213.255 69.956,243.251 0,243.251 0,256.481 
			69.956,256.481 		"/>
		<polygon fill="none" points="63.956,219.255 36.337,219.255 36.343,200.632 36.207,200.632 36.207,197.526 19.778,197.526 
			19.778,219.168 0,219.168 0,237.251 63.956,237.251 		"/>
		<polygon fill="none" points="460.65,322.641 488.269,322.641 488.269,310.018 455.962,310.018 455.962,284.51 442.639,284.51 
			442.639,435.417 460.6,435.417 460.6,413.774 483.029,413.774 483.029,396.601 460.65,396.601 460.65,365.866 566.93,365.866 
			566.93,352.637 460.65,352.637 		"/>
		<polygon fill="none" points="461.962,504.237 461.962,529.744 483.016,529.744 483.016,501.919 510.778,501.919 510.778,484.73 
			353.787,484.73 353.787,503.465 376.166,503.465 376.166,529.744 394.127,529.744 394.127,503.465 423.315,503.465 
			423.315,566.93 436.639,566.93 436.639,504.237 		"/>
		<polygon fill="none" points="179.032,512.943 179.032,539.223 155.207,539.223 155.203,551.847 182.819,551.847 182.819,566.93 
			196.221,566.93 196.221,512.943 		"/>
		<polygon fill="none" points="149.201,557.847 149.207,539.223 149.071,539.223 149.071,536.117 132.642,536.117 132.642,557.76 
			102.681,557.76 102.681,394.853 128.004,394.853 128.004,420.359 149.057,420.359 149.057,392.533 176.819,392.533 
			176.819,375.345 19.828,375.345 19.828,394.079 42.207,394.079 42.207,417.253 42.346,417.253 42.345,420.359 60.169,420.359 
			60.169,394.079 89.357,394.079 89.357,558.207 62.487,558.207 62.487,534.571 47.446,534.571 47.446,557.847 19.828,557.847 
			19.828,566.93 176.819,566.93 176.819,557.847 		"/>
		<polygon fill="none" points="41.446,551.847 41.446,539.223 9.141,539.223 9.141,513.716 0,513.716 0,566.93 13.828,566.93 
			13.828,551.847 		"/>
		<polygon fill="none" points="374.928,557.847 374.936,536.117 358.369,536.117 358.369,557.76 328.408,557.76 328.408,394.853 
			353.732,394.853 353.732,420.359 374.784,420.359 374.784,392.533 402.547,392.533 402.547,375.345 245.556,375.345 
			245.556,394.079 267.935,394.079 267.935,417.253 268.073,417.253 268.072,420.359 285.897,420.359 285.897,394.079 
			315.084,394.079 315.084,558.207 288.215,558.207 288.215,534.571 273.174,534.571 273.174,557.847 245.556,557.847 
			245.556,566.93 402.547,566.93 402.547,557.847 		"/>
		<polygon fill="none" points="400.127,509.465 400.127,535.744 380.936,535.744 380.93,551.847 408.547,551.847 408.547,566.93 
			417.315,566.93 417.315,509.465 		"/>
		<polygon fill="none" points="240.867,507.716 240.867,533.223 261.921,533.223 261.921,505.397 289.684,505.397 289.684,488.209 
			132.692,488.209 132.692,506.943 155.071,506.943 155.071,530.117 155.21,530.117 155.209,533.223 173.032,533.223 
			173.032,506.943 202.221,506.943 202.221,566.93 215.544,566.93 215.544,507.716 		"/>
		<polygon fill="none" points="267.174,551.847 267.174,539.223 234.867,539.223 234.867,513.716 221.544,513.716 221.544,566.93 
			239.556,566.93 239.556,551.847 		"/>
		<polygon fill="none" points="288.215,106.752 288.215,83.116 273.174,83.116 273.174,106.392 245.556,106.392 245.556,124.388 
			402.547,124.388 402.547,106.392 374.928,106.392 374.936,84.662 358.369,84.662 358.369,106.305 328.408,106.305 328.408,0 
			315.084,0 315.084,106.752 		"/>
		<polygon fill="none" points="15.141,81.769 36.193,81.769 36.193,53.942 63.956,53.942 63.956,36.754 0,36.754 0,56.261 
			15.141,56.261 		"/>
		<polygon fill="none" points="69.956,59.942 42.193,59.942 42.193,77.116 68.487,77.116 68.487,100.752 83.357,100.752 83.357,0 
			69.956,0 69.956,17.523 0,17.523 0,30.754 69.956,30.754 		"/>
		<rect x="132.692" fill="none" width="156.991" height="11.523"/>
		<polygon fill="none" points="126.642,100.305 126.642,78.662 149.071,78.662 149.071,61.488 126.692,61.488 126.692,30.754 
			295.684,30.754 295.684,59.942 267.921,59.942 267.921,77.116 294.215,77.116 294.215,100.752 309.084,100.752 309.084,0 
			295.684,0 295.684,17.523 126.692,17.523 126.692,0 108.681,0 108.681,100.305 		"/>
		<polygon fill="none" points="15.141,533.223 36.193,533.223 36.193,505.397 63.956,505.397 63.956,488.209 0,488.209 0,507.716 
			15.141,507.716 		"/>
		<rect x="0" fill="none" width="63.956" height="11.523"/>
		<polygon fill="none" points="62.487,106.752 62.487,83.116 47.446,83.116 47.446,106.392 19.828,106.392 19.828,124.388 
			176.819,124.388 176.819,106.392 149.201,106.392 149.207,87.769 149.071,87.769 149.071,84.662 132.642,84.662 132.642,106.305 
			102.681,106.305 102.681,0 89.357,0 89.357,106.752 		"/>
		<polygon fill="none" points="466.65,164.873 489.029,164.873 489.029,188.048 489.168,188.048 489.167,191.153 506.99,191.153 
			506.99,164.873 536.179,164.873 536.179,329.001 509.31,329.001 509.31,305.365 494.269,305.365 494.269,328.641 466.65,328.641 
			466.65,346.637 566.93,346.637 566.93,328.554 549.502,328.554 549.502,165.646 566.93,165.646 566.93,146.14 466.65,146.14 		"/>
		<rect x="555.502" y="171.646" fill="none" width="11.428" height="150.907"/>
		<polygon fill="none" points="245.505,444.896 215.544,444.896 215.544,281.988 240.867,281.988 240.867,307.496 261.921,307.496 
			261.921,279.67 289.684,279.67 289.684,262.481 132.692,262.481 132.692,281.216 155.071,281.216 155.071,304.39 155.21,304.39 
			155.209,307.496 173.032,307.496 173.032,281.216 202.221,281.216 202.221,445.343 175.352,445.343 175.352,421.707 
			160.31,421.707 160.31,444.982 132.692,444.982 132.692,462.979 289.684,462.979 289.684,444.982 262.065,444.982 262.07,426.359 
			261.935,426.359 261.935,423.253 245.505,423.253 		"/>
		<polygon fill="none" points="13.778,191.526 36.207,191.526 36.207,174.352 13.828,174.352 13.828,143.618 182.819,143.618 
			182.819,172.806 155.057,172.806 155.057,189.98 181.352,189.98 181.352,213.615 196.221,213.615 196.221,61.488 179.032,61.488 
			179.032,87.769 155.207,87.769 155.203,100.392 182.819,100.392 182.819,130.388 13.828,130.388 13.828,100.392 41.446,100.392 
			41.446,87.769 9.141,87.769 9.141,62.261 0,62.261 0,213.168 13.778,213.168 		"/>
		<rect x="555.502" fill="none" width="11.428" height="96.826"/>
		<rect x="353.787" fill="none" width="156.991" height="8.045"/>
		<polygon fill="none" points="352.369,100.305 352.369,78.662 370.166,78.662 370.166,58.01 347.787,58.01 347.787,27.275 
			516.778,27.275 516.778,56.464 489.016,56.464 489.016,73.638 515.31,73.638 515.31,97.273 530.179,97.273 530.179,0 516.778,0 
			516.778,14.045 347.787,14.045 347.787,0 334.408,0 334.408,100.305 		"/>
		<polygon fill="none" points="509.31,103.273 509.31,79.638 494.269,79.638 494.269,102.913 466.65,102.913 466.65,120.909 
			566.93,120.909 566.93,102.826 549.502,102.826 549.502,0 536.179,0 536.179,103.273 		"/>
		<polygon fill="none" points="460.65,96.913 488.269,96.913 488.269,84.29 455.962,84.29 455.962,58.782 442.639,58.782 
			442.639,209.689 460.6,209.689 460.6,188.048 483.029,188.048 483.029,170.873 460.65,170.873 460.65,140.14 566.93,140.14 
			566.93,126.909 460.65,126.909 		"/>
		<polygon fill="none" points="261.935,197.526 245.505,197.526 245.505,219.168 215.544,219.168 215.544,56.261 240.867,56.261 
			240.867,81.769 261.921,81.769 261.921,53.942 289.684,53.942 289.684,36.754 132.692,36.754 132.692,55.488 155.071,55.488 
			155.071,78.662 155.21,78.662 155.209,81.769 173.032,81.769 173.032,55.488 202.221,55.488 202.221,219.615 175.352,219.615 
			175.352,195.98 160.31,195.98 160.31,219.255 132.692,219.255 132.692,237.251 289.684,237.251 289.684,219.255 262.065,219.255 
			262.07,200.632 261.935,200.632 		"/>
		<polygon fill="none" points="245.556,350.115 402.547,350.115 402.547,332.119 374.928,332.119 374.936,310.39 358.369,310.39 
			358.369,332.032 328.408,332.032 328.408,169.125 353.732,169.125 353.732,194.632 374.784,194.632 374.784,166.806 
			402.547,166.806 402.547,149.618 245.556,149.618 245.556,168.352 267.935,168.352 267.935,191.526 268.073,191.526 
			268.072,194.632 285.897,194.632 285.897,168.352 315.084,168.352 315.084,332.479 288.215,332.479 288.215,308.844 
			273.174,308.844 273.174,332.119 245.556,332.119 		"/>
		<polygon fill="none" points="516.778,209.776 516.778,239.772 347.787,239.772 347.787,209.776 375.404,209.776 375.404,200.632 
			347.732,200.632 347.732,175.125 334.408,175.125 334.408,326.032 352.369,326.032 352.369,304.39 370.166,304.39 
			370.166,283.737 347.787,283.737 347.787,253.003 516.778,253.003 516.778,282.191 489.016,282.191 489.016,299.365 
			515.31,299.365 515.31,323.001 530.179,323.001 530.179,170.873 512.99,170.873 512.99,197.153 489.165,197.153 489.161,209.776 
					"/>
		<polygon fill="none" points="63.956,444.982 36.337,444.982 36.343,426.359 36.207,426.359 36.207,423.253 19.778,423.253 
			19.778,444.896 0,444.896 0,462.979 63.956,462.979 		"/>
		<polygon fill="none" points="402.445,435.864 417.315,435.864 417.315,283.737 400.127,283.737 400.127,310.018 380.936,310.018 
			380.93,326.119 408.547,326.119 408.547,356.115 239.556,356.115 239.556,326.119 267.174,326.119 267.174,313.496 
			234.867,313.496 234.867,287.988 221.544,287.988 221.544,438.896 239.505,438.896 239.505,417.253 261.935,417.253 
			261.935,400.079 239.556,400.079 239.556,369.345 408.547,369.345 408.547,398.533 380.784,398.533 380.784,412.229 
			402.445,412.229 		"/>
		<polygon fill="none" points="132.642,332.032 102.681,332.032 102.681,169.125 128.004,169.125 128.004,194.632 149.057,194.632 
			149.057,166.806 176.819,166.806 176.819,149.618 19.828,149.618 19.828,168.352 42.207,168.352 42.207,191.526 42.346,191.526 
			42.345,194.632 60.169,194.632 60.169,168.352 89.357,168.352 89.357,332.479 62.487,332.479 62.487,308.844 47.446,308.844 
			47.446,332.119 19.828,332.119 19.828,350.115 176.819,350.115 176.819,332.119 149.201,332.119 149.207,313.496 149.071,313.496 
			149.071,310.39 132.642,310.39 		"/>
		<polygon fill="none" points="466.6,215.689 436.639,215.689 436.639,52.782 461.962,52.782 461.962,78.29 483.016,78.29 
			483.016,50.464 510.778,50.464 510.778,33.275 353.787,33.275 353.787,52.01 376.166,52.01 376.166,78.29 394.127,78.29 
			394.127,52.01 423.315,52.01 423.315,216.137 396.445,216.137 396.445,192.502 381.404,192.502 381.404,215.776 353.787,215.776 
			353.787,233.772 510.778,233.772 510.778,215.776 483.159,215.776 483.165,197.153 483.029,197.153 483.029,194.048 
			466.6,194.048 		"/>
		<polygon fill="none" points="294.215,326.479 309.084,326.479 309.084,174.352 291.897,174.352 291.897,200.632 268.07,200.632 
			268.066,213.255 295.684,213.255 295.684,243.251 126.692,243.251 126.692,213.255 154.31,213.255 154.31,200.632 
			122.004,200.632 122.004,175.125 108.681,175.125 108.681,326.032 126.642,326.032 126.642,304.39 149.071,304.39 
			149.071,287.216 126.692,287.216 126.692,256.481 295.684,256.481 295.684,285.67 267.921,285.67 267.921,302.844 
			294.215,302.844 		"/>
		<polygon fill="none" points="69.956,482.209 69.956,511.397 42.193,511.397 42.193,528.571 68.487,528.571 68.487,552.207 
			83.357,552.207 83.357,400.079 66.169,400.079 66.169,426.359 42.343,426.359 42.339,438.982 69.956,438.982 69.956,468.979 
			0,468.979 0,482.209 		"/>
		<polygon fill="none" points="516.778,435.504 516.778,465.5 347.787,465.5 347.787,435.504 375.404,435.504 375.404,426.359 
			347.732,426.359 347.732,400.853 334.408,400.853 334.408,551.76 352.369,551.76 352.369,530.117 370.166,530.117 
			370.166,509.465 347.787,509.465 347.787,478.73 516.778,478.73 516.778,507.919 489.016,507.919 489.016,525.093 515.31,525.093 
			515.31,548.729 530.179,548.729 530.179,396.601 512.99,396.601 512.99,422.881 489.165,422.881 489.161,435.504 		"/>
		<polygon fill="none" points="466.6,441.417 436.639,441.417 436.639,278.51 461.962,278.51 461.962,304.018 483.016,304.018 
			483.016,276.191 510.778,276.191 510.778,259.003 353.787,259.003 353.787,277.737 376.166,277.737 376.166,304.018 
			394.127,304.018 394.127,277.737 423.315,277.737 423.315,441.864 396.445,441.864 396.445,418.229 381.404,418.229 
			381.404,441.504 353.787,441.504 353.787,459.5 510.778,459.5 510.778,441.504 483.159,441.504 483.165,422.881 483.029,422.881 
			483.029,419.774 466.6,419.774 		"/>
		<polygon fill="none" points="234.867,62.261 221.544,62.261 221.544,213.168 239.505,213.168 239.505,191.526 261.935,191.526 
			261.935,174.352 239.556,174.352 239.556,143.618 408.547,143.618 408.547,172.806 380.784,172.806 380.784,186.502 
			402.445,186.502 402.445,210.137 417.315,210.137 417.315,58.01 400.127,58.01 400.127,84.29 380.936,84.29 380.93,100.392 
			408.547,100.392 408.547,130.388 239.556,130.388 239.556,100.392 267.174,100.392 267.174,87.769 234.867,87.769 		"/>
		<polygon fill="none" points="295.684,438.982 295.684,468.979 126.692,468.979 126.692,438.982 154.31,438.982 154.31,426.359 
			122.004,426.359 122.004,400.853 108.681,400.853 108.681,551.76 126.642,551.76 126.642,530.117 149.071,530.117 
			149.071,512.943 126.692,512.943 126.692,482.209 295.684,482.209 295.684,511.397 267.921,511.397 267.921,528.571 
			294.215,528.571 294.215,552.207 309.084,552.207 309.084,400.079 291.897,400.079 291.897,426.359 268.07,426.359 
			268.066,438.982 		"/>
		<polygon fill="none" points="13.778,417.253 36.207,417.253 36.207,400.079 13.828,400.079 13.828,369.345 182.819,369.345 
			182.819,398.533 155.057,398.533 155.057,415.707 181.352,415.707 181.352,439.343 196.221,439.343 196.221,287.216 
			179.032,287.216 179.032,313.496 155.207,313.496 155.203,326.119 182.819,326.119 182.819,356.115 13.828,356.115 
			13.828,326.119 41.446,326.119 41.446,313.496 9.141,313.496 9.141,287.988 0,287.988 0,438.896 13.778,438.896 		"/>
		<polygon points="295.684,17.523 295.684,0 289.684,0 289.684,11.523 132.692,11.523 132.692,0 126.692,0 126.692,17.523 		"/>
		<polygon points="294.215,100.752 294.215,77.116 267.921,77.116 267.921,87.769 267.174,87.769 267.174,100.392 239.556,100.392 
			239.556,130.388 408.547,130.388 408.547,100.392 380.93,100.392 380.936,84.29 370.166,84.29 370.166,78.662 352.369,78.662 
			352.369,100.305 334.408,100.305 334.408,0 328.408,0 328.408,106.305 358.369,106.305 358.369,84.662 374.936,84.662 
			374.928,106.392 402.547,106.392 402.547,124.388 245.556,124.388 245.556,106.392 273.174,106.392 273.174,83.116 
			288.215,83.116 288.215,106.752 315.084,106.752 315.084,0 309.084,0 309.084,100.752 		"/>
		<polygon points="69.956,0 63.956,0 63.956,11.523 0,11.523 0,17.523 69.956,17.523 		"/>
		<rect x="155.071" y="78.662" width="0.138" height="3.106"/>
		<polygon points="68.487,100.752 68.487,77.116 42.193,77.116 42.193,87.769 41.446,87.769 41.446,100.392 13.828,100.392 
			13.828,130.388 182.819,130.388 182.819,100.392 155.203,100.392 155.207,87.769 149.207,87.769 149.201,106.392 176.819,106.392 
			176.819,124.388 19.828,124.388 19.828,106.392 47.446,106.392 47.446,83.116 62.487,83.116 62.487,106.752 89.357,106.752 
			89.357,0 83.357,0 83.357,100.752 		"/>
		<polygon points="132.642,106.305 132.642,84.662 149.071,84.662 149.071,78.662 126.642,78.662 126.642,100.305 108.681,100.305 
			108.681,0 102.681,0 102.681,106.305 		"/>
		<rect x="267.935" y="191.526" width="0.138" height="3.105"/>
		<polygon points="154.31,200.632 154.31,213.255 126.692,213.255 126.692,243.251 295.684,243.251 295.684,213.255 
			268.066,213.255 268.07,200.632 262.07,200.632 262.065,219.255 289.684,219.255 289.684,237.251 132.692,237.251 
			132.692,219.255 160.31,219.255 160.31,195.98 175.352,195.98 175.352,219.615 202.221,219.615 202.221,55.488 173.032,55.488 
			173.032,81.769 155.209,81.769 155.071,81.769 155.071,78.662 155.071,55.488 132.692,55.488 132.692,36.754 289.684,36.754 
			289.684,53.942 261.921,53.942 261.921,81.769 240.867,81.769 240.867,56.261 215.544,56.261 215.544,219.168 245.505,219.168 
			245.505,197.526 261.935,197.526 261.935,191.526 239.505,191.526 239.505,213.168 221.544,213.168 221.544,62.261 
			234.867,62.261 234.867,87.769 267.174,87.769 267.921,87.769 267.921,77.116 267.921,59.942 295.684,59.942 295.684,30.754 
			126.692,30.754 126.692,61.488 149.071,61.488 149.071,78.662 149.071,84.662 149.071,87.769 149.207,87.769 155.207,87.769 
			179.032,87.769 179.032,61.488 196.221,61.488 196.221,213.615 181.352,213.615 181.352,189.98 155.057,189.98 155.057,200.632 		
			"/>
		<path d="M239.556,326.119v29.996h168.991v-29.996H380.93l0.006-16.102h-10.77v-5.628h-17.797v21.643h-17.961V175.125h13.323
			v25.507h27.673v-14.13h5.38v-13.696h27.763v-29.188H239.556v30.733h22.379v17.175v6v3.105h0.136h6h23.826v-26.28h17.188v152.128
			h-14.869v-23.636h-26.294v10.652h-0.747v12.623H239.556z M273.174,332.119v-23.275h15.041v23.636h26.869V168.352h-29.188v26.28
			h-17.824h-0.138v-3.105v-23.175h-22.379v-18.733h156.991v17.188h-27.763v27.826h-21.053v-25.507h-25.323v162.907h29.961V310.39
			h16.566l-0.008,21.729h27.619v17.996H245.556v-17.996H273.174z"/>
		<polygon points="69.956,213.255 42.339,213.255 42.343,200.632 36.343,200.632 36.337,219.255 63.956,219.255 63.956,237.251 
			0,237.251 0,243.251 69.956,243.251 		"/>
		<polygon points="9.141,87.769 41.446,87.769 42.193,87.769 42.193,77.116 42.193,59.942 69.956,59.942 69.956,30.754 0,30.754 
			0,36.754 63.956,36.754 63.956,53.942 36.193,53.942 36.193,81.769 15.141,81.769 15.141,56.261 0,56.261 0,62.261 9.141,62.261 
					"/>
		<polygon points="19.778,197.526 36.207,197.526 36.207,191.526 13.778,191.526 13.778,213.168 0,213.168 0,219.168 
			19.778,219.168 		"/>
		<rect x="42.207" y="191.526" width="0.138" height="3.105"/>
		<rect x="155.071" y="304.39" width="0.138" height="3.106"/>
		<polygon points="149.201,332.119 176.819,332.119 176.819,350.115 19.828,350.115 19.828,332.119 47.446,332.119 47.446,308.844 
			62.487,308.844 62.487,332.479 89.357,332.479 89.357,168.352 60.169,168.352 60.169,194.632 42.345,194.632 42.207,194.632 
			42.207,191.526 42.207,168.352 19.828,168.352 19.828,149.618 176.819,149.618 176.819,166.806 149.057,166.806 149.057,194.632 
			128.004,194.632 128.004,169.125 102.681,169.125 102.681,332.032 132.642,332.032 132.642,310.39 149.071,310.39 149.071,304.39 
			126.642,304.39 126.642,326.032 108.681,326.032 108.681,175.125 122.004,175.125 122.004,200.632 154.31,200.632 
			155.057,200.632 155.057,189.98 155.057,172.806 182.819,172.806 182.819,143.618 13.828,143.618 13.828,174.352 36.207,174.352 
			36.207,191.526 36.207,197.526 36.207,200.632 36.343,200.632 42.343,200.632 66.169,200.632 66.169,174.352 83.357,174.352 
			83.357,326.479 68.487,326.479 68.487,302.844 42.193,302.844 42.193,313.496 41.446,313.496 41.446,326.119 13.828,326.119 
			13.828,356.115 182.819,356.115 182.819,326.119 155.203,326.119 155.207,313.496 149.207,313.496 		"/>
		<rect x="267.935" y="417.253" width="0.138" height="3.106"/>
		<polygon points="154.31,426.359 154.31,438.982 126.692,438.982 126.692,468.979 295.684,468.979 295.684,438.982 
			268.066,438.982 268.07,426.359 262.07,426.359 262.065,444.982 289.684,444.982 289.684,462.979 132.692,462.979 
			132.692,444.982 160.31,444.982 160.31,421.707 175.352,421.707 175.352,445.343 202.221,445.343 202.221,281.216 
			173.032,281.216 173.032,307.496 155.209,307.496 155.071,307.496 155.071,304.39 155.071,281.216 132.692,281.216 
			132.692,262.481 289.684,262.481 289.684,279.67 261.921,279.67 261.921,307.496 240.867,307.496 240.867,281.988 
			215.544,281.988 215.544,444.896 245.505,444.896 245.505,423.253 261.935,423.253 261.935,417.253 239.505,417.253 
			239.505,438.896 221.544,438.896 221.544,287.988 234.867,287.988 234.867,313.496 267.174,313.496 267.921,313.496 
			267.921,302.844 267.921,285.67 295.684,285.67 295.684,256.481 126.692,256.481 126.692,287.216 149.071,287.216 149.071,304.39 
			149.071,310.39 149.071,313.496 149.207,313.496 155.207,313.496 179.032,313.496 179.032,287.216 196.221,287.216 
			196.221,439.343 181.352,439.343 181.352,415.707 155.057,415.707 155.057,426.359 		"/>
		<polygon points="380.93,551.847 380.936,535.744 370.166,535.744 370.166,530.117 352.369,530.117 352.369,551.76 334.408,551.76 
			334.408,400.853 347.732,400.853 347.732,426.359 375.404,426.359 375.404,412.229 380.784,412.229 380.784,398.533 
			408.547,398.533 408.547,369.345 239.556,369.345 239.556,400.079 261.935,400.079 261.935,417.253 261.935,423.253 
			261.935,426.359 262.07,426.359 268.07,426.359 291.897,426.359 291.897,400.079 309.084,400.079 309.084,552.207 
			294.215,552.207 294.215,528.571 267.921,528.571 267.921,539.223 267.174,539.223 267.174,551.847 239.556,551.847 
			239.556,566.93 245.556,566.93 245.556,557.847 273.174,557.847 273.174,534.571 288.215,534.571 288.215,558.207 
			315.084,558.207 315.084,394.079 285.897,394.079 285.897,420.359 268.072,420.359 267.935,420.359 267.935,417.253 
			267.935,394.079 245.556,394.079 245.556,375.345 402.547,375.345 402.547,392.533 374.784,392.533 374.784,420.359 
			353.732,420.359 353.732,394.853 328.408,394.853 328.408,557.76 358.369,557.76 358.369,536.117 374.936,536.117 
			374.928,557.847 402.547,557.847 402.547,566.93 408.547,566.93 408.547,551.847 		"/>
		<polygon points="19.778,423.253 36.207,423.253 36.207,417.253 13.778,417.253 13.778,438.896 0,438.896 0,444.896 
			19.778,444.896 		"/>
		<polygon points="9.141,313.496 41.446,313.496 42.193,313.496 42.193,302.844 42.193,285.67 69.956,285.67 69.956,256.481 
			0,256.481 0,262.481 63.956,262.481 63.956,279.67 36.193,279.67 36.193,307.496 15.141,307.496 15.141,281.988 0,281.988 
			0,287.988 9.141,287.988 		"/>
		<rect x="42.207" y="417.253" width="0.139" height="3.106"/>
		<polygon points="69.956,438.982 42.339,438.982 42.343,426.359 36.343,426.359 36.337,444.982 63.956,444.982 63.956,462.979 
			0,462.979 0,468.979 69.956,468.979 		"/>
		<polygon points="155.203,551.847 155.207,539.223 149.207,539.223 149.201,557.847 176.819,557.847 176.819,566.93 
			182.819,566.93 182.819,551.847 		"/>
		<rect x="155.071" y="530.117" width="0.138" height="3.105"/>
		<polygon points="47.446,557.847 47.446,534.571 62.487,534.571 62.487,558.207 89.357,558.207 89.357,394.079 60.169,394.079 
			60.169,420.359 42.345,420.359 42.207,420.359 42.207,417.253 42.207,394.079 19.828,394.079 19.828,375.345 176.819,375.345 
			176.819,392.533 149.057,392.533 149.057,420.359 128.004,420.359 128.004,394.853 102.681,394.853 102.681,557.76 
			132.642,557.76 132.642,536.117 149.071,536.117 149.071,530.117 126.642,530.117 126.642,551.76 108.681,551.76 108.681,400.853 
			122.004,400.853 122.004,426.359 154.31,426.359 155.057,426.359 155.057,415.707 155.057,398.533 182.819,398.533 
			182.819,369.345 13.828,369.345 13.828,400.079 36.207,400.079 36.207,417.253 36.207,423.253 36.207,426.359 36.343,426.359 
			42.343,426.359 66.169,426.359 66.169,400.079 83.357,400.079 83.357,552.207 68.487,552.207 68.487,528.571 42.193,528.571 
			42.193,539.223 41.446,539.223 41.446,551.847 13.828,551.847 13.828,566.93 19.828,566.93 19.828,557.847 		"/>
		<polygon points="234.867,513.716 234.867,539.223 267.174,539.223 267.921,539.223 267.921,528.571 267.921,511.397 
			295.684,511.397 295.684,482.209 126.692,482.209 126.692,512.943 149.071,512.943 149.071,530.117 149.071,536.117 
			149.071,539.223 149.207,539.223 155.207,539.223 179.032,539.223 179.032,512.943 196.221,512.943 196.221,566.93 
			202.221,566.93 202.221,506.943 173.032,506.943 173.032,533.223 155.209,533.223 155.071,533.223 155.071,530.117 
			155.071,506.943 132.692,506.943 132.692,488.209 289.684,488.209 289.684,505.397 261.921,505.397 261.921,533.223 
			240.867,533.223 240.867,507.716 215.544,507.716 215.544,566.93 221.544,566.93 221.544,513.716 		"/>
		<polygon points="9.141,539.223 41.446,539.223 42.193,539.223 42.193,528.571 42.193,511.397 69.956,511.397 69.956,482.209 
			0,482.209 0,488.209 63.956,488.209 63.956,505.397 36.193,505.397 36.193,533.223 15.141,533.223 15.141,507.716 0,507.716 
			0,513.716 9.141,513.716 		"/>
		<polygon points="516.778,14.045 516.778,0 510.778,0 510.778,8.045 353.787,8.045 353.787,0 347.787,0 347.787,14.045 		"/>
		<polygon points="515.31,97.273 515.31,73.638 489.016,73.638 489.016,84.29 488.269,84.29 488.269,96.913 460.65,96.913 
			460.65,126.909 566.93,126.909 566.93,120.909 466.65,120.909 466.65,102.913 494.269,102.913 494.269,79.638 509.31,79.638 
			509.31,103.273 536.179,103.273 536.179,0 530.179,0 530.179,97.273 		"/>
		<polygon points="566.93,102.826 566.93,96.826 555.502,96.826 555.502,0 549.502,0 549.502,102.826 		"/>
		<rect x="489.029" y="188.048" width="0.138" height="3.105"/>
		<polygon points="400.127,58.01 417.315,58.01 417.315,210.137 402.445,210.137 402.445,186.502 380.784,186.502 375.404,186.502 
			375.404,200.632 375.404,209.776 347.787,209.776 347.787,239.772 516.778,239.772 516.778,209.776 489.161,209.776 
			489.165,197.153 483.165,197.153 483.159,215.776 510.778,215.776 510.778,233.772 353.787,233.772 353.787,215.776 
			381.404,215.776 381.404,192.502 396.445,192.502 396.445,216.137 423.315,216.137 423.315,52.01 394.127,52.01 394.127,78.29 
			376.166,78.29 376.166,52.01 353.787,52.01 353.787,33.275 510.778,33.275 510.778,50.464 483.016,50.464 483.016,78.29 
			461.962,78.29 461.962,52.782 436.639,52.782 436.639,215.689 466.6,215.689 466.6,194.048 483.029,194.048 483.029,188.048 
			460.6,188.048 460.6,209.689 442.639,209.689 442.639,58.782 455.962,58.782 455.962,84.29 488.269,84.29 489.016,84.29 
			489.016,73.638 489.016,56.464 516.778,56.464 516.778,27.275 347.787,27.275 347.787,58.01 370.166,58.01 370.166,78.662 
			370.166,84.29 380.936,84.29 400.127,84.29 		"/>
		<polygon points="460.65,170.873 483.029,170.873 483.029,188.048 483.029,194.048 483.029,197.153 483.165,197.153 
			489.165,197.153 512.99,197.153 512.99,170.873 530.179,170.873 530.179,323.001 515.31,323.001 515.31,299.365 489.016,299.365 
			489.016,310.018 488.269,310.018 488.269,322.641 460.65,322.641 460.65,352.637 566.93,352.637 566.93,346.637 466.65,346.637 
			466.65,328.641 494.269,328.641 494.269,305.365 509.31,305.365 509.31,329.001 536.179,329.001 536.179,164.873 506.99,164.873 
			506.99,191.153 489.167,191.153 489.029,191.153 489.029,188.048 489.029,164.873 466.65,164.873 466.65,146.14 566.93,146.14 
			566.93,140.14 460.65,140.14 		"/>
		<polygon points="549.502,328.554 566.93,328.554 566.93,322.554 555.502,322.554 555.502,171.646 566.93,171.646 566.93,165.646 
			549.502,165.646 		"/>
		<polygon points="516.778,282.191 516.778,253.003 347.787,253.003 347.787,283.737 370.166,283.737 370.166,304.39 
			370.166,310.018 380.936,310.018 400.127,310.018 400.127,283.737 417.315,283.737 417.315,435.864 402.445,435.864 
			402.445,412.229 380.784,412.229 375.404,412.229 375.404,426.359 375.404,435.504 347.787,435.504 347.787,465.5 516.778,465.5 
			516.778,435.504 489.161,435.504 489.165,422.881 483.165,422.881 483.159,441.504 510.778,441.504 510.778,459.5 353.787,459.5 
			353.787,441.504 381.404,441.504 381.404,418.229 396.445,418.229 396.445,441.864 423.315,441.864 423.315,277.737 
			394.127,277.737 394.127,304.018 376.166,304.018 376.166,277.737 353.787,277.737 353.787,259.003 510.778,259.003 
			510.778,276.191 483.016,276.191 483.016,304.018 461.962,304.018 461.962,278.51 436.639,278.51 436.639,441.417 466.6,441.417 
			466.6,419.774 483.029,419.774 483.029,413.774 460.6,413.774 460.6,435.417 442.639,435.417 442.639,284.51 455.962,284.51 
			455.962,310.018 488.269,310.018 489.016,310.018 489.016,299.365 489.016,282.191 		"/>
		<rect x="489.029" y="413.774" width="0.138" height="3.106"/>
		<polygon points="549.502,554.281 566.93,554.281 566.93,548.281 555.502,548.281 555.502,397.374 566.93,397.374 566.93,391.374 
			549.502,391.374 		"/>
		<polygon points="460.65,396.601 483.029,396.601 483.029,413.774 483.029,419.774 483.029,422.881 483.165,422.881 
			489.165,422.881 512.99,422.881 512.99,396.601 530.179,396.601 530.179,548.729 515.31,548.729 515.31,525.093 489.016,525.093 
			489.016,535.744 488.269,535.744 488.269,548.368 460.65,548.368 460.65,566.93 466.65,566.93 466.65,554.368 494.269,554.368 
			494.269,531.093 509.31,531.093 509.31,554.729 536.179,554.729 536.179,390.601 506.99,390.601 506.99,416.881 489.167,416.881 
			489.029,416.881 489.029,413.774 489.029,390.601 466.65,390.601 466.65,371.866 566.93,371.866 566.93,365.866 460.65,365.866 		
			"/>
		<polygon points="455.962,510.237 455.962,535.744 488.269,535.744 489.016,535.744 489.016,525.093 489.016,507.919 
			516.778,507.919 516.778,478.73 347.787,478.73 347.787,509.465 370.166,509.465 370.166,530.117 370.166,535.744 
			380.936,535.744 400.127,535.744 400.127,509.465 417.315,509.465 417.315,566.93 423.315,566.93 423.315,503.465 
			394.127,503.465 394.127,529.744 376.166,529.744 376.166,503.465 353.787,503.465 353.787,484.73 510.778,484.73 
			510.778,501.919 483.016,501.919 483.016,529.744 461.962,529.744 461.962,504.237 436.639,504.237 436.639,566.93 
			442.639,566.93 442.639,510.237 		"/>
	</g>
</g>
<g id="Ebene_2">
</g>
</svg>
