<svg xmlns="http://www.w3.org/2000/svg" viewBox="0 0 566.93 566.93" enable-background="new 0 0 566.93 566.93"><g fill="#020305"><path d="M426.222 345.55c0 2.5 1.014 4.94 2.77 6.72 1.76 1.76 4.194 2.78 6.668 2.78 2.483 0 4.917-1.02 6.677-2.78 1.758-1.78 2.77-4.22 2.77-6.72s-1.013-4.95-2.77-6.72c-1.76-1.77-4.193-2.78-6.677-2.78-2.473 0-4.907 1.01-6.667 2.78-1.757 1.77-2.77 4.22-2.77 6.72zM311.854 464.87c2.484 0 4.918-1.02 6.677-2.78 1.76-1.77 2.762-4.22 2.762-6.72s-1.003-4.95-2.76-6.72c-1.76-1.77-4.194-2.78-6.678-2.78-2.483 0-4.917 1.01-6.676 2.78-1.758 1.77-2.762 4.22-2.762 6.72s1.004 4.95 2.762 6.72c1.76 1.76 4.193 2.78 6.676 2.78zM410.466 468.64c2.484 0 4.907-1.01 6.676-2.78 1.75-1.77 2.762-4.22 2.762-6.71 0-2.5-1.014-4.95-2.762-6.72-1.77-1.77-4.192-2.78-6.676-2.78s-4.918 1.01-6.677 2.78c-1.76 1.77-2.762 4.22-2.762 6.72s1.003 4.94 2.76 6.71c1.76 1.77 4.194 2.78 6.678 2.78zM362.104 442.09c2.484 0 4.908-1.01 6.667-2.78 1.76-1.77 2.772-4.22 2.772-6.72s-1.013-4.94-2.77-6.72c-1.75-1.76-4.184-2.78-6.668-2.78-2.483 0-4.917 1.02-6.676 2.78-1.758 1.77-2.762 4.22-2.762 6.72s1.004 4.95 2.762 6.72c1.76 1.77 4.192 2.78 6.676 2.78zM435.034 419.69c0-2.5-1.013-4.95-2.772-6.72-1.748-1.76-4.182-2.78-6.666-2.78-2.483 0-4.918 1.02-6.676 2.78-1.76 1.77-2.762 4.22-2.762 6.72s1.003 4.95 2.762 6.72c1.758 1.77 4.192 2.78 6.676 2.78s4.908-1.01 6.666-2.78c1.76-1.77 2.772-4.22 2.772-6.72zM390.448 367.16c-1.758 1.77-2.762 4.22-2.762 6.72s1.004 4.95 2.762 6.72c1.76 1.77 4.192 2.78 6.676 2.78 2.483 0 4.917-1.01 6.677-2.78 1.75-1.77 2.762-4.22 2.762-6.72s-1.013-4.95-2.76-6.72c-1.76-1.76-4.194-2.77-6.678-2.77s-4.917 1.01-6.676 2.77zM356.42 346.51c1.76 1.76 4.193 2.78 6.677 2.78s4.918-1.02 6.677-2.78c1.758-1.77 2.76-4.22 2.76-6.72s-1.002-4.95-2.76-6.72c-1.76-1.77-4.193-2.78-6.677-2.78-.983 0-1.957.164-2.886.465l-5.906 12.452c.47 1.23 1.184 2.363 2.117 3.303zM406.68 311.15c0 2.5 1.015 4.95 2.773 6.72 1.748 1.77 4.182 2.79 6.666 2.79 2.482 0 4.916-1.02 6.676-2.79 1.758-1.77 2.76-4.21 2.76-6.72 0-2.5-1.002-4.95-2.76-6.71-1.76-1.77-4.193-2.79-6.677-2.79-2.485 0-4.92 1.02-6.667 2.79-1.76 1.77-2.772 4.22-2.772 6.71zM357.703 393.73c0-2.5-1.013-4.95-2.762-6.72-1.757-1.76-4.19-2.78-6.675-2.78-2.484 0-4.918 1.02-6.676 2.78-1.76 1.77-2.763 4.22-2.763 6.72s1.003 4.95 2.762 6.72c1.757 1.77 4.19 2.78 6.675 2.78 2.483 0 4.917-1.01 6.676-2.78 1.75-1.77 2.763-4.22 2.763-6.72zM407.992 258.33c-2.483 0-4.918 1.01-6.676 2.78-1.76 1.77-2.762 4.22-2.762 6.72s1.003 4.95 2.762 6.72c1.758 1.77 4.192 2.78 6.676 2.78s4.918-1.01 6.666-2.78c1.758-1.77 2.772-4.22 2.772-6.72s-1.014-4.95-2.772-6.72c-1.748-1.77-4.182-2.78-6.666-2.78zM448.595 233.26c1.75-1.77 2.762-4.22 2.762-6.72s-1.014-4.95-2.762-6.72c-1.76-1.77-4.192-2.78-6.676-2.78s-4.918 1.01-6.678 2.78c-1.758 1.77-2.76 4.22-2.76 6.72s1.002 4.95 2.76 6.72c1.76 1.77 4.193 2.78 6.677 2.78 2.483 0 4.916-1.01 6.675-2.78zM458.828 283.54c2.483 0 4.917-1.02 6.676-2.79 1.76-1.77 2.762-4.21 2.762-6.71s-1.003-4.95-2.762-6.72c-1.758-1.77-4.192-2.78-6.676-2.78s-4.908 1.01-6.676 2.78c-1.75 1.77-2.762 4.22-2.762 6.72s1.013 4.94 2.762 6.71c1.758 1.77 4.192 2.79 6.676 2.79zM493.53 291.39c-1.76-1.77-4.193-2.78-6.677-2.78s-4.918 1.01-6.676 2.78c-1.76 1.77-2.762 4.22-2.762 6.71 0 2.5 1.003 4.95 2.762 6.72 1.758 1.77 4.192 2.78 6.676 2.78 2.483 0 4.918-1.01 6.676-2.78 1.758-1.77 2.76-4.22 2.76-6.72.002-2.49-1.002-4.94-2.76-6.71zM504.19 331.49c-1.76 1.77-2.763 4.22-2.763 6.72s1.003 4.94 2.762 6.71c1.748 1.77 4.182 2.79 6.675 2.79 2.484 0 4.918-1.02 6.667-2.79 1.76-1.77 2.77-4.21 2.77-6.71s-1.012-4.95-2.77-6.72c-1.758-1.77-4.183-2.78-6.667-2.78-2.493 0-4.917 1.01-6.676 2.78zM461.48 368.61c-1.758 1.77-2.772 4.22-2.772 6.71 0 2.51 1.014 4.95 2.772 6.72 1.76 1.77 4.192 2.79 6.676 2.79 2.483 0 4.908-1.02 6.666-2.79 1.76-1.77 2.772-4.21 2.772-6.72 0-2.49-1.013-4.94-2.772-6.71-1.758-1.77-4.192-2.78-6.666-2.78-2.484 0-4.917 1.01-6.676 2.78zM507.737 407.21c2.483 0 4.917-1.02 6.666-2.79 1.758-1.76 2.772-4.21 2.772-6.71s-1.014-4.95-2.772-6.72c-1.75-1.77-4.183-2.78-6.666-2.78-2.484 0-4.918 1.01-6.677 2.78-1.758 1.77-2.76 4.22-2.76 6.72s1.002 4.95 2.76 6.71c1.76 1.77 4.193 2.79 6.677 2.79zM474.922 443.99c-1.76-1.76-4.192-2.78-6.676-2.78s-4.918 1.02-6.667 2.78c-1.76 1.77-2.762 4.22-2.762 6.72s1.003 4.95 2.76 6.72c1.75 1.77 4.185 2.78 6.668 2.78 2.483 0 4.917-1.01 6.676-2.78 1.758-1.77 2.762-4.22 2.762-6.72s-1.004-4.95-2.762-6.72zM531.023 437.43c1.76-1.77 2.762-4.22 2.762-6.72s-1.003-4.95-2.762-6.72c-1.758-1.76-4.192-2.78-6.676-2.78s-4.918 1.02-6.666 2.78c-1.758 1.77-2.77 4.22-2.77 6.72s1.012 4.95 2.77 6.72c1.75 1.77 4.183 2.78 6.667 2.78s4.918-1.01 6.676-2.78zM566.93 344.96v-15.59c-1.572-1.094-3.458-1.71-5.377-1.71-2.484 0-4.918 1.02-6.666 2.79-1.76 1.77-2.772 4.21-2.772 6.71 0 2.51 1.013 4.95 2.772 6.72 1.748 1.77 4.182 2.78 6.666 2.78 1.92 0 3.805-.61 5.377-1.7zM539.657 294.52c-1.76 1.76-2.762 4.21-2.762 6.71s1.003 4.95 2.762 6.72c1.758 1.77 4.182 2.78 6.676 2.78 2.483 0 4.907-1.01 6.666-2.78 1.757-1.77 2.76-4.22 2.76-6.72s-1.003-4.94-2.76-6.71c-1.76-1.77-4.184-2.78-6.667-2.78-2.494 0-4.928 1.01-6.676 2.78zM560.5 251.46c0 2.5 1.013 4.95 2.76 6.72 1.032 1.033 2.3 1.802 3.67 2.268v-17.98c-1.37.466-2.638 1.233-3.67 2.272-1.747 1.77-2.76 4.22-2.76 6.72zM525.906 258.35c0-2.5-1.003-4.94-2.76-6.71-1.76-1.77-4.194-2.79-6.678-2.79s-4.917 1.02-6.676 2.79c-1.758 1.76-2.762 4.21-2.762 6.71 0 2.51 1.004 4.96 2.762 6.72 1.76 1.77 4.192 2.78 6.676 2.78s4.918-1.01 6.677-2.78c1.758-1.77 2.76-4.22 2.76-6.72zM501.905 218.25c0-2.5-1.014-4.94-2.772-6.71-1.75-1.77-4.182-2.79-6.666-2.79-2.483 0-4.917 1.02-6.677 2.79-1.758 1.77-2.76 4.21-2.76 6.71 0 2.51 1.002 4.96 2.76 6.72 1.76 1.77 4.183 2.78 6.677 2.78 2.484 0 4.917-1.01 6.666-2.78 1.758-1.76 2.772-4.21 2.772-6.72zM466.775 157.09c-2.493 0-4.927 1.02-6.676 2.78-1.76 1.77-2.772 4.22-2.772 6.72s1.013 4.95 2.77 6.72c1.76 1.77 4.193 2.78 6.677 2.78s4.908-1.01 6.667-2.78c1.76-1.77 2.77-4.22 2.77-6.72s-1.012-4.95-2.77-6.72c-1.75-1.76-4.183-2.78-6.667-2.78zM502.312 182.59c1.76 1.77 4.183 2.78 6.677 2.78 2.482 0 4.906-1.01 6.665-2.78 1.758-1.77 2.762-4.22 2.762-6.72 0-2.49-1.004-4.94-2.762-6.72-1.76-1.76-4.183-2.78-6.666-2.78-2.495 0-4.92 1.02-6.678 2.78-1.758 1.77-2.76 4.22-2.76 6.72-.002 2.51 1 4.96 2.76 6.72zM536.04 188.76c-1.758 1.77-2.76 4.22-2.76 6.72s1.002 4.95 2.76 6.71c1.76 1.77 4.183 2.79 6.677 2.79 2.483 0 4.917-1.02 6.666-2.79 1.758-1.76 2.76-4.21 2.76-6.71 0-2.51-1.002-4.95-2.76-6.72-1.75-1.77-4.183-2.78-6.666-2.78-2.495 0-4.918 1.01-6.677 2.78zM510.865 136.04c2.484 0 4.918-1.01 6.676-2.78 1.76-1.77 2.763-4.22 2.763-6.72s-1.003-4.95-2.762-6.71c-1.757-1.77-4.19-2.79-6.675-2.79-2.483 0-4.917 1.02-6.666 2.79-1.76 1.76-2.772 4.21-2.772 6.71s1.014 4.95 2.77 6.72c1.75 1.77 4.184 2.78 6.667 2.78zM558.93 129.11c-2.485 0-4.92 1.01-6.667 2.78-1.758 1.77-2.772 4.21-2.772 6.71 0 2.51 1.015 4.96 2.773 6.72 1.748 1.77 4.182 2.78 6.666 2.78s4.917-1.01 6.676-2.78c.51-.513.947-1.088 1.324-1.7v-10.03c-.377-.612-.814-1.187-1.324-1.7-1.76-1.77-4.193-2.78-6.677-2.78zM556.506 100.31c2.483 0 4.917-1.01 6.676-2.78 1.748-1.77 2.762-4.22 2.762-6.72s-1.014-4.95-2.762-6.71c-1.76-1.77-4.192-2.79-6.676-2.79s-4.918 1.02-6.677 2.79c-1.76 1.76-2.762 4.21-2.762 6.71s1.003 4.95 2.76 6.72c1.76 1.77 4.194 2.78 6.678 2.78zM510.4 68.96c-1.76 1.76-2.763 4.21-2.763 6.72 0 2.5 1.003 4.94 2.762 6.71 1.757 1.77 4.18 2.78 6.675 2.78 2.483 0 4.918-1.01 6.666-2.78 1.76-1.77 2.773-4.22 2.773-6.71 0-2.51-1.013-4.95-2.772-6.72-1.757-1.77-4.19-2.78-6.665-2.78-2.484 0-4.918 1.01-6.676 2.78zM533.14 21.05c2.493 0 4.917-1.01 6.675-2.78 1.76-1.76 2.762-4.21 2.762-6.72 0-2.5-1.003-4.94-2.762-6.71-1.758-1.77-4.192-2.79-6.676-2.79s-4.908 1.02-6.667 2.79c-1.758 1.77-2.77 4.22-2.77 6.71 0 2.5 1.013 4.95 2.77 6.72 1.748 1.77 4.182 2.78 6.666 2.78zM532.632 490.78c2.484 0 4.918-1.01 6.676-2.78 1.76-1.77 2.762-4.22 2.762-6.72s-1.003-4.95-2.762-6.72c-1.758-1.76-4.192-2.78-6.676-2.78-2.483 0-4.917 1.02-6.676 2.78-1.76 1.77-2.762 4.22-2.762 6.72s1.003 4.95 2.762 6.72c1.76 1.77 4.193 2.78 6.676 2.78zM485.016 500.46c2.483 0 4.917-1.02 6.666-2.79 1.758-1.76 2.772-4.21 2.772-6.71s-1.014-4.95-2.772-6.72c-1.75-1.77-4.183-2.78-6.666-2.78-2.484 0-4.918 1.01-6.677 2.78-1.76 1.77-2.762 4.22-2.762 6.72s1.003 4.94 2.76 6.71c1.76 1.77 4.194 2.79 6.678 2.79zM440.32 511.52c2.483 0 4.917-1.01 6.676-2.78 1.76-1.76 2.762-4.21 2.762-6.71 0-2.51-1.003-4.96-2.762-6.72-1.758-1.77-4.183-2.79-6.676-2.79-2.484 0-4.918 1.02-6.676 2.79-1.75 1.76-2.762 4.21-2.762 6.72 0 2.5 1.013 4.94 2.762 6.71 1.768 1.77 4.202 2.78 6.676 2.78zM564.463 515.23c0 2.35.897 4.652 2.467 6.39V508.84c-1.57 1.74-2.467 4.04-2.467 6.39zM564.354 565.39c-1.758-1.77-4.192-2.79-6.676-2.79s-4.918 1.02-6.676 2.79c-.466.47-.875.988-1.23 1.54h15.808c-.355-.552-.763-1.07-1.226-1.54zM551.03 399.07c2.484 0 4.918-1.01 6.678-2.78 1.758-1.77 2.76-4.22 2.76-6.72s-1.002-4.95-2.76-6.71c-1.76-1.77-4.183-2.79-6.677-2.79-2.483 0-4.916 1.02-6.666 2.79-1.758 1.77-2.76 4.21-2.76 6.71s1.002 4.95 2.76 6.72c1.76 1.77 4.194 2.78 6.667 2.78zM300.46 499.29c0-2.5-1.014-4.95-2.763-6.72-1.758-1.77-4.192-2.78-6.676-2.78-2.483 0-4.917 1.01-6.675 2.78-1.76 1.77-2.762 4.22-2.762 6.72s1.003 4.95 2.762 6.72c1.758 1.76 4.192 2.78 6.676 2.78s4.92-1.02 6.677-2.78c1.75-1.77 2.762-4.22 2.762-6.72zM348.534 512.21c1.758-1.77 2.76-4.22 2.76-6.72s-1.002-4.94-2.76-6.71c-1.76-1.77-4.193-2.79-6.677-2.79s-4.907 1.02-6.666 2.79c-1.757 1.77-2.77 4.21-2.77 6.71s1.013 4.95 2.77 6.72c1.76 1.77 4.183 2.78 6.667 2.78s4.918-1.01 6.677-2.78zM329.658 555.84c2.484 0 4.917-1.02 6.676-2.79 1.758-1.76 2.762-4.21 2.762-6.71s-1.004-4.95-2.762-6.72c-1.76-1.77-4.192-2.78-6.676-2.78-2.483 0-4.917 1.01-6.667 2.78-1.757 1.77-2.77 4.22-2.77 6.72s1.013 4.95 2.77 6.71c1.75 1.77 4.184 2.79 6.668 2.79zM378.526 561.48c0-2.51-1.003-4.96-2.762-6.72-1.758-1.77-4.192-2.78-6.676-2.78-2.483 0-4.918 1.01-6.666 2.78-1.758 1.77-2.772 4.21-2.772 6.72 0 1.95.624 3.864 1.73 5.45h15.425c1.104-1.585 1.72-3.5 1.72-5.45zM386.703 511.18c2.484 0 4.917-1.02 6.676-2.79 1.757-1.77 2.76-4.21 2.76-6.71s-1.003-4.95-2.76-6.72c-1.76-1.77-4.193-2.78-6.677-2.78s-4.918 1.01-6.677 2.78c-1.758 1.77-2.76 4.22-2.76 6.72s1.002 4.94 2.76 6.71c1.76 1.77 4.193 2.79 6.677 2.79zM279.676 547.76c-1.75 1.77-2.75 4.22-2.75 6.72 0 2.49 1.002 4.94 2.75 6.71 1.77 1.77 4.203 2.79 6.676 2.79 2.483 0 4.917-1.02 6.677-2.79 1.757-1.76 2.76-4.21 2.76-6.71 0-2.51-1.003-4.96-2.76-6.72-1.76-1.77-4.184-2.78-6.678-2.78-2.484 0-4.917 1.01-6.676 2.78zM428.118 566.93h4.27c-.698-.165-1.412-.26-2.132-.26-.723 0-1.44.095-2.138.26zM419.188 540.95c2.495 0 4.918-1.01 6.677-2.78 1.758-1.77 2.76-4.22 2.76-6.72s-1.002-4.95-2.76-6.71c-1.76-1.77-4.193-2.79-6.677-2.79-2.483 0-4.917 1.02-6.676 2.79-1.758 1.76-2.762 4.21-2.762 6.71s1.004 4.95 2.762 6.72c1.76 1.77 4.193 2.78 6.676 2.78zM466.01 563.19c2.484 0 4.918-1.02 6.677-2.79 1.758-1.76 2.762-4.21 2.762-6.71s-1.005-4.95-2.763-6.72c-1.76-1.77-4.192-2.78-6.676-2.78-2.483 0-4.917 1.01-6.666 2.78-1.758 1.77-2.76 4.22-2.76 6.72s1.002 4.95 2.76 6.71c1.75 1.77 4.183 2.79 6.667 2.79zM513.478 546.27c2.484 0 4.918-1.02 6.677-2.79 1.758-1.76 2.77-4.21 2.77-6.71s-1.012-4.95-2.77-6.72c-1.76-1.77-4.183-2.78-6.677-2.78-2.483 0-4.917 1.01-6.666 2.78-1.758 1.77-2.762 4.22-2.762 6.72s1.004 4.95 2.762 6.71c1.75 1.77 4.183 2.79 6.666 2.79zM470.56 102.92c0-1.173-.23-2.332-.648-3.418l-5.906 12.45c1.415-.463 2.72-1.253 3.783-2.322 1.757-1.76 2.77-4.21 2.77-6.71zM304.96 411.37c2.484 0 4.918-1.01 6.676-2.78 1.76-1.77 2.762-4.22 2.762-6.72s-1.003-4.95-2.762-6.72c-1.758-1.76-4.192-2.78-6.676-2.78-2.483 0-4.918 1.02-6.676 2.78-1.75 1.77-2.762 4.22-2.762 6.72s1.013 4.95 2.762 6.72c1.758 1.77 4.193 2.78 6.676 2.78zM322.137 355.32c0-2.5-1.003-4.95-2.762-6.72-1.758-1.76-4.192-2.78-6.676-2.78-2.485 0-4.92 1.02-6.667 2.78-1.76 1.77-2.772 4.22-2.772 6.72s1.014 4.95 2.773 6.72c1.748 1.77 4.182 2.78 6.666 2.78 2.482 0 4.917-1.01 6.675-2.78 1.76-1.77 2.762-4.22 2.762-6.72zM354.96 305.96c2.484 0 4.918-1.01 6.677-2.78 1.76-1.77 2.762-4.22 2.762-6.72s-1.004-4.95-2.763-6.72c-1.758-1.76-4.192-2.78-6.676-2.78-2.473 0-4.907 1.02-6.675 2.78-1.75 1.77-2.762 4.22-2.762 6.72s1.013 4.95 2.762 6.72c1.768 1.77 4.202 2.78 6.676 2.78zM378.277 241.7c2.484 0 4.918-1.02 6.676-2.79 1.76-1.76 2.762-4.21 2.762-6.72 0-2.5-1.003-4.95-2.762-6.71-1.758-1.77-4.192-2.78-6.676-2.78-2.483 0-4.907 1.01-6.676 2.78-1.747 1.76-2.76 4.21-2.76 6.71s1.013 4.95 2.76 6.72c1.77 1.77 4.194 2.79 6.677 2.79zM396.905 187.27c-1.758 1.76-2.762 4.21-2.762 6.72 0 2.49 1.004 4.94 2.762 6.71 1.76 1.77 4.192 2.78 6.676 2.78 2.475 0 4.91-1.01 6.667-2.78 1.76-1.77 2.77-4.22 2.77-6.71 0-2.51-1.012-4.96-2.77-6.72-1.758-1.77-4.192-2.79-6.666-2.79-2.483 0-4.916 1.02-6.675 2.79zM425.507 123.14c-2.483 0-4.917 1.02-6.676 2.79-1.758 1.76-2.76 4.21-2.76 6.71 0 2.51 1.002 4.96 2.76 6.72 1.76 1.77 4.193 2.78 6.677 2.78 2.474 0 4.908-1.01 6.666-2.78 1.76-1.77 2.772-4.22 2.772-6.72s-1.013-4.95-2.772-6.71c-1.758-1.77-4.182-2.79-6.666-2.79zM443.03 32.44c0-2.49-1.002-4.94-2.76-6.71-1.76-1.77-4.193-2.78-6.677-2.78-2.493 0-4.917 1.01-6.676 2.78-1.758 1.76-2.762 4.21-2.762 6.71 0 2.51 1.004 4.96 2.762 6.72 1.76 1.77 4.192 2.79 6.676 2.79s4.908-1.02 6.677-2.79c1.758-1.77 2.76-4.22 2.76-6.72zM228.72 560.66c-2.492 0-4.917 1.01-6.675 2.78-.983.983-1.72 2.186-2.188 3.49h17.723c-.47-1.3-1.207-2.502-2.184-3.49-1.757-1.77-4.19-2.78-6.675-2.78zM266.87 461.44c2.485 0 4.908-1.01 6.667-2.78 1.758-1.77 2.772-4.22 2.772-6.72s-1.015-4.95-2.773-6.71c-1.76-1.77-4.182-2.79-6.666-2.79-2.482 0-4.917 1.02-6.676 2.79-1.758 1.77-2.76 4.21-2.76 6.71s1.002 4.95 2.76 6.72c1.76 1.77 4.193 2.78 6.677 2.78zM244.786 515.54c2.493 0 4.927-1.02 6.676-2.79 1.76-1.77 2.77-4.21 2.77-6.71s-1.012-4.95-2.77-6.72c-1.75-1.77-4.183-2.78-6.676-2.78-2.474 0-4.907 1.01-6.667 2.78-1.76 1.77-2.763 4.22-2.763 6.72s1.004 4.94 2.762 6.71c1.758 1.77 4.192 2.79 6.666 2.79zM20.87 418.52c-1.76-1.77-4.193-2.78-6.677-2.78s-4.918 1.01-6.666 2.78c-1.76 1.77-2.772 4.22-2.772 6.71 0 2.5 1.013 4.95 2.772 6.72 1.748 1.77 4.182 2.78 6.666 2.78 2.483 0 4.917-1.01 6.676-2.78 1.757-1.76 2.76-4.21 2.76-6.72 0-2.5-1.004-4.94-2.76-6.71zM.79 373.13c0 2.49 1.004 4.94 2.763 6.71 1.758 1.77 4.192 2.79 6.676 2.79 2.483 0 4.917-1.02 6.675-2.79 1.76-1.77 2.762-4.21 2.762-6.71s-1.003-4.95-2.762-6.72c-1.758-1.77-4.192-2.78-6.676-2.78s-4.92 1.01-6.677 2.78c-1.76 1.77-2.762 4.22-2.762 6.72zM30.764 324.21c2.493 0 4.917-1.01 6.676-2.78 1.76-1.77 2.762-4.22 2.762-6.72S39.2 309.76 37.44 308c-1.758-1.77-4.183-2.78-6.676-2.78-2.474 0-4.908 1.01-6.676 2.78-1.75 1.76-2.762 4.21-2.762 6.71s1.013 4.95 2.762 6.72c1.767 1.77 4.202 2.78 6.676 2.78zM59.136 294.64c2.484 0 4.918-1.02 6.677-2.78 1.758-1.78 2.76-4.22 2.76-6.72s-1.002-4.95-2.76-6.72c-1.76-1.77-4.183-2.78-6.677-2.78-2.483 0-4.917 1.01-6.666 2.78-1.758 1.77-2.772 4.22-2.772 6.72s1.014 4.94 2.772 6.72c1.75 1.76 4.183 2.78 6.666 2.78zM91.98 270.77c2.485 0 4.908-1.02 6.667-2.79 1.758-1.76 2.772-4.21 2.772-6.71s-1.015-4.95-2.773-6.72c-1.76-1.77-4.182-2.78-6.666-2.78s-4.917 1.01-6.676 2.78c-1.758 1.77-2.76 4.22-2.76 6.72s1.002 4.95 2.76 6.71c1.76 1.77 4.193 2.79 6.677 2.79zM11.202 257.91c1.75 1.77 4.183 2.78 6.666 2.78 2.484 0 4.918-1.01 6.677-2.78 1.758-1.77 2.772-4.22 2.772-6.72s-1.014-4.95-2.772-6.72c-1.76-1.76-4.193-2.78-6.677-2.78-2.483 0-4.917 1.02-6.666 2.78-1.758 1.77-2.772 4.22-2.772 6.72s1.014 4.95 2.772 6.72zM47.632 228.18c2.484 0 4.918-1.01 6.677-2.78 1.757-1.77 2.76-4.21 2.76-6.71 0-2.51-1.003-4.95-2.76-6.72-1.76-1.77-4.194-2.78-6.678-2.78-2.483 0-4.917 1.01-6.676 2.78-1.748 1.77-2.762 4.22-2.762 6.72 0 2.49 1.014 4.94 2.762 6.71 1.76 1.77 4.192 2.78 6.676 2.78zM7.188 188.68c1.76-1.77 2.762-4.22 2.762-6.72s-1.003-4.95-2.762-6.72c-1.758-1.77-4.192-2.78-6.676-2.78-.17 0-.34.016-.512.026v18.948c.17.01.34.026.512.026 2.484 0 4.918-1.01 6.676-2.78zM10.616 143.66c1.76-1.76 2.762-4.21 2.762-6.71s-1.003-4.95-2.762-6.72c-1.758-1.77-4.192-2.78-6.676-2.78-1.37 0-2.712.314-3.94.88v17.23c1.23.572 2.576.89 3.94.89 2.484 0 4.918-1.02 6.676-2.79zM38.533 164.18c-1.76 1.76-2.762 4.21-2.762 6.71 0 2.51 1.004 4.96 2.763 6.72 1.758 1.77 4.192 2.78 6.676 2.78s4.917-1.01 6.675-2.78c1.76-1.77 2.762-4.21 2.762-6.72 0-2.5-1.003-4.95-2.762-6.71-1.758-1.77-4.192-2.79-6.676-2.79s-4.92 1.02-6.677 2.79zM88.066 150.52c2.474 0 4.908-1.02 6.666-2.78 1.76-1.77 2.772-4.22 2.772-6.72s-1.013-4.95-2.772-6.72c-1.758-1.77-4.183-2.78-6.666-2.78-2.484 0-4.918 1.01-6.676 2.78-1.76 1.77-2.762 4.22-2.762 6.72s1.003 4.95 2.762 6.72c1.758 1.76 4.193 2.78 6.676 2.78zM134.888 172.75c2.484 0 4.918-1.01 6.666-2.78 1.76-1.77 2.772-4.21 2.772-6.72 0-2.5-1.013-4.95-2.772-6.71-1.748-1.77-4.182-2.78-6.666-2.78s-4.917 1.01-6.676 2.78c-1.758 1.76-2.762 4.21-2.762 6.71 0 2.51 1.004 4.95 2.762 6.72 1.76 1.77 4.192 2.78 6.676 2.78zM92.18 190.87c-2.483 0-4.918 1.02-6.677 2.79-1.758 1.76-2.76 4.21-2.76 6.71s1.002 4.95 2.76 6.72c1.76 1.77 4.193 2.78 6.677 2.78s4.917-1.01 6.666-2.78c1.758-1.77 2.772-4.22 2.772-6.72 0-2.49-1.014-4.94-2.772-6.71-1.75-1.77-4.182-2.79-6.666-2.79zM128.65 105.59c0-2.5-1.004-4.95-2.762-6.72-1.76-1.77-4.192-2.78-6.676-2.78-2.483 0-4.918 1.01-6.677 2.78-1.748 1.77-2.76 4.22-2.76 6.72s1.012 4.95 2.76 6.71c1.77 1.77 4.203 2.79 6.677 2.79 2.484 0 4.917-1.02 6.676-2.79 1.758-1.76 2.762-4.21 2.762-6.71zM38.512 47c-2.483 0-4.917 1.01-6.676 2.78-1.748 1.77-2.762 4.22-2.762 6.72s1.014 4.95 2.762 6.72c1.758 1.77 4.192 2.78 6.676 2.78s4.918-1.01 6.676-2.78c1.76-1.77 2.762-4.22 2.762-6.72s-1.003-4.95-2.762-6.72C43.43 48.01 40.996 47 38.512 47zM1.128 34.27c0-1.578-.397-3.127-1.128-4.5v8.99c.73-1.372 1.128-2.92 1.128-4.49zM23.72 7.32c0 2.5 1.013 4.95 2.76 6.72 1.76 1.77 4.194 2.78 6.678 2.78s4.918-1.01 6.676-2.78c1.758-1.77 2.762-4.22 2.762-6.72S41.592 2.37 39.834.6c-.327-.33-.685-.623-1.055-.9H27.536c-.37.276-.728.57-1.056.9-1.747 1.77-2.76 4.22-2.76 6.72zM82.612 6.95c-2.483 0-4.917 1.02-6.676 2.79-1.758 1.76-2.762 4.21-2.762 6.71s1.004 4.95 2.762 6.72c1.76 1.77 4.192 2.78 6.676 2.78s4.918-1.01 6.677-2.78c1.748-1.77 2.76-4.22 2.76-6.72s-1.013-4.95-2.76-6.71c-1.76-1.77-4.194-2.79-6.678-2.79zM92.28 54.6c-2.485 0-4.92 1.01-6.667 2.78-1.76 1.76-2.772 4.21-2.772 6.72 0 2.5 1.014 4.95 2.773 6.71 1.758 1.77 4.192 2.79 6.666 2.79 2.483 0 4.917-1.02 6.675-2.79 1.76-1.77 2.762-4.21 2.762-6.71s-1.003-4.95-2.762-6.72c-1.758-1.77-4.192-2.78-6.676-2.78zM127.894 43.87c2.484 0 4.918-1.01 6.677-2.78 1.76-1.77 2.762-4.22 2.762-6.72s-1.003-4.95-2.76-6.72c-1.76-1.77-4.194-2.78-6.678-2.78-2.483 0-4.917 1.01-6.676 2.78-1.748 1.77-2.762 4.22-2.762 6.72s1.014 4.95 2.762 6.72c1.76 1.77 4.193 2.78 6.676 2.78zM194.317 13.36c-2.493 0-4.917 1.01-6.676 2.78-1.758 1.77-2.76 4.22-2.76 6.72s1.002 4.95 2.76 6.71c1.75 1.77 4.184 2.79 6.677 2.79 2.484 0 4.918-1.02 6.667-2.79 1.76-1.76 2.77-4.21 2.77-6.71s-1.012-4.95-2.77-6.72c-1.758-1.77-4.183-2.78-6.667-2.78zM154.827 66.36c-2.483 0-4.917 1.01-6.676 2.78-1.748 1.77-2.76 4.22-2.76 6.72s1.012 4.95 2.76 6.72c1.76 1.77 4.193 2.78 6.677 2.78s4.918-1.01 6.676-2.78c1.76-1.77 2.762-4.22 2.762-6.72s-1.003-4.95-2.762-6.72c-1.758-1.77-4.192-2.78-6.676-2.78zM151.658 1.34c1.883 0 3.736-.59 5.29-1.64H146.37c1.552 1.05 3.405 1.64 5.288 1.64zM57.617 104.14c0-2.5-1.004-4.94-2.762-6.71-1.76-1.77-4.192-2.79-6.666-2.79-2.485 0-4.92 1.02-6.677 2.79-1.76 1.77-2.772 4.21-2.772 6.71 0 2.51 1.014 4.96 2.773 6.72 1.758 1.77 4.192 2.79 6.676 2.79 2.482 0 4.906-1.02 6.665-2.79 1.758-1.77 2.762-4.21 2.762-6.72zM106.952 435.73c2.484 0 4.918-1.01 6.677-2.78 1.748-1.77 2.76-4.22 2.76-6.72s-1.013-4.95-2.76-6.71c-1.76-1.77-4.194-2.79-6.678-2.79-2.483 0-4.917 1.02-6.676 2.79-1.758 1.76-2.762 4.21-2.762 6.71s1.004 4.95 2.762 6.72c1.76 1.77 4.192 2.78 6.676 2.78zM59.832 399.01c2.484 0 4.918-1.02 6.666-2.79 1.76-1.77 2.772-4.21 2.772-6.71 0-2.51-1.013-4.96-2.772-6.72-1.748-1.77-4.182-2.79-6.666-2.79-2.483 0-4.918 1.02-6.676 2.79-1.76 1.76-2.762 4.21-2.762 6.72 0 2.5 1.003 4.95 2.762 6.71 1.758 1.77 4.193 2.79 6.676 2.79zM69.926 337.78c-1.748-1.77-4.183-2.79-6.666-2.79-2.493 0-4.928 1.02-6.676 2.79-1.76 1.76-2.772 4.21-2.772 6.71s1.013 4.95 2.772 6.72c1.748 1.77 4.183 2.78 6.676 2.78 2.483 0 4.918-1.01 6.666-2.78 1.758-1.77 2.772-4.22 2.772-6.72s-1.014-4.95-2.772-6.71zM104.528 387.94c2.474 0 4.907-1.02 6.666-2.79 1.758-1.76 2.772-4.21 2.772-6.71s-1.014-4.95-2.772-6.72c-1.76-1.77-4.183-2.78-6.666-2.78-2.493 0-4.928 1.01-6.676 2.78-1.76 1.77-2.762 4.22-2.762 6.72s1.003 4.95 2.762 6.71c1.758 1.77 4.192 2.79 6.676 2.79zM147.376 358.06c2.483 0 4.917-1.01 6.676-2.78 1.76-1.77 2.762-4.22 2.762-6.71 0-2.51-1.003-4.96-2.762-6.72-1.758-1.77-4.192-2.78-6.676-2.78s-4.908 1.01-6.676 2.78c-1.75 1.77-2.762 4.21-2.762 6.72 0 2.49 1.013 4.94 2.762 6.71 1.768 1.77 4.193 2.78 6.676 2.78zM194.208 380.3c2.483 0 4.908-1.02 6.666-2.78 1.76-1.77 2.762-4.22 2.762-6.72s-1.003-4.95-2.762-6.72c-1.758-1.77-4.183-2.78-6.666-2.78-2.493 0-4.928 1.01-6.676 2.78-1.758 1.77-2.772 4.22-2.772 6.72s1.014 4.95 2.772 6.72c1.748 1.76 4.183 2.78 6.676 2.78zM151.49 398.42c-2.484 0-4.908 1.01-6.667 2.78-1.758 1.77-2.76 4.22-2.76 6.72s1.002 4.95 2.76 6.72c1.76 1.76 4.183 2.78 6.666 2.78 2.483 0 4.917-1.02 6.676-2.78 1.758-1.77 2.77-4.22 2.77-6.72s-1.013-4.95-2.77-6.72c-1.76-1.77-4.193-2.78-6.677-2.78zM185.208 319.85c1.75-1.77 2.762-4.22 2.762-6.72s-1.014-4.95-2.762-6.72c-1.76-1.76-4.192-2.78-6.676-2.78-2.483 0-4.918 1.02-6.677 2.78-1.758 1.77-2.76 4.22-2.76 6.72s1.002 4.95 2.76 6.72c1.76 1.77 4.193 2.78 6.677 2.78s4.917-1.01 6.676-2.78zM224.48 326.88c0-2.5-1.014-4.95-2.77-6.72-1.75-1.77-4.184-2.78-6.678-2.78-2.484 0-4.917 1.01-6.667 2.78-1.758 1.77-2.76 4.22-2.76 6.72s1.002 4.95 2.76 6.72c1.75 1.76 4.183 2.78 6.667 2.78 2.494 0 4.927-1.02 6.677-2.78 1.756-1.77 2.77-4.22 2.77-6.72zM141.922 233.5c2.484 0 4.918-1.02 6.677-2.78 1.757-1.78 2.76-4.22 2.76-6.72s-1.003-4.95-2.76-6.72c-1.76-1.77-4.194-2.78-6.678-2.78-2.483 0-4.907 1.01-6.666 2.78-1.758 1.77-2.772 4.22-2.772 6.72s1.014 4.95 2.772 6.72c1.76 1.76 4.182 2.78 6.666 2.78zM151.6 262.14c-2.485 0-4.92 1.02-6.677 2.78-1.76 1.78-2.762 4.22-2.762 6.72s1.004 4.95 2.763 6.72c1.758 1.77 4.192 2.78 6.676 2.78 2.482 0 4.917-1.01 6.675-2.78 1.76-1.77 2.762-4.22 2.762-6.72s-1.003-4.94-2.762-6.72c-1.758-1.76-4.193-2.78-6.676-2.78zM177.776 241.92c0 2.5 1.004 4.94 2.762 6.71 1.76 1.77 4.192 2.79 6.676 2.79s4.918-1.02 6.677-2.79c1.75-1.76 2.762-4.21 2.762-6.71 0-2.51-1.013-4.95-2.76-6.72-1.77-1.77-4.204-2.79-6.678-2.79-2.483 0-4.917 1.02-6.676 2.79-1.758 1.77-2.762 4.22-2.762 6.72zM253.628 239.9c2.483 0 4.917-1.01 6.676-2.78 1.76-1.77 2.762-4.22 2.762-6.71 0-2.5-1.003-4.95-2.762-6.72-1.758-1.77-4.192-2.78-6.676-2.78-2.474 0-4.908 1.01-6.667 2.78-1.758 1.77-2.77 4.22-2.77 6.72 0 2.49 1.013 4.94 2.77 6.71 1.76 1.77 4.194 2.78 6.668 2.78zM214.147 292.9c2.484 0 4.918-1.01 6.667-2.78 1.76-1.77 2.77-4.21 2.77-6.72 0-2.49-1.012-4.94-2.77-6.71-1.758-1.77-4.183-2.79-6.667-2.79-2.483 0-4.917 1.02-6.676 2.79-1.758 1.77-2.76 4.22-2.76 6.71 0 2.51 1.002 4.95 2.76 6.72 1.76 1.77 4.194 2.78 6.677 2.78zM232.12 204.94c0-2.5-1.014-4.94-2.763-6.71-1.758-1.77-4.192-2.79-6.676-2.79-2.482 0-4.916 1.02-6.675 2.79-1.76 1.77-2.762 4.21-2.762 6.71 0 2.51 1.003 4.96 2.762 6.72 1.758 1.77 4.192 2.79 6.676 2.79 2.485 0 4.91-1.02 6.677-2.79 1.75-1.76 2.762-4.21 2.762-6.72zM168.617 192.36c2.483 0 4.908-1.01 6.666-2.78 1.76-1.77 2.772-4.22 2.772-6.72s-1.013-4.95-2.772-6.72c-1.758-1.77-4.183-2.78-6.666-2.78-2.484 0-4.918 1.01-6.676 2.78-1.758 1.77-2.76 4.22-2.76 6.72s1.002 4.95 2.76 6.72c1.76 1.77 4.193 2.78 6.677 2.78zM171.746 113.85c-2.483 0-4.917 1.02-6.677 2.79-1.76 1.76-2.762 4.21-2.762 6.72 0 2.5 1.003 4.94 2.76 6.71 1.75 1.77 4.184 2.78 6.678 2.78 2.484 0 4.918-1.01 6.667-2.78 1.758-1.77 2.76-4.21 2.76-6.71 0-2.51-1.002-4.96-2.76-6.72-1.76-1.77-4.183-2.79-6.667-2.79zM212.13 148.82c0-2.51-1.003-4.95-2.76-6.72-1.76-1.77-4.194-2.78-6.678-2.78s-4.917 1.01-6.676 2.78c-1.758 1.76-2.762 4.21-2.762 6.72 0 2.49 1.004 4.94 2.762 6.71 1.76 1.77 4.192 2.79 6.676 2.79 2.483 0 4.918-1.02 6.677-2.79 1.757-1.77 2.76-4.22 2.76-6.71zM253.528 164.52c2.484 0 4.918-1.01 6.677-2.78 1.758-1.77 2.772-4.22 2.772-6.72s-1.014-4.95-2.772-6.72c-1.76-1.77-4.193-2.78-6.677-2.78-2.473 0-4.907 1.01-6.666 2.78-1.758 1.77-2.76 4.22-2.76 6.72s1.002 4.95 2.76 6.72c1.76 1.77 4.193 2.78 6.666 2.78zM238.428 103.92c1.758 1.77 4.192 2.78 6.676 2.78s4.918-1.01 6.676-2.78c1.76-1.77 2.762-4.22 2.762-6.72s-1.003-4.95-2.762-6.72c-1.758-1.76-4.192-2.77-6.676-2.77-2.483 0-4.917 1.01-6.676 2.77-1.75 1.77-2.762 4.22-2.762 6.72s1.013 4.95 2.762 6.72zM314.766 123.99c-1.748-1.77-4.183-2.79-6.666-2.79-2.484 0-4.918 1.02-6.677 2.79-1.758 1.77-2.76 4.21-2.76 6.71 0 2.51 1.002 4.95 2.76 6.72 1.76 1.77 4.193 2.78 6.677 2.78 2.483 0 4.918-1.01 6.666-2.78 1.758-1.77 2.772-4.21 2.772-6.72 0-2.49-1.015-4.94-2.772-6.71zM212.19 68.1c-1.75-1.77-4.183-2.78-6.666-2.78-2.484 0-4.918 1.01-6.677 2.78-1.758 1.77-2.76 4.22-2.76 6.72s1.002 4.95 2.76 6.72c1.76 1.77 4.193 2.78 6.677 2.78 2.483 0 4.917-1.01 6.666-2.78 1.758-1.77 2.77-4.22 2.77-6.72s-1.012-4.95-2.77-6.72zM245.45 53.06c2.484 0 4.92-1.02 6.678-2.79s2.76-4.21 2.76-6.71-1.002-4.95-2.76-6.72c-1.76-1.77-4.193-2.78-6.677-2.78-2.483 0-4.917 1.01-6.675 2.78-1.75 1.77-2.762 4.22-2.762 6.72s1.014 4.94 2.762 6.71c1.758 1.77 4.192 2.79 6.676 2.79zM98.06 311.69c0 2.5 1.014 4.95 2.773 6.72 1.758 1.77 4.182 2.78 6.666 2.78 2.482 0 4.916-1.01 6.675-2.78 1.758-1.77 2.762-4.22 2.762-6.72s-1.004-4.95-2.762-6.72c-1.76-1.77-4.192-2.78-6.676-2.78-2.485 0-4.91 1.01-6.667 2.78-1.76 1.77-2.772 4.22-2.772 6.72zM293.396 84.22c1.758-1.77 2.76-4.22 2.76-6.72s-1.002-4.95-2.76-6.71c-1.76-1.77-4.193-2.79-6.677-2.79-2.485 0-4.92 1.02-6.677 2.79-1.76 1.76-2.762 4.21-2.762 6.71s1.004 4.95 2.763 6.72c1.758 1.77 4.192 2.78 6.676 2.78 2.483 0 4.918-1.01 6.676-2.78zM164.335 530.08c-2.483 0-4.917 1.02-6.666 2.79-1.76 1.76-2.772 4.21-2.772 6.71s1.013 4.95 2.77 6.72c1.75 1.77 4.184 2.78 6.667 2.78 2.484 0 4.917-1.01 6.676-2.78 1.76-1.77 2.763-4.22 2.763-6.72s-1.004-4.95-2.762-6.71c-1.758-1.77-4.19-2.79-6.675-2.79zM171.657 493.71c-1.76-1.77-4.193-2.78-6.677-2.78s-4.918 1.01-6.676 2.78c-1.75 1.76-2.762 4.21-2.762 6.72 0 2.5 1.014 4.95 2.762 6.71 1.758 1.77 4.192 2.79 6.676 2.79 2.483 0 4.917-1.02 6.677-2.79 1.758-1.77 2.76-4.21 2.76-6.71 0-2.51-1.002-4.96-2.76-6.72zM206.25 543.87c2.482 0 4.917-1.01 6.676-2.78 1.758-1.77 2.76-4.22 2.76-6.71 0-2.51-1.002-4.96-2.76-6.72-1.76-1.77-4.193-2.79-6.677-2.79-2.485 0-4.92 1.02-6.677 2.79-1.75 1.76-2.762 4.21-2.762 6.72 0 2.49 1.015 4.94 2.763 6.71 1.758 1.77 4.192 2.78 6.676 2.78zM199.563 429.48c2.483 0 4.907-1.01 6.666-2.78 1.757-1.77 2.77-4.22 2.77-6.72s-1.013-4.95-2.77-6.72c-1.76-1.76-4.184-2.78-6.667-2.78-2.495 0-4.918 1.02-6.677 2.78-1.758 1.77-2.772 4.22-2.772 6.72s1.014 4.95 2.772 6.72c1.76 1.77 4.183 2.78 6.677 2.78zM243.653 389.44c2.483 0 4.918-1.02 6.676-2.79s2.76-4.21 2.76-6.72c0-2.5-1.002-4.94-2.76-6.71-1.76-1.77-4.193-2.78-6.677-2.78s-4.918 1.01-6.676 2.78c-1.75 1.77-2.762 4.21-2.762 6.71 0 2.51 1.013 4.95 2.762 6.72 1.758 1.77 4.192 2.79 6.676 2.79zM243.892 427.58c0 2.49 1.003 4.94 2.76 6.71 1.76 1.77 4.194 2.79 6.678 2.79 2.483 0 4.907-1.02 6.666-2.79 1.758-1.77 2.77-4.22 2.77-6.71 0-2.5-1.013-4.95-2.77-6.72-1.76-1.77-4.183-2.78-6.666-2.78-2.484 0-4.918 1.01-6.677 2.78-1.758 1.77-2.76 4.22-2.76 6.72zM258.635 342.73c2.484 0 4.918-1.01 6.676-2.78 1.76-1.77 2.763-4.22 2.763-6.72s-1.003-4.94-2.762-6.71c-1.757-1.77-4.19-2.79-6.675-2.79-2.483 0-4.918 1.02-6.666 2.79-1.76 1.76-2.773 4.21-2.773 6.71s1.013 4.95 2.772 6.72c1.747 1.77 4.18 2.78 6.665 2.78zM282.905 279.29c0-2.5-1.003-4.95-2.762-6.72-1.758-1.77-4.192-2.78-6.676-2.78-2.483 0-4.917 1.01-6.666 2.78-1.757 1.77-2.77 4.22-2.77 6.72s1.014 4.94 2.77 6.71c1.76 1.77 4.193 2.79 6.667 2.79 2.484 0 4.918-1.02 6.676-2.79 1.76-1.77 2.762-4.21 2.762-6.71zM304.423 314.25c2.484 0 4.907-1.01 6.667-2.78 1.758-1.77 2.762-4.22 2.762-6.72s-1.004-4.95-2.762-6.72c-1.75-1.77-4.183-2.78-6.667-2.78-2.493 0-4.917 1.01-6.676 2.78-1.76 1.77-2.77 4.22-2.77 6.72s1.012 4.95 2.77 6.72c1.76 1.77 4.193 2.78 6.676 2.78zM346.834 262.64c2.484 0 4.908-1.02 6.667-2.78 1.76-1.77 2.772-4.22 2.772-6.72s-1.013-4.95-2.77-6.72c-1.75-1.77-4.184-2.78-6.668-2.78-2.493 0-4.917 1.01-6.676 2.78-1.758 1.77-2.762 4.22-2.762 6.72s1.004 4.95 2.762 6.72c1.76 1.76 4.183 2.78 6.676 2.78zM307.245 221.25c-2.474 0-4.907 1.02-6.666 2.79-1.76 1.77-2.773 4.21-2.773 6.71s1.014 4.95 2.772 6.72c1.758 1.77 4.19 2.78 6.665 2.78 2.484 0 4.918-1.01 6.676-2.78 1.76-1.76 2.763-4.21 2.763-6.72 0-2.5-1.003-4.95-2.762-6.71-1.757-1.77-4.19-2.79-6.675-2.79zM368.174 197.8c0-2.5-1.003-4.95-2.762-6.72-1.758-1.76-4.192-2.78-6.676-2.78s-4.918 1.02-6.676 2.78c-1.75 1.77-2.762 4.22-2.762 6.72s1.013 4.95 2.762 6.72c1.758 1.77 4.192 2.78 6.676 2.78 2.483 0 4.918-1.01 6.676-2.78 1.76-1.77 2.762-4.22 2.762-6.72zM365.91 144.68c-1.76-1.76-4.193-2.78-6.677-2.78s-4.908 1.02-6.666 2.78c-1.76 1.77-2.772 4.22-2.772 6.72s1.013 4.95 2.772 6.72c1.758 1.77 4.182 2.78 6.666 2.78s4.918-1.01 6.676-2.78c1.758-1.77 2.76-4.22 2.76-6.72s-1.003-4.95-2.76-6.72zM209.23 458.12c-2.484 0-4.918 1.02-6.676 2.79-1.76 1.77-2.762 4.21-2.762 6.71s1.003 4.95 2.762 6.72c1.758 1.77 4.192 2.78 6.676 2.78 2.483 0 4.917-1.01 6.677-2.78 1.758-1.77 2.76-4.22 2.76-6.72s-1.002-4.94-2.76-6.71c-1.77-1.77-4.194-2.79-6.677-2.79zM359.343 24.62c2.483 0 4.907-1.01 6.666-2.78 1.757-1.77 2.77-4.22 2.77-6.72s-1.014-4.95-2.77-6.72c-1.76-1.76-4.184-2.78-6.667-2.78-2.484 0-4.918 1.02-6.677 2.78-1.758 1.77-2.76 4.22-2.76 6.72s1.002 4.95 2.76 6.72c1.76 1.77 4.193 2.78 6.677 2.78zM395.713 56.61c0-2.5-1.013-4.94-2.772-6.71-1.757-1.77-4.182-2.79-6.665-2.79-2.484 0-4.918 1.02-6.676 2.79-1.76 1.76-2.763 4.21-2.763 6.71s1.004 4.95 2.762 6.72c1.757 1.77 4.19 2.78 6.675 2.78 2.483 0 4.917-1.01 6.666-2.78 1.76-1.77 2.773-4.22 2.773-6.72zM403.065 6.31c1.758 1.77 4.182 2.78 6.666 2.78s4.92-1.01 6.677-2.78c1.733-1.744 2.727-4.148 2.756-6.61h-18.855c.03 2.462 1.024 4.866 2.757 6.61zM62.713 494.02c0-2.5-1.004-4.95-2.762-6.72-1.757-1.77-4.18-2.78-6.675-2.78-2.483 0-4.908 1.01-6.666 2.78-1.554 1.563-2.523 3.656-2.73 5.846l16.044 7.62c.008-.01.018-.017.026-.025 1.76-1.77 2.763-4.22 2.763-6.72zM113.847 489.23c2.484 0 4.908-1.01 6.667-2.78 1.76-1.77 2.77-4.22 2.77-6.72s-1.012-4.95-2.77-6.72c-1.758-1.77-4.183-2.78-6.667-2.78-2.483 0-4.917 1.01-6.676 2.78-1.758 1.77-2.76 4.22-2.76 6.72s1.002 4.95 2.76 6.72c1.76 1.77 4.193 2.78 6.677 2.78zM61.015 456.97c2.493 0 4.928-1.01 6.676-2.78 1.76-1.77 2.763-4.22 2.763-6.72s-1.004-4.95-2.762-6.72c-1.758-1.77-4.19-2.78-6.675-2.78-2.474 0-4.908 1.01-6.666 2.78-1.76 1.77-2.763 4.22-2.763 6.72s1.003 4.95 2.762 6.72c1.756 1.77 4.18 2.78 6.665 2.78zM346.864 77.32c1.76-1.76 2.762-4.21 2.762-6.71s-1.003-4.95-2.762-6.72c-1.758-1.77-4.183-2.78-6.676-2.78-2.484 0-4.918 1.01-6.667 2.78-1.758 1.77-2.77 4.22-2.77 6.72s1.013 4.95 2.77 6.71c1.75 1.77 4.184 2.78 6.668 2.78 2.494 0 4.918-1.01 6.676-2.78zM376.41 104.85c0-2.5-1.003-4.95-2.762-6.72-1.758-1.77-4.192-2.78-6.676-2.78s-4.908 1.01-6.666 2.78c-1.76 1.77-2.772 4.22-2.772 6.72s1.013 4.95 2.772 6.72c1.758 1.77 4.182 2.78 6.666 2.78 2.483 0 4.917-1.01 6.676-2.78 1.76-1.77 2.762-4.22 2.762-6.72zM148.22 469.68c2.484 0 4.918-1.02 6.667-2.78 1.76-1.77 2.77-4.22 2.77-6.72s-1.012-4.95-2.77-6.72c-1.75-1.77-4.183-2.78-6.667-2.78-2.483 0-4.917 1.01-6.676 2.78-1.758 1.77-2.762 4.22-2.762 6.72s1.004 4.95 2.762 6.72c1.76 1.76 4.193 2.78 6.676 2.78zM296.038 188.29c2.484 0 4.918-1.01 6.677-2.78 1.758-1.77 2.76-4.22 2.76-6.72s-1.002-4.94-2.76-6.72c-1.76-1.76-4.193-2.78-6.677-2.78-2.483 0-4.907 1.02-6.676 2.78-1.748 1.78-2.762 4.22-2.762 6.72s1.014 4.95 2.762 6.72c1.77 1.77 4.203 2.78 6.676 2.78zM288.607 37.67c2.484 0 4.918-1.01 6.676-2.78 1.76-1.77 2.762-4.22 2.762-6.72s-1.003-4.94-2.762-6.71c-1.758-1.77-4.192-2.79-6.676-2.79-2.483 0-4.917 1.02-6.676 2.79-1.758 1.76-2.76 4.21-2.76 6.71s1.002 4.95 2.76 6.72c1.76 1.77 4.194 2.78 6.677 2.78zM467.79 96.2c-1.76-1.77-4.193-2.78-6.667-2.78-2.484 0-4.917 1.01-6.676 2.78-1.758 1.77-2.762 4.22-2.762 6.72s1.004 4.95 2.762 6.71c1.76 1.77 4.192 2.79 6.676 2.79.983 0 1.956-.166 2.883-.47l5.906-12.448c-.474-1.23-1.19-2.363-2.123-3.302zM353.66 339.79c0 1.173.228 2.332.644 3.418l5.907-12.452c-1.416.46-2.727 1.245-3.79 2.314-1.756 1.77-2.76 4.21-2.76 6.72zM12.017 469.57c2.474 0 4.908-1.01 6.666-2.78 1.76-1.77 2.772-4.21 2.772-6.72 0-2.5-1.013-4.95-2.772-6.71-1.748-1.77-4.182-2.78-6.666-2.78-2.493 0-4.928 1.01-6.676 2.78-1.758 1.76-2.76 4.21-2.76 6.71 0 2.51 1.002 4.95 2.76 6.72 1.76 1.77 4.193 2.78 6.677 2.78zM478.578 26.37c-2.484 0-4.918 1.02-6.667 2.78-1.757 1.77-2.77 4.22-2.77 6.72 0 2.51 1.014 4.95 2.77 6.72 1.76 1.77 4.184 2.78 6.668 2.78 2.483 0 4.917-1.01 6.676-2.78 1.76-1.77 2.762-4.21 2.762-6.72 0-2.5-1.003-4.95-2.762-6.72-1.758-1.76-4.192-2.78-6.676-2.78zM417.37 79.82c-2.484 0-4.917 1.01-6.676 2.78-1.75 1.77-2.762 4.21-2.762 6.72 0 2.5 1.014 4.95 2.762 6.72 1.76 1.76 4.192 2.78 6.676 2.78 2.483 0 4.918-1.01 6.677-2.78 1.758-1.77 2.76-4.22 2.76-6.72s-1.002-4.95-2.76-6.72c-1.76-1.77-4.193-2.78-6.677-2.78zM50.424 532.17c-1.76 1.77-2.762 4.21-2.762 6.72 0 2.49 1.003 4.94 2.762 6.71 1.758 1.77 4.192 2.79 6.676 2.79 2.483 0 4.918-1.02 6.666-2.79 1.76-1.77 2.772-4.22 2.772-6.71 0-2.51-1.013-4.95-2.772-6.72-1.748-1.77-4.183-2.79-6.666-2.79-2.484 0-4.918 1.02-6.676 2.79zM6.463 506.77c0-2.5-1.003-4.95-2.762-6.71-1.04-1.047-2.316-1.824-3.7-2.29v18.003c1.383-.463 2.662-1.236 3.7-2.282 1.76-1.77 2.763-4.22 2.763-6.72zM104.04 532.52c-1.757 1.76-2.76 4.21-2.76 6.71s1.003 4.95 2.76 6.72c1.76 1.77 4.193 2.78 6.677 2.78 2.483 0 4.917-1.01 6.677-2.78 1.758-1.77 2.76-4.22 2.76-6.72s-1.002-4.94-2.76-6.71c-1.76-1.77-4.193-2.79-6.677-2.79s-4.917 1.02-6.676 2.79zM9.632 565.31c2.484 0 4.908-1.02 6.666-2.79 1.76-1.77 2.772-4.21 2.772-6.71s-1.013-4.95-2.772-6.72c-1.758-1.77-4.182-2.79-6.666-2.79-2.483 0-4.917 1.02-6.676 2.79-1.758 1.77-2.762 4.22-2.762 6.72s1.004 4.94 2.762 6.71c1.76 1.77 4.192 2.79 6.676 2.79zM43.838 494.02c0 2.5 1.013 4.95 2.77 6.72 1.76 1.77 4.184 2.78 6.667 2.78 2.472 0 4.894-1 6.65-2.755l-16.043-7.62c-.027.29-.044.582-.044.875z"/></g></svg>