<svg xmlns="http://www.w3.org/2000/svg" width="566.93" height="566.93" viewBox="0 0 566.93 566.93"><g fill="#010202"><path d="M47.442 92.59l.2-.203-.162-.162-22.063 22.06 22.063 22.057.16-.16-.198-.196zM47.442.082H25.778l-.36.367L47.48 22.505l.16-.16-.198-.193zM22.427 171.2L.357 149.147l-.357.37V192.9l.358.36zM22.427 285.05L.357 262.985l-.357.363v43.39l.358.37zM47.442 35.667l.196-.19-.158-.16-22.063 22.057 22.063 22.06.163-.162-.2-.208zM47.442 149.518l.2-.208-.162-.163L25.417 171.2l22.063 22.06.16-.16-.198-.2zM22.427 114.285L.357 92.225 0 92.59v43.396l.358.356zM47.442 263.347l.2-.202-.162-.16-22.063 22.066 22.063 22.057.163-.162-.2-.208zM47.442 206.432l.2-.2-.162-.16-22.063 22.06 22.063 22.05.162-.162-.2-.205zM47.643 534.62l-.2-.207V491.02l.2-.205-.163-.162-22.063 22.064 22.063 22.067zM22.427.45L22.055.08H0v22.07l.358.354zM22.427 57.374L.357 35.317l-.357.35v43.397l.358.37zM22.427 228.133l-22.07-22.06-.357.36v43.382l.358.367zM22.427 455.806L.357 433.75l-.357.345v43.4l.358.367zM.358 547.578l-.358.368v20.043h20.78zM47.442 434.095l.195-.19-.157-.156-22.063 22.056 22.063 22.056.162-.162-.2-.205zM22.427 512.717L.357 490.653 0 491.02v43.393l.358.37zM47.442 320.265l.2-.205-.162-.162-22.063 22.06 22.063 22.064.16-.16-.198-.196zM47.642 547.74l-.162-.162-20.417 20.41h20.38v-20.042zM22.427 341.958l-22.07-22.06-.357.367v43.4l.358.357zM22.427 398.88L.357 376.827l-.357.367v43.383l.358.36zM47.442 377.194l.2-.205-.162-.163-22.063 22.053 22.063 22.057.16-.16-.198-.2zM47.8 376.827l-.158.162-.2.204v43.383l.2.2.158.16 22.07-22.057zM94.885.082H73.22l-.36.367 22.063 22.056.16-.16-.198-.193zM94.885 263.347l.2-.202-.162-.16L72.86 285.05l22.063 22.057.163-.162-.2-.208zM94.885 35.667l.196-.19-.157-.16L72.86 57.374l22.063 22.06.163-.162-.2-.208zM94.885 377.194l.2-.205-.162-.163L72.86 398.88l22.063 22.057.16-.16-.198-.2zM94.885 491.02l.2-.205-.162-.162-22.064 22.064 22.063 22.067.162-.163-.2-.207zM94.885 320.265l.2-.205-.162-.162-22.064 22.06 22.063 22.064.16-.16-.198-.196zM94.885 92.59l.2-.203-.162-.162-22.064 22.06 22.063 22.057.16-.16-.198-.196zM94.885 149.518l.2-.208-.162-.163L72.86 171.2l22.063 22.06.16-.16-.198-.2zM94.885 434.095l.195-.19-.157-.156-22.064 22.056 22.063 22.056.162-.162-.2-.205zM47.8 149.147l-.157.163-.2.208V192.9l.198.2.16.16 22.07-22.06zM47.8 92.225l-.158.162-.2.202v43.396l.198.196.16.16 22.07-22.057zM47.8 206.072l-.16.16-.198.2v43.383l.2.205.158.162 22.07-22.05zM95.085 547.74l-.162-.162-20.418 20.41h20.38v-20.042zM47.642 547.74l-.2.206v20.043h20.78L47.8 547.577zM47.8 319.898l-.158.162-.2.205v43.4l.198.197.16.16 22.07-22.064zM47.8 35.317l-.162.16-.196.19v43.397l.2.208.158.163 22.07-22.06zM47.637 433.906l-.195.19v43.4l.2.204.158.162 22.07-22.056L47.8 433.75zM69.497.082H47.442v22.07l.197.195.16.16L69.87.448zM47.8 262.984l-.16.16-.198.203v43.39l.2.208.158.162 22.07-22.056zM94.885 206.432l.198-.2-.16-.16-22.064 22.06 22.063 22.05.162-.162-.2-.205zM47.442 534.413l.2.208.158.164 22.07-22.067-22.07-22.064-.158.162-.2.205zM95.085 547.74l-.2.206v20.043h20.78l-20.422-20.412zM142.527 547.74l-.162-.162-20.417 20.41h20.38v-20.042zM95.243 35.317l-.162.16-.195.19v43.397l.2.208.158.163 22.07-22.06zM95.243 92.225l-.16.162-.198.202v43.396l.197.196.16.16 22.07-22.057zM142.327 149.518l.2-.208-.162-.163L120.3 171.2l22.065 22.06.16-.16-.198-.2zM95.243 149.147l-.157.163-.2.208V192.9l.197.2.16.16 22.07-22.06zM142.327 263.347l.2-.202-.162-.16L120.3 285.05l22.065 22.057.163-.162-.2-.208zM95.243 206.072l-.16.16-.198.2v43.383l.2.205.158.162 22.07-22.05zM116.94.082H94.885v22.07l.197.195.16.16L117.313.448zM142.327 206.432l.2-.2-.162-.16-22.064 22.06 22.065 22.05.162-.162-.2-.205zM95.243 319.898l-.158.162-.2.205v43.4l.197.197.16.16 22.07-22.064zM142.327 434.095l.195-.19-.157-.156-22.064 22.056 22.065 22.056.162-.162-.2-.205zM95.243 376.827l-.158.162-.2.204v43.383l.198.2.16.16 22.07-22.057zM142.327 377.194l.2-.205-.162-.163L120.3 398.88l22.065 22.057.16-.16-.198-.2zM95.085 490.815l-.2.205v43.393l.2.208.158.164 22.07-22.067-22.07-22.064zM142.327 35.667l.196-.19-.158-.16L120.3 57.374l22.065 22.06.163-.162-.2-.208zM95.243 433.75l-.163.156-.195.19v43.4l.2.204.158.162 22.07-22.056zM95.243 262.984l-.16.16-.198.203v43.39l.2.208.158.162 22.07-22.056zM142.327 92.59l.2-.203-.162-.162-22.064 22.06 22.065 22.057.16-.16-.198-.196zM142.327 320.265l.2-.205-.162-.162-22.064 22.06 22.065 22.064.16-.16-.198-.196zM142.327.082h-21.664L120.3.45l22.065 22.056.16-.16-.198-.193zM142.327 491.02l.2-.205-.162-.162-22.064 22.064 22.065 22.067.163-.163-.2-.207zM142.685 433.75l-.163.156-.195.19v43.4l.2.204.158.162 22.07-22.056zM189.97 547.74l-.162-.162-20.418 20.41h20.38v-20.042zM164.382.082h-22.055v22.07l.197.195.16.16L164.755.448zM142.685 35.317l-.162.16-.196.19v43.397l.2.208.158.163 22.07-22.06zM142.527 490.815l-.2.205v43.393l.2.208.158.164 22.07-22.067-22.07-22.064zM142.527 547.74l-.2.206v20.043h20.78l-20.422-20.412zM189.77 377.194l.2-.205-.162-.163-22.064 22.053 22.064 22.057.16-.16-.198-.2zM142.685 319.898l-.158.162-.2.205v43.4l.198.197.16.16 22.07-22.064zM189.77 206.432l.198-.2-.16-.16-22.064 22.06 22.064 22.05.162-.162-.2-.205zM142.685 262.984l-.16.16-.198.203v43.39l.2.208.158.162 22.07-22.056zM142.685 206.072l-.16.16-.198.2v43.383l.2.205.158.162 22.07-22.05zM189.77 320.265l.2-.205-.162-.162-22.064 22.06 22.064 22.064.16-.16-.198-.196zM189.77 434.095l.195-.19-.157-.156-22.064 22.056 22.064 22.056.162-.162-.2-.205zM189.77 491.02l.2-.205-.162-.162-22.064 22.064 22.064 22.067.162-.163-.2-.207zM189.77 92.59l.2-.203-.162-.162-22.064 22.06 22.064 22.057.16-.16-.198-.196zM142.685 92.225l-.16.162-.198.202v43.396l.198.196.16.16 22.07-22.057zM142.685 376.827l-.158.162-.2.204v43.383l.2.2.158.16 22.07-22.057zM189.77 35.667l.196-.19-.158-.16-22.064 22.057 22.064 22.06.162-.162-.2-.208zM189.77.082h-21.665l-.36.367 22.063 22.056.16-.16-.198-.193zM142.685 149.147l-.157.163-.2.208V192.9l.198.2.16.16 22.07-22.06zM189.77 263.347l.2-.202-.162-.16-22.064 22.066 22.064 22.057.162-.162-.2-.208zM189.77 149.518l.2-.208-.162-.163-22.064 22.053 22.064 22.06.16-.16-.198-.2zM190.128 35.317l-.162.16-.196.19v43.397l.2.208.158.163 22.07-22.06zM237.212 434.095l.195-.19-.157-.156-22.064 22.056 22.064 22.056.162-.162-.2-.205zM190.128 433.75l-.163.156-.195.19v43.4l.2.204.158.162 22.07-22.056zM237.212 92.59l.2-.203-.162-.162-22.064 22.06 22.064 22.057.16-.16-.198-.196zM237.212.082h-21.664l-.362.367 22.064 22.056.16-.16-.198-.193zM237.212 206.432l.2-.2-.162-.16-22.064 22.06 22.064 22.05.162-.162-.2-.205zM237.212 377.194l.2-.205-.162-.163-22.064 22.053 22.064 22.057.16-.16-.198-.2zM237.212 263.347l.2-.202-.162-.16-22.064 22.066 22.064 22.057.163-.162-.2-.208zM237.212 491.02l.2-.205-.162-.162-22.064 22.064 22.064 22.067.163-.163-.2-.207zM237.212 320.265l.2-.205-.162-.162-22.064 22.06 22.064 22.064.16-.16-.198-.196zM237.212 35.667l.196-.19-.158-.16-22.064 22.057 22.064 22.06.163-.162-.2-.208zM190.128 206.072l-.16.16-.198.2v43.383l.2.205.158.162 22.07-22.05zM190.128 149.147l-.158.163-.2.208V192.9l.198.2.16.16 22.07-22.06zM190.128 92.225l-.16.162-.198.202v43.396l.197.196.16.16 22.07-22.057zM211.824.082H189.77v22.07l.197.195.16.16L212.198.448zM190.128 319.898l-.158.162-.2.205v43.4l.197.197.16.16 22.07-22.064zM190.128 262.984l-.16.16-.198.203v43.39l.2.208.158.162 22.07-22.056zM190.128 376.827l-.158.162-.2.204v43.383l.198.2.16.16 22.07-22.057zM189.97 490.815l-.2.205v43.393l.2.208.158.164 22.07-22.067-22.07-22.064zM237.212 149.518l.2-.208-.162-.163-22.064 22.053 22.064 22.06.16-.16-.198-.2zM189.97 547.74l-.2.206v20.043h20.78l-20.422-20.412zM237.412 547.74l-.162-.162-20.418 20.41h20.38v-20.042zM284.655 320.265l.2-.205-.162-.162-22.064 22.06 22.063 22.064.16-.16-.198-.196zM284.655 149.518l.2-.208-.162-.163L262.63 171.2l22.063 22.06.16-.16-.198-.2zM284.655 35.667l.196-.19-.157-.16-22.064 22.057 22.063 22.06.162-.162-.2-.208zM284.655 92.59l.2-.203-.162-.162-22.064 22.06 22.063 22.057.16-.16-.198-.196zM237.57 433.75l-.163.156-.195.19v43.4l.2.204.158.162 22.07-22.056zM284.655.082H262.99l-.36.367 22.063 22.056.158-.16-.195-.193zM284.655 434.095l.195-.19-.157-.156-22.064 22.056 22.063 22.056.162-.162-.2-.205zM237.412 490.815l-.2.205v43.393l.2.208.158.164 22.07-22.067-22.07-22.064zM284.655 491.02l.2-.205-.162-.162-22.064 22.064 22.063 22.067.162-.163-.2-.207zM284.655 377.194l.2-.205-.162-.163-22.064 22.053 22.063 22.057.16-.16-.198-.2zM284.655 263.347l.2-.202-.162-.16-22.064 22.066 22.063 22.057.162-.162-.2-.208zM284.655 206.432l.198-.2-.16-.16-22.064 22.06 22.063 22.05.162-.162-.2-.205zM237.57 149.147l-.157.163-.2.208V192.9l.198.2.16.16 22.07-22.06zM237.57 206.072l-.16.16-.198.2v43.383l.2.205.158.162 22.07-22.05zM237.57 92.225l-.16.162-.198.202v43.396l.198.196.16.16 22.07-22.057zM237.57 376.827l-.158.162-.2.204v43.383l.2.2.158.16 22.07-22.057zM237.57 35.317l-.162.16-.196.19v43.397l.2.208.158.163 22.07-22.06zM259.267.082h-22.055v22.07l.197.195.16.16L259.64.448zM284.855 547.74l-.162-.162-20.418 20.41h20.38v-20.042zM237.57 262.984l-.16.16-.198.203v43.39l.2.208.158.162 22.07-22.056zM237.412 547.74l-.2.206v20.043h20.78l-20.422-20.412zM237.57 319.898l-.158.162-.2.205v43.4l.198.197.16.16 22.07-22.064zM332.097 263.347l.2-.202-.162-.16-22.064 22.066 22.065 22.057.163-.162-.2-.208zM332.097 149.518l.2-.208-.162-.163L310.07 171.2l22.065 22.06.16-.16-.198-.2zM285.013 433.75l-.163.156-.195.19v43.4l.2.204.158.162 22.07-22.056zM332.097.082h-21.664l-.362.367 22.065 22.056.16-.16-.198-.193zM332.097 491.02l.2-.205-.162-.162-22.064 22.064 22.065 22.067.163-.163-.2-.207zM332.097 377.194l.2-.205-.162-.163-22.064 22.053 22.065 22.057.16-.16-.198-.2zM332.097 320.265l.2-.205-.162-.162-22.064 22.06 22.065 22.064.16-.16-.198-.196zM332.097 434.095l.195-.19-.157-.156-22.064 22.056 22.065 22.056.162-.162-.2-.205zM332.097 92.59l.2-.203-.162-.162-22.064 22.06 22.065 22.057.16-.16-.198-.196zM332.097 35.667l.196-.19-.158-.16-22.064 22.057 22.065 22.06.163-.162-.2-.208zM332.097 206.432l.198-.2-.16-.16-22.064 22.06 22.065 22.05.162-.162-.2-.205zM285.013 35.317l-.162.16-.195.19v43.397l.2.208.158.163 22.07-22.06zM284.855 490.815l-.2.205v43.393l.2.208.158.164 22.07-22.067-22.07-22.064zM284.855 547.74l-.2.206v20.043h20.78l-20.422-20.412zM285.013 92.225l-.16.162-.198.202v43.396l.197.196.16.16 22.07-22.057zM332.297 547.74l-.162-.162-20.418 20.41h20.38v-20.042zM306.71.082h-22.055v22.07l.196.195.163.16L307.083.448zM285.013 319.898l-.158.162-.2.205v43.4l.197.197.16.16 22.07-22.064zM285.013 262.984l-.16.16-.198.203v43.39l.2.208.158.162 22.07-22.056zM285.013 376.827l-.158.162-.2.204v43.383l.198.2.16.16 22.07-22.057zM285.013 149.147l-.158.163-.2.208V192.9l.198.2.16.16 22.07-22.06zM285.013 206.072l-.16.16-.198.2v43.383l.2.205.158.162 22.07-22.05zM332.455 319.898l-.158.162-.2.205v43.4l.198.197.16.16 22.07-22.064zM332.455 433.75l-.163.156-.195.19v43.4l.2.204.158.162 22.07-22.056zM379.54 35.667l.196-.19-.16-.16-22.062 22.057 22.063 22.06.163-.162-.2-.208zM379.54.082h-21.665l-.36.367 22.062 22.056.16-.16-.197-.193zM379.54 491.02l.2-.205-.163-.162-22.063 22.064 22.063 22.067.163-.163-.2-.207zM332.297 490.815l-.2.205v43.393l.2.208.158.164 22.07-22.067-22.07-22.064zM332.455 376.827l-.158.162-.2.204v43.383l.198.2.16.16 22.07-22.057zM332.455 262.984l-.16.16-.198.203v43.39l.2.208.158.162 22.07-22.056zM379.54 206.432l.198-.2-.16-.16-22.064 22.06 22.063 22.05.163-.162-.2-.205zM379.54 377.194l.2-.205-.163-.163-22.063 22.053 22.063 22.057.16-.16-.197-.2zM379.54 320.265l.2-.205-.163-.162-22.063 22.06 22.063 22.064.16-.16-.197-.196zM379.54 263.347l.2-.202-.163-.16-22.063 22.066 22.063 22.057.163-.162-.2-.208zM379.54 149.518l.2-.208-.163-.163-22.063 22.053 22.063 22.06.16-.16-.197-.2zM379.54 92.59l.2-.203-.163-.162-22.063 22.06 22.063 22.057.16-.16-.197-.196zM379.74 547.74l-.163-.162-20.417 20.41h20.38v-20.042zM379.54 434.095l.195-.19-.158-.156-22.063 22.056 22.063 22.056.162-.162-.2-.205zM332.455 35.317l-.162.16-.196.19v43.397l.2.208.158.163 22.07-22.06zM354.152.082h-22.055v22.07l.197.195.16.16L354.525.448zM332.455 149.147l-.157.163-.2.208V192.9l.197.2.16.16 22.07-22.06zM332.455 92.225l-.16.162-.198.202v43.396l.198.196.16.16 22.07-22.057zM332.455 206.072l-.16.16-.198.2v43.383l.2.205.158.162 22.07-22.05zM332.297 547.74l-.2.206v20.043h20.78l-20.422-20.412zM426.982 320.265l.2-.205-.162-.162-22.064 22.06 22.064 22.064.16-.16-.198-.196zM426.982 263.347l.2-.202-.162-.16-22.064 22.066 22.064 22.057.163-.162-.2-.208zM426.982 377.194l.2-.205-.162-.163-22.064 22.053 22.064 22.057.16-.16-.198-.2zM426.982 491.02l.2-.205-.162-.162-22.064 22.064 22.064 22.067.163-.163-.2-.207zM426.982 434.095l.195-.19-.157-.156-22.064 22.056 22.064 22.056.162-.162-.2-.205zM426.982 206.432l.198-.2-.16-.16-22.064 22.06 22.064 22.05.162-.162-.2-.205zM426.982 149.518l.2-.208-.162-.163-22.064 22.053 22.064 22.06.16-.16-.198-.2zM426.982 92.59l.2-.203-.162-.162-22.064 22.06 22.064 22.057.16-.16-.198-.196zM379.898 92.225l-.16.162-.198.202v43.396l.197.196.16.16 22.07-22.057zM379.898 319.898l-.158.162-.2.205v43.4l.197.197.16.16 22.07-22.064zM426.982.082h-21.664l-.362.367 22.064 22.056.16-.16-.198-.193zM379.898 262.984l-.16.16-.198.203v43.39l.2.208.158.162 22.07-22.056zM379.898 433.75l-.163.156-.195.19v43.4l.2.204.158.162 22.07-22.056zM379.898 376.827l-.158.162-.2.204v43.383l.198.2.16.16 22.07-22.057zM426.982 35.667l.196-.19-.158-.16-22.064 22.057 22.064 22.06.163-.162-.2-.208zM379.74 490.815l-.2.205v43.393l.2.208.158.164 22.07-22.067-22.07-22.064zM379.898 206.072l-.16.16-.198.2v43.383l.2.205.158.162 22.07-22.05zM379.898 149.147l-.158.163-.2.208V192.9l.198.2.16.16 22.07-22.06zM401.594.082H379.54v22.07l.196.195.162.16L401.968.448zM427.182 547.74l-.162-.162-20.418 20.41h20.38v-20.042zM379.74 547.74l-.2.206v20.043h20.78l-20.422-20.412zM379.898 35.317l-.162.16-.196.19v43.397l.2.208.158.163 22.07-22.06zM474.425 206.432l.198-.2-.16-.16-22.065 22.06 22.064 22.05.162-.162-.2-.205zM427.182 490.815l-.2.205v43.393l.2.208.158.164 22.07-22.067-22.07-22.064zM474.425.082H452.76l-.362.367 22.064 22.056.16-.16-.197-.193zM474.425 149.518l.2-.208-.163-.163-22.064 22.053 22.064 22.06.16-.16-.197-.2zM474.425 35.667l.195-.19-.158-.16-22.064 22.057 22.064 22.06.163-.162-.2-.208zM474.624 547.74l-.162-.162-20.417 20.41h20.38v-20.042zM427.34 433.75l-.163.156-.195.19v43.4l.2.204.158.162 22.07-22.056zM474.425 263.347l.2-.202-.163-.16-22.064 22.066 22.064 22.057.163-.162-.2-.208zM427.182 547.74l-.2.206v20.043h20.78l-20.422-20.412zM427.34 262.984l-.16.16-.198.203v43.39l.2.208.158.162 22.07-22.056zM427.34 319.898l-.158.162-.2.205v43.4l.197.197.16.16 22.07-22.064zM449.037.082h-22.055v22.07l.197.195.16.16L449.41.448zM427.34 206.072l-.16.16-.198.2v43.383l.2.205.158.162 22.07-22.05zM427.34 149.147l-.157.163-.2.208V192.9l.197.2.16.16 22.07-22.06zM427.34 92.225l-.16.162-.198.202v43.396l.197.196.16.16 22.07-22.057zM474.425 92.59l.2-.203-.163-.162-22.064 22.06 22.064 22.057.16-.16-.197-.196zM427.34 376.827l-.158.162-.2.204v43.383l.198.2.16.16 22.07-22.057zM474.425 491.02l.2-.205-.163-.162-22.064 22.064 22.064 22.067.163-.163-.2-.207zM474.425 320.265l.2-.205-.163-.162-22.064 22.06 22.064 22.064.16-.16-.197-.196zM474.425 377.194l.2-.205-.163-.163-22.064 22.053 22.064 22.057.16-.16-.197-.2zM474.425 434.095l.195-.19-.158-.156-22.064 22.056 22.064 22.056.162-.162-.2-.205zM427.34 35.317l-.162.16-.196.19v43.397l.2.208.158.163 22.07-22.06zM521.867 320.265l.2-.205-.162-.162-22.064 22.06 22.065 22.064.16-.16-.198-.196zM521.867.082h-21.664l-.362.367 22.065 22.056.16-.16-.198-.193zM521.867 377.194l.2-.205-.162-.163-22.064 22.053 22.065 22.057.16-.16-.198-.2zM521.867 491.02l.2-.205-.162-.162-22.064 22.064 22.065 22.067.163-.163-.2-.207zM521.867 434.095l.195-.19-.157-.156-22.064 22.056 22.065 22.056.162-.162-.2-.205zM521.867 92.59l.2-.203-.162-.162-22.064 22.06 22.065 22.057.16-.16-.198-.196zM521.867 149.518l.2-.208-.162-.163L499.84 171.2l22.065 22.06.16-.16-.198-.2zM474.624 547.74l-.2.206v20.043h20.78l-20.42-20.412zM521.867 206.432l.198-.2-.16-.16-22.064 22.06 22.065 22.05.162-.162-.2-.205zM521.867 263.347l.2-.202-.162-.16-22.064 22.066 22.065 22.057.163-.162-.2-.208zM521.867 35.667l.196-.19-.158-.16-22.064 22.057 22.065 22.06.163-.162-.2-.208zM474.783 92.225l-.16.162-.198.202v43.396l.197.196.16.16 22.07-22.057zM474.783 35.317l-.163.16-.195.19v43.397l.2.208.158.163 22.07-22.06zM474.783 433.75l-.163.156-.195.19v43.4l.2.204.158.162 22.07-22.056zM522.067 547.74l-.162-.162-20.418 20.41h20.38v-20.042zM474.783 206.072l-.16.16-.198.2v43.383l.2.205.158.162 22.07-22.05zM496.48.082h-22.055v22.07l.196.195.163.16L496.853.448zM474.783 149.147l-.158.163-.2.208V192.9l.198.2.16.16 22.07-22.06zM474.783 376.827l-.16.162-.198.204v43.383l.198.2.16.16 22.07-22.057zM474.783 262.984l-.16.16-.198.203v43.39l.2.208.158.162 22.07-22.056zM474.624 490.815l-.2.205v43.393l.2.208.16.164 22.068-22.067-22.07-22.064zM474.783 319.898l-.16.162-.198.205v43.4l.197.197.16.16 22.07-22.064zM522.225 206.072l-.16.16-.198.2v43.383l.2.205.158.162 22.07-22.05zM522.225 149.147l-.157.163-.2.208V192.9l.197.2.16.16 22.07-22.06zM522.225 319.898l-.158.162-.2.205v43.4l.197.197.16.16 22.07-22.064zM547.304 285.03l-.02.02 19.646 19.64v-.032zM547.304 171.18l-.02.02 19.646 19.643v-.033zM522.225 376.827l-.158.162-.2.204v43.383l.198.2.16.16 22.07-22.057zM547.304 228.112l-.02.02 19.646 19.635v-.034zM522.225 262.984l-.16.16-.198.203v43.39l.2.208.158.162 22.07-22.056zM547.304 57.354l-.02.02 19.646 19.644v-.034zM522.067 490.815l-.2.205v43.393l.2.208.158.164 22.07-22.067-22.07-22.064zM522.225 433.75l-.163.156-.195.19v43.4l.2.204.158.162 22.07-22.056zM522.225 35.317l-.162.16-.196.19v43.397l.2.208.158.163 22.07-22.06zM547.304 398.86l-.02.02 19.646 19.64v-.033zM547.304 455.785l-.02.02 19.646 19.64v-.033zM547.283.45l19.647 19.64v-.034L547.304.428zM543.922.082h-22.055v22.07l.197.195.16.16L544.295.448zM566.93 532.366v-.033l-19.626-19.637-.02.02zM522.067 547.74l-.2.206v20.043h20.78l-20.422-20.412zM547.304 341.938l-.02.02 19.646 19.647v-.034zM522.225 92.225l-.16.162-.198.202v43.396l.197.196.16.16 22.07-22.057zM547.304 114.265l-.02.02 19.646 19.64v-.033zM547.243.367l.06.06 19.627 19.63V.073h-19.394zM566.93 567.99v-18.126l-18.123 18.125zM566.93 94.512l-19.687 19.69.06.063 19.627 19.627zM566.93 492.94l-19.687 19.695.06.06 19.627 19.638zM566.93 151.432l-19.687 19.686.06.06 19.627 19.632zM566.93 208.36l-19.687 19.69.06.062 19.627 19.62zM566.93 436.035l-19.687 19.69.06.06 19.627 19.627zM566.93 37.604l-19.687 19.688.06.062 19.627 19.63zM566.93 265.27l-19.687 19.7.06.06 19.627 19.628zM566.93 379.113l-19.687 19.685.06.06 19.627 19.63zM566.93 322.185l-19.687 19.69.06.063 19.627 19.633z"/></g></svg>