<?xml version="1.0" encoding="utf-8"?>
<!-- Generator: Adobe Illustrator 17.1.0, SVG Export Plug-In . SVG Version: 6.00 Build 0)  -->
<!DOCTYPE svg PUBLIC "-//W3C//DTD SVG 1.1//EN" "http://www.w3.org/Graphics/SVG/1.1/DTD/svg11.dtd">
<svg version="1.1" xmlns="http://www.w3.org/2000/svg" xmlns:xlink="http://www.w3.org/1999/xlink" x="0px" y="0px"
	 width="566.93px" height="566.93px" viewBox="0 0 566.93 566.93" enable-background="new 0 0 566.93 566.93" xml:space="preserve">
<g id="Ebene_1">
	<g>
		<g>
			<g>
				<path fill="#020305" d="M426.222,344.849c0,2.5,1.014,4.94,2.771,6.72c1.759,1.761,4.193,2.78,6.667,2.78
					c2.483,0,4.917-1.02,6.677-2.78c1.758-1.779,2.771-4.22,2.771-6.72s-1.014-4.95-2.771-6.72c-1.759-1.771-4.193-2.78-6.677-2.78
					c-2.473,0-4.907,1.01-6.667,2.78C427.236,339.899,426.222,342.349,426.222,344.849z"/>
				<path fill="#020305" d="M311.854,464.169c2.484,0,4.918-1.021,6.677-2.78c1.758-1.771,2.761-4.22,2.761-6.72
					s-1.003-4.95-2.761-6.721c-1.759-1.77-4.193-2.779-6.677-2.779c-2.483,0-4.917,1.01-6.676,2.779
					c-1.758,1.771-2.762,4.221-2.762,6.721s1.004,4.949,2.762,6.72C306.937,463.149,309.37,464.169,311.854,464.169z"/>
				<path fill="#020305" d="M410.466,467.939c2.484,0,4.907-1.01,6.676-2.78c1.749-1.77,2.762-4.22,2.762-6.71
					c0-2.5-1.014-4.949-2.762-6.72c-1.769-1.77-4.192-2.78-6.676-2.78s-4.918,1.011-6.677,2.78c-1.758,1.771-2.761,4.22-2.761,6.72
					s1.003,4.94,2.761,6.71C405.548,466.929,407.982,467.939,410.466,467.939z"/>
				<path fill="#020305" d="M362.103,441.389c2.484,0,4.908-1.01,6.667-2.78c1.759-1.77,2.771-4.22,2.771-6.72
					s-1.013-4.94-2.771-6.72c-1.749-1.761-4.183-2.78-6.667-2.78c-2.483,0-4.917,1.02-6.676,2.78c-1.758,1.77-2.762,4.22-2.762,6.72
					s1.004,4.95,2.762,6.72C357.187,440.379,359.62,441.389,362.103,441.389z"/>
				<path fill="#020305" d="M435.034,418.988c0-2.5-1.013-4.949-2.772-6.72c-1.748-1.76-4.182-2.78-6.666-2.78
					c-2.483,0-4.918,1.021-6.676,2.78c-1.759,1.771-2.762,4.22-2.762,6.72s1.003,4.95,2.762,6.721
					c1.758,1.77,4.192,2.779,6.676,2.779c2.484,0,4.908-1.01,6.666-2.779C434.021,423.939,435.034,421.488,435.034,418.988z"/>
				<path fill="#020305" d="M390.448,366.459c-1.758,1.77-2.762,4.22-2.762,6.72s1.004,4.95,2.762,6.72
					c1.759,1.771,4.192,2.78,6.676,2.78c2.483,0,4.917-1.01,6.677-2.78c1.748-1.77,2.761-4.22,2.761-6.72s-1.013-4.95-2.761-6.72
					c-1.759-1.761-4.193-2.771-6.677-2.771C394.639,363.689,392.206,364.698,390.448,366.459z"/>
				<path fill="#020305" d="M356.421,345.809c1.759,1.76,4.192,2.78,6.676,2.78s4.918-1.021,6.677-2.78
					c1.758-1.77,2.761-4.22,2.761-6.72s-1.003-4.95-2.761-6.721c-1.759-1.77-4.193-2.779-6.677-2.779
					c-0.983,0-1.957,0.164-2.886,0.465l-5.907,12.452C354.775,343.735,355.488,344.869,356.421,345.809z"/>
				<path fill="#020305" d="M406.68,310.448c0,2.5,1.014,4.95,2.772,6.721c1.748,1.77,4.182,2.79,6.666,2.79
					c2.483,0,4.917-1.021,6.677-2.79c1.758-1.771,2.761-4.21,2.761-6.721c0-2.5-1.003-4.949-2.761-6.71
					c-1.759-1.77-4.193-2.79-6.677-2.79c-2.484,0-4.918,1.021-6.666,2.79C407.694,305.509,406.68,307.959,406.68,310.448z"/>
				<path fill="#020305" d="M357.703,393.029c0-2.5-1.013-4.949-2.762-6.72c-1.758-1.76-4.192-2.78-6.676-2.78
					c-2.484,0-4.918,1.021-6.676,2.78c-1.759,1.771-2.762,4.22-2.762,6.72s1.003,4.95,2.762,6.721
					c1.758,1.77,4.192,2.779,6.676,2.779c2.483,0,4.917-1.01,6.676-2.779C356.69,397.979,357.703,395.529,357.703,393.029z"/>
				<path fill="#020305" d="M407.992,257.629c-2.483,0-4.918,1.01-6.676,2.78c-1.759,1.77-2.762,4.22-2.762,6.72
					s1.003,4.95,2.762,6.72c1.758,1.77,4.192,2.78,6.676,2.78c2.484,0,4.918-1.01,6.666-2.78c1.758-1.77,2.772-4.22,2.772-6.72
					s-1.014-4.95-2.772-6.72C412.91,258.639,410.476,257.629,407.992,257.629z"/>
				<path fill="#020305" d="M448.595,232.559c1.749-1.77,2.762-4.22,2.762-6.72s-1.014-4.95-2.762-6.72
					c-1.759-1.77-4.192-2.78-6.676-2.78c-2.483,0-4.917,1.01-6.677,2.78c-1.758,1.77-2.761,4.22-2.761,6.72s1.003,4.95,2.761,6.72
					c1.759,1.77,4.193,2.78,6.677,2.78C444.403,235.339,446.836,234.329,448.595,232.559z"/>
				<path fill="#020305" d="M458.828,282.839c2.483,0,4.917-1.02,6.676-2.79c1.759-1.77,2.762-4.21,2.762-6.71
					s-1.003-4.95-2.762-6.72c-1.758-1.77-4.192-2.78-6.676-2.78c-2.484,0-4.908,1.01-6.676,2.78c-1.749,1.77-2.762,4.22-2.762,6.72
					s1.013,4.94,2.762,6.71C453.91,281.819,456.344,282.839,458.828,282.839z"/>
				<path fill="#020305" d="M493.529,290.689c-1.758-1.77-4.192-2.78-6.676-2.78c-2.484,0-4.918,1.011-6.676,2.78
					c-1.759,1.771-2.762,4.22-2.762,6.71c0,2.5,1.003,4.95,2.762,6.72c1.758,1.771,4.192,2.78,6.676,2.78
					c2.483,0,4.918-1.01,6.676-2.78c1.759-1.77,2.762-4.22,2.762-6.72C496.291,294.908,495.288,292.459,493.529,290.689z"/>
				<path fill="#020305" d="M504.189,330.789c-1.759,1.77-2.762,4.22-2.762,6.72s1.003,4.939,2.762,6.71
					c1.749,1.77,4.183,2.79,6.676,2.79c2.484,0,4.918-1.021,6.667-2.79c1.759-1.771,2.771-4.21,2.771-6.71s-1.013-4.95-2.771-6.72
					c-1.758-1.771-4.183-2.78-6.667-2.78C508.372,328.009,505.948,329.019,504.189,330.789z"/>
				<path fill="#020305" d="M461.48,367.908c-1.758,1.771-2.772,4.221-2.772,6.71c0,2.511,1.014,4.95,2.772,6.721
					c1.759,1.77,4.192,2.79,6.676,2.79c2.483,0,4.908-1.021,6.666-2.79c1.759-1.771,2.772-4.21,2.772-6.721
					c0-2.489-1.013-4.939-2.772-6.71c-1.758-1.77-4.192-2.779-6.666-2.779C465.672,365.129,463.239,366.139,461.48,367.908z"/>
				<path fill="#020305" d="M507.737,406.509c2.483,0,4.917-1.021,6.666-2.79c1.758-1.76,2.772-4.21,2.772-6.71
					s-1.014-4.95-2.772-6.72c-1.75-1.771-4.183-2.78-6.666-2.78c-2.484,0-4.918,1.01-6.677,2.78c-1.758,1.77-2.761,4.22-2.761,6.72
					s1.003,4.95,2.761,6.71C502.819,405.488,505.253,406.509,507.737,406.509z"/>
				<path fill="#020305" d="M474.922,443.289c-1.759-1.761-4.192-2.78-6.676-2.78c-2.484,0-4.918,1.02-6.667,2.78
					c-1.758,1.77-2.761,4.22-2.761,6.72s1.003,4.95,2.761,6.72c1.75,1.771,4.184,2.78,6.667,2.78c2.483,0,4.917-1.01,6.676-2.78
					c1.758-1.77,2.762-4.22,2.762-6.72S476.68,445.059,474.922,443.289z"/>
				<path fill="#020305" d="M531.023,436.729c1.759-1.77,2.762-4.22,2.762-6.72s-1.003-4.95-2.762-6.72
					c-1.758-1.761-4.192-2.78-6.676-2.78s-4.918,1.02-6.666,2.78c-1.759,1.77-2.772,4.22-2.772,6.72s1.013,4.95,2.772,6.72
					c1.748,1.771,4.182,2.78,6.666,2.78S529.265,438.499,531.023,436.729z"/>
				<path fill="#020305" d="M566.93,344.258v-15.589c-1.572-1.094-3.458-1.709-5.377-1.709c-2.484,0-4.918,1.02-6.666,2.79
					c-1.759,1.77-2.772,4.21-2.772,6.71c0,2.51,1.013,4.949,2.772,6.72c1.748,1.77,4.182,2.78,6.666,2.78
					C563.472,345.959,565.358,345.349,566.93,344.258z"/>
				<path fill="#020305" d="M539.657,293.819c-1.759,1.761-2.762,4.21-2.762,6.71s1.003,4.95,2.762,6.721
					c1.758,1.77,4.182,2.779,6.676,2.779c2.483,0,4.907-1.01,6.666-2.779c1.758-1.771,2.762-4.221,2.762-6.721
					s-1.004-4.939-2.762-6.71c-1.759-1.77-4.183-2.779-6.666-2.779C543.839,291.039,541.405,292.049,539.657,293.819z"/>
				<path fill="#020305" d="M560.499,250.759c0,2.5,1.014,4.95,2.762,6.72c1.031,1.033,2.298,1.802,3.669,2.268v-17.979
					c-1.371,0.465-2.638,1.232-3.669,2.271C561.513,245.809,560.499,248.259,560.499,250.759z"/>
				<path fill="#020305" d="M525.906,257.649c0-2.5-1.003-4.94-2.761-6.71c-1.759-1.77-4.193-2.79-6.677-2.79
					s-4.917,1.02-6.676,2.79c-1.758,1.76-2.762,4.21-2.762,6.71c0,2.51,1.004,4.96,2.762,6.72c1.759,1.77,4.192,2.78,6.676,2.78
					s4.918-1.01,6.677-2.78C524.903,262.599,525.906,260.149,525.906,257.649z"/>
				<path fill="#020305" d="M501.905,217.549c0-2.5-1.014-4.94-2.772-6.71c-1.749-1.77-4.182-2.79-6.666-2.79
					c-2.483,0-4.917,1.02-6.677,2.79c-1.758,1.77-2.761,4.21-2.761,6.71c0,2.51,1.003,4.96,2.761,6.72
					c1.759,1.77,4.183,2.78,6.677,2.78c2.484,0,4.917-1.01,6.666-2.78C500.891,222.509,501.905,220.059,501.905,217.549z"/>
				<path fill="#020305" d="M466.775,156.389c-2.493,0-4.927,1.02-6.676,2.78c-1.759,1.77-2.771,4.22-2.771,6.72
					s1.013,4.95,2.771,6.72c1.758,1.77,4.192,2.78,6.676,2.78c2.484,0,4.908-1.01,6.667-2.78c1.759-1.77,2.771-4.22,2.771-6.72
					s-1.013-4.95-2.771-6.72C471.693,157.409,469.259,156.389,466.775,156.389z"/>
				<path fill="#020305" d="M502.311,181.889c1.759,1.77,4.183,2.78,6.677,2.78c2.483,0,4.907-1.01,6.666-2.78
					c1.758-1.77,2.762-4.22,2.762-6.72c0-2.49-1.004-4.94-2.762-6.72c-1.759-1.76-4.183-2.78-6.666-2.78
					c-2.494,0-4.918,1.02-6.677,2.78c-1.758,1.77-2.761,4.22-2.761,6.72C499.55,177.679,500.553,180.129,502.311,181.889z"/>
				<path fill="#020305" d="M536.039,188.059c-1.758,1.77-2.761,4.22-2.761,6.72s1.003,4.95,2.761,6.71
					c1.759,1.77,4.183,2.79,6.677,2.79c2.483,0,4.917-1.02,6.666-2.79c1.758-1.76,2.761-4.21,2.761-6.71
					c0-2.51-1.003-4.95-2.761-6.72c-1.75-1.77-4.183-2.78-6.666-2.78C540.222,185.279,537.799,186.289,536.039,188.059z"/>
				<path fill="#020305" d="M510.865,135.339c2.484,0,4.918-1.01,6.676-2.78c1.759-1.77,2.762-4.22,2.762-6.72
					s-1.003-4.95-2.762-6.71c-1.758-1.77-4.192-2.79-6.676-2.79c-2.483,0-4.917,1.02-6.666,2.79c-1.758,1.76-2.771,4.21-2.771,6.71
					s1.014,4.95,2.771,6.72C505.948,134.329,508.382,135.339,510.865,135.339z"/>
				<path fill="#020305" d="M558.929,128.409c-2.484,0-4.918,1.01-6.666,2.78c-1.758,1.77-2.772,4.21-2.772,6.71
					c0,2.51,1.014,4.96,2.772,6.72c1.748,1.77,4.182,2.78,6.666,2.78s4.918-1.01,6.677-2.78c0.51-0.513,0.947-1.088,1.324-1.7
					v-10.03c-0.377-0.612-0.814-1.187-1.324-1.7C563.847,129.419,561.413,128.409,558.929,128.409z"/>
				<path fill="#020305" d="M556.506,99.609c2.483,0,4.917-1.01,6.676-2.78c1.748-1.77,2.762-4.22,2.762-6.72
					s-1.014-4.95-2.762-6.71c-1.759-1.77-4.192-2.79-6.676-2.79c-2.484,0-4.918,1.02-6.677,2.79c-1.758,1.76-2.761,4.21-2.761,6.71
					s1.003,4.95,2.761,6.72C551.588,98.599,554.022,99.609,556.506,99.609z"/>
				<path fill="#020305" d="M510.399,68.259c-1.759,1.76-2.762,4.21-2.762,6.72c0,2.5,1.003,4.94,2.762,6.71
					c1.758,1.77,4.182,2.78,6.676,2.78c2.483,0,4.918-1.01,6.666-2.78c1.759-1.77,2.772-4.22,2.772-6.71
					c0-2.51-1.013-4.95-2.772-6.72c-1.758-1.77-4.192-2.78-6.666-2.78C514.591,65.479,512.157,66.489,510.399,68.259z"/>
				<path fill="#020305" d="M533.138,20.349c2.494,0,4.918-1.01,6.676-2.78c1.759-1.76,2.762-4.21,2.762-6.72
					c0-2.5-1.003-4.94-2.762-6.71c-1.758-1.77-4.192-2.79-6.676-2.79c-2.483,0-4.907,1.02-6.666,2.79
					c-1.758,1.77-2.771,4.22-2.771,6.71c0,2.5,1.014,4.95,2.771,6.72C528.221,19.339,530.655,20.349,533.138,20.349z"/>
				<path fill="#020305" d="M532.632,490.079c2.484,0,4.918-1.011,6.676-2.78c1.759-1.771,2.762-4.22,2.762-6.72
					s-1.003-4.95-2.762-6.721c-1.758-1.76-4.192-2.779-6.676-2.779c-2.483,0-4.917,1.02-6.676,2.779
					c-1.759,1.771-2.762,4.221-2.762,6.721s1.003,4.949,2.762,6.72C527.715,489.069,530.149,490.079,532.632,490.079z"/>
				<path fill="#020305" d="M485.016,499.759c2.483,0,4.917-1.021,6.666-2.79c1.758-1.76,2.772-4.21,2.772-6.71
					s-1.014-4.95-2.772-6.72c-1.75-1.771-4.183-2.78-6.666-2.78c-2.484,0-4.918,1.01-6.677,2.78c-1.758,1.77-2.761,4.22-2.761,6.72
					s1.003,4.939,2.761,6.71C480.098,498.738,482.532,499.759,485.016,499.759z"/>
				<path fill="#020305" d="M440.32,510.819c2.483,0,4.917-1.01,6.676-2.779c1.759-1.761,2.762-4.21,2.762-6.71
					c0-2.511-1.003-4.961-2.762-6.721c-1.758-1.77-4.183-2.79-6.676-2.79c-2.484,0-4.918,1.021-6.676,2.79
					c-1.75,1.76-2.762,4.21-2.762,6.721c0,2.5,1.013,4.939,2.762,6.71C435.411,509.809,437.846,510.819,440.32,510.819z"/>
				<path fill="#020305" d="M564.463,514.529c0,2.352,0.897,4.653,2.467,6.392v-12.783
					C565.36,509.877,564.463,512.176,564.463,514.529z"/>
				<path fill="#020305" d="M564.353,564.689c-1.758-1.77-4.192-2.79-6.676-2.79c-2.484,0-4.918,1.021-6.676,2.79
					c-0.466,0.469-0.875,0.988-1.231,1.54h15.809C565.225,565.677,564.817,565.158,564.353,564.689z"/>
				<path fill="#020305" d="M551.031,398.368c2.483,0,4.917-1.01,6.677-2.779c1.758-1.771,2.761-4.221,2.761-6.721
					s-1.003-4.949-2.761-6.71c-1.759-1.77-4.183-2.79-6.677-2.79c-2.484,0-4.917,1.021-6.667,2.79
					c-1.758,1.771-2.761,4.21-2.761,6.71s1.003,4.95,2.761,6.721C546.124,397.359,548.558,398.368,551.031,398.368z"/>
				<path fill="#020305" d="M300.459,498.589c0-2.5-1.013-4.95-2.762-6.721c-1.758-1.77-4.192-2.779-6.676-2.779
					c-2.484,0-4.918,1.01-6.676,2.779c-1.759,1.771-2.762,4.221-2.762,6.721s1.003,4.95,2.762,6.72
					c1.758,1.76,4.192,2.78,6.676,2.78c2.483,0,4.918-1.021,6.676-2.78C299.446,503.539,300.459,501.089,300.459,498.589z"/>
				<path fill="#020305" d="M348.534,511.509c1.758-1.771,2.761-4.22,2.761-6.72s-1.003-4.94-2.761-6.71
					c-1.759-1.771-4.193-2.79-6.677-2.79s-4.907,1.02-6.666,2.79c-1.758,1.77-2.772,4.21-2.772,6.71s1.014,4.949,2.772,6.72
					c1.759,1.77,4.182,2.78,6.666,2.78S346.775,513.279,348.534,511.509z"/>
				<path fill="#020305" d="M329.658,555.139c2.484,0,4.917-1.021,6.676-2.79c1.758-1.76,2.762-4.21,2.762-6.71
					s-1.004-4.95-2.762-6.72c-1.759-1.771-4.192-2.78-6.676-2.78c-2.483,0-4.917,1.01-6.667,2.78c-1.758,1.77-2.771,4.22-2.771,6.72
					s1.013,4.95,2.771,6.71C324.74,554.118,327.174,555.139,329.658,555.139z"/>
				<path fill="#020305" d="M378.526,560.779c0-2.51-1.003-4.96-2.762-6.72c-1.758-1.77-4.192-2.78-6.676-2.78
					c-2.483,0-4.918,1.011-6.666,2.78c-1.758,1.771-2.772,4.21-2.772,6.72c0,1.95,0.624,3.865,1.729,5.451h15.426
					C377.909,564.644,378.526,562.729,378.526,560.779z"/>
				<path fill="#020305" d="M386.702,510.479c2.484,0,4.917-1.02,6.676-2.79c1.758-1.77,2.762-4.21,2.762-6.71
					s-1.004-4.95-2.762-6.72c-1.759-1.771-4.192-2.78-6.676-2.78s-4.918,1.01-6.677,2.78c-1.758,1.77-2.761,4.22-2.761,6.72
					s1.003,4.94,2.761,6.71C381.784,509.459,384.219,510.479,386.702,510.479z"/>
				<path fill="#020305" d="M279.676,547.059c-1.749,1.771-2.751,4.22-2.751,6.72c0,2.49,1.003,4.94,2.751,6.71
					c1.769,1.771,4.203,2.79,6.676,2.79c2.483,0,4.917-1.02,6.677-2.79c1.758-1.76,2.761-4.21,2.761-6.71
					c0-2.51-1.003-4.96-2.761-6.72c-1.759-1.77-4.183-2.78-6.677-2.78C283.868,544.279,281.435,545.289,279.676,547.059z"/>
				<path fill="#020305" d="M428.118,566.229h4.27c-0.698-0.165-1.412-0.26-2.132-0.26
					C429.533,565.969,428.817,566.064,428.118,566.229z"/>
				<path fill="#020305" d="M419.188,540.249c2.495,0,4.918-1.011,6.677-2.78c1.758-1.771,2.761-4.22,2.761-6.72
					s-1.003-4.95-2.761-6.71c-1.759-1.771-4.193-2.79-6.677-2.79c-2.483,0-4.917,1.02-6.676,2.79c-1.758,1.76-2.762,4.21-2.762,6.71
					s1.004,4.949,2.762,6.72C414.271,539.238,416.704,540.249,419.188,540.249z"/>
				<path fill="#020305" d="M466.011,562.488c2.483,0,4.917-1.02,6.676-2.79c1.758-1.76,2.762-4.21,2.762-6.71
					s-1.004-4.949-2.762-6.72c-1.759-1.77-4.192-2.78-6.676-2.78c-2.484,0-4.918,1.011-6.667,2.78
					c-1.758,1.771-2.761,4.22-2.761,6.72s1.003,4.95,2.761,6.71C461.093,561.469,463.527,562.488,466.011,562.488z"/>
				<path fill="#020305" d="M513.478,545.569c2.484,0,4.918-1.02,6.677-2.79c1.758-1.76,2.771-4.21,2.771-6.71
					s-1.013-4.95-2.771-6.72c-1.759-1.77-4.183-2.78-6.677-2.78c-2.483,0-4.917,1.011-6.666,2.78c-1.758,1.77-2.762,4.22-2.762,6.72
					s1.004,4.95,2.762,6.71C508.56,544.549,510.994,545.569,513.478,545.569z"/>
				<path fill="#020305" d="M470.56,102.219c0-1.173-0.231-2.332-0.649-3.418l-5.906,12.449c1.415-0.462,2.721-1.252,3.783-2.321
					C469.547,107.169,470.56,104.719,470.56,102.219z"/>
				<path fill="#020305" d="M304.96,410.669c2.484,0,4.918-1.011,6.676-2.78c1.759-1.771,2.762-4.22,2.762-6.72
					s-1.003-4.95-2.762-6.721c-1.758-1.76-4.192-2.779-6.676-2.779c-2.483,0-4.918,1.02-6.676,2.779
					c-1.749,1.771-2.762,4.221-2.762,6.721s1.013,4.949,2.762,6.72C300.042,409.658,302.476,410.669,304.96,410.669z"/>
				<path fill="#020305" d="M322.137,354.618c0-2.5-1.003-4.949-2.762-6.72c-1.758-1.76-4.192-2.78-6.676-2.78
					c-2.484,0-4.918,1.021-6.666,2.78c-1.759,1.771-2.772,4.22-2.772,6.72s1.013,4.95,2.772,6.721
					c1.748,1.77,4.182,2.779,6.666,2.779c2.483,0,4.918-1.01,6.676-2.779C321.134,359.569,322.137,357.118,322.137,354.618z"/>
				<path fill="#020305" d="M354.961,305.259c2.483,0,4.917-1.01,6.676-2.78c1.759-1.77,2.762-4.22,2.762-6.72
					s-1.003-4.95-2.762-6.72c-1.758-1.761-4.192-2.78-6.676-2.78c-2.474,0-4.908,1.02-6.676,2.78c-1.749,1.77-2.762,4.22-2.762,6.72
					s1.013,4.95,2.762,6.72C350.053,304.249,352.487,305.259,354.961,305.259z"/>
				<path fill="#020305" d="M378.277,240.999c2.484,0,4.918-1.02,6.676-2.79c1.759-1.76,2.762-4.21,2.762-6.72
					c0-2.5-1.003-4.95-2.762-6.71c-1.758-1.77-4.192-2.78-6.676-2.78c-2.483,0-4.907,1.01-6.676,2.78
					c-1.748,1.76-2.762,4.21-2.762,6.71s1.014,4.95,2.762,6.72C373.37,239.979,375.794,240.999,378.277,240.999z"/>
				<path fill="#020305" d="M396.905,186.569c-1.758,1.76-2.762,4.21-2.762,6.72c0,2.49,1.004,4.94,2.762,6.71
					c1.759,1.77,4.192,2.78,6.676,2.78c2.474,0,4.908-1.01,6.666-2.78c1.759-1.77,2.771-4.22,2.771-6.71
					c0-2.51-1.013-4.96-2.771-6.72c-1.758-1.77-4.192-2.79-6.666-2.79C401.097,183.779,398.664,184.799,396.905,186.569z"/>
				<path fill="#020305" d="M425.507,122.439c-2.483,0-4.917,1.02-6.676,2.79c-1.759,1.76-2.762,4.21-2.762,6.71
					c0,2.51,1.003,4.96,2.762,6.72c1.758,1.77,4.192,2.78,6.676,2.78c2.474,0,4.908-1.01,6.666-2.78
					c1.759-1.77,2.772-4.22,2.772-6.72s-1.013-4.95-2.772-6.71C430.415,123.459,427.991,122.439,425.507,122.439z"/>
				<path fill="#020305" d="M443.031,31.739c0-2.49-1.003-4.94-2.761-6.71c-1.759-1.77-4.193-2.78-6.677-2.78
					c-2.493,0-4.917,1.01-6.676,2.78c-1.758,1.76-2.762,4.21-2.762,6.71c0,2.51,1.004,4.96,2.762,6.72
					c1.759,1.77,4.192,2.79,6.676,2.79c2.484,0,4.908-1.02,6.677-2.79C442.028,36.689,443.031,34.239,443.031,31.739z"/>
				<path fill="#020305" d="M228.721,559.959c-2.493,0-4.918,1.01-6.676,2.779c-0.983,0.984-1.72,2.187-2.188,3.491h17.723
					c-0.47-1.3-1.207-2.502-2.184-3.491C233.639,560.969,231.205,559.959,228.721,559.959z"/>
				<path fill="#020305" d="M266.87,460.738c2.484,0,4.907-1.01,6.666-2.779c1.758-1.771,2.772-4.221,2.772-6.721
					s-1.014-4.949-2.772-6.71c-1.759-1.77-4.182-2.79-6.666-2.79c-2.483,0-4.918,1.021-6.677,2.79
					c-1.758,1.771-2.761,4.21-2.761,6.71s1.003,4.95,2.761,6.721C261.952,459.729,264.387,460.738,266.87,460.738z"/>
				<path fill="#020305" d="M244.785,514.839c2.493,0,4.927-1.021,6.676-2.79c1.759-1.771,2.771-4.21,2.771-6.71
					s-1.013-4.95-2.771-6.721c-1.749-1.77-4.183-2.779-6.676-2.779c-2.474,0-4.907,1.01-6.667,2.779
					c-1.758,1.771-2.762,4.221-2.762,6.721s1.004,4.939,2.762,6.71C239.878,513.819,242.311,514.839,244.785,514.839z"/>
				<path fill="#020305" d="M20.868,417.819c-1.759-1.77-4.192-2.779-6.676-2.779c-2.484,0-4.918,1.01-6.666,2.779
					c-1.759,1.771-2.772,4.221-2.772,6.71c0,2.5,1.013,4.95,2.772,6.721c1.748,1.77,4.182,2.779,6.666,2.779
					c2.483,0,4.917-1.01,6.676-2.779c1.758-1.761,2.762-4.21,2.762-6.721C23.631,422.029,22.626,419.589,20.868,417.819z"/>
				<path fill="#020305" d="M0.79,372.429c0,2.49,1.003,4.939,2.762,6.71c1.758,1.77,4.192,2.79,6.676,2.79
					c2.484,0,4.918-1.021,6.676-2.79c1.759-1.771,2.762-4.21,2.762-6.71s-1.003-4.95-2.762-6.72c-1.758-1.771-4.192-2.78-6.676-2.78
					c-2.483,0-4.918,1.01-6.676,2.78C1.794,367.479,0.79,369.929,0.79,372.429z"/>
				<path fill="#020305" d="M30.763,323.509c2.493,0,4.917-1.01,6.676-2.78c1.759-1.77,2.762-4.22,2.762-6.72
					s-1.003-4.95-2.762-6.71c-1.758-1.771-4.183-2.78-6.676-2.78c-2.474,0-4.908,1.01-6.676,2.78c-1.75,1.76-2.762,4.21-2.762,6.71
					s1.013,4.95,2.762,6.72C25.855,322.499,28.289,323.509,30.763,323.509z"/>
				<path fill="#020305" d="M59.136,293.939c2.484,0,4.918-1.02,6.677-2.78c1.758-1.779,2.761-4.22,2.761-6.72
					s-1.003-4.95-2.761-6.72c-1.759-1.77-4.183-2.78-6.677-2.78c-2.483,0-4.917,1.01-6.666,2.78c-1.758,1.77-2.772,4.22-2.772,6.72
					s1.014,4.94,2.772,6.72C54.22,292.919,56.653,293.939,59.136,293.939z"/>
				<path fill="#020305" d="M91.981,270.069c2.484,0,4.907-1.02,6.666-2.79c1.758-1.76,2.772-4.21,2.772-6.71
					s-1.014-4.95-2.772-6.72c-1.759-1.77-4.182-2.78-6.666-2.78s-4.918,1.01-6.677,2.78c-1.758,1.77-2.761,4.22-2.761,6.72
					s1.003,4.95,2.761,6.71C87.063,269.049,89.497,270.069,91.981,270.069z"/>
				<path fill="#020305" d="M11.201,257.209c1.75,1.77,4.183,2.78,6.666,2.78c2.484,0,4.918-1.01,6.677-2.78
					c1.758-1.77,2.772-4.22,2.772-6.72s-1.014-4.95-2.772-6.72c-1.759-1.76-4.193-2.78-6.677-2.78c-2.483,0-4.917,1.02-6.666,2.78
					c-1.758,1.77-2.772,4.22-2.772,6.72S9.444,255.439,11.201,257.209z"/>
				<path fill="#020305" d="M47.632,227.479c2.484,0,4.918-1.01,6.677-2.78c1.758-1.77,2.761-4.21,2.761-6.71
					c0-2.51-1.003-4.95-2.761-6.72c-1.759-1.77-4.193-2.78-6.677-2.78c-2.483,0-4.917,1.01-6.676,2.78
					c-1.748,1.77-2.762,4.22-2.762,6.72c0,2.49,1.014,4.94,2.762,6.71C42.715,226.469,45.148,227.479,47.632,227.479z"/>
				<path fill="#020305" d="M7.188,187.979c1.759-1.77,2.762-4.22,2.762-6.72s-1.003-4.95-2.762-6.72
					c-1.758-1.77-4.192-2.78-6.676-2.78c-0.171,0-0.341,0.016-0.512,0.026v18.948c0.171,0.01,0.341,0.026,0.512,0.026
					C2.996,190.759,5.43,189.749,7.188,187.979z"/>
				<path fill="#020305" d="M10.616,142.959c1.759-1.76,2.762-4.21,2.762-6.71s-1.003-4.95-2.762-6.72
					c-1.758-1.77-4.192-2.78-6.676-2.78c-1.369,0-2.712,0.314-3.94,0.881v17.23c1.23,0.571,2.576,0.888,3.94,0.888
					C6.424,145.749,8.858,144.729,10.616,142.959z"/>
				<path fill="#020305" d="M38.533,163.479c-1.759,1.76-2.762,4.21-2.762,6.71c0,2.51,1.003,4.96,2.762,6.72
					c1.758,1.77,4.192,2.78,6.676,2.78s4.918-1.01,6.676-2.78c1.759-1.77,2.762-4.21,2.762-6.72c0-2.5-1.003-4.95-2.762-6.71
					c-1.758-1.77-4.192-2.79-6.676-2.79S40.29,161.709,38.533,163.479z"/>
				<path fill="#020305" d="M88.066,149.819c2.474,0,4.908-1.02,6.666-2.78c1.759-1.77,2.772-4.22,2.772-6.72
					s-1.013-4.95-2.772-6.72c-1.758-1.77-4.183-2.78-6.666-2.78c-2.484,0-4.918,1.01-6.676,2.78c-1.759,1.77-2.762,4.22-2.762,6.72
					s1.003,4.95,2.762,6.72C83.148,148.799,85.582,149.819,88.066,149.819z"/>
				<path fill="#020305" d="M134.888,172.049c2.484,0,4.918-1.01,6.666-2.78c1.759-1.77,2.772-4.21,2.772-6.72
					c0-2.5-1.013-4.95-2.772-6.71c-1.748-1.77-4.182-2.78-6.666-2.78s-4.917,1.01-6.676,2.78c-1.758,1.76-2.762,4.21-2.762,6.71
					c0,2.51,1.004,4.95,2.762,6.72C129.971,171.039,132.404,172.049,134.888,172.049z"/>
				<path fill="#020305" d="M92.18,190.169c-2.483,0-4.918,1.02-6.677,2.79c-1.758,1.76-2.761,4.21-2.761,6.71
					s1.003,4.95,2.761,6.72c1.759,1.77,4.193,2.78,6.677,2.78c2.484,0,4.917-1.01,6.666-2.78c1.758-1.77,2.772-4.22,2.772-6.72
					c0-2.49-1.014-4.94-2.772-6.71C97.097,191.189,94.663,190.169,92.18,190.169z"/>
				<path fill="#020305" d="M128.65,104.889c0-2.5-1.004-4.95-2.762-6.72c-1.759-1.77-4.192-2.78-6.676-2.78
					c-2.483,0-4.918,1.01-6.677,2.78c-1.748,1.77-2.761,4.22-2.761,6.72s1.013,4.95,2.761,6.71c1.769,1.77,4.203,2.79,6.677,2.79
					c2.484,0,4.917-1.02,6.676-2.79C127.646,109.839,128.65,107.389,128.65,104.889z"/>
				<path fill="#020305" d="M38.512,46.299c-2.483,0-4.917,1.01-6.676,2.78c-1.748,1.77-2.762,4.22-2.762,6.72
					s1.014,4.95,2.762,6.72c1.758,1.77,4.192,2.78,6.676,2.78c2.484,0,4.918-1.01,6.676-2.78c1.759-1.77,2.762-4.22,2.762-6.72
					s-1.003-4.95-2.762-6.72C43.43,47.309,40.996,46.299,38.512,46.299z"/>
				<path fill="#020305" d="M1.128,33.569c0-1.578-0.397-3.127-1.128-4.5v8.99C0.731,36.687,1.128,35.14,1.128,33.569z"/>
				<path fill="#020305" d="M23.72,6.619c0,2.5,1.013,4.95,2.761,6.72c1.759,1.77,4.193,2.78,6.677,2.78
					c2.484,0,4.918-1.01,6.676-2.78c1.758-1.77,2.762-4.22,2.762-6.72s-1.004-4.95-2.762-6.72C39.506-0.431,39.149-0.725,38.779-1
					H27.536c-0.371,0.275-0.728,0.569-1.056,0.899C24.733,1.669,23.72,4.119,23.72,6.619z"/>
				<path fill="#020305" d="M82.612,6.249c-2.483,0-4.917,1.02-6.676,2.79c-1.758,1.76-2.762,4.21-2.762,6.71s1.004,4.95,2.762,6.72
					c1.759,1.77,4.192,2.78,6.676,2.78c2.484,0,4.918-1.01,6.677-2.78c1.749-1.77,2.761-4.22,2.761-6.72s-1.013-4.95-2.761-6.71
					C87.53,7.269,85.096,6.249,82.612,6.249z"/>
				<path fill="#020305" d="M92.279,53.899c-2.484,0-4.918,1.01-6.666,2.78c-1.759,1.76-2.772,4.21-2.772,6.72
					c0,2.5,1.013,4.95,2.772,6.71c1.758,1.77,4.192,2.79,6.666,2.79c2.484,0,4.918-1.02,6.676-2.79
					c1.759-1.77,2.762-4.21,2.762-6.71s-1.003-4.95-2.762-6.72C97.197,54.909,94.763,53.899,92.279,53.899z"/>
				<path fill="#020305" d="M127.894,43.169c2.484,0,4.918-1.01,6.677-2.78c1.758-1.77,2.761-4.22,2.761-6.72
					s-1.003-4.95-2.761-6.72c-1.759-1.77-4.193-2.78-6.677-2.78c-2.483,0-4.917,1.01-6.676,2.78c-1.748,1.77-2.762,4.22-2.762,6.72
					s1.014,4.95,2.762,6.72C122.977,42.159,125.41,43.169,127.894,43.169z"/>
				<path fill="#020305" d="M194.317,12.659c-2.493,0-4.917,1.01-6.676,2.78c-1.759,1.77-2.762,4.22-2.762,6.72
					s1.003,4.95,2.762,6.71c1.749,1.77,4.183,2.79,6.676,2.79c2.484,0,4.918-1.02,6.667-2.79c1.759-1.76,2.771-4.21,2.771-6.71
					s-1.013-4.95-2.771-6.72C199.225,13.669,196.801,12.659,194.317,12.659z"/>
				<path fill="#020305" d="M154.827,65.659c-2.483,0-4.917,1.01-6.676,2.78c-1.749,1.77-2.762,4.22-2.762,6.72
					s1.013,4.95,2.762,6.72c1.758,1.77,4.192,2.78,6.676,2.78c2.484,0,4.918-1.01,6.676-2.78c1.759-1.77,2.762-4.22,2.762-6.72
					s-1.003-4.95-2.762-6.72C159.745,66.669,157.311,65.659,154.827,65.659z"/>
				<path fill="#020305" d="M151.658,0.639c1.883,0,3.736-0.589,5.29-1.639h-10.578C147.922,0.05,149.775,0.639,151.658,0.639z"/>
				<path fill="#020305" d="M57.617,103.439c0-2.5-1.004-4.94-2.762-6.71c-1.759-1.77-4.192-2.79-6.666-2.79
					c-2.484,0-4.918,1.02-6.676,2.79c-1.759,1.77-2.772,4.21-2.772,6.71c0,2.51,1.013,4.96,2.772,6.72
					c1.758,1.77,4.192,2.79,6.676,2.79c2.483,0,4.907-1.02,6.666-2.79C56.613,108.389,57.617,105.949,57.617,103.439z"/>
				<path fill="#020305" d="M106.951,435.029c2.484,0,4.918-1.01,6.677-2.779c1.749-1.771,2.761-4.221,2.761-6.721
					s-1.013-4.949-2.761-6.71c-1.759-1.77-4.193-2.79-6.677-2.79c-2.483,0-4.917,1.021-6.676,2.79
					c-1.758,1.761-2.762,4.21-2.762,6.71s1.004,4.95,2.762,6.721C102.035,434.019,104.468,435.029,106.951,435.029z"/>
				<path fill="#020305" d="M59.832,398.309c2.484,0,4.918-1.02,6.666-2.79c1.759-1.77,2.772-4.21,2.772-6.71
					c0-2.51-1.013-4.96-2.772-6.72c-1.748-1.771-4.182-2.79-6.666-2.79c-2.483,0-4.918,1.02-6.676,2.79
					c-1.759,1.76-2.762,4.21-2.762,6.72c0,2.5,1.003,4.95,2.762,6.71C54.914,397.289,57.348,398.309,59.832,398.309z"/>
				<path fill="#020305" d="M69.926,337.079c-1.748-1.771-4.183-2.79-6.666-2.79c-2.493,0-4.928,1.02-6.676,2.79
					c-1.759,1.76-2.772,4.21-2.772,6.71s1.013,4.949,2.772,6.72c1.748,1.77,4.183,2.78,6.676,2.78c2.483,0,4.918-1.011,6.666-2.78
					c1.758-1.771,2.772-4.22,2.772-6.72S71.683,338.839,69.926,337.079z"/>
				<path fill="#020305" d="M104.528,387.238c2.474,0,4.907-1.02,6.666-2.79c1.758-1.76,2.772-4.21,2.772-6.71
					s-1.014-4.949-2.772-6.72c-1.759-1.77-4.183-2.78-6.666-2.78c-2.493,0-4.928,1.011-6.676,2.78
					c-1.759,1.771-2.762,4.22-2.762,6.72s1.003,4.95,2.762,6.71C99.61,386.219,102.044,387.238,104.528,387.238z"/>
				<path fill="#020305" d="M147.376,357.359c2.483,0,4.917-1.01,6.676-2.779c1.759-1.771,2.762-4.221,2.762-6.711
					c0-2.51-1.003-4.96-2.762-6.72c-1.758-1.77-4.192-2.78-6.676-2.78c-2.484,0-4.908,1.011-6.676,2.78
					c-1.75,1.771-2.762,4.21-2.762,6.72c0,2.49,1.013,4.94,2.762,6.711C142.468,356.349,144.892,357.359,147.376,357.359z"/>
				<path fill="#020305" d="M194.208,379.599c2.483,0,4.908-1.02,6.666-2.78c1.759-1.77,2.762-4.22,2.762-6.72
					s-1.003-4.95-2.762-6.72c-1.758-1.771-4.183-2.78-6.666-2.78c-2.493,0-4.928,1.01-6.676,2.78c-1.758,1.77-2.772,4.22-2.772,6.72
					s1.014,4.95,2.772,6.72C189.28,378.579,191.715,379.599,194.208,379.599z"/>
				<path fill="#020305" d="M151.489,397.719c-2.483,0-4.907,1.01-6.666,2.78c-1.758,1.77-2.761,4.22-2.761,6.72
					s1.003,4.95,2.761,6.72c1.759,1.76,4.183,2.78,6.666,2.78c2.484,0,4.918-1.021,6.677-2.78c1.758-1.77,2.771-4.22,2.771-6.72
					s-1.014-4.95-2.771-6.72C156.407,398.729,153.972,397.719,151.489,397.719z"/>
				<path fill="#020305" d="M185.207,319.149c1.749-1.77,2.762-4.22,2.762-6.72s-1.014-4.95-2.762-6.72
					c-1.759-1.761-4.192-2.78-6.676-2.78c-2.483,0-4.918,1.02-6.677,2.78c-1.758,1.77-2.761,4.22-2.761,6.72s1.003,4.95,2.761,6.72
					c1.759,1.771,4.193,2.78,6.677,2.78C181.015,321.929,183.449,320.919,185.207,319.149z"/>
				<path fill="#020305" d="M224.479,326.179c0-2.5-1.014-4.95-2.771-6.72c-1.75-1.771-4.183-2.78-6.677-2.78
					c-2.484,0-4.917,1.01-6.667,2.78c-1.758,1.77-2.761,4.22-2.761,6.72s1.003,4.95,2.761,6.72c1.75,1.76,4.183,2.78,6.667,2.78
					c2.494,0,4.927-1.021,6.677-2.78C223.466,331.129,224.479,328.679,224.479,326.179z"/>
				<path fill="#020305" d="M141.922,232.799c2.484,0,4.918-1.02,6.677-2.78c1.758-1.78,2.761-4.22,2.761-6.72
					s-1.003-4.95-2.761-6.72c-1.759-1.77-4.193-2.78-6.677-2.78c-2.483,0-4.907,1.01-6.666,2.78c-1.758,1.77-2.772,4.22-2.772,6.72
					s1.014,4.95,2.772,6.72C137.014,231.779,139.438,232.799,141.922,232.799z"/>
				<path fill="#020305" d="M151.598,261.439c-2.484,0-4.918,1.02-6.676,2.78c-1.759,1.78-2.762,4.22-2.762,6.72
					s1.003,4.95,2.762,6.72c1.758,1.77,4.192,2.78,6.676,2.78c2.483,0,4.918-1.01,6.676-2.78c1.759-1.77,2.762-4.22,2.762-6.72
					s-1.003-4.94-2.762-6.72C156.516,262.459,154.082,261.439,151.598,261.439z"/>
				<path fill="#020305" d="M177.776,241.219c0,2.5,1.004,4.94,2.762,6.71c1.759,1.77,4.192,2.79,6.676,2.79
					c2.484,0,4.918-1.02,6.677-2.79c1.749-1.76,2.761-4.21,2.761-6.71c0-2.51-1.013-4.95-2.761-6.72
					c-1.769-1.77-4.203-2.79-6.677-2.79c-2.483,0-4.917,1.02-6.676,2.79C178.78,236.269,177.776,238.719,177.776,241.219z"/>
				<path fill="#020305" d="M253.628,239.199c2.483,0,4.917-1.01,6.676-2.78c1.759-1.77,2.762-4.22,2.762-6.71
					c0-2.5-1.003-4.95-2.762-6.72c-1.758-1.77-4.192-2.78-6.676-2.78c-2.474,0-4.908,1.01-6.667,2.78
					c-1.759,1.77-2.771,4.22-2.771,6.72c0,2.49,1.013,4.94,2.771,6.71C248.72,238.189,251.154,239.199,253.628,239.199z"/>
				<path fill="#020305" d="M214.147,292.198c2.484,0,4.918-1.01,6.667-2.779c1.759-1.771,2.771-4.21,2.771-6.72
					c0-2.49-1.013-4.94-2.771-6.71c-1.758-1.77-4.183-2.79-6.667-2.79c-2.483,0-4.917,1.02-6.676,2.79
					c-1.759,1.77-2.762,4.22-2.762,6.71c0,2.51,1.003,4.95,2.762,6.72C209.229,291.189,211.663,292.198,214.147,292.198z"/>
				<path fill="#020305" d="M232.118,204.239c0-2.5-1.013-4.94-2.762-6.71c-1.758-1.77-4.192-2.79-6.676-2.79
					c-2.483,0-4.917,1.02-6.676,2.79c-1.759,1.77-2.762,4.21-2.762,6.71c0,2.51,1.003,4.96,2.762,6.72
					c1.758,1.77,4.192,2.79,6.676,2.79c2.484,0,4.908-1.02,6.676-2.79C231.106,209.199,232.118,206.749,232.118,204.239z"/>
				<path fill="#020305" d="M168.617,191.659c2.483,0,4.908-1.01,6.666-2.78c1.759-1.77,2.772-4.22,2.772-6.72
					s-1.013-4.95-2.772-6.72c-1.758-1.77-4.183-2.78-6.666-2.78c-2.484,0-4.918,1.01-6.676,2.78c-1.759,1.77-2.762,4.22-2.762,6.72
					s1.003,4.95,2.762,6.72C163.699,190.649,166.133,191.659,168.617,191.659z"/>
				<path fill="#020305" d="M171.746,113.149c-2.483,0-4.917,1.02-6.677,2.79c-1.758,1.76-2.761,4.21-2.761,6.72
					c0,2.5,1.003,4.94,2.761,6.71c1.75,1.77,4.183,2.78,6.677,2.78c2.484,0,4.918-1.01,6.667-2.78c1.758-1.77,2.761-4.21,2.761-6.71
					c0-2.51-1.003-4.96-2.761-6.72C176.653,114.169,174.23,113.149,171.746,113.149z"/>
				<path fill="#020305" d="M212.13,148.119c0-2.51-1.003-4.95-2.761-6.72c-1.759-1.77-4.193-2.78-6.677-2.78
					c-2.484,0-4.917,1.01-6.676,2.78c-1.758,1.76-2.762,4.21-2.762,6.72c0,2.49,1.004,4.94,2.762,6.71
					c1.759,1.77,4.192,2.79,6.676,2.79c2.483,0,4.918-1.02,6.677-2.79C211.127,153.059,212.13,150.609,212.13,148.119z"/>
				<path fill="#020305" d="M253.528,163.819c2.484,0,4.918-1.01,6.677-2.78c1.758-1.77,2.772-4.22,2.772-6.72
					s-1.014-4.95-2.772-6.72c-1.759-1.77-4.193-2.78-6.677-2.78c-2.473,0-4.907,1.01-6.666,2.78c-1.758,1.77-2.761,4.22-2.761,6.72
					s1.003,4.95,2.761,6.72C248.62,162.809,251.055,163.819,253.528,163.819z"/>
				<path fill="#020305" d="M238.428,103.219c1.758,1.77,4.192,2.78,6.676,2.78c2.484,0,4.918-1.01,6.676-2.78
					c1.759-1.77,2.762-4.22,2.762-6.72s-1.003-4.95-2.762-6.72c-1.758-1.76-4.192-2.77-6.676-2.77c-2.483,0-4.917,1.01-6.676,2.77
					c-1.749,1.77-2.762,4.22-2.762,6.72S236.679,101.449,238.428,103.219z"/>
				<path fill="#020305" d="M314.765,123.289c-1.748-1.77-4.183-2.79-6.666-2.79c-2.484,0-4.918,1.02-6.677,2.79
					c-1.758,1.77-2.761,4.21-2.761,6.71c0,2.51,1.003,4.95,2.761,6.72c1.759,1.77,4.193,2.78,6.677,2.78
					c2.483,0,4.918-1.01,6.666-2.78c1.758-1.77,2.772-4.21,2.772-6.72C317.537,127.509,316.523,125.059,314.765,123.289z"/>
				<path fill="#020305" d="M212.19,67.399c-1.749-1.77-4.183-2.78-6.666-2.78c-2.484,0-4.918,1.01-6.677,2.78
					c-1.758,1.77-2.761,4.22-2.761,6.72s1.003,4.95,2.761,6.72c1.759,1.77,4.193,2.78,6.677,2.78c2.483,0,4.917-1.01,6.666-2.78
					c1.758-1.77,2.771-4.22,2.771-6.72S213.948,69.169,212.19,67.399z"/>
				<path fill="#020305" d="M245.451,52.359c2.483,0,4.918-1.02,6.677-2.79c1.758-1.77,2.761-4.21,2.761-6.71
					s-1.003-4.95-2.761-6.72c-1.759-1.77-4.193-2.78-6.677-2.78c-2.484,0-4.918,1.01-6.676,2.78c-1.749,1.77-2.762,4.22-2.762,6.72
					s1.014,4.94,2.762,6.71C240.533,51.339,242.967,52.359,245.451,52.359z"/>
				<path fill="#020305" d="M98.061,310.988c0,2.5,1.013,4.95,2.772,6.721c1.758,1.77,4.182,2.779,6.666,2.779
					c2.483,0,4.917-1.01,6.676-2.779c1.758-1.771,2.762-4.221,2.762-6.721s-1.004-4.949-2.762-6.72
					c-1.759-1.77-4.192-2.78-6.676-2.78c-2.484,0-4.908,1.011-6.666,2.78C99.074,306.039,98.061,308.488,98.061,310.988z"/>
				<path fill="#020305" d="M293.396,83.519c1.758-1.77,2.761-4.22,2.761-6.72s-1.003-4.95-2.761-6.71
					c-1.759-1.77-4.193-2.79-6.677-2.79c-2.484,0-4.918,1.02-6.676,2.79c-1.759,1.76-2.762,4.21-2.762,6.71s1.003,4.95,2.762,6.72
					c1.758,1.77,4.192,2.78,6.676,2.78C289.203,86.299,291.638,85.289,293.396,83.519z"/>
				<path fill="#020305" d="M164.335,529.379c-2.483,0-4.917,1.02-6.666,2.79c-1.759,1.76-2.771,4.21-2.771,6.71
					s1.013,4.95,2.771,6.72c1.749,1.77,4.183,2.78,6.666,2.78c2.484,0,4.917-1.011,6.676-2.78c1.758-1.77,2.762-4.22,2.762-6.72
					s-1.004-4.95-2.762-6.71C169.252,530.399,166.819,529.379,164.335,529.379z"/>
				<path fill="#020305" d="M171.657,493.009c-1.759-1.771-4.193-2.78-6.677-2.78c-2.484,0-4.918,1.01-6.676,2.78
					c-1.749,1.76-2.762,4.21-2.762,6.72c0,2.5,1.014,4.95,2.762,6.71c1.758,1.771,4.192,2.79,6.676,2.79
					c2.483,0,4.917-1.02,6.677-2.79c1.758-1.77,2.761-4.21,2.761-6.71C174.418,497.219,173.415,494.769,171.657,493.009z"/>
				<path fill="#020305" d="M206.249,543.169c2.483,0,4.918-1.011,6.677-2.78c1.758-1.771,2.761-4.22,2.761-6.71
					c0-2.51-1.003-4.96-2.761-6.72c-1.759-1.771-4.193-2.79-6.677-2.79c-2.484,0-4.918,1.02-6.676,2.79
					c-1.749,1.76-2.762,4.21-2.762,6.72c0,2.49,1.014,4.939,2.762,6.71C201.331,542.158,203.765,543.169,206.249,543.169z"/>
				<path fill="#020305" d="M199.563,428.779c2.483,0,4.907-1.01,6.666-2.779c1.758-1.771,2.772-4.221,2.772-6.721
					s-1.014-4.949-2.772-6.72c-1.759-1.76-4.183-2.78-6.666-2.78c-2.495,0-4.918,1.021-6.677,2.78
					c-1.758,1.771-2.772,4.22-2.772,6.72s1.014,4.95,2.772,6.721C194.645,427.769,197.069,428.779,199.563,428.779z"/>
				<path fill="#020305" d="M243.653,388.738c2.483,0,4.918-1.02,6.676-2.79c1.759-1.77,2.762-4.21,2.762-6.72
					c0-2.5-1.003-4.939-2.762-6.71c-1.758-1.77-4.192-2.78-6.676-2.78c-2.484,0-4.918,1.011-6.676,2.78
					c-1.75,1.771-2.762,4.21-2.762,6.71c0,2.51,1.013,4.95,2.762,6.72C238.735,387.719,241.169,388.738,243.653,388.738z"/>
				<path fill="#020305" d="M243.892,426.879c0,2.489,1.003,4.939,2.761,6.71c1.759,1.77,4.193,2.79,6.677,2.79
					c2.483,0,4.907-1.021,6.666-2.79c1.758-1.771,2.771-4.221,2.771-6.71c0-2.5-1.014-4.95-2.771-6.721
					c-1.759-1.77-4.183-2.779-6.666-2.779c-2.484,0-4.918,1.01-6.677,2.779C244.895,421.929,243.892,424.379,243.892,426.879z"/>
				<path fill="#020305" d="M258.635,342.029c2.484,0,4.918-1.01,6.676-2.779c1.759-1.771,2.762-4.221,2.762-6.721
					s-1.003-4.939-2.762-6.71c-1.758-1.77-4.192-2.79-6.676-2.79c-2.483,0-4.918,1.021-6.666,2.79
					c-1.759,1.761-2.772,4.21-2.772,6.71s1.013,4.95,2.772,6.721C253.717,341.019,256.151,342.029,258.635,342.029z"/>
				<path fill="#020305" d="M282.905,278.589c0-2.5-1.003-4.95-2.762-6.72c-1.758-1.77-4.192-2.78-6.676-2.78
					c-2.483,0-4.917,1.01-6.666,2.78c-1.758,1.77-2.771,4.22-2.771,6.72s1.014,4.939,2.771,6.71c1.759,1.77,4.192,2.79,6.666,2.79
					c2.484,0,4.918-1.021,6.676-2.79C281.902,283.529,282.905,281.089,282.905,278.589z"/>
				<path fill="#020305" d="M304.423,313.549c2.484,0,4.907-1.01,6.667-2.78c1.758-1.77,2.762-4.22,2.762-6.72
					s-1.004-4.95-2.762-6.72c-1.749-1.771-4.183-2.78-6.667-2.78c-2.493,0-4.917,1.01-6.676,2.78c-1.759,1.77-2.771,4.22-2.771,6.72
					s1.013,4.95,2.771,6.72C299.506,312.539,301.94,313.549,304.423,313.549z"/>
				<path fill="#020305" d="M346.834,261.939c2.484,0,4.908-1.02,6.667-2.78c1.758-1.77,2.771-4.22,2.771-6.72
					s-1.013-4.95-2.771-6.72c-1.749-1.77-4.183-2.78-6.667-2.78c-2.493,0-4.917,1.01-6.676,2.78c-1.758,1.77-2.762,4.22-2.762,6.72
					s1.004,4.95,2.762,6.72C341.917,260.919,344.341,261.939,346.834,261.939z"/>
				<path fill="#020305" d="M307.244,220.549c-2.474,0-4.907,1.02-6.666,2.79c-1.758,1.77-2.772,4.21-2.772,6.71
					s1.014,4.95,2.772,6.72c1.759,1.77,4.192,2.78,6.666,2.78c2.484,0,4.918-1.01,6.676-2.78c1.759-1.76,2.762-4.21,2.762-6.72
					c0-2.5-1.003-4.95-2.762-6.71C312.162,221.569,309.728,220.549,307.244,220.549z"/>
				<path fill="#020305" d="M368.174,197.099c0-2.5-1.003-4.95-2.762-6.72c-1.758-1.76-4.192-2.78-6.676-2.78
					c-2.484,0-4.918,1.02-6.676,2.78c-1.75,1.77-2.762,4.22-2.762,6.72s1.013,4.95,2.762,6.72c1.758,1.77,4.192,2.78,6.676,2.78
					c2.483,0,4.918-1.01,6.676-2.78C367.171,202.049,368.174,199.599,368.174,197.099z"/>
				<path fill="#020305" d="M365.909,143.979c-1.758-1.76-4.192-2.78-6.676-2.78s-4.908,1.02-6.666,2.78
					c-1.759,1.77-2.772,4.22-2.772,6.72s1.013,4.95,2.772,6.72c1.758,1.77,4.182,2.78,6.666,2.78s4.918-1.01,6.676-2.78
					c1.759-1.77,2.762-4.22,2.762-6.72S367.667,145.749,365.909,143.979z"/>
				<path fill="#020305" d="M209.229,457.419c-2.484,0-4.918,1.02-6.676,2.79c-1.759,1.77-2.762,4.21-2.762,6.71
					s1.003,4.949,2.762,6.72c1.758,1.77,4.192,2.78,6.676,2.78c2.483,0,4.917-1.011,6.677-2.78c1.758-1.771,2.761-4.22,2.761-6.72
					s-1.003-4.94-2.761-6.71C214.138,458.439,211.713,457.419,209.229,457.419z"/>
				<path fill="#020305" d="M359.343,23.919c2.483,0,4.907-1.01,6.666-2.78c1.758-1.77,2.771-4.22,2.771-6.72
					s-1.014-4.95-2.771-6.72c-1.759-1.76-4.183-2.78-6.666-2.78c-2.484,0-4.918,1.02-6.677,2.78c-1.758,1.77-2.761,4.22-2.761,6.72
					s1.003,4.95,2.761,6.72C354.425,22.909,356.859,23.919,359.343,23.919z"/>
				<path fill="#020305" d="M395.713,55.909c0-2.5-1.013-4.94-2.772-6.71c-1.758-1.77-4.183-2.79-6.666-2.79
					c-2.484,0-4.918,1.02-6.676,2.79c-1.758,1.76-2.762,4.21-2.762,6.71s1.004,4.95,2.762,6.72c1.758,1.77,4.192,2.78,6.676,2.78
					c2.483,0,4.917-1.01,6.666-2.78C394.7,60.859,395.713,58.409,395.713,55.909z"/>
				<path fill="#020305" d="M403.065,5.609c1.758,1.77,4.182,2.78,6.666,2.78c2.483,0,4.918-1.01,6.676-2.78
					c1.733-1.744,2.727-4.148,2.756-6.609h-18.855C400.337,1.461,401.332,3.865,403.065,5.609z"/>
				<path fill="#020305" d="M62.713,493.319c0-2.5-1.004-4.95-2.762-6.72c-1.758-1.77-4.182-2.78-6.676-2.78
					c-2.483,0-4.908,1.011-6.666,2.78c-1.553,1.563-2.522,3.656-2.728,5.846l16.043,7.619c0.008-0.008,0.018-0.016,0.026-0.024
					C61.709,498.269,62.713,495.819,62.713,493.319z"/>
				<path fill="#020305" d="M113.847,488.529c2.484,0,4.908-1.01,6.667-2.779c1.759-1.771,2.771-4.221,2.771-6.721
					s-1.013-4.949-2.771-6.72c-1.758-1.77-4.183-2.78-6.667-2.78c-2.483,0-4.917,1.011-6.676,2.78
					c-1.759,1.771-2.762,4.22-2.762,6.72s1.003,4.95,2.762,6.721C108.929,487.519,111.363,488.529,113.847,488.529z"/>
				<path fill="#020305" d="M61.014,456.269c2.493,0,4.928-1.01,6.676-2.78c1.758-1.77,2.762-4.22,2.762-6.72
					s-1.004-4.95-2.762-6.72c-1.759-1.771-4.192-2.78-6.676-2.78c-2.474,0-4.908,1.01-6.666,2.78c-1.759,1.77-2.762,4.22-2.762,6.72
					s1.003,4.95,2.762,6.72C56.106,455.259,58.531,456.269,61.014,456.269z"/>
				<path fill="#020305" d="M346.864,76.619c1.759-1.76,2.762-4.21,2.762-6.71s-1.003-4.95-2.762-6.72
					c-1.758-1.77-4.183-2.78-6.676-2.78c-2.484,0-4.918,1.01-6.667,2.78c-1.759,1.77-2.771,4.22-2.771,6.72s1.013,4.95,2.771,6.71
					c1.749,1.77,4.183,2.78,6.667,2.78C342.681,79.399,345.106,78.389,346.864,76.619z"/>
				<path fill="#020305" d="M376.41,104.149c0-2.5-1.003-4.95-2.762-6.72c-1.758-1.77-4.192-2.78-6.676-2.78
					c-2.484,0-4.908,1.01-6.666,2.78c-1.759,1.77-2.772,4.22-2.772,6.72s1.013,4.95,2.772,6.72c1.758,1.77,4.182,2.78,6.666,2.78
					c2.483,0,4.917-1.01,6.676-2.78C375.407,109.099,376.41,106.649,376.41,104.149z"/>
				<path fill="#020305" d="M148.22,468.979c2.484,0,4.918-1.02,6.667-2.78c1.759-1.77,2.771-4.22,2.771-6.72
					s-1.013-4.95-2.771-6.72c-1.749-1.771-4.183-2.78-6.667-2.78c-2.483,0-4.917,1.01-6.676,2.78c-1.758,1.77-2.762,4.22-2.762,6.72
					s1.004,4.95,2.762,6.72C143.304,467.959,145.737,468.979,148.22,468.979z"/>
				<path fill="#020305" d="M296.038,187.589c2.484,0,4.918-1.01,6.677-2.78c1.758-1.77,2.761-4.22,2.761-6.72
					s-1.003-4.94-2.761-6.72c-1.759-1.76-4.193-2.78-6.677-2.78c-2.483,0-4.907,1.02-6.676,2.78c-1.748,1.78-2.762,4.22-2.762,6.72
					s1.014,4.95,2.762,6.72C291.131,186.579,293.565,187.589,296.038,187.589z"/>
				<path fill="#020305" d="M288.607,36.969c2.484,0,4.918-1.01,6.676-2.78c1.759-1.77,2.762-4.22,2.762-6.72
					s-1.003-4.94-2.762-6.71c-1.758-1.77-4.192-2.79-6.676-2.79c-2.483,0-4.917,1.02-6.676,2.79c-1.759,1.76-2.762,4.21-2.762,6.71
					s1.003,4.95,2.762,6.72C283.69,35.959,286.124,36.969,288.607,36.969z"/>
				<path fill="#020305" d="M467.788,95.499c-1.758-1.77-4.192-2.78-6.666-2.78c-2.484,0-4.917,1.01-6.676,2.78
					c-1.758,1.77-2.762,4.22-2.762,6.72s1.004,4.95,2.762,6.71c1.759,1.77,4.192,2.79,6.676,2.79c0.983,0,1.956-0.166,2.883-0.469
					l5.906-12.449C469.437,97.572,468.722,96.438,467.788,95.499z"/>
				<path fill="#020305" d="M353.659,339.089c0,1.173,0.229,2.332,0.645,3.418l5.907-12.452c-1.417,0.459-2.728,1.245-3.79,2.314
					C354.663,334.139,353.659,336.579,353.659,339.089z"/>
				<path fill="#020305" d="M12.016,468.868c2.474,0,4.908-1.01,6.666-2.779c1.759-1.771,2.772-4.21,2.772-6.721
					c0-2.5-1.013-4.949-2.772-6.71c-1.748-1.77-4.182-2.779-6.666-2.779c-2.493,0-4.928,1.01-6.676,2.779
					c-1.759,1.761-2.762,4.21-2.762,6.71c0,2.511,1.003,4.95,2.762,6.721C7.098,467.859,9.533,468.868,12.016,468.868z"/>
				<path fill="#020305" d="M478.578,25.669c-2.484,0-4.918,1.02-6.667,2.78c-1.758,1.77-2.771,4.22-2.771,6.72
					c0,2.51,1.014,4.95,2.771,6.72c1.759,1.77,4.183,2.78,6.667,2.78c2.483,0,4.917-1.01,6.676-2.78
					c1.759-1.77,2.762-4.21,2.762-6.72c0-2.5-1.003-4.95-2.762-6.72C483.495,26.689,481.061,25.669,478.578,25.669z"/>
				<path fill="#020305" d="M417.37,79.119c-2.484,0-4.917,1.01-6.676,2.78c-1.749,1.77-2.762,4.21-2.762,6.72
					c0,2.5,1.014,4.95,2.762,6.72c1.759,1.76,4.192,2.78,6.676,2.78c2.483,0,4.918-1.01,6.677-2.78
					c1.758-1.77,2.761-4.22,2.761-6.72s-1.003-4.95-2.761-6.72C422.288,80.129,419.853,79.119,417.37,79.119z"/>
				<path fill="#020305" d="M50.424,531.469c-1.759,1.77-2.762,4.21-2.762,6.72c0,2.49,1.003,4.94,2.762,6.71
					c1.758,1.771,4.192,2.79,6.676,2.79c2.483,0,4.918-1.02,6.666-2.79c1.759-1.77,2.772-4.22,2.772-6.71
					c0-2.51-1.013-4.95-2.772-6.72c-1.748-1.771-4.183-2.79-6.666-2.79C54.616,528.679,52.182,529.698,50.424,531.469z"/>
				<path fill="#020305" d="M6.463,506.069c0-2.5-1.003-4.95-2.762-6.71c-1.041-1.047-2.317-1.824-3.701-2.29v18.003
					c1.383-0.463,2.662-1.236,3.701-2.282C5.46,511.019,6.463,508.569,6.463,506.069z"/>
				<path fill="#020305" d="M104.041,531.819c-1.758,1.761-2.762,4.21-2.762,6.71s1.004,4.95,2.762,6.721
					c1.759,1.77,4.192,2.779,6.676,2.779c2.483,0,4.917-1.01,6.677-2.779c1.758-1.771,2.761-4.221,2.761-6.721
					s-1.003-4.939-2.761-6.71c-1.759-1.77-4.193-2.79-6.677-2.79C108.233,529.029,105.8,530.049,104.041,531.819z"/>
				<path fill="#020305" d="M9.632,564.609c2.484,0,4.908-1.02,6.666-2.79c1.759-1.77,2.772-4.21,2.772-6.71s-1.013-4.95-2.772-6.72
					c-1.758-1.771-4.182-2.79-6.666-2.79c-2.483,0-4.917,1.02-6.676,2.79c-1.758,1.77-2.762,4.22-2.762,6.72s1.004,4.94,2.762,6.71
					C4.715,563.589,7.148,564.609,9.632,564.609z"/>
				<path fill="#020305" d="M43.838,493.319c0,2.5,1.013,4.95,2.771,6.721c1.758,1.77,4.183,2.779,6.666,2.779
					c2.472,0,4.894-1.001,6.65-2.755l-16.043-7.619C43.854,492.735,43.838,493.026,43.838,493.319z"/>
			</g>
		</g>
	</g>
</g>
<g id="Ebene_2">
</g>
</svg>
