<svg xmlns="http://www.w3.org/2000/svg" xmlns:xlink="http://www.w3.org/1999/xlink" width="566.93" height="566.93" viewBox="0 0 566.93 566.93"><pattern x="-6756.727" width="72.001" height="72" patternUnits="userSpaceOnUse" viewBox="3.254 -72.212 72.001 72" overflow="visible"><path fill="none" d="M3.254-72.212h72v72h-72z"/><defs><path id="a" d="M3.254-72.212h72v72h-72z"/></defs><clipPath id="b"><use xlink:href="#a" overflow="visible"/></clipPath><path clip-path="url(#b)" fill="none" stroke="#010202" stroke-width=".3" stroke-linecap="square" stroke-linejoin="bevel" d="M3.254-.212l72-72M.253-3.21l69.002-69.002M.25-9.207l63.004-63.005M.245-15.203l57.01-57.01M.24-21.2L51.256-72.21M.238-27.197l45.016-45.016M.234-33.193l39.02-39.02M.23-39.188l33.024-33.024M.227-45.184l27.027-27.028M.223-51.18l21.03-21.032M.22-57.177l15.034-15.035M.215-63.173l9.04-9.04M.212-69.17l3.042-3.042M9.254-.212l69.002-69.002M15.254-.212L78.26-63.218M21.254-.212l57.01-57.01M27.254-.212l51.013-51.013M33.254-.212L78.27-45.23M39.254-.212l39.02-39.02M45.254-.212l33.024-33.025M51.255-.212L78.282-27.24M57.255-.212l21.03-21.032M63.255-.212L78.29-15.248M69.255-.212l9.038-9.04M75.255-.212l3.043-3.043M75.255-.212l-72-72M69.255-.212L.253-69.214M63.255-.212L.25-63.218M57.255-.212L.245-57.222M51.255-.212L.24-51.226M45.254-.212L.238-45.23M39.254-.212L.234-39.232M33.254-.212L.23-33.237M27.254-.212L.227-27.242M21.254-.212L.224-21.244M15.254-.212L.22-15.248M9.254-.212l-9.04-9.04M3.254-.212L.212-3.256M78.256-3.21L9.254-72.213M78.26-9.207L15.255-72.212M78.263-15.203l-57.01-57.01M78.267-21.2L27.254-72.21M78.27-27.197L33.254-72.213M78.274-33.193l-39.02-39.02M78.278-39.188L45.254-72.212M78.282-45.185L51.255-72.212M78.285-51.18l-21.03-21.032M78.29-57.177L63.254-72.212M78.293-63.173l-9.038-9.04M78.298-69.17l-3.043-3.042"/></pattern><g><defs><path id="c" d="M0 0h568.662v568.662H0z"/></defs><clipPath id="d"><use xlink:href="#c" overflow="visible"/></clipPath><path clip-path="url(#d)" fill="url(#SVGID_10_)" d="M0 0h568.662v568.662H0z"/></g></svg>