<?xml version="1.0" encoding="utf-8"?>
<!-- Generator: Adobe Illustrator 17.1.0, SVG Export Plug-In . SVG Version: 6.00 Build 0)  -->
<!DOCTYPE svg PUBLIC "-//W3C//DTD SVG 1.1//EN" "http://www.w3.org/Graphics/SVG/1.1/DTD/svg11.dtd">
<svg version="1.1" xmlns="http://www.w3.org/2000/svg" xmlns:xlink="http://www.w3.org/1999/xlink" x="0px" y="0px"
	 width="566.93px" height="566.93px" viewBox="0 0 566.93 566.93" enable-background="new 0 0 566.93 566.93" xml:space="preserve">
<g id="Ebene_1">
	<circle fill="#010202" cx="205.154" cy="35.354" r="8.09"/>
	<path fill="#010202" d="M205.154,62.657c-4.471,0-8.094,3.619-8.094,8.09c0,4.468,3.622,8.09,8.094,8.09
		c4.468,0,8.087-3.622,8.087-8.09C213.242,66.275,209.622,62.657,205.154,62.657z"/>
	<path fill="#010202" d="M205.154,239.617c-4.471,0-8.094,3.622-8.094,8.094c0,4.468,3.622,8.09,8.094,8.09
		c4.468,0,8.087-3.622,8.087-8.09C213.242,243.24,209.622,239.617,205.154,239.617z"/>
	<path fill="#010202" d="M205.154,98.047c-4.471,0-8.094,3.622-8.094,8.09c0,4.472,3.622,8.09,8.094,8.09
		c4.468,0,8.087-3.619,8.087-8.09C213.242,101.669,209.622,98.047,205.154,98.047z"/>
	<circle fill="#010202" cx="205.154" cy="212.316" r="8.092"/>
	<circle fill="#010202" cx="205.154" cy="141.532" r="8.092"/>
	<path fill="#010202" d="M205.154,168.834c-4.471,0-8.094,3.619-8.094,8.087c0,4.475,3.622,8.097,8.094,8.097
		c4.468,0,8.087-3.622,8.087-8.097C213.242,172.453,209.622,168.834,205.154,168.834z"/>
	<path fill="#010202" d="M246.204,487.365c-4.468,0-8.09,3.626-8.09,8.09c0,4.472,3.622,8.09,8.09,8.09s8.087-3.619,8.087-8.09
		C254.291,490.991,250.672,487.365,246.204,487.365z"/>
	<path fill="#010202" d="M246.204,558.298c-4.468,0-8.09,3.619-8.09,8.09c0,0.167,0.014,0.326,0.024,0.489h16.132
		c0.011-0.163,0.021-0.322,0.021-0.489C254.291,561.917,250.672,558.298,246.204,558.298z"/>
	<path fill="#010202" d="M246.204,310.401c-4.468,0-8.09,3.626-8.09,8.094c0,4.468,3.622,8.09,8.09,8.09s8.087-3.623,8.087-8.09
		C254.291,314.027,250.672,310.401,246.204,310.401z"/>
	<path fill="#010202" d="M246.204,275.011c-4.468,0-8.09,3.622-8.09,8.094c0,4.468,3.622,8.09,8.09,8.09s8.087-3.622,8.087-8.09
		C254.291,278.633,250.672,275.011,246.204,275.011z"/>
	<path fill="#010202" d="M246.204,345.798c-4.468,0-8.09,3.619-8.09,8.09c0,4.468,3.622,8.09,8.09,8.09s8.087-3.622,8.087-8.09
		C254.291,349.417,250.672,345.798,246.204,345.798z"/>
	<path fill="#010202" d="M246.204,239.617c-4.468,0-8.09,3.622-8.09,8.094c0,4.468,3.622,8.09,8.09,8.09s8.087-3.622,8.087-8.09
		C254.291,243.24,250.672,239.617,246.204,239.617z"/>
	<circle fill="#010202" cx="246.204" cy="424.672" r="8.09"/>
	<path fill="#010202" d="M246.204,381.191c-4.468,0-8.09,3.619-8.09,8.087c0,4.472,3.622,8.09,8.09,8.09s8.087-3.619,8.087-8.09
		C254.291,384.81,250.672,381.191,246.204,381.191z"/>
	<circle fill="#010202" cx="246.204" cy="460.065" r="8.09"/>
	<path fill="#010202" d="M246.204,522.758c-4.468,0-8.09,3.619-8.09,8.09c0,4.468,3.622,8.091,8.09,8.091s8.087-3.622,8.087-8.091
		C254.291,526.377,250.672,522.758,246.204,522.758z"/>
	<circle fill="#010202" cx="205.154" cy="424.672" r="8.09"/>
	<path fill="#010202" d="M164.101,168.834c-4.468,0-8.09,3.619-8.09,8.087c0,4.475,3.622,8.097,8.09,8.097s8.091-3.622,8.091-8.097
		C172.192,172.453,168.569,168.834,164.101,168.834z"/>
	<circle fill="#010202" cx="164.101" cy="141.532" r="8.092"/>
	<circle fill="#010202" cx="164.101" cy="35.354" r="8.09"/>
	<path fill="#010202" d="M164.101,62.657c-4.468,0-8.09,3.619-8.09,8.09c0,4.468,3.622,8.09,8.09,8.09s8.091-3.622,8.091-8.09
		C172.192,66.275,168.569,62.657,164.101,62.657z"/>
	<path fill="#010202" d="M205.154,275.011c-4.471,0-8.094,3.622-8.094,8.094c0,4.468,3.622,8.09,8.094,8.09
		c4.468,0,8.087-3.622,8.087-8.09C213.242,278.633,209.622,275.011,205.154,275.011z"/>
	<circle fill="#010202" cx="164.101" cy="283.103" r="8.092"/>
	<circle fill="#010202" cx="164.101" cy="212.316" r="8.092"/>
	<circle fill="#010202" cx="164.101" cy="247.709" r="8.092"/>
	<path fill="#010202" d="M164.101,98.047c-4.468,0-8.09,3.622-8.09,8.09c0,4.472,3.622,8.09,8.09,8.09s8.091-3.619,8.091-8.09
		C172.192,101.669,168.569,98.047,164.101,98.047z"/>
	<circle fill="#010202" cx="246.204" cy="212.316" r="8.092"/>
	<path fill="#010202" d="M205.154,381.191c-4.471,0-8.094,3.619-8.094,8.087c0,4.472,3.622,8.09,8.094,8.09
		c4.468,0,8.087-3.619,8.087-8.09C213.242,384.81,209.622,381.191,205.154,381.191z"/>
	<path fill="#010202" d="M328.306,27.263c-4.471,0-8.094,3.622-8.094,8.09c0,4.468,3.622,8.09,8.094,8.09
		c4.465,0,8.09-3.622,8.09-8.09C336.397,30.886,332.771,27.263,328.306,27.263z"/>
	<path fill="#010202" d="M205.154,310.401c-4.471,0-8.094,3.626-8.094,8.094c0,4.468,3.622,8.09,8.094,8.09
		c4.468,0,8.087-3.623,8.087-8.09C213.242,314.027,209.622,310.401,205.154,310.401z"/>
	<path fill="#010202" d="M205.154,558.298c-4.471,0-8.094,3.619-8.094,8.09c0,0.167,0.014,0.326,0.024,0.489h16.136
		c0.007-0.163,0.021-0.322,0.021-0.489C213.242,561.917,209.622,558.298,205.154,558.298z"/>
	<circle fill="#010202" cx="205.154" cy="460.065" r="8.09"/>
	<path fill="#010202" d="M205.154,487.365c-4.471,0-8.094,3.626-8.094,8.09c0,4.472,3.622,8.09,8.094,8.09
		c4.468,0,8.087-3.619,8.087-8.09C213.242,490.991,209.622,487.365,205.154,487.365z"/>
	<path fill="#010202" d="M205.154,522.758c-4.471,0-8.094,3.619-8.094,8.09c0,4.468,3.622,8.091,8.094,8.091
		c4.468,0,8.087-3.622,8.087-8.091C213.242,526.377,209.622,522.758,205.154,522.758z"/>
	<path fill="#010202" d="M328.306,133.44c-4.471,0-8.094,3.623-8.094,8.09c0,4.468,3.622,8.094,8.094,8.094
		c4.465,0,8.09-3.626,8.09-8.094C336.397,137.063,332.771,133.44,328.306,133.44z"/>
	<path fill="#010202" d="M328.306,522.758c-4.471,0-8.094,3.619-8.094,8.09c0,4.468,3.622,8.091,8.094,8.091
		c4.465,0,8.09-3.622,8.09-8.091C336.397,526.377,332.771,522.758,328.306,522.758z"/>
	<path fill="#010202" d="M328.306,416.581c-4.471,0-8.094,3.622-8.094,8.09s3.622,8.09,8.094,8.09c4.465,0,8.09-3.622,8.09-8.09
		S332.771,416.581,328.306,416.581z"/>
	<path fill="#010202" d="M328.306,451.975c-4.471,0-8.094,3.622-8.094,8.09c0,4.468,3.622,8.09,8.094,8.09
		c4.465,0,8.09-3.622,8.09-8.09C336.397,455.597,332.771,451.975,328.306,451.975z"/>
	<path fill="#010202" d="M287.253,98.047c-4.468,0-8.09,3.622-8.09,8.09c0,4.472,3.622,8.09,8.09,8.09s8.094-3.619,8.094-8.09
		C295.347,101.669,291.722,98.047,287.253,98.047z"/>
	<path fill="#010202" d="M287.253,62.657c-4.468,0-8.09,3.619-8.09,8.09c0,4.468,3.622,8.09,8.09,8.09s8.094-3.622,8.094-8.09
		C295.347,66.275,291.722,62.657,287.253,62.657z"/>
	<circle fill="#010202" cx="287.253" cy="35.354" r="8.09"/>
	<path fill="#010202" d="M328.306,345.798c-4.471,0-8.094,3.619-8.094,8.09c0,4.468,3.622,8.09,8.094,8.09
		c4.465,0,8.09-3.622,8.09-8.09C336.397,349.417,332.771,345.798,328.306,345.798z"/>
	<path fill="#010202" d="M328.306,558.298c-4.471,0-8.094,3.619-8.094,8.09c0,0.167,0.014,0.326,0.024,0.489h16.136
		c0.01-0.163,0.024-0.322,0.024-0.489C336.397,561.917,332.771,558.298,328.306,558.298z"/>
	<path fill="#010202" d="M328.306,487.365c-4.471,0-8.094,3.626-8.094,8.09c0,4.472,3.622,8.09,8.094,8.09
		c4.465,0,8.09-3.619,8.09-8.09C336.397,490.991,332.771,487.365,328.306,487.365z"/>
	<path fill="#010202" d="M328.306,381.191c-4.471,0-8.094,3.619-8.094,8.087c0,4.472,3.622,8.09,8.094,8.09
		c4.465,0,8.09-3.619,8.09-8.09C336.397,384.81,332.771,381.191,328.306,381.191z"/>
	<path fill="#010202" d="M328.306,98.047c-4.471,0-8.094,3.622-8.094,8.09c0,4.472,3.622,8.09,8.094,8.09
		c4.465,0,8.09-3.619,8.09-8.09C336.397,101.669,332.771,98.047,328.306,98.047z"/>
	<path fill="#010202" d="M328.306,310.401c-4.471,0-8.094,3.626-8.094,8.094c0,4.468,3.622,8.09,8.094,8.09
		c4.465,0,8.09-3.623,8.09-8.09C336.397,314.027,332.771,310.401,328.306,310.401z"/>
	<circle fill="#010202" cx="164.101" cy="318.493" r="8.092"/>
	<path fill="#010202" d="M328.306,62.657c-4.471,0-8.094,3.619-8.094,8.09c0,4.468,3.622,8.09,8.094,8.09
		c4.465,0,8.09-3.622,8.09-8.09C336.397,66.275,332.771,62.657,328.306,62.657z"/>
	<path fill="#010202" d="M328.306,168.834c-4.471,0-8.094,3.619-8.094,8.087c0,4.475,3.622,8.097,8.094,8.097
		c4.465,0,8.09-3.622,8.09-8.097C336.397,172.453,332.771,168.834,328.306,168.834z"/>
	<path fill="#010202" d="M328.306,204.224c-4.471,0-8.094,3.622-8.094,8.09c0,4.472,3.622,8.094,8.094,8.094
		c4.465,0,8.09-3.622,8.09-8.094C336.397,207.846,332.771,204.224,328.306,204.224z"/>
	<path fill="#010202" d="M328.306,275.011c-4.471,0-8.094,3.622-8.094,8.094c0,4.468,3.622,8.09,8.094,8.09
		c4.465,0,8.09-3.622,8.09-8.09C336.397,278.633,332.771,275.011,328.306,275.011z"/>
	<path fill="#010202" d="M328.306,239.617c-4.471,0-8.094,3.622-8.094,8.094c0,4.468,3.622,8.09,8.094,8.09
		c4.465,0,8.09-3.622,8.09-8.09C336.397,243.24,332.771,239.617,328.306,239.617z"/>
	<path fill="#010202" d="M287.253,558.298c-4.468,0-8.09,3.619-8.09,8.09c0,0.167,0.014,0.326,0.024,0.489h16.132
		c0.007-0.163,0.028-0.322,0.028-0.489C295.347,561.917,291.722,558.298,287.253,558.298z"/>
	<path fill="#010202" d="M287.253,487.365c-4.468,0-8.09,3.626-8.09,8.09c0,4.472,3.622,8.09,8.09,8.09s8.094-3.619,8.094-8.09
		C295.347,490.991,291.722,487.365,287.253,487.365z"/>
	<circle fill="#010202" cx="246.204" cy="35.354" r="8.09"/>
	<path fill="#010202" d="M246.204,168.834c-4.468,0-8.09,3.619-8.09,8.087c0,4.475,3.622,8.097,8.09,8.097s8.087-3.622,8.087-8.097
		C254.291,172.453,250.672,168.834,246.204,168.834z"/>
	<circle fill="#010202" cx="287.253" cy="460.065" r="8.09"/>
	<path fill="#010202" d="M287.253,522.758c-4.468,0-8.09,3.619-8.09,8.09c0,4.468,3.622,8.091,8.09,8.091s8.094-3.622,8.094-8.091
		C295.347,526.377,291.722,522.758,287.253,522.758z"/>
	<circle fill="#010202" cx="246.204" cy="141.532" r="8.092"/>
	<path fill="#010202" d="M246.204,62.657c-4.468,0-8.09,3.619-8.09,8.09c0,4.468,3.622,8.09,8.09,8.09s8.087-3.622,8.087-8.09
		C254.291,66.275,250.672,62.657,246.204,62.657z"/>
	<path fill="#010202" d="M246.204,98.047c-4.468,0-8.09,3.622-8.09,8.09c0,4.472,3.622,8.09,8.09,8.09s8.087-3.619,8.087-8.09
		C254.291,101.669,250.672,98.047,246.204,98.047z"/>
	<path fill="#010202" d="M287.253,133.44c-4.468,0-8.09,3.623-8.09,8.09c0,4.468,3.622,8.094,8.09,8.094s8.094-3.626,8.094-8.094
		C295.347,137.063,291.722,133.44,287.253,133.44z"/>
	<circle fill="#010202" cx="287.253" cy="247.709" r="8.092"/>
	<path fill="#010202" d="M287.253,204.224c-4.468,0-8.09,3.622-8.09,8.09c0,4.472,3.622,8.094,8.09,8.094s8.094-3.622,8.094-8.094
		C295.347,207.846,291.722,204.224,287.253,204.224z"/>
	<circle fill="#010202" cx="287.253" cy="283.103" r="8.092"/>
	<path fill="#010202" d="M287.253,168.834c-4.468,0-8.09,3.619-8.09,8.087c0,4.475,3.622,8.097,8.09,8.097s8.094-3.622,8.094-8.097
		C295.347,172.453,291.722,168.834,287.253,168.834z"/>
	<circle fill="#010202" cx="287.253" cy="318.493" r="8.092"/>
	<path fill="#010202" d="M287.253,381.191c-4.468,0-8.09,3.619-8.09,8.087c0,4.472,3.622,8.09,8.09,8.09s8.094-3.619,8.094-8.09
		C295.347,384.81,291.722,381.191,287.253,381.191z"/>
	<circle fill="#010202" cx="287.253" cy="424.672" r="8.09"/>
	<path fill="#010202" d="M287.253,345.798c-4.468,0-8.09,3.619-8.09,8.09c0,4.468,3.622,8.09,8.09,8.09s8.094-3.622,8.094-8.09
		C295.347,349.417,291.722,345.798,287.253,345.798z"/>
	<path fill="#010202" d="M205.154,345.798c-4.471,0-8.094,3.619-8.094,8.09c0,4.468,3.622,8.09,8.094,8.09
		c4.468,0,8.087-3.622,8.087-8.09C213.242,349.417,209.622,345.798,205.154,345.798z"/>
	<path fill="#010202" d="M40.949,345.798c-4.468,0-8.09,3.619-8.09,8.09c0,4.468,3.622,8.09,8.09,8.09s8.091-3.622,8.091-8.09
		C49.04,349.417,45.417,345.798,40.949,345.798z"/>
	<path fill="#010202" d="M40.949,381.191c-4.468,0-8.09,3.619-8.09,8.087c0,4.472,3.622,8.09,8.09,8.09s8.091-3.619,8.091-8.09
		C49.04,384.81,45.417,381.191,40.949,381.191z"/>
	<circle fill="#010202" cx="40.949" cy="318.493" r="8.092"/>
	<circle fill="#010202" cx="40.949" cy="283.103" r="8.092"/>
	<circle fill="#010202" cx="40.949" cy="424.672" r="8.09"/>
	<circle fill="#010202" cx="40.949" cy="247.709" r="8.092"/>
	<path fill="#010202" d="M40.949,487.365c-4.468,0-8.09,3.626-8.09,8.09c0,4.472,3.622,8.09,8.09,8.09s8.091-3.619,8.091-8.09
		C49.04,490.991,45.417,487.365,40.949,487.365z"/>
	<circle fill="#010202" cx="40.949" cy="460.065" r="8.09"/>
	<path fill="#010202" d="M40.949,522.758c-4.468,0-8.09,3.619-8.09,8.09c0,4.468,3.622,8.091,8.09,8.091s8.091-3.622,8.091-8.091
		C49.04,526.377,45.417,522.758,40.949,522.758z"/>
	<path fill="#010202" d="M81.999,558.298c-4.468,0-8.09,3.619-8.09,8.09c0,0.167,0.014,0.326,0.024,0.489h16.136
		c0.007-0.163,0.024-0.322,0.024-0.489C90.093,561.917,86.47,558.298,81.999,558.298z"/>
	<path fill="#010202" d="M40.949,62.657c-4.468,0-8.09,3.619-8.09,8.09c0,4.468,3.622,8.09,8.09,8.09s8.091-3.622,8.091-8.09
		C49.04,66.275,45.417,62.657,40.949,62.657z"/>
	<circle fill="#010202" cx="40.949" cy="35.354" r="8.09"/>
	<path fill="#010202" d="M81.999,487.365c-4.468,0-8.09,3.626-8.09,8.09c0,4.472,3.622,8.09,8.09,8.09
		c4.472,0,8.094-3.619,8.094-8.09C90.093,490.991,86.47,487.365,81.999,487.365z"/>
	<path fill="#010202" d="M40.949,98.047c-4.468,0-8.09,3.622-8.09,8.09c0,4.472,3.622,8.09,8.09,8.09s8.091-3.619,8.091-8.09
		C49.04,101.669,45.417,98.047,40.949,98.047z"/>
	<circle fill="#010202" cx="40.949" cy="212.316" r="8.092"/>
	<path fill="#010202" d="M40.949,168.834c-4.468,0-8.09,3.619-8.09,8.087c0,4.475,3.622,8.097,8.09,8.097s8.091-3.622,8.091-8.097
		C49.04,172.453,45.417,168.834,40.949,168.834z"/>
	<circle fill="#010202" cx="40.949" cy="141.532" r="8.092"/>
	<path fill="#010202" d="M-0.256,239.617v16.185c4.465,0,8.09-3.622,8.09-8.09C7.834,243.24,4.209,239.617-0.256,239.617z"/>
	<path fill="#010202" d="M-0.256,275.011v16.185c4.465,0,8.09-3.622,8.09-8.09C7.834,278.633,4.209,275.011-0.256,275.011z"/>
	<path fill="#010202" d="M-0.256,381.191v16.177c4.465,0,8.09-3.619,8.09-8.09C7.834,384.81,4.209,381.191-0.256,381.191z"/>
	<path fill="#010202" d="M-0.256,416.581v16.181c4.465,0,8.09-3.622,8.09-8.09S4.209,416.581-0.256,416.581z"/>
	<path fill="#010202" d="M164.101,345.798c-4.468,0-8.09,3.619-8.09,8.09c0,4.468,3.622,8.09,8.09,8.09s8.091-3.622,8.091-8.09
		C172.192,349.417,168.569,345.798,164.101,345.798z"/>
	<path fill="#010202" d="M-0.256,345.798v16.181c4.465,0,8.09-3.622,8.09-8.09C7.834,349.417,4.209,345.798-0.256,345.798z"/>
	<path fill="#010202" d="M40.949,558.298c-4.468,0-8.09,3.619-8.09,8.09c0,0.167,0.014,0.326,0.024,0.489h16.133
		c0.007-0.163,0.024-0.322,0.024-0.489C49.04,561.917,45.417,558.298,40.949,558.298z"/>
	<path fill="#010202" d="M-0.256,487.365v16.181c4.465,0,8.09-3.619,8.09-8.09C7.834,490.991,4.209,487.365-0.256,487.365z"/>
	<path fill="#010202" d="M-0.256,451.975v16.181c4.465,0,8.09-3.622,8.09-8.09C7.834,455.597,4.209,451.975-0.256,451.975z"/>
	<path fill="#010202" d="M-0.256,522.758v16.181c4.465,0,8.09-3.622,8.09-8.091C7.834,526.377,4.209,522.758-0.256,522.758z"/>
	<path fill="#010202" d="M81.999,522.758c-4.468,0-8.09,3.619-8.09,8.09c0,4.468,3.622,8.091,8.09,8.091
		c4.472,0,8.094-3.622,8.094-8.091C90.093,526.377,86.47,522.758,81.999,522.758z"/>
	<path fill="#010202" d="M-0.256,98.047v16.181c4.465,0,8.09-3.619,8.09-8.09C7.834,101.669,4.209,98.047-0.256,98.047z"/>
	<path fill="#010202" d="M-0.256,27.263v16.181c4.465,0,8.09-3.622,8.09-8.09C7.834,30.886,4.209,27.263-0.256,27.263z"/>
	<path fill="#010202" d="M-0.256,558.298v8.579H7.81c0.007-0.163,0.024-0.322,0.024-0.489
		C7.834,561.917,4.209,558.298-0.256,558.298z"/>
	<path fill="#010202" d="M-0.256,62.657v16.181c4.465,0,8.09-3.622,8.09-8.09C7.834,66.275,4.209,62.657-0.256,62.657z"/>
	<path fill="#010202" d="M-0.256,204.224v16.185c4.465,0,8.09-3.622,8.09-8.094C7.834,207.846,4.209,204.224-0.256,204.224z"/>
	<path fill="#010202" d="M-0.256,133.44v16.185c4.465,0,8.09-3.626,8.09-8.094C7.834,137.063,4.209,133.44-0.256,133.44z"/>
	<path fill="#010202" d="M-0.256,168.834v16.184c4.465,0,8.09-3.622,8.09-8.097C7.834,172.453,4.209,168.834-0.256,168.834z"/>
	<path fill="#010202" d="M-0.256,310.401v16.185c4.465,0,8.09-3.623,8.09-8.09C7.834,314.027,4.209,310.401-0.256,310.401z"/>
	<path fill="#010202" d="M123.052,381.191c-4.468,0-8.09,3.619-8.09,8.087c0,4.472,3.622,8.09,8.09,8.09s8.09-3.619,8.09-8.09
		C131.142,384.81,127.52,381.191,123.052,381.191z"/>
	<path fill="#010202" d="M123.052,168.834c-4.468,0-8.09,3.619-8.09,8.087c0,4.475,3.622,8.097,8.09,8.097s8.09-3.622,8.09-8.097
		C131.142,172.453,127.52,168.834,123.052,168.834z"/>
	<circle fill="#010202" cx="123.052" cy="247.709" r="8.092"/>
	<circle fill="#010202" cx="123.052" cy="141.532" r="8.092"/>
	<circle fill="#010202" cx="123.052" cy="283.103" r="8.092"/>
	<path fill="#010202" d="M123.052,345.798c-4.468,0-8.09,3.619-8.09,8.09c0,4.468,3.622,8.09,8.09,8.09s8.09-3.622,8.09-8.09
		C131.142,349.417,127.52,345.798,123.052,345.798z"/>
	<path fill="#010202" d="M123.052,98.047c-4.468,0-8.09,3.622-8.09,8.09c0,4.472,3.622,8.09,8.09,8.09s8.09-3.619,8.09-8.09
		C131.142,101.669,127.52,98.047,123.052,98.047z"/>
	<circle fill="#010202" cx="123.052" cy="318.493" r="8.092"/>
	<circle fill="#010202" cx="123.052" cy="212.316" r="8.092"/>
	<circle fill="#010202" cx="164.101" cy="424.672" r="8.09"/>
	<path fill="#010202" d="M123.052,62.657c-4.468,0-8.09,3.619-8.09,8.09c0,4.468,3.622,8.09,8.09,8.09s8.09-3.622,8.09-8.09
		C131.142,66.275,127.52,62.657,123.052,62.657z"/>
	<path fill="#010202" d="M164.101,522.758c-4.468,0-8.09,3.619-8.09,8.09c0,4.468,3.622,8.091,8.09,8.091s8.091-3.622,8.091-8.091
		C172.192,526.377,168.569,522.758,164.101,522.758z"/>
	<path fill="#010202" d="M164.101,381.191c-4.468,0-8.09,3.619-8.09,8.087c0,4.472,3.622,8.09,8.09,8.09s8.091-3.619,8.091-8.09
		C172.192,384.81,168.569,381.191,164.101,381.191z"/>
	<circle fill="#010202" cx="164.101" cy="460.065" r="8.09"/>
	<circle fill="#010202" cx="123.052" cy="35.354" r="8.09"/>
	<path fill="#010202" d="M164.101,558.298c-4.468,0-8.09,3.619-8.09,8.09c0,0.167,0.014,0.326,0.024,0.489h16.132
		c0.007-0.163,0.024-0.322,0.024-0.489C172.192,561.917,168.569,558.298,164.101,558.298z"/>
	<path fill="#010202" d="M164.101,487.365c-4.468,0-8.09,3.626-8.09,8.09c0,4.472,3.622,8.09,8.09,8.09s8.091-3.619,8.091-8.09
		C172.192,490.991,168.569,487.365,164.101,487.365z"/>
	<path fill="#010202" d="M81.999,27.263c-4.468,0-8.09,3.622-8.09,8.09c0,4.468,3.622,8.09,8.09,8.09
		c4.472,0,8.094-3.622,8.094-8.09C90.093,30.886,86.47,27.263,81.999,27.263z"/>
	<path fill="#010202" d="M81.999,275.011c-4.468,0-8.09,3.622-8.09,8.094c0,4.468,3.622,8.09,8.09,8.09
		c4.472,0,8.094-3.622,8.094-8.09C90.093,278.633,86.47,275.011,81.999,275.011z"/>
	<circle fill="#010202" cx="123.052" cy="424.672" r="8.09"/>
	<path fill="#010202" d="M81.999,310.401c-4.468,0-8.09,3.626-8.09,8.094c0,4.468,3.622,8.09,8.09,8.09
		c4.472,0,8.094-3.623,8.094-8.09C90.093,314.027,86.47,310.401,81.999,310.401z"/>
	<path fill="#010202" d="M81.999,168.834c-4.468,0-8.09,3.619-8.09,8.087c0,4.475,3.622,8.097,8.09,8.097
		c4.472,0,8.094-3.622,8.094-8.097C90.093,172.453,86.47,168.834,81.999,168.834z"/>
	<path fill="#010202" d="M81.999,204.224c-4.468,0-8.09,3.622-8.09,8.09c0,4.472,3.622,8.094,8.09,8.094
		c4.472,0,8.094-3.622,8.094-8.094C90.093,207.846,86.47,204.224,81.999,204.224z"/>
	<path fill="#010202" d="M81.999,416.581c-4.468,0-8.09,3.622-8.09,8.09s3.622,8.09,8.09,8.09c4.472,0,8.094-3.622,8.094-8.09
		S86.47,416.581,81.999,416.581z"/>
	<path fill="#010202" d="M81.999,345.798c-4.468,0-8.09,3.619-8.09,8.09c0,4.468,3.622,8.09,8.09,8.09
		c4.472,0,8.094-3.622,8.094-8.09C90.093,349.417,86.47,345.798,81.999,345.798z"/>
	<path fill="#010202" d="M81.999,381.191c-4.468,0-8.09,3.619-8.09,8.087c0,4.472,3.622,8.09,8.09,8.09
		c4.472,0,8.094-3.619,8.094-8.09C90.093,384.81,86.47,381.191,81.999,381.191z"/>
	<path fill="#010202" d="M81.999,239.617c-4.468,0-8.09,3.622-8.09,8.094c0,4.468,3.622,8.09,8.09,8.09
		c4.472,0,8.094-3.622,8.094-8.09C90.093,243.24,86.47,239.617,81.999,239.617z"/>
	<path fill="#010202" d="M123.052,487.365c-4.468,0-8.09,3.626-8.09,8.09c0,4.472,3.622,8.09,8.09,8.09s8.09-3.619,8.09-8.09
		C131.142,490.991,127.52,487.365,123.052,487.365z"/>
	<path fill="#010202" d="M81.999,133.44c-4.468,0-8.09,3.623-8.09,8.09c0,4.468,3.622,8.094,8.09,8.094
		c4.472,0,8.094-3.626,8.094-8.094C90.093,137.063,86.47,133.44,81.999,133.44z"/>
	<path fill="#010202" d="M123.052,522.758c-4.468,0-8.09,3.619-8.09,8.09c0,4.468,3.622,8.091,8.09,8.091s8.09-3.622,8.09-8.091
		C131.142,526.377,127.52,522.758,123.052,522.758z"/>
	<circle fill="#010202" cx="123.052" cy="460.065" r="8.09"/>
	<path fill="#010202" d="M123.052,558.298c-4.468,0-8.09,3.619-8.09,8.09c0,0.167,0.014,0.326,0.024,0.489h16.132
		c0.007-0.163,0.024-0.322,0.024-0.489C131.142,561.917,127.52,558.298,123.052,558.298z"/>
	<path fill="#010202" d="M81.999,98.047c-4.468,0-8.09,3.622-8.09,8.09c0,4.472,3.622,8.09,8.09,8.09
		c4.472,0,8.094-3.619,8.094-8.09C90.093,101.669,86.47,98.047,81.999,98.047z"/>
	<path fill="#010202" d="M81.999,62.657c-4.468,0-8.09,3.619-8.09,8.09c0,4.468,3.622,8.09,8.09,8.09
		c4.472,0,8.094-3.622,8.094-8.09C90.093,66.275,86.47,62.657,81.999,62.657z"/>
	<path fill="#010202" d="M81.999,451.975c-4.468,0-8.09,3.622-8.09,8.09c0,4.468,3.622,8.09,8.09,8.09
		c4.472,0,8.094-3.622,8.094-8.09C90.093,455.597,86.47,451.975,81.999,451.975z"/>
	<circle fill="#010202" cx="533.558" cy="283.103" r="8.092"/>
	<path fill="#010202" d="M533.558,133.44c-4.468,0-8.09,3.623-8.09,8.09c0,4.468,3.622,8.094,8.09,8.094s8.094-3.626,8.094-8.094
		C541.652,137.063,538.026,133.44,533.558,133.44z"/>
	<path fill="#010202" d="M533.558,62.657c-4.468,0-8.09,3.619-8.09,8.09c0,4.468,3.622,8.09,8.09,8.09s8.094-3.622,8.094-8.09
		C541.652,66.275,538.026,62.657,533.558,62.657z"/>
	<circle fill="#010202" cx="533.558" cy="35.354" r="8.09"/>
	<path fill="#010202" d="M533.558,98.047c-4.468,0-8.09,3.622-8.09,8.09c0,4.472,3.622,8.09,8.09,8.09s8.094-3.619,8.094-8.09
		C541.652,101.669,538.026,98.047,533.558,98.047z"/>
	<path fill="#010202" d="M533.558,168.834c-4.468,0-8.09,3.619-8.09,8.087c0,4.475,3.622,8.097,8.09,8.097s8.094-3.622,8.094-8.097
		C541.652,172.453,538.026,168.834,533.558,168.834z"/>
	<circle fill="#010202" cx="533.558" cy="247.709" r="8.092"/>
	<path fill="#010202" d="M533.558,204.224c-4.468,0-8.09,3.622-8.09,8.09c0,4.472,3.622,8.094,8.09,8.094s8.094-3.622,8.094-8.094
		C541.652,207.846,538.026,204.224,533.558,204.224z"/>
	<path fill="#010202" d="M410.406,7.895c4.465,0,8.094-3.623,8.094-8.09h-16.185C402.315,4.273,405.937,7.895,410.406,7.895z"/>
	<path fill="#010202" d="M492.505,7.895c4.472,0,8.094-3.623,8.094-8.09h-16.185C484.414,4.273,488.04,7.895,492.505,7.895z"/>
	<path fill="#010202" d="M451.459,7.895c4.465,0,8.09-3.623,8.09-8.09h-16.184C443.365,4.273,446.991,7.895,451.459,7.895z"/>
	<path fill="#010202" d="M328.306,7.895c4.465,0,8.09-3.623,8.09-8.09h-16.184C320.213,4.273,323.835,7.895,328.306,7.895z"/>
	<path fill="#010202" d="M369.353,558.298c-4.468,0-8.087,3.619-8.087,8.09c0,0.167,0.014,0.326,0.021,0.489h16.136
		c0.011-0.163,0.021-0.322,0.021-0.489C377.443,561.917,373.821,558.298,369.353,558.298z"/>
	<path fill="#010202" d="M533.558,7.895c4.468,0,8.094-3.623,8.094-8.09h-16.185C525.467,4.273,529.09,7.895,533.558,7.895z"/>
	<path fill="#010202" d="M369.353,7.895c4.468,0,8.09-3.623,8.09-8.09h-16.177C361.266,4.273,364.885,7.895,369.353,7.895z"/>
	<path fill="#010202" d="M40.949,7.895c4.468,0,8.091-3.623,8.091-8.09H32.859C32.859,4.273,36.481,7.895,40.949,7.895z"/>
	<path fill="#010202" d="M81.999,7.895c4.472,0,8.094-3.623,8.094-8.09H73.908C73.908,4.273,77.531,7.895,81.999,7.895z"/>
	<path fill="#010202" d="M-0.256,7.895c4.465,0,8.09-3.623,8.09-8.09h-8.09V7.895z"/>
	<path fill="#010202" d="M287.253,7.895c4.468,0,8.094-3.623,8.094-8.09h-16.185C279.163,4.273,282.785,7.895,287.253,7.895z"/>
	<path fill="#010202" d="M246.204,7.895c4.468,0,8.087-3.623,8.087-8.09h-16.177C238.114,4.273,241.736,7.895,246.204,7.895z"/>
	<path fill="#010202" d="M164.101,7.895c4.468,0,8.091-3.623,8.091-8.09h-16.181C156.011,4.273,159.633,7.895,164.101,7.895z"/>
	<path fill="#010202" d="M205.154,7.895c4.468,0,8.087-3.623,8.087-8.09h-16.181C197.061,4.273,200.683,7.895,205.154,7.895z"/>
	<path fill="#010202" d="M123.052,7.895c4.468,0,8.09-3.623,8.09-8.09h-16.181C114.961,4.273,118.584,7.895,123.052,7.895z"/>
	<path fill="#010202" d="M557.954,424.074c-0.244,3.333,1.815,6.364,4.801,7.863c1.58,0.793,2.894,0.919,4.149,0.772
		c0.057-0.007,0.1-0.056,0.1-0.113v-15.948c-0.322-0.042-0.648-0.066-0.981-0.066C561.756,416.581,558.26,419.885,557.954,424.074z"
		/>
	<path fill="#010202" d="M557.954,459.468c-0.243,3.332,1.815,6.364,4.802,7.863c1.58,0.793,2.894,0.919,4.148,0.772
		c0.057-0.007,0.1-0.056,0.1-0.113v-15.952c-0.322-0.038-0.648-0.062-0.981-0.062C561.756,451.975,558.26,455.279,557.954,459.468z"
		/>
	<path fill="#010202" d="M557.932,353.888c0,4.468,3.623,8.09,8.09,8.09c0.333,0,0.659-0.028,0.981-0.066V345.86
		c-0.322-0.035-0.648-0.062-0.981-0.062C561.555,345.798,557.932,349.417,557.932,353.888z"/>
	<path fill="#010202" d="M557.933,389.234c-0.011,2.001,0.902,3.912,2.343,5.301c2.787,2.686,4.772,2.986,6.628,2.783
		c0.057-0.006,0.1-0.055,0.1-0.113v-15.951c-0.322-0.038-0.648-0.062-0.981-0.062C561.57,381.191,557.957,384.786,557.933,389.234z"
		/>
	<path fill="#010202" d="M557.932,530.849c0,4.468,3.623,8.091,8.09,8.091c0.333,0,0.659-0.028,0.981-0.066v-16.049
		c-0.322-0.038-0.648-0.066-0.981-0.066C561.555,522.758,557.932,526.377,557.932,530.849z"/>
	<path fill="#010202" d="M557.94,495.092c-0.083,1.875,0.681,3.701,1.957,5.077c2.988,3.221,5.067,3.537,7.006,3.327
		c0.057-0.006,0.1-0.055,0.1-0.113v-15.952c-0.322-0.038-0.648-0.066-0.981-0.066C561.677,487.365,558.131,490.796,557.94,495.092z"
		/>
	<path fill="#010202" d="M557.941,566.757c0.048,0.046,0.078,0.075,0.126,0.12h8.826c0.061,0,0.111-0.05,0.111-0.111v-8.406
		c-0.322-0.035-0.648-0.062-0.981-0.062C561.433,558.298,557.735,562.118,557.941,566.757z"/>
	<path fill="#010202" d="M557.933,177.005c0.045,4.436,3.65,8.013,8.09,8.013c0.333,0,0.659-0.028,0.981-0.069v-15.951
		c0-0.057-0.043-0.106-0.1-0.113c-1.889-0.205-3.912,0.1-6.779,2.973C558.761,173.224,557.913,175.075,557.933,177.005z"/>
	<path fill="#010202" d="M557.933,106.093c-0.011,2.001,0.903,3.913,2.344,5.302c2.787,2.685,4.772,2.985,6.627,2.782
		c0.057-0.006,0.1-0.055,0.1-0.113V98.113c-0.322-0.038-0.648-0.066-0.981-0.066C561.57,98.047,557.957,101.645,557.933,106.093z"/>
	<path fill="#010202" d="M557.932,318.495c0,4.468,3.623,8.09,8.09,8.09c0.333,0,0.659-0.028,0.981-0.066V310.47
		c-0.322-0.038-0.648-0.069-0.981-0.069C561.555,310.401,557.932,314.027,557.932,318.495z"/>
	<path fill="#010202" d="M557.932,141.531c0,4.468,3.623,8.094,8.09,8.094c0.333,0,0.659-0.028,0.981-0.069v-16.049
		c-0.322-0.038-0.648-0.066-0.981-0.066C561.555,133.44,557.932,137.063,557.932,141.531z"/>
	<path fill="#010202" d="M557.933,70.792c0.024,4.448,3.637,8.046,8.09,8.046c0.333,0,0.659-0.028,0.981-0.066V62.82
		c0-0.057-0.043-0.106-0.1-0.113c-1.859-0.203-3.847,0.098-6.641,2.799C558.829,66.893,557.922,68.798,557.933,70.792z"/>
	<path fill="#010202" d="M557.975,34.518c-0.304,2.959,1.27,5.789,3.739,7.448c2.063,1.387,3.67,1.602,5.19,1.424
		c0.057-0.007,0.1-0.056,0.1-0.113V27.329c-0.322-0.042-0.648-0.066-0.981-0.066C561.837,27.263,558.393,30.443,557.975,34.518z"/>
	<path fill="#010202" d="M558.079,284.645c0.719,3.731,4.003,6.55,7.944,6.55c0.333,0,0.659-0.028,0.981-0.066v-15.952
		c0-0.057-0.043-0.107-0.1-0.113c-1.417-0.166-2.91,0.01-4.778,1.158C559.225,278.007,557.434,281.301,558.079,284.645z"/>
	<path fill="#010202" d="M557.935,247.924c0.078,3.03,2.037,5.656,4.743,7.023c1.615,0.816,2.951,0.952,4.226,0.801
		c0.057-0.007,0.1-0.056,0.1-0.113v-15.952c-0.322-0.042-0.648-0.066-0.981-0.066C561.484,239.617,557.818,243.355,557.935,247.924z
		"/>
	<path fill="#010202" d="M558.079,210.774c-0.645,3.344,1.146,6.639,4.047,8.422c1.868,1.149,3.361,1.325,4.778,1.158
		c0.057-0.007,0.1-0.056,0.1-0.113V204.29c-0.322-0.042-0.648-0.066-0.981-0.066C562.082,204.224,558.798,207.042,558.079,210.774z"
		/>
	<path fill="#010202" d="M558.049-0.195c-0.063,0-0.116,0.054-0.116,0.117c0.063,4.414,3.661,7.973,8.09,7.973
		c0.333,0,0.659-0.024,0.981-0.062v-7.917c0-0.061-0.05-0.111-0.111-0.111H558.049z"/>
	<path fill="#010202" d="M410.406,310.401c-4.468,0-8.09,3.626-8.09,8.094c0,4.468,3.622,8.09,8.09,8.09
		c4.465,0,8.094-3.623,8.094-8.09C418.5,314.027,414.87,310.401,410.406,310.401z"/>
	<path fill="#010202" d="M410.406,345.798c-4.468,0-8.09,3.619-8.09,8.09c0,4.468,3.622,8.09,8.09,8.09
		c4.465,0,8.094-3.622,8.094-8.09C418.5,349.417,414.87,345.798,410.406,345.798z"/>
	<path fill="#010202" d="M410.406,522.758c-4.468,0-8.09,3.619-8.09,8.09c0,4.468,3.622,8.091,8.09,8.091
		c4.465,0,8.094-3.622,8.094-8.091C418.5,526.377,414.87,522.758,410.406,522.758z"/>
	<path fill="#010202" d="M410.406,239.617c-4.468,0-8.09,3.622-8.09,8.094c0,4.468,3.622,8.09,8.09,8.09
		c4.465,0,8.094-3.622,8.094-8.09C418.5,243.24,414.87,239.617,410.406,239.617z"/>
	<path fill="#010202" d="M410.406,275.011c-4.468,0-8.09,3.622-8.09,8.094c0,4.468,3.622,8.09,8.09,8.09
		c4.465,0,8.094-3.622,8.094-8.09C418.5,278.633,414.87,275.011,410.406,275.011z"/>
	<path fill="#010202" d="M410.406,451.975c-4.468,0-8.09,3.622-8.09,8.09c0,4.468,3.622,8.09,8.09,8.09
		c4.465,0,8.094-3.622,8.094-8.09C418.5,455.597,414.87,451.975,410.406,451.975z"/>
	<path fill="#010202" d="M410.406,416.581c-4.468,0-8.09,3.622-8.09,8.09s3.622,8.09,8.09,8.09c4.465,0,8.094-3.622,8.094-8.09
		S414.87,416.581,410.406,416.581z"/>
	<path fill="#010202" d="M410.406,381.191c-4.468,0-8.09,3.619-8.09,8.087c0,4.472,3.622,8.09,8.09,8.09
		c4.465,0,8.094-3.619,8.094-8.09C418.5,384.81,414.87,381.191,410.406,381.191z"/>
	<path fill="#010202" d="M410.406,204.224c-4.468,0-8.09,3.622-8.09,8.09c0,4.472,3.622,8.094,8.09,8.094
		c4.465,0,8.094-3.622,8.094-8.094C418.5,207.846,414.87,204.224,410.406,204.224z"/>
	<path fill="#010202" d="M451.459,451.975c-4.468,0-8.094,3.622-8.094,8.09c0,4.468,3.626,8.09,8.094,8.09
		c4.465,0,8.09-3.622,8.09-8.09C459.549,455.597,455.924,451.975,451.459,451.975z"/>
	<path fill="#010202" d="M451.459,558.298c-4.468,0-8.094,3.619-8.094,8.09c0,0.167,0.014,0.326,0.028,0.489h16.129
		c0.011-0.163,0.028-0.322,0.028-0.489C459.549,561.917,455.924,558.298,451.459,558.298z"/>
	<path fill="#010202" d="M410.406,27.263c-4.468,0-8.09,3.622-8.09,8.09c0,4.468,3.622,8.09,8.09,8.09
		c4.465,0,8.094-3.622,8.094-8.09C418.5,30.886,414.87,27.263,410.406,27.263z"/>
	<path fill="#010202" d="M451.459,522.758c-4.468,0-8.094,3.619-8.094,8.09c0,4.468,3.626,8.091,8.094,8.091
		c4.465,0,8.09-3.622,8.09-8.091C459.549,526.377,455.924,522.758,451.459,522.758z"/>
	<path fill="#010202" d="M451.459,487.365c-4.468,0-8.094,3.626-8.094,8.09c0,4.472,3.626,8.09,8.094,8.09
		c4.465,0,8.09-3.619,8.09-8.09C459.549,490.991,455.924,487.365,451.459,487.365z"/>
	<path fill="#010202" d="M410.406,62.657c-4.468,0-8.09,3.619-8.09,8.09c0,4.468,3.622,8.09,8.09,8.09
		c4.465,0,8.094-3.622,8.094-8.09C418.5,66.275,414.87,62.657,410.406,62.657z"/>
	<path fill="#010202" d="M410.406,133.44c-4.468,0-8.09,3.623-8.09,8.09c0,4.468,3.622,8.094,8.09,8.094
		c4.465,0,8.094-3.626,8.094-8.094C418.5,137.063,414.87,133.44,410.406,133.44z"/>
	<path fill="#010202" d="M410.406,98.047c-4.468,0-8.09,3.622-8.09,8.09c0,4.472,3.622,8.09,8.09,8.09
		c4.465,0,8.094-3.619,8.094-8.09C418.5,101.669,414.87,98.047,410.406,98.047z"/>
	<path fill="#010202" d="M410.406,168.834c-4.468,0-8.09,3.619-8.09,8.087c0,4.475,3.622,8.097,8.09,8.097
		c4.465,0,8.094-3.622,8.094-8.097C418.5,172.453,414.87,168.834,410.406,168.834z"/>
	<path fill="#010202" d="M369.353,381.191c-4.468,0-8.087,3.619-8.087,8.087c0,4.472,3.619,8.09,8.087,8.09s8.09-3.619,8.09-8.09
		C377.443,384.81,373.821,381.191,369.353,381.191z"/>
	<path fill="#010202" d="M369.353,345.798c-4.468,0-8.087,3.619-8.087,8.09c0,4.468,3.619,8.09,8.087,8.09s8.09-3.622,8.09-8.09
		C377.443,349.417,373.821,345.798,369.353,345.798z"/>
	<circle fill="#010202" cx="369.353" cy="424.672" r="8.09"/>
	<ellipse fill="#010202" cx="369.353" cy="318.493" rx="8.087" ry="8.092"/>
	<path fill="#010202" d="M369.353,522.758c-4.468,0-8.087,3.619-8.087,8.09c0,4.468,3.619,8.091,8.087,8.091s8.09-3.622,8.09-8.091
		C377.443,526.377,373.821,522.758,369.353,522.758z"/>
	<path fill="#010202" d="M369.353,487.365c-4.468,0-8.087,3.626-8.087,8.09c0,4.472,3.619,8.09,8.087,8.09s8.09-3.619,8.09-8.09
		C377.443,490.991,373.821,487.365,369.353,487.365z"/>
	<ellipse fill="#010202" cx="369.353" cy="283.103" rx="8.087" ry="8.092"/>
	<circle fill="#010202" cx="369.353" cy="460.065" r="8.09"/>
	<path fill="#010202" d="M369.353,204.224c-4.468,0-8.087,3.622-8.087,8.09c0,4.472,3.619,8.094,8.087,8.094s8.09-3.622,8.09-8.094
		C377.443,207.846,373.821,204.224,369.353,204.224z"/>
	<path fill="#010202" d="M369.353,98.047c-4.468,0-8.087,3.622-8.087,8.09c0,4.472,3.619,8.09,8.087,8.09s8.09-3.619,8.09-8.09
		C377.443,101.669,373.821,98.047,369.353,98.047z"/>
	<path fill="#010202" d="M369.353,62.657c-4.468,0-8.087,3.619-8.087,8.09c0,4.468,3.619,8.09,8.087,8.09s8.09-3.622,8.09-8.09
		C377.443,66.275,373.821,62.657,369.353,62.657z"/>
	<circle fill="#010202" cx="369.353" cy="35.354" r="8.09"/>
	<ellipse fill="#010202" cx="369.353" cy="247.709" rx="8.087" ry="8.092"/>
	<path fill="#010202" d="M410.406,558.298c-4.468,0-8.09,3.619-8.09,8.09c0,0.167,0.014,0.326,0.024,0.489h16.132
		c0.01-0.163,0.028-0.322,0.028-0.489C418.5,561.917,414.87,558.298,410.406,558.298z"/>
	<path fill="#010202" d="M410.406,487.365c-4.468,0-8.09,3.626-8.09,8.09c0,4.472,3.622,8.09,8.09,8.09
		c4.465,0,8.094-3.619,8.094-8.09C418.5,490.991,414.87,487.365,410.406,487.365z"/>
	<path fill="#010202" d="M369.353,168.834c-4.468,0-8.087,3.619-8.087,8.087c0,4.475,3.619,8.097,8.087,8.097s8.09-3.622,8.09-8.097
		C377.443,172.453,373.821,168.834,369.353,168.834z"/>
	<path fill="#010202" d="M369.353,133.44c-4.468,0-8.087,3.623-8.087,8.09c0,4.468,3.619,8.094,8.087,8.094s8.09-3.626,8.09-8.094
		C377.443,137.063,373.821,133.44,369.353,133.44z"/>
	<path fill="#010202" d="M451.459,310.401c-4.468,0-8.094,3.626-8.094,8.094c0,4.468,3.626,8.09,8.094,8.09
		c4.465,0,8.09-3.623,8.09-8.09C459.549,314.027,455.924,310.401,451.459,310.401z"/>
	<path fill="#010202" d="M492.505,168.834c-4.465,0-8.09,3.619-8.09,8.087c0,4.475,3.626,8.097,8.09,8.097
		c4.472,0,8.094-3.622,8.094-8.097C500.599,172.453,496.977,168.834,492.505,168.834z"/>
	<path fill="#010202" d="M492.505,133.44c-4.465,0-8.09,3.623-8.09,8.09c0,4.468,3.626,8.094,8.09,8.094
		c4.472,0,8.094-3.626,8.094-8.094C500.599,137.063,496.977,133.44,492.505,133.44z"/>
	<path fill="#010202" d="M492.505,204.224c-4.465,0-8.09,3.622-8.09,8.09c0,4.472,3.626,8.094,8.09,8.094
		c4.472,0,8.094-3.622,8.094-8.094C500.599,207.846,496.977,204.224,492.505,204.224z"/>
	<path fill="#010202" d="M492.505,98.047c-4.465,0-8.09,3.622-8.09,8.09c0,4.472,3.626,8.09,8.09,8.09
		c4.472,0,8.094-3.619,8.094-8.09C500.599,101.669,496.977,98.047,492.505,98.047z"/>
	<path fill="#010202" d="M492.505,275.011c-4.465,0-8.09,3.622-8.09,8.094c0,4.468,3.626,8.09,8.09,8.09
		c4.472,0,8.094-3.622,8.094-8.09C500.599,278.633,496.977,275.011,492.505,275.011z"/>
	<path fill="#010202" d="M492.505,310.401c-4.465,0-8.09,3.626-8.09,8.094c0,4.468,3.626,8.09,8.09,8.09
		c4.472,0,8.094-3.623,8.094-8.09C500.599,314.027,496.977,310.401,492.505,310.401z"/>
	<path fill="#010202" d="M492.505,62.657c-4.465,0-8.09,3.619-8.09,8.09c0,4.468,3.626,8.09,8.09,8.09
		c4.472,0,8.094-3.622,8.094-8.09C500.599,66.275,496.977,62.657,492.505,62.657z"/>
	<path fill="#010202" d="M492.505,239.617c-4.465,0-8.09,3.622-8.09,8.094c0,4.468,3.626,8.09,8.09,8.09
		c4.472,0,8.094-3.622,8.094-8.09C500.599,243.24,496.977,239.617,492.505,239.617z"/>
	<circle fill="#010202" cx="533.558" cy="424.672" r="8.09"/>
	<path fill="#010202" d="M492.505,345.798c-4.465,0-8.09,3.619-8.09,8.09c0,4.468,3.626,8.09,8.09,8.09
		c4.472,0,8.094-3.622,8.094-8.09C500.599,349.417,496.977,345.798,492.505,345.798z"/>
	<path fill="#010202" d="M533.558,381.191c-4.468,0-8.09,3.619-8.09,8.087c0,4.472,3.622,8.09,8.09,8.09s8.094-3.619,8.094-8.09
		C541.652,384.81,538.026,381.191,533.558,381.191z"/>
	<path fill="#010202" d="M451.459,416.581c-4.468,0-8.094,3.622-8.094,8.09s3.626,8.09,8.094,8.09c4.465,0,8.09-3.622,8.09-8.09
		S455.924,416.581,451.459,416.581z"/>
	<path fill="#010202" d="M492.505,27.263c-4.465,0-8.09,3.622-8.09,8.09c0,4.468,3.626,8.09,8.09,8.09
		c4.472,0,8.094-3.622,8.094-8.09C500.599,30.886,496.977,27.263,492.505,27.263z"/>
	<circle fill="#010202" cx="533.558" cy="460.065" r="8.09"/>
	<path fill="#010202" d="M533.558,558.298c-4.468,0-8.09,3.619-8.09,8.09c0,0.167,0.014,0.326,0.024,0.489h16.136
		c0.007-0.163,0.024-0.322,0.024-0.489C541.652,561.917,538.026,558.298,533.558,558.298z"/>
	<path fill="#010202" d="M533.558,522.758c-4.468,0-8.09,3.619-8.09,8.09c0,4.468,3.622,8.091,8.09,8.091s8.094-3.622,8.094-8.091
		C541.652,526.377,538.026,522.758,533.558,522.758z"/>
	<path fill="#010202" d="M533.558,487.365c-4.468,0-8.09,3.626-8.09,8.09c0,4.472,3.622,8.09,8.09,8.09s8.094-3.619,8.094-8.09
		C541.652,490.991,538.026,487.365,533.558,487.365z"/>
	<path fill="#010202" d="M533.558,345.798c-4.468,0-8.09,3.619-8.09,8.09c0,4.468,3.622,8.09,8.09,8.09s8.094-3.622,8.094-8.09
		C541.652,349.417,538.026,345.798,533.558,345.798z"/>
	<path fill="#010202" d="M451.459,204.224c-4.468,0-8.094,3.622-8.094,8.09c0,4.472,3.626,8.094,8.094,8.094
		c4.465,0,8.09-3.622,8.09-8.094C459.549,207.846,455.924,204.224,451.459,204.224z"/>
	<path fill="#010202" d="M451.459,133.44c-4.468,0-8.094,3.623-8.094,8.09c0,4.468,3.626,8.094,8.094,8.094
		c4.465,0,8.09-3.626,8.09-8.094C459.549,137.063,455.924,133.44,451.459,133.44z"/>
	<path fill="#010202" d="M451.459,239.617c-4.468,0-8.094,3.622-8.094,8.094c0,4.468,3.626,8.09,8.094,8.09
		c4.465,0,8.09-3.622,8.09-8.09C459.549,243.24,455.924,239.617,451.459,239.617z"/>
	<path fill="#010202" d="M451.459,168.834c-4.468,0-8.094,3.619-8.094,8.087c0,4.475,3.626,8.097,8.094,8.097
		c4.465,0,8.09-3.622,8.09-8.097C459.549,172.453,455.924,168.834,451.459,168.834z"/>
	<path fill="#010202" d="M451.459,275.011c-4.468,0-8.094,3.622-8.094,8.094c0,4.468,3.626,8.09,8.094,8.09
		c4.465,0,8.09-3.622,8.09-8.09C459.549,278.633,455.924,275.011,451.459,275.011z"/>
	<path fill="#010202" d="M451.459,381.191c-4.468,0-8.094,3.619-8.094,8.087c0,4.472,3.626,8.09,8.094,8.09
		c4.465,0,8.09-3.619,8.09-8.09C459.549,384.81,455.924,381.191,451.459,381.191z"/>
	<path fill="#010202" d="M451.459,345.798c-4.468,0-8.094,3.619-8.094,8.09c0,4.468,3.626,8.09,8.094,8.09
		c4.465,0,8.09-3.622,8.09-8.09C459.549,349.417,455.924,345.798,451.459,345.798z"/>
	<circle fill="#010202" cx="533.558" cy="318.493" r="8.092"/>
	<path fill="#010202" d="M451.459,98.047c-4.468,0-8.094,3.622-8.094,8.09c0,4.472,3.626,8.09,8.094,8.09
		c4.465,0,8.09-3.619,8.09-8.09C459.549,101.669,455.924,98.047,451.459,98.047z"/>
	<path fill="#010202" d="M492.505,451.975c-4.465,0-8.09,3.622-8.09,8.09c0,4.468,3.626,8.09,8.09,8.09
		c4.472,0,8.094-3.622,8.094-8.09C500.599,455.597,496.977,451.975,492.505,451.975z"/>
	<path fill="#010202" d="M492.505,381.191c-4.465,0-8.09,3.619-8.09,8.087c0,4.472,3.626,8.09,8.09,8.09
		c4.472,0,8.094-3.619,8.094-8.09C500.599,384.81,496.977,381.191,492.505,381.191z"/>
	<path fill="#010202" d="M492.505,522.758c-4.465,0-8.09,3.619-8.09,8.09c0,4.468,3.626,8.091,8.09,8.091
		c4.472,0,8.094-3.622,8.094-8.091C500.599,526.377,496.977,522.758,492.505,522.758z"/>
	<path fill="#010202" d="M492.505,416.581c-4.465,0-8.09,3.622-8.09,8.09s3.626,8.09,8.09,8.09c4.472,0,8.094-3.622,8.094-8.09
		S496.977,416.581,492.505,416.581z"/>
	<path fill="#010202" d="M492.505,487.365c-4.465,0-8.09,3.626-8.09,8.09c0,4.472,3.626,8.09,8.09,8.09
		c4.472,0,8.094-3.619,8.094-8.09C500.599,490.991,496.977,487.365,492.505,487.365z"/>
	<path fill="#010202" d="M492.505,558.298c-4.465,0-8.09,3.619-8.09,8.09c0,0.167,0.017,0.326,0.025,0.489h16.132
		c0.01-0.163,0.028-0.322,0.028-0.489C500.599,561.917,496.977,558.298,492.505,558.298z"/>
	<path fill="#010202" d="M451.459,62.657c-4.468,0-8.094,3.619-8.094,8.09c0,4.468,3.626,8.09,8.094,8.09
		c4.465,0,8.09-3.622,8.09-8.09C459.549,66.275,455.924,62.657,451.459,62.657z"/>
	<path fill="#010202" d="M451.459,27.263c-4.468,0-8.094,3.622-8.094,8.09c0,4.468,3.626,8.09,8.094,8.09
		c4.465,0,8.09-3.622,8.09-8.09C459.549,30.886,455.924,27.263,451.459,27.263z"/>
</g>
<g id="Ebene_2">
</g>
</svg>
