<svg xmlns="http://www.w3.org/2000/svg" viewBox="0 0 566.93 566.93" enable-background="new 0 0 566.93 566.93"><g><path fill="none" d="M235.792 25.74v12.988h22.68v20.385h11V0h-9.734v25.74zM41.1 25.74v12.988h22.68v20.385h11V0h-9.733v25.74zM306.805 58.728V40.06h15.35V24.074h-19.302V0h-9.715v58.728zM426.487 22.74v12.988h22.68v20.385h11V0h-9.733v22.74zM251.47 66.113V45.728h-11.147v20.075h-23.82V79.5h133.58V65.802h-23.82l.005-18.742h-12.463V65.73h-27.667V0h-9.667v66.113zM17.768 42.74H34.1v-24h23.947v-13H-1.406v15h19.174zM56.78 66.113V45.728H45.632v20.075h-23.82V79.5h133.58V65.802H131.57l.005-16.064h-.116v-2.68h-12.347V65.73H91.446V0H81.78v66.113zM112.113 58.728V40.06h19.346V27.074h-19.303V0h-13.71v58.728zM216.46 552.455H188.79V410.122h23.667v22h16.332v-24h23.946v-13h-133.58v14.333h19.3v19.988h.12v2.68h13.548v-22.668h27V552.84h-25v-20.385h-11.148v20.075h-23.82v13.697h133.58V552.53h-23.822l.005-16.062h-.115v-2.68H216.46zM504.5 257.418h-27.667V115.085H500.5v22h16.333v-24h23.946v-13H407.197v14.333H426.5v19.988h.12l-.002 2.68h13.55v-22.668h27v143.387h-25v-20.387h-11.15v20.075H407.2v13.697h133.58v-13.697h-23.82l.004-16.062h-.116v-2.678H504.5zM442.167 63.113V42.728H431.02v20.074h-23.822V76.5h133.58V62.8h-23.82l.004-16.063h-.116v-2.68H504.5V62.73h-27.667V0h-9.666v63.113zM309.805 507.468v22h16.333v-24h23.945v-13h-133.58V506.8h19.302v19.99h.12l-.002 2.678h13.548V506.8h27v59.727h9.668v-59.06zM400.198 121.418V93.085h147.58v27h-23.945v12.988h22.68v20.386h11V24.072h-13V46.74h-20.55l-.004 9.062h23.82V83.5H400.197V55.8h23.82V46.74h-27.864v-22h-9.667v128.333h13.667v-18.667H419.5v-12.988zM504.543 17.073h19.303V37.06h.12l-.002 2.68h13.548V17.072h27V160.46h-25v-20.387h-11.148v20.074h-23.82v13.698h62.595V2.74h-62.597zM497.5 55.728V37.06h19.346V24.074h-19.303V0h-13.71v55.728zM497.543 347.84h23.82v-9.064H493.5v-22h-9.667V445.11H497.5v-18.667h19.346v-12.988h-19.303v-28.333h69.596v-9.586h-69.597zM407.154 549.455h-27.667V407.122h23.667v22h16.333v-24h23.947v-13h-133.58v14.333h19.3v22.667h13.667v-22.667h27V549.84h-25v-20.385h-11.147v20.075h-23.82v13.697h133.58V549.53h-23.822l.006-16.062h-.116v-2.68h-12.346zM326.673 542.53v-6.062h-23.868v-22h-9.667v52.06h9.715V542.53zM115.113 507.468v22h16.333v-24h23.947v-13H21.813V506.8h19.3v19.99h.12v2.678H54.78V506.8h27v59.727h9.666v-59.06zM135.978 545.53v-9.062h-27.865v-22h-9.667v52.06h13.71V545.53zM521.364 542.53v-9.062H493.5v-22h-9.667v55.06h13.71V542.53zM256.47 513.8v22.668h-20.55l-.002 9.062h23.82v20.997h9.733V513.8zM58.047 163.148H34.225l.005-16.063h-.117v-2.68H21.768v18.668H-1.406v13.772h59.453zM447.167 510.8v22.668h-20.55l-.004 9.062h23.82v23.997h9.734V510.8zM500.5 504.468v22h16.333v-24h23.946v-13H407.197V503.8H426.5v19.988h.12l-.002 2.68h13.55V503.8h27v62.727h9.665v-62.06zM17.768 237.43H34.1v-24h23.947v-13H-1.406v15h19.174zM58.047 552.53H34.225l.005-16.062h-.117v-2.68H21.768v18.667H-1.406v13.772h59.453zM504.543 406.455h19.303v19.988h.12l-.002 2.68h13.548v-22.668h27V549.84h-25v-20.385h-11.148v20.075h-23.82v13.697h62.595V392.122h-62.597zM65.047 220.43H41.1v12.99h22.68v20.385h11V124.42h-13v22.665H41.23l-.003 9.063h23.82v27.697H-1.406v9.586h66.453zM58.047 357.84H34.225l.005-16.064h-.117v-2.678H21.768v18.667H-1.406v13.77h59.453zM17.768 432.122H34.1v-24h23.947v-13H-1.406v15h19.174zM65.047 415.122H41.1v12.987h22.68v20.386h11V319.11h-13v22.666H41.23l-.003 9.063h23.82v27.696H-1.406v9.586h66.453zM61.78 513.8v22.668H41.23l-.003 9.062h23.82v20.997h9.733V513.8zM449.167 445.495h11V316.11h-13v22.666h-20.55l-.004 9.063h23.82v27.696h-147.58V347.84h23.82v-6.064h-23.868v-22h-9.667V448.11h13.667v-18.667h15.35v-15.988h-19.302v-28.333h147.58v27h-23.946v12.987h22.68zM286.138 312.776h23.667v22h16.333v-24h23.945v-13h-133.58v14.333h19.302v19.988h.12l-.002 2.678h13.548V312.11h27v143.386h-25V435.11h-11.147v20.075h-23.82v13.697h133.58v-13.697h-23.82l.005-18.742h-12.463v18.666h-27.667zM302.805 125.085h-9.667V253.42h13.667V234.75h15.35v-15.988h-19.302V190.43h147.58v27h-23.946v12.988h22.68v20.387h11V121.418h-13v22.667h-20.55l-.004 9.062h23.82v27.698h-147.58v-27.698h23.82v-6.062h-23.868zM504.543 211.764h19.303v19.988h.12l-.002 2.68h13.548v-22.668h27V355.15h-25v-20.386h-11.148v20.075h-23.82v13.696h62.595V197.43h-62.597zM547.78 445.185v27.696H400.197v-27.695h23.82v-9.063h-27.864v-22h-9.667v128.333h13.667v-18.667H419.5V510.8h-19.302V482.47h147.58v27h-23.945v12.987h22.68v20.386h11V413.456h-13v22.667h-20.55l-.004 9.063zM209.502 124.42V96.084h147.58v27H333.14v9.988h18.683v20.386h11V24.072h-13V46.74H333.27l-.004 12.063h23.82V86.5H209.5V58.802h23.82V49.74H205.46v-22h-9.668v128.333h13.667v-18.667h19.345V124.42zM276.47 260.805h-25V240.42h-11.147v20.073h-23.82v13.697h133.58v-13.697h-23.82l.005-18.74h-12.463v18.666h-27.667V118.084h23.667v22h16.333v-24h23.945v-13h-133.58v14.334h19.302v19.986h.12l-.002 2.68h13.548v-22.667h27zM14.812 124.42V96.084h147.58v27h-23.946v12.988h22.68v20.386h11V27.072h-13V49.74h-20.55l-.004 9.063h23.82V86.5H14.813V58.802h23.82V49.74H10.768v-22H1.1v128.333H14.77v-18.667h19.345V124.42zM258.47 448.496h11V319.11h-13v22.666h-20.55l-.002 9.063h23.82v27.696h-147.58V350.84h23.82v-9.064h-27.865v-22h-9.667V448.11h13.667v-18.667h19.346v-12.988h-19.303v-28.333h147.58v27h-23.945v12.987h22.68zM108.113 125.085h-9.667V253.42h13.667V234.75h19.346v-12.987h-19.303V193.43h147.58v27h-23.945v12.99h22.68v20.385h11V124.42h-13v22.665h-20.55l-.004 9.063h23.82v27.697h-147.58v-27.697h23.82v-9.063h-27.865zM407.154 354.764h-27.667V212.43h23.667v22h16.333v-24h23.947v-13h-133.58v14.334h19.3v22.667h13.667v-22.666h27V355.15h-25v-20.386h-11.147v20.075h-23.82v13.696h133.58V354.84h-23.822l.006-16.064h-.116v-2.678h-12.346zM228.805 144.406H216.46v18.667H188.79V20.74h23.667v22h16.332v-24h23.946v-13h-133.58v14.333h19.3V40.06h.12v2.68h13.548V20.072h27V163.46h-25v-20.387h-11.148v20.075h-23.82v13.697h133.58v-13.697h-23.822l.005-16.063h-.115zM357.083 448.185v27.697h-147.58v-27.697h23.82v-9.063H205.46v-22h-9.668v128.333h13.667V526.79h19.345V513.8h-19.303V485.47h147.58v27H333.14v9.987h18.683v20.386h11V413.456h-13v22.667H333.27l-.004 12.063zM419.5 141.406h-12.346v18.667h-27.667V17.74h23.667v22h16.333v-24h23.947v-13h-133.58v14.333h19.3V39.74h13.667V17.072h27V160.46h-25v-20.387h-11.147v20.074h-23.82v13.698h133.58v-13.698h-23.822l.006-16.062h-.116zM497.543 180.845v-27.698h23.82v-9.062H493.5v-22h-9.667v128.333H497.5v-18.666h19.346v-12.988h-19.303V190.43h69.596v-9.585zM119.113 455.11H91.446V312.775h23.667v22h16.333v-24h23.947v-13H21.813v14.333h19.3v19.988h.12v2.678H54.78V312.11h27v143.386h-25V435.11H45.632v20.075h-23.82v13.697h133.58v-13.697H131.57l.005-16.063h-.116v-2.68h-12.347zM131.46 241.752h-12.347v18.667H91.446V118.084h23.667v22h16.333v-24h23.947v-13H21.813v14.334h19.3v19.986h.12v2.68H54.78v-22.667h27v143.385h-25V240.42H45.632v20.073h-23.82v13.697h133.58v-13.697H131.57l.005-16.062h-.116zM547.78 250.493v27.697H400.197v-27.697h23.82v-9.062h-27.864v-22h-9.667v128.334h13.667v-18.666H419.5v-12.99h-19.302v-28.332h147.58v27h-23.945v12.988h22.68v20.385h11V218.763h-13v22.667h-20.55l-.004 9.063zM162.393 448.185v27.697H14.813v-27.697h23.82v-9.063H10.767v-22H1.1v128.333H14.77V526.79h19.345V513.8h-19.3V485.47h147.58v27h-23.947v12.987h22.68v20.386h11V416.456h-13v22.667h-20.55l-.004 9.063zM14.812 319.11v-28.334h147.58v27h-23.946v12.99h22.68v20.384h11V221.765h-13v22.666h-20.55l-.004 9.063h23.82v27.697H14.813v-27.697h23.82v-9.062H10.768v-22H1.1v128.335H14.77v-18.667h19.345v-12.99zM504.5 452.11h-27.667V309.775H500.5v22h16.333v-24h23.946v-13H407.197v14.333H426.5v19.988h.12l-.002 2.678h13.55V309.11h27v143.385h-25V432.11h-11.15v20.075H407.2v13.696h133.58v-13.695h-23.82l.004-16.063h-.116v-2.68H504.5zM351.82 348.15h11V218.763h-13v22.667H333.27l-.004 12.063h23.82v27.697H209.5v-27.697h23.82v-9.062H205.46v-22h-9.668v128.335h13.667v-18.667h19.345v-12.99h-19.303v-28.332h147.58v27H333.14v9.988h18.683zM216.46 357.765H188.79V215.43h23.667v22h16.332v-24h23.946v-13h-133.58v14.335h19.3v19.987h.12v2.68h13.548v-22.667h27V358.15h-25v-20.385h-11.148v20.074h-23.82v13.696h133.58V357.84h-23.822l.005-16.064h-.115v-2.678H216.46z"/><path d="M258.47 59.113V38.728h-22.678v11.01h-2.47v9.065h-23.82V86.5h147.58V58.802h-23.818l.004-12.064h-11.114v-6.68h-15.35V58.73H293.14V0h-7v65.728h27.667V47.06h12.463l-.006 18.743h23.82V79.5h-133.58V65.802h23.82V45.728h11.15v20.385h25V0h-7v59.113zM119.113 65.728V47.06h12.346v-7h-19.347V58.73H98.446V0h-7v65.728zM138.46 40.06h.117v2.68h-.118zM63.78 59.113V38.728H41.1v11.01h-2.468v9.065h-23.82V86.5h147.58V58.802h-23.82l.003-9.064h-7l-.005 16.063h23.823V79.5H21.813V65.802h23.82V45.728H56.78v20.385h25V0h-7v59.113zM235.805 137.406h.118v2.68h-.118zM131.46 27.073V49.74h27.665V27.072h13V156.46h-11v-20.387h-22.68v11.012h-2.467v9.063h-23.82v27.697h147.58v-27.697h-23.82l.003-9.063h-7l-.004 16.063h23.822v13.697h-133.58v-13.697h23.82v-20.075h11.148v20.386h25V20.072h-27V42.74H138.46V20.072h-19.303V5.74h133.58v13h-23.945v24H212.46v-22H188.79v142.333h27.667v-18.667h12.345v-7H209.46v18.667H195.79V27.74h9.667v22h30.333V25.737h23.945V0h-147.58v27.073zM256.47 124.42h13v129.385h-11V233.42h-22.678v11.01h-2.47v9.063h-23.82v27.697h147.58v-27.697h-23.818l.004-12.062h-11.113v-6.678h-15.35v18.667h-13.667V125.084h9.667v22h23.868v-14.012h6.465v-9.988h23.945v-27h-147.58v28.334h19.302v22.666h27.666v-22.667zm-7 15.665H235.806V117.42h-19.303v-14.335h133.58v13H326.14v24h-16.333v-22h-23.667V260.42h27.667V241.75h12.463l-.006 18.74h23.82v13.698h-133.58v-13.697h23.82V240.42h11.148v20.385h25V117.42h-27v22.665zM65.047 156.148h-23.82l.003-9.063h-7l-.005 16.063h23.822v13.697H-1.406v7h66.453zM21.768 144.406h12.345v-7H14.768v18.667H1.1V27.74h9.668v22h30.334V25.737h23.945V0H-1.406v5.74h59.453v13H34.1v24H17.77v-22H-1.406v142.333h23.174zM41.113 137.406h.12v2.68h-.12zM14.812 253.493v27.697h147.58v-27.697h-23.82l.003-9.062h-7l-.005 16.063h23.823v13.697H21.813v-13.697h23.82V240.42H56.78v20.385h25V117.42h-27v22.665H41.112V117.42h-19.3v-14.335h133.58v13h-23.946v24h-16.333v-22H91.446V260.42h27.667V241.75h12.346v-7h-19.347v18.667H98.446V125.084h9.667v22h30.333v-24h23.947v-27H14.813v28.334h19.3v22.666H61.78v-22.667h13v129.385h-11V233.42H41.1v11.01h-2.468v9.063zM138.46 234.752h.117v2.68h-.118zM209.46 350.765H195.79V222.43h9.667v22h30.333v-24h23.945v-27h-147.58v28.335h19.3v22.667h27.667v-22.667h13V351.15h-11v-20.385h-22.68v11.01h-2.467v9.064h-23.82v27.696h147.58V350.84h-23.82l.003-9.064h-7l-.004 16.063h23.822v13.696h-133.58V357.84h23.82v-20.075h11.148v20.385h25V214.765h-27v22.666H138.46v-22.665h-19.303V200.43h133.58v13h-23.945v24H212.46v-22H188.79v142.335h27.667v-18.667h12.345v-7H209.46zM235.805 332.098h.118v2.68h-.118zM306.805 448.11h-13.667V319.775h9.667v22h23.868v-14.013h6.465v-9.987h23.945v-27h-147.58v28.333h19.302v22.667h27.666v-22.668h13v129.386h-11V428.11h-22.678v11.012h-2.47v9.062h-23.82v27.697h147.58v-27.696h-23.818l.004-12.062h-11.113v-6.68h-15.35v18.667zm7-11.667h12.463l-.006 18.74h23.82v13.698h-133.58v-13.696h23.82V435.11h11.148v20.386h25V312.11h-27v22.666h-13.666V312.11H216.5v-14.334h133.582v13h-23.945v24h-16.333v-22h-23.667V455.11h27.667v-18.667zM65.047 350.84h-23.82l.003-9.064h-7l-.005 16.063h23.822v13.696H-1.406v7h66.453zM21.768 339.098h12.345v-7H14.768v18.667H1.1V222.43h9.668v22h30.334v-24h23.945v-27H-1.406v7h59.453v13H34.1v24H17.77v-22H-1.406v142.335h23.174zM41.113 332.098h.12v2.68h-.12zM112.113 448.11H98.446V319.775h9.667v22h30.333v-24h23.947v-27H14.813v28.333h19.3v22.666H61.78V319.11h13v129.386h-11V428.11H41.1v11.012h-2.468v9.063h-23.82v27.697h147.58v-27.697h-23.82l.003-9.063h-7l-.005 16.063h23.823v13.697H21.813v-13.697h23.82V435.11H56.78v20.386h25V312.11h-27v22.666H41.112v-22.668h-19.3v-14.332h133.58v13h-23.946v24h-16.333v-22H91.446V455.11h27.667v-18.667h12.346v-7h-19.347zM138.46 429.443h.117v2.68h-.118zM235.918 545.53l.003-9.062h-7l-.004 16.062h23.822v13.697h-133.58V552.53h23.82v-20.075h11.148v20.386h25V409.456h-27v22.667H138.46V409.455h-19.303v-14.333h133.58v13h-23.945v24H212.46v-22H188.79v142.333h27.667V533.79h12.345v-7H209.46v18.665H195.79V417.122h9.667v22h30.333V415.12h23.945v-27h-147.58v28.333h19.3v22.668h27.667v-22.668h13V545.84h-11v-20.385h-22.68v11.013h-2.467v9.062h-23.82v20.997h147.58V545.53zM235.805 526.79h.118v2.678h-.118zM302.805 514.468v22h23.868v-14.013h6.465v-9.987h23.945v-27h-147.58V513.8h19.302V536.47h27.666V513.8h13v52.727h7V506.8h-27v22.668H235.806V506.8h-19.303V492.47h133.58v13H326.14v24h-16.333v-22h-23.667v59.06h7v-52.06zM41.227 545.53l.003-9.062h-7l-.005 16.062h23.822v13.697H-1.406v.3h66.453V545.53zM21.768 533.79h12.345v-7H14.768v18.665H1.1V417.122h9.668v22h30.334V415.12h23.945v-27H-1.406v7h59.453v13H34.1v24H17.77v-22H-1.406v142.333h23.174zM41.113 526.79h.12v2.678h-.12zM108.113 514.468v22h30.333v-24h23.947v-27H14.813V513.8h19.3V536.47H61.78V513.8h13v52.727h7V506.8h-27v22.668H41.112V506.8h-19.3V492.47h133.58v13h-23.946v24h-16.333v-22H91.446v59.06h7v-52.06zM449.167 56.113V35.728h-22.68v11.01h-2.468v9.064h-23.822V83.5h147.58V55.8h-23.82l.004-9.063h-7l-.005 16.062h23.822V76.5H407.197V62.8h23.82V42.728h11.15v20.385h25V0h-7v56.113zM504.5 62.728V44.06h12.346v-7H497.5V55.73h-13.667V0h-7v62.728zM523.846 37.06h.118v2.68h-.118zM516.846 24.073V46.74h27.666V24.072h13V153.46h-11v-20.387h-22.68v11.012h-2.468v9.062h-23.82v27.698h69.595v-7h-62.597v-13.698h23.82v-20.074h11.15v20.386h25V17.072h-27V39.74H523.845V17.072h-19.303V2.74h62.596V0h-69.597v24.073zM426.5 134.406h.118v2.68h-.118zM322.154 24.073V46.74h27.667V24.072h13V153.46h-11v-20.387h-25.147v20.074h-23.82v27.698h147.58v-27.698h-23.82l.003-9.062h-7l-.005 16.062h23.824v13.698h-133.58v-13.698h23.82v-20.074h11.147v20.386h25V17.072h-27V39.74h-13.666V17.072h-19.3V2.74h133.58v13h-23.947v24h-16.333v-22h-23.667v142.333h27.667v-18.667H419.5v-7h-19.346v18.667h-13.667V24.74h9.667v22H426.486V22.737h23.947V0h-147.58v24.073zM523.846 231.752h.118v2.68h-.118zM523.833 133.073v-12.988h23.946v-27H400.197v28.333H419.5v22.668h27.666v-22.668h13v129.387h-11v-20.387h-22.68v11.013h-2.467v9.063h-23.822v27.697h147.58v-27.697h-23.82l.004-9.062h-7l-.005 16.063h23.822v13.697H407.197v-13.697h23.82v-20.075h11.15v20.387h25V114.418h-27v22.667H426.5V114.418h-19.302v-14.333h133.58v13h-23.945v24H500.5v-22h-23.667v142.333H504.5v-18.666h12.346v-7H497.5v18.666h-13.667V122.085h9.667v22h30.334zM497.543 218.764h19.303v22.668h27.666v-22.668h13V348.15h-11v-20.386h-22.68v11.012h-2.468v9.063h-23.82v27.696h69.595v-7h-62.597V354.84h23.82v-20.076h11.15v20.385h25V211.763h-27v22.667H523.845v-22.666h-19.303V197.43h62.596v-7h-69.597zM450.434 217.43v-27h-147.58v28.334h19.3v22.668h27.667v-22.668h13V348.15h-11v-20.386h-25.147v20.075h-23.82v27.696h147.58V347.84h-23.82l.003-9.064h-7l-.005 16.063h23.824v13.696h-133.58V354.84h23.82v-20.076h11.147v20.385h25V211.763h-27v22.667h-13.666v-22.666h-19.3V197.43h133.58v13h-23.947v24h-16.333v-22h-23.667v142.334h27.667v-18.666H419.5v-7h-19.346v18.666h-13.667V219.43h9.667v22H426.486V217.432zM426.5 329.098h.118v2.68h-.118zM547.78 314.776v-27H400.197v28.333H419.5v22.666h27.666V316.11h13v129.385h-11V425.11h-22.68v11.012h-2.467v9.063h-23.822v27.696h147.58v-27.695h-23.82l.004-9.063h-7l-.005 16.063h23.822v13.696H407.197v-13.695h23.82V432.11h11.15v20.385h25V309.11h-27v22.666H426.5v-22.668h-19.302v-14.332h133.58v13h-23.945v24H500.5v-22h-23.667V452.11H504.5v-18.667h12.346v-7H497.5v18.666h-13.667V316.775h9.667v22h30.334v-24zM523.846 426.443h.118v2.68h-.118zM497.543 413.455h19.303v22.668h27.666v-22.668h13V542.84h-11v-20.385h-22.68v11.013h-2.468v9.062h-23.82v23.997h69.595v-3.3h-62.597V549.53h23.82v-20.075h11.15v20.386h25V406.456h-27v22.667H523.845V406.455h-19.303v-14.333h62.596v-7h-69.597zM426.5 523.788h.118v2.68h-.118zM426.613 542.53l.003-9.062h-7l-.005 16.062h23.824v13.697h-133.58V549.53h23.82v-20.075h11.147v20.386h25V406.456h-27v22.667h-13.666v-22.667h-19.3v-14.333h133.58v13h-23.947v24h-16.333v-22h-23.667v142.333h27.667v-18.667H419.5v-7h-19.346v18.667h-13.667V414.122h9.667v22H426.486V412.12h23.947v-27h-147.58v28.333h19.3v22.668h27.667v-22.668h13V542.84h-11v-20.385h-25.147v20.075h-23.82v23.997h147.58V542.53zM493.5 511.468v22h30.334v-24h23.945v-27H400.197V510.8H419.5v22.668h27.666V510.8h13v55.727h7V503.8h-27v22.668H426.5V503.8h-19.302V489.47h133.58v13h-23.945v24H500.5v-22h-23.667v62.06h7v-55.06z"/></g></svg>