<svg xmlns="http://www.w3.org/2000/svg" xmlns:xlink="http://www.w3.org/1999/xlink" width="566.93" height="566.93" viewBox="0 0 566.93 566.93"><pattern x="-4292.146" y="-624" width="14.958" height="20.05" patternUnits="userSpaceOnUse" viewBox="0 -20.05 14.958 20.05" overflow="visible"><path fill="none" d="M0 0h14.958v-20.05H0zM9.773 0h5.185v-5.75c-.633.584-1.34 1.083-2.02 1.557C11.24-3.008 9.772-1.985 9.772 0zM12.938-15.858c.68.474 1.388.973 2.02 1.556v-5.747H9.774c0 1.985 1.467 3.008 3.165 4.192zM11.794-5.833c1.697-1.185 3.164-2.208 3.164-4.193 0-1.984-1.467-3.007-3.164-4.19-1.885-1.315-4.02-2.806-4.02-5.833h-5.48c0 1.985 1.467 3.008 3.165 4.192 1.884 1.314 4.02 2.805 4.02 5.832 0 3.028-2.136 4.52-4.02 5.833C3.76-3.008 2.293-1.985 2.293 0h5.48c0-3.028 2.135-4.52 4.02-5.833zM4.314-5.833C6.012-7.018 7.48-8.04 7.48-10.026c0-1.984-1.468-3.007-3.166-4.19C2.43-15.532.294-17.022.294-20.05H0v5.748c1.123 1.035 2 2.34 2 4.276C2-8.09 1.123-6.784 0-5.75V0h.294c0-3.028 2.136-4.52 4.02-5.833z"/><path fill="#1E1E1C" d="M2-10.026c0-1.937-.877-3.24-2-4.276v8.553c1.123-1.034 2-2.34 2-4.276zM5.46-4.193c1.884-1.315 4.02-2.805 4.02-5.833 0-3.027-2.136-4.518-4.02-5.832-1.7-1.185-3.166-2.207-3.166-4.19h-2c0 3.027 2.136 4.517 4.02 5.83 1.7 1.186 3.166 2.21 3.166 4.192 0 1.985-1.467 3.008-3.165 4.193C2.43-4.52.295-3.028.295 0h2c0-1.985 1.466-3.008 3.164-4.193zM12.938-4.193c.68-.474 1.388-.973 2.02-1.556v-4.276c0 1.985-1.466 3.008-3.163 4.193C9.91-4.52 7.773-3.028 7.773 0h2c0-1.985 1.467-3.008 3.165-4.193zM11.794-14.218c1.697 1.184 3.164 2.207 3.164 4.19v-4.275c-.633-.583-1.34-1.082-2.02-1.556-1.698-1.183-3.165-2.206-3.165-4.19h-2c0 3.028 2.136 4.518 4.02 5.832z"/></pattern><g><defs><path id="a" d="M0-624h566.93v566.93H0z"/></defs><clipPath id="b"><use xlink:href="#a" overflow="visible"/></clipPath><path d="M47.522.497c-40.886 0-74.15-33.264-74.15-74.15S6.638-147.8 47.523-147.8s74.15 33.263 74.15 74.148S88.407.498 47.52.498zm0-140.3c-36.475 0-66.15 29.676-66.15 66.15s29.675 66.15 66.15 66.15 66.15-29.675 66.15-66.15-29.675-66.15-66.15-66.15zM205.605.497c-40.886 0-74.15-33.264-74.15-74.15s33.265-74.148 74.15-74.148 74.15 33.263 74.15 74.148S246.49.498 205.604.498zm0-140.3c-36.475 0-66.15 29.676-66.15 66.15s29.675 66.15 66.15 66.15 66.15-29.675 66.15-66.15-29.675-66.15-66.15-66.15zM363.688.497c-40.886 0-74.15-33.264-74.15-74.15s33.265-74.148 74.15-74.148 74.15 33.263 74.15 74.148S404.573.498 363.687.498zm0-140.3c-36.475 0-66.15 29.676-66.15 66.15s29.676 66.15 66.15 66.15 66.15-29.676 66.15-66.15-29.675-66.15-66.15-66.15zM521.77.497c-40.886 0-74.15-33.264-74.15-74.15s33.265-74.148 74.15-74.148 74.15 33.263 74.15 74.148S562.655.498 521.77.498zm0-140.3c-36.475 0-66.15 29.676-66.15 66.15s29.675 66.15 66.15 66.15 66.15-29.675 66.15-66.15-29.675-66.15-66.15-66.15z" clip-path="url(#b)"/><defs><path id="c" d="M609.127-624.3h566.93v566.93h-566.93z"/></defs><clipPath id="d"><use xlink:href="#c" overflow="visible"/></clipPath><g clip-path="url(#d)" fill="#fff" stroke="#000" stroke-miterlimit="10"><circle stroke-width="8" cx="569.581" cy="-40.531" r="70.149"/><circle stroke-width="7" cx="569.581" cy="-40.531" r="52.612"/></g><defs><path id="e" d="M0-.402h566.93V566.93H0z"/></defs><clipPath id="f"><use xlink:href="#e" overflow="visible"/></clipPath><path clip-path="url(#f)" fill="url(#SVGID_8_)" d="M1.404-.402H566.93V566.93H1.404z"/></g></svg>