<svg xmlns="http://www.w3.org/2000/svg" xmlns:xlink="http://www.w3.org/1999/xlink" width="566.93" height="566.93" viewBox="0 0 566.93 566.93"><g><defs><path id="a" d="M-612 0h566.93v566.93H-612z"/></defs><clipPath id="b"><use xlink:href="#a" overflow="visible"/></clipPath><g clip-path="url(#b)"><circle fill="#fff" cx="-10.824" cy="35.49" r="70.149"/><path d="M-10.825 109.64c-40.886 0-74.148-33.263-74.148-74.15s33.263-74.148 74.148-74.148 74.15 33.262 74.15 74.148-33.264 74.15-74.15 74.15zm0-140.3c-36.475 0-66.148 29.675-66.148 66.15s29.674 66.15 66.148 66.15 66.15-29.675 66.15-66.15-29.675-66.15-66.15-66.15z"/><circle fill="#fff" cx="-10.824" cy="35.49" r="52.612"/><path d="M-10.825 91.602c-30.94 0-56.11-25.172-56.11-56.112s25.17-56.112 56.11-56.112c30.94 0 56.112 25.172 56.112 56.112s-25.17 56.112-56.112 56.112zm0-105.224c-27.08 0-49.11 22.032-49.11 49.112s22.03 49.112 49.11 49.112 49.112-22.03 49.112-49.112-22.03-49.112-49.112-49.112z"/><circle fill="#fff" cx="-10.824" cy="35.49" r="34.329"/><path d="M-10.825 72.82c-20.583 0-37.33-16.747-37.33-37.33s16.747-37.33 37.33-37.33c20.584 0 37.33 16.746 37.33 37.33S9.76 72.82-10.825 72.82zm0-68.66c-17.275 0-31.33 14.055-31.33 31.33 0 17.276 14.055 31.33 31.33 31.33s31.33-14.054 31.33-31.33c0-17.275-14.054-31.33-31.33-31.33z"/><circle fill="#fff" stroke="#000" stroke-width="5" stroke-miterlimit="10" cx="-10.824" cy="35.49" r="20.941"/></g><g clip-path="url(#b)" fill="#fff" stroke="#000" stroke-miterlimit="10"><circle stroke-width="8" cx="67.853" cy="73.372" r="70.149"/><circle stroke-width="7" cx="67.853" cy="73.372" r="52.612"/><circle stroke-width="6" cx="67.853" cy="73.372" r="34.329"/><circle stroke-width="5" cx="67.853" cy="73.372" r="20.941"/><circle stroke-width="4" cx="67.853" cy="73.372" r="7.748"/></g><g clip-path="url(#b)"><circle fill="#fff" cx="-10.824" cy="114.986" r="70.149"/><path d="M-10.825 189.136c-40.886 0-74.148-33.263-74.148-74.15S-51.71 40.84-10.825 40.84s74.15 33.262 74.15 74.148-33.264 74.15-74.15 74.15zm0-140.3c-36.475 0-66.148 29.675-66.148 66.15s29.674 66.15 66.148 66.15 66.15-29.675 66.15-66.15-29.675-66.15-66.15-66.15z"/><circle fill="#fff" cx="-10.824" cy="114.986" r="52.612"/><path d="M-10.825 171.098c-30.94 0-56.11-25.172-56.11-56.112s25.17-56.112 56.11-56.112c30.94 0 56.112 25.172 56.112 56.112s-25.17 56.112-56.112 56.112zm0-105.224c-27.08 0-49.11 22.032-49.11 49.112s22.03 49.112 49.11 49.112 49.112-22.03 49.112-49.112-22.03-49.112-49.112-49.112z"/><circle fill="#fff" cx="-10.824" cy="114.986" r="34.329"/><path d="M-10.825 152.315c-20.583 0-37.33-16.746-37.33-37.33s16.747-37.33 37.33-37.33c20.584 0 37.33 16.747 37.33 37.33s-16.746 37.33-37.33 37.33zm0-68.658c-17.275 0-31.33 14.054-31.33 31.33 0 17.275 14.055 31.33 31.33 31.33s31.33-14.055 31.33-31.33c0-17.276-14.054-31.33-31.33-31.33z"/><circle fill="#fff" stroke="#000" stroke-width="5" stroke-miterlimit="10" cx="-10.824" cy="114.986" r="20.941"/></g><g clip-path="url(#b)" fill="#fff" stroke="#000" stroke-miterlimit="10"><circle stroke-width="8" cx="67.853" cy="152.868" r="70.149"/><circle stroke-width="7" cx="67.853" cy="152.868" r="52.612"/><circle stroke-width="6" cx="67.853" cy="152.868" r="34.329"/><circle stroke-width="5" cx="67.853" cy="152.868" r="20.941"/><circle stroke-width="4" cx="67.853" cy="152.868" r="7.748"/></g><g clip-path="url(#b)"><circle fill="#fff" cx="-10.824" cy="194.482" r="70.149"/><path d="M-10.825 268.632c-40.886 0-74.148-33.263-74.148-74.15s33.263-74.148 74.148-74.148 74.15 33.263 74.15 74.15-33.264 74.148-74.15 74.148zm0-140.3c-36.475 0-66.148 29.675-66.148 66.15s29.674 66.15 66.148 66.15 66.15-29.675 66.15-66.15-29.675-66.15-66.15-66.15z"/><circle fill="#fff" cx="-10.824" cy="194.482" r="52.612"/><path d="M-10.825 250.594c-30.94 0-56.11-25.172-56.11-56.112s25.17-56.112 56.11-56.112c30.94 0 56.112 25.172 56.112 56.112s-25.17 56.112-56.112 56.112zm0-105.224c-27.08 0-49.11 22.032-49.11 49.112s22.03 49.112 49.11 49.112 49.112-22.03 49.112-49.112-22.03-49.112-49.112-49.112z"/><circle fill="#fff" cx="-10.824" cy="194.482" r="34.329"/><path d="M-10.825 231.812c-20.583 0-37.33-16.746-37.33-37.33s16.747-37.33 37.33-37.33c20.584 0 37.33 16.747 37.33 37.33s-16.746 37.33-37.33 37.33zm0-68.66c-17.275 0-31.33 14.055-31.33 31.33 0 17.276 14.055 31.33 31.33 31.33s31.33-14.054 31.33-31.33c0-17.275-14.054-31.33-31.33-31.33z"/><circle fill="#fff" stroke="#000" stroke-width="5" stroke-miterlimit="10" cx="-10.824" cy="194.482" r="20.941"/></g><g clip-path="url(#b)" fill="#fff" stroke="#000" stroke-miterlimit="10"><circle stroke-width="8" cx="67.853" cy="232.364" r="70.149"/><circle stroke-width="7" cx="67.853" cy="232.364" r="52.612"/><circle stroke-width="6" cx="67.853" cy="232.364" r="34.329"/><circle stroke-width="5" cx="67.853" cy="232.364" r="20.941"/><circle stroke-width="4" cx="67.853" cy="232.364" r="7.748"/></g><g clip-path="url(#b)"><circle fill="#fff" cx="-10.824" cy="273.978" r="70.149"/><path d="M-10.825 348.128c-40.886 0-74.148-33.264-74.148-74.15s33.263-74.15 74.148-74.15 74.15 33.264 74.15 74.15-33.264 74.15-74.15 74.15zm0-140.3c-36.475 0-66.148 29.675-66.148 66.15 0 36.475 29.674 66.15 66.148 66.15s66.15-29.675 66.15-66.15c0-36.475-29.675-66.15-66.15-66.15z"/><circle fill="#fff" cx="-10.824" cy="273.978" r="52.612"/><path d="M-10.825 330.09c-30.94 0-56.11-25.172-56.11-56.112s25.17-56.112 56.11-56.112c30.94 0 56.112 25.172 56.112 56.112s-25.17 56.112-56.112 56.112zm0-105.224c-27.08 0-49.11 22.03-49.11 49.112s22.03 49.112 49.11 49.112 49.112-22.03 49.112-49.112-22.03-49.112-49.112-49.112z"/><circle fill="#fff" cx="-10.824" cy="273.978" r="34.329"/><path d="M-10.825 311.308c-20.583 0-37.33-16.746-37.33-37.33s16.747-37.33 37.33-37.33c20.584 0 37.33 16.747 37.33 37.33s-16.746 37.33-37.33 37.33zm0-68.66c-17.275 0-31.33 14.055-31.33 31.33s14.055 31.33 31.33 31.33 31.33-14.055 31.33-31.33-14.054-31.33-31.33-31.33z"/><circle fill="#fff" stroke="#000" stroke-width="5" stroke-miterlimit="10" cx="-10.824" cy="273.978" r="20.941"/></g><g clip-path="url(#b)" fill="#fff" stroke="#000" stroke-miterlimit="10"><circle stroke-width="8" cx="67.853" cy="311.86" r="70.149"/><circle stroke-width="7" cx="67.853" cy="311.86" r="52.612"/><circle stroke-width="6" cx="67.853" cy="311.86" r="34.329"/><circle stroke-width="5" cx="67.853" cy="311.86" r="20.941"/><circle stroke-width="4" cx="67.853" cy="311.86" r="7.748"/></g><g clip-path="url(#b)"><circle fill="#fff" cx="-10.824" cy="353.474" r="70.149"/><path d="M-10.825 427.624c-40.886 0-74.148-33.264-74.148-74.15s33.263-74.15 74.148-74.15 74.15 33.264 74.15 74.15-33.264 74.15-74.15 74.15zm0-140.3c-36.475 0-66.148 29.675-66.148 66.15 0 36.475 29.674 66.15 66.148 66.15s66.15-29.676 66.15-66.15c0-36.475-29.675-66.15-66.15-66.15z"/><circle fill="#fff" cx="-10.824" cy="353.474" r="52.612"/><path d="M-10.825 409.586c-30.94 0-56.11-25.172-56.11-56.11 0-30.94 25.17-56.113 56.11-56.113 30.94 0 56.112 25.172 56.112 56.112s-25.17 56.11-56.112 56.11zm0-105.224c-27.08 0-49.11 22.03-49.11 49.112 0 27.08 22.03 49.11 49.11 49.11s49.112-22.03 49.112-49.11-22.03-49.112-49.112-49.112z"/><circle fill="#fff" cx="-10.824" cy="353.474" r="34.329"/><path d="M-10.825 390.804c-20.583 0-37.33-16.746-37.33-37.33 0-20.583 16.747-37.33 37.33-37.33 20.584 0 37.33 16.747 37.33 37.33 0 20.584-16.746 37.33-37.33 37.33zm0-68.66c-17.275 0-31.33 14.056-31.33 31.33s14.055 31.33 31.33 31.33 31.33-14.054 31.33-31.33-14.054-31.33-31.33-31.33z"/><circle fill="#fff" stroke="#000" stroke-width="5" stroke-miterlimit="10" cx="-10.824" cy="353.474" r="20.941"/></g><g clip-path="url(#b)" fill="#fff" stroke="#000" stroke-miterlimit="10"><circle stroke-width="8" cx="67.853" cy="391.356" r="70.149"/><circle stroke-width="7" cx="67.853" cy="391.356" r="52.612"/><circle stroke-width="6" cx="67.853" cy="391.356" r="34.329"/><circle stroke-width="5" cx="67.853" cy="391.356" r="20.941"/><circle stroke-width="4" cx="67.853" cy="391.356" r="7.748"/></g><g clip-path="url(#b)"><circle fill="#fff" cx="-10.824" cy="432.97" r="70.149"/><path d="M-10.825 507.12c-40.886 0-74.148-33.264-74.148-74.15s33.263-74.148 74.148-74.148 74.15 33.264 74.15 74.15-33.264 74.148-74.15 74.148zm0-140.3c-36.475 0-66.148 29.676-66.148 66.15s29.674 66.15 66.148 66.15 66.15-29.676 66.15-66.15-29.675-66.15-66.15-66.15z"/><circle fill="#fff" cx="-10.824" cy="432.97" r="52.612"/><path d="M-10.825 489.082c-30.94 0-56.11-25.172-56.11-56.11 0-30.94 25.17-56.113 56.11-56.113 30.94 0 56.112 25.17 56.112 56.11 0 30.94-25.17 56.112-56.112 56.112zm0-105.224c-27.08 0-49.11 22.03-49.11 49.112 0 27.08 22.03 49.11 49.11 49.11s49.112-22.03 49.112-49.11-22.03-49.112-49.112-49.112z"/><circle fill="#fff" cx="-10.824" cy="432.97" r="34.329"/><path d="M-10.825 470.3c-20.583 0-37.33-16.746-37.33-37.33 0-20.583 16.747-37.33 37.33-37.33 20.584 0 37.33 16.747 37.33 37.33 0 20.584-16.746 37.33-37.33 37.33zm0-68.66c-17.275 0-31.33 14.056-31.33 31.33s14.055 31.33 31.33 31.33 31.33-14.054 31.33-31.33-14.054-31.33-31.33-31.33z"/><circle fill="#fff" stroke="#000" stroke-width="5" stroke-miterlimit="10" cx="-10.824" cy="432.97" r="20.941"/></g><g clip-path="url(#b)" fill="#fff" stroke="#000" stroke-miterlimit="10"><circle stroke-width="8" cx="67.853" cy="470.852" r="70.149"/><circle stroke-width="7" cx="67.853" cy="470.852" r="52.612"/><circle stroke-width="6" cx="67.853" cy="470.852" r="34.329"/><circle stroke-width="5" cx="67.853" cy="470.852" r="20.941"/><circle stroke-width="4" cx="67.853" cy="470.852" r="7.748"/></g><g clip-path="url(#b)"><circle fill="#fff" cx="-10.824" cy="512.466" r="70.149"/><path d="M-10.825 586.615c-40.886 0-74.148-33.263-74.148-74.148s33.263-74.15 74.148-74.15 74.15 33.265 74.15 74.15-33.264 74.148-74.15 74.148zm0-140.298c-36.475 0-66.148 29.675-66.148 66.15s29.674 66.147 66.148 66.147 66.15-29.674 66.15-66.148-29.675-66.15-66.15-66.15z"/><circle fill="#fff" cx="-10.824" cy="512.466" r="52.612"/><path d="M-10.825 568.578c-30.94 0-56.11-25.172-56.11-56.11 0-30.94 25.17-56.113 56.11-56.113 30.94 0 56.112 25.172 56.112 56.112s-25.17 56.11-56.112 56.11zm0-105.224c-27.08 0-49.11 22.03-49.11 49.112 0 27.08 22.03 49.11 49.11 49.11s49.112-22.03 49.112-49.11-22.03-49.112-49.112-49.112z"/><circle fill="#fff" cx="-10.824" cy="512.466" r="34.329"/><path d="M-10.825 549.796c-20.583 0-37.33-16.746-37.33-37.33 0-20.583 16.747-37.33 37.33-37.33 20.584 0 37.33 16.747 37.33 37.33 0 20.584-16.746 37.33-37.33 37.33zm0-68.66c-17.275 0-31.33 14.056-31.33 31.33s14.055 31.33 31.33 31.33 31.33-14.054 31.33-31.33-14.054-31.33-31.33-31.33z"/><circle fill="#fff" stroke="#000" stroke-width="5" stroke-miterlimit="10" cx="-10.824" cy="512.466" r="20.941"/></g><g clip-path="url(#b)" fill="#fff" stroke="#000" stroke-miterlimit="10"><circle stroke-width="8" cx="67.853" cy="550.348" r="70.149"/><circle stroke-width="7" cx="67.853" cy="550.348" r="52.612"/><circle stroke-width="6" cx="67.853" cy="550.348" r="34.329"/><circle stroke-width="5" cx="67.853" cy="550.348" r="20.941"/><circle stroke-width="4" cx="67.853" cy="550.348" r="7.748"/></g><defs><path id="c" d="M-2.873-.3h566.93v566.93H-2.874z"/></defs><clipPath id="d"><use xlink:href="#c" overflow="visible"/></clipPath><g clip-path="url(#d)" fill="#fff" stroke="#000" stroke-miterlimit="10"><circle stroke-width="8" cx="365.478" cy="-.386" r="70.149"/><circle stroke-width="7" cx="365.478" cy="-.386" r="52.612"/><circle stroke-width="6" cx="365.478" cy="-.386" r="34.329"/><circle stroke-width="5" cx="365.478" cy="-.386" r="20.941"/><circle stroke-width="4" cx="365.478" cy="-.386" r="7.748"/></g><g clip-path="url(#d)" fill="#fff" stroke="#000" stroke-miterlimit="10"><circle stroke-width="8" cx="201.232" cy="-.386" r="70.149"/><circle stroke-width="7" cx="201.232" cy="-.386" r="52.612"/><circle stroke-width="6" cx="201.232" cy="-.386" r="34.329"/><circle stroke-width="5" cx="201.232" cy="-.386" r="20.941"/><circle stroke-width="4" cx="201.232" cy="-.386" r="7.748"/></g><g clip-path="url(#d)" fill="#fff" stroke="#000" stroke-miterlimit="10"><circle stroke-width="8" cx="36.986" cy="-.386" r="70.149"/><circle stroke-width="7" cx="36.986" cy="-.386" r="52.612"/><circle stroke-width="6" cx="36.986" cy="-.386" r="34.329"/><circle stroke-width="5" cx="36.986" cy="-.386" r="20.941"/><circle stroke-width="4" cx="36.986" cy="-.386" r="7.748"/></g><g clip-path="url(#d)" fill="#fff" stroke="#000" stroke-miterlimit="10"><circle stroke-width="8" cx="529.724" cy="-.386" r="70.149"/><circle stroke-width="7" cx="529.724" cy="-.386" r="52.612"/><circle stroke-width="6" cx="529.724" cy="-.386" r="34.329"/><circle stroke-width="5" cx="529.724" cy="-.386" r="20.941"/><circle stroke-width="4" cx="529.724" cy="-.386" r="7.748"/></g><g clip-path="url(#d)" fill="#fff" stroke="#000" stroke-miterlimit="10"><circle stroke-width="8" cx="614.564" cy="37.496" r="70.149"/><circle stroke-width="7" cx="614.564" cy="37.496" r="52.612"/></g><g clip-path="url(#d)" fill="#fff" stroke="#000" stroke-miterlimit="10"><circle stroke-width="8" cx="450.318" cy="37.496" r="70.149"/><circle stroke-width="7" cx="450.318" cy="37.496" r="52.612"/><circle stroke-width="6" cx="450.318" cy="37.496" r="34.329"/><circle stroke-width="5" cx="450.318" cy="37.496" r="20.941"/><circle stroke-width="4" cx="450.318" cy="37.496" r="7.748"/></g><g clip-path="url(#d)" fill="#fff" stroke="#000" stroke-miterlimit="10"><circle stroke-width="8" cx="286.073" cy="37.496" r="70.149"/><circle stroke-width="7" cx="286.073" cy="37.496" r="52.612"/><circle stroke-width="6" cx="286.073" cy="37.496" r="34.329"/><circle stroke-width="5" cx="286.073" cy="37.496" r="20.941"/><circle stroke-width="4" cx="286.073" cy="37.496" r="7.748"/></g><g clip-path="url(#d)" fill="#fff" stroke="#000" stroke-miterlimit="10"><circle stroke-width="8" cx="121.827" cy="37.496" r="70.149"/><circle stroke-width="7" cx="121.827" cy="37.496" r="52.612"/><circle stroke-width="6" cx="121.827" cy="37.496" r="34.329"/><circle stroke-width="5" cx="121.827" cy="37.496" r="20.941"/><circle stroke-width="4" cx="121.827" cy="37.496" r="7.748"/></g><g clip-path="url(#d)" fill="#fff" stroke="#000" stroke-miterlimit="10"><circle stroke-width="8" cx="-42.419" cy="37.496" r="70.149"/><circle stroke-width="7" cx="-42.419" cy="37.496" r="52.612"/></g><g clip-path="url(#d)" fill="#fff" stroke="#000" stroke-miterlimit="10"><circle stroke-width="8" cx="365.478" cy="77.611" r="70.149"/><circle stroke-width="7" cx="365.478" cy="77.611" r="52.612"/><circle stroke-width="6" cx="365.478" cy="77.611" r="34.329"/><circle stroke-width="5" cx="365.478" cy="77.611" r="20.941"/><circle stroke-width="4" cx="365.478" cy="77.611" r="7.748"/></g><g clip-path="url(#d)" fill="#fff" stroke="#000" stroke-miterlimit="10"><circle stroke-width="8" cx="201.232" cy="77.611" r="70.149"/><circle stroke-width="7" cx="201.232" cy="77.611" r="52.612"/><circle stroke-width="6" cx="201.232" cy="77.611" r="34.329"/><circle stroke-width="5" cx="201.232" cy="77.611" r="20.941"/><circle stroke-width="4" cx="201.232" cy="77.611" r="7.748"/></g><g clip-path="url(#d)" fill="#fff" stroke="#000" stroke-miterlimit="10"><circle stroke-width="8" cx="36.986" cy="77.611" r="70.149"/><circle stroke-width="7" cx="36.986" cy="77.611" r="52.612"/><circle stroke-width="6" cx="36.986" cy="77.611" r="34.329"/><circle stroke-width="5" cx="36.986" cy="77.611" r="20.941"/><circle stroke-width="4" cx="36.986" cy="77.611" r="7.748"/></g><g clip-path="url(#d)" fill="#fff" stroke="#000" stroke-miterlimit="10"><circle stroke-width="8" cx="529.724" cy="77.611" r="70.149"/><circle stroke-width="7" cx="529.724" cy="77.611" r="52.612"/><circle stroke-width="6" cx="529.724" cy="77.611" r="34.329"/><circle stroke-width="5" cx="529.724" cy="77.611" r="20.941"/><circle stroke-width="4" cx="529.724" cy="77.611" r="7.748"/></g><g clip-path="url(#d)" fill="#fff" stroke="#000" stroke-miterlimit="10"><circle stroke-width="8" cx="614.564" cy="115.492" r="70.149"/><circle stroke-width="7" cx="614.564" cy="115.492" r="52.612"/></g><g clip-path="url(#d)" fill="#fff" stroke="#000" stroke-miterlimit="10"><circle stroke-width="8" cx="450.318" cy="115.492" r="70.149"/><circle stroke-width="7" cx="450.318" cy="115.492" r="52.612"/><circle stroke-width="6" cx="450.318" cy="115.492" r="34.329"/><circle stroke-width="5" cx="450.318" cy="115.492" r="20.941"/><circle stroke-width="4" cx="450.318" cy="115.492" r="7.748"/></g><g clip-path="url(#d)" fill="#fff" stroke="#000" stroke-miterlimit="10"><circle stroke-width="8" cx="286.073" cy="115.492" r="70.149"/><circle stroke-width="7" cx="286.073" cy="115.492" r="52.612"/><circle stroke-width="6" cx="286.073" cy="115.492" r="34.329"/><circle stroke-width="5" cx="286.073" cy="115.492" r="20.941"/><circle stroke-width="4" cx="286.073" cy="115.492" r="7.748"/></g><g clip-path="url(#d)" fill="#fff" stroke="#000" stroke-miterlimit="10"><circle stroke-width="8" cx="121.827" cy="115.492" r="70.149"/><circle stroke-width="7" cx="121.827" cy="115.492" r="52.612"/><circle stroke-width="6" cx="121.827" cy="115.492" r="34.329"/><circle stroke-width="5" cx="121.827" cy="115.492" r="20.941"/><circle stroke-width="4" cx="121.827" cy="115.492" r="7.748"/></g><g clip-path="url(#d)" fill="#fff" stroke="#000" stroke-miterlimit="10"><circle stroke-width="8" cx="-42.419" cy="115.492" r="70.149"/><circle stroke-width="7" cx="-42.419" cy="115.492" r="52.612"/></g><g clip-path="url(#d)" fill="#fff" stroke="#000" stroke-miterlimit="10"><circle stroke-width="8" cx="365.478" cy="155.607" r="70.149"/><circle stroke-width="7" cx="365.478" cy="155.607" r="52.612"/><circle stroke-width="6" cx="365.478" cy="155.607" r="34.329"/><circle stroke-width="5" cx="365.478" cy="155.607" r="20.941"/><circle stroke-width="4" cx="365.478" cy="155.607" r="7.748"/></g><g clip-path="url(#d)" fill="#fff" stroke="#000" stroke-miterlimit="10"><circle stroke-width="8" cx="201.232" cy="155.607" r="70.149"/><circle stroke-width="7" cx="201.232" cy="155.607" r="52.612"/><circle stroke-width="6" cx="201.232" cy="155.607" r="34.329"/><circle stroke-width="5" cx="201.232" cy="155.607" r="20.941"/><circle stroke-width="4" cx="201.232" cy="155.607" r="7.748"/></g><g clip-path="url(#d)" fill="#fff" stroke="#000" stroke-miterlimit="10"><circle stroke-width="8" cx="36.986" cy="155.607" r="70.149"/><circle stroke-width="7" cx="36.986" cy="155.607" r="52.612"/><circle stroke-width="6" cx="36.986" cy="155.607" r="34.329"/><circle stroke-width="5" cx="36.986" cy="155.607" r="20.941"/><circle stroke-width="4" cx="36.986" cy="155.607" r="7.748"/></g><g clip-path="url(#d)" fill="#fff" stroke="#000" stroke-miterlimit="10"><circle stroke-width="8" cx="529.724" cy="155.607" r="70.149"/><circle stroke-width="7" cx="529.724" cy="155.607" r="52.612"/><circle stroke-width="6" cx="529.724" cy="155.607" r="34.329"/><circle stroke-width="5" cx="529.724" cy="155.607" r="20.941"/><circle stroke-width="4" cx="529.724" cy="155.607" r="7.748"/></g><g clip-path="url(#d)" fill="#fff" stroke="#000" stroke-miterlimit="10"><circle stroke-width="8" cx="614.564" cy="193.488" r="70.149"/><circle stroke-width="7" cx="614.564" cy="193.488" r="52.612"/></g><g clip-path="url(#d)" fill="#fff" stroke="#000" stroke-miterlimit="10"><circle stroke-width="8" cx="450.318" cy="193.488" r="70.149"/><circle stroke-width="7" cx="450.318" cy="193.488" r="52.612"/><circle stroke-width="6" cx="450.318" cy="193.488" r="34.329"/><circle stroke-width="5" cx="450.318" cy="193.488" r="20.941"/><circle stroke-width="4" cx="450.318" cy="193.488" r="7.748"/></g><g clip-path="url(#d)" fill="#fff" stroke="#000" stroke-miterlimit="10"><circle stroke-width="8" cx="286.073" cy="193.488" r="70.149"/><circle stroke-width="7" cx="286.073" cy="193.488" r="52.612"/><circle stroke-width="6" cx="286.073" cy="193.488" r="34.329"/><circle stroke-width="5" cx="286.073" cy="193.488" r="20.941"/><circle stroke-width="4" cx="286.073" cy="193.488" r="7.748"/></g><g clip-path="url(#d)" fill="#fff" stroke="#000" stroke-miterlimit="10"><circle stroke-width="8" cx="121.827" cy="193.488" r="70.149"/><circle stroke-width="7" cx="121.827" cy="193.488" r="52.612"/><circle stroke-width="6" cx="121.827" cy="193.488" r="34.329"/><circle stroke-width="5" cx="121.827" cy="193.488" r="20.941"/><circle stroke-width="4" cx="121.827" cy="193.488" r="7.748"/></g><g clip-path="url(#d)" fill="#fff" stroke="#000" stroke-miterlimit="10"><circle stroke-width="8" cx="-42.419" cy="193.488" r="70.149"/><circle stroke-width="7" cx="-42.419" cy="193.488" r="52.612"/></g><g clip-path="url(#d)" fill="#fff" stroke="#000" stroke-miterlimit="10"><circle stroke-width="8" cx="365.478" cy="233.603" r="70.149"/><circle stroke-width="7" cx="365.478" cy="233.603" r="52.612"/><circle stroke-width="6" cx="365.478" cy="233.603" r="34.329"/><circle stroke-width="5" cx="365.478" cy="233.603" r="20.941"/><circle stroke-width="4" cx="365.478" cy="233.603" r="7.748"/></g><g clip-path="url(#d)" fill="#fff" stroke="#000" stroke-miterlimit="10"><circle stroke-width="8" cx="201.232" cy="233.603" r="70.149"/><circle stroke-width="7" cx="201.232" cy="233.603" r="52.612"/><circle stroke-width="6" cx="201.232" cy="233.603" r="34.329"/><circle stroke-width="5" cx="201.232" cy="233.603" r="20.941"/><circle stroke-width="4" cx="201.232" cy="233.603" r="7.748"/></g><g clip-path="url(#d)" fill="#fff" stroke="#000" stroke-miterlimit="10"><circle stroke-width="8" cx="36.986" cy="233.603" r="70.149"/><circle stroke-width="7" cx="36.986" cy="233.603" r="52.612"/><circle stroke-width="6" cx="36.986" cy="233.603" r="34.329"/><circle stroke-width="5" cx="36.986" cy="233.603" r="20.941"/><circle stroke-width="4" cx="36.986" cy="233.603" r="7.748"/></g><g clip-path="url(#d)" fill="#fff" stroke="#000" stroke-miterlimit="10"><circle stroke-width="8" cx="529.724" cy="233.603" r="70.149"/><circle stroke-width="7" cx="529.724" cy="233.603" r="52.612"/><circle stroke-width="6" cx="529.724" cy="233.603" r="34.329"/><circle stroke-width="5" cx="529.724" cy="233.603" r="20.941"/><circle stroke-width="4" cx="529.724" cy="233.603" r="7.748"/></g><g clip-path="url(#d)" fill="#fff" stroke="#000" stroke-miterlimit="10"><circle stroke-width="8" cx="614.564" cy="271.484" r="70.149"/><circle stroke-width="7" cx="614.564" cy="271.484" r="52.612"/></g><g clip-path="url(#d)" fill="#fff" stroke="#000" stroke-miterlimit="10"><circle stroke-width="8" cx="450.318" cy="271.484" r="70.149"/><circle stroke-width="7" cx="450.318" cy="271.484" r="52.612"/><circle stroke-width="6" cx="450.318" cy="271.484" r="34.329"/><circle stroke-width="5" cx="450.318" cy="271.484" r="20.941"/><circle stroke-width="4" cx="450.318" cy="271.484" r="7.748"/></g><g clip-path="url(#d)" fill="#fff" stroke="#000" stroke-miterlimit="10"><circle stroke-width="8" cx="286.073" cy="271.484" r="70.149"/><circle stroke-width="7" cx="286.073" cy="271.484" r="52.612"/><circle stroke-width="6" cx="286.073" cy="271.484" r="34.329"/><circle stroke-width="5" cx="286.073" cy="271.484" r="20.941"/><circle stroke-width="4" cx="286.073" cy="271.484" r="7.748"/></g><g clip-path="url(#d)" fill="#fff" stroke="#000" stroke-miterlimit="10"><circle stroke-width="8" cx="121.827" cy="271.484" r="70.149"/><circle stroke-width="7" cx="121.827" cy="271.484" r="52.612"/><circle stroke-width="6" cx="121.827" cy="271.484" r="34.329"/><circle stroke-width="5" cx="121.827" cy="271.484" r="20.941"/><circle stroke-width="4" cx="121.827" cy="271.484" r="7.748"/></g><g clip-path="url(#d)" fill="#fff" stroke="#000" stroke-miterlimit="10"><circle stroke-width="8" cx="-42.419" cy="271.484" r="70.149"/><circle stroke-width="7" cx="-42.419" cy="271.484" r="52.612"/></g><g clip-path="url(#d)" fill="#fff" stroke="#000" stroke-miterlimit="10"><circle stroke-width="8" cx="365.478" cy="311.599" r="70.149"/><circle stroke-width="7" cx="365.478" cy="311.599" r="52.612"/><circle stroke-width="6" cx="365.478" cy="311.599" r="34.329"/><circle stroke-width="5" cx="365.478" cy="311.599" r="20.941"/><circle stroke-width="4" cx="365.478" cy="311.599" r="7.748"/></g><g clip-path="url(#d)" fill="#fff" stroke="#000" stroke-miterlimit="10"><circle stroke-width="8" cx="201.232" cy="311.599" r="70.149"/><circle stroke-width="7" cx="201.232" cy="311.599" r="52.612"/><circle stroke-width="6" cx="201.232" cy="311.599" r="34.329"/><circle stroke-width="5" cx="201.232" cy="311.599" r="20.941"/><circle stroke-width="4" cx="201.232" cy="311.599" r="7.748"/></g><g clip-path="url(#d)" fill="#fff" stroke="#000" stroke-miterlimit="10"><circle stroke-width="8" cx="36.986" cy="311.599" r="70.149"/><circle stroke-width="7" cx="36.986" cy="311.599" r="52.612"/><circle stroke-width="6" cx="36.986" cy="311.599" r="34.329"/><circle stroke-width="5" cx="36.986" cy="311.599" r="20.941"/><circle stroke-width="4" cx="36.986" cy="311.599" r="7.748"/></g><g clip-path="url(#d)" fill="#fff" stroke="#000" stroke-miterlimit="10"><circle stroke-width="8" cx="529.724" cy="311.599" r="70.149"/><circle stroke-width="7" cx="529.724" cy="311.599" r="52.612"/><circle stroke-width="6" cx="529.724" cy="311.599" r="34.329"/><circle stroke-width="5" cx="529.724" cy="311.599" r="20.941"/><circle stroke-width="4" cx="529.724" cy="311.599" r="7.748"/></g><g clip-path="url(#d)" fill="#fff" stroke="#000" stroke-miterlimit="10"><circle stroke-width="8" cx="614.564" cy="349.48" r="70.149"/><circle stroke-width="7" cx="614.564" cy="349.48" r="52.612"/></g><g clip-path="url(#d)" fill="#fff" stroke="#000" stroke-miterlimit="10"><circle stroke-width="8" cx="450.318" cy="349.48" r="70.149"/><circle stroke-width="7" cx="450.318" cy="349.48" r="52.612"/><circle stroke-width="6" cx="450.318" cy="349.48" r="34.329"/><circle stroke-width="5" cx="450.318" cy="349.48" r="20.941"/><circle stroke-width="4" cx="450.318" cy="349.48" r="7.748"/></g><g clip-path="url(#d)" fill="#fff" stroke="#000" stroke-miterlimit="10"><circle stroke-width="8" cx="286.073" cy="349.48" r="70.149"/><circle stroke-width="7" cx="286.073" cy="349.48" r="52.612"/><circle stroke-width="6" cx="286.073" cy="349.48" r="34.329"/><circle stroke-width="5" cx="286.073" cy="349.48" r="20.941"/><circle stroke-width="4" cx="286.073" cy="349.48" r="7.748"/></g><g clip-path="url(#d)" fill="#fff" stroke="#000" stroke-miterlimit="10"><circle stroke-width="8" cx="121.827" cy="349.48" r="70.149"/><circle stroke-width="7" cx="121.827" cy="349.48" r="52.612"/><circle stroke-width="6" cx="121.827" cy="349.48" r="34.329"/><circle stroke-width="5" cx="121.827" cy="349.48" r="20.941"/><circle stroke-width="4" cx="121.827" cy="349.48" r="7.748"/></g><g clip-path="url(#d)" fill="#fff" stroke="#000" stroke-miterlimit="10"><circle stroke-width="8" cx="-42.419" cy="349.48" r="70.149"/><circle stroke-width="7" cx="-42.419" cy="349.48" r="52.612"/></g><g clip-path="url(#d)" fill="#fff" stroke="#000" stroke-miterlimit="10"><circle stroke-width="8" cx="365.478" cy="389.595" r="70.149"/><circle stroke-width="7" cx="365.478" cy="389.595" r="52.612"/><circle stroke-width="6" cx="365.478" cy="389.595" r="34.329"/><circle stroke-width="5" cx="365.478" cy="389.595" r="20.941"/><circle stroke-width="4" cx="365.478" cy="389.595" r="7.748"/></g><g clip-path="url(#d)" fill="#fff" stroke="#000" stroke-miterlimit="10"><circle stroke-width="8" cx="201.232" cy="389.595" r="70.149"/><circle stroke-width="7" cx="201.232" cy="389.595" r="52.612"/><circle stroke-width="6" cx="201.232" cy="389.595" r="34.329"/><circle stroke-width="5" cx="201.232" cy="389.595" r="20.941"/><circle stroke-width="4" cx="201.232" cy="389.595" r="7.748"/></g><g clip-path="url(#d)" fill="#fff" stroke="#000" stroke-miterlimit="10"><circle stroke-width="8" cx="36.986" cy="389.595" r="70.149"/><circle stroke-width="7" cx="36.986" cy="389.595" r="52.612"/><circle stroke-width="6" cx="36.986" cy="389.595" r="34.329"/><circle stroke-width="5" cx="36.986" cy="389.595" r="20.941"/><circle stroke-width="4" cx="36.986" cy="389.595" r="7.748"/></g><g clip-path="url(#d)" fill="#fff" stroke="#000" stroke-miterlimit="10"><circle stroke-width="8" cx="529.724" cy="389.595" r="70.149"/><circle stroke-width="7" cx="529.724" cy="389.595" r="52.612"/><circle stroke-width="6" cx="529.724" cy="389.595" r="34.329"/><circle stroke-width="5" cx="529.724" cy="389.595" r="20.941"/><circle stroke-width="4" cx="529.724" cy="389.595" r="7.748"/></g><g clip-path="url(#d)" fill="#fff" stroke="#000" stroke-miterlimit="10"><circle stroke-width="8" cx="614.564" cy="427.476" r="70.149"/><circle stroke-width="7" cx="614.564" cy="427.476" r="52.612"/></g><g clip-path="url(#d)" fill="#fff" stroke="#000" stroke-miterlimit="10"><circle stroke-width="8" cx="450.318" cy="427.476" r="70.149"/><circle stroke-width="7" cx="450.318" cy="427.476" r="52.612"/><circle stroke-width="6" cx="450.318" cy="427.476" r="34.329"/><circle stroke-width="5" cx="450.318" cy="427.476" r="20.941"/><circle stroke-width="4" cx="450.318" cy="427.476" r="7.748"/></g><g clip-path="url(#d)" fill="#fff" stroke="#000" stroke-miterlimit="10"><circle stroke-width="8" cx="286.073" cy="427.476" r="70.149"/><circle stroke-width="7" cx="286.073" cy="427.476" r="52.612"/><circle stroke-width="6" cx="286.073" cy="427.476" r="34.329"/><circle stroke-width="5" cx="286.073" cy="427.476" r="20.941"/><circle stroke-width="4" cx="286.073" cy="427.476" r="7.748"/></g><g clip-path="url(#d)" fill="#fff" stroke="#000" stroke-miterlimit="10"><circle stroke-width="8" cx="121.827" cy="427.476" r="70.149"/><circle stroke-width="7" cx="121.827" cy="427.476" r="52.612"/><circle stroke-width="6" cx="121.827" cy="427.476" r="34.329"/><circle stroke-width="5" cx="121.827" cy="427.476" r="20.941"/><circle stroke-width="4" cx="121.827" cy="427.476" r="7.748"/></g><g clip-path="url(#d)" fill="#fff" stroke="#000" stroke-miterlimit="10"><circle stroke-width="8" cx="-42.419" cy="427.476" r="70.149"/><circle stroke-width="7" cx="-42.419" cy="427.476" r="52.612"/></g><g clip-path="url(#d)" fill="#fff" stroke="#000" stroke-miterlimit="10"><circle stroke-width="8" cx="365.478" cy="467.591" r="70.149"/><circle stroke-width="7" cx="365.478" cy="467.591" r="52.612"/><circle stroke-width="6" cx="365.478" cy="467.591" r="34.329"/><circle stroke-width="5" cx="365.478" cy="467.591" r="20.941"/><circle stroke-width="4" cx="365.478" cy="467.591" r="7.748"/></g><g clip-path="url(#d)" fill="#fff" stroke="#000" stroke-miterlimit="10"><circle stroke-width="8" cx="201.232" cy="467.591" r="70.149"/><circle stroke-width="7" cx="201.232" cy="467.591" r="52.612"/><circle stroke-width="6" cx="201.232" cy="467.591" r="34.329"/><circle stroke-width="5" cx="201.232" cy="467.591" r="20.941"/><circle stroke-width="4" cx="201.232" cy="467.591" r="7.748"/></g><g clip-path="url(#d)" fill="#fff" stroke="#000" stroke-miterlimit="10"><circle stroke-width="8" cx="36.986" cy="467.591" r="70.149"/><circle stroke-width="7" cx="36.986" cy="467.591" r="52.612"/><circle stroke-width="6" cx="36.986" cy="467.591" r="34.329"/><circle stroke-width="5" cx="36.986" cy="467.591" r="20.941"/><circle stroke-width="4" cx="36.986" cy="467.591" r="7.748"/></g><g clip-path="url(#d)" fill="#fff" stroke="#000" stroke-miterlimit="10"><circle stroke-width="8" cx="529.724" cy="467.591" r="70.149"/><circle stroke-width="7" cx="529.724" cy="467.591" r="52.612"/><circle stroke-width="6" cx="529.724" cy="467.591" r="34.329"/><circle stroke-width="5" cx="529.724" cy="467.591" r="20.941"/><circle stroke-width="4" cx="529.724" cy="467.591" r="7.748"/></g><g clip-path="url(#d)" fill="#fff" stroke="#000" stroke-miterlimit="10"><circle stroke-width="8" cx="614.564" cy="505.473" r="70.149"/><circle stroke-width="7" cx="614.564" cy="505.473" r="52.612"/></g><g clip-path="url(#d)" fill="#fff" stroke="#000" stroke-miterlimit="10"><circle stroke-width="8" cx="450.318" cy="505.473" r="70.149"/><circle stroke-width="7" cx="450.318" cy="505.473" r="52.612"/><circle stroke-width="6" cx="450.318" cy="505.473" r="34.329"/><circle stroke-width="5" cx="450.318" cy="505.473" r="20.941"/><circle stroke-width="4" cx="450.318" cy="505.473" r="7.748"/></g><g clip-path="url(#d)" fill="#fff" stroke="#000" stroke-miterlimit="10"><circle stroke-width="8" cx="286.073" cy="505.473" r="70.149"/><circle stroke-width="7" cx="286.073" cy="505.473" r="52.612"/><circle stroke-width="6" cx="286.073" cy="505.473" r="34.329"/><circle stroke-width="5" cx="286.073" cy="505.473" r="20.941"/><circle stroke-width="4" cx="286.073" cy="505.473" r="7.748"/></g><g clip-path="url(#d)" fill="#fff" stroke="#000" stroke-miterlimit="10"><circle stroke-width="8" cx="121.827" cy="505.473" r="70.149"/><circle stroke-width="7" cx="121.827" cy="505.473" r="52.612"/><circle stroke-width="6" cx="121.827" cy="505.473" r="34.329"/><circle stroke-width="5" cx="121.827" cy="505.473" r="20.941"/><circle stroke-width="4" cx="121.827" cy="505.473" r="7.748"/></g><g clip-path="url(#d)" fill="#fff" stroke="#000" stroke-miterlimit="10"><circle stroke-width="8" cx="-42.419" cy="505.473" r="70.149"/><circle stroke-width="7" cx="-42.419" cy="505.473" r="52.612"/></g><g clip-path="url(#d)" fill="#fff" stroke="#000" stroke-miterlimit="10"><circle stroke-width="8" cx="365.478" cy="545.587" r="70.149"/><circle stroke-width="7" cx="365.478" cy="545.587" r="52.612"/><circle stroke-width="6" cx="365.478" cy="545.587" r="34.329"/><circle stroke-width="5" cx="365.478" cy="545.587" r="20.941"/><circle stroke-width="4" cx="365.478" cy="545.587" r="7.748"/></g><g clip-path="url(#d)" fill="#fff" stroke="#000" stroke-miterlimit="10"><circle stroke-width="8" cx="201.232" cy="545.587" r="70.149"/><circle stroke-width="7" cx="201.232" cy="545.587" r="52.612"/><circle stroke-width="6" cx="201.232" cy="545.587" r="34.329"/><circle stroke-width="5" cx="201.232" cy="545.587" r="20.941"/><circle stroke-width="4" cx="201.232" cy="545.587" r="7.748"/></g><g clip-path="url(#d)" fill="#fff" stroke="#000" stroke-miterlimit="10"><circle stroke-width="8" cx="36.986" cy="545.587" r="70.149"/><circle stroke-width="7" cx="36.986" cy="545.587" r="52.612"/><circle stroke-width="6" cx="36.986" cy="545.587" r="34.329"/><circle stroke-width="5" cx="36.986" cy="545.587" r="20.941"/><circle stroke-width="4" cx="36.986" cy="545.587" r="7.748"/></g><g clip-path="url(#d)" fill="#fff" stroke="#000" stroke-miterlimit="10"><circle stroke-width="8" cx="529.724" cy="545.587" r="70.149"/><circle stroke-width="7" cx="529.724" cy="545.587" r="52.612"/><circle stroke-width="6" cx="529.724" cy="545.587" r="34.329"/><circle stroke-width="5" cx="529.724" cy="545.587" r="20.941"/><circle stroke-width="4" cx="529.724" cy="545.587" r="7.748"/></g><g clip-path="url(#d)" fill="#fff" stroke="#000" stroke-miterlimit="10"><circle stroke-width="8" cx="614.564" cy="583.469" r="70.149"/><circle stroke-width="7" cx="614.564" cy="583.469" r="52.612"/></g><g clip-path="url(#d)" fill="#fff" stroke="#000" stroke-miterlimit="10"><circle stroke-width="8" cx="450.318" cy="583.469" r="70.149"/><circle stroke-width="7" cx="450.318" cy="583.469" r="52.612"/><circle stroke-width="6" cx="450.318" cy="583.469" r="34.329"/><circle stroke-width="5" cx="450.318" cy="583.469" r="20.941"/></g><g clip-path="url(#d)" fill="#fff" stroke="#000" stroke-miterlimit="10"><circle stroke-width="8" cx="286.073" cy="583.469" r="70.149"/><circle stroke-width="7" cx="286.073" cy="583.469" r="52.612"/><circle stroke-width="6" cx="286.073" cy="583.469" r="34.329"/><circle stroke-width="5" cx="286.073" cy="583.469" r="20.941"/></g><g clip-path="url(#d)" fill="#fff" stroke="#000" stroke-miterlimit="10"><circle stroke-width="8" cx="121.827" cy="583.469" r="70.149"/><circle stroke-width="7" cx="121.827" cy="583.469" r="52.612"/><circle stroke-width="6" cx="121.827" cy="583.469" r="34.329"/><circle stroke-width="5" cx="121.827" cy="583.469" r="20.941"/></g><g clip-path="url(#d)" fill="#fff" stroke="#000" stroke-miterlimit="10"><circle stroke-width="8" cx="-42.419" cy="583.469" r="70.149"/><circle stroke-width="7" cx="-42.419" cy="583.469" r="52.612"/></g></g></svg>