<?xml version="1.0" encoding="utf-8"?>
<!-- Generator: Adobe Illustrator 17.1.0, SVG Export Plug-In . SVG Version: 6.00 Build 0)  -->
<!DOCTYPE svg PUBLIC "-//W3C//DTD SVG 1.1//EN" "http://www.w3.org/Graphics/SVG/1.1/DTD/svg11.dtd">
<svg version="1.1" xmlns="http://www.w3.org/2000/svg" xmlns:xlink="http://www.w3.org/1999/xlink" x="0px" y="0px"
	 width="566.93px" height="566.93px" viewBox="0 0 566.93 566.93" enable-background="new 0 0 566.93 566.93" xml:space="preserve">
<g id="Ebene_1">
	<g>
		<defs>
			<rect id="SVGID_3_" x="-617.935" y="-0.299" width="566.929" height="566.93"/>
		</defs>
		<clipPath id="SVGID_2_">
			<use xlink:href="#SVGID_3_"  overflow="visible"/>
		</clipPath>
		<g clip-path="url(#SVGID_2_)">
			<circle fill="#FFFFFF" stroke="#000000" stroke-width="8" stroke-miterlimit="10" cx="78.909" cy="-0.386" r="70.149"/>
			<circle fill="#FFFFFF" stroke="#000000" stroke-width="7" stroke-miterlimit="10" cx="78.909" cy="-0.386" r="52.612"/>
			<circle fill="#FFFFFF" stroke="#000000" stroke-width="6" stroke-miterlimit="10" cx="78.909" cy="-0.386" r="34.329"/>
			<circle fill="#FFFFFF" stroke="#000000" stroke-width="5" stroke-miterlimit="10" cx="78.909" cy="-0.386" r="20.941"/>
			<circle fill="#FFFFFF" stroke="#000000" stroke-width="4" stroke-miterlimit="10" cx="78.909" cy="-0.386" r="7.748"/>
		</g>
		<g clip-path="url(#SVGID_2_)">
			<circle fill="#FFFFFF" stroke="#000000" stroke-width="8" stroke-miterlimit="10" cx="157.585" cy="37.496" r="70.149"/>
			<circle fill="#FFFFFF" stroke="#000000" stroke-width="7" stroke-miterlimit="10" cx="157.585" cy="37.496" r="52.612"/>
			<circle fill="#FFFFFF" stroke="#000000" stroke-width="6" stroke-miterlimit="10" cx="157.585" cy="37.496" r="34.329"/>
			<circle fill="#FFFFFF" stroke="#000000" stroke-width="5" stroke-miterlimit="10" cx="157.585" cy="37.496" r="20.941"/>
			<circle fill="#FFFFFF" stroke="#000000" stroke-width="4" stroke-miterlimit="10" cx="157.585" cy="37.496" r="7.748"/>
		</g>
		<g clip-path="url(#SVGID_2_)">
			<circle fill="#FFFFFF" stroke="#000000" stroke-width="8" stroke-miterlimit="10" cx="-0.497" cy="37.496" r="70.149"/>
			<circle fill="#FFFFFF" stroke="#000000" stroke-width="7" stroke-miterlimit="10" cx="-0.497" cy="37.496" r="52.612"/>
			<circle fill="#FFFFFF" stroke="#000000" stroke-width="6" stroke-miterlimit="10" cx="-0.497" cy="37.496" r="34.329"/>
			<circle fill="#FFFFFF" stroke="#000000" stroke-width="5" stroke-miterlimit="10" cx="-0.497" cy="37.496" r="20.941"/>
			<circle fill="#FFFFFF" stroke="#000000" stroke-width="4" stroke-miterlimit="10" cx="-0.497" cy="37.496" r="7.748"/>
		</g>
		<g clip-path="url(#SVGID_2_)">
			<circle fill="#FFFFFF" stroke="#000000" stroke-width="8" stroke-miterlimit="10" cx="78.909" cy="77.611" r="70.149"/>
			<circle fill="#FFFFFF" stroke="#000000" stroke-width="7" stroke-miterlimit="10" cx="78.909" cy="77.611" r="52.612"/>
			<circle fill="#FFFFFF" stroke="#000000" stroke-width="6" stroke-miterlimit="10" cx="78.909" cy="77.611" r="34.329"/>
			<circle fill="#FFFFFF" stroke="#000000" stroke-width="5" stroke-miterlimit="10" cx="78.909" cy="77.611" r="20.941"/>
			<circle fill="#FFFFFF" stroke="#000000" stroke-width="4" stroke-miterlimit="10" cx="78.909" cy="77.611" r="7.748"/>
		</g>
		<g clip-path="url(#SVGID_2_)">
			<circle fill="#FFFFFF" stroke="#000000" stroke-width="8" stroke-miterlimit="10" cx="157.585" cy="115.492" r="70.149"/>
			<circle fill="#FFFFFF" stroke="#000000" stroke-width="7" stroke-miterlimit="10" cx="157.585" cy="115.492" r="52.612"/>
			<circle fill="#FFFFFF" stroke="#000000" stroke-width="6" stroke-miterlimit="10" cx="157.585" cy="115.492" r="34.329"/>
			<circle fill="#FFFFFF" stroke="#000000" stroke-width="5" stroke-miterlimit="10" cx="157.585" cy="115.492" r="20.941"/>
			<circle fill="#FFFFFF" stroke="#000000" stroke-width="4" stroke-miterlimit="10" cx="157.585" cy="115.492" r="7.748"/>
		</g>
		<g clip-path="url(#SVGID_2_)">
			<circle fill="#FFFFFF" stroke="#000000" stroke-width="8" stroke-miterlimit="10" cx="-0.497" cy="115.492" r="70.149"/>
			<circle fill="#FFFFFF" stroke="#000000" stroke-width="7" stroke-miterlimit="10" cx="-0.497" cy="115.492" r="52.612"/>
			<circle fill="#FFFFFF" stroke="#000000" stroke-width="6" stroke-miterlimit="10" cx="-0.497" cy="115.492" r="34.329"/>
			<circle fill="#FFFFFF" stroke="#000000" stroke-width="5" stroke-miterlimit="10" cx="-0.497" cy="115.492" r="20.941"/>
			<circle fill="#FFFFFF" stroke="#000000" stroke-width="4" stroke-miterlimit="10" cx="-0.497" cy="115.492" r="7.748"/>
		</g>
		<g clip-path="url(#SVGID_2_)">
			<circle fill="#FFFFFF" stroke="#000000" stroke-width="8" stroke-miterlimit="10" cx="78.909" cy="155.607" r="70.149"/>
			<circle fill="#FFFFFF" stroke="#000000" stroke-width="7" stroke-miterlimit="10" cx="78.909" cy="155.607" r="52.612"/>
			<circle fill="#FFFFFF" stroke="#000000" stroke-width="6" stroke-miterlimit="10" cx="78.909" cy="155.607" r="34.329"/>
			<circle fill="#FFFFFF" stroke="#000000" stroke-width="5" stroke-miterlimit="10" cx="78.909" cy="155.607" r="20.941"/>
			<circle fill="#FFFFFF" stroke="#000000" stroke-width="4" stroke-miterlimit="10" cx="78.909" cy="155.607" r="7.748"/>
		</g>
		<g clip-path="url(#SVGID_2_)">
			<circle fill="#FFFFFF" stroke="#000000" stroke-width="8" stroke-miterlimit="10" cx="157.585" cy="193.488" r="70.149"/>
			<circle fill="#FFFFFF" stroke="#000000" stroke-width="7" stroke-miterlimit="10" cx="157.585" cy="193.488" r="52.612"/>
			<circle fill="#FFFFFF" stroke="#000000" stroke-width="6" stroke-miterlimit="10" cx="157.585" cy="193.488" r="34.329"/>
			<circle fill="#FFFFFF" stroke="#000000" stroke-width="5" stroke-miterlimit="10" cx="157.585" cy="193.488" r="20.941"/>
			<circle fill="#FFFFFF" stroke="#000000" stroke-width="4" stroke-miterlimit="10" cx="157.585" cy="193.488" r="7.748"/>
		</g>
		<g clip-path="url(#SVGID_2_)">
			<circle fill="#FFFFFF" stroke="#000000" stroke-width="8" stroke-miterlimit="10" cx="-0.497" cy="193.488" r="70.149"/>
			<circle fill="#FFFFFF" stroke="#000000" stroke-width="7" stroke-miterlimit="10" cx="-0.497" cy="193.488" r="52.612"/>
			<circle fill="#FFFFFF" stroke="#000000" stroke-width="6" stroke-miterlimit="10" cx="-0.497" cy="193.488" r="34.329"/>
			<circle fill="#FFFFFF" stroke="#000000" stroke-width="5" stroke-miterlimit="10" cx="-0.497" cy="193.488" r="20.941"/>
			<circle fill="#FFFFFF" stroke="#000000" stroke-width="4" stroke-miterlimit="10" cx="-0.497" cy="193.488" r="7.748"/>
		</g>
		<g clip-path="url(#SVGID_2_)">
			<circle fill="#FFFFFF" stroke="#000000" stroke-width="8" stroke-miterlimit="10" cx="78.909" cy="233.603" r="70.149"/>
			<circle fill="#FFFFFF" stroke="#000000" stroke-width="7" stroke-miterlimit="10" cx="78.909" cy="233.603" r="52.612"/>
			<circle fill="#FFFFFF" stroke="#000000" stroke-width="6" stroke-miterlimit="10" cx="78.909" cy="233.603" r="34.329"/>
			<circle fill="#FFFFFF" stroke="#000000" stroke-width="5" stroke-miterlimit="10" cx="78.909" cy="233.603" r="20.941"/>
			<circle fill="#FFFFFF" stroke="#000000" stroke-width="4" stroke-miterlimit="10" cx="78.909" cy="233.603" r="7.748"/>
		</g>
		<g clip-path="url(#SVGID_2_)">
			<circle fill="#FFFFFF" stroke="#000000" stroke-width="8" stroke-miterlimit="10" cx="157.585" cy="271.484" r="70.149"/>
			<circle fill="#FFFFFF" stroke="#000000" stroke-width="7" stroke-miterlimit="10" cx="157.585" cy="271.484" r="52.612"/>
			<circle fill="#FFFFFF" stroke="#000000" stroke-width="6" stroke-miterlimit="10" cx="157.585" cy="271.484" r="34.329"/>
			<circle fill="#FFFFFF" stroke="#000000" stroke-width="5" stroke-miterlimit="10" cx="157.585" cy="271.484" r="20.941"/>
			<circle fill="#FFFFFF" stroke="#000000" stroke-width="4" stroke-miterlimit="10" cx="157.585" cy="271.484" r="7.748"/>
		</g>
		<g clip-path="url(#SVGID_2_)">
			<circle fill="#FFFFFF" stroke="#000000" stroke-width="8" stroke-miterlimit="10" cx="-0.497" cy="271.484" r="70.149"/>
			<circle fill="#FFFFFF" stroke="#000000" stroke-width="7" stroke-miterlimit="10" cx="-0.497" cy="271.484" r="52.612"/>
			<circle fill="#FFFFFF" stroke="#000000" stroke-width="6" stroke-miterlimit="10" cx="-0.497" cy="271.484" r="34.329"/>
			<circle fill="#FFFFFF" stroke="#000000" stroke-width="5" stroke-miterlimit="10" cx="-0.497" cy="271.484" r="20.941"/>
			<circle fill="#FFFFFF" stroke="#000000" stroke-width="4" stroke-miterlimit="10" cx="-0.497" cy="271.484" r="7.748"/>
		</g>
		<g clip-path="url(#SVGID_2_)">
			<circle fill="#FFFFFF" stroke="#000000" stroke-width="8" stroke-miterlimit="10" cx="78.909" cy="311.599" r="70.149"/>
			<circle fill="#FFFFFF" stroke="#000000" stroke-width="7" stroke-miterlimit="10" cx="78.909" cy="311.599" r="52.612"/>
			<circle fill="#FFFFFF" stroke="#000000" stroke-width="6" stroke-miterlimit="10" cx="78.909" cy="311.599" r="34.329"/>
			<circle fill="#FFFFFF" stroke="#000000" stroke-width="5" stroke-miterlimit="10" cx="78.909" cy="311.599" r="20.941"/>
			<circle fill="#FFFFFF" stroke="#000000" stroke-width="4" stroke-miterlimit="10" cx="78.909" cy="311.599" r="7.748"/>
		</g>
		<g clip-path="url(#SVGID_2_)">
			<circle fill="#FFFFFF" stroke="#000000" stroke-width="8" stroke-miterlimit="10" cx="157.585" cy="349.48" r="70.149"/>
			<circle fill="#FFFFFF" stroke="#000000" stroke-width="7" stroke-miterlimit="10" cx="157.585" cy="349.48" r="52.612"/>
			<circle fill="#FFFFFF" stroke="#000000" stroke-width="6" stroke-miterlimit="10" cx="157.585" cy="349.48" r="34.329"/>
			<circle fill="#FFFFFF" stroke="#000000" stroke-width="5" stroke-miterlimit="10" cx="157.585" cy="349.48" r="20.941"/>
			<circle fill="#FFFFFF" stroke="#000000" stroke-width="4" stroke-miterlimit="10" cx="157.585" cy="349.48" r="7.748"/>
		</g>
		<g clip-path="url(#SVGID_2_)">
			<circle fill="#FFFFFF" stroke="#000000" stroke-width="8" stroke-miterlimit="10" cx="-0.497" cy="349.48" r="70.149"/>
			<circle fill="#FFFFFF" stroke="#000000" stroke-width="7" stroke-miterlimit="10" cx="-0.497" cy="349.48" r="52.612"/>
			<circle fill="#FFFFFF" stroke="#000000" stroke-width="6" stroke-miterlimit="10" cx="-0.497" cy="349.48" r="34.329"/>
			<circle fill="#FFFFFF" stroke="#000000" stroke-width="5" stroke-miterlimit="10" cx="-0.497" cy="349.48" r="20.941"/>
			<circle fill="#FFFFFF" stroke="#000000" stroke-width="4" stroke-miterlimit="10" cx="-0.497" cy="349.48" r="7.748"/>
		</g>
		<g clip-path="url(#SVGID_2_)">
			<circle fill="#FFFFFF" stroke="#000000" stroke-width="8" stroke-miterlimit="10" cx="78.909" cy="389.595" r="70.149"/>
			<circle fill="#FFFFFF" stroke="#000000" stroke-width="7" stroke-miterlimit="10" cx="78.909" cy="389.595" r="52.612"/>
			<circle fill="#FFFFFF" stroke="#000000" stroke-width="6" stroke-miterlimit="10" cx="78.909" cy="389.595" r="34.329"/>
			<circle fill="#FFFFFF" stroke="#000000" stroke-width="5" stroke-miterlimit="10" cx="78.909" cy="389.595" r="20.941"/>
			<circle fill="#FFFFFF" stroke="#000000" stroke-width="4" stroke-miterlimit="10" cx="78.909" cy="389.595" r="7.748"/>
		</g>
		<g clip-path="url(#SVGID_2_)">
			<circle fill="#FFFFFF" stroke="#000000" stroke-width="8" stroke-miterlimit="10" cx="157.585" cy="427.476" r="70.149"/>
			<circle fill="#FFFFFF" stroke="#000000" stroke-width="7" stroke-miterlimit="10" cx="157.585" cy="427.476" r="52.612"/>
			<circle fill="#FFFFFF" stroke="#000000" stroke-width="6" stroke-miterlimit="10" cx="157.585" cy="427.476" r="34.329"/>
			<circle fill="#FFFFFF" stroke="#000000" stroke-width="5" stroke-miterlimit="10" cx="157.585" cy="427.476" r="20.941"/>
			<circle fill="#FFFFFF" stroke="#000000" stroke-width="4" stroke-miterlimit="10" cx="157.585" cy="427.476" r="7.748"/>
		</g>
		<g clip-path="url(#SVGID_2_)">
			<circle fill="#FFFFFF" stroke="#000000" stroke-width="8" stroke-miterlimit="10" cx="-0.497" cy="427.476" r="70.149"/>
			<circle fill="#FFFFFF" stroke="#000000" stroke-width="7" stroke-miterlimit="10" cx="-0.497" cy="427.476" r="52.612"/>
			<circle fill="#FFFFFF" stroke="#000000" stroke-width="6" stroke-miterlimit="10" cx="-0.497" cy="427.476" r="34.329"/>
			<circle fill="#FFFFFF" stroke="#000000" stroke-width="5" stroke-miterlimit="10" cx="-0.497" cy="427.476" r="20.941"/>
			<circle fill="#FFFFFF" stroke="#000000" stroke-width="4" stroke-miterlimit="10" cx="-0.497" cy="427.476" r="7.748"/>
		</g>
		<g clip-path="url(#SVGID_2_)">
			<circle fill="#FFFFFF" stroke="#000000" stroke-width="8" stroke-miterlimit="10" cx="78.909" cy="467.591" r="70.149"/>
			<circle fill="#FFFFFF" stroke="#000000" stroke-width="7" stroke-miterlimit="10" cx="78.909" cy="467.591" r="52.612"/>
			<circle fill="#FFFFFF" stroke="#000000" stroke-width="6" stroke-miterlimit="10" cx="78.909" cy="467.591" r="34.329"/>
			<circle fill="#FFFFFF" stroke="#000000" stroke-width="5" stroke-miterlimit="10" cx="78.909" cy="467.591" r="20.941"/>
			<circle fill="#FFFFFF" stroke="#000000" stroke-width="4" stroke-miterlimit="10" cx="78.909" cy="467.591" r="7.748"/>
		</g>
		<g clip-path="url(#SVGID_2_)">
			<circle fill="#FFFFFF" stroke="#000000" stroke-width="8" stroke-miterlimit="10" cx="157.585" cy="505.473" r="70.149"/>
			<circle fill="#FFFFFF" stroke="#000000" stroke-width="7" stroke-miterlimit="10" cx="157.585" cy="505.473" r="52.612"/>
			<circle fill="#FFFFFF" stroke="#000000" stroke-width="6" stroke-miterlimit="10" cx="157.585" cy="505.473" r="34.329"/>
			<circle fill="#FFFFFF" stroke="#000000" stroke-width="5" stroke-miterlimit="10" cx="157.585" cy="505.473" r="20.941"/>
			<circle fill="#FFFFFF" stroke="#000000" stroke-width="4" stroke-miterlimit="10" cx="157.585" cy="505.473" r="7.748"/>
		</g>
		<g clip-path="url(#SVGID_2_)">
			<circle fill="#FFFFFF" stroke="#000000" stroke-width="8" stroke-miterlimit="10" cx="-0.497" cy="505.473" r="70.149"/>
			<circle fill="#FFFFFF" stroke="#000000" stroke-width="7" stroke-miterlimit="10" cx="-0.497" cy="505.473" r="52.612"/>
			<circle fill="#FFFFFF" stroke="#000000" stroke-width="6" stroke-miterlimit="10" cx="-0.497" cy="505.473" r="34.329"/>
			<circle fill="#FFFFFF" stroke="#000000" stroke-width="5" stroke-miterlimit="10" cx="-0.497" cy="505.473" r="20.941"/>
			<circle fill="#FFFFFF" stroke="#000000" stroke-width="4" stroke-miterlimit="10" cx="-0.497" cy="505.473" r="7.748"/>
		</g>
		<g clip-path="url(#SVGID_2_)">
			<circle fill="#FFFFFF" stroke="#000000" stroke-width="8" stroke-miterlimit="10" cx="78.909" cy="545.587" r="70.149"/>
			<circle fill="#FFFFFF" stroke="#000000" stroke-width="7" stroke-miterlimit="10" cx="78.909" cy="545.587" r="52.612"/>
			<circle fill="#FFFFFF" stroke="#000000" stroke-width="6" stroke-miterlimit="10" cx="78.909" cy="545.587" r="34.329"/>
			<circle fill="#FFFFFF" stroke="#000000" stroke-width="5" stroke-miterlimit="10" cx="78.909" cy="545.587" r="20.941"/>
			<circle fill="#FFFFFF" stroke="#000000" stroke-width="4" stroke-miterlimit="10" cx="78.909" cy="545.587" r="7.748"/>
		</g>
		<g clip-path="url(#SVGID_2_)">
			<circle fill="#FFFFFF" stroke="#000000" stroke-width="8" stroke-miterlimit="10" cx="157.585" cy="583.469" r="70.149"/>
			<circle fill="#FFFFFF" stroke="#000000" stroke-width="7" stroke-miterlimit="10" cx="157.585" cy="583.469" r="52.612"/>
			<circle fill="#FFFFFF" stroke="#000000" stroke-width="6" stroke-miterlimit="10" cx="157.585" cy="583.469" r="34.329"/>
			<circle fill="#FFFFFF" stroke="#000000" stroke-width="5" stroke-miterlimit="10" cx="157.585" cy="583.469" r="20.941"/>
		</g>
		<g clip-path="url(#SVGID_2_)">
			<circle fill="#FFFFFF" stroke="#000000" stroke-width="8" stroke-miterlimit="10" cx="-0.497" cy="583.469" r="70.149"/>
			<circle fill="#FFFFFF" stroke="#000000" stroke-width="7" stroke-miterlimit="10" cx="-0.497" cy="583.469" r="52.612"/>
			<circle fill="#FFFFFF" stroke="#000000" stroke-width="6" stroke-miterlimit="10" cx="-0.497" cy="583.469" r="34.329"/>
			<circle fill="#FFFFFF" stroke="#000000" stroke-width="5" stroke-miterlimit="10" cx="-0.497" cy="583.469" r="20.941"/>
		</g>
	</g>
	<g>
		<path fill="none" d="M0,358.493v2.428c0.751-1.764,1.54-3.487,2.365-5.17C1.569,356.66,0.782,357.575,0,358.493z"/>
		<path fill="none" d="M51.713,249.3c0-45.523-20.57-67.762-42.348-91.307c-3.13-3.384-6.275-6.788-9.365-10.276v2.155
			c13.302,17.699,23.552,39.115,23.552,71.368c0,32.254-10.249,53.671-23.552,71.37v58.277c3.09-3.488,6.235-6.892,9.365-10.277
			C31.142,317.064,51.713,294.825,51.713,249.3z"/>
		<path fill="none" d="M341.909,407.255c0-21.162,4.41-37.659,11.2-51.504c-17.378,19.837-31.677,41.605-31.677,79.564
			c0,45.525,20.57,67.765,42.348,91.311c11.432,12.36,23.07,24.945,31.455,41.176h30.218c-6.093-29.301-22.594-47.167-39.867-65.842
			C364.113,478.744,341.909,454.737,341.909,407.255z"/>
		<path fill="none" d="M0,519.744v2.156c9.448,12.571,17.347,27.027,21.135,45.902H38.9c-7.885-14.362-18.554-25.908-29.535-37.781
			C6.235,526.636,3.091,523.232,0,519.744z"/>
		<path fill="none" d="M375.071,435.315c0-47.482,22.204-71.489,43.678-94.705c3.012-3.257,6.002-6.49,8.917-9.762
			c2.408-2.97,4.887-5.846,7.401-8.669c14.723-18.175,26.029-39.128,26.029-72.88c0-45.523-20.57-67.762-42.348-91.307
			c-21.474-23.215-43.678-47.221-43.678-94.701c0-27.015,7.192-46.426,17.344-62.42h-40.767c-2.995,9.895-4.739,21.141-4.739,34.36
			c0,45.522,20.57,67.761,42.348,91.306c21.474,23.215,43.678,47.22,43.678,94.701c0,47.482-22.204,71.489-43.678,94.705
			c-21.777,23.546-42.348,45.785-42.348,91.311c0,45.524,20.57,67.765,42.348,91.311c17.247,18.647,34.955,37.815,41.261,69.237
			h17.766c-7.885-14.362-18.554-25.908-29.535-37.781C397.275,506.805,375.071,482.798,375.071,435.315z"/>
		<path fill="none" d="M0,453.56v58.576c4.186,4.915,8.584,9.676,13.036,14.49c11.432,12.36,23.07,24.945,31.455,41.176h30.218
			c-6.093-29.301-22.594-47.167-39.867-65.842C21.771,487.828,8.44,473.393,0,453.56z"/>
		<path fill="none" d="M258.157,435.315c0-47.482,22.204-71.489,43.677-94.705c3.015-3.26,6.007-6.494,8.924-9.769
			c2.403-2.964,4.879-5.836,7.388-8.653c14.727-18.178,26.036-39.131,26.036-72.889c0-45.523-20.57-67.762-42.348-91.307
			c-21.473-23.215-43.677-47.221-43.677-94.701c0-27.015,7.192-46.426,17.344-62.42h-40.767c-2.995,9.895-4.739,21.141-4.739,34.36
			c0,45.522,20.569,67.761,42.348,91.306c21.473,23.215,43.677,47.22,43.677,94.701c0,47.482-22.204,71.489-43.677,94.705
			c-21.777,23.546-42.348,45.785-42.348,91.311s20.569,67.765,42.348,91.311c17.247,18.647,34.954,37.815,41.26,69.237h17.766
			c-7.885-14.362-18.554-25.908-29.535-37.781C280.361,506.805,258.157,482.798,258.157,435.315z"/>
		<path fill="none" d="M166.355,407.255c0-20.684,4.215-36.916,10.745-50.565c-17.006,19.588-30.858,41.265-30.858,78.626
			c0,45.525,20.57,67.765,42.348,91.311c11.432,12.36,23.07,24.945,31.456,41.176h29.854c-6.093-29.301-22.594-47.167-39.867-65.842
			C188.559,478.744,166.355,454.737,166.355,407.255z"/>
		<path fill="none" d="M199.517,435.315c0-47.482,22.204-71.489,43.678-94.705c21.777-23.546,42.348-45.785,42.348-91.311
			c0-45.523-20.57-67.762-42.348-91.307c-21.474-23.215-43.678-47.221-43.678-94.701c0-27.015,7.192-46.426,17.344-62.42H176.09
			c-2.994,9.894-4.735,21.142-4.735,34.36c0,45.522,20.57,67.761,42.348,91.306c21.474,23.215,43.678,47.22,43.678,94.701
			c0,47.482-22.204,71.489-43.678,94.705c-3.012,3.257-6.001,6.489-8.916,9.761c-2.409,2.97-4.889,5.848-7.402,8.671
			c-14.724,18.175-26.029,39.127-26.029,72.879c0,45.524,20.57,67.765,42.348,91.311c17.247,18.647,34.955,37.815,41.261,69.237
			h17.766c-7.885-14.362-18.554-25.908-29.535-37.781C221.721,506.805,199.517,482.798,199.517,435.315z"/>
		<path fill="none" d="M141.242,435.315c0-47.482,22.204-71.489,43.678-94.705c3.012-3.257,6.002-6.49,8.917-9.762
			c2.408-2.97,4.887-5.846,7.401-8.669c14.723-18.175,26.029-39.128,26.029-72.88c0-45.523-20.57-67.762-42.348-91.307
			c-21.474-23.215-43.678-47.221-43.678-94.701c0-27.015,7.192-46.426,17.344-62.42h-40.767c-2.995,9.895-4.739,21.141-4.739,34.36
			c0,45.522,20.57,67.761,42.348,91.306c21.474,23.215,43.678,47.22,43.678,94.701c0,47.482-22.204,71.489-43.678,94.705
			c-21.777,23.546-42.348,45.785-42.348,91.311c0,45.524,20.57,67.765,42.348,91.311c17.247,18.647,34.955,37.815,41.261,69.237
			h17.766c-7.885-14.362-18.554-25.908-29.535-37.781C163.446,506.805,141.242,482.798,141.242,435.315z"/>
		<path fill="none" d="M224.995,407.255c0-21.162,4.41-37.66,11.2-51.505c-17.378,19.837-31.678,41.606-31.678,79.565
			c0,45.525,20.57,67.765,42.348,91.311c11.432,12.36,23.07,24.945,31.456,41.176h30.217c-6.093-29.3-22.594-47.167-39.866-65.842
			C247.199,478.744,224.995,454.737,224.995,407.255z"/>
		<path fill="none" d="M0,158.382v125.717c10.901-16.016,18.552-35.109,18.552-62.86C18.552,193.489,10.901,174.397,0,158.382z"/>
		<path fill="none" d="M49.441,407.255c0-20.687,4.214-36.917,10.746-50.567c-17.006,19.588-30.86,41.267-30.86,78.628
			c0,45.525,20.57,67.765,42.348,91.311c11.432,12.36,23.07,24.945,31.456,41.176h29.854c-6.093-29.301-22.594-47.167-39.866-65.842
			C71.645,478.744,49.441,454.737,49.441,407.255z"/>
		<path fill="none" d="M316.432,435.315c0-47.482,22.204-71.489,43.677-94.705c21.777-23.546,42.348-45.785,42.348-91.311
			c0-45.523-20.57-67.762-42.348-91.307c-21.473-23.215-43.677-47.221-43.677-94.701c0-27.015,7.192-46.426,17.344-62.42h-40.771
			c-2.995,9.894-4.735,21.143-4.735,34.36c0,45.522,20.57,67.761,42.348,91.306c21.474,23.215,43.678,47.22,43.678,94.701
			c0,47.482-22.204,71.489-43.678,94.705c-3.015,3.26-6.007,6.495-8.924,9.77c-2.404,2.964-4.879,5.836-7.389,8.653
			c-14.726,18.178-26.035,39.13-26.035,72.888c0,45.524,20.57,67.765,42.348,91.311c17.247,18.647,34.955,37.815,41.261,69.237
			h17.765c-7.885-14.362-18.554-25.908-29.535-37.781C338.637,506.805,316.432,482.798,316.432,435.315z"/>
		<path fill="none" d="M108.08,407.255c0-21.162,4.41-37.661,11.201-51.505c-17.378,19.837-31.679,41.606-31.679,79.565
			c0,45.525,20.57,67.765,42.348,91.311c11.432,12.36,23.07,24.945,31.456,41.176h30.218c-6.093-29.301-22.594-47.167-39.867-65.842
			C130.284,478.744,108.08,454.737,108.08,407.255z"/>
		<path fill="none" d="M24.327,435.315c0-47.482,22.204-71.489,43.678-94.705c3.015-3.26,6.007-6.495,8.924-9.77
			c2.404-2.964,4.879-5.836,7.389-8.653c14.726-18.178,26.035-39.13,26.035-72.888c0-45.523-20.57-67.762-42.348-91.307
			c-21.474-23.215-43.678-47.221-43.678-94.701c0-27.015,7.192-46.426,17.344-62.42H0.903C0.588,1.914,0.287,2.973,0,4.046v62.372
			c6.944,25.969,22.393,42.692,38.512,60.12c21.474,23.215,43.678,47.22,43.678,94.701c0,47.482-22.204,71.489-43.678,94.705
			C22.393,333.373,6.944,350.096,0,376.067v62.374c6.944,25.971,22.393,42.695,38.512,60.124
			c17.247,18.647,34.955,37.815,41.261,69.237H97.54c-7.885-14.362-18.554-25.908-29.535-37.781
			C46.531,506.805,24.327,482.798,24.327,435.315z"/>
		<path fill="none" d="M82.602,435.315c0-47.482,22.204-71.489,43.678-94.705c21.777-23.546,42.348-45.785,42.348-91.311
			c0-45.523-20.57-67.762-42.348-91.307c-21.474-23.215-43.678-47.221-43.678-94.701c0-27.015,7.192-46.426,17.344-62.42H59.175
			c-2.994,9.894-4.734,21.142-4.734,34.36c0,45.522,20.57,67.761,42.348,91.306c21.473,23.215,43.677,47.22,43.677,94.701
			c0,47.482-22.204,71.489-43.677,94.705c-3.015,3.26-6.007,6.494-8.924,9.769c-2.403,2.964-4.879,5.837-7.389,8.654
			c-14.726,18.177-26.035,39.13-26.035,72.888c0,45.525,20.57,67.765,42.348,91.311c17.247,18.647,34.954,37.815,41.26,69.237
			h17.766c-7.885-14.362-18.554-25.908-29.535-37.781C104.806,506.805,82.602,482.798,82.602,435.315z"/>
		<path fill="none" d="M0,567.802h16.07C12.976,552.925,7.202,540.992,0,530.41V567.802z"/>
		<path fill="none" d="M555.531,325.705c-2.409,2.97-4.889,5.848-7.403,8.671c-14.723,18.175-26.028,39.127-26.028,72.879
			c0,45.524,20.57,67.765,42.348,91.311c0.827,0.894,1.655,1.791,2.483,2.688v-4.593c-9.793-15.789-16.668-34.933-16.668-61.345
			s6.875-45.556,16.668-61.345v-60.714c-0.828,0.898-1.656,1.794-2.483,2.688C561.435,319.201,558.445,322.433,555.531,325.705z"/>
		<path fill="none" d="M458.824,407.255c0-21.162,4.41-37.661,11.201-51.505c-17.378,19.837-31.679,41.606-31.679,79.565
			c0,45.525,20.57,67.765,42.348,91.311c11.432,12.36,23.07,24.945,31.456,41.176h30.218c-6.093-29.301-22.594-47.167-39.867-65.842
			C481.028,478.744,458.824,454.737,458.824,407.255z"/>
		<path fill="none" d="M433.346,435.315c0-47.482,22.204-71.489,43.678-94.705c21.777-23.546,42.348-45.785,42.348-91.311
			c0-45.523-20.57-67.762-42.348-91.307c-21.474-23.215-43.678-47.221-43.678-94.701c0-27.015,7.192-46.426,17.344-62.42h-40.771
			c-2.994,9.894-4.734,21.142-4.734,34.36c0,45.522,20.57,67.761,42.348,91.306c21.474,23.215,43.678,47.22,43.678,94.701
			c0,47.482-22.204,71.489-43.678,94.705c-3.012,3.257-6.002,6.49-8.917,9.762c-2.408,2.97-4.887,5.846-7.401,8.669
			c-14.723,18.175-26.029,39.128-26.029,72.88c0,45.524,20.57,67.765,42.348,91.311c17.247,18.647,34.955,37.815,41.261,69.237
			h17.766c-7.885-14.362-18.554-25.908-29.535-37.781C455.551,506.805,433.346,482.798,433.346,435.315z"/>
		<path fill="none" d="M564.447,126.538c0.827,0.894,1.655,1.79,2.483,2.688v-4.591c-9.793-15.789-16.668-34.931-16.668-61.343
			c0-26.412,6.875-45.555,16.668-61.344V0.872h-40.096c-2.994,9.894-4.734,21.142-4.734,34.36
			C522.099,80.755,542.67,102.993,564.447,126.538z"/>
		<path fill="none" d="M566.93,114.686V11.894c-7.104,13.68-11.668,29.955-11.668,51.397
			C555.262,84.733,559.827,101.006,566.93,114.686z"/>
		<path fill="none" d="M535.664,530.02c-21.474-23.216-43.678-47.223-43.678-94.705s22.204-71.489,43.678-94.705
			c3.012-3.257,6.002-6.49,8.917-9.762c2.408-2.97,4.887-5.846,7.401-8.669c5.63-6.951,10.758-14.311,14.948-22.635V199.071
			c-8.011-15.92-19.458-28.311-31.266-41.078c-21.474-23.215-43.678-47.221-43.678-94.701c0-27.015,7.192-46.426,17.344-62.42
			h-40.767c-2.995,9.895-4.739,21.141-4.739,34.36c0,45.522,20.57,67.761,42.348,91.306c21.474,23.215,43.678,47.22,43.678,94.701
			c0,47.482-22.204,71.489-43.678,94.705c-21.777,23.546-42.348,45.785-42.348,91.311c0,45.524,20.57,67.765,42.348,91.311
			c17.247,18.647,34.955,37.815,41.261,69.237h17.766C557.314,553.44,546.645,541.893,535.664,530.02z"/>
		<path fill="none" d="M566.93,486.712V383.916c-7.104,13.681-11.668,29.956-11.668,51.399
			C555.262,456.757,559.827,473.031,566.93,486.712z"/>
		<path fill="none" d="M283.27,407.255c0-20.687,4.214-36.916,10.746-50.566c-17.006,19.588-30.859,41.266-30.859,78.627
			c0,45.525,20.57,67.765,42.348,91.311c11.432,12.36,23.07,24.945,31.455,41.176h29.854c-6.094-29.3-22.594-47.167-39.867-65.842
			C305.474,478.744,283.27,454.737,283.27,407.255z"/>
		<path fill="none" d="M539.334,154.598c9.77,10.562,19.684,21.296,27.596,34.322v-52.296c-2.029-2.233-4.085-4.457-6.153-6.692
			c-21.474-23.215-43.678-47.22-43.678-94.7c0-13.077,1.688-24.37,4.578-34.36h-6.44c-10.742,15.925-18.251,34.922-18.251,62.42
			C496.986,108.815,517.556,131.054,539.334,154.598z"/>
		<path fill="none" d="M517.099,407.255c0-20.684,4.215-36.916,10.745-50.565c-17.006,19.588-30.858,41.265-30.858,78.626
			c0,45.525,20.57,67.765,42.348,91.311c9.77,10.562,19.684,21.297,27.596,34.323v-52.297c-2.029-2.233-4.085-4.457-6.153-6.692
			C539.304,478.744,517.099,454.737,517.099,407.255z"/>
		<path fill="none" d="M56.713,249.3c0,21.162-4.41,37.661-11.2,51.505c17.377-19.837,31.678-41.606,31.678-79.565
			c0-45.523-20.57-67.762-42.349-91.307C21.771,115.802,8.44,101.368,0,81.536v58.573c4.186,4.914,8.584,9.676,13.036,14.489
			C34.509,177.813,56.713,201.819,56.713,249.3z"/>
		<path fill="none" d="M246.865,154.598c21.474,23.215,43.678,47.221,43.678,94.701c0,21.162-4.409,37.659-11.2,51.503
			c17.378-19.836,31.677-41.604,31.677-79.563c0-45.523-20.57-67.762-42.348-91.307c-21.473-23.215-43.677-47.22-43.677-94.7
			c0-13.078,1.688-24.37,4.578-34.36h-6.807c-10.742,15.925-18.248,34.924-18.248,62.42
			C204.517,108.815,225.088,131.054,246.865,154.598z"/>
		<path fill="none" d="M188.59,154.598c21.474,23.215,43.678,47.221,43.678,94.701c0,20.684-4.215,36.916-10.745,50.565
			c17.006-19.588,30.858-41.265,30.858-78.626c0-45.523-20.57-67.762-42.348-91.307c-21.474-23.215-43.678-47.22-43.678-94.7
			c0-13.077,1.688-24.37,4.578-34.36h-6.44c-10.742,15.925-18.251,34.922-18.251,62.42
			C146.242,108.815,166.812,131.054,188.59,154.598z"/>
		<path fill="none" d="M480.694,154.598c21.474,23.215,43.678,47.221,43.678,94.701c0,21.162-4.41,37.661-11.201,51.505
			c17.378-19.837,31.679-41.606,31.679-79.565c0-45.523-20.57-67.762-42.348-91.307c-21.474-23.215-43.678-47.22-43.678-94.7
			c0-13.078,1.688-24.37,4.578-34.36h-6.807c-10.742,15.925-18.249,34.924-18.249,62.42
			C438.346,108.815,458.917,131.054,480.694,154.598z"/>
		<path fill="none" d="M71.675,154.598c21.474,23.215,43.678,47.221,43.678,94.701c0,20.687-4.214,36.916-10.746,50.566
			c17.006-19.588,30.859-41.266,30.859-78.627c0-45.523-20.57-67.762-42.348-91.307c-21.473-23.215-43.677-47.22-43.677-94.7
			c0-13.078,1.688-24.371,4.577-34.36h-6.44c-10.742,15.926-18.251,34.923-18.251,62.42
			C29.327,108.815,49.897,131.054,71.675,154.598z"/>
		<path fill="none" d="M400.184,407.255c0-20.684,4.215-36.916,10.746-50.565c-17.007,19.588-30.859,41.265-30.859,78.626
			c0,45.525,20.57,67.765,42.348,91.311c11.432,12.36,23.07,24.945,31.456,41.176h29.854c-6.093-29.301-22.594-47.167-39.867-65.842
			C422.388,478.744,400.184,454.737,400.184,407.255z"/>
		<path fill="none" d="M129.95,154.598c21.474,23.215,43.678,47.221,43.678,94.701c0,21.162-4.41,37.661-11.201,51.505
			c17.378-19.837,31.679-41.606,31.679-79.565c0-45.523-20.57-67.762-42.348-91.307c-21.474-23.215-43.678-47.22-43.678-94.7
			c0-13.078,1.688-24.37,4.578-34.36h-6.807c-10.742,15.925-18.249,34.924-18.249,62.42
			C87.602,108.815,108.173,131.054,129.95,154.598z"/>
		<path fill="none" d="M363.78,154.598c21.473,23.215,43.677,47.221,43.677,94.701c0,21.162-4.41,37.661-11.2,51.505
			c17.377-19.837,31.678-41.606,31.678-79.565c0-45.523-20.57-67.762-42.348-91.307c-21.474-23.215-43.678-47.22-43.678-94.7
			c0-13.078,1.688-24.371,4.577-34.36h-6.806c-10.742,15.925-18.248,34.923-18.248,62.42
			C321.432,108.815,342.003,131.054,363.78,154.598z"/>
		<path fill="none" d="M422.419,154.598c21.474,23.215,43.678,47.221,43.678,94.701c0,20.684-4.215,36.916-10.745,50.565
			c17.006-19.588,30.858-41.265,30.858-78.626c0-45.523-20.57-67.762-42.348-91.307c-21.474-23.215-43.678-47.22-43.678-94.7
			c0-13.077,1.688-24.37,4.578-34.36h-6.44c-10.743,15.925-18.251,34.922-18.251,62.42
			C380.071,108.815,400.641,131.054,422.419,154.598z"/>
		<path fill="none" d="M305.505,154.598c21.473,23.215,43.677,47.221,43.677,94.701c0,20.687-4.214,36.917-10.746,50.567
			c17.006-19.588,30.86-41.267,30.86-78.628c0-45.523-20.57-67.762-42.349-91.307c-21.473-23.215-43.677-47.22-43.677-94.7
			c0-13.078,1.688-24.371,4.578-34.36h-6.44c-10.742,15.925-18.251,34.923-18.251,62.42
			C263.157,108.815,283.727,131.054,305.505,154.598z"/>
		<path d="M171.355,407.255c0-33.752,11.306-54.704,26.029-72.879c2.514-2.823,4.993-5.701,7.402-8.671
			c2.915-3.271,5.904-6.504,8.916-9.761c21.474-23.216,43.678-47.223,43.678-94.705c0-47.481-22.204-71.486-43.678-94.701
			c-21.777-23.545-42.348-45.783-42.348-91.306c0-13.218,1.74-24.467,4.735-34.36h-5.157c-2.89,9.99-4.578,21.283-4.578,34.36
			c0,47.48,22.204,71.485,43.678,94.7c21.777,23.545,42.348,45.783,42.348,91.307c0,37.361-13.853,59.038-30.858,78.626
			c6.53-13.649,10.745-29.882,10.745-50.565c0-47.48-22.204-71.486-43.678-94.701c-21.777-23.545-42.348-45.783-42.348-91.307
			c0-27.498,7.509-46.495,18.251-62.42h-5.907c-10.151,15.994-17.344,35.405-17.344,62.42c0,47.48,22.204,71.486,43.678,94.701
			c21.777,23.545,42.348,45.783,42.348,91.307c0,33.752-11.307,54.705-26.029,72.88c-2.515,2.823-4.993,5.699-7.401,8.669
			c-2.915,3.271-5.905,6.505-8.917,9.762c-21.474,23.216-43.678,47.223-43.678,94.705s22.204,71.489,43.678,94.705
			c10.981,11.873,21.65,23.42,29.535,37.781h5.591c-8.385-16.231-20.024-28.816-31.456-41.176
			c-21.777-23.546-42.348-45.785-42.348-91.311c0-37.361,13.853-59.038,30.858-78.626c-6.53,13.649-10.745,29.882-10.745,50.565
			c0,47.482,22.204,71.489,43.677,94.705c17.273,18.675,33.774,36.542,39.867,65.842h5.065
			c-6.306-31.421-24.014-50.59-41.261-69.237C191.926,475.019,171.355,452.779,171.355,407.255z"/>
		<path d="M54.441,407.255c0-33.758,11.31-54.711,26.035-72.888c2.51-2.817,4.985-5.69,7.389-8.654
			c2.917-3.274,5.909-6.509,8.924-9.769c21.473-23.216,43.677-47.223,43.677-94.705c0-47.481-22.204-71.486-43.677-94.701
			c-21.777-23.545-42.348-45.783-42.348-91.306c0-13.218,1.74-24.467,4.734-34.36h-5.157c-2.889,9.99-4.577,21.282-4.577,34.36
			c0,47.48,22.204,71.485,43.677,94.7c21.777,23.545,42.348,45.783,42.348,91.307c0,37.361-13.854,59.039-30.859,78.627
			c6.532-13.65,10.746-29.88,10.746-50.566c0-47.48-22.204-71.486-43.678-94.701c-21.777-23.545-42.348-45.783-42.348-91.307
			c0-27.497,7.509-46.494,18.251-62.42h-5.907c-10.151,15.994-17.344,35.405-17.344,62.42c0,47.48,22.204,71.486,43.678,94.701
			c21.777,23.545,42.348,45.783,42.348,91.307c0,33.758-11.31,54.71-26.035,72.888c-2.51,2.817-4.984,5.689-7.389,8.653
			c-2.917,3.274-5.909,6.51-8.924,9.77c-21.474,23.216-43.678,47.223-43.678,94.705s22.204,71.489,43.678,94.705
			c10.981,11.873,21.65,23.419,29.535,37.781h5.591c-8.385-16.231-20.024-28.816-31.456-41.176
			c-21.777-23.546-42.348-45.785-42.348-91.311c0-37.361,13.854-59.04,30.86-78.628c-6.532,13.65-10.746,29.881-10.746,50.567
			c0,47.482,22.204,71.489,43.677,94.705c17.272,18.675,33.773,36.542,39.866,65.842h5.065c-6.306-31.421-24.014-50.59-41.26-69.237
			C75.012,475.019,54.441,452.78,54.441,407.255z"/>
		<path d="M229.995,407.255c0-45.525,20.57-67.765,42.348-91.311c21.473-23.216,43.677-47.223,43.677-94.705
			c0-47.481-22.204-71.486-43.677-94.701c-21.778-23.545-42.348-45.783-42.348-91.306c0-13.219,1.744-24.466,4.739-34.36h-5.161
			c-2.89,9.99-4.578,21.283-4.578,34.36c0,47.48,22.204,71.485,43.677,94.7c21.777,23.545,42.348,45.783,42.348,91.307
			c0,37.959-14.299,59.728-31.677,79.563c6.791-13.844,11.2-30.341,11.2-51.503c0-47.48-22.204-71.486-43.678-94.701
			c-21.777-23.545-42.348-45.783-42.348-91.307c0-27.496,7.506-46.495,18.248-62.42h-5.904
			c-10.151,15.994-17.344,35.405-17.344,62.42c0,47.48,22.204,71.486,43.678,94.701c21.777,23.545,42.348,45.783,42.348,91.307
			c0,45.525-20.57,67.765-42.348,91.311c-21.474,23.216-43.678,47.223-43.678,94.705s22.204,71.489,43.678,94.705
			c10.981,11.873,21.65,23.42,29.535,37.781h5.591c-8.385-16.231-20.024-28.816-31.456-41.176
			c-21.777-23.546-42.348-45.785-42.348-91.311c0-37.959,14.3-59.729,31.678-79.565c-6.79,13.845-11.2,30.343-11.2,51.505
			c0,47.482,22.204,71.489,43.677,94.705c17.272,18.675,33.773,36.542,39.866,65.842h5.065c-6.306-31.421-24.014-50.59-41.26-69.237
			C250.564,475.019,229.995,452.78,229.995,407.255z"/>
		<path d="M113.08,407.255c0-45.525,20.57-67.765,42.348-91.311c21.474-23.216,43.678-47.223,43.678-94.705
			c0-47.481-22.204-71.486-43.678-94.701c-21.777-23.545-42.348-45.783-42.348-91.306c0-13.219,1.744-24.466,4.739-34.36h-5.161
			c-2.89,9.99-4.578,21.283-4.578,34.36c0,47.48,22.204,71.485,43.678,94.7c21.777,23.545,42.348,45.783,42.348,91.307
			c0,37.959-14.301,59.729-31.679,79.565c6.791-13.844,11.201-30.343,11.201-51.505c0-47.48-22.204-71.486-43.678-94.701
			c-21.777-23.545-42.348-45.783-42.348-91.307c0-27.496,7.507-46.495,18.249-62.42h-5.905
			c-10.151,15.994-17.344,35.405-17.344,62.42c0,47.48,22.204,71.486,43.678,94.701c21.777,23.545,42.348,45.783,42.348,91.307
			c0,45.525-20.57,67.765-42.348,91.311c-21.474,23.216-43.678,47.223-43.678,94.705s22.204,71.489,43.678,94.705
			c10.981,11.873,21.65,23.42,29.535,37.781h5.591c-8.385-16.231-20.024-28.816-31.456-41.176
			c-21.777-23.546-42.348-45.785-42.348-91.311c0-37.959,14.301-59.729,31.679-79.565c-6.791,13.844-11.201,30.343-11.201,51.505
			c0,47.482,22.204,71.489,43.677,94.705c17.273,18.675,33.774,36.542,39.867,65.842h5.065
			c-6.306-31.421-24.014-50.59-41.261-69.237C133.65,475.019,113.08,452.779,113.08,407.255z"/>
		<path d="M463.824,407.255c0-45.525,20.57-67.765,42.348-91.311c21.474-23.216,43.678-47.223,43.678-94.705
			c0-47.481-22.204-71.486-43.678-94.701c-21.777-23.545-42.348-45.783-42.348-91.306c0-13.219,1.744-24.466,4.739-34.36h-5.161
			c-2.89,9.99-4.578,21.283-4.578,34.36c0,47.48,22.204,71.485,43.678,94.7c21.777,23.545,42.348,45.783,42.348,91.307
			c0,37.959-14.301,59.729-31.679,79.565c6.791-13.844,11.201-30.343,11.201-51.505c0-47.48-22.204-71.486-43.678-94.701
			c-21.777-23.545-42.348-45.783-42.348-91.307c0-27.496,7.507-46.495,18.249-62.42h-5.905
			c-10.152,15.994-17.344,35.405-17.344,62.42c0,47.48,22.204,71.486,43.678,94.701c21.777,23.545,42.348,45.783,42.348,91.307
			c0,45.525-20.57,67.765-42.348,91.311c-21.474,23.216-43.678,47.223-43.678,94.705s22.204,71.489,43.678,94.705
			c10.981,11.873,21.65,23.42,29.535,37.781h5.591c-8.385-16.231-20.024-28.816-31.456-41.176
			c-21.777-23.546-42.348-45.785-42.348-91.311c0-37.959,14.301-59.729,31.679-79.565c-6.791,13.844-11.201,30.343-11.201,51.505
			c0,47.482,22.204,71.489,43.677,94.705c17.273,18.675,33.774,36.542,39.867,65.842h5.065
			c-6.306-31.421-24.014-50.59-41.261-69.237C484.394,475.019,463.824,452.779,463.824,407.255z"/>
		<path d="M0,438.442v15.119c8.44,19.833,21.771,34.268,34.842,48.4c17.273,18.675,33.774,36.542,39.867,65.842h5.065
			c-6.306-31.421-24.014-50.59-41.261-69.237C22.393,481.136,6.944,464.412,0,438.442z"/>
		<path d="M405.184,407.255c0-33.752,11.307-54.705,26.029-72.88c2.515-2.823,4.993-5.699,7.401-8.669
			c2.915-3.271,5.905-6.505,8.917-9.762c21.474-23.216,43.678-47.223,43.678-94.705c0-47.481-22.204-71.486-43.678-94.701
			c-21.777-23.545-42.348-45.783-42.348-91.306c0-13.218,1.74-24.467,4.734-34.36h-5.156c-2.89,9.99-4.578,21.283-4.578,34.36
			c0,47.48,22.204,71.485,43.678,94.7c21.777,23.545,42.348,45.783,42.348,91.307c0,37.361-13.853,59.038-30.858,78.626
			c6.53-13.649,10.745-29.882,10.745-50.565c0-47.48-22.204-71.486-43.678-94.701c-21.777-23.545-42.348-45.783-42.348-91.307
			c0-27.498,7.508-46.495,18.251-62.42h-5.907c-10.152,15.994-17.344,35.405-17.344,62.42c0,47.48,22.204,71.486,43.678,94.701
			c21.777,23.545,42.348,45.783,42.348,91.307c0,33.752-11.307,54.705-26.029,72.88c-2.515,2.823-4.993,5.699-7.401,8.669
			c-2.915,3.271-5.905,6.505-8.917,9.762c-21.474,23.216-43.678,47.223-43.678,94.705s22.204,71.489,43.678,94.705
			c10.981,11.873,21.65,23.42,29.535,37.781h5.591c-8.385-16.231-20.024-28.816-31.456-41.176
			c-21.777-23.546-42.348-45.785-42.348-91.311c0-37.361,13.853-59.038,30.859-78.626c-6.531,13.649-10.746,29.882-10.746,50.565
			c0,47.482,22.204,71.489,43.677,94.705c17.273,18.675,33.774,36.542,39.867,65.842h5.065
			c-6.306-31.421-24.014-50.59-41.261-69.237C425.755,475.019,405.184,452.779,405.184,407.255z"/>
		<path d="M288.27,407.255c0-33.758,11.31-54.71,26.035-72.888c2.51-2.817,4.984-5.689,7.389-8.653
			c2.917-3.274,5.909-6.51,8.924-9.77c21.474-23.216,43.678-47.223,43.678-94.705c0-47.481-22.204-71.486-43.678-94.701
			c-21.777-23.545-42.348-45.783-42.348-91.306c0-13.218,1.74-24.466,4.735-34.36h-5.157c-2.89,9.99-4.578,21.282-4.578,34.36
			c0,47.48,22.204,71.485,43.677,94.7c21.778,23.545,42.349,45.783,42.349,91.307c0,37.361-13.854,59.04-30.86,78.628
			c6.532-13.65,10.746-29.881,10.746-50.567c0-47.48-22.204-71.486-43.677-94.701c-21.777-23.545-42.348-45.783-42.348-91.307
			c0-27.497,7.509-46.495,18.251-62.42h-5.907c-10.151,15.994-17.344,35.405-17.344,62.42c0,47.48,22.204,71.486,43.677,94.701
			c21.777,23.545,42.348,45.783,42.348,91.307c0,33.758-11.31,54.711-26.036,72.889c-2.509,2.817-4.984,5.689-7.388,8.653
			c-2.917,3.274-5.909,6.509-8.924,9.769c-21.473,23.216-43.677,47.223-43.677,94.705s22.204,71.489,43.677,94.705
			c10.981,11.873,21.65,23.419,29.535,37.781h5.591c-8.385-16.231-20.023-28.816-31.455-41.176
			c-21.777-23.546-42.348-45.785-42.348-91.311c0-37.361,13.854-59.039,30.859-78.627c-6.532,13.65-10.746,29.88-10.746,50.566
			c0,47.482,22.204,71.489,43.677,94.705c17.273,18.675,33.773,36.542,39.867,65.842h5.065
			c-6.306-31.421-24.014-50.59-41.261-69.237C308.841,475.019,288.27,452.779,288.27,407.255z"/>
		<path d="M346.909,407.255c0-45.525,20.57-67.765,42.348-91.311c21.474-23.216,43.678-47.223,43.678-94.705
			c0-47.481-22.204-71.486-43.678-94.701c-21.777-23.545-42.348-45.783-42.348-91.306c0-13.219,1.744-24.466,4.739-34.36h-5.161
			c-2.89,9.99-4.577,21.282-4.577,34.36c0,47.48,22.204,71.485,43.678,94.7c21.777,23.545,42.348,45.783,42.348,91.307
			c0,37.959-14.301,59.729-31.678,79.565c6.79-13.844,11.2-30.343,11.2-51.505c0-47.48-22.204-71.486-43.677-94.701
			c-21.777-23.545-42.348-45.783-42.348-91.307c0-27.497,7.506-46.495,18.248-62.42h-5.904
			c-10.151,15.994-17.344,35.405-17.344,62.42c0,47.48,22.204,71.486,43.677,94.701c21.777,23.545,42.348,45.783,42.348,91.307
			c0,45.525-20.57,67.765-42.348,91.311c-21.473,23.216-43.677,47.223-43.677,94.705s22.204,71.489,43.677,94.705
			c10.981,11.873,21.65,23.419,29.535,37.781h5.591c-8.385-16.231-20.023-28.816-31.455-41.176
			c-21.777-23.546-42.348-45.785-42.348-91.311c0-37.959,14.299-59.728,31.677-79.564c-6.79,13.845-11.2,30.342-11.2,51.504
			c0,47.482,22.204,71.489,43.677,94.705c17.273,18.675,33.774,36.542,39.867,65.842h5.065
			c-6.306-31.421-24.014-50.59-41.261-69.237C367.479,475.019,346.909,452.779,346.909,407.255z"/>
		<path d="M535.664,157.993c11.809,12.767,23.255,25.158,31.266,41.078V188.92c-7.912-13.026-17.826-23.76-27.596-34.322
			c-21.777-23.545-42.348-45.783-42.348-91.307c0-27.498,7.509-46.495,18.251-62.42h-5.907
			c-10.152,15.994-17.344,35.405-17.344,62.42C491.986,110.772,514.19,134.778,535.664,157.993z"/>
		<path d="M0,0.872v3.174c0.287-1.073,0.588-2.132,0.903-3.174H0z"/>
		<path d="M566.93,496.661v-9.949c-7.103-13.68-11.668-29.954-11.668-51.396c0-21.443,4.565-37.718,11.668-51.399v-9.946
			c-9.793,15.789-16.668,34.933-16.668,61.345S557.137,480.871,566.93,496.661z"/>
		<path d="M544.581,330.848c-2.915,3.271-5.905,6.505-8.917,9.762c-21.474,23.216-43.678,47.223-43.678,94.705
			s22.204,71.489,43.678,94.705c10.981,11.873,21.65,23.42,29.535,37.781h1.731v-6.853c-7.912-13.026-17.826-23.761-27.596-34.323
			c-21.777-23.546-42.348-45.785-42.348-91.311c0-37.361,13.853-59.038,30.858-78.626c-6.53,13.649-10.745,29.882-10.745,50.565
			c0,47.482,22.204,71.489,43.678,94.705c2.068,2.235,4.124,4.459,6.153,6.692v-7.399c-0.828-0.898-1.656-1.794-2.483-2.688
			c-21.777-23.546-42.348-45.786-42.348-91.311c0-33.752,11.306-54.704,26.028-72.879c2.515-2.823,4.994-5.701,7.403-8.671
			c2.914-3.271,5.904-6.504,8.916-9.761c0.827-0.894,1.655-1.79,2.483-2.688v-13.712c-4.19,8.324-9.317,15.685-14.948,22.635
			C549.468,325.003,546.989,327.879,544.581,330.848z"/>
		<path d="M0,530.41c7.202,10.581,12.976,22.514,16.07,37.391h5.065C17.347,548.927,9.448,534.471,0,521.9V530.41z"/>
		<path d="M82.19,221.239c0-47.481-22.204-71.486-43.678-94.701C22.393,109.11,6.944,92.387,0,66.418v15.118
			c8.44,19.832,21.771,34.266,34.842,48.397c21.778,23.545,42.349,45.783,42.349,91.307c0,37.959-14.301,59.729-31.678,79.565
			c6.79-13.844,11.2-30.343,11.2-51.505c0-47.48-22.204-71.486-43.677-94.701c-4.452-4.813-8.85-9.575-13.036-14.489v7.608
			c3.09,3.488,6.235,6.892,9.365,10.276c21.777,23.545,42.348,45.783,42.348,91.307c0,45.525-20.57,67.765-42.348,91.311
			c-3.13,3.384-6.275,6.788-9.365,10.277v7.606c0.782-0.918,1.569-1.833,2.365-2.741c-0.825,1.682-1.614,3.405-2.365,5.17v15.146
			c6.944-25.971,22.393-42.694,38.512-60.123C59.986,292.728,82.19,268.721,82.19,221.239z"/>
		<path d="M566.93,124.635v-9.949c-7.103-13.68-11.668-29.953-11.668-51.394c0-21.443,4.565-37.717,11.668-51.397V1.948
			c-9.793,15.789-16.668,34.932-16.668,61.344C550.262,89.703,557.137,108.846,566.93,124.635z"/>
		<path d="M0,149.871v8.51c10.901,16.016,18.552,35.107,18.552,62.857c0,27.751-7.65,46.844-18.552,62.86v8.51
			c13.302-17.7,23.552-39.117,23.552-71.37C23.552,188.986,13.302,167.57,0,149.871z"/>
		<path d="M0,512.136v7.608c3.09,3.488,6.235,6.892,9.365,10.277c10.981,11.873,21.65,23.419,29.535,37.781h5.591
			c-8.385-16.231-20.023-28.816-31.455-41.176C8.584,521.812,4.186,517.05,0,512.136z"/>
		<path d="M560.777,129.932c2.067,2.235,4.124,4.459,6.153,6.692v-7.398c-0.828-0.898-1.656-1.794-2.483-2.688
			c-21.777-23.545-42.348-45.783-42.348-91.306c0-13.218,1.74-24.467,4.734-34.36h-5.156c-2.889,9.99-4.578,21.283-4.578,34.36
			C517.099,82.713,539.304,106.718,560.777,129.932z"/>
	</g>
</g>
<g id="Ebene_2">
</g>
</svg>
