<?xml version="1.0" encoding="utf-8"?>
<!-- Generator: Adobe Illustrator 17.1.0, SVG Export Plug-In . SVG Version: 6.00 Build 0)  -->
<!DOCTYPE svg PUBLIC "-//W3C//DTD SVG 1.1//EN" "http://www.w3.org/Graphics/SVG/1.1/DTD/svg11.dtd">
<svg version="1.1" xmlns="http://www.w3.org/2000/svg" xmlns:xlink="http://www.w3.org/1999/xlink" x="0px" y="0px"
	 width="566.93px" height="566.93px" viewBox="0 0 566.93 566.93" enable-background="new 0 0 566.93 566.93" xml:space="preserve">
<g id="Ebene_1">
	<g>
		<polygon fill="none" points="558.099,566.93 567.137,566.93 567.137,557.891 		"/>
		<path fill="none" d="M567.137,508.525l-34.73,34.73l-4.242-4.242l38.972-38.972v-40.798l-1.698,1.698l-4.242-4.242l5.941-5.941
			v-86.191l-48.043,48.043l-4.242-4.242l52.285-52.285v-40.882l-34.73,34.73l-4.242-4.242l38.972-38.972v-44.951l-5.852,5.852
			l-4.242-4.242l10.094-10.094V167.09l-52.196,52.197l-4.242-4.242l56.439-56.439v-33.67l-44.215,44.215l-4.242-4.242l48.457-48.457
			V71.499L551.8,86.836l-4.242-4.242l19.579-19.579V22.134l-2.024,2.024l-4.242-4.242l6.266-6.266V0h-23.176l-38.505,38.505
			l-4.242-4.242L535.477,0H408.045l-24.157,24.157l-4.242-4.242L399.561,0h-36.827l-38.505,38.505l-4.242-4.242L354.25,0H226.819
			l-24.157,24.157l-4.242-4.242L218.334,0h-36.826l-38.505,38.505l-4.242-4.242L173.024,0H48.848L24.691,24.157l-4.242-4.242
			L40.363,0H3.537l-3.33,3.33v45.612l3.912,3.912l-3.912,3.912v86.192l46.015-46.015l4.242,4.242L0.207,151.442v26.261
			l30.625-30.625l4.242,4.242L0.207,186.188v44.951l1.747-1.747l4.242,4.242l-5.989,5.989v86.191l48.092-48.092l4.242,4.242
			L0.207,334.299v40.882l34.778-34.778l4.242,4.242L0.207,383.665v44.951l5.901-5.9l4.242,4.242L0.207,437.101v86.191l52.245-52.245
			l4.242,4.242L0.207,531.776v35.154h5.728l33.203-33.203l4.242,4.242L14.42,566.93h36.826l47.551-47.552l4.242,4.242L59.73,566.93
			h127.432l33.203-33.203l4.242,4.242l-28.961,28.961h36.826l47.552-47.552l4.242,4.242l-43.31,43.31h127.432l33.203-33.203
			l4.242,4.242l-28.961,28.961h36.826l47.552-47.552l4.242,4.242l-43.31,43.31h127.432l17.523-17.523V508.525z M549.787,422.716
			l4.242,4.242l-67.966,67.966l-4.242-4.242L549.787,422.716z M457.096,132.73l4.242,4.242l-67.965,67.966l-4.242-4.242
			L457.096,132.73z M412.677,130.925l67.965-67.965l4.242,4.242l-67.965,67.965L412.677,130.925z M364.407,229.392l4.242,4.242
			L300.683,301.6l-4.242-4.242L364.407,229.392z M329.472,215.044l67.966-67.966l4.242,4.242l-67.966,67.966L329.472,215.044z
			 M318.062,181.061l4.242,4.242l-67.966,67.966l-4.242-4.242L318.062,181.061z M194.68,267.617l-4.242-4.242l67.965-67.966
			l4.242,4.242L194.68,267.617z M207.994,204.938l-4.242-4.242l67.966-67.966l4.242,4.242L207.994,204.938z M148.334,219.286
			l-4.242-4.242l67.966-67.966l4.242,4.242L148.334,219.286z M183.18,229.392l4.242,4.242L119.458,301.6l-4.242-4.242
			L183.18,229.392z M229.526,277.723l4.242,4.242l-67.966,67.966l-4.242-4.242L229.526,277.723z M241.025,315.948l-4.242-4.242
			l67.966-67.966l4.242,4.242L241.025,315.948z M280.113,330.296l-67.966,67.966l-4.242-4.242l67.966-67.966L280.113,330.296z
			 M351.093,292.071l4.242,4.242l-67.966,67.966l-4.242-4.242L351.093,292.071z M410.751,277.723l4.242,4.242l-67.966,67.966
			l-4.242-4.242L410.751,277.723z M426.405,315.948l-4.242-4.242l67.965-67.966l4.242,4.242L426.405,315.948z M461.338,330.296
			l-67.965,67.966l-4.242-4.242l67.965-67.966L461.338,330.296z M439.718,253.269l-4.242-4.242l67.966-67.966l4.242,4.242
			L439.718,253.269z M380.059,267.617l-4.242-4.242l67.966-67.966l4.242,4.242L380.059,267.617z M341.697,169.15l-4.242-4.242
			l67.966-67.966l4.242,4.242L341.697,169.15z M282.038,183.498l-4.242-4.242l67.966-67.965l4.242,4.242L282.038,183.498z
			 M235.693,135.167l-4.242-4.242l67.966-67.965l4.242,4.242L235.693,135.167z M163.725,169.15l-4.242-4.242l67.966-67.966
			l4.242,4.242L163.725,169.15z M104.067,183.498l-4.242-4.242l67.966-67.965l4.242,4.242L104.067,183.498z M136.835,181.061
			l4.242,4.242l-67.966,67.966l-4.242-4.242L136.835,181.061z M123.522,243.74l4.242,4.242l-67.966,67.966l-4.242-4.242
			L123.522,243.74z M169.867,292.071l4.242,4.242l-67.966,67.966l-4.242-4.242L169.867,292.071z M140.989,374.385l4.242,4.242
			l-67.965,67.966l-4.242-4.242L140.989,374.385z M152.489,412.61l-4.242-4.242l67.965-67.966l4.242,4.242L152.489,412.61z
			 M191.577,426.958l-67.966,67.966l-4.242-4.242l67.966-67.966L191.577,426.958z M262.556,388.733l4.242,4.242l-67.965,67.966
			l-4.242-4.242L262.556,388.733z M322.215,374.385l4.242,4.242l-67.966,67.966l-4.242-4.242L322.215,374.385z M333.714,412.61
			l-4.242-4.242l67.966-67.966l4.242,4.242L333.714,412.61z M372.802,426.958l-67.966,67.966l-4.242-4.242l67.966-67.966
			L372.802,426.958z M443.783,388.733l4.242,4.242l-67.966,67.966l-4.242-4.242L443.783,388.733z M503.442,374.385l4.242,4.242
			l-67.966,67.966l-4.242-4.242L503.442,374.385z M472.75,364.279l-4.242-4.242l67.965-67.966l4.242,4.242L472.75,364.279z
			 M549.787,229.392l4.242,4.242L486.063,301.6l-4.242-4.242L549.787,229.392z M463.264,183.498l-4.242-4.242l67.966-67.965
			l4.242,4.242L463.264,183.498z M540.301,48.611l4.242,4.242l-67.966,67.966l-4.242-4.242L540.301,48.611z M498.199,4.523
			l-67.966,67.966l-4.242-4.242L493.957,0.28L498.199,4.523z M434.297,14.629l4.242,4.242l-67.965,67.965l-4.242-4.242
			L434.297,14.629z M359.075,48.611l4.242,4.242l-67.965,67.966l-4.242-4.242L359.075,48.611z M316.972,4.523l-67.966,67.966
			l-4.242-4.242L312.73,0.28L316.972,4.523z M253.072,14.629l4.242,4.242l-67.966,67.965l-4.242-4.242L253.072,14.629z
			 M181.104,48.611l4.242,4.242l-67.966,67.966l-4.242-4.242L181.104,48.611z M57.722,135.167l-4.242-4.242l67.965-67.965
			l4.242,4.242L57.722,135.167z M139.001,4.523L71.036,72.488l-4.242-4.242L134.759,0.28L139.001,4.523z M11.376,86.836
			l-4.242-4.242L75.1,14.629l4.242,4.242L11.376,86.836z M90.491,132.73l4.242,4.242l-67.966,67.966l-4.242-4.242L90.491,132.73z
			 M13.454,267.617l-4.242-4.242l67.966-67.966l4.242,4.242L13.454,267.617z M94.644,326.054l4.242,4.242L30.92,398.262
			l-4.242-4.242L94.644,326.054z M17.607,460.941l-4.242-4.242l67.966-67.966l4.242,4.242L17.607,460.941z M63.952,509.273
			l-4.242-4.242l67.966-67.966l4.242,4.242L63.952,509.273z M106.055,553.361l67.965-67.966l4.242,4.242l-67.965,67.966
			L106.055,553.361z M169.956,543.255l-4.242-4.242l67.966-67.966l4.242,4.242L169.956,543.255z M245.178,509.273l-4.242-4.242
			l67.966-67.966l4.242,4.242L245.178,509.273z M287.281,553.361l67.966-67.966l4.242,4.242l-67.966,67.966L287.281,553.361z
			 M351.182,543.255l-4.242-4.242l67.965-67.966l4.242,4.242L351.182,543.255z M426.405,509.273l-4.242-4.242l67.965-67.966
			l4.242,4.242L426.405,509.273z M468.507,553.361l67.966-67.966l4.242,4.242l-67.966,67.966L468.507,553.361z"/>
		
			<rect x="177.197" y="135.123" transform="matrix(-0.7071 -0.7071 0.7071 -0.7071 178.085 440.1296)" fill="#010202" width="5.999" height="96.118"/>
		
			<rect x="236.856" y="120.774" transform="matrix(-0.7071 -0.7071 0.7071 -0.7071 290.0756 457.8203)" fill="#010202" width="5.999" height="96.118"/>
		
			<rect x="223.542" y="183.454" transform="matrix(-0.7071 -0.7071 0.7071 -0.7071 223.026 555.4069)" fill="#010202" width="5.999" height="96.117"/>
		
			<rect x="283.201" y="169.105" transform="matrix(0.7071 0.7071 -0.7071 0.7071 237.3847 -138.7681)" fill="#010202" width="5.999" height="96.118"/>
		
			<rect x="224.828" y="276.845" transform="matrix(0.7071 -0.7071 0.7071 0.7071 -117.9531 274.9246)" fill="#010202" width="96.118" height="5.999"/>
		
			<rect x="284.486" y="262.496" transform="matrix(-0.7071 0.7071 -0.7071 -0.7071 755.4235 218.0847)" fill="#010202" width="96.118" height="5.999"/>
		
			<rect x="316.232" y="280.116" transform="matrix(0.7071 0.7071 -0.7071 0.7071 325.5558 -129.6104)" fill="#010202" width="5.999" height="96.118"/>
		
			<rect x="375.89" y="265.768" transform="matrix(0.7071 0.7071 -0.7071 0.7071 332.8832 -175.9977)" fill="#010202" width="5.999" height="96.118"/>
		
			<rect x="317.517" y="373.507" transform="matrix(0.7071 -0.7071 0.7071 0.7071 -159.1554 368.7776)" fill="#010202" width="96.118" height="5.999"/>
		
			<rect x="377.176" y="359.158" transform="matrix(-0.7071 0.7071 -0.7071 -0.7071 982.0052 317.5515)" fill="#010202" width="96.117" height="5.999"/>
		
			<rect x="408.921" y="376.778" transform="matrix(0.7071 0.7071 -0.7071 0.7071 421.0543 -166.8401)" fill="#010202" width="5.999" height="96.118"/>
		
			<rect x="468.58" y="362.43" transform="matrix(0.7071 0.7071 -0.7071 0.7071 428.382 -213.2281)" fill="#010202" width="5.999" height="96.118"/>
		
			<rect x="410.207" y="470.169" transform="matrix(0.7071 -0.7071 0.7071 0.7071 -200.3577 462.6357)" fill="#010202" width="96.117" height="5.999"/>
		
			<rect x="469.866" y="455.82" transform="matrix(-0.7071 0.7071 -0.7071 -0.7071 1208.5876 417.0264)" fill="#010202" width="96.118" height="5.999"/>
		
			<rect x="456.552" y="518.5" transform="matrix(0.7071 -0.7071 0.7071 0.7071 -220.9586 509.5578)" fill="#010202" width="96.118" height="5.999"/>
		<polygon fill="#010202" points="532.408,543.255 567.137,508.525 567.137,500.041 528.166,539.013 		"/>
		<polygon fill="#010202" points="567.137,549.407 549.614,566.93 558.099,566.93 567.137,557.891 		"/>
		<polygon fill="#010202" points="30.833,147.078 0.207,177.703 0.207,186.188 35.075,151.32 		"/>
		
			<rect x="55.629" y="120.774" transform="matrix(0.7071 0.7071 -0.7071 0.7071 136.5554 7.9933)" fill="#010202" width="5.999" height="96.118"/>
		
			<rect x="-2.744" y="228.514" transform="matrix(0.7071 -0.7071 0.7071 0.7071 -150.432 99.8515)" fill="#010202" width="96.118" height="5.999"/>
		
			<rect x="56.915" y="214.165" transform="matrix(-0.7071 0.7071 -0.7071 -0.7071 332.7598 296.4956)" fill="#010202" width="96.118" height="5.999"/>
		
			<rect x="43.601" y="276.845" transform="matrix(-0.7071 0.7071 -0.7071 -0.7071 354.3535 412.9106)" fill="#010202" width="96.118" height="5.999"/>
		
			<rect x="103.26" y="262.496" transform="matrix(-0.7071 0.7071 -0.7071 -0.7071 446.0518 346.2288)" fill="#010202" width="96.117" height="5.999"/>
		
			<rect x="135.005" y="280.116" transform="matrix(0.7071 0.7071 -0.7071 0.7071 272.4757 -1.4639)" fill="#010202" width="5.999" height="96.118"/>
		
			<rect x="149.605" y="310.827" transform="matrix(-0.7071 0.7071 -0.7071 -0.7071 559.3427 395.9661)" fill="#010202" width="96.118" height="5.999"/>
		
			<rect x="136.291" y="373.507" transform="matrix(0.7071 -0.7071 0.7071 0.7071 -212.2363 240.6342)" fill="#010202" width="96.117" height="5.999"/>
		
			<rect x="195.95" y="359.158" transform="matrix(-0.7071 0.7071 -0.7071 -0.7071 672.6333 445.7017)" fill="#010202" width="96.118" height="5.999"/>
		
			<rect x="227.695" y="376.779" transform="matrix(0.7071 0.7071 -0.7071 0.7071 367.9744 -38.6939)" fill="#010202" width="5.999" height="96.117"/>
		
			<rect x="287.354" y="362.43" transform="matrix(0.7071 0.7071 -0.7071 0.7071 375.302 -85.0816)" fill="#010202" width="5.999" height="96.118"/>
		
			<rect x="228.981" y="470.169" transform="matrix(0.7071 -0.7071 0.7071 0.7071 -253.4375 334.4848)" fill="#010202" width="96.118" height="5.999"/>
		
			<rect x="288.639" y="455.82" transform="matrix(-0.7071 0.7071 -0.7071 -0.7071 899.2145 545.1729)" fill="#010202" width="96.118" height="5.999"/>
		
			<rect x="275.326" y="518.5" transform="matrix(0.7071 -0.7071 0.7071 0.7071 -274.0387 381.4113)" fill="#010202" width="96.118" height="5.999"/>
		
			<rect x="380.044" y="459.092" transform="matrix(-0.7071 -0.7071 0.7071 -0.7071 295.2863 1136.6134)" fill="#010202" width="5.999" height="96.117"/>
		<polygon fill="#010202" points="401.591,533.727 368.388,566.93 376.872,566.93 405.833,537.969 		"/>
		<polygon fill="#010202" points="461.25,519.378 413.698,566.93 422.183,566.93 465.493,523.62 		"/>
		<polygon fill="#010202" points="1.955,229.392 0.207,231.139 0.207,239.623 6.197,233.634 		"/>
		<polygon fill="#010202" points="48.299,277.723 0.207,325.815 0.207,334.299 52.541,281.965 		"/>
		<polygon fill="#010202" points="34.986,340.402 0.207,375.181 0.207,383.665 39.228,344.645 		"/>
		
			<rect x="59.783" y="314.099" transform="matrix(0.7071 0.7071 -0.7071 0.7071 274.4727 61.6798)" fill="#010202" width="5.999" height="96.118"/>
		
			<rect x="1.41" y="421.838" transform="matrix(0.7071 -0.7071 0.7071 0.7071 -285.9164 159.4117)" fill="#010202" width="96.118" height="5.999"/>
		
			<rect x="61.069" y="407.489" transform="matrix(-0.7071 0.7071 -0.7071 -0.7071 476.5532 623.5809)" fill="#010202" width="96.117" height="5.999"/>
		
			<rect x="47.754" y="470.169" transform="matrix(0.7071 -0.7071 0.7071 0.7071 -306.5175 206.3382)" fill="#010202" width="96.118" height="5.999"/>
		
			<rect x="107.414" y="455.82" transform="matrix(-0.7071 0.7071 -0.7071 -0.7071 589.8431 673.3188)" fill="#010202" width="96.118" height="5.999"/>
		
			<rect x="94.1" y="518.5" transform="matrix(0.7071 -0.7071 0.7071 0.7071 -327.1205 253.2684)" fill="#010202" width="96.117" height="5.999"/>
		
			<rect x="198.818" y="459.092" transform="matrix(-0.7071 -0.7071 0.7071 -0.7071 -14.086 1008.4673)" fill="#010202" width="5.999" height="96.118"/>
		<polygon fill="#010202" points="220.365,533.727 187.162,566.93 195.646,566.93 224.607,537.969 		"/>
		<polygon fill="#010202" points="280.024,519.378 232.472,566.93 240.956,566.93 284.266,523.62 		"/>
		<polygon fill="#010202" points="6.108,422.716 0.207,428.616 0.207,437.101 10.35,426.958 		"/>
		<polygon fill="#010202" points="52.453,471.047 0.207,523.292 0.207,531.776 56.695,475.289 		"/>
		<polygon fill="#010202" points="39.139,533.727 5.936,566.93 14.42,566.93 43.381,537.969 		"/>
		<polygon fill="#010202" points="98.797,519.378 51.246,566.93 59.73,566.93 103.04,523.62 		"/>
		<polygon fill="#010202" points="514.941,219.286 567.137,167.09 567.137,158.605 510.699,215.044 		"/>
		<polygon fill="#010202" points="561.286,267.617 567.137,261.765 567.137,253.281 557.043,263.375 		"/>
		
			<rect x="317.517" y="180.182" transform="matrix(0.7071 -0.7071 0.7071 0.7071 -22.4546 312.1542)" fill="#010202" width="96.118" height="5.999"/>
		
			<rect x="377.176" y="165.834" transform="matrix(-0.7071 0.7071 -0.7071 -0.7071 845.3034 -12.4726)" fill="#010202" width="96.117" height="5.999"/>
		
			<rect x="408.921" y="183.454" transform="matrix(-0.7071 -0.7071 0.7071 -0.7071 539.4884 686.4899)" fill="#010202" width="5.999" height="96.118"/>
		
			<rect x="423.521" y="214.165" transform="matrix(0.7071 -0.7071 0.7071 0.7071 -15.4359 397.0635)" fill="#010202" width="96.118" height="5.999"/>
		
			<rect x="410.207" y="276.845" transform="matrix(0.7071 -0.7071 0.7071 0.7071 -63.6559 406.0113)" fill="#010202" width="96.117" height="5.999"/>
		
			<rect x="469.866" y="262.496" transform="matrix(-0.7071 0.7071 -0.7071 -0.7071 1071.8867 87.0013)" fill="#010202" width="96.118" height="5.999"/>
		
			<rect x="501.611" y="280.117" transform="matrix(-0.7071 -0.7071 0.7071 -0.7071 629.3696 917.0441)" fill="#010202" width="5.999" height="96.117"/>
		<polygon fill="#010202" points="532.408,349.931 567.137,315.201 567.137,306.717 528.166,345.689 		"/>
		<polygon fill="#010202" points="519.094,412.61 567.137,364.567 567.137,356.083 514.852,408.368 		"/>
		<polygon fill="#010202" points="565.439,460.941 567.137,459.243 567.137,450.759 561.197,456.699 		"/>
		<polygon fill="#010202" points="505.456,38.505 543.961,0 535.477,0 501.213,34.263 		"/>
		<polygon fill="#010202" points="565.114,24.157 567.137,22.134 567.137,13.649 560.872,19.915 		"/>
		<polygon fill="#010202" points="551.8,86.836 567.137,71.499 567.137,63.015 547.558,82.594 		"/>
		<polygon fill="#010202" points="324.229,38.505 362.734,0 354.25,0 319.987,34.263 		"/>
		<polygon fill="#010202" points="383.888,24.157 408.045,0 399.561,0 379.646,19.915 		"/>
		
			<rect x="399.436" y="2.674" transform="matrix(0.7071 0.7071 -0.7071 0.7071 153.7441 -269.7061)" fill="#010202" width="5.999" height="96.117"/>
		
			<rect x="414.036" y="33.385" transform="matrix(-0.7071 0.7071 -0.7071 -0.7071 814.5727 -264.6384)" fill="#010202" width="96.118" height="5.999"/>
		
			<rect x="400.722" y="96.064" transform="matrix(0.7071 -0.7071 0.7071 0.7071 61.3964 346.351)" fill="#010202" width="96.117" height="5.999"/>
		
			<rect x="460.38" y="81.716" transform="matrix(-0.7071 0.7071 -0.7071 -0.7071 927.8633 -214.9028)" fill="#010202" width="96.118" height="5.999"/>
		
			<rect x="492.126" y="99.336" transform="matrix(-0.7071 -0.7071 0.7071 -0.7071 741.0092 601.7252)" fill="#010202" width="5.999" height="96.117"/>
		<polygon fill="#010202" points="522.922,169.15 567.137,124.935 567.137,116.451 518.68,164.908 		"/>
		<polygon fill="#010202" points="143.003,38.505 181.508,0 173.024,0 138.761,34.263 		"/>
		<polygon fill="#010202" points="202.662,24.157 226.819,0 218.334,0 198.419,19.915 		"/>
		
			<rect x="173.151" y="47.733" transform="matrix(-0.7071 0.7071 -0.7071 -0.7071 413.5032 -69.812)" fill="#010202" width="96.117" height="5.999"/>
		
			<rect x="232.809" y="33.385" transform="matrix(-0.7071 0.7071 -0.7071 -0.7071 505.1996 -136.4919)" fill="#010202" width="96.118" height="5.999"/>
		
			<rect x="219.496" y="96.064" transform="matrix(0.7071 -0.7071 0.7071 0.7071 8.3156 218.2029)" fill="#010202" width="96.117" height="5.999"/>
		
			<rect x="279.155" y="81.716" transform="matrix(-0.7071 0.7071 -0.7071 -0.7071 618.4898 -86.7587)" fill="#010202" width="96.117" height="5.999"/>
		
			<rect x="310.9" y="99.336" transform="matrix(-0.7071 -0.7071 0.7071 -0.7071 431.6361 473.5787)" fill="#010202" width="5.999" height="96.117"/>
		
			<rect x="370.559" y="84.987" transform="matrix(-0.7071 -0.7071 0.7071 -0.7071 543.6264 491.2703)" fill="#010202" width="5.999" height="96.118"/>
		<polygon fill="#010202" points="0.207,0 0.207,3.33 3.537,0 		"/>
		<polygon fill="#010202" points="24.691,24.157 48.848,0 40.363,0 20.449,19.915 		"/>
		
			<rect x="-4.82" y="47.733" transform="matrix(0.7071 -0.7071 0.7071 0.7071 -23.209 45.4328)" fill="#010202" width="96.117" height="5.999"/>
		
			<rect x="54.838" y="33.385" transform="matrix(-0.7071 0.7071 -0.7071 -0.7071 201.3846 -10.6476)" fill="#010202" width="96.118" height="5.999"/>
		
			<rect x="41.525" y="96.064" transform="matrix(0.7071 -0.7071 0.7071 0.7071 -43.8101 92.3601)" fill="#010202" width="96.117" height="5.999"/>
		
			<rect x="101.183" y="81.716" transform="matrix(-0.7071 0.7071 -0.7071 -0.7071 314.6752 39.088)" fill="#010202" width="96.118" height="5.999"/>
		
			<rect x="132.929" y="99.336" transform="matrix(-0.7071 -0.7071 0.7071 -0.7071 127.8212 347.7344)" fill="#010202" width="5.999" height="96.117"/>
		
			<rect x="192.587" y="84.987" transform="matrix(-0.7071 -0.7071 0.7071 -0.7071 239.8097 365.4253)" fill="#010202" width="5.999" height="96.118"/>
		<polygon fill="#010202" points="0.207,48.941 0.207,56.766 4.12,52.854 		"/>
		<polygon fill="#010202" points="46.222,96.942 0.207,142.958 0.207,151.442 50.464,101.185 		"/>
	</g>
</g>
<g id="Ebene_2">
</g>
</svg>
