<svg xmlns="http://www.w3.org/2000/svg" xmlns:xlink="http://www.w3.org/1999/xlink" width="566.93" height="566.93" viewBox="0 0 566.93 566.93"><g><defs><path id="a" d="M618.062 0h566.93v566.93h-566.93z"/></defs><clipPath id="b"><use xlink:href="#a" overflow="visible"/></clipPath><g clip-path="url(#b)"><circle fill="#fff" cx="586.907" cy="35.49" r="70.149"/><path d="M586.907 109.64c-40.886 0-74.15-33.263-74.15-74.15s33.265-74.148 74.15-74.148 74.15 33.263 74.15 74.15-33.264 74.148-74.15 74.148zm0-140.3c-36.475 0-66.15 29.675-66.15 66.15s29.676 66.15 66.15 66.15 66.15-29.675 66.15-66.15-29.675-66.15-66.15-66.15z"/><circle fill="#fff" stroke="#000" stroke-width="7" stroke-miterlimit="10" cx="586.907" cy="35.49" r="52.612"/><circle fill="#fff" stroke="#000" stroke-width="6" stroke-miterlimit="10" cx="586.907" cy="35.49" r="34.329"/><circle fill="#fff" stroke="#000" stroke-width="5" stroke-miterlimit="10" cx="586.907" cy="35.49" r="20.941"/></g><g clip-path="url(#b)"><circle fill="#fff" cx="586.907" cy="114.986" r="70.149"/><path d="M586.907 189.136c-40.886 0-74.15-33.263-74.15-74.15s33.265-74.148 74.15-74.148 74.15 33.263 74.15 74.15-33.264 74.148-74.15 74.148zm0-140.3c-36.475 0-66.15 29.675-66.15 66.15s29.676 66.15 66.15 66.15 66.15-29.675 66.15-66.15-29.675-66.15-66.15-66.15z"/><circle fill="#fff" stroke="#000" stroke-width="7" stroke-miterlimit="10" cx="586.907" cy="114.986" r="52.612"/><circle fill="#fff" stroke="#000" stroke-width="6" stroke-miterlimit="10" cx="586.907" cy="114.986" r="34.329"/><circle fill="#fff" stroke="#000" stroke-width="5" stroke-miterlimit="10" cx="586.907" cy="114.986" r="20.941"/></g><g clip-path="url(#b)"><circle fill="#fff" cx="586.907" cy="194.482" r="70.149"/><path d="M586.907 268.632c-40.886 0-74.15-33.263-74.15-74.15s33.265-74.148 74.15-74.148 74.15 33.263 74.15 74.15-33.264 74.148-74.15 74.148zm0-140.3c-36.475 0-66.15 29.675-66.15 66.15s29.676 66.15 66.15 66.15 66.15-29.675 66.15-66.15-29.675-66.15-66.15-66.15z"/><circle fill="#fff" stroke="#000" stroke-width="7" stroke-miterlimit="10" cx="586.907" cy="194.482" r="52.612"/><circle fill="#fff" stroke="#000" stroke-width="6" stroke-miterlimit="10" cx="586.907" cy="194.482" r="34.329"/><circle fill="#fff" stroke="#000" stroke-width="5" stroke-miterlimit="10" cx="586.907" cy="194.482" r="20.941"/></g><g clip-path="url(#b)"><circle fill="#fff" cx="586.907" cy="273.978" r="70.149"/><path d="M586.907 348.128c-40.886 0-74.15-33.264-74.15-74.15s33.265-74.15 74.15-74.15 74.15 33.264 74.15 74.15-33.264 74.15-74.15 74.15zm0-140.3c-36.475 0-66.15 29.675-66.15 66.15 0 36.475 29.676 66.15 66.15 66.15s66.15-29.675 66.15-66.15c0-36.475-29.675-66.15-66.15-66.15z"/><circle fill="#fff" stroke="#000" stroke-width="7" stroke-miterlimit="10" cx="586.907" cy="273.978" r="52.612"/><circle fill="#fff" stroke="#000" stroke-width="6" stroke-miterlimit="10" cx="586.907" cy="273.978" r="34.329"/><circle fill="#fff" stroke="#000" stroke-width="5" stroke-miterlimit="10" cx="586.907" cy="273.978" r="20.941"/></g><g clip-path="url(#b)"><circle fill="#fff" cx="586.907" cy="353.474" r="70.149"/><path d="M586.907 427.624c-40.886 0-74.15-33.264-74.15-74.15s33.265-74.15 74.15-74.15 74.15 33.264 74.15 74.15-33.264 74.15-74.15 74.15zm0-140.3c-36.475 0-66.15 29.675-66.15 66.15 0 36.475 29.676 66.15 66.15 66.15s66.15-29.676 66.15-66.15c0-36.475-29.675-66.15-66.15-66.15z"/><circle fill="#fff" stroke="#000" stroke-width="7" stroke-miterlimit="10" cx="586.907" cy="353.474" r="52.612"/><circle fill="#fff" stroke="#000" stroke-width="6" stroke-miterlimit="10" cx="586.907" cy="353.474" r="34.329"/><circle fill="#fff" stroke="#000" stroke-width="5" stroke-miterlimit="10" cx="586.907" cy="353.474" r="20.941"/></g><g clip-path="url(#b)"><circle fill="#fff" cx="586.907" cy="432.97" r="70.149"/><path d="M586.907 507.12c-40.886 0-74.15-33.264-74.15-74.15s33.265-74.148 74.15-74.148 74.15 33.264 74.15 74.15-33.264 74.148-74.15 74.148zm0-140.3c-36.475 0-66.15 29.676-66.15 66.15s29.676 66.15 66.15 66.15 66.15-29.676 66.15-66.15-29.675-66.15-66.15-66.15z"/><circle fill="#fff" stroke="#000" stroke-width="7" stroke-miterlimit="10" cx="586.907" cy="432.97" r="52.612"/><circle fill="#fff" stroke="#000" stroke-width="6" stroke-miterlimit="10" cx="586.907" cy="432.97" r="34.329"/><circle fill="#fff" stroke="#000" stroke-width="5" stroke-miterlimit="10" cx="586.907" cy="432.97" r="20.941"/></g><g clip-path="url(#b)"><circle fill="#fff" cx="586.907" cy="512.466" r="70.149"/><path d="M586.907 586.615c-40.886 0-74.15-33.263-74.15-74.148s33.265-74.15 74.15-74.15 74.15 33.265 74.15 74.15-33.264 74.148-74.15 74.148zm0-140.298c-36.475 0-66.15 29.675-66.15 66.15s29.676 66.147 66.15 66.147 66.15-29.674 66.15-66.148-29.675-66.15-66.15-66.15z"/><circle fill="#fff" stroke="#000" stroke-width="7" stroke-miterlimit="10" cx="586.907" cy="512.466" r="52.612"/><circle fill="#fff" stroke="#000" stroke-width="6" stroke-miterlimit="10" cx="586.907" cy="512.466" r="34.329"/><circle fill="#fff" stroke="#000" stroke-width="5" stroke-miterlimit="10" cx="586.907" cy="512.466" r="20.941"/></g><path d="M34.722 29.99L17.228 0h-3.513L0 23.512v6.478zM0 62.99h15.472L0 36.468zM0 95.99h34.722l-19.25-33L0 89.513zM0 102.47v26.52h15.472zM0 161.992h34.722l-19.25-33L0 155.513zM0 168.47v26.523h15.472zM0 227.993h34.722l-19.25-33L0 221.515zM0 234.47v26.524h15.472zM0 293.994h34.722l-19.25-33L0 287.516zM0 300.472v26.523h15.472zM0 359.995h34.722l-19.25-33L0 353.518zM0 366.473v26.523h15.472zM0 425.997h34.722l-19.25-33L0 419.518zM0 432.474v26.523h15.472zM0 491.998h34.722l-19.25-33L0 485.52zM0 498.476v26.522h15.472zM0 558h34.722l-19.25-33.002L0 551.52zM0 564.477v2.453h1.43zM73.223 536.588h-38.5L52.42 566.93h3.103zM15.472 503.588l19.25 33 19.25-33zM73.223 470.587h-38.5l19.25 33zM34.722 470.587l19.25-33h-38.5zM73.223 404.586h-38.5l19.25 33zM34.722 404.586l19.25-33h-38.5zM73.223 338.585h-38.5l19.25 33zM34.722 338.585l19.25-33h-38.5zM73.223 272.584h-38.5l19.25 33zM34.722 272.584l19.25-33h-38.5zM73.223 206.583h-38.5l19.25 33zM34.722 206.583l19.25-33h-38.5zM73.223 140.582h-38.5l19.25 33zM34.722 140.582l19.25-33h-38.5zM73.223 74.58h-38.5l19.25 33zM34.722 74.58l19.25-33h-38.5zM73.223 8.58h-38.5l19.25 33zM29.717 0l5.005 8.58L39.727 0zM111.723 29.99L94.23 0h-3.513L73.223 29.99zM92.473 62.99l-19.25-33-19.25 33zM111.723 95.99l-19.25-33-19.25 33zM92.473 128.99l-19.25-33-19.25 33zM111.723 161.992l-19.25-33-19.25 33zM92.473 194.993l-19.25-33-19.25 33zM111.723 227.993l-19.25-33-19.25 33zM92.473 260.994l-19.25-33-19.25 33zM111.723 293.994l-19.25-33-19.25 33zM92.473 326.995l-19.25-33-19.25 33zM111.723 359.995l-19.25-33-19.25 33zM92.473 392.996l-19.25-33-19.25 33zM111.723 425.997l-19.25-33-19.25 33zM92.473 458.997l-19.25-33-19.25 33zM111.723 491.998l-19.25-33-19.25 33zM92.473 524.998l-19.25-33-19.25 33zM111.723 558l-19.25-33.002-19.25 33zM78.432 566.93l-5.21-8.93-5.21 8.93zM150.224 536.588h-38.5l17.7 30.342h3.1zM92.473 503.588l19.25 33 19.25-33zM150.224 470.587h-38.5l19.25 33zM111.723 470.587l19.25-33h-38.5zM150.224 404.586h-38.5l19.25 33zM111.723 404.586l19.25-33h-38.5zM150.224 338.585h-38.5l19.25 33zM111.723 338.585l19.25-33h-38.5zM150.224 272.584h-38.5l19.25 33zM111.723 272.584l19.25-33h-38.5zM150.224 206.583h-38.5l19.25 33zM111.723 206.583l19.25-33h-38.5zM150.224 140.582h-38.5l19.25 33zM111.723 140.582l19.25-33h-38.5zM150.224 74.58h-38.5l19.25 33zM111.723 74.58l19.25-33h-38.5zM150.224 8.58h-38.5l19.25 33zM106.72 0l5.003 8.58L116.728 0zM188.725 29.99L171.23 0h-3.512l-17.494 29.99zM169.474 62.99l-19.25-33-19.25 33zM188.725 95.99l-19.25-33-19.25 33zM169.474 128.99l-19.25-33-19.25 33zM188.725 161.992l-19.25-33-19.25 33zM169.474 194.993l-19.25-33-19.25 33zM188.725 227.993l-19.25-33-19.25 33zM169.474 260.994l-19.25-33-19.25 33zM188.725 293.994l-19.25-33-19.25 33zM169.474 326.995l-19.25-33-19.25 33zM188.725 359.995l-19.25-33-19.25 33zM169.474 392.996l-19.25-33-19.25 33zM188.725 425.997l-19.25-33-19.25 33zM169.474 458.997l-19.25-33-19.25 33zM188.725 491.998l-19.25-33-19.25 33zM169.474 524.998l-19.25-33-19.25 33zM188.725 558l-19.25-33.002-19.25 33zM155.434 566.93l-5.21-8.93-5.21 8.93zM227.225 536.588h-38.5l17.7 30.342h3.1zM169.474 503.588l19.25 33 19.25-33zM227.225 470.587h-38.5l19.25 33zM188.725 470.587l19.25-33h-38.5zM227.225 404.586h-38.5l19.25 33zM188.725 404.586l19.25-33h-38.5zM227.225 338.585h-38.5l19.25 33zM188.725 338.585l19.25-33h-38.5zM227.225 272.584h-38.5l19.25 33zM188.725 272.584l19.25-33h-38.5zM227.225 206.583h-38.5l19.25 33zM188.725 206.583l19.25-33h-38.5zM227.225 140.582h-38.5l19.25 33zM188.725 140.582l19.25-33h-38.5zM227.225 74.58h-38.5l19.25 33zM188.725 74.58l19.25-33h-38.5zM227.225 8.58h-38.5l19.25 33zM183.72 0l5.005 8.58L193.73 0zM265.726 29.99L248.232 0h-3.513l-17.495 29.99zM246.476 62.99l-19.25-33-19.25 33zM265.726 95.99l-19.25-33-19.25 33zM246.476 128.99l-19.25-33-19.25 33zM265.726 161.992l-19.25-33-19.25 33zM246.476 194.993l-19.25-33-19.25 33zM265.726 227.993l-19.25-33-19.25 33zM246.476 260.994l-19.25-33-19.25 33zM265.726 293.994l-19.25-33-19.25 33zM246.476 326.995l-19.25-33-19.25 33zM265.726 359.995l-19.25-33-19.25 33zM246.476 392.996l-19.25-33-19.25 33zM265.726 425.997l-19.25-33-19.25 33zM246.476 458.997l-19.25-33-19.25 33zM265.726 491.998l-19.25-33-19.25 33zM246.476 524.998l-19.25-33-19.25 33zM265.726 558l-19.25-33.002-19.25 33zM232.435 566.93l-5.21-8.93-5.21 8.93zM304.227 536.588h-38.5l17.698 30.342h3.102zM246.476 503.588l19.25 33 19.25-33zM304.227 470.587h-38.5l19.25 33zM265.726 470.587l19.25-33h-38.5zM304.227 404.586h-38.5l19.25 33zM265.726 404.586l19.25-33h-38.5zM304.227 338.585h-38.5l19.25 33zM265.726 338.585l19.25-33h-38.5zM304.227 272.584h-38.5l19.25 33zM265.726 272.584l19.25-33h-38.5zM304.227 206.583h-38.5l19.25 33zM265.726 206.583l19.25-33h-38.5zM304.227 140.582h-38.5l19.25 33zM265.726 140.582l19.25-33h-38.5zM304.227 74.58h-38.5l19.25 33zM265.726 74.58l19.25-33h-38.5zM304.227 8.58h-38.5l19.25 33zM260.72 0l5.006 8.58L270.73 0zM342.727 29.99L325.233 0h-3.513l-17.493 29.99zM323.477 62.99l-19.25-33-19.25 33zM342.727 95.99l-19.25-33-19.25 33zM323.477 128.99l-19.25-33-19.25 33zM342.727 161.992l-19.25-33-19.25 33zM323.477 194.993l-19.25-33-19.25 33zM342.727 227.993l-19.25-33-19.25 33zM323.477 260.994l-19.25-33-19.25 33zM342.727 293.994l-19.25-33-19.25 33zM323.477 326.995l-19.25-33-19.25 33zM342.727 359.995l-19.25-33-19.25 33zM323.477 392.996l-19.25-33-19.25 33zM342.727 425.997l-19.25-33-19.25 33zM323.477 458.997l-19.25-33-19.25 33zM342.727 491.998l-19.25-33-19.25 33zM323.477 524.998l-19.25-33-19.25 33zM342.727 558l-19.25-33.002-19.25 33zM309.437 566.93l-5.21-8.93-5.21 8.93zM381.228 536.588h-38.5l17.7 30.342h3.1zM323.477 503.588l19.25 33 19.25-33zM381.228 470.587h-38.5l19.25 33zM342.727 470.587l19.25-33h-38.5zM381.228 404.586h-38.5l19.25 33zM342.727 404.586l19.25-33h-38.5zM381.228 338.585h-38.5l19.25 33zM342.727 338.585l19.25-33h-38.5zM381.228 272.584h-38.5l19.25 33zM342.727 272.584l19.25-33h-38.5zM381.228 206.583h-38.5l19.25 33zM342.727 206.583l19.25-33h-38.5zM381.228 140.582h-38.5l19.25 33zM342.727 140.582l19.25-33h-38.5zM381.228 74.58h-38.5l19.25 33zM342.727 74.58l19.25-33h-38.5zM381.228 8.58h-38.5l19.25 33zM337.723 0l5.004 8.58L347.732 0zM419.73 29.99L402.234 0h-3.513l-17.494 29.99zM400.478 62.99l-19.25-33-19.25 33zM419.73 95.99l-19.252-33-19.25 33zM400.478 128.99l-19.25-33-19.25 33zM419.73 161.992l-19.252-33-19.25 33zM400.478 194.993l-19.25-33-19.25 33zM419.73 227.993l-19.252-33-19.25 33zM400.478 260.994l-19.25-33-19.25 33zM419.73 293.994l-19.252-33-19.25 33zM400.478 326.995l-19.25-33-19.25 33zM419.73 359.995l-19.252-33-19.25 33zM400.478 392.996l-19.25-33-19.25 33zM419.73 425.997l-19.252-33-19.25 33zM400.478 458.997l-19.25-33-19.25 33zM419.73 491.998l-19.252-33-19.25 33zM400.478 524.998l-19.25-33-19.25 33zM419.73 558l-19.252-33.002-19.25 33zM386.438 566.93l-5.21-8.93-5.21 8.93zM458.23 536.588h-38.5l17.698 30.342h3.102zM400.478 503.588l19.25 33 19.25-33zM458.23 470.587h-38.5l19.25 33zM419.73 470.587l19.25-33h-38.502zM458.23 404.586h-38.5l19.25 33zM419.73 404.586l19.25-33h-38.502zM458.23 338.585h-38.5l19.25 33zM419.73 338.585l19.25-33h-38.502zM458.23 272.584h-38.5l19.25 33zM419.73 272.584l19.25-33h-38.502zM458.23 206.583h-38.5l19.25 33zM419.73 206.583l19.25-33h-38.502zM458.23 140.582h-38.5l19.25 33zM419.73 140.582l19.25-33h-38.502zM458.23 74.58h-38.5l19.25 33zM419.73 74.58l19.25-33h-38.502zM458.23 8.58h-38.5l19.25 33zM414.724 0l5.005 8.58L424.732 0zM496.73 29.99L479.236 0h-3.513L458.23 29.99zM477.48 62.99l-19.25-33-19.25 33zM496.73 95.99l-19.25-33-19.25 33zM477.48 128.99l-19.25-33-19.25 33zM496.73 161.992l-19.25-33-19.25 33zM477.48 194.993l-19.25-33-19.25 33zM496.73 227.993l-19.25-33-19.25 33zM477.48 260.994l-19.25-33-19.25 33zM496.73 293.994l-19.25-33-19.25 33zM477.48 326.995l-19.25-33-19.25 33zM496.73 359.995l-19.25-33-19.25 33zM477.48 392.996l-19.25-33-19.25 33zM496.73 425.997l-19.25-33-19.25 33zM477.48 458.997l-19.25-33-19.25 33zM496.73 491.998l-19.25-33-19.25 33zM477.48 524.998l-19.25-33-19.25 33zM496.73 558l-19.25-33.002-19.25 33zM463.44 566.93l-5.21-8.93-5.21 8.93zM535.23 536.588h-38.5l17.7 30.342h3.1zM477.48 503.588l19.25 33 19.25-33zM535.23 470.587h-38.5l19.25 33zM496.73 470.587l19.25-33h-38.5zM535.23 404.586h-38.5l19.25 33zM496.73 404.586l19.25-33h-38.5zM535.23 338.585h-38.5l19.25 33zM496.73 338.585l19.25-33h-38.5zM535.23 272.584h-38.5l19.25 33zM496.73 272.584l19.25-33h-38.5zM535.23 206.583h-38.5l19.25 33zM496.73 206.583l19.25-33h-38.5zM535.23 140.582h-38.5l19.25 33zM496.73 140.582l19.25-33h-38.5zM535.23 74.58h-38.5l19.25 33zM496.73 74.58l19.25-33h-38.5zM535.23 8.58h-38.5l19.25 33zM491.725 0l5.005 8.58L501.735 0zM566.93 29.99V18.33L556.237 0h-3.513L535.23 29.99zM554.48 62.99l-19.25-33-19.25 33zM566.93 95.99V84.333L554.48 62.99l-19.25 33zM554.48 128.99l-19.25-33-19.25 33zM566.93 161.992v-11.66l-12.45-21.34-19.25 33zM554.48 194.993l-19.25-33-19.25 33zM566.93 227.993v-11.66l-12.45-21.34-19.25 33zM554.48 260.994l-19.25-33-19.25 33zM566.93 293.994v-11.66l-12.45-21.34-19.25 33zM554.48 326.995l-19.25-33-19.25 33zM566.93 359.995v-11.66l-12.45-21.34-19.25 33zM554.48 392.996l-19.25-33-19.25 33zM566.93 425.997v-11.66l-12.45-21.34-19.25 33zM554.48 458.997l-19.25-33-19.25 33zM566.93 491.998v-11.66l-12.45-21.34-19.25 33zM554.48 524.998l-19.25-33-19.25 33zM566.93 558v-11.66l-12.45-21.342-19.25 33zM540.44 566.93l-5.21-8.93-5.21 8.93zM566.93 524.93v-21.342h-12.45zM566.93 458.928v-21.34h-12.45zM566.93 392.927v-21.34h-12.45zM566.93 326.926v-21.342h-12.45zM566.93 260.925v-21.342h-12.45zM566.93 194.923v-21.34h-12.45zM566.93 128.922v-21.34h-12.45zM566.93 62.92V41.58h-12.45z"/></g></svg>