<?xml version="1.0" encoding="utf-8"?>
<!-- Generator: Adobe Illustrator 17.1.0, SVG Export Plug-In . SVG Version: 6.00 Build 0)  -->
<!DOCTYPE svg PUBLIC "-//W3C//DTD SVG 1.1//EN" "http://www.w3.org/Graphics/SVG/1.1/DTD/svg11.dtd">
<svg version="1.1" xmlns="http://www.w3.org/2000/svg" xmlns:xlink="http://www.w3.org/1999/xlink" x="0px" y="0px"
	 width="566.93px" height="566.93px" viewBox="0 0 566.93 566.93" enable-background="new 0 0 566.93 566.93" xml:space="preserve">
<g id="Ebene_1">
	<path d="M520.637,47.109v0.018h-0.017v47.485l-47.485-47.485h0.017V-0.358h47.468v-0.018l47.485,47.485H520.637z M473.433,47.267
		L425.948-0.218V-0.2H378.48v47.485h-0.017l47.485,47.485V47.285h0.017v-0.018H473.433z M568.106,141.94l-47.485-47.485v0.018
		h-47.468v47.485h-0.017l47.485,47.485v-47.485h0.017v-0.018H568.106z M378.76,47.425L331.275-0.06v0.018h-47.468v47.485h-0.017
		l47.485,47.485V47.443h0.017v-0.018H378.76z M473.433,142.098l-47.485-47.485v0.018H378.48v47.485h-0.017l47.485,47.485v-47.485
		h0.017v-0.018H473.433z M568.106,236.77l-47.485-47.485v0.018h-47.468v47.485h-0.017l47.485,47.485v-47.485h0.017v-0.018H568.106z
		 M284.087,47.583L236.602,0.098v0.018h-47.468v47.485h-0.017l47.485,47.485V47.601h0.017v-0.018H284.087z M378.76,142.255
		L331.275,94.77v0.018h-47.468v47.485h-0.017l47.485,47.485v-47.485h0.017v-0.018H378.76z M473.433,236.928l-47.485-47.485v0.018
		H378.48v47.485h-0.017l47.485,47.485v-47.485h0.017v-0.018H473.433z M568.106,331.601l-47.485-47.485v0.018h-47.468v47.485h-0.017
		l47.485,47.485v-47.485h0.017v-0.018H568.106z M189.415,47.74L141.93,0.255v0.018H94.461v47.485h-0.017l47.485,47.485V47.759h0.017
		V47.74H189.415z M284.087,142.413l-47.485-47.485v0.018h-47.468v47.485h-0.017l47.485,47.485v-47.485h0.017v-0.018H284.087z
		 M378.76,237.086l-47.485-47.485v0.018h-47.468v47.485h-0.017l47.485,47.485v-47.485h0.017v-0.018H378.76z M473.433,331.759
		l-47.485-47.485v0.018H378.48v47.485h-0.017l47.485,47.485v-47.485h0.017v-0.018H473.433z M568.106,426.431l-47.485-47.485v0.018
		h-47.468v47.485h-0.017l47.485,47.485V426.45h0.017v-0.018H568.106z M94.742,47.898L47.257,0.413v0.018H-0.211v47.485h-0.017
		l47.485,47.485V47.916h0.017v-0.018H94.742z M189.415,142.571L141.93,95.086v0.018H94.461v47.485h-0.017l47.485,47.485v-47.485
		h0.017v-0.018H189.415z M284.087,237.244l-47.485-47.485v0.018h-47.468v47.485h-0.017l47.485,47.485v-47.485h0.017v-0.018H284.087z
		 M378.76,331.916l-47.485-47.485v0.018h-47.468v47.485h-0.017l47.485,47.485v-47.485h0.017v-0.018H378.76z M473.433,426.589
		l-47.485-47.485v0.018H378.48v47.485h-0.017l47.485,47.485v-47.485h0.017v-0.018H473.433z M568.106,521.262l-47.485-47.485v0.018
		h-47.468v47.485h-0.017l47.485,47.485V521.28h0.017v-0.018H568.106z M94.742,142.729L47.257,95.244v0.018H-0.211v47.485h-0.017
		l47.485,47.485v-47.485h0.017v-0.018H94.742z M189.415,237.401l-47.485-47.485v0.018H94.461v47.485h-0.017l47.485,47.485V237.42
		h0.017v-0.018H189.415z M284.087,332.074l-47.485-47.485v0.018h-47.468v47.485h-0.017l47.485,47.485v-47.485h0.017v-0.018H284.087z
		 M378.76,426.747l-47.485-47.485v0.018h-47.468v47.485h-0.017l47.485,47.485v-47.485h0.017v-0.018H378.76z M473.433,521.42
		l-47.485-47.485v0.018H378.48v47.485h-0.017l47.485,47.485v-47.485h0.017v-0.018H473.433z M94.742,237.559l-47.485-47.485v0.018
		H-0.211v47.485h-0.017l47.485,47.485v-47.485h0.017v-0.018H94.742z M189.415,332.232l-47.485-47.485v0.018H94.461v47.485h-0.017
		l47.485,47.485V332.25h0.017v-0.018H189.415z M284.087,426.905l-47.485-47.485v0.018h-47.468v47.485h-0.017l47.485,47.485v-47.485
		h0.017v-0.018H284.087z M378.76,521.577l-47.485-47.485v0.018h-47.468v47.485h-0.017l47.485,47.485v-47.485h0.017v-0.018H378.76z
		 M94.742,332.39l-47.485-47.485v0.018H-0.211v47.485h-0.017l47.485,47.485v-47.485h0.017v-0.018H94.742z M189.415,427.062
		l-47.485-47.485v0.018H94.461v47.485h-0.017l47.485,47.485v-47.485h0.017v-0.018H189.415z M284.087,521.735l-47.485-47.485v0.018
		h-47.468v47.485h-0.017l47.485,47.485v-47.485h0.017v-0.018H284.087z M94.742,427.22l-47.485-47.485v0.018H-0.211v47.485h-0.017
		l47.485,47.485v-47.485h0.017v-0.018H94.742z M189.415,521.893l-47.485-47.485v0.018H94.461v47.485h-0.017l47.485,47.485v-47.485
		h0.017v-0.018H189.415z M94.742,522.051l-47.485-47.485v0.018H-0.211v47.485h-0.017l47.485,47.485v-47.485h0.017v-0.018H94.742z"/>
</g>
<g id="Ebene_2">
</g>
</svg>
