<svg xmlns="http://www.w3.org/2000/svg" xmlns:xlink="http://www.w3.org/1999/xlink" width="566.93" height="566.93" viewBox="0 0 566.93 566.93"><g><defs><path id="a" d="M-617.935-624.3h566.93v566.93h-566.93z"/></defs><clipPath id="b"><use xlink:href="#a" overflow="visible"/></clipPath><g clip-path="url(#b)" fill="#fff" stroke="#000" stroke-miterlimit="10"><circle stroke-width="8" cx="157.585" cy="-40.531" r="70.149"/><circle stroke-width="7" cx="157.585" cy="-40.531" r="52.612"/></g><g clip-path="url(#b)" fill="#fff" stroke="#000" stroke-miterlimit="10"><circle stroke-width="8" cx="-.497" cy="-40.531" r="70.149"/><circle stroke-width="7" cx="-.497" cy="-40.531" r="52.612"/></g><path fill="none" d="M286.622 300.386v61.69l53.425 30.844 53.425-30.845v-61.69l-53.425-30.844-53.425 30.846zm92.305 53.292l-38.88 22.448-38.88-22.448v-44.895l38.88-22.448 38.88 22.448v44.895zM168.015 566.527h2.193l-1.096-.633zM165.558 497.954l-53.425-30.845-53.425 30.844v61.69l11.923 6.883h29.09l-26.467-15.28V506.35l38.88-22.45 38.88 22.45v44.894l-26.466 15.28h29.09l11.92-6.882zM308.274 312.887v36.688l31.772 18.345 31.773-18.345v-36.688l-31.774-18.345-31.772 18.345zm49.81 28.758l-18.038 10.414-18.037-10.415v-20.828l18.036-10.414 18.038 10.414v20.828zM215.16 522.488v12.62l10.93 6.312 10.93-6.31v-12.622l-10.93-6.31zM86.927 250.79v-36.688l-31.772-18.345-31.772 18.345v36.688l31.772 18.345 31.772-18.345zm-49.81-28.758l18.038-10.414 18.038 10.414v20.828l-18.038 10.414-18.037-10.414v-20.828zM108.58 263.29v-61.688l-53.425-30.845L1.73 201.602v61.69l53.425 30.844 53.425-30.845zM16.275 210l38.88-22.45L94.035 210v44.894l-38.88 22.448-38.88-22.448V210zM194.317 510.455v36.688l31.773 18.345 31.772-18.345v-36.688L226.09 492.11l-31.773 18.345zm49.81 28.758l-18.037 10.414-18.038-10.414v-20.828l18.038-10.414 18.037 10.415v20.828zM51.6 497.954L0 468.164v16.793l37.057 21.395v44.894l-26.467 15.28h29.09l11.92-6.882zM54.058 566.527h2.193l-1.095-.633zM165.558 362.075v-61.69l-53.425-30.844-53.425 30.846v61.69l53.425 30.844 53.425-30.845zm-92.306-53.292l38.88-22.448 38.88 22.448v44.895l-38.88 22.448-38.88-22.448v-44.895zM29.95 510.455L0 493.165v15.86l16.214 9.36v20.828L0 548.573v15.86l29.95-17.29zM80.36 510.455v36.688l31.773 18.345 31.772-18.345v-36.688l-31.772-18.345-31.772 18.345zm49.81 28.758l-18.037 10.414-18.038-10.414v-20.828l18.038-10.414 18.037 10.415v20.828zM66.085 436.325v-12.62l-10.93-6.31-10.93 6.31v12.62l10.93 6.31zM457.557 399.17v61.69l53.425 30.844 53.424-30.845v-61.69l-53.424-30.845-53.425 30.845zm92.305 53.292l-38.88 22.448-38.88-22.448v-44.895l38.88-22.448 38.88 22.447v44.895zM86.927 448.358V411.67l-31.772-18.345-31.772 18.345v36.688l31.772 18.345 31.772-18.345zM37.117 419.6l18.038-10.413L73.193 419.6v20.83l-18.038 10.413-18.037-10.414V419.6zM251.295 411.67v36.69l31.772 18.344 31.773-18.345v-36.69l-31.773-18.344-31.772 18.345zm49.81 28.76l-18.037 10.413-18.037-10.414V419.6l18.038-10.413 18.038 10.414v20.83zM400.58 300.386v61.69l53.424 30.844 53.425-30.845v-61.69l-53.426-30.844-53.425 30.846zm92.303 53.292l-38.88 22.448-38.88-22.448v-44.895l38.88-22.448 38.88 22.448v44.895zM229.644 399.17v61.69l53.424 30.844 53.425-30.845v-61.69l-53.425-30.845-53.424 30.845zm92.305 53.292l-38.882 22.448-38.88-22.448v-44.895l38.88-22.448 38.88 22.447v44.895zM395.928 566.527h2.194l-1.097-.633zM443.073 522.488v12.62l10.93 6.312 10.93-6.31v-12.622l-10.93-6.31zM9.107 522.488L0 517.23v23.137l9.107-5.258zM507.428 497.954l-53.425-30.845-53.424 30.844v61.69l11.92 6.883h29.09l-26.467-15.28V506.35l38.88-22.45 38.88 22.45v44.894l-26.466 15.28h29.09l11.92-6.882zM422.23 510.455v36.688l31.773 18.345 31.772-18.345v-36.688l-31.772-18.345-31.773 18.345zm49.81 28.758l-18.037 10.414-18.038-10.414v-20.828l18.038-10.414 18.037 10.415v20.828zM272.138 423.704v12.62l10.93 6.312 10.93-6.31v-12.622l-10.93-6.31zM422.23 312.887v36.688l31.773 18.345 31.772-18.345v-36.688l-31.772-18.345-31.773 18.345zm49.81 28.758l-18.037 10.414-18.038-10.415v-20.828l18.038-10.414 18.037 10.414v20.828zM443.073 324.92v12.62l10.93 6.312 10.93-6.31V324.92l-10.93-6.31zM281.97 566.527h2.195l-1.097-.633zM329.117 324.92v12.62l10.93 6.312 10.93-6.31V324.92l-10.93-6.31zM279.514 497.954L226.09 467.11l-53.425 30.844v61.69l11.923 6.883h29.088l-26.467-15.28V506.35l38.88-22.45 38.88 22.45v44.894l-26.466 15.28h29.088l11.922-6.882zM393.47 497.954l-53.424-30.845-53.424 30.844v61.69l11.922 6.883h29.088l-26.466-15.28V506.35l38.88-22.45 38.88 22.45v44.894l-26.466 15.28h29.09l11.92-6.882zM308.274 510.455v36.688l31.772 18.345 31.773-18.345v-36.688l-31.774-18.345-31.772 18.345zm49.81 28.758l-18.038 10.414-18.037-10.414v-20.828l18.036-10.414 18.038 10.415v20.828zM66.085 238.757v-12.62l-10.93-6.312-10.93 6.31v12.622l10.93 6.31zM329.117 522.488v12.62l10.93 6.312 10.93-6.31v-12.622l-10.93-6.31zM371.82 152.006v-36.688l-31.773-18.345-31.772 18.345v36.688l31.772 18.345 31.773-18.344zm-49.81-28.758l18.036-10.414 18.038 10.414v20.828l-18.038 10.414-18.037-10.414v-20.828zM1.73 65.723l53.425 30.844 53.425-30.844V4.033l-7.683-4.435h-29.09L94.036 12.43v44.895l-38.88 22.448-38.88-22.448V12.43L38.5-.4H9.414L1.73 4.033zM343.6 399.17v61.69l53.425 30.844 53.425-30.845v-61.69l-53.425-30.845L343.6 399.17zm92.305 53.292l-38.88 22.448-38.88-22.448v-44.895l38.88-22.448 38.88 22.447v44.895zM66.084 41.188v-12.62l-10.93-6.31-10.93 6.31v12.62l10.93 6.31zM23.382 53.222l31.772 18.345 31.772-18.345V16.534L57.594-.402h-4.878L23.382 16.534v36.688zm13.735-28.758L55.155 14.05l18.037 10.414v20.828L55.155 55.706 37.117 45.292V24.464zM350.977 139.973v-12.62l-10.93-6.312-10.93 6.312v12.62l10.93 6.31zM365.252 411.67v36.69l31.772 18.344 31.772-18.345v-36.69l-31.772-18.344-31.772 18.345zm49.81 28.76l-18.037 10.413-18.038-10.414V419.6l18.038-10.413 18.037 10.414v20.83zM9.107 127.352L0 122.094v23.136l9.107-5.257zM509.885 566.527h2.194l-1.098-.633zM500.05 226.136v12.62l10.932 6.31 10.93-6.31v-12.62l-10.93-6.31zM29.95 115.318L0 98.028v15.86l16.214 9.36v20.828L0 153.436v15.86l29.95-17.29zM500.05 423.704v12.62l10.932 6.312 10.93-6.31v-12.622l-10.93-6.31zM479.208 411.67v36.69l31.773 18.344 31.773-18.345v-36.69l-31.772-18.344-31.772 18.345zm49.81 28.76l-18.036 10.413-18.038-10.414V419.6l18.038-10.413L529.02 419.6v20.83zM479.208 214.103v36.688l31.773 18.346 31.773-18.345v-36.687l-31.772-18.345-31.772 18.345zm49.81 28.757l-18.036 10.414-18.038-10.414v-20.828l18.038-10.414 18.037 10.414v20.828zM343.6 201.602v61.69l53.425 30.844 53.425-30.845v-61.688l-53.425-30.845-53.425 30.845zm92.305 53.292l-38.88 22.448-38.88-22.448V210l38.88-22.45 38.88 22.45v44.894zM365.252 214.103v36.688l31.772 18.346 31.772-18.345v-36.687l-31.772-18.345-31.772 18.345zm49.81 28.757l-18.037 10.414-18.038-10.414v-20.828l18.038-10.414 18.037 10.414v20.828zM457.557 201.602v61.69l53.425 30.844 53.424-30.845v-61.688l-53.424-30.845-53.425 30.845zm92.305 53.292l-38.88 22.448-38.88-22.448V210l38.88-22.45 38.88 22.45v44.894zM386.094 226.136v12.62l10.93 6.31 10.93-6.31v-12.62l-10.93-6.31zM51.6 300.386L0 270.594v16.794l37.057 21.395v44.895L0 375.073v16.794l51.6-29.792zM123.063 337.54v-12.62l-10.93-6.31-10.93 6.31v12.62l10.93 6.312zM200.884 448.358V411.67l-31.772-18.345-31.773 18.345v36.688l31.772 18.345 31.772-18.345zm-49.81-28.757l18.038-10.413L187.15 419.6v20.83l-18.038 10.413-18.038-10.414V419.6zM51.6 102.817L0 73.027V89.82l37.057 21.395v44.894L0 177.503v16.794l51.6-29.79zM180.04 238.757v-12.62l-10.928-6.312-10.93 6.31v12.622l10.93 6.31zM143.906 349.574v-36.688l-31.772-18.345-31.774 18.347v36.688l31.773 18.345 31.773-18.346zm-49.81-28.758l18.037-10.414 18.037 10.414v20.828l-18.037 10.414-18.038-10.414v-20.828zM200.884 250.79v-36.688l-31.772-18.345-31.773 18.345v36.688l31.772 18.345 31.772-18.345zm-49.81-28.758l18.038-10.414 18.037 10.414v20.828l-18.038 10.414-18.038-10.414v-20.828zM222.536 263.29v-61.688l-53.424-30.845-53.425 30.845v61.69l53.425 30.844 53.424-30.845zM130.23 210l38.882-22.45 38.88 22.45v44.894l-38.88 22.448-38.88-22.448V210zM108.58 460.86v-61.69l-53.425-30.845L1.73 399.17v61.69l53.425 30.844 53.425-30.845zm-92.305-53.293l38.88-22.448 38.88 22.447v44.895l-38.88 22.448-38.88-22.448v-44.895zM180.04 436.325v-12.62l-10.928-6.31-10.93 6.31v12.62l10.93 6.31zM393.47 164.507v-61.69l-53.424-30.844-53.425 30.845v61.69l53.426 30.844 53.425-30.845zm-92.304-53.292l38.88-22.448 38.88 22.448v44.895l-38.88 22.448-38.88-22.448v-44.895zM237.02 139.973v-12.62l-10.93-6.312-10.93 6.312v12.62l10.93 6.31zM386.094 423.704v12.62l10.93 6.312 10.93-6.31v-12.622l-10.93-6.31zM257.863 152.006v-36.688L226.09 96.973l-31.772 18.345v36.688l31.772 18.345 31.773-18.344zm-49.81-28.758l18.036-10.414 18.037 10.414v20.828L226.09 154.49l-18.038-10.414v-20.828zM9.107 324.92L0 319.663v23.135l9.107-5.257zM279.514 164.507v-61.69L226.09 71.974l-53.425 30.845v61.69l53.424 30.844 53.424-30.845zm-92.305-53.292l38.88-22.448 38.88 22.448v44.895l-38.88 22.448-38.88-22.448v-44.895zM29.95 312.887L0 295.595v15.86l16.214 9.36v20.83L0 351.005v15.86l29.95-17.29zM222.537 460.86v-61.69l-53.425-30.845-53.425 30.845v61.69l53.425 30.844 53.425-30.845zm-92.306-53.293l38.882-22.448 38.88 22.447v44.895l-38.88 22.448-38.88-22.448v-44.895zM101.203 522.488v12.62l10.93 6.312 10.93-6.31v-12.622l-10.93-6.31zM272.138 226.136v12.62l10.93 6.31 10.93-6.31v-12.62l-10.93-6.31zM137.338 53.222l31.773 18.345 31.773-18.345V16.534L171.55-.402h-4.877L137.34 16.534v36.688zm13.736-28.758l18.038-10.414 18.037 10.414v20.828L169.11 55.706l-18.038-10.414V24.464zM557.03 139.973l9.9 5.716v-24.054l-9.9 5.716zM283.068 170.757l-53.424 30.845v61.69l53.424 30.844 53.425-30.845v-61.688l-53.425-30.845zm38.88 84.137l-38.88 22.448-38.88-22.448V210l38.88-22.45 38.88 22.45v44.894zM165.558 164.507v-61.69l-53.425-30.844-53.425 30.845v61.69l53.425 30.844 53.425-30.845zm-92.306-53.292l38.88-22.448 38.88 22.448v44.895l-38.88 22.448-38.88-22.448v-44.895zM536.187 349.574l30.743 17.75v-15.86l-17.008-9.82v-20.828l17.008-9.82v-15.86l-30.743 17.75zM536.187 152.006l30.743 17.75v-15.86l-17.008-9.82v-20.828l17.008-9.82V97.57l-30.743 17.75zM443.073 127.352v12.62l10.93 6.31 10.93-6.31v-12.62l-10.93-6.31zM422.23 115.318v36.688l31.773 18.345 31.772-18.344v-36.688l-31.772-18.345-31.773 18.345zm49.81 28.758l-18.037 10.414-18.038-10.414v-20.828l18.038-10.414 18.037 10.414v20.828zM514.536 362.075l52.394 30.25V375.53l-37.85-21.852v-44.895l37.85-21.853v-16.794l-52.394 30.25zM365.252 53.222l31.772 18.345 31.772-18.345V16.534L399.464-.402h-4.878l-29.333 16.936v36.688zm13.735-28.758l18.038-10.414 18.037 10.414v20.828l-18.037 10.414-18.038-10.414V24.464zM457.557 65.723l53.425 30.844 53.424-30.844V4.033l-7.683-4.435h-29.088l22.227 12.833v44.895l-38.88 22.448-38.88-22.448V12.43L494.327-.4H465.24l-7.683 4.435zM479.208 53.222l31.773 18.345 31.773-18.345V16.534L513.42-.402h-4.877L479.21 16.534v36.688zm13.736-28.758l18.038-10.414 18.037 10.414v20.828L510.98 55.706l-18.038-10.414V24.464zM407.955 41.188v-12.62l-10.93-6.31-10.93 6.31v12.62l10.93 6.31zM229.643 65.723l53.425 30.844 53.425-30.844V4.033L328.81-.402h-29.088L321.95 12.43v44.895l-38.882 22.448-38.88-22.448V12.43L266.415-.4h-29.09l-7.682 4.435zM557.03 337.54l9.9 5.717v-24.053l-9.9 5.716zM521.912 41.188v-12.62l-10.93-6.31-10.93 6.31v12.62l10.93 6.31zM343.6 65.723l53.425 30.844 53.425-30.844V4.033l-7.683-4.435h-29.09l22.228 12.833v44.895l-38.88 22.448-38.88-22.448V12.43L380.372-.4h-29.09L343.6 4.033zM180.04 41.188v-12.62l-10.928-6.31-10.93 6.31v12.62l10.93 6.31zM514.536 164.507l52.394 30.25v-16.794l-37.85-21.854v-44.895l37.85-21.854V72.568l-52.394 30.25zM251.295 214.103v36.688l31.772 18.346 31.773-18.345v-36.687l-31.773-18.345-31.772 18.345zm49.81 28.757l-18.037 10.414-18.037-10.414v-20.828l18.038-10.414 18.038 10.414v20.828zM237.02 337.54v-12.62l-10.93-6.31-10.93 6.31v12.62l10.93 6.312zM514.536 559.644l11.922 6.883h29.087l-26.465-15.28V506.35l37.85-21.854v-16.794l-52.394 30.25zM557.03 535.11l9.9 5.715v-24.053l-9.9 5.716zM123.063 139.973v-12.62l-10.93-6.312-10.93 6.312v12.62l10.93 6.31zM115.687 65.723l53.425 30.844 53.424-30.844V4.033l-7.683-4.435h-29.088l22.227 12.833v44.895l-38.88 22.448-38.88-22.448V12.43L152.457-.4H123.37l-7.683 4.435zM257.863 349.574v-36.688L226.09 294.54l-31.772 18.346v36.688l31.773 18.345 31.773-18.346zm-49.81-28.758l18.037-10.414 18.037 10.414v20.828l-18.037 10.414-18.038-10.414v-20.828zM143.906 152.006v-36.688l-31.772-18.345-31.774 18.345v36.688l31.773 18.345 31.773-18.344zm-49.81-28.758l18.037-10.414 18.037 10.414v20.828l-18.037 10.414-18.038-10.414v-20.828zM294 41.188v-12.62l-10.932-6.31-10.93 6.31v12.62l10.93 6.31zM536.187 547.143l30.743 17.75v-15.86l-17.008-9.82v-20.828l17.008-9.82v-15.86l-30.743 17.75zM251.295 53.222l31.772 18.345 31.773-18.345V16.534L285.507-.402h-4.878l-29.334 16.936v36.688zm13.736-28.758L283.07 14.05l18.038 10.414v20.828l-18.038 10.414-18.037-10.414V24.464zM400.58 102.817v61.69l53.424 30.844 53.425-30.844v-61.69l-53.426-30.844-53.425 30.845zm92.303 53.292l-38.88 22.447-38.88-22.448v-44.896l38.88-22.448 38.88 22.448v44.895zM279.514 362.075v-61.69l-53.424-30.844-53.425 30.846v61.69l53.425 30.844 53.424-30.845zm-92.305-53.292l38.88-22.448 38.88 22.448v44.895l-38.88 22.448-38.88-22.448v-44.895z"/><path d="M450.45 65.817v-.094l-53.425 30.844L343.6 65.723v.094l53.425 30.845zM450.45-.07l.575-.332h-8.258l7.683 4.435zM343.6 4.033l7.683-4.435h-8.258l.575.332zM358.145 57.325l38.88 22.448 38.88-22.448V12.43L413.678-.4h-14.214l29.333 16.936v36.688l-31.772 18.344-31.773-18.344V16.534L394.586-.402h-14.214L358.145 12.43zM415.062 45.292V24.464L397.025 14.05l-18.038 10.414v20.828l18.038 10.414 18.037-10.414zm-28.968-16.725l10.93-6.31 10.93 6.31v12.62l-10.93 6.312-10.93-6.312v-12.62zM457.557 4.033l7.683-4.435h-8.258l.575.332zM564.406 65.817v-.094l-53.424 30.844-53.425-30.844v.094l53.425 30.845zM564.406-.07l.575-.332h-8.257l7.683 4.435zM450.45 4.033v61.784l3.553-2.05 3.554 2.05V-.07l-.575-.332h-5.957l-.575.332zM472.1 57.325l38.882 22.448 38.88-22.448V12.43L527.635-.4H513.42l29.334 16.936v36.688l-31.772 18.344-31.774-18.344V16.534L508.543-.402h-14.215L472.1 12.43zM529.02 45.292V24.464L510.98 14.05l-18.038 10.414v20.828l18.038 10.414 18.037-10.414zm-28.97-16.725l10.932-6.31 10.93 6.31v12.62l-10.93 6.312-10.93-6.312v-12.62zM564.406 4.033v61.784l2.524-1.457V-.402h-1.95l-.574.332zM340.046 71.973l53.425 30.844v-.094l-53.424-30.845-53.424 30.845v.094zM393.47 164.602v-.095l-53.424 30.845-53.424-30.845v.095l53.424 30.844zM340.046 71.878l53.425 30.845v-4.01l3.555-2.05L343.6 65.816v4.01zM378.927 156.11v-44.896l-38.88-22.448-38.88 22.448v44.895l38.88 22.447 38.88-22.448zm-70.653-40.792l31.772-18.345 31.773 18.345v36.688l-31.774 18.345-31.772-18.344v-36.688zM358.084 144.076v-20.828l-18.038-10.414-18.037 10.414v20.828l18.036 10.414 18.038-10.414zm-28.967-16.724l10.93-6.31 10.93 6.31v12.62l-10.93 6.312-10.93-6.31V127.35zM454.003 71.973l53.425 30.844v-.094l-53.425-30.845-53.424 30.845v.094zM400.58 164.507v.095l53.423 30.844 53.425-30.844v-.095l-53.425 30.845zM400.58 98.714v4.01l53.423-30.846-3.553-2.052v-4.01l-53.425 30.846zM454.003 71.878l53.425 30.845v-4.01l3.554-2.05-53.425-30.846v4.01zM454.003 71.878l3.554-2.052v-4.01l-3.554-2.05-3.553 2.05v4.01zM393.47 164.507v.095l3.555-2.052 3.554 2.052v-61.879l-3.555 2.05-3.554-2.05v.094zM400.58 102.723v-4.01l-3.555-2.05-3.554 2.05v4.01l3.555 2.05zM415.123 111.215v44.895l38.88 22.448 38.88-22.448v-44.895l-38.88-22.448-38.88 22.448zm70.653 40.79l-31.772 18.346-31.773-18.344v-36.688l31.774-18.345 31.772 18.345v36.688zM435.965 123.248v20.828l18.038 10.414 18.037-10.414v-20.828l-18.037-10.414-18.038 10.414zm28.968 16.725l-10.93 6.31-10.93-6.31v-12.62l10.93-6.312 10.93 6.312v12.62zM514.536 164.602l52.394 30.25v-.095l-52.394-30.25zM514.536 102.817l52.394-30.25v-.094l-52.394 30.25zM564.406 65.817l-53.424 30.845 3.554 2.052v4.01l52.394-30.25v-1.19l-2.524-1.458zM564.406 69.826l2.524 1.457V64.36l-2.524 1.457zM507.428 102.723v61.879l3.554-2.052 3.554 2.052v-61.879l-3.554 2.05zM507.428 102.723l3.554 2.05 3.554-2.05v-4.01l-3.554-2.05-3.554 2.05zM529.08 156.11l37.85 21.853v-8.207l-30.743-17.75v-36.688l30.743-17.75V89.36l-37.85 21.855zM549.922 144.076l17.008 9.82v-8.207l-9.9-5.717v-12.62l9.9-5.717v-8.207l-17.008 9.818zM283.068 294.23l53.425-30.844v-.095l-53.425 30.846-53.424-30.845v-61.688l53.424-30.845 53.425 30.845v-.095l-53.425-30.845-53.425 30.845v61.878zM283.068 170.662l53.425 30.845v-4.01l3.553-2.05-53.424-30.845v4.008zM244.188 210v44.894l38.88 22.448 38.88-22.448V210l-38.88-22.45-38.88 22.45zm70.653 40.79l-31.772 18.345-31.772-18.345v-36.688l31.772-18.345 31.773 18.345v36.688zM265.03 222.032v20.828l18.038 10.414 18.038-10.414v-20.828l-18.038-10.414-18.037 10.414zM294 238.757l-10.932 6.31-10.93-6.31v-12.62l10.93-6.312 10.93 6.31v12.622zM343.6 263.29v.096l53.425 30.844 53.425-30.844v-.095l-53.425 30.846zM343.6 201.602l53.425-30.845 53.425 30.845v-.095l-53.425-30.845-53.425 30.845zM343.6 197.498v4.01l53.425-30.846-3.554-2.052v-4.008l-53.424 30.844zM400.58 168.61l-3.555 2.052 53.425 30.845v-4.01l3.553-2.05L400.58 164.6zM397.025 170.662l3.554-2.052v-4.008l-3.555-2.052-3.554 2.052v4.008zM336.493 263.29v.096l3.553-2.052 3.554 2.052v-61.878l-3.554 2.052-3.553-2.053v.095zM343.6 201.507v-4.01l-3.554-2.05-3.553 2.05v4.01l3.553 2.052zM358.145 210v44.894l38.88 22.448 38.88-22.448V210l-38.88-22.45-38.88 22.45zm70.652 40.79l-31.772 18.345-31.772-18.345v-36.688l31.772-18.345 31.772 18.345v36.688zM378.987 222.032v20.828l18.038 10.414 18.037-10.414v-20.828l-18.037-10.414-18.038 10.414zm28.968 16.725l-10.93 6.31-10.93-6.31v-12.62l10.93-6.312 10.93 6.31v12.622zM457.557 263.29v.096l53.425 30.844 53.424-30.844v-.095l-53.424 30.846zM457.557 201.602l53.425-30.845 53.424 30.845v-.095l-53.424-30.845-53.425 30.845zM507.428 164.602l-53.425 30.844 3.554 2.052v4.01l53.425-30.846-3.554-2.052zM514.536 168.61l-3.554 2.052 53.424 30.845v-4.01l2.524-1.456v-1.188l-52.394-30.25zM507.428 164.602v4.008l3.554 2.052 3.554-2.052v-4.008l-3.554-2.052zM450.45 201.507v61.879l3.553-2.052 3.554 2.052v-61.878l-3.554 2.052zM450.45 201.507l3.553 2.052 3.554-2.053v-4.01l-3.554-2.05-3.553 2.05zM472.1 210v44.894l38.882 22.448 38.88-22.448V210l-38.88-22.45-38.88 22.45zm70.654 40.79l-31.772 18.345-31.773-18.345v-36.688l31.772-18.345 31.772 18.345v36.688zM492.944 222.032v20.828l18.038 10.414 18.037-10.414v-20.828l-18.038-10.414-18.038 10.414zm28.968 16.725l-10.93 6.31-10.93-6.31v-12.62l10.93-6.312 10.93 6.31v12.622zM564.406 201.602v61.784l2.524-1.457v-58.966l-2.524-1.457zM564.406 201.507l2.524 1.457v-6.923l-2.524 1.458zM279.514 362.075L226.09 392.92l-53.425-30.845v.095l53.425 30.845 53.424-30.845zM279.514 300.386v-.095l-53.424-30.844-53.425 30.845v.096l53.425-30.845zM279.514 296.282l3.554-2.052-53.425-30.845v4.01l-3.553 2.05 53.424 30.846zM264.97 353.678v-44.895l-38.88-22.448-38.88 22.448v44.895l38.88 22.448 38.88-22.448zm-70.653-40.79l31.773-18.346 31.772 18.345v36.688L226.09 367.92l-31.773-18.345v-36.688zM244.127 341.645v-20.828l-18.037-10.414-18.038 10.414v20.828l18.038 10.414 18.037-10.415zM215.16 324.92l10.93-6.31 10.93 6.31v12.62l-10.93 6.312-10.93-6.31V324.92zM286.622 300.386l53.424-30.845 53.425 30.846v-.095l-53.424-30.844-53.424 30.845zM286.622 362.075v.095l53.424 30.845 53.425-30.845v-.095l-53.424 30.845zM336.493 263.386l-53.425 30.844 3.554 2.052v4.01l53.424-30.846-3.553-2.05zM343.6 267.395l-3.554 2.05 53.425 30.846v-4.008l3.555-2.052-53.425-30.844zM336.493 263.386v4.01l3.553 2.05 3.554-2.05v-4.01l-3.554-2.052zM279.514 300.29V362.17l3.554-2.052 3.554 2.052V300.29l-3.554 2.053zM279.514 300.29l3.554 2.053 3.554-2.052v-4.008l-3.554-2.052-3.554 2.052zM301.166 308.783v44.895l38.88 22.448 38.88-22.448v-44.895l-38.88-22.448-38.88 22.448zm70.654 40.79l-31.773 18.346-31.772-18.346v-36.688l31.772-18.345 31.773 18.346v36.688zM322.01 320.816v20.828l18.036 10.414 18.038-10.414v-20.828l-18.038-10.414-18.037 10.414zm28.967 16.725l-10.93 6.312-10.93-6.31V324.92l10.93-6.31 10.93 6.31v12.62zM400.58 362.075v.095l53.423 30.845 53.425-30.845v-.095l-53.425 30.845zM400.58 300.386l53.423-30.845 53.425 30.846v-.095l-53.425-30.844-53.424 30.845zM450.45 263.386l-53.425 30.844 3.554 2.052v4.01l53.423-30.846-3.553-2.05zM457.557 267.395l-3.554 2.05 53.425 30.846v-4.008l3.554-2.052-53.425-30.844zM450.45 263.386v4.01l3.553 2.05 3.554-2.05v-4.01l-3.554-2.052zM393.47 300.29V362.17l3.555-2.052 3.554 2.052V300.29l-3.555 2.053zM393.47 300.29l3.555 2.053 3.554-2.052v-4.008l-3.555-2.052-3.554 2.052zM415.123 308.783v44.895l38.88 22.448 38.88-22.448v-44.895l-38.88-22.448-38.88 22.448zm70.653 40.79l-31.772 18.346-31.773-18.346v-36.688l31.774-18.345 31.772 18.346v36.688zM435.965 320.816v20.828l18.038 10.414 18.037-10.414v-20.828l-18.037-10.414-18.038 10.414zm28.968 16.725l-10.93 6.312-10.93-6.31V324.92l10.93-6.31 10.93 6.31v12.62zM514.536 300.386l52.394-30.25v-.095l-52.394 30.25zM514.536 362.17l52.394 30.25v-.095l-52.394-30.25zM564.406 263.386l-53.424 30.844 3.554 2.052v4.01l52.394-30.25v-1.19l-2.524-1.457zM564.406 267.395l2.524 1.457v-6.923l-2.524 1.456zM507.428 300.29V362.17l3.554-2.052 3.554 2.052V300.29l-3.554 2.053zM507.428 300.29l3.554 2.053 3.554-2.052v-4.008l-3.554-2.052-3.554 2.052zM529.08 353.678l37.85 21.853v-8.206l-30.743-17.75v-36.687l30.743-17.75v-8.207l-37.85 21.853zM549.922 341.645l17.008 9.82v-8.208l-9.9-5.716v-12.62l9.9-5.716v-8.207l-17.008 9.82zM169.112 491.704l-53.425-30.845v.094l53.425 30.845 53.425-30.846v-.095zM222.537 399.17v-.095l-53.425-30.845-53.425 30.845v.095l53.425-30.845zM222.537 395.066l3.553-2.05-53.425-30.846v4.01l-3.553 2.05 53.425 30.845zM207.992 452.462v-44.895l-38.88-22.448-38.88 22.447v44.895l38.88 22.448 38.88-22.448zm-70.654-40.79l31.773-18.346 31.773 18.345v36.69l-31.772 18.344-31.772-18.345v-36.69zM187.15 440.43V419.6l-18.038-10.413-18.038 10.414v20.83l18.038 10.413 18.037-10.414zm-28.97-16.726l10.932-6.31 10.93 6.31v12.62l-10.93 6.312-10.93-6.31v-12.622zM283.068 491.704l-53.424-30.845v.094l53.424 30.845 53.425-30.846v-.095zM229.644 399.075v.095l53.424-30.845 53.425 30.845v-.095l-53.425-30.845zM279.514 366.18v-4.01l-53.424 30.845 3.554 2.05v4.01l53.424-30.845zM286.622 366.18l-3.554 2.05 53.425 30.845v-4.01l3.553-2.05-53.424-30.845zM279.514 362.17v4.01l3.554 2.05 3.554-2.05v-4.01l-3.554-2.052zM229.644 399.17v-.095l-3.554 2.052-3.553-2.052v61.879l3.553-2.052 3.554 2.052v-.095zM226.09 393.015l-3.553 2.05v4.01l3.553 2.052 3.554-2.052v-4.01zM244.188 407.567v44.895l38.88 22.448 38.88-22.448v-44.895l-38.88-22.448-38.88 22.447zm70.653 40.79l-31.772 18.346-31.772-18.345V411.67l31.772-18.345 31.773 18.345v36.688zM265.03 419.6v20.83l18.038 10.413 18.038-10.414V419.6l-18.038-10.413L265.03 419.6zM294 436.326l-10.932 6.31-10.93-6.31v-12.62l10.93-6.312 10.93 6.31v12.622zM343.6 460.86v.094l53.425 30.845 53.425-30.846v-.095l-53.425 30.844zM343.6 399.17l53.425-30.845 53.425 30.845v-.095l-53.425-30.845-53.425 30.845zM393.47 362.17l-53.424 30.845 3.554 2.05v4.01l53.425-30.845-3.554-2.05zM400.58 366.18l-3.555 2.05 53.425 30.845v-4.01l3.553-2.05-53.424-30.845zM393.47 362.17v4.01l3.555 2.05 3.554-2.05v-4.01l-3.555-2.052zM343.6 399.17v-.095l-3.554 2.052-3.553-2.052v61.879l3.553-2.052 3.554 2.052v-.095zM336.493 399.075l3.553 2.052 3.554-2.052v-4.01l-3.554-2.05-3.553 2.05zM358.145 407.567v44.895l38.88 22.448 38.88-22.448v-44.895l-38.88-22.448-38.88 22.447zm70.652 40.79l-31.772 18.346-31.772-18.345V411.67l31.772-18.345 31.772 18.345v36.688zM378.987 419.6v20.83l18.038 10.413 18.037-10.414V419.6l-18.037-10.413-18.038 10.414zm28.968 16.725l-10.93 6.31-10.93-6.31v-12.62l10.93-6.312 10.93 6.31v12.622zM457.557 460.86v.094l53.425 30.845 53.424-30.846v-.095l-53.424 30.844zM457.557 399.17l53.425-30.845 53.424 30.845v-.095l-53.424-30.845-53.425 30.845zM507.428 362.17l-53.425 30.845 3.554 2.05v4.01l53.425-30.845-3.554-2.05zM514.536 366.18l-3.554 2.05 53.424 30.845v-4.01l2.524-1.456v-1.19l-52.394-30.25zM507.428 362.17v4.01l3.554 2.05 3.554-2.05v-4.01l-3.554-2.052zM450.45 399.075v61.879l3.553-2.052 3.554 2.052V399.074l-3.554 2.052zM450.45 399.075l3.553 2.052 3.554-2.052v-4.01l-3.554-2.05-3.553 2.05zM472.1 407.567v44.895l38.882 22.448 38.88-22.448v-44.895l-38.88-22.448-38.88 22.447zm70.654 40.79l-31.772 18.346-31.773-18.345V411.67l31.772-18.345 31.772 18.345v36.688zM492.944 419.6v20.83l18.038 10.413 18.037-10.414V419.6l-18.038-10.413-18.038 10.414zm28.968 16.725l-10.93 6.31-10.93-6.31v-12.62l10.93-6.312 10.93 6.31v12.622zM564.406 399.17v61.784l2.524-1.457v-58.965l-2.524-1.457zM564.406 399.075l2.524 1.457v-6.923l-2.524 1.456zM58.708 559.738l11.76 6.79h.163l-11.922-6.884zM112.133 467.015L58.708 497.86v.094l53.425-30.845 53.425 30.844v-.095zM165.558 559.644l-11.922 6.883h.164l11.758-6.79zM169.112 491.8l-53.425-30.846v4.01l-3.554 2.05 53.425 30.845v-4.01zM151.013 506.352l-38.88-22.448-38.88 22.448v44.895l26.466 15.28h24.827l26.466-15.28v-44.895zm-7.107 40.79l-31.772 18.346-31.772-18.345v-36.688l31.772-18.345 31.772 18.345v36.688zM94.095 518.385v20.828l18.038 10.414 18.037-10.414v-20.828l-18.037-10.414-18.038 10.415zm28.968 16.724l-10.93 6.31-10.93-6.31v-12.622l10.93-6.31 10.93 6.31v12.62zM226.09 467.015l-53.425 30.844v.094l53.425-30.845 53.424 30.844v-.095zM279.514 559.644l-11.922 6.883h.164l11.758-6.79zM172.665 559.738l11.76 6.79h.163l-11.923-6.884zM222.537 460.954L169.112 491.8l3.553 2.05v4.01l53.425-30.845-3.553-2.052zM283.068 491.8l-53.424-30.846v4.01l-3.554 2.05 53.424 30.845v-4.01zM229.644 460.954l-3.554-2.052-3.553 2.052v4.01l3.553 2.05 3.554-2.05zM169.112 499.91l-3.554-2.05v61.878l3.554-2.05 3.553 2.05V497.86zM169.112 491.8l-3.554 2.05v4.01l3.554 2.05 3.553-2.05v-4.01zM264.97 506.352l-38.88-22.448-38.88 22.448v44.895l26.466 15.28h24.828l26.466-15.28v-44.895zm-7.107 40.79L226.09 565.49l-31.772-18.345v-36.688l31.773-18.345 31.773 18.345v36.688zM208.052 518.385v20.828l18.038 10.414 18.037-10.414v-20.828L226.09 507.97l-18.038 10.415zm28.968 16.724l-10.93 6.31-10.93-6.31v-12.622l10.93-6.31 10.93 6.31v12.62zM286.622 559.738l11.758 6.79h.164l-11.922-6.884zM393.47 559.644l-11.92 6.883h.163l11.758-6.79zM340.046 467.015l-53.424 30.844v.094l53.424-30.845 53.425 30.844v-.095zM336.493 460.954L283.068 491.8l3.554 2.05v4.01l53.424-30.845-3.553-2.052zM397.025 491.8L343.6 460.953v4.01l-3.554 2.05 53.425 30.845v-4.01zM343.6 460.954l-3.554-2.052-3.553 2.052v4.01l3.553 2.05 3.554-2.05zM283.068 499.91l-3.554-2.05v61.878l3.554-2.05 3.554 2.05V497.86zM283.068 491.8l-3.554 2.05v4.01l3.554 2.05 3.554-2.05v-4.01zM378.927 506.352l-38.88-22.448-38.88 22.448v44.895l26.465 15.28h24.828l26.467-15.28v-44.895zm-7.107 40.79l-31.773 18.346-31.772-18.345v-36.688l31.772-18.345 31.773 18.345v36.688zM322.01 518.385v20.828l18.036 10.414 18.038-10.414v-20.828l-18.038-10.414-18.037 10.415zm28.967 16.724l-10.93 6.31-10.93-6.31v-12.622l10.93-6.31 10.93 6.31v12.62zM400.58 559.738l11.757 6.79h.164l-11.92-6.884zM507.428 559.644l-11.922 6.883h.164l11.758-6.79zM454.003 467.015L400.58 497.86v.094l53.423-30.845 53.425 30.844v-.095zM450.45 460.954L397.025 491.8l3.554 2.05v4.01l53.423-30.845-3.553-2.052zM457.557 464.963l-3.554 2.052 53.425 30.844v-4.01l3.554-2.05-53.425-30.846zM450.45 460.954v4.01l3.553 2.05 3.554-2.05v-4.01l-3.554-2.052zM397.025 499.91l-3.554-2.05v61.878l3.555-2.05 3.554 2.05V497.86zM397.025 491.8l-3.554 2.05v4.01l3.555 2.05 3.554-2.05v-4.01zM492.883 506.352l-38.88-22.448-38.88 22.448v44.895l26.466 15.28h24.827l26.466-15.28v-44.895zm-7.107 40.79l-31.772 18.346-31.773-18.345v-36.688l31.774-18.345 31.772 18.345v36.688zM435.965 518.385v20.828l18.038 10.414 18.037-10.414v-20.828l-18.037-10.414-18.038 10.415zm28.968 16.724l-10.93 6.31-10.93-6.31v-12.622l10.93-6.31 10.93 6.31v12.62zM514.536 559.738l11.757 6.79h.165l-11.922-6.884zM514.536 497.954l52.394-30.25v-.095l-52.394 30.25zM564.406 460.954L510.982 491.8l3.554 2.05v4.01l52.394-30.25v-1.19l-2.524-1.457zM564.406 464.963l2.524 1.457v-6.923l-2.524 1.457zM507.428 497.86v61.878l3.554-2.05 3.554 2.05V497.86l-3.554 2.05zM507.428 497.86l3.554 2.05 3.554-2.05v-4.01l-3.554-2.05-3.554 2.05zM529.08 551.246l26.465 15.28h11.385v-1.633l-30.743-17.75v-36.688l30.743-17.75v-8.207l-37.85 21.854zM549.922 539.213l17.008 9.82v-8.208l-9.9-5.716v-12.622l9.9-5.716v-8.207l-17.008 9.82zM53.894 566.527h.164l1.097-.633 1.096.633h.166l-1.26-.728zM58.708 563.747l-3.553 2.052 1.26.727h14.052l-11.76-6.79zM167.85 566.527h.165l1.097-.633 1.096.633h.165l-1.26-.728zM165.558 563.747v-4.01l-11.758 6.79h14.05l1.262-.728zM172.665 563.747l-3.553 2.052 1.26.727h14.052l-11.76-6.79zM165.558 559.738v4.01l3.554 2.05 3.553-2.05v-4.01l-3.553-2.05zM281.807 566.527h.164l1.098-.633 1.097.633h.164l-1.262-.728zM279.514 563.747v-4.01l-11.758 6.79h14.05l1.262-.728zM286.622 563.747l-3.554 2.052 1.26.727h14.052l-11.758-6.79zM279.514 559.738v4.01l3.554 2.05 3.554-2.05v-4.01l-3.554-2.05zM395.764 566.527h.164l1.097-.633 1.097.633h.164l-1.26-.728zM393.47 563.747v-4.01l-11.757 6.79h14.05l1.262-.728zM400.58 563.747l-3.555 2.052 1.26.727h14.052l-11.758-6.79zM393.47 559.738v4.01l3.555 2.05 3.554-2.05v-4.01l-3.555-2.05zM509.72 566.527h.165l1.097-.633 1.097.633h.163l-1.26-.728zM507.428 563.747v-4.01l-11.758 6.79h14.05l1.262-.728zM514.536 563.747l-3.554 2.052 1.26.727h14.05l-11.756-6.79zM507.428 559.738v4.01l3.554 2.05 3.554-2.05v-4.01l-3.554-2.05zM336.493 65.817v-.094l-53.425 30.844-53.425-30.844v.094l53.425 30.845zM336.493-.07l.575-.332h-8.258l7.683 4.435zM229.643 4.033l7.683-4.435h-8.258l.575.332zM336.493 4.033v61.784l3.553-2.05 3.554 2.05V-.07l-.575-.332h-5.957l-.575.332zM286.622 98.714v4.01l53.424-30.846-3.553-2.052v-4.01l-53.425 30.846zM340.046 71.878l3.554-2.052v-4.01l-3.554-2.05-3.553 2.05v4.01zM244.188 57.325l38.88 22.448 38.88-22.448V12.43L299.723-.4h-14.215l29.334 16.936v36.688L283.07 71.566l-31.773-18.344V16.534L280.63-.402h-14.215L244.188 12.43zM301.106 45.292V24.464L283.068 14.05 265.03 24.464v20.828l18.038 10.414 18.038-10.414zm-28.968-16.725l10.93-6.31 10.93 6.31v12.62L283.07 47.5l-10.93-6.312v-12.62zM226.09 71.973l53.424 30.844v-.094L226.09 71.878l-53.425 30.845v.094zM279.514 164.602v-.095l-53.425 30.845-53.425-30.845v.095l53.425 30.845zM279.514 164.507v.095l3.554-2.052 3.554 2.052v-61.879l-3.554 2.05-3.554-2.05v.094zM229.643 197.498v4.01l53.425-30.846-3.554-2.052v-4.008l-53.424 30.845zM283.068 170.662l3.554-2.052v-4.008l-3.554-2.052-3.554 2.052v4.008zM226.09 71.878l53.424 30.845v-4.01l3.554-2.05-53.425-30.846v4.01zM286.622 102.723v-4.01l-3.554-2.05-3.554 2.05v4.01l3.554 2.05zM264.97 156.11v-44.896l-38.88-22.448-38.88 22.448v44.895l38.88 22.447 38.88-22.448zm-70.653-40.792l31.772-18.345 31.772 18.345v36.688L226.09 170.35l-31.773-18.344v-36.688zM244.127 144.076v-20.828l-18.038-10.414-18.038 10.414v20.828l18.037 10.414 18.037-10.414zm-28.967-16.724l10.93-6.31 10.93 6.31v12.62l-10.93 6.312-10.93-6.31V127.35zM222.537 201.507l-53.425-30.845-53.425 30.845v.095l53.425-30.845 53.424 30.845v61.69l-53.424 30.844-53.425-30.845v.096l53.425 30.844 53.425-30.844zM226.09 261.334l3.553 2.05v-61.877l-3.554 2.052-3.553-2.053v61.88zM172.665 300.29l53.425-30.844-3.553-2.05v-4.01l-53.425 30.844 3.553 2.052zM229.643 263.385l-3.553-2.05-3.553 2.05v4.01l3.553 2.05 3.553-2.05zM169.112 170.662l53.425 30.845v-4.01l3.553-2.05-53.425-30.845v4.008zM229.643 201.507v-4.01l-3.553-2.05-3.553 2.05v4.01l3.552 2.052zM207.992 254.894V210l-38.88-22.45-38.88 22.45v44.894l38.88 22.448 38.88-22.448zm-70.654-40.79l31.773-18.346 31.773 18.345v36.688l-31.772 18.346-31.772-18.345v-36.687zM187.15 242.86v-20.828l-18.038-10.414-18.038 10.414v20.828l18.038 10.414 18.037-10.414zm-28.97-16.724l10.932-6.31 10.93 6.31v12.62l-10.93 6.312-10.93-6.31v-12.622zM165.558 362.075l-53.425 30.845-53.425-30.845v.095l53.425 30.845 53.425-30.845zM165.558 300.386v-.095l-53.425-30.844-53.425 30.845v.096l53.425-30.845zM172.665 362.17V300.29l-3.553 2.053-3.554-2.052V362.17l3.554-2.052zM115.687 399.075l53.425-30.845-3.554-2.05v-4.01l-53.425 30.845 3.554 2.05zM172.665 362.17l-3.553-2.052-3.554 2.052v4.01l3.554 2.05 3.553-2.05zM165.558 296.282l3.554-2.052-53.425-30.844v4.01l-3.554 2.05 53.425 30.845zM172.665 300.29v-4.008l-3.553-2.052-3.554 2.052v4.01l3.554 2.05zM151.013 353.678v-44.895l-38.88-22.448-38.88 22.448v44.895l38.88 22.448 38.88-22.448zm-70.653-40.79l31.773-18.346 31.772 18.345v36.688l-31.772 18.345-31.773-18.346v-36.687zM130.17 341.645v-20.828l-18.037-10.414-18.038 10.414v20.828l18.038 10.414 18.037-10.415zm-28.967-16.725l10.93-6.31 10.93 6.31v12.62l-10.93 6.312-10.93-6.31V324.92zM108.58 399.17v-.095L55.155 368.23 1.73 399.075v.095l53.425-30.845zM108.58 460.86l-53.425 30.844L1.73 460.86v.094L55.155 491.8l53.425-30.846zM115.687 460.954V399.074l-3.554 2.052-3.553-2.052v61.879l3.553-2.052zM58.708 497.86l53.425-30.845-3.553-2.052v-4.01L55.155 491.8l3.553 2.05zM115.687 460.954l-3.554-2.052-3.553 2.052v4.01l3.553 2.05 3.554-2.05zM108.58 395.066l3.553-2.05-53.425-30.846v4.01l-3.553 2.05 53.425 30.845zM115.687 399.075v-4.01l-3.554-2.05-3.553 2.05v4.01l3.553 2.052zM94.035 452.462v-44.895l-38.88-22.448-38.88 22.447v44.895l38.88 22.448 38.88-22.448zm-70.653-40.79l31.772-18.346 31.772 18.345v36.69l-31.772 18.344-31.772-18.345v-36.69zM73.193 440.43V419.6l-18.038-10.413L37.118 419.6v20.83l18.037 10.413 18.038-10.414zm-28.968-16.726l10.93-6.31 10.93 6.31v12.62l-10.93 6.312-10.93-6.31v-12.622zM51.6 497.86L0 468.067v.095l51.6 29.79zM51.6 559.644l-11.92 6.883h.163l11.758-6.79zM55.155 499.91l-3.554-2.05v61.878l3.555-2.05 3.553 2.05V497.86zM51.6 563.747v-4.01l-11.757 6.79h14.05l1.262-.728zM51.6 559.738v4.01l3.555 2.05 3.553-2.05v-4.01l-3.553-2.05zM51.6 493.85l3.555-2.05L1.73 460.953v4.01L0 465.96v2.108l51.6 29.79zM58.708 497.86v-4.01l-3.553-2.05-3.554 2.05v4.01l3.555 2.05zM37.057 506.352L0 484.957v8.207l29.95 17.29v36.69L0 564.433v2.093h10.59l26.467-15.28zM16.214 518.385L0 509.025v8.206l9.107 5.258v12.62L0 540.37v8.206l16.214-9.36zM222.536-.07l.575-.332h-8.257l7.683 4.435zM115.687 4.033l7.683-4.435h-8.258l.575.332zM222.536 65.817v-.094l-53.424 30.844-53.425-30.844v.094l53.425 30.845zM222.536 4.033v61.784l3.553-2.05 3.553 2.05V-.07l-.575-.332h-5.957l-.574.332zM172.665 98.714v4.01l53.424-30.846-3.554-2.052v-4.01l-53.424 30.846zM226.09 71.878l3.553-2.052v-4.01l-3.554-2.05-3.554 2.05v4.01zM130.23 57.325l38.882 22.448 38.88-22.448V12.43L185.765-.4H171.55l29.334 16.936v36.688l-31.772 18.344-31.774-18.344V16.534L166.673-.402h-14.215L130.23 12.43zM187.15 45.292V24.464L169.11 14.05l-18.038 10.414v20.828l18.038 10.414 18.037-10.414zm-28.97-16.725l10.932-6.31 10.93 6.31v12.62l-10.93 6.312-10.93-6.312v-12.62zM165.558 164.507l-53.425 30.845-53.425-30.845v.095l53.425 30.844 53.425-30.844zM112.133 71.973l53.425 30.844v-.094l-53.425-30.845-53.425 30.845v.094zM165.558 164.507v.095l3.554-2.052 3.553 2.052v-61.879l-3.553 2.05-3.554-2.05v.094zM115.687 201.507l53.425-30.845-3.554-2.052v-4.008l-53.425 30.844 3.554 2.052zM169.112 170.662l3.553-2.052v-4.008l-3.553-2.052-3.554 2.052v4.008zM112.133 71.878l53.425 30.845v-4.01l3.554-2.05-53.425-30.846v4.01zM172.665 102.723v-4.01l-3.553-2.05-3.554 2.05v4.01l3.554 2.05zM151.013 156.11v-44.896l-38.88-22.448-38.88 22.448v44.895l38.88 22.447 38.88-22.448zM80.36 115.317l31.773-18.345 31.772 18.345v36.688l-31.772 18.345-31.773-18.344v-36.688zM130.17 144.076v-20.828l-18.037-10.414-18.038 10.414v20.828l18.038 10.414 18.037-10.414zm-28.967-16.724l10.93-6.31 10.93 6.31v12.62l-10.93 6.312-10.93-6.31V127.35zM108.58 201.602v-.095l-53.425-30.845L1.73 201.507v.095l53.425-30.845zM108.58 263.29l-53.425 30.846L1.73 263.29v.096l53.425 30.844 53.425-30.844zM115.687 263.386v-61.878l-3.554 2.052-3.553-2.053v61.879l3.553-2.052zM58.708 300.29l53.425-30.844-3.553-2.05v-4.01L55.155 294.23l3.553 2.052zM115.687 263.386l-3.554-2.052-3.553 2.052v4.01l3.553 2.05 3.554-2.05zM108.58 197.498l3.553-2.052-53.425-30.844v4.008l-3.553 2.052 53.425 30.845zM115.687 201.507v-4.01l-3.554-2.05-3.553 2.05v4.01l3.553 2.052zM94.035 254.894V210l-38.88-22.45L16.275 210v44.894l38.88 22.448 38.88-22.448zm-70.653-40.79l31.772-18.346 31.772 18.345v36.688l-31.772 18.346-31.772-18.346v-36.687zM73.193 242.86v-20.828l-18.038-10.414-18.037 10.414v20.828l18.037 10.414 18.038-10.414zm-28.968-16.724l10.93-6.31 10.93 6.31v12.62l-10.93 6.312-10.93-6.31v-12.622zM51.6 362.075L0 391.867v.094l51.6-29.79zM51.6 300.29L0 270.5v.094l51.6 29.792zM58.708 362.17V300.29l-3.553 2.053-3.554-2.052V362.17l3.555-2.052zM1.73 399.075l53.425-30.845-3.554-2.05v-4.01L0 391.96v2.108l1.73.998zM58.708 362.17l-3.553-2.052-3.554 2.052v4.01l3.555 2.05 3.553-2.05zM51.6 296.282l3.555-2.052L1.73 263.386v4.01l-1.73.997v2.106l51.6 29.79zM58.708 300.29v-4.008l-3.553-2.052-3.554 2.052v4.01l3.555 2.05zM37.057 308.783L0 287.388v8.207l29.95 17.292v36.687L0 366.866v8.207l37.057-21.395zM16.214 320.816L0 311.456v8.207l9.107 5.257v12.62L0 342.8v8.207l16.214-9.36zM1.73 460.86v-61.785l-1.73 1v59.88l1.73 1zM1.73 460.954L0 459.956v6.005l1.73-.997zM1.73 395.066L0 394.068v6.006l1.73-1zM108.58 65.817v-.094L55.155 96.567 1.73 65.723V4.033L9.413-.402H0v65.22l55.155 31.844zM108.58 4.033V-.07l.575-.332h-8.258zM108.58 4.033v61.784l3.553-2.05 3.554 2.05V-.07l-.575-.332h-5.957l-.575.332zM58.708 98.714v4.01l53.425-30.846-3.553-2.052v-4.01L55.155 96.663zM112.133 71.878l3.554-2.052v-4.01l-3.554-2.05-3.553 2.05v4.01zM16.275 57.325l38.88 22.448 38.88-22.448V12.43L71.808-.4H57.594l29.333 16.936v36.688L55.155 71.566 23.382 53.222V16.534L52.716-.402H38.5L16.276 12.43zM73.192 45.292V24.464L55.155 14.05 37.117 24.464v20.828l18.038 10.414 18.037-10.414zM44.224 28.567l10.93-6.31 10.93 6.31v12.62L55.155 47.5l-10.93-6.312v-12.62zM51.6 164.507L0 194.297v.096l51.6-29.79zM51.6 102.723L0 72.93v.096l51.6 29.79zM58.708 164.602v-61.879l-3.553 2.05-3.554-2.05v61.879l3.555-2.052zM1.73 201.507l53.425-30.845-3.554-2.052v-4.008L0 194.392v2.108l1.73.998zM58.708 164.602l-3.553-2.052-3.554 2.052v4.008l3.555 2.052 3.553-2.052zM51.6 98.714l3.555-2.052L0 64.82v8.11l51.6 29.793zM58.708 102.723v-4.01l-3.553-2.05-3.554 2.05v4.01l3.555 2.05zM37.057 111.215L0 89.82v8.207l29.95 17.29v36.69L0 169.296v8.207l37.057-21.395zM16.214 123.248L0 113.888v8.206l9.107 5.258v12.62L0 145.23v8.207l16.214-9.36zM1.73 263.29v-61.783l-1.73.998v59.882l1.73 1zM1.73 263.386l-1.73-1v6.007l1.73-.998zM1.73 197.498L0 196.5v6.005l1.73-.998z"/></g></svg>