<?xml version="1.0" encoding="utf-8"?>
<!-- Generator: Adobe Illustrator 18.1.1, SVG Export Plug-In . SVG Version: 6.00 Build 0)  -->
<svg version="1.1" id="Layer_1" xmlns="http://www.w3.org/2000/svg" xmlns:xlink="http://www.w3.org/1999/xlink" x="0px" y="0px"
	 viewBox="0 0 566.9 566.9" enable-background="new 0 0 566.9 566.9" xml:space="preserve">
<g>
	<defs>
		<rect id="SVGID_1_" x="0" y="0" width="566.9" height="566.9"/>
	</defs>
	<clipPath id="SVGID_2_">
		<use xlink:href="#SVGID_1_"  overflow="visible"/>
	</clipPath>
	<g clip-path="url(#SVGID_2_)">
		<polyline fill="none" stroke="#000000" stroke-width="16" stroke-miterlimit="10" points="575.5,17.9 458.2,-50.1 340.9,17.9 
			223.6,-50.1 106.3,17.9 -11,-50.1 		"/>
	</g>
	<g clip-path="url(#SVGID_2_)">
		<polyline fill="none" stroke="#000000" stroke-width="16" stroke-miterlimit="10" points="575.5,57.8 458.2,-10.3 340.9,57.8 
			223.6,-10.3 106.3,57.8 -11,-10.3 		"/>
	</g>
	<g clip-path="url(#SVGID_2_)">
		<polyline fill="none" stroke="#000000" stroke-width="16" stroke-miterlimit="10" points="575.5,97.7 458.2,29.6 340.9,97.7 
			223.6,29.6 106.3,97.7 -11,29.6 		"/>
	</g>
	<g clip-path="url(#SVGID_2_)">
		<polyline fill="none" stroke="#000000" stroke-width="16" stroke-miterlimit="10" points="575.5,137.6 458.2,69.5 340.9,137.6 
			223.6,69.5 106.3,137.6 -11,69.5 		"/>
	</g>
	<g clip-path="url(#SVGID_2_)">
		<polyline fill="none" stroke="#000000" stroke-width="16" stroke-miterlimit="10" points="575.5,177.5 458.2,109.4 340.9,177.5 
			223.6,109.4 106.3,177.5 -11,109.4 		"/>
	</g>
	<g clip-path="url(#SVGID_2_)">
		<polyline fill="none" stroke="#000000" stroke-width="16" stroke-miterlimit="10" points="575.5,217.4 458.2,149.3 340.9,217.4 
			223.6,149.3 106.3,217.4 -11,149.3 		"/>
	</g>
	<g clip-path="url(#SVGID_2_)">
		<polyline fill="none" stroke="#000000" stroke-width="16" stroke-miterlimit="10" points="575.5,257.2 458.2,189.2 340.9,257.2 
			223.6,189.2 106.3,257.2 -11,189.2 		"/>
	</g>
	<g clip-path="url(#SVGID_2_)">
		<polyline fill="none" stroke="#000000" stroke-width="16" stroke-miterlimit="10" points="575.5,297.1 458.2,229.1 340.9,297.1 
			223.6,229.1 106.3,297.1 -11,229.1 		"/>
	</g>
	<g clip-path="url(#SVGID_2_)">
		<polyline fill="none" stroke="#000000" stroke-width="16" stroke-miterlimit="10" points="575.5,337 458.2,269 340.9,337 
			223.6,269 106.3,337 -11,269 		"/>
	</g>
	<g clip-path="url(#SVGID_2_)">
		<polyline fill="none" stroke="#000000" stroke-width="16" stroke-miterlimit="10" points="575.5,376.9 458.2,308.9 340.9,376.9 
			223.6,308.9 106.3,376.9 -11,308.9 		"/>
	</g>
	<g clip-path="url(#SVGID_2_)">
		<polyline fill="none" stroke="#000000" stroke-width="16" stroke-miterlimit="10" points="575.5,416.8 458.2,348.8 340.9,416.8 
			223.6,348.8 106.3,416.8 -11,348.8 		"/>
	</g>
	<g clip-path="url(#SVGID_2_)">
		<polyline fill="none" stroke="#000000" stroke-width="16" stroke-miterlimit="10" points="575.5,456.7 458.2,388.7 340.9,456.7 
			223.6,388.7 106.3,456.7 -11,388.7 		"/>
	</g>
	<g clip-path="url(#SVGID_2_)">
		<polyline fill="none" stroke="#000000" stroke-width="16" stroke-miterlimit="10" points="575.5,496.6 458.2,428.6 340.9,496.6 
			223.6,428.6 106.3,496.6 -11,428.6 		"/>
	</g>
	<g clip-path="url(#SVGID_2_)">
		<polyline fill="none" stroke="#000000" stroke-width="16" stroke-miterlimit="10" points="575.5,536.5 458.2,468.5 340.9,536.5 
			223.6,468.5 106.3,536.5 -11,468.5 		"/>
	</g>
	<g clip-path="url(#SVGID_2_)">
		<polyline fill="none" stroke="#000000" stroke-width="16" stroke-miterlimit="10" points="575.5,576.4 458.2,508.4 340.9,576.4 
			223.6,508.4 106.3,576.4 -11,508.4 		"/>
	</g>
	<g clip-path="url(#SVGID_2_)">
		<polyline fill="none" stroke="#000000" stroke-width="16" stroke-miterlimit="10" points="575.5,616.3 458.2,548.3 340.9,616.3 
			223.6,548.3 106.3,616.3 -11,548.3 		"/>
	</g>
</g>
</svg>
