<svg xmlns="http://www.w3.org/2000/svg" xmlns:xlink="http://www.w3.org/1999/xlink" viewBox="0 0 566.9 566.9" enable-background="new 0 0 566.9 566.9"><defs><path id="a" d="M0 0h566.9v566.9H0z"/></defs><clipPath id="b"><use xlink:href="#a" overflow="visible"/></clipPath><path fill="none" stroke="#000" stroke-width="16" stroke-miterlimit="10" d="M575.5 17.9l-117.3-68-117.3 68-117.3-68-117.3 68-117.3-68M575.5 57.8L458.2-10.3 340.9 57.8 223.6-10.3 106.3 57.8-11-10.3m586.5 108L458.2 29.6 340.9 97.7 223.6 29.6 106.3 97.7-11 29.6m586.5 108L458.2 69.5l-117.3 68.1-117.3-68.1-117.3 68.1L-11 69.5m586.5 108l-117.3-68.1-117.3 68.1-117.3-68.1-117.3 68.1L-11 109.4m586.5 108l-117.3-68.1-117.3 68.1-117.3-68.1-117.3 68.1L-11 149.3m586.5 107.9l-117.3-68-117.3 68-117.3-68-117.3 68-117.3-68m586.5 107.9l-117.3-68-117.3 68-117.3-68-117.3 68-117.3-68M575.5 337l-117.3-68-117.3 68-117.3-68-117.3 68L-11 269m586.5 107.9l-117.3-68-117.3 68-117.3-68-117.3 68-117.3-68m586.5 107.9l-117.3-68-117.3 68-117.3-68-117.3 68-117.3-68m586.5 107.9l-117.3-68-117.3 68-117.3-68-117.3 68-117.3-68m586.5 107.9l-117.3-68-117.3 68-117.3-68-117.3 68-117.3-68m586.5 107.9l-117.3-68-117.3 68-117.3-68-117.3 68-117.3-68m586.5 107.9l-117.3-68-117.3 68-117.3-68-117.3 68-117.3-68m586.5 107.9l-117.3-68-117.3 68-117.3-68-117.3 68-117.3-68" clip-path="url(#b)"/></svg>